<svg width="1980" height="388" viewBox="0 0 1980 388" fill="none" xmlns="http://www.w3.org/2000/svg">
<rect width="1980" height="388" fill="white"/>
<rect width="1980" height="388" fill="url(#paint0_linear)"/>
<path opacity="0.65" d="M436.549 343.131H431.095C430.982 343.131 430.869 343.018 430.869 342.905V337.451C430.869 337.188 430.681 337 430.418 337H426.582C426.319 337 426.131 337.188 426.131 337.451V342.905C426.131 343.018 426.018 343.131 425.905 343.131H420.451C420.188 343.131 420 343.319 420 343.582V347.418C420 347.681 420.188 347.869 420.451 347.869H425.905C426.018 347.869 426.131 347.982 426.131 348.095V353.549C426.131 353.812 426.319 354 426.582 354H430.418C430.681 354 430.869 353.812 430.869 353.549V348.095C430.869 347.982 430.982 347.869 431.095 347.869H436.549C436.812 347.869 437 347.681 437 347.418V343.582C437 343.319 436.812 343.131 436.549 343.131Z" fill="#16254E"/>
<path d="M989.227 256.333C1523.41 259.323 1788.34 245.121 1980 226.434V0H0V355C68.0094 329.586 321.499 252.596 989.227 256.333Z" fill="url(#paint1_linear)"/>
<path opacity="0.8" fill-rule="evenodd" clip-rule="evenodd" d="M529.624 83.4301L529.296 83.5607C528.97 83.6819 528.642 83.7935 528.3 83.8828C522.644 85.3587 516.841 81.9568 515.364 76.3003C513.888 70.6438 517.289 64.8409 522.945 63.3649C528.603 61.8884 534.405 65.2895 535.881 70.9461C536.219 72.2404 536.31 73.5653 536.152 74.8874C536.149 74.9163 536.145 74.9478 536.144 74.9775C536.133 75.0276 536.122 75.0791 536.114 75.1318C535.573 78.9974 533.208 82.0233 529.624 83.4301ZM529.063 86.8071C529.508 86.6908 529.938 86.5472 530.356 86.3883C530.477 86.3434 530.604 86.2966 530.727 86.2408L530.73 86.2434L530.727 86.2408L530.729 86.2402L530.73 86.2434C535.291 84.4532 538.421 80.4553 539.109 75.549C539.114 75.5092 539.119 75.4695 539.12 75.4298C539.136 75.3717 539.146 75.3091 539.156 75.2468C539.359 73.5476 539.24 71.8443 538.806 70.1826C536.909 62.9129 529.451 58.5436 522.182 60.4406C514.912 62.3379 510.543 69.7939 512.44 77.0635C514.337 84.3342 521.793 88.7043 529.063 86.8071Z" fill="white"/>
<path opacity="0.8" fill-rule="evenodd" clip-rule="evenodd" d="M1495.02 240.136L1494.69 240.27C1494.35 240.394 1494.02 240.508 1493.67 240.599C1487.89 242.106 1481.97 238.632 1480.46 232.856C1478.95 227.08 1482.43 221.154 1488.2 219.647C1493.98 218.139 1499.9 221.612 1501.41 227.388C1501.76 228.71 1501.85 230.063 1501.69 231.413C1501.69 231.442 1501.68 231.475 1501.68 231.505C1501.67 231.556 1501.66 231.609 1501.65 231.662C1501.1 235.61 1498.68 238.7 1495.02 240.136ZM1494.45 243.592C1494.9 243.473 1495.34 243.326 1495.77 243.164C1495.89 243.118 1496.02 243.07 1496.15 243.013L1496.15 243.016L1496.15 243.013L1496.15 243.013L1496.15 243.016C1500.81 241.187 1504.01 237.102 1504.71 232.09C1504.72 232.049 1504.72 232.009 1504.73 231.968C1504.74 231.909 1504.75 231.845 1504.76 231.781C1504.97 230.045 1504.85 228.305 1504.4 226.607C1502.47 219.18 1494.85 214.716 1487.42 216.654C1479.99 218.592 1475.53 226.21 1477.47 233.637C1479.4 241.065 1487.02 245.53 1494.45 243.592Z" fill="white"/>
<path opacity="0.8" fill-rule="evenodd" clip-rule="evenodd" d="M1908.52 302.83L1915.26 300.105C1915.53 299.995 1915.75 299.781 1915.86 299.505C1915.98 299.23 1915.98 298.926 1915.87 298.65L1911.53 288.147C1911.29 287.576 1910.63 287.299 1910.06 287.53L1899.55 291.779C1899.28 291.889 1899.06 292.1 1898.94 292.379C1898.83 292.655 1898.83 292.958 1898.94 293.234L1903.45 304.152C1903.59 304.494 1903.99 304.66 1904.33 304.521L1908.52 302.83ZM1917.37 300.667C1917.04 301.193 1916.56 301.601 1915.97 301.837L1905.05 306.253C1903.75 306.777 1902.26 306.149 1901.72 304.853L1897.27 294.075C1896.9 293.197 1896.91 292.385 1897.21 291.65C1897.52 290.915 1898.1 290.346 1898.84 290.047L1909.35 285.799C1910.87 285.182 1912.63 285.921 1913.26 287.447L1917.6 297.949C1917.9 298.688 1917.9 299.5 1917.6 300.235C1917.53 300.386 1917.46 300.531 1917.37 300.667Z" fill="white"/>
<path opacity="0.8" fill-rule="evenodd" clip-rule="evenodd" d="M264.379 253.517C264.554 253.406 264.754 253.336 264.967 253.318C265.405 253.277 265.82 253.454 266.082 253.791L275.511 265.842C275.776 266.18 275.659 266.522 275.594 266.652C275.533 266.777 275.349 267.071 274.938 267.107L258.146 268.626C257.535 268.683 257.114 268.488 256.854 268.108C256.582 267.717 256.563 267.25 256.799 266.827L263.937 253.983C264.043 253.79 264.196 253.632 264.379 253.517ZM276.488 268.744C276.962 268.444 277.35 268.016 277.603 267.493C278.068 266.518 277.95 265.391 277.295 264.55L267.936 252.591C267.151 251.583 266.006 251.104 264.811 251.214C263.618 251.321 262.564 251.996 261.99 253.028L254.854 265.871C254.235 266.984 254.287 268.264 254.995 269.298C255.695 270.322 256.881 270.861 258.167 270.743L275.09 269.214C275.6 269.168 276.077 269.004 276.488 268.744Z" fill="white"/>
<path opacity="0.65" d="M1721.55 59.1305L1716.1 59.1305C1715.98 59.1305 1715.87 59.0177 1715.87 58.9049L1715.87 53.4513C1715.87 53.1881 1715.68 53 1715.42 53L1711.58 53C1711.32 53 1711.13 53.1881 1711.13 53.4513L1711.13 58.9049C1711.13 59.0177 1711.02 59.1305 1710.9 59.1305L1705.45 59.1305C1705.19 59.1305 1705 59.3186 1705 59.5819L1705 63.4181C1705 63.6814 1705.19 63.8695 1705.45 63.8695L1710.9 63.8695C1711.02 63.8695 1711.13 63.9823 1711.13 64.0951L1711.13 69.5487C1711.13 69.8119 1711.32 70 1711.58 70L1715.42 70C1715.68 70 1715.87 69.8119 1715.87 69.5487L1715.87 64.0951C1715.87 63.9823 1715.98 63.8695 1716.1 63.8695L1721.55 63.8695C1721.81 63.8695 1722 63.6814 1722 63.4181L1722 59.5819C1722 59.3186 1721.81 59.1305 1721.55 59.1305Z" fill="#16254E"/>
<g opacity="0.8">
<path opacity="0.8" fill-rule="evenodd" clip-rule="evenodd" d="M1531.8 210.649C1531.72 211.23 1532.12 211.769 1532.71 211.849L1546.71 213.803C1547.29 213.885 1547.83 213.479 1547.91 212.897C1548 212.315 1547.59 211.779 1547.01 211.698L1533 209.742C1532.42 209.662 1531.88 210.067 1531.8 210.649Z" fill="white"/>
<path opacity="0.8" fill-rule="evenodd" clip-rule="evenodd" d="M1539.78 204.622L1537.83 218.63C1537.75 219.211 1538.15 219.749 1538.73 219.83C1539.31 219.912 1539.85 219.505 1539.93 218.924L1541.89 204.916C1541.97 204.335 1541.56 203.797 1540.98 203.716C1540.4 203.637 1539.86 204.041 1539.78 204.622Z" fill="white"/>
</g>
<g opacity="0.8">
<path opacity="0.8" fill-rule="evenodd" clip-rule="evenodd" d="M1515.61 335.528C1515.34 335.753 1515.25 336.148 1515.41 336.41L1519.36 342.718C1519.52 342.98 1519.87 343.009 1520.14 342.785C1520.42 342.561 1520.5 342.167 1520.34 341.905L1516.4 335.596C1516.23 335.333 1515.88 335.304 1515.61 335.528Z" fill="white"/>
<path opacity="0.8" fill-rule="evenodd" clip-rule="evenodd" d="M1520.62 336.694L1514.32 340.636C1514.05 340.8 1514.02 341.153 1514.25 341.425C1514.47 341.696 1514.87 341.783 1515.13 341.619L1521.44 337.677C1521.7 337.513 1521.73 337.16 1521.5 336.889C1521.28 336.618 1520.88 336.53 1520.62 336.694Z" fill="white"/>
<path opacity="0.8" fill-rule="evenodd" clip-rule="evenodd" d="M1520.62 336.694L1514.32 340.636C1514.05 340.8 1514.02 341.153 1514.25 341.425C1514.47 341.696 1514.87 341.783 1515.13 341.619L1521.44 337.677C1521.7 337.513 1521.73 337.16 1521.5 336.889C1521.28 336.618 1520.88 336.53 1520.62 336.694Z" fill="white"/>
</g>
<g opacity="0.8">
<path opacity="0.8" fill-rule="evenodd" clip-rule="evenodd" d="M179.046 30.6858C178.775 30.9109 178.687 31.3053 178.852 31.5678L182.794 37.8753C182.958 38.1372 183.31 38.1669 183.581 37.9424C183.854 37.7184 183.94 37.3245 183.776 37.0626L179.834 30.7535C179.67 30.4909 179.317 30.4612 179.046 30.6858Z" fill="white"/>
<path opacity="0.8" fill-rule="evenodd" clip-rule="evenodd" d="M184.061 31.8513L177.754 35.7938C177.492 35.9575 177.461 36.3107 177.686 36.5821C177.911 36.8535 178.306 36.9408 178.566 36.7765L184.875 32.8346C185.137 32.6709 185.168 32.3177 184.943 32.0463C184.717 31.7752 184.323 31.6876 184.061 31.8513Z" fill="white"/>
<path opacity="0.8" fill-rule="evenodd" clip-rule="evenodd" d="M184.061 31.8513L177.754 35.7938C177.492 35.9575 177.461 36.3107 177.686 36.5821C177.911 36.8535 178.306 36.9408 178.566 36.7765L184.875 32.8346C185.137 32.6709 185.168 32.3177 184.943 32.0463C184.717 31.7752 184.323 31.6876 184.061 31.8513Z" fill="white"/>
</g>
<path opacity="0.8" fill-rule="evenodd" clip-rule="evenodd" d="M1564.27 256.403C1565.74 257.268 1567.64 256.774 1568.5 255.298C1569.37 253.825 1568.87 251.929 1567.4 251.066C1565.92 250.203 1564.03 250.697 1563.16 252.171C1562.3 253.644 1562.79 255.54 1564.27 256.403Z" fill="white"/>
<defs>
<linearGradient id="paint0_linear" x1="0" y1="0" x2="146.441" y2="747.303" gradientUnits="userSpaceOnUse">
<stop stop-color="#4C4FEE"/>
<stop offset="1" stop-color="#3088F4"/>
</linearGradient>
<linearGradient id="paint1_linear" x1="990" y1="-15" x2="1039.72" y2="381.764" gradientUnits="userSpaceOnUse">
<stop stop-color="white" stop-opacity="0.14"/>
<stop offset="1" stop-color="#308AF4" stop-opacity="0.1"/>
</linearGradient>
</defs>
</svg>
