<svg width="74" height="75" viewBox="0 0 74 75" fill="none" xmlns="http://www.w3.org/2000/svg">
<path d="M54.2606 59.2353C63.3942 59.2353 70.7985 51.8366 70.7985 42.7099C70.7985 33.5832 63.3942 26.1846 54.2606 26.1846C45.127 26.1846 37.7227 33.5832 37.7227 42.7099C37.7227 51.8366 45.127 59.2353 54.2606 59.2353Z" fill="#FFBB00"/>
<path d="M38.3502 9.99999V2.55393C38.3502 1.80522 37.7435 1.20427 37.0006 1.20427C36.2577 1.20427 35.6509 1.80522 35.6509 2.55393V9.99999C35.6509 10.7487 36.2577 11.3497 37.0006 11.3497C37.7446 11.3497 38.3502 10.744 38.3502 9.99999Z" fill="black" stroke="black" stroke-width="0.89933"/>
<path d="M18.278 7.93082L18.278 7.93082L18.2794 7.93327L22.0024 14.381L22.0024 14.381L22.0037 14.3833C22.2554 14.8131 22.7076 15.0558 23.1723 15.0558C23.3981 15.0558 23.6342 14.9984 23.8464 14.8764L23.8485 14.8752C24.491 14.5013 24.7114 13.68 24.3436 13.0337L24.3436 13.0337L24.3422 13.0312L20.6192 6.58361C20.6192 6.58359 20.6192 6.58357 20.6191 6.58355C20.2459 5.93699 19.4186 5.71364 18.7731 6.08929C18.1305 6.46322 17.9102 7.28448 18.278 7.93082Z" fill="black" stroke="black" stroke-width="0.89933"/>
<path d="M7.27534 18.9344L7.27534 18.9344L7.27428 18.9338C6.63409 18.5664 5.8059 18.7786 5.43379 19.4299C5.05963 20.0752 5.28323 20.9012 5.92914 21.2741C5.92914 21.2741 5.92915 21.2742 5.92916 21.2742L12.3768 24.9972L12.3775 24.9976C12.589 25.1192 12.8215 25.177 13.0517 25.177C13.5163 25.177 13.9686 24.9343 14.2202 24.5045L14.2203 24.5045L14.223 24.4997C14.5912 23.8528 14.3699 23.0309 13.723 22.6574C13.723 22.6574 13.723 22.6574 13.723 22.6574L7.27534 18.9344Z" fill="black" stroke="black" stroke-width="0.89933"/>
<path d="M10.6924 37.6542C10.6924 36.9054 10.0856 36.3045 9.34273 36.3045H1.90018C1.15728 36.3045 0.550518 36.9054 0.550518 37.6542C0.550518 38.4029 1.15728 39.0038 1.90018 39.0038H9.34273C10.0903 39.0038 10.6924 38.4017 10.6924 37.6542Z" fill="black" stroke="black" stroke-width="0.89933"/>
<path d="M12.3735 50.3148L12.3734 50.3149L5.92681 54.0373C5.92663 54.0374 5.92645 54.0375 5.92628 54.0376C5.28093 54.4083 5.06034 55.2367 5.43499 55.8805L5.43558 55.8815C5.68721 56.3113 6.13948 56.554 6.60411 56.554C6.82991 56.554 7.06602 56.4966 7.27825 56.3746L7.27897 56.3742L13.7267 52.6511L13.728 52.6504C14.3705 52.2764 14.5909 51.4552 14.2231 50.8088L14.2231 50.8088L14.2203 50.8041C13.8421 50.1579 13.0197 49.9418 12.3735 50.3148Z" fill="black" stroke="black" stroke-width="0.89933"/>
<path d="M20.6191 68.7274L20.6191 68.7274C20.3675 69.1573 19.9152 69.3999 19.4505 69.3999C19.262 69.3999 19.0721 69.3612 18.8933 69.2804H18.8807L18.7768 69.2207C18.7767 69.2207 18.7765 69.2206 18.7764 69.2205L18.9967 68.8374L19.0005 68.8307L20.6191 68.7274ZM20.6191 68.7274L20.6204 68.7251M20.6191 68.7274L20.6204 68.7251M20.6204 68.7251L24.3427 62.2787C24.3428 62.2785 24.3429 62.2783 24.3431 62.2781C24.7182 61.6326 24.4947 60.8058 23.8484 60.4326L23.8484 60.4326M20.6204 68.7251L23.8484 60.4326M23.8484 60.4326C23.2004 60.0586 22.3772 60.2807 22.0037 60.9277M23.8484 60.4326L22.0037 60.9277M22.0037 60.9277C22.0037 60.9277 22.0037 60.9277 22.0037 60.9277L22.0037 60.9277Z" fill="black" stroke="black" stroke-width="0.89933"/>
<path d="M35.6509 65.3086V72.7546C35.6509 73.5033 36.2577 74.1043 37.0006 74.1043C37.7435 74.1043 38.3502 73.5033 38.3502 72.7546V65.3086C38.3502 64.5599 37.7435 63.9589 37.0006 63.9589C36.2565 63.9589 35.6509 64.5645 35.6509 65.3086Z" fill="black" stroke="black" stroke-width="0.89933"/>
<path d="M51.9969 60.9313L51.9969 60.9313L51.9961 60.93C51.6237 60.2901 50.8023 60.061 50.1522 60.4362L50.1522 60.4362L50.1508 60.437C49.5083 60.811 49.2879 61.6322 49.6557 62.2786L49.6557 62.2786L49.6571 62.281L53.3802 68.7287L53.3801 68.7287L53.3815 68.731C53.6331 69.1609 54.0854 69.4035 54.55 69.4035C54.7758 69.4035 55.0119 69.3462 55.2242 69.2242L55.2262 69.223C55.8687 68.849 56.0891 68.0278 55.7213 67.3814L55.7213 67.3814L55.7199 67.379L51.9969 60.9313Z" fill="black" stroke="black" stroke-width="0.89933"/>
<path d="M66.724 56.3734L66.7247 56.3738C66.9354 56.4949 67.1677 56.5531 67.3953 56.5531C67.86 56.5531 68.3122 56.3105 68.5639 55.8806L68.5644 55.8797C68.9401 55.2341 68.7167 54.4069 68.0702 54.0336C68.0702 54.0336 68.0702 54.0336 68.0702 54.0336L61.6225 50.3106L61.6224 50.3105C60.9744 49.9365 60.1512 50.1587 59.7777 50.8056L59.7777 50.8056L59.7763 50.808C59.4081 51.455 59.6294 52.2769 60.2763 52.6503L60.3806 52.7106L66.724 56.3734Z" fill="black" stroke="black" stroke-width="0.89933"/>
<path d="M72.0997 36.3045H64.6572C63.9143 36.3045 63.3075 36.9054 63.3075 37.6542C63.3075 38.4029 63.9143 39.0038 64.6572 39.0038H72.0997C72.8426 39.0038 73.4494 38.4029 73.4494 37.6542C73.4494 36.9054 72.8426 36.3045 72.0997 36.3045Z" fill="black" stroke="black" stroke-width="0.89933"/>
<path d="M61.6254 24.9976L61.6261 24.9972L68.0738 21.2741L68.0751 21.2734C68.7171 20.8998 68.9397 20.0736 68.5649 19.4288C68.19 18.78 67.3632 18.5657 66.7216 18.9338L66.7206 18.9344L60.2729 22.6574L60.2729 22.6574L60.2716 22.6582C59.629 23.0321 59.4086 23.8533 59.7764 24.4997L59.7764 24.4997L59.7792 24.5044C60.0313 24.9351 60.4841 25.1769 60.9512 25.1769H60.9513C61.1771 25.1769 61.4132 25.1196 61.6254 24.9976Z" fill="black" stroke="black" stroke-width="0.89933"/>
<path d="M50.1513 14.8755L50.152 14.8759C50.3635 14.9975 50.5959 15.0553 50.8262 15.0553C51.2908 15.0553 51.7431 14.8126 51.9947 14.3828L51.9947 14.3828L51.996 14.3805L55.7191 7.93278L55.7191 7.93278L55.7205 7.93034C56.0872 7.28587 55.8699 6.45892 55.2234 6.08768C54.5755 5.71408 53.7527 5.93632 53.3793 6.58307C53.3793 6.58307 53.3793 6.58308 53.3793 6.58309L49.657 13.0294C49.6569 13.0297 49.6568 13.0299 49.6566 13.0301C49.2815 13.6756 49.505 14.5024 50.1513 14.8755Z" fill="black" stroke="black" stroke-width="0.89933"/>
<path d="M33.4661 18.8461C25.668 18.8461 19.3157 25.1445 19.2223 32.9173L19.2209 32.9188V33.0913C19.2209 40.9475 25.6098 47.3362 33.4658 47.3362C36.9099 47.3362 40.0601 46.0994 42.5259 44.0597L50.6769 52.2108C50.9407 52.4745 51.2887 52.6061 51.6312 52.6061C51.9738 52.6061 52.3218 52.4745 52.5855 52.2108C53.1127 51.6836 53.1127 50.8294 52.5855 50.3022L52.5855 50.3021L44.4347 42.1513C46.4744 39.6884 47.711 36.5349 47.711 33.091C47.711 25.2348 41.3222 18.8461 33.4661 18.8461ZM45.0113 33.0913C45.0113 39.456 39.8336 44.6369 33.4658 44.6369C27.1011 44.6369 21.9203 39.4592 21.9203 33.0913C21.9203 26.7232 27.0979 21.5458 33.4658 21.5458C39.8304 21.5458 45.0113 26.7269 45.0113 33.0913Z" fill="black" stroke="black" stroke-width="0.89933"/>
<path d="M25.5716 33.8572C25.5716 34.6059 26.1783 35.2068 26.9212 35.2068C27.6641 35.2068 28.2709 34.6059 28.2709 33.8572C28.2709 30.6671 30.8682 28.0701 34.0545 28.0701C34.7974 28.0701 35.4041 27.4691 35.4041 26.7204C35.4041 25.9717 34.7974 25.3708 34.0545 25.3708C29.3763 25.3708 25.5716 29.1757 25.5716 33.8572Z" fill="black" stroke="black" stroke-width="0.89933"/>
</svg>
