<svg width="78" height="62" viewBox="0 0 78 62" fill="none" xmlns="http://www.w3.org/2000/svg">
<path d="M46.8823 42.5883C53.8996 42.5883 59.5882 36.8997 59.5882 29.8824C59.5882 22.8651 53.8996 17.1765 46.8823 17.1765C39.8651 17.1765 34.1765 22.8651 34.1765 29.8824C34.1765 36.8997 39.8651 42.5883 46.8823 42.5883Z" fill="#FFB200"/>
<path d="M3.30878 34.0783L4.93757 60.0238C4.98832 60.8405 5.66661 61.4773 6.48331 61.4773H12.3848C13.1646 61.4773 13.8245 60.8959 13.9213 60.1208L17.1835 34.1245H18.9969L47.8494 48.3688C48.0663 48.4749 48.3016 48.5303 48.5369 48.5303C48.823 48.5303 49.1044 48.4519 49.3536 48.295C49.8058 48.0135 50.0826 47.5152 50.0826 46.9799V32.321H51.5361C55.9795 32.321 59.5924 28.7081 59.5924 24.2647C59.5924 19.8213 55.9795 16.2084 51.5361 16.2084H50.0826V1.54951C50.0826 1.01427 49.8058 0.515941 49.3536 0.234456C48.8968 -0.0470046 48.3293 -0.0792992 47.8494 0.16063L18.997 14.405H3.76514C1.68879 14.405 0 16.0937 0 18.1701V30.365C0 32.2799 1.45349 33.8533 3.30836 34.0794L3.30878 34.0783ZM11.019 58.376H7.94129L6.41858 34.1244H14.0643L11.019 58.376ZM51.536 19.3036C54.2722 19.3036 56.4962 21.5276 56.4962 24.2638C56.4962 26.9999 54.2722 29.2239 51.536 29.2239H50.0825V19.3082L51.536 19.3036ZM46.9818 17.7578V44.4877L20.9028 31.6147L20.9074 16.9145L46.9864 4.04153L46.9818 17.7578ZM3.10184 18.1639C3.10184 17.7994 3.40176 17.4995 3.76627 17.4995H17.8074V31.0232H3.76627C3.40176 31.0232 3.10184 30.7233 3.10184 30.3588V18.1639Z" fill="black"/>
<path d="M66.0279 6.02402L58.8067 13.2452C58.2023 13.8496 58.2023 14.8325 58.8067 15.4369C59.1113 15.7415 59.5035 15.8891 59.9003 15.8891C60.2971 15.8891 60.6939 15.7368 60.9938 15.4369L68.215 8.21577C68.8194 7.61132 68.8194 6.62845 68.215 6.02402C67.6151 5.41957 66.6324 5.41957 66.0278 6.02402H66.0279Z" fill="black"/>
<path d="M58.8072 35.2833L66.0283 42.5044C66.3328 42.809 66.725 42.9566 67.1219 42.9566C67.5187 42.9566 67.9155 42.8043 68.2154 42.5044C68.8199 41.9 68.8199 40.9171 68.2154 40.3127L60.9943 33.0915C60.3898 32.4871 59.4069 32.4871 58.8025 33.0915C58.2027 33.696 58.2027 34.6788 58.8071 35.2833H58.8072Z" fill="black"/>
<path d="M75.9207 22.714H65.1929C64.3346 22.714 63.6425 23.4061 63.6425 24.2643C63.6425 25.118 64.3346 25.8147 65.1929 25.8147H75.9207C76.7789 25.8147 77.4711 25.1226 77.4711 24.2643C77.4711 23.4107 76.7743 22.714 75.9207 22.714V22.714Z" fill="black"/>
</svg>
