<svg width="83" height="64" viewBox="0 0 83 64" fill="none" xmlns="http://www.w3.org/2000/svg">
<path d="M66.8942 52.4837C75.7602 52.4837 82.9476 45.3017 82.9476 36.4423C82.9476 27.5829 75.7602 20.4009 66.8942 20.4009C58.0282 20.4009 50.8408 27.5829 50.8408 36.4423C50.8408 45.3017 58.0282 52.4837 66.8942 52.4837Z" fill="#00D0B2"/>
<path d="M46.8483 49.7504L47.604 49.0954L47.3049 48.7504H46.8483V49.7504ZM56.7171 61.1374L57.4727 60.4825L57.4727 60.4825L56.7171 61.1374ZM61.9379 49.5351L61.7195 48.5593L60.9379 48.7342V49.5351H61.9379ZM2 9.92106C2 5.54638 5.54638 2 9.92105 2V0C4.44181 0 0 4.44181 0 9.92106H2ZM2 40.8293V9.92106H0V40.8293H2ZM9.92105 48.7504C5.54637 48.7504 2 45.204 2 40.8293H0C0 46.3086 4.4418 50.7504 9.92105 50.7504V48.7504ZM46.8483 48.7504H9.92105V50.7504H46.8483V48.7504ZM46.0926 50.4053L55.9614 61.7924L57.4727 60.4825L47.604 49.0954L46.0926 50.4053ZM55.9614 61.7924C58.3705 64.5721 62.9379 62.8683 62.9379 59.1899H60.9379C60.9379 61.0169 58.6693 61.8632 57.4727 60.4825L55.9614 61.7924ZM62.9379 59.1899V49.5351H60.9379V59.1899H62.9379ZM67.9023 40.8293C67.9023 44.6059 65.2583 47.7674 61.7195 48.5593L62.1563 50.511C66.589 49.519 69.9023 45.5623 69.9023 40.8293H67.9023ZM67.9023 9.92105V40.8293H69.9023V9.92105H67.9023ZM59.9812 2C64.3559 2 67.9023 5.54638 67.9023 9.92105H69.9023C69.9023 4.44181 65.4605 0 59.9812 0V2ZM9.92105 2H59.9812V0H9.92105V2Z" fill="black"/>
<path d="M41.9002 27.0481L41.4182 27.4522L41.5737 28.0616L43.6571 36.2256C43.7385 36.6141 43.5865 36.911 43.3764 37.0691C43.1773 37.2189 42.8878 37.2763 42.5512 37.0675C42.5503 37.0669 42.5495 37.0664 42.5486 37.0658L35.4133 32.54L34.8777 32.2002L34.3421 32.54L27.2068 37.0658C27.206 37.0664 27.2051 37.0669 27.2042 37.0675C26.8659 37.2774 26.576 37.2195 26.3782 37.071C26.1701 36.9148 26.0165 36.6186 26.0984 36.2251L28.1817 28.0616L28.3372 27.4522L27.8552 27.0481L21.4203 21.6527C21.151 21.4185 21.1007 21.1209 21.1955 20.8463C21.294 20.5608 21.5467 20.3205 21.9193 20.274L30.2608 19.5817L30.8769 19.5306L31.1065 18.9567L34.2419 11.1218L34.2458 11.1119L34.2496 11.1019C34.3378 10.8671 34.562 10.7046 34.9024 10.7046C35.2351 10.7046 35.5462 10.8692 35.7082 11.1664L38.8257 18.9567L39.0553 19.5306L39.6714 19.5817L48.03 20.2754L48.0712 20.2789H48.1127C48.3611 20.2789 48.5451 20.4148 48.6248 20.7139C48.7096 21.0318 48.6222 21.4053 48.3365 21.6515L41.9002 27.0481Z" stroke="black" stroke-width="2"/>
</svg>
