<svg width="58" height="52" viewBox="0 0 58 52" fill="none" xmlns="http://www.w3.org/2000/svg">
<path d="M45.5997 42.9955C52.2583 42.9955 57.6562 37.5977 57.6562 30.939C57.6562 24.2804 52.2583 18.8826 45.5997 18.8826C38.9411 18.8826 33.5432 24.2804 33.5432 30.939C33.5432 37.5977 38.9411 42.9955 45.5997 42.9955Z" fill="#6265F0"/>
<path d="M12.4464 7.83081C10.2387 7.83081 8.42754 9.64196 8.42754 11.8496V11.8516C6.61925 11.8601 5.04734 12.6909 4.00251 13.9807C2.95231 15.2772 2.39734 17.0077 2.39734 18.8826V19.8873V28.1604C2.39734 35.5795 7.29487 40.9861 13.9279 40.9861H37.0833C43.7163 40.9861 48.6138 35.5795 48.6138 28.1604V18.8826C48.6138 17.0077 48.0589 15.2772 47.0087 13.9807C45.9654 12.6928 44.3964 11.8625 42.5915 11.8516V11.8496C42.5915 9.64196 40.7803 7.83081 38.5727 7.83081H34.5362C32.3285 7.83081 30.5173 9.64196 30.5173 11.8496H20.4742C20.4742 9.64196 18.6631 7.83081 16.4554 7.83081H12.4464ZM12.4464 9.84022H16.4554C17.5773 9.84022 18.4648 10.7277 18.4648 11.8496H10.437C10.437 10.7277 11.3244 9.84022 12.4464 9.84022ZM34.5362 9.84022H38.5727C39.6946 9.84022 40.5821 10.7277 40.5821 11.8496H32.5268C32.5268 10.7277 33.4142 9.84022 34.5362 9.84022ZM8.45501 13.859H20.4742H42.5562C43.7884 13.859 44.7336 14.3642 45.4467 15.2444C46.1597 16.1247 46.6044 17.4077 46.6044 18.8826H4.40675C4.40675 17.4077 4.85146 16.1247 5.56452 15.2444C6.27757 14.3642 7.22276 13.859 8.45501 13.859ZM4.40675 20.892H46.6044V28.1604C46.6044 34.7328 42.6574 38.9767 37.0833 38.9767H13.9279C8.35377 38.9767 4.40675 34.7328 4.40675 28.1604V20.892ZM14.4538 23.9061C12.863 23.9061 11.5421 24.5388 10.6881 25.4995C9.83419 26.4602 9.43028 27.7017 9.43028 28.9296C9.43028 30.1576 9.83419 31.3991 10.6881 32.3598C11.5421 33.3205 12.863 33.9532 14.4538 33.9532C16.0446 33.9532 17.3656 33.3205 18.2195 32.3598C19.0734 31.3991 19.4773 30.1576 19.4773 28.9296C19.4773 27.7017 19.0734 26.4602 18.2195 25.4995C17.3656 24.5388 16.0446 23.9061 14.4538 23.9061ZM29.5244 23.9061C28.9915 23.9061 28.4804 24.1178 28.1035 24.4947C27.7267 24.8715 27.515 25.3826 27.515 25.9155C27.515 26.4485 27.7267 26.9596 28.1035 27.3364C28.4804 27.7132 28.9915 27.9249 29.5244 27.9249C30.0573 27.9249 30.5684 27.7132 30.9453 27.3364C31.3221 26.9596 31.5338 26.4485 31.5338 25.9155C31.5338 25.3826 31.3221 24.8715 30.9453 24.4947C30.5684 24.1178 30.0573 23.9061 29.5244 23.9061ZM38.5668 23.9061V25.9155H40.5762V23.9061H38.5668ZM14.4538 25.9155C15.5422 25.9155 16.2307 26.2875 16.7164 26.8339C17.202 27.3803 17.4679 28.1482 17.4679 28.9296C17.4679 29.7111 17.202 30.479 16.7164 31.0254C16.2307 31.5718 15.5422 31.9438 14.4538 31.9438C13.3654 31.9438 12.6769 31.5718 12.1913 31.0254C11.7056 30.479 11.4397 29.7111 11.4397 28.9296C11.4397 28.1482 11.7056 27.3803 12.1913 26.8339C12.6769 26.2875 13.3654 25.9155 14.4538 25.9155ZM25.5056 27.9249C24.9727 27.9249 24.4616 28.1366 24.0847 28.5135C23.7079 28.8903 23.4962 29.4014 23.4962 29.9344C23.4962 30.4673 23.7079 30.9784 24.0847 31.3552C24.4616 31.7321 24.9727 31.9438 25.5056 31.9438C26.0385 31.9438 26.5496 31.7321 26.9265 31.3552C27.3033 30.9784 27.515 30.4673 27.515 29.9344C27.515 29.4014 27.3033 28.8903 26.9265 28.5135C26.5496 28.1366 26.0385 27.9249 25.5056 27.9249ZM33.5432 27.9701C33.2758 27.9644 33.0098 28.0115 32.761 28.1088C32.5123 28.2061 32.2856 28.3515 32.0944 28.5366C31.9032 28.7217 31.7513 28.9426 31.6476 29.1865C31.5439 29.4304 31.4904 29.6923 31.4904 29.9569C31.4904 30.2215 31.5439 30.4834 31.6476 30.7273C31.7513 30.9712 31.9032 31.1922 32.0944 31.3772C32.2856 31.5623 32.5123 31.7077 32.761 31.805C33.0098 31.9023 33.2758 31.9495 33.5432 31.9438C33.8107 31.9495 34.0766 31.9023 34.3254 31.805C34.5742 31.7077 34.8009 31.5623 34.9921 31.3772C35.1833 31.1922 35.3352 30.9712 35.4389 30.7273C35.5426 30.4834 35.596 30.2215 35.596 29.9569C35.596 29.6923 35.5426 29.4304 35.4389 29.1865C35.3352 28.9426 35.1833 28.7217 34.9921 28.5366C34.8009 28.3515 34.5742 28.2061 34.3254 28.1088C34.0766 28.0115 33.8107 27.9644 33.5432 27.9701V27.9701ZM29.5244 31.9438C28.9915 31.9438 28.4804 32.1555 28.1035 32.5323C27.7267 32.9091 27.515 33.4203 27.515 33.9532C27.515 34.4861 27.7267 34.9972 28.1035 35.3741C28.4804 35.7509 28.9915 35.9626 29.5244 35.9626C30.0573 35.9626 30.5684 35.7509 30.9453 35.3741C31.3221 34.9972 31.5338 34.4861 31.5338 33.9532C31.5338 33.4203 31.3221 32.9091 30.9453 32.5323C30.5684 32.1555 30.0573 31.9438 29.5244 31.9438Z" fill="#333E48"/>
</svg>
