<svg width="51" height="51" viewBox="0 0 51 51" fill="none" xmlns="http://www.w3.org/2000/svg">
<g clip-path="url(#clip0_1:218)">
<path d="M37.5997 45.2682C44.2583 45.2682 49.6562 39.8703 49.6562 33.2117C49.6562 26.5531 44.2583 21.1552 37.5997 21.1552C30.9411 21.1552 25.5432 26.5531 25.5432 33.2117C25.5432 39.8703 30.9411 45.2682 37.5997 45.2682Z" fill="#00D0B2"/>
<path d="M48.6514 3.0705C47.5408 3.0705 46.642 3.96924 46.642 5.07991C46.642 5.21727 46.646 5.35856 46.6734 5.48807C46.6774 5.49592 46.6695 5.51162 46.6734 5.51947L36.1554 15.2212C35.9749 15.1662 35.7865 15.127 35.5903 15.127C35.237 15.127 34.9034 15.2212 34.617 15.3781L27.5526 11.1709C27.5526 11.1513 27.5526 11.1278 27.5526 11.1081C27.5526 9.99747 26.6539 9.09873 25.5432 9.09873C24.4325 9.09873 23.5338 9.99747 23.5338 11.1081C23.5338 11.2141 23.5495 11.3201 23.5652 11.4221L16.2183 17.262C15.9946 17.1756 15.7512 17.1364 15.4961 17.1364C14.4483 17.1364 13.5809 17.937 13.4867 18.9574L3.59664 23.5414C3.26697 23.3098 2.86666 23.1646 2.43495 23.1646C1.32428 23.1646 0.425537 24.0634 0.425537 25.174C0.425537 26.2847 1.32428 27.1834 2.43495 27.1834C3.48283 27.1834 4.35017 26.3828 4.44436 25.3624L14.3344 20.7784C14.6641 21.01 15.0644 21.1552 15.4961 21.1552C16.6068 21.1552 17.5055 20.2565 17.5055 19.1458C17.5055 19.0398 17.4898 18.9339 17.4741 18.8318L24.7897 12.9606C25.0212 13.0548 25.2763 13.1176 25.5432 13.1176C25.9082 13.1176 26.2536 13.0077 26.5479 12.835L33.5808 17.0736C33.5808 17.0932 33.5808 17.1168 33.5808 17.1364C33.5808 18.2471 34.4796 19.1458 35.5903 19.1458C36.7009 19.1458 37.5997 18.2471 37.5997 17.1364C37.5997 16.999 37.5957 16.8577 37.5683 16.7282V16.6968L48.0863 6.99513C48.2668 7.05008 48.4552 7.08932 48.6514 7.08932C49.7621 7.08932 50.6609 6.19058 50.6609 5.07991C50.6609 3.96924 49.7621 3.0705 48.6514 3.0705ZM48.6514 29.1929C47.5408 29.1929 46.642 30.0916 46.642 31.2023C46.642 31.3396 46.646 31.4809 46.6734 31.6104C46.6774 31.6183 46.6695 31.634 46.6734 31.6418L36.1868 41.3435C35.9984 41.2847 35.7983 41.2493 35.5903 41.2493C35.4176 41.2493 35.2488 41.269 35.0879 41.3121L27.4898 33.714C27.533 33.5531 27.5526 33.3844 27.5526 33.2117C27.5526 32.101 26.6539 31.2023 25.5432 31.2023C24.4325 31.2023 23.5338 32.101 23.5338 33.2117C23.5338 33.3177 23.5495 33.4236 23.5652 33.5257L16.2183 39.3655C15.9946 39.2792 15.7512 39.2399 15.4961 39.2399C14.8682 39.2399 14.3266 39.5421 13.9577 39.9935L4.28738 38.4864C3.98911 37.7525 3.27875 37.2305 2.43495 37.2305C1.32428 37.2305 0.425537 38.1293 0.425537 39.2399C0.425537 40.3506 1.32428 41.2493 2.43495 41.2493C3.06289 41.2493 3.60449 40.9471 3.97341 40.4958L13.6437 42.0029C13.942 42.7368 14.6523 43.2588 15.4961 43.2588C16.6068 43.2588 17.5055 42.36 17.5055 41.2493C17.5055 41.1434 17.4898 41.0374 17.4741 40.9354L24.7897 35.0641C25.0212 35.1583 25.2763 35.2211 25.5432 35.2211C25.7159 35.2211 25.8846 35.2015 26.0455 35.1583L33.6436 42.7564C33.6005 42.9173 33.5808 43.0861 33.5808 43.2588C33.5808 44.3694 34.4796 45.2682 35.5903 45.2682C36.7009 45.2682 37.5997 44.3694 37.5997 43.2588C37.5997 43.1214 37.5957 42.9801 37.5683 42.8506C37.5644 42.8427 37.5722 42.827 37.5683 42.8192L48.0863 33.1175C48.2668 33.1724 48.4552 33.2117 48.6514 33.2117C49.7621 33.2117 50.6609 32.3129 50.6609 31.2023C50.6609 30.0916 49.7621 29.1929 48.6514 29.1929Z" fill="#333E48"/>
</g>
<defs>
<clipPath id="clip0_1:218">
<rect width="50.2353" height="50.2353" fill="white" transform="translate(0.425537 0.0563965)"/>
</clipPath>
</defs>
</svg>
