<?xml version="1.0" encoding="UTF-8"?>
<svg width="175px" height="88px" viewBox="0 0 175 88" version="1.1" xmlns="http://www.w3.org/2000/svg" xmlns:xlink="http://www.w3.org/1999/xlink">
    <!-- Generator: Sketch 61.2 (89653) - https://sketch.com -->
    <title>logo_redfin_blk</title>
    <desc>Created with Sketch.</desc>
    <g id="logo_redfin_blk" stroke="none" stroke-width="1" fill="none" fill-rule="evenodd">
        <g id="redfin-logo" transform="translate(27.000000, 28.000000)" fill="#2C3643" fill-rule="nonzero">
            <path d="M62.7931825,6.0164197 C60.5644514,4.54765719 57.5617302,4.0010012 53.5634489,4 L46,4 L46,29 L53.719851,29 C56.4689201,29 58.8329991,28.6475771 60.8080779,27.8556268 C62.7921799,27.0476572 64.3441707,25.7641169 65.3958751,23.9148979 C66.4475795,22.0656788 67,19.6587905 67,16.5971165 C67,13.9499399 66.6661415,11.7843412 65.9743626,10.0392471 C65.2825838,8.29415298 64.2228588,6.97056468 62.7931825,6.0164197 Z M60.7649671,20.9253104 C60.392008,22.1728074 59.7954741,23.1279535 58.869092,23.7867441 C57.8504726,24.5046055 56.3135205,24.8950741 54.4146376,24.8950741 L51.7076769,24.8950741 L51.7076769,8.11193432 L53.9795188,8.11193432 C56.2162704,8.11894273 57.8725294,8.47637165 58.9863936,9.29435322 C59.8014895,9.89507409 60.3679461,10.7470965 60.7399026,11.902483 C61.1118591,13.0578694 61.2742767,14.5176211 61.2742767,16.3237885 C61.2742767,18.1299559 61.1399313,19.675811 60.7649671,20.9253104 Z" id="Shape"></path>
            <polygon id="Path" points="70 29 75.7442095 29 75.7442095 18.3459198 82.3826788 18.3459198 82.3826788 14.2726836 75.7442095 14.2726836 75.7442095 8.11628093 86 8.11828301 86 4 70 4"></polygon>
            <path d="M90.0195576,29 L96,29 L96,4 L90.0195576,4 C90.0195576,4 89.975553,29 90.0195576,29 Z" id="Path"></path>
            <polygon id="Path" points="121 4 115.244526 4 115.244526 18.3459198 104.590926 4 100 4 100 29 105.759489 29 105.759489 14.2766878 116.297638 29 121 29"></polygon>
            <path d="M23.6339342,30.3958077 C23.1547759,30.2018499 22.673617,29.8321179 21.3821905,27.6369606 L18.8063397,23.329482 L15.7743383,18.2522335 L15.5172534,17.8208795 C15.6653023,17.7784512 15.8113506,17.730972 15.9553981,17.6814724 C19.4355476,16.4763077 21.4672186,13.2588313 21.4672186,8.66849765 C21.4793185,6.39753061 20.5150975,4.23298734 18.8243457,2.73561259 C18.5728728,2.51566281 18.3090118,2.3105871 18.0340847,2.12141301 C15.7183198,0.578842693 12.6042913,0 8.44491759,0 L0.588322739,0 L0.588322739,0 L0.588322739,0 L0.468283092,0 C-0.0418854049,0 -0.0909015939,0.291946838 0.110164814,0.56166935 C0.290224283,0.801085961 0.500293665,1.11929791 0.584321417,1.93048584 L0.584321417,27.2601572 C0.495292013,28.291568 0.284222301,28.6198819 0.110164814,28.8572782 C-0.0899012635,29.1259905 -0.00387285026,29.4320801 0.510296968,29.4270291 L6.32521751,29.4270291 L6.32521751,18.6825773 L8.97009105,18.6825773 L10.8267042,21.8697478 L13.1624757,25.8792184 L14.2978507,27.8268775 C15.7413274,30.2796351 16.9987427,31.6383496 19.5165743,31.928276 C19.8815688,31.9748407 20.2490442,31.9987935 20.6169377,32 L21.0070666,32 C21.9073639,32 22.7936567,31.6332986 23.342838,31.393882 C23.4168625,31.3666067 23.4898866,31.337311 23.5619104,31.3049847 C24.2241291,31.0130379 24.0410687,30.5604697 23.6339342,30.3958077 Z M10.0214383,14.572087 L6.32021585,14.572087 L6.32021585,4.20847934 L10.0214383,4.20847934 C11.8510426,4.20847934 13.2455031,4.44789595 14.2908484,5.40657259 C14.6864006,5.78499118 14.9938879,6.24732114 15.1911457,6.76023613 C15.4472303,7.41282318 15.5772733,8.1987562 15.5772733,9.14430028 C15.5732719,10.5222085 15.4472303,14.572087 10.0214383,14.572087 Z" id="Shape"></path>
            <polygon id="Path" points="31.7516669 18.3454931 38.4010567 18.3454931 38.4010567 14.2730949 31.7516669 14.2730949 31.7516669 8.09942738 41.9969808 8.09942738 41.9969808 4 26 4 26 29 42 29 42 24.8545229 31.7516669 24.8545229"></polygon>
        </g>
    </g>
</svg>