<?xml version="1.0" encoding="UTF-8"?>
<svg width="175px" height="88px" viewBox="0 0 175 88" version="1.1" xmlns="http://www.w3.org/2000/svg" xmlns:xlink="http://www.w3.org/1999/xlink">
    <!-- Generator: Sketch 61.2 (89653) - https://sketch.com -->
    <title>logo_twitter_blk</title>
    <desc>Created with Sketch.</desc>
    <g id="logo_twitter_blk" stroke="none" stroke-width="1" fill="none" fill-rule="evenodd">
        <g id="twitter-logo" transform="translate(59.000000, 21.000000)" fill="#2C3643" fill-rule="nonzero">
            <path d="M18.23984,47 C40.136,47 52.09792,28.9209137 52.09792,13.2341712 C52.09792,12.7205345 52.09792,12.2092115 52.06312,11.7002022 C54.3924169,10.0188872 56.4027778,7.93722447 58,5.55275753 C55.8281994,6.51247561 53.5243239,7.14185843 51.16528,7.41989634 C53.6485288,5.93791953 55.5076228,3.60702314 56.39688,0.860616871 C54.0610054,2.24293658 51.505499,3.21712657 48.84064,3.74114701 C45.152032,-0.17037165 39.2908689,-1.12772959 34.5437543,1.40590453 C29.7966397,3.93953865 27.344158,9.33406236 28.56152,14.5645366 C18.9935981,14.0861824 10.0791838,9.57930663 4.0368,2.16553173 C0.878404795,7.58797291 2.49165189,14.5248789 7.72096,18.0072906 C5.82723959,17.9513171 3.97480814,17.441858 2.32,16.5219088 L2.32,16.672298 C2.32155007,22.3213599 6.31446345,27.1868927 11.8668,28.3054751 C10.1148975,28.7819542 8.27678696,28.8516058 6.49368,28.5090788 C8.05259919,33.3433322 12.520053,36.6550419 17.61112,36.7504028 C13.3973853,40.0530219 8.19205807,41.8458818 2.83272,41.8404962 C1.88593628,41.8386836 0.940073432,41.7815147 0,41.669284 C5.4418754,45.1520105 11.7737991,46.999345 18.23984,46.9907453" id="Path"></path>
        </g>
    </g>
</svg>