<?xml version="1.0" encoding="UTF-8"?>
<svg width="175px" height="88px" viewBox="0 0 175 88" version="1.1" xmlns="http://www.w3.org/2000/svg" xmlns:xlink="http://www.w3.org/1999/xlink">
    <!-- Generator: Sketch 61.2 (89653) - https://sketch.com -->
    <title>logo_lyft_blk</title>
    <desc>Created with Sketch.</desc>
    <g id="logo_lyft_blk" stroke="none" stroke-width="1" fill="none" fill-rule="evenodd">
        <g id="lyft-logo_standard" transform="translate(49.000000, 17.000000)" fill="#2C3643" fill-rule="nonzero">
            <path d="M0,0.904380789 L11.8575758,0.904380789 L11.8575758,32.6363502 C11.8575758,37.6694259 14.1424242,40.6578146 15.9939394,41.9160835 C14.0636364,43.6068824 8.19393939,45.1010767 3.78181818,41.4835536 C1.18181818,39.3602248 0,35.8213434 0,32.5183875 C0,32.5183875 0,0.904380789 0,0.904380789 Z M74.0212121,27.2887073 L74.0212121,23.9464305 L77.6454545,23.9464305 L77.6454545,12.268122 L73.6666667,12.268122 C72.130303,5.22968021 65.8666667,0 58.3818182,0 C49.7545455,0 42.7424242,6.99912089 42.7424242,15.6103988 L42.7424242,42.8597852 C45.1848485,43.2136733 48.1393939,42.8204643 50.6212121,40.7364564 C53.2212121,38.6131276 54.4030303,35.0742462 54.4030303,31.7712903 L54.4030303,30.7489468 L60.3121212,30.7489468 L60.3121212,19.0706384 L54.4030303,19.0706384 L54.4030303,15.531757 L54.4030303,15.531757 C54.4030303,13.3297864 56.1757576,11.5603457 58.3818182,11.5603457 C60.5878788,11.5603457 62.3606061,13.3297864 62.3606061,15.531757 L62.3606061,27.2493864 C62.3606061,35.8606643 69.3727273,42.8597852 78,42.8597852 L78,31.2207977 C75.7939394,31.2207977 74.0212121,29.451357 74.0212121,27.2887073 Z M29.1909091,12.2288011 L29.1909091,29.4120361 C29.1909091,30.3950587 28.3636364,31.1814768 27.3787879,31.1814768 C26.3939394,31.1814768 25.5666667,30.3950587 25.5666667,29.4120361 L25.5666667,12.2288011 L13.8666667,12.2288011 L13.8666667,32.4004248 C13.8666667,36.0179479 15.0878788,40.6184937 20.7212121,42.112688 C26.3545455,43.6068824 29.5848485,40.500531 29.5848485,40.500531 C29.269697,42.545218 27.3787879,44.0394123 24.2666667,44.3539796 C21.9030303,44.589905 18.9090909,43.8034869 17.4121212,43.1743524 L17.4121212,53.8696383 C21.2333333,55.0099445 25.2515152,55.3638326 29.230303,54.5774146 C36.4,53.2011829 40.930303,47.2244055 40.930303,39.2422621 L40.930303,12.1501593 L29.1909091,12.1501593 L29.1909091,12.2288011 Z" id="logo_standard"></path>
        </g>
    </g>
</svg>