<?xml version="1.0" encoding="UTF-8"?>
<svg width="175px" height="88px" viewBox="0 0 175 88" version="1.1" xmlns="http://www.w3.org/2000/svg" xmlns:xlink="http://www.w3.org/1999/xlink">
    <!-- Generator: Sketch 61.2 (89653) - https://sketch.com -->
    <title>logo_wish_blk</title>
    <desc>Created with Sketch.</desc>
    <g id="logo_wish_blk" stroke="none" stroke-width="1" fill="none" fill-rule="evenodd">
        <g id="wish" transform="translate(24.000000, 23.000000)" fill="#2C3643" fill-rule="nonzero">
            <path d="M41.5066968,42 C40.0728169,41.9899678 38.6688094,41.779291 37.3145894,41.3178086 C35.9006244,40.8362618 34.6161069,40.1039093 33.500867,39.1006867 C33.2917595,38.9201066 33.102567,38.7294943 32.8934595,38.538882 C32.744097,38.3984309 32.724182,38.3984309 32.5748195,38.5188176 C31.5591545,39.3414601 30.453872,40.0336837 29.278887,40.5954884 C28.004327,41.1974219 26.6600646,41.598711 25.2660146,41.8093877 C24.2503496,41.9598711 23.2247271,42 22.1991046,41.9498389 C20.7154372,41.8695811 19.2715997,41.5585821 17.8974647,40.9566485 C16.8419697,40.4851339 15.8860497,39.8631359 15.0197473,39.0906545 C13.5858673,37.8165618 12.4905423,36.2916634 11.7736023,34.5059272 C11.3553873,33.4726079 11.0964923,32.3891275 11.0267898,31.2755504 C10.9869598,30.5933591 10.9670448,29.9211999 10.9869598,29.2390086 C10.9969173,28.7373973 11.0765773,28.2458182 11.1462798,27.7542391 C11.2856848,26.6908232 11.4350473,25.6274072 11.5844098,24.553959 C11.7138573,23.6109298 11.8532623,22.6578683 11.9827098,21.7148391 C12.1221148,20.6815198 12.2615198,19.6482005 12.4108823,18.6249135 C12.4905423,18.0330121 12.5702023,17.451143 12.6498623,16.8592417 C12.6498623,16.829145 12.6598198,16.7890161 12.6598198,16.7589194 C12.6797348,16.5281782 12.6598198,16.4880493 12.4507123,16.4077915 C12.0026248,16.2171792 11.5545373,16.0265669 11.1064498,15.8459869 C8.37809486,14.7123453 5.6497399,13.5787038 2.93134245,12.4450623 C2.50316995,12.2644822 2.05508246,12.124031 1.67669747,11.8732254 C0.611244982,11.2010662 0.0536249909,10.2078759 0.00383749165,8.93378317 C-0.016077508,8.57262304 0.043667491,8.23152735 0.13328499,7.89043167 C0.432009985,6.706629 0.73073498,5.52282634 1.02945998,4.33902367 C1.20869497,3.64680008 1.48750497,3.00473762 2.02520996,2.50312632 C2.33389245,2.22222399 2.68240495,2.02157947 3.10061994,2.00151502 C3.30972744,1.99148279 3.52879244,2.0316117 3.71798493,2.11186951 C4.65398992,2.48306187 5.5899949,2.87431868 6.51604239,3.26557549 C7.58149487,3.70699344 8.64694736,4.15844361 9.71239984,4.59986155 C11.9030498,5.52282634 14.1036573,6.4357589 16.2943072,7.34869147 C17.6086972,7.9004639 18.9131297,8.45223632 20.2275197,8.9839443 C21.3527172,9.43539447 22.0696571,10.2480048 22.4281271,11.411743 C22.5774896,11.8932898 22.5774896,12.3748367 22.5077871,12.8664158 C22.2986796,14.341153 22.0995296,15.8158902 21.9003796,17.2906274 C21.7410596,18.4543656 21.5717822,19.6080716 21.4124622,20.7718098 C21.2531422,21.9455803 21.0938222,23.1293829 20.9245447,24.3031534 C20.7652247,25.486956 20.6059047,26.6707587 20.4266697,27.8545614 C20.3171372,28.5768816 20.3270947,29.2891697 20.5859897,29.9713611 C21.1236947,31.3658405 22.1094871,32.2687408 23.5831971,32.5496431 C24.8776721,32.7904166 26.0825296,32.4693853 27.1579396,31.7169684 C27.8649221,31.2253893 28.462372,30.6134235 28.900502,29.8509743 C29.2490145,29.2390086 29.438207,28.5869139 29.537782,27.9047225 C29.736932,26.4901786 29.936082,25.0756348 30.135232,23.6610909 C30.2447645,22.8986417 30.3642545,22.1261603 30.453872,21.3637112 C30.533532,20.7116165 30.812342,20.159844 31.2405145,19.6883294 C31.907667,18.9559769 32.7341395,18.5747523 33.739847,18.5747523 C34.9845344,18.5847846 36.2391794,18.5747523 37.4838669,18.5847846 C38.1012319,18.5948168 38.6389369,18.8155258 39.0870244,19.2368793 C39.7043894,19.8187484 39.8836244,20.5611331 39.7840494,21.3837756 C39.6147719,22.6277716 39.4554519,23.8717677 39.2861744,25.1157637 C39.1766419,25.8982773 39.0671094,26.6807909 38.9575769,27.4633046 C38.9077894,27.8044002 38.8580019,28.1454959 38.8380869,28.4865916 C38.7882994,29.6001687 39.1268544,30.5732946 39.8836244,31.3859049 C40.8096718,32.3790953 41.9547843,32.7001265 43.2791318,32.589772 C45.2308018,32.4192242 47.1127692,30.814068 47.7600067,28.9882029 C47.9193267,28.5267205 47.9890292,28.0552059 48.0587317,27.573659 C48.2280092,26.3597597 48.3972867,25.1558926 48.5566067,23.9419932 C48.7159267,22.7581906 48.8752467,21.5743879 49.0345667,20.3905852 C49.1440992,19.5779749 49.2635892,18.7753969 49.3731217,17.9627866 C49.4428242,17.4310786 49.5025692,16.8993706 49.6021442,16.3776948 C49.8411242,15.053441 50.9862367,13.9900251 52.3006267,13.7693161 C52.5595217,13.7291872 52.8283742,13.7091227 53.0872692,13.7091227 C54.1427641,13.6990905 55.1883016,13.6990905 56.2437966,13.7091227 C56.6022666,13.719155 56.9607366,13.7592839 57.3092491,13.8295094 C57.7573366,13.9097673 58.1655941,14.120444 58.5141066,14.431443 C58.9223641,14.7926031 59.0518116,15.2540855 58.9821091,15.7857935 C58.7730016,17.3407885 58.5539366,18.8857513 58.3348716,20.4407464 C58.1257641,21.9455803 57.9266141,23.4604464 57.7175066,24.9652803 C57.5183566,26.3597597 57.3889091,27.7642713 57.1001416,29.1487185 C56.8711191,30.2522634 56.5226066,31.3257116 56.0446466,32.3590308 C55.5268566,33.5027046 54.8696616,34.5560883 54.0929766,35.5392465 C53.6946766,36.0408578 53.2764616,36.5324368 52.8184167,36.983887 C51.4243667,38.3783664 49.8709967,39.5722013 48.0985617,40.4550372 C46.6447668,41.1773575 45.1113118,41.6488721 43.5081543,41.8595488 C42.8410018,41.9197422 42.1738493,41.9498389 41.5066968,42 Z" id="Path"></path>
            <path d="M108.343587,16.5283494 C108.558262,16.3569929 108.711602,16.2259555 108.875164,16.1049979 C110.060988,15.197816 111.359262,14.4720706 112.780207,13.99832 C113.782024,13.6656867 114.814509,13.4540109 115.86744,13.3532129 C116.634137,13.2826543 117.411056,13.2423352 118.177753,13.2624948 C119.660034,13.3028139 121.101424,13.5749685 122.461034,14.1898362 C123.718417,14.7643847 124.78157,15.5707686 125.681161,16.6089878 C126.948766,18.050399 127.62346,19.7337253 127.889248,21.598488 C128.011919,22.4552709 128.022142,23.3221336 127.971029,24.1889962 C127.930138,24.9248215 127.807467,25.650567 127.695018,26.3763125 C127.480343,27.8177236 127.255445,29.249055 127.030547,30.6803864 C126.887431,31.5774885 126.744314,32.4745905 126.601197,33.3716926 C126.396745,34.6921462 126.182069,36.0226795 125.977617,37.3431331 C125.875391,38.0184796 125.762942,38.6938261 125.660715,39.3691726 C125.456263,40.6896262 124.39311,41.748005 123.064168,41.9596808 C122.961942,41.9798404 122.849493,41.9798404 122.747267,41.9798404 C121.510329,41.9798404 120.273392,41.9798404 119.036454,41.9798404 C118.545768,41.9798404 118.075527,41.8689626 117.646177,41.6270475 C117.216826,41.3952121 116.87948,41.0726585 116.787476,40.5686686 C116.767031,40.4678706 116.756808,40.3569929 116.777254,40.2561949 C117.012374,38.6635867 117.247494,37.0709786 117.482615,35.4783704 C117.69729,33.9764805 117.922188,32.4846703 118.136863,30.9827803 C118.32087,29.7429651 118.504877,28.5031499 118.688885,27.2633347 C118.801333,26.4871903 118.862669,25.700966 118.811556,24.9147417 C118.760443,24.1285174 118.627549,23.352373 118.269757,22.6266275 C117.779071,21.6287274 116.971483,21.0138597 115.898108,20.7316254 C115.47898,20.6207476 115.059852,20.5703486 114.620279,20.5602688 C113.945586,20.5602688 113.270893,20.5804284 112.606422,20.7417052 C111.696608,20.9634607 110.878798,21.3464931 110.101879,21.8605628 C108.946722,22.6266275 108.067576,23.6245275 107.474664,24.8744225 C107.065759,25.751365 106.799971,26.6686266 106.656854,27.6262075 C106.339953,29.7732045 106.023051,31.9202016 105.695927,34.0671987 C105.430139,35.8311634 105.174573,37.5951281 104.908785,39.349013 C104.683887,40.8710626 103.354946,42 101.801107,42 C100.676618,42 99.5521289,42 98.4276401,42 C97.9471767,42 97.4871585,41.9193616 97.0475856,41.7278454 C96.7204616,41.5867283 96.4648959,41.3750525 96.2502208,41.1028979 C96.0048778,40.7904242 95.9639873,40.4174717 96.025323,40.0445191 C96.3115565,38.1091978 96.6080127,36.1738765 96.8942462,34.248635 C97.1702571,32.4040319 97.4360454,30.549349 97.7120563,28.7047459 C98.0187351,26.6383872 98.3254138,24.5821084 98.6320926,22.5157497 C98.9387714,20.449391 99.2454502,18.3729525 99.5521289,16.3065939 C99.7872493,14.7240655 100.032592,13.1415372 100.267713,11.5590088 C100.543724,9.72448551 100.809512,7.8798824 101.0753,6.03527929 C101.249085,4.87610248 101.412647,3.70684586 101.606877,2.54766905 C101.801107,1.30785384 102.884705,0.24947501 104.142088,0.0579588408 C104.366986,0.0277194456 104.591884,0.0075598488 104.827004,0.0075598488 C105.90038,-0.0025199496 106.963533,-0.0025199496 108.036908,0.0075598488 C108.517372,0.0075598488 108.97739,0.088198236 109.416963,0.289794204 C109.774755,0.451070979 110.091656,0.662746745 110.296109,1.00545989 C110.449448,1.26753465 110.510784,1.53968921 110.459671,1.85216296 C110.193882,3.64636707 109.928094,5.45065099 109.672529,7.2448551 C109.36585,9.33137337 109.059171,11.4178916 108.752492,13.5044099 C108.619598,14.4115918 108.486704,15.3187736 108.35381,16.2259555 C108.35381,16.3065939 108.35381,16.3872323 108.343587,16.5283494 Z" id="Path"></path>
            <path d="M82.4907698,43 C80.9005152,42.9588774 79.4529757,42.8149482 78.0156302,42.4859672 C76.853521,42.2186702 75.7117997,41.8794086 74.6108542,41.4064984 C73.122539,40.7793785 71.756551,39.9466454 70.4925024,38.9391412 C69.9522236,38.5073537 69.8400903,37.7157432 70.2376539,37.1194652 C70.5128903,36.708239 70.8187085,36.3278548 71.1143328,35.9269092 C71.6342237,35.2381053 72.1541147,34.5493014 72.6638117,33.8604975 C73.1938965,33.1511323 74.1215451,32.9249579 74.8962845,33.3361841 C75.5385027,33.6754457 76.180721,34.024988 76.8127452,34.3848109 C78.1787332,35.1661407 79.6160788,35.6904541 81.1655576,35.9474705 C82.0932062,36.1016804 83.0310487,36.142803 83.9688911,36.1016804 C84.7232427,36.0708384 85.4674003,35.9269092 86.1300064,35.5259637 C86.5275701,35.2997892 86.8639701,35.0016502 87.0678489,34.590424 C87.4144429,33.9016201 87.3125035,33.3156228 86.7926125,32.7707481 C86.374661,32.3389605 85.85477,32.0716635 85.3246852,31.8146471 C84.3154851,31.341737 83.2553153,31.0538786 82.1951456,30.745459 C81.1349758,30.4370393 80.0748061,30.1389003 79.065606,29.6762708 C77.9646605,29.1827994 76.8942968,28.6173634 75.9360664,27.8565949 C74.7739572,26.9313359 74.0807693,25.7182186 73.8463087,24.2378042 C73.6424299,22.9527223 73.7647572,21.6882018 74.0909633,20.4339618 C74.4375572,19.1077573 75.0797754,17.9254819 75.9258725,16.8665745 C76.5782846,16.0646834 77.3428301,15.3758795 78.1787332,14.7693208 C79.8607333,13.5459228 81.7364183,12.7748737 83.7650123,12.3739281 C84.4785881,12.229999 85.2023579,12.1580344 85.9261276,12.0860698 C86.3440792,12.0449472 86.7620307,12.0655085 87.1799822,12.0243859 C87.730455,11.9729826 88.2809278,12.0141052 88.8314005,12.0449472 C89.7794369,12.0963504 90.7274734,12.2608409 91.644928,12.5178573 C93.1026614,12.9290835 94.4584554,13.5973261 95.7326979,14.4197785 C96.3239464,14.8001628 96.731704,15.3244762 96.905001,16.0235607 C97.1190738,16.8768551 96.9763586,17.6684656 96.4258858,18.3675501 C95.8652191,19.087196 95.3147464,19.7965612 94.7540797,20.5059264 C94.6317524,20.6601362 94.4992312,20.7937847 94.3463221,20.9171526 C93.8366251,21.3386595 93.2759584,21.4003434 92.6745159,21.143327 C92.4706371,21.0610818 92.2769523,20.9479946 92.0934613,20.8349074 C90.7070855,19.9404904 89.1983824,19.3339317 87.567352,19.0974766 C86.9557156,19.0049507 86.3338852,18.9638281 85.7120549,19.0049507 C85.1921639,19.0460734 84.6620791,19.0769153 84.1523821,19.1797219 C83.7242366,19.2619671 83.306285,19.4058963 82.9291093,19.6320707 C82.4805759,19.8993677 82.1645638,20.2591907 82.0422365,20.7937847 C81.8995213,21.4209047 82.1135941,21.9143762 82.633485,22.2536378 C82.980079,22.4695315 83.3572547,22.6443027 83.7446245,22.7985125 C84.8149882,23.2303 85.9363216,23.528439 87.047461,23.85742 C88.1687944,24.186401 89.2799339,24.5051013 90.3808794,24.8957662 C91.4614371,25.2761504 92.4604432,25.8210251 93.4084796,26.4687064 C93.8977887,26.807968 94.3157403,27.2500362 94.6521403,27.7537883 C95.1516433,28.5042762 95.4268797,29.3370092 95.5390131,30.2211456 C95.5899828,30.6220911 95.6307585,31.0333173 95.6205646,31.4342629 C95.6001767,32.1230668 95.5594009,32.8118707 95.4370737,33.4903939 C95.1720312,34.9399663 94.6521403,36.2867321 93.8162372,37.5101301 C93.0414978,38.6410022 92.0832674,39.5765418 90.9721279,40.3784329 C89.3818733,41.5195856 87.6081277,42.2495122 85.7018609,42.6401771 C84.8659579,42.8149482 84.0096669,42.9177548 83.1533759,42.9383161 C82.8883335,42.9588774 82.6232911,42.9897193 82.4907698,43 Z" id="Path"></path>
            <path d="M61.9580611,41.989709 C61.3422102,41.989709 60.7263592,42 60.1105083,41.989709 C59.5653287,41.969127 59.050437,41.8250532 58.5961207,41.4854507 C58.1418044,41.1458481 57.9297902,40.7033357 58.0206534,40.1064585 C58.2427636,38.6039744 58.4446819,37.1014904 58.6466003,35.5990064 C58.929286,33.5202271 59.2119716,31.4414478 59.5047532,29.3626686 C59.6864797,28.0557133 59.8682063,26.738467 60.0499328,25.4315117 C60.3023307,23.5997161 60.5446327,21.7782115 60.7970306,19.9464159 C60.998949,18.4748048 61.2008673,17.0134847 61.4128816,15.5418737 C61.5946081,14.2657913 62.705159,13.1852378 63.9671486,13.0411639 C64.2094506,13.010291 64.4517526,13 64.6940547,13 C65.6430709,13 66.602183,13 67.5511992,13 C68.0257073,13 68.4800236,13.0823279 68.9242439,13.2572747 C69.2675051,13.3910575 69.5400949,13.6174592 69.7622051,13.9158978 C69.9641234,14.1834634 70.0347948,14.502484 69.9843153,14.8420866 C69.6612459,17.1472676 69.3381766,19.4524485 69.0252031,21.7679205 C68.7728052,23.5997161 68.5305032,25.4212207 68.2781053,27.2530163 C68.066091,28.8172463 67.8439808,30.3814762 67.6218706,31.9457062 C67.3896645,33.6540099 67.1574584,35.3520227 66.9252524,37.0603265 C66.8141973,37.8836054 66.7132381,38.7068843 66.5718953,39.5198722 C66.3497851,40.7856636 65.3099056,41.7941803 64.0580119,41.979418 C63.9368609,42 63.8157099,42 63.6945589,42 C63.1190916,41.989709 62.5335284,41.989709 61.9580611,41.989709 C61.9580611,41.989709 61.9580611,41.989709 61.9580611,41.989709 Z" id="Path"></path>
            <path d="M73,5.20384541 C72.9895062,6.28465095 72.7061743,7.29128356 72.1395104,8.20255098 C71.6148215,9.0502416 70.9117385,9.6966057 70.0827302,10.2158162 C69.3691535,10.6714499 68.5716265,10.915161 67.7426182,10.9787378 C66.5568214,11.074103 65.4444812,10.8621803 64.5000413,10.0674703 C63.6605392,9.36812558 63.1358504,8.4674543 63.0309127,7.36545649 C62.8420247,5.42636419 63.5241201,3.81575201 64.9302861,2.51242768 C65.874726,1.6435448 66.9870663,1.11373816 68.2778007,1.01837296 C69.2852032,0.944200036 70.2611244,1.08194976 71.1216141,1.66473706 C72.2549419,2.41706249 72.8845685,3.47667577 72.9790124,4.85417302 C72.9895062,4.97073048 72.9895062,5.08728795 73,5.20384541 Z" id="Path"></path>
        </g>
    </g>
</svg>