<?xml version="1.0" encoding="UTF-8"?>
<svg width="175px" height="88px" viewBox="0 0 175 88" version="1.1" xmlns="http://www.w3.org/2000/svg" xmlns:xlink="http://www.w3.org/1999/xlink">
    <!-- Generator: Sketch 61.2 (89653) - https://sketch.com -->
    <title>logo_airbnb_blk</title>
    <desc>Created with Sketch.</desc>
    <g id="logo_airbnb_blk" stroke="none" stroke-width="1" fill="none" fill-rule="evenodd">
        <g id="Airbnb_Logo_BeÌlo" transform="translate(21.000000, 23.000000)" fill="#2C3643" fill-rule="nonzero">
            <path d="M70.6227059,10.5525526 C70.6227059,12.0660661 69.4087418,13.2852853 67.901752,13.2852853 C66.3947622,13.2852853 65.1807982,12.0660661 65.1807982,10.5525526 C65.1807982,9.03903904 66.3529014,7.81981982 67.901752,7.81981982 C69.4506027,7.86186186 70.6227059,9.08108108 70.6227059,10.5525526 Z M59.4040039,16.0600601 C59.4040039,16.3123123 59.4040039,16.7327327 59.4040039,16.7327327 C59.4040039,16.7327327 58.1063182,15.0510511 55.3435035,15.0510511 C50.7806732,15.0510511 47.2225028,18.5405405 47.2225028,23.3753754 C47.2225028,28.1681682 50.7388124,31.6996997 55.3435035,31.6996997 C58.148179,31.6996997 59.4040039,29.975976 59.4040039,29.975976 L59.4040039,30.6906907 C59.4040039,31.027027 59.6551688,31.2792793 59.9900554,31.2792793 L63.3807825,31.2792793 L63.3807825,15.4714715 C63.3807825,15.4714715 60.2830812,15.4714715 59.9900554,15.4714715 C59.6551688,15.4714715 59.4040039,15.7657658 59.4040039,16.0600601 Z M59.4040039,26.1921922 C58.7760914,27.1171171 57.5202666,27.9159159 56.0132768,27.9159159 C53.3341837,27.9159159 51.2830031,26.2342342 51.2830031,23.3753754 C51.2830031,20.5165165 53.3341837,18.8348348 56.0132768,18.8348348 C57.4784057,18.8348348 58.8179523,19.6756757 59.4040039,20.5585586 L59.4040039,26.1921922 Z M65.8924322,15.4714715 L69.9110718,15.4714715 L69.9110718,31.2792793 L65.8924322,31.2792793 L65.8924322,15.4714715 Z M125.92086,15.0510511 C123.158045,15.0510511 121.86036,16.7327327 121.86036,16.7327327 L121.86036,7.86186186 L117.84172,7.86186186 L117.84172,31.2792793 C117.84172,31.2792793 120.939422,31.2792793 121.232447,31.2792793 C121.567334,31.2792793 121.818499,30.984985 121.818499,30.6906907 L121.818499,29.975976 L121.818499,29.975976 C121.818499,29.975976 123.116185,31.6996997 125.878999,31.6996997 C130.44183,31.6996997 134,28.1681682 134,23.3753754 C134,18.5825826 130.44183,15.0510511 125.92086,15.0510511 Z M125.251087,27.8738739 C123.702236,27.8738739 122.488272,27.0750751 121.86036,26.1501502 L121.86036,20.5165165 C122.488272,19.6756757 123.827819,18.7927928 125.251087,18.7927928 C127.93018,18.7927928 129.98136,20.4744745 129.98136,23.3333333 C129.98136,26.1921922 127.93018,27.8738739 125.251087,27.8738739 Z M115.748679,21.9039039 L115.748679,31.3213213 L111.730039,31.3213213 L111.730039,22.3663664 C111.730039,19.7597598 110.892823,18.7087087 108.632338,18.7087087 C107.418374,18.7087087 106.162549,19.3393393 105.367193,20.2642643 L105.367193,31.2792793 L101.348554,31.2792793 L101.348554,15.4714715 L104.529977,15.4714715 C104.864863,15.4714715 105.116028,15.7657658 105.116028,16.0600601 L105.116028,16.7327327 C106.288132,15.5135135 107.836982,15.0510511 109.385833,15.0510511 C111.143988,15.0510511 112.609117,15.5555556 113.78122,16.5645646 C115.204488,17.7417417 115.748679,19.2552553 115.748679,21.9039039 Z M91.5949809,15.0510511 C88.8321662,15.0510511 87.5344805,16.7327327 87.5344805,16.7327327 L87.5344805,7.86186186 L83.515841,7.86186186 L83.515841,31.2792793 C83.515841,31.2792793 86.6135423,31.2792793 86.9065681,31.2792793 C87.2414547,31.2792793 87.4926197,30.984985 87.4926197,30.6906907 L87.4926197,29.975976 L87.4926197,29.975976 C87.4926197,29.975976 88.7903054,31.6996997 91.55312,31.6996997 C96.1159503,31.6996997 99.6741207,28.1681682 99.6741207,23.3753754 C99.7159816,18.5825826 96.1578112,15.0510511 91.5949809,15.0510511 Z M90.9252076,27.8738739 C89.376357,27.8738739 88.1623929,27.0750751 87.5344805,26.1501502 L87.5344805,20.5165165 C88.1623929,19.6756757 89.5019394,18.7927928 90.9252076,18.7927928 C93.6043006,18.7927928 95.6554812,20.4744745 95.6554812,23.3333333 C95.6554812,26.1921922 93.6043006,27.8738739 90.9252076,27.8738739 Z M80.0413922,15.0510511 C81.2553563,15.0510511 81.8832687,15.2612613 81.8832687,15.2612613 L81.8832687,19.003003 C81.8832687,19.003003 78.5344024,17.8678679 76.441361,20.2642643 L76.441361,31.3213213 L72.4227215,31.3213213 L72.4227215,15.4714715 C72.4227215,15.4714715 75.5204228,15.4714715 75.8134486,15.4714715 C76.1483352,15.4714715 76.3995002,15.7657658 76.3995002,16.0600601 L76.3995002,16.7327327 C77.1529951,15.8498498 78.7855674,15.0510511 80.0413922,15.0510511 Z M38.3061464,29.8498498 C38.0968422,29.3453453 37.8875381,28.7987988 37.6782339,28.3363363 C37.3433473,27.5795796 37.0084607,26.8648649 36.7154349,26.1921922 L36.6735741,26.1501502 C33.7851769,19.8438438 30.6874756,13.4534535 27.422331,7.14714715 L27.2967485,6.89489489 C26.9618619,6.26426426 26.6269752,5.59159159 26.2920886,4.91891892 C25.8734803,4.16216216 25.454872,3.36336336 24.7850988,2.60660661 C23.4455523,0.924924925 21.5199542,0 19.4687736,0 C17.3757322,0 15.4919949,0.924924925 14.1105876,2.52252252 C13.4826751,3.27927928 13.022206,4.07807808 12.6035977,4.83483483 C12.2687111,5.50750751 11.9338245,6.18018018 11.5989379,6.81081081 L11.4733554,7.06306306 C8.25007159,13.3693694 5.11050946,19.7597598 2.22211231,26.0660661 L2.18025148,26.1501502 C1.88722568,26.8228228 1.55233905,27.5375375 1.21745242,28.2942943 C1.00814828,28.7567568 0.798844141,29.2612613 0.589539999,29.8078078 C0.0453492307,31.3633634 -0.122094083,32.8348348 0.0872100591,34.3483483 C0.547679171,37.5015015 2.64072059,40.1501502 5.52911775,41.3273273 C6.61749928,41.7897898 7.74774165,42 8.91984484,42 C9.25473147,42 9.67333975,41.957958 10.0082264,41.9159159 C11.3896337,41.7477477 12.8129019,41.2852853 14.1943092,40.4864865 C15.9106032,39.5195195 17.5431755,38.1321321 19.3850519,36.1141141 C21.2269284,38.1321321 22.9013615,39.5195195 24.5757947,40.4864865 C25.957202,41.2852853 27.3804702,41.7477477 28.7618775,41.9159159 C29.0967641,41.957958 29.5153724,42 29.850259,42 C31.0223622,42 32.1944654,41.7897898 33.2409861,41.3273273 C36.1712441,40.1501502 38.2224247,37.4594595 38.6828938,34.3483483 C39.0177804,32.8768769 38.8503371,31.4054054 38.3061464,29.8498498 Z M19.4269128,32.036036 C17.166428,29.1771772 15.701299,26.4864865 15.1989691,24.2162162 C14.989665,23.2492492 14.9478041,22.4084084 15.0733866,21.6516517 C15.1571083,20.978979 15.4082732,20.3903904 15.7431599,19.8858859 C16.5385156,18.7507508 17.8780621,18.036036 19.4269128,18.036036 C20.9757634,18.036036 22.3571707,18.7087087 23.1106657,19.8858859 C23.4455523,20.3903904 23.6967173,20.978979 23.7804389,21.6516517 C23.9060214,22.4084084 23.8641606,23.2912913 23.6548564,24.2162162 C23.1525265,26.4444444 21.6873975,29.1351351 19.4269128,32.036036 Z M36.1293833,34.012012 C35.8363575,36.1981982 34.3712285,38.0900901 32.3200479,38.9309309 C31.315388,39.3513514 30.2270065,39.4774775 29.1386249,39.3513514 C28.0921042,39.2252252 27.0455835,38.8888889 25.957202,38.2582583 C24.4502122,37.4174174 22.9432223,36.1141141 21.1850676,34.1801802 C23.9478822,30.7747748 25.6223154,27.6636637 26.2502278,24.8888889 C26.5432536,23.5855856 26.5851144,22.4084084 26.4595319,21.3153153 C26.2920886,20.2642643 25.9153412,19.2972973 25.3292896,18.4564565 C24.0316039,16.5645646 21.8548408,15.4714715 19.4269128,15.4714715 C16.9989847,15.4714715 14.8222216,16.6066066 13.524536,18.4564565 C12.9384844,19.2972973 12.5617369,20.2642643 12.3942936,21.3153153 C12.2268503,22.4084084 12.2687111,23.6276276 12.6035977,24.8888889 C13.2315102,27.6636637 14.9478041,30.8168168 17.668758,34.2222222 C15.952464,36.1561562 14.4036134,37.4594595 12.8966235,38.3003003 C11.808242,38.9309309 10.7617213,39.2672673 9.71520058,39.3933934 C8.58495822,39.5195195 7.49657668,39.3513514 6.53377763,38.972973 C4.48259704,38.1321321 3.01746804,36.2402402 2.72444225,34.0540541 C2.59885976,33.003003 2.68258142,31.951952 3.1011897,30.7747748 C3.22677219,30.3543544 3.43607633,29.9339339 3.64538047,29.4294294 C3.93840627,28.7567568 4.2732929,28.042042 4.60817952,27.3273273 L4.65004035,27.2432432 C7.53843751,20.978979 10.6361388,14.5885886 13.8594226,8.36636637 L13.9850051,8.11411411 C14.3198917,7.48348348 14.6547783,6.81081081 14.989665,6.18018018 C15.3245516,5.50750751 15.701299,4.87687688 16.1617682,4.33033033 C17.0408455,3.32132132 18.2129487,2.77477477 19.5106344,2.77477477 C20.8083201,2.77477477 21.9804233,3.32132132 22.8595007,4.33033033 C23.3199698,4.87687688 23.6967173,5.50750751 24.0316039,6.18018018 C24.3664905,6.81081081 24.7013771,7.48348348 25.0362638,8.11411411 L25.1618462,8.36636637 C28.3432692,14.6306306 31.4409705,21.021021 34.3293677,27.2852853 L34.3293677,27.3273273 C34.6642543,28 34.9572801,28.7567568 35.2921667,29.4294294 C35.5014709,29.9339339 35.710775,30.3543544 35.8363575,30.7747748 C36.1712441,31.8678679 36.2968266,32.9189189 36.1293833,34.012012 Z" id="Shape"></path>
        </g>
    </g>
</svg>