<?xml version="1.0" encoding="UTF-8"?>
<svg width="175px" height="88px" viewBox="0 0 175 88" version="1.1" xmlns="http://www.w3.org/2000/svg" xmlns:xlink="http://www.w3.org/1999/xlink">
    <!-- Generator: Sketch 61.2 (89653) - https://sketch.com -->
    <title>logo_linkedin_blk</title>
    <desc>Created with Sketch.</desc>
    <g id="logo_linkedin_blk" stroke="none" stroke-width="1" fill="none" fill-rule="evenodd">
        <g id="linkedin-color-logo" transform="translate(18.000000, 27.000000)" fill="#2C3643" fill-rule="nonzero">
            <polygon id="Path" points="0 5 5.26105263 5 5.26105263 24.1469892 15 24.1469892 15 29 0 29"></polygon>
            <path d="M17.4193548,12.9688958 L22.5806452,12.9688958 L22.5806452,29 L17.4193548,29 L17.4193548,12.9688958 Z M20,5 C21.6568542,5 23,6.29510166 23,7.89269051 C23,9.49027937 21.6568542,10.785381 20,10.785381 C18.3431458,10.785381 17,9.49027937 17,7.89269051 L17,7.89269051 C17,7.12715116 17.3153908,6.3929663 17.87679,5.85164823 C18.4381892,5.31033016 19.19961,5.00622084 19.9935484,5.00622084 L19.9935484,5.00622084" id="Shape"></path>
            <polygon id="Path" points="43 5 48.0595238 5 48.0595238 19.340694 53.7957589 12.7223975 60 12.7223975 53.359375 20.2492114 59.8608631 29 53.4985119 29 48.1290923 20.955836 48.0595238 20.955836 48.0595238 29 43 29"></polygon>
            <path d="M25,12.415947 L29.9191353,12.415947 L29.9191353,14.6820909 L29.9895917,14.6820909 C30.9925001,12.9575016 32.8586939,11.9280685 34.8446757,12.0039209 C40.0392314,12.0039209 41,15.4353262 41,19.9032349 L41,29 L35.8759007,29 L35.8759007,20.9333003 C35.8759007,19.0019277 35.8438751,16.5362086 33.2113691,16.5362086 C30.5788631,16.5362086 30.1369095,18.6349669 30.1369095,20.7981042 L30.1369095,29 L25.0128102,29 L25,12.415947 Z" id="Path"></path>
            <path d="M70.8769752,18.6637643 C70.9200087,17.0185084 69.5939628,15.6483104 67.9093303,15.5973086 L67.7558315,15.5973086 C65.8952394,15.4826355 64.2854148,16.8487053 64.1422122,18.6637643 L70.8769752,18.6637643 Z M75.2133183,25.7959282 C73.4926674,27.8364958 70.9232485,29.0130074 68.2163281,28.9998915 C63.099699,28.9998915 59,25.6647763 59,20.4998906 C59,15.3350048 63.099699,12 68.2163281,12 C73.0003762,12 76,15.3287595 76,20.4998906 L76,22.0612224 L64.1230248,22.0612224 C64.4383409,23.8838712 66.0676766,25.2097097 67.9604966,25.1838861 C69.4405229,25.1745936 70.8150674,24.4341457 71.6124906,23.216608 L75.2133183,25.7959282 Z" id="Shape"></path>
            <path d="M86.2044003,16.4720497 C83.6493967,16.4720497 82.1100071,18.1304348 82.1100071,20.5465839 C82.1100071,22.9627329 83.6430092,24.621118 86.2044003,24.621118 C88.7657913,24.621118 90.292406,22.9689441 90.292406,20.5465839 C90.292406,18.1242236 88.7594038,16.4720497 86.2044003,16.4720497 M95,28.6024845 L90.292406,28.6024845 L90.292406,26.4782609 L90.2285309,26.4782609 C89.0330389,28.0430711 87.1550083,28.97569 85.1504613,29 C80.238467,29 77,25.552795 77,20.6770186 C77,16.2049689 79.861604,12.0931677 84.5628105,12.0931677 C86.6834634,12.0931677 88.6572037,12.6583851 89.8197303,14.2111801 L89.8836054,14.2111801 L89.8836054,5 L94.9936125,5 L95,28.6024845 Z" id="Shape"></path>
            <path d="M131.481481,0.000399939729 L102.518519,0.000399939729 C101.862225,-0.0113935727 101.228137,0.238054083 100.7558,0.693846189 C100.283463,1.14963829 100.011586,1.77442279 100,2.43070142 L100,31.5439503 C100.006625,32.2040858 100.276116,32.8343519 100.74881,33.2952158 C101.221505,33.7560796 101.858408,34.0095228 102.518519,33.9997262 L131.481481,33.9997262 C132.848199,33.9997262 133.965832,32.9102017 134,31.5439503 L134,2.44958978 C133.962481,1.08580952 132.845816,5.42101086e-20 131.481481,0.000399939729 Z M110.074074,28.962542 L105.037037,28.962542 L105.037037,12.7500386 L110.074074,12.7500386 L110.074074,28.962542 Z M107.555556,10.5212197 C105.938594,10.5246863 104.624971,9.21673434 104.621488,7.59981865 C104.618019,5.98290296 105.926006,4.66931527 107.542968,4.66582986 C109.159929,4.6623583 110.473556,5.97030626 110.477044,7.58722193 L110.477044,7.58722193 C110.478709,8.36202558 110.172513,9.10575915 109.625809,9.65480882 C109.079105,10.2038585 108.336677,10.5132487 107.561852,10.5149167 L107.561852,10.5149167 L107.555556,10.5212197 Z M128.962963,28.962542 L123.925926,28.962542 L123.925926,21.0798025 C123.925926,19.1909671 123.888148,16.779554 121.306667,16.779554 C118.725185,16.779554 118.284444,18.8320884 118.284444,20.947584 L118.284444,28.962542 L113.247407,28.962542 L113.247407,12.7500386 L118.082963,12.7500386 L118.082963,14.966272 L118.152222,14.966272 C119.136456,13.277243 120.971259,12.2678883 122.924815,12.3407909 C128.024815,12.3407909 128.969259,15.7029178 128.969259,20.0724236 L128.962963,28.962542 Z" id="Shape"></path>
            <polygon id="Path" points="135 27.2978723 135.394872 27.2978723 135.394872 29 135.605128 29 135.605128 27.2978723 136 27.2978723 136 27 135 27"></polygon>
            <polygon id="Path" points="138.583039 27 138.003534 28.4680851 137.424028 27 137 27 137 29 137.29682 29 137.29682 27.4751773 137.904594 29 138.102473 29 138.710247 27.4751773 138.710247 29 139 29 139 27"></polygon>
        </g>
    </g>
</svg>