<?xml version="1.0" encoding="UTF-8"?>
<svg width="175px" height="88px" viewBox="0 0 175 88" version="1.1" xmlns="http://www.w3.org/2000/svg" xmlns:xlink="http://www.w3.org/1999/xlink">
    <!-- Generator: Sketch 61.2 (89653) - https://sketch.com -->
    <title>logo_dave_blk</title>
    <desc>Created with Sketch.</desc>
    <g id="logo_dave_blk" stroke="none" stroke-width="1" fill="none" fill-rule="evenodd">
        <g id="dave-logo" transform="translate(34.000000, 30.000000)" fill="#2C3643">
            <path d="M43.195,17.232 C43.195,22.853 34.803,23.176 34.7829432,19.111 C34.766,15.596 38.566,15.122 43.195,16.474 L43.195,17.232 Z M47.725,2.812 C45.42,1.129 42.622,0.276 39.411,0.276 C35.631,0.276 33.046,0.931 31.217,1.502 C27.004,2.818 28.477,9.118 33.387,7.979 C37.61,7.002 43.215,6.455 43.215,11.203 L43.215,11.515 C41.881,11.135 39.09,10.513 35.869,10.815 C30.233,11.346 26.592,14.583 26.592,19.061 C26.592,24.415 30.256,27.875 35.926,27.875 C39.992,27.875 42.324,26.128 43.479,25.022 C43.681,25.557 43.995,26.047 44.409,26.461 C45.1712486,27.227185 46.2082341,27.6567418 47.289,27.654 L47.437,27.654 C49.6860284,27.6512463 51.5086943,25.8290277 51.512,23.58 L51.512,11.98 C51.512,11.9 51.512,11.808 51.514,11.705 C51.536,10.045 51.594,5.635 47.725,2.812 L47.725,2.812 Z M10.23,21.225 L8.043,21.225 L8.043,6.954 L10.23,6.954 C14.943,6.954 17.36,10.148 17.36,14.089 C17.36,18.03 14.898,21.225 10.23,21.225 M11.81,0.707 L4.13,0.707 C1.85013974,0.708653804 0.00220589507,2.55614021 0,4.836 L0,23.343 C0.00330801165,25.6220787 1.85091953,27.4683481 4.13,27.47 L12.022,27.47 C15.639,27.47 19.028,26.05 21.564,23.471 C24.0897414,20.9176657 25.4745441,17.4507892 25.403,13.86 C25.28,6.608 19.184,0.707 11.81,0.707 M70.434,3.008 L65.418,16.9 L60.4,3.008 C59.8077547,1.36821499 58.251459,0.275369087 56.508,0.275 C53.488,0.275 51.485,3.404 52.749,6.147 L61.656,25.467 C62.3326723,26.9347511 63.8012764,27.8748484 65.4175,27.8748484 C67.0337236,27.8748484 68.5023277,26.9347511 69.179,25.467 L78.086,6.147 C79.35,3.404 77.347,0.275 74.327,0.275 C72.5831744,0.275 71.0263698,1.36787022 70.434,3.008 M90.967,6.735 C95.224,6.735 95.992,10.694 95.992,11.762 L86.249,11.762 C86.249,9.104 88.464,6.735 90.967,6.735 M91.893,21.222 C89.613,21.222 86.627,19.591 86.255,16.897 L99.578,16.897 C100.787,16.897 101.975,16.452 102.808,15.577 C103.7004,14.651982 104.121351,13.3699766 103.951,12.096 C103.041,5.356 97.51,0.276 91.09,0.276 C83.922,0.276 78.094,6.464 78.094,14.072 C78.094,21.683 83.922,27.875 91.09,27.875 C95.247,27.875 98.309,26.6 100.416,25.205 C102.339,23.932 102.361,21.115 100.469,19.794 C99.3163493,18.9972478 97.7858069,19.0169062 96.654,19.843 C95.286,20.829 93.974,21.222 91.894,21.222" id="Shape"></path>
            <path d="M108,2.78 C108,3.482 107.761,4.072 107.277,4.557 C106.792,5.041 106.195,5.28 105.5,5.28 C104.798,5.28 104.208,5.041 103.723,4.557 C103.239,4.072 103,3.482 103,2.78 C103,2.078 103.239,1.488 103.723,1.003 C104.208,0.52 104.798,0.28 105.5,0.28 C106.195,0.28 106.792,0.519 107.277,1.003 C107.761,1.488 108,2.078 108,2.78 Z M107.67,2.78 C107.67,2.183 107.46,1.67 107.03,1.25 C106.631624,0.832552458 106.076954,0.600533423 105.5,0.61 C104.903,0.61 104.39,0.82 103.97,1.25 C103.552552,1.64837552 103.320533,2.20304603 103.33,2.78 C103.33,3.377 103.54,3.89 103.97,4.31 C104.39,4.74 104.903,4.95 105.5,4.95 C106.097,4.95 106.61,4.74 107.038,4.31 C107.459,3.89 107.67,3.377 107.67,2.78 L107.67,2.78 Z M105.851,2.977 L106.631,4.227 L106.09,4.227 L105.395,3.026 L105.037,3.026 L105.037,4.226 L104.587,4.226 L104.587,1.334 L105.584,1.341 C105.837,1.341 106.048,1.419 106.224,1.566 C106.402364,1.71758689 106.500568,1.94316138 106.49,2.177 C106.49,2.423 106.427,2.605 106.294,2.732 C106.174013,2.85613939 106.019804,2.94177228 105.851,2.978 L105.851,2.977 Z M106.027,2.183 C106.027,1.867 105.823,1.713 105.423,1.713 L105.037,1.713 L105.037,2.653 L105.423,2.653 C105.823,2.653 106.027,2.499 106.027,2.183 Z" id="Shape"></path>
        </g>
    </g>
</svg>