<?xml version="1.0" encoding="UTF-8"?>
<svg width="175px" height="88px" viewBox="0 0 175 88" version="1.1" xmlns="http://www.w3.org/2000/svg" xmlns:xlink="http://www.w3.org/1999/xlink">
    <!-- Generator: Sketch 61.2 (89653) - https://sketch.com -->
    <title>logo_king_blk</title>
    <desc>Created with Sketch.</desc>
    <g id="logo_king_blk" stroke="none" stroke-width="1" fill="none" fill-rule="evenodd">
        <g id="king-digital-entertainment-game" transform="translate(39.000000, 12.000000)" fill="#2C3643">
            <path d="M72.8655221,42.147159 C70.0097205,42.147159 70.2101277,38.4217487 70.2101277,36.3436286 C70.2101277,34.6709955 70.6109419,32.2887603 71.0869088,31.0722998 C71.5628758,29.8811822 72.5148096,27.9297768 74.0679648,27.9297768 C75.0449496,27.9297768 75.4958656,28.0058056 76.2724432,28.8167793 C77.4498351,30.0078969 76.9237664,30.0839257 76.548003,32.6942471 L76.0219343,37.4587174 C75.9217308,39.3847799 76.097087,40.3224682 74.7944407,41.4122141 C74.3936264,41.792358 73.5919979,42.147159 72.8655221,42.147159 L72.8655221,42.147159 Z M38.2201401,6.05883074 C38.2201401,8.69449516 39.4476338,10.5952147 41.226247,11.6849606 C43.2303183,12.9014211 45.4848985,12.9014211 47.5641224,11.7863323 C47.4388679,13.1801933 46.962901,14.2192533 46.3616796,15.3343421 C44.5329646,18.7556372 40.1991605,21.7207597 36.9675956,23.697508 C35.5897966,24.5591675 34.2119976,25.2180836 32.7590459,25.9530285 C27.9993767,28.3606066 22.5132316,30.2359832 17.3276972,31.4271008 C16.9769847,31.5031296 16.225458,31.6298442 16,31.7312159 C16.1252545,32.2380745 16.4008143,32.8463047 16.5761705,33.3024774 C18.0291222,36.9772018 19.5321756,40.727955 21.285738,44.2506219 C22.2627227,46.2273702 23.2397074,48.1280898 24.4672011,49.9781234 C25.3439823,51.2959556 27.4232062,53.956963 29.4523284,53.956963 C31.0054836,53.956963 31.8071121,53.1966752 32.7840968,52.1069293 C33.2851146,51.5493849 33.6358271,50.8651259 34.0115905,50.2315527 C34.2370485,49.8514088 34.3372521,49.5472937 34.5126083,49.1671498 C34.7380663,48.73632 35.2390841,47.3931449 35.2891859,46.8356005 C35.5146439,47.013001 35.4645421,47.0636868 35.5897966,47.3931449 C37.3934607,52.4110444 41.9026211,50.7637542 44.1572012,46.2527132 C44.3576084,45.8725692 44.4828628,45.593797 44.6832699,45.2136531 L45.1091351,44.2506219 C45.1091351,44.225279 45.134186,44.1999361 45.134186,44.1999361 C45.134186,44.1999361 45.1592369,44.1492502 45.1592369,44.1492502 C45.2093387,46.3540849 45.9358145,48.5842624 48.5912089,48.5842624 C49.5932445,48.5842624 50.645382,48.6602912 51.5973158,48.406862 C51.9229774,48.3308332 51.7977229,48.3561761 51.7977229,48.052061 C51.6724685,46.0246268 51.772672,41.8937297 51.772672,39.714238 C51.772672,37.9402331 51.7225703,36.0141706 51.9730792,34.468252 C52.4239952,31.6045013 55.1545423,29.3996666 55.5553566,33.5559067 C55.6555601,34.7723672 55.5303057,35.7860843 55.5553566,37.1292594 C55.5553566,37.8135184 55.455153,38.1429765 55.4802039,38.8525784 L55.4050512,42.5019599 C55.4050512,44.9602239 55.1294914,48.3054902 58.4111581,48.3054902 C60.8410945,48.3054902 62.5195042,46.5314854 63.7469978,44.6814517 C63.947405,44.3773365 64.1227612,44.0985643 64.2981174,43.7691063 C64.398321,43.5663629 64.4484228,43.4649912 64.5486263,43.2369048 L64.7239826,42.9074468 C64.8241861,42.7553892 64.7490335,42.8567609 64.8241861,42.7553892 C64.9243897,43.8451351 65.6258146,45.593797 66.227036,46.4554566 C68.5567689,49.7246942 72.7653185,47.9000034 74.8194916,45.4163966 C74.9948478,45.1883102 75.1451531,44.909538 75.3706112,44.7574805 C75.3455603,45.593797 74.9697969,47.2157444 74.7443389,48.0267181 C74.4437282,49.091121 74.1431175,49.9020947 73.6170488,50.7890971 C71.1871124,54.9706801 65.0496442,53.0699605 60.9412981,52.4870732 C53.8268451,51.4733561 48.115242,51.4480132 41.0258399,52.9685888 C39.3223793,53.3233898 37.9195294,53.8049054 36.4415269,54.4131357 C35.264135,54.8946513 33.43542,55.8830255 32.9093513,56.8967425 C33.2851146,56.8713996 33.8612851,56.6433133 34.2620994,56.5419416 C43.0800129,54.2610781 53.2757255,55.3254811 62.0685882,57.1501718 C66.3272396,58.0371743 73.2663363,60.6221528 77.0740717,57.5049728 L78.2765145,56.2885123 C79.9298733,54.2103923 80.1553313,51.3212986 80.5310947,48.6856342 C80.5811964,48.2801473 80.5811964,47.8746605 80.6312982,47.4945166 L81.0070616,38.0669477 C81.0070616,37.6614609 81.0822143,37.4333745 81.1072652,36.9518589 C81.1824178,35.2031969 81.5331303,33.3278203 81.9339445,31.6298442 C82.0842499,30.9455852 82.3347588,30.3373549 82.4850641,29.6784388 C83.7877105,30.312012 85.8168326,29.9065252 86.9441227,29.0702086 C89.3239573,27.3215466 89.6997207,24.0016231 87.7457512,21.7714456 C86.9691736,20.8844431 85.6414764,20.3268987 84.2887283,20.3268987 C82.4099115,20.3268987 80.9319089,21.7714456 80.0300768,22.9625631 C79.3286519,23.9002514 78.3516672,25.3954841 78.1011583,26.48523 L77.925802,26.48523 C77.7504458,25.8516568 73.9427104,21.2899299 69.7592116,23.9509373 C68.6068707,24.6858822 67.7300895,25.5982276 67.0036136,26.7133163 C66.703003,27.169489 66.5777485,27.4229183 66.3272396,27.9297768 C65.1498477,30.312012 64.7991353,32.6942471 64.4233719,35.3805974 C64.3732701,35.7100555 64.398321,35.9634847 64.3732701,36.2929428 C64.3482192,36.6224008 64.2981174,36.7237726 64.2981174,37.1546023 C64.2981174,38.9032643 64.5235755,40.7026121 63.6217434,42.121816 C63.0956747,42.9834756 62.1186899,43.4649912 61.868181,42.121816 C61.4423159,39.7902667 61.8932319,32.6942471 61.8932319,29.957211 C61.8932319,27.7270334 60.9913999,25.2434266 59.4131937,23.9509373 C57.2337662,22.1769324 55.004237,23.7481939 53.6514889,25.5221988 C52.3989443,27.1441461 52.0983336,29.0448656 51.6975194,29.60241 C51.6975194,28.6900647 51.547214,27.8030622 51.2466033,27.194832 C49.6934481,23.9002514 45.1592369,28.4619783 44.9838806,28.8167793 C44.6582191,29.4503525 46.0861198,40.8800126 44.1321504,43.2875907 C43.0800129,44.6054229 42.3535371,43.2115619 42.0779773,42.0204443 C41.7773666,40.753298 41.4767559,38.1176335 41.5018068,36.6984296 C41.5018068,35.6847125 41.4266541,34.8990818 41.4266541,33.8346789 C41.4266541,32.8209618 41.4266541,31.8072447 41.4266541,30.7935276 C40.1240078,30.8948993 35.5146439,33.783993 34.3122012,34.6203096 L34.4124047,37.4587174 C34.5627101,38.8525784 34.6128119,43.6930775 34.2620994,45.0615956 C33.5857253,47.7479459 31.3060943,45.5684541 30.4293131,44.3773365 C29.1016159,42.5779887 27.924224,40.6012404 26.8720866,38.6244921 L25.644593,36.3943145 C25.4942876,36.0901994 25.3189314,35.9381418 25.2437787,35.5833408 C26.2959161,35.3299116 29.8280917,33.6572784 30.8802291,33.1250769 C32.3081299,32.4154749 33.7360307,31.705873 35.0887788,30.8695564 C35.4394912,30.64147 35.7651528,30.4894125 36.1158653,30.2613261 L40.0488552,27.6256617 C41.4767559,26.5866017 43.1802165,25.1927407 44.432761,23.9002514 C45.81056,22.5063904 47.0881555,21.0618436 48.1653438,19.4398963 C49.9690079,16.7028601 51.5722649,13.4082796 51.5722649,9.78424103 C51.5722649,6.86980441 50.7706364,4.3355117 49.3176847,2.61219265 C48.8417178,2.05464826 48.3407,1.49710386 47.7394786,1.09161703 C43.2303183,-1.89884837 38.2201401,1.75053313 38.2201401,6.05883074 L38.2201401,6.05883074 Z" id="Shape"></path>
            <path d="M0,26.090422 C0,30.264568 4.450783,32.4789015 7.48657718,30.8754186 C8.67002237,33.3188212 9.75055928,40.5217683 9.77628635,43.245144 C9.77628635,44.0087073 9.93064877,44.7468185 9.95637584,45.5103818 C10.00783,47.0120563 10.5480984,50.7535164 10.8825503,52.0006698 C11.5,54.4186202 12.5290828,56.7602143 14.7930649,57.9819156 C16.5425056,58.9490958 18.0089485,59 20.01566,59 C20.6331096,59 22.6655481,58.8218352 23,58.6436705 C22.7941834,58.083724 20.8646532,58.0073677 18.7550336,52.6624246 C18.4205817,51.8479571 18.1375839,50.9316812 17.8803132,50.0408573 C15.9765101,43.2705961 14.844519,33.2170127 12.6319911,27.6939049 C12.0402685,26.2176825 11.0883669,24.5632954 9.95637584,23.4688547 C8.46420582,22.0180844 7.25503356,21 4.96532438,21 C2.31543624,21.0254521 0,23.4434025 0,26.090422 L0,26.090422 Z" id="Path"></path>
        </g>
    </g>
</svg>