<?xml version="1.0" encoding="UTF-8"?>
<svg width="175px" height="88px" viewBox="0 0 175 88" version="1.1" xmlns="http://www.w3.org/2000/svg" xmlns:xlink="http://www.w3.org/1999/xlink">
    <!-- Generator: Sketch 61.2 (89653) - https://sketch.com -->
    <title>logo_rovio_blk</title>
    <desc>Created with Sketch.</desc>
    <g id="logo_rovio_blk" stroke="none" stroke-width="1" fill="none" fill-rule="evenodd">
        <g id="rovio-logo" transform="translate(20.000000, 28.000000)" fill="#2C3643">
            <path d="M134.958582,15.1111501 C134.930969,14.2736829 134.886099,13.5460474 134.830875,12.9488371 C134.784515,12.4138195 134.706142,11.8820237 134.59617,11.3562764 C134.498527,10.9121024 134.377557,10.4733185 134.233759,10.0417274 C133.495129,7.80733729 132.256027,6.10151259 130.55787,4.96544019 C128.859713,3.8293678 126.761178,3.24931876 124.286425,3.24931876 C121.811672,3.24931876 119.751104,3.82250332 118.056399,4.96544019 C116.361693,6.10837707 115.122591,7.80733729 114.38051,10.0417274 C114.236198,10.473164 114.115221,10.9119751 114.018099,11.3562764 C113.90747,11.8819077 113.82909,12.413743 113.783394,12.9488371 C113.72817,13.5460474 113.6833,14.2736829 113.655687,15.1111501 C113.628075,15.9486174 113.614269,16.9508323 113.614269,18.1246594 C113.614269,19.2984864 113.614269,20.3109981 113.655687,21.1381686 C113.697106,21.9653392 113.724718,22.7032714 113.783394,23.3004816 C113.828963,23.8355904 113.907343,24.3674334 114.018099,24.8930423 C114.115151,25.3373609 114.236129,25.7761758 114.38051,26.2075913 C115.11914,28.4419815 116.358242,30.1512384 118.056399,31.2838786 C119.754556,32.4165187 121.853091,33 124.286425,33 C126.71976,33 128.866617,32.4268154 130.55787,31.2838786 C132.249124,30.1409417 133.491678,28.4419815 134.233759,26.2075913 C134.377624,25.7760203 134.498595,25.3372329 134.59617,24.8930423 C134.706239,24.3673121 134.784613,23.8355106 134.830875,23.3004816 C134.886099,22.7032714 134.927518,21.9756359 134.958582,21.1381686 C134.989645,20.3007014 135,19.277893 135,18.1246594 C135,16.9714258 134.986194,15.9623464 134.958582,15.1111501 Z M130.747705,20.7880798 C130.720093,21.5294443 130.671771,22.1815705 130.60274,22.7307293 C130.533709,23.2798882 130.464679,23.7398087 130.395648,24.1036265 C130.341512,24.4126051 130.26656,24.7176176 130.171298,25.0166031 C129.815644,26.223886 129.077129,27.2845329 128.06586,28.040409 C127.099429,28.7268576 125.829263,29.0700819 124.269168,29.0700819 C122.709072,29.0700819 121.459615,28.7268576 120.510442,28.040409 C119.514603,27.2754045 118.789321,26.2152003 118.439519,25.0131708 C118.344084,24.7153984 118.269128,24.4115156 118.215169,24.1036265 C118.146139,23.729512 118.073656,23.2661592 118.008077,22.7307293 C117.942498,22.1952994 117.890725,21.5294443 117.863113,20.7880798 C117.8355,20.0467154 117.821694,19.1509 117.821694,18.1246594 C117.821694,17.0984188 117.821694,16.2026034 117.863113,15.4612389 C117.904531,14.7198744 117.939046,14.0677483 118.008077,13.5185894 C118.077108,12.9694306 118.146139,12.4889166 118.215169,12.1456923 C118.269027,11.8366557 118.343984,11.5316247 118.439519,11.2327157 C118.789979,10.0319379 119.515204,8.97301892 120.510442,8.20890971 C121.463067,7.52246114 122.72633,7.17923685 124.269168,7.17923685 C125.812005,7.17923685 127.085623,7.52246114 128.06586,8.20890971 C129.076656,8.96670723 129.814958,10.0282524 130.171298,11.2361479 C130.26639,11.5340163 130.341341,11.837876 130.395648,12.1456923 C130.464679,12.5198068 130.533709,12.9865918 130.60274,13.5185894 C130.671771,14.0505871 130.720093,14.7233067 130.747705,15.4612389 C130.775317,16.1991711 130.789123,17.11558 130.789123,18.1246594 C130.789123,19.1337388 130.778769,20.0329864 130.747705,20.7880798 Z M108.65786,3.71953603 L105.727504,3.71953603 C105.554705,3.70252285 105.383267,3.76295001 105.259817,3.88438307 C105.136367,4.00581614 105.07374,4.17562862 105.088969,4.34763648 L105.088969,31.89825 C105.07374,32.0702579 105.136367,32.2400704 105.259817,32.3615034 C105.383267,32.4829365 105.554705,32.5433637 105.727504,32.5263505 L108.65786,32.5263505 C108.830659,32.5433637 109.002097,32.4829365 109.125547,32.3615034 C109.248998,32.2400704 109.311624,32.0702579 109.296395,31.89825 L109.296395,4.35106872 C109.312724,4.17849355 109.250583,4.00770019 109.126993,3.88546475 C109.003402,3.76322932 108.831314,3.70236316 108.65786,3.71953603 Z M101.18528,3.71953603 L98.2549237,3.71953603 C97.8988938,3.70331388 97.5815478,3.94107355 97.4990368,4.2858561 L90.6201211,25.7064839 L83.4857915,4.29272059 C83.3895885,3.93920355 83.0559751,3.70224045 82.6884862,3.72640052 L79.7995486,3.72640052 C79.611104,3.71060131 79.4284089,3.79555666 79.3197848,3.9494963 C79.2222684,4.12265569 79.2133002,4.33159155 79.295624,4.51238413 L88.5526497,31.9703271 C88.6217595,32.3036942 88.917931,32.5421801 89.260215,32.5400932 L91.7453225,32.5400932 C92.0794923,32.5360855 92.3662324,32.3022731 92.4356302,31.9771916 L101.654689,4.51924862 C101.741476,4.3315132 101.729861,4.11334101 101.623625,3.93576733 C101.518268,3.79548104 101.350936,3.71484305 101.174925,3.71953603 L101.18528,3.71953603 Z M77.5491457,12.9488371 C77.5028678,12.4138101 77.4244934,11.8820095 77.3144411,11.3562764 C77.2167185,10.9121219 77.0957501,10.473342 76.9520296,10.0417274 C76.2099488,7.80733729 74.9742981,6.10151259 73.2761413,4.96544019 C71.5779845,3.8293678 69.4794492,3.24931876 67.0046963,3.24931876 C64.5299434,3.24931876 62.469375,3.82250332 60.7746698,4.96544019 C59.0799645,6.10837707 57.8408622,7.80733729 57.0987815,10.0417274 C56.9543998,10.4731429 56.8334217,10.9119579 56.73637,11.3562764 C56.6257071,11.8819017 56.5473273,12.4137391 56.5016654,12.9488371 C56.4464408,13.5494796 56.4015708,14.2771151 56.3739585,15.1111501 C56.3463462,15.9451852 56.33254,16.9508323 56.33254,18.1246594 C56.33254,19.2984864 56.33254,20.3109981 56.3739585,21.1381686 C56.4153769,21.9653392 56.4429892,22.7032714 56.5016654,23.3004816 C56.5472763,23.8355855 56.6256566,24.367426 56.73637,24.8930423 C56.8333635,25.3373751 56.9543424,25.7761931 57.0987815,26.2075913 C57.8374107,28.4419815 59.0765129,30.1512384 60.7746698,31.2838786 C62.4728266,32.4165187 64.5713618,33 67.0046963,33 C69.4380308,33 71.5848876,32.4268154 73.2761413,31.2838786 C74.9673951,30.1409417 76.2099488,28.4419815 76.9520296,26.2075913 C77.0957501,25.7759767 77.2167185,25.3371969 77.3144411,24.8930423 C77.4245339,24.3673164 77.5029087,23.8355134 77.5491457,23.3004816 C77.6043703,22.6998391 77.6492403,21.9722036 77.6768526,21.1381686 C77.7044649,20.3041336 77.7182711,19.277893 77.7182711,18.1246594 C77.7182711,16.9714258 77.7182711,15.9589141 77.6768526,15.1111501 C77.6354341,14.2633861 77.5940157,13.5597764 77.5353395,12.9488371 L77.5491457,12.9488371 Z M73.4521698,20.7880798 C73.4245575,21.5294443 73.3762359,22.1815705 73.3072052,22.7307293 C73.2381744,23.2798882 73.1691436,23.743241 73.1001129,24.1036265 C73.0460481,24.41262 72.9710948,24.7176372 72.8757629,25.0166031 C72.5201088,26.223886 71.7815936,27.2845329 70.7703245,28.040409 C69.8038938,28.7268576 68.5302762,29.0700819 66.9736325,29.0700819 C65.4169887,29.0700819 64.1640803,28.7268576 63.2149073,28.040409 C62.2188912,27.2755697 61.4935664,26.2153028 61.1439843,25.0131708 C61.0485695,24.7153927 60.9736135,24.4115113 60.9196344,24.1036265 C60.8506036,23.729512 60.7781213,23.262727 60.7125421,22.7307293 C60.6469628,22.1987317 60.5951898,21.5260121 60.5675775,20.7880798 C60.5399651,20.0501476 60.526159,19.1543322 60.526159,18.1246594 C60.526159,17.0949865 60.526159,16.1991711 60.5675775,15.4612389 C60.6089959,14.7233067 60.6435113,14.0677483 60.7125421,13.5185894 C60.7815728,12.9694306 60.8506036,12.4889166 60.9196344,12.1456923 C60.9735024,11.8366579 61.0484589,11.5316275 61.1439843,11.2327157 C61.4944435,10.0319379 62.2196685,8.97301892 63.2149073,8.20890971 C64.1675319,7.52246114 65.4307949,7.17923685 66.9736325,7.17923685 C68.5164701,7.17923685 69.7900877,7.52246114 70.7703245,8.20890971 C71.7811204,8.96670723 72.5194231,10.0282524 72.8757629,11.2361479 C72.9709448,11.5339913 73.0458969,11.8378569 73.1001129,12.1456923 C73.1691436,12.5163745 73.2381744,12.9831596 73.3072052,13.5185894 C73.3762359,14.0540193 73.4245575,14.7233067 73.4521698,15.4612389 C73.4797821,16.1991711 73.4935882,17.11558 73.4935882,18.1246594 C73.4935882,19.1337388 73.4832336,20.0295542 73.4521698,20.7880798 Z M47.3240252,19.9574771 C48.9100143,19.4339558 50.2996946,18.4456797 51.3105518,17.1224445 C52.3708626,15.6684509 52.9181302,13.9067127 52.8671956,12.1113699 C52.8784979,10.9341416 52.6507516,9.76675431 52.1975972,8.67912698 C51.7761273,7.66466203 51.1377929,6.75350362 50.3268634,6.00884203 C49.4842884,5.26078157 48.5013177,4.68572736 47.4344744,4.31674629 C46.2332477,3.9062755 44.969987,3.70426203 43.69991,3.71953603 L33.3452952,3.71953603 C33.1730642,3.70361497 33.0026102,3.7645271 32.8799666,3.88582227 C32.757323,4.00711744 32.6951404,4.17628408 32.7102122,4.34763648 L32.7102122,31.89825 C32.6949826,32.0702579 32.7576092,32.2400704 32.8810596,32.3615034 C33.0045099,32.4829365 33.1759477,32.5433637 33.3487467,32.5263505 L36.2791027,32.5263505 C36.4519018,32.5433637 36.6233396,32.4829365 36.7467899,32.3615034 C36.8702403,32.2400704 36.9328669,32.0702579 36.9176373,31.89825 L36.9176373,20.5443906 C36.9176373,20.5272294 36.9176373,20.5135004 36.9176373,20.5100682 L43.0786331,20.5100682 L48.708092,31.9806239 C48.8076141,32.3086221 49.1125551,32.5322064 49.4570758,32.5297827 L52.8533894,32.5297827 C53.0489124,32.5429334 53.2349576,32.4444414 53.3331533,32.2757968 C53.4285998,32.0985145 53.4138564,31.8825982 53.2951863,31.7197734 L47.3240252,19.9574771 Z M36.9417981,16.6179048 L36.9072827,16.6179048 C36.9058577,16.6053598 36.9058577,16.5926951 36.9072827,16.5801501 L36.9072827,7.65631861 C36.9072827,7.63915739 36.9072827,7.62542842 36.9072827,7.62199618 L43.5998154,7.62199618 C45.2116837,7.62199618 46.4749467,8.01670411 47.3516375,8.79925549 C48.2283282,9.58180686 48.663222,10.6938536 48.663222,12.1250988 C48.663222,13.5563441 48.2214251,14.6786875 47.3516375,15.4509422 C46.4818498,16.2231968 45.2151353,16.6282015 43.5998154,16.6282015 L36.9452496,16.6282015 L36.9417981,16.6179048 Z M23.1943212,18.3340262 C25.2825018,16.5835823 26.3869941,14.3629212 26.4353156,11.1743676 C26.4974433,7.19983031 23.8397588,3.23558978 19.1525699,1.59154545 C16.4333943,0.692541881 13.6008492,0.177261851 10.7377196,0.0607651243 C8.24582401,-0.0689606583 5.74737961,0.00910978861 3.26859083,0.29415764 C2.56802956,0.359869986 1.87489151,0.48853244 1.19766787,0.678568842 C1.02163942,0.747213699 0.921544811,0.836452014 0.959511732,0.881071172 C1.06787011,0.928592397 1.18705497,0.946370183 1.30466556,0.932554815 C1.49104862,0.932554815 2.31251473,0.860477714 3.72074234,0.8673422 C5.82201055,0.890720877 7.9180294,1.08124622 9.98873582,1.43709452 C15.7493532,2.39125804 19.249213,4.94484674 18.9627353,9.18366669 C18.7383853,12.5404002 12.9467041,14.0849095 7.66930211,16.1648487 C2.91308239,18.0388533 0.793837896,20.3453205 0.193270239,22.741026 C-0.497037413,25.4387689 0.766225589,28.2326146 2.32977242,30.6695071 C2.67492625,31.2220982 3.04424084,31.7609603 3.43081313,32.2586355 C3.50080624,32.388825 3.62899619,32.4780564 3.77596695,32.4988925 C3.79385356,32.4035027 3.78550618,32.3050799 3.75180618,32.2140164 C3.60099171,31.6348745 3.50394169,31.0431918 3.46187697,30.4464113 C3.43426466,28.7646123 4.34201923,27.3402315 6.5682614,25.9295797 C8.35960976,24.7969395 11.0034881,23.6745961 14.696634,22.4389887 C18.3897799,21.2033812 21.2269444,19.9815028 23.1943212,18.3340262 L23.1943212,18.3340262 Z M26.1937079,32.1144813 C25.0188327,31.697747 23.9108825,31.1139202 22.904392,30.3811987 C21.6376774,29.4579254 20.4607029,28.2188857 20.2915775,26.8116661 C19.9947452,24.337019 20.6677952,23.1666242 20.8507267,22.8542901 C20.9139472,22.7695055 20.9423319,22.6639648 20.9301121,22.5591172 C20.8315707,22.5196072 20.7214666,22.5196072 20.6229252,22.5591172 C20.1604191,22.6517877 17.5890231,23.5613321 16.0876039,24.9342292 C15.1177217,25.8231801 14.3618348,26.9386591 14.606894,28.4557104 C14.8450501,29.8938202 16.004767,30.9406543 17.2197085,31.544729 C18.5416476,32.2140164 20.2398044,32.4851636 21.8827367,32.5744019 C23.2632399,32.6461827 24.6470565,32.6243948 26.0245826,32.5091893 C26.2653788,32.5093305 26.5024897,32.4503841 26.7148902,32.3375771 C26.5558378,32.2345948 26.380968,32.1580822 26.1971595,32.1110491 L26.1937079,32.1144813 Z" id="Shape"></path>
        </g>
    </g>
</svg>