<?xml version="1.0" encoding="UTF-8"?>
<svg width="175px" height="88px" viewBox="0 0 175 88" version="1.1" xmlns="http://www.w3.org/2000/svg" xmlns:xlink="http://www.w3.org/1999/xlink">
    <!-- Generator: Sketch 61.2 (89653) - https://sketch.com -->
    <title>logo_vice_blk</title>
    <desc>Created with Sketch.</desc>
    <g id="logo_vice_blk" stroke="none" stroke-width="1" fill="none" fill-rule="evenodd">
        <g id="vice-logo" transform="translate(22.000000, 24.000000)" fill-rule="nonzero">
            <path d="M81.1230902,0.0272511041 C76.712173,0.245790261 72.7119518,1.74386589 69.4604214,3.17308512 C68.5430166,3.57636293 66.9612946,4.75562188 66.0843085,4.79182368 C65.0509981,4.83561618 63.1685355,3.80233221 61.771943,3.40314171 C55.5940639,1.63975653 46.1944399,-0.65461997 41.3811363,3.05674306 C35.3359757,2.18715544 29.763226,3.67423916 25.185311,5.02188027 C24.926848,1.43468357 21.5486546,-0.713586567 17.6114216,0.398647972 C14.9773413,1.14136872 12.8162541,2.61600807 10.1549133,3.63599371 C4.94262848,5.63023104 -0.322065175,9.87781129 0.0154048409,16.5771145 C0.175407359,19.7285685 1.55813519,22.2936411 2.46364252,24.5485167 C3.40829089,26.9009767 4.39763609,28.7774122 5.9599296,31.4833506 C5.53023929,32.2788413 5.1480409,32.7846446 5.02646848,33.6785225 C4.01404675,41.1884248 14.1332634,41.4351225 19.4755479,39.2246962 C24.0835127,37.3149784 28.9128476,33.9349275 32.1778813,31.4833506 C29.5583781,42.6034334 47.1698232,43.0947122 51.6352291,37.492411 C57.9143462,42.1453638 71.4850779,41.6291963 78.1997369,37.7224676 C84.4005116,42.675472 98.1553351,40.7886723 106.513775,38.8782246 C110.836628,37.8901199 114.648095,37.0939723 117.469364,35.0671096 C120.35645,32.9883527 122.16386,29.8050761 122.941573,25.7071202 C122.348982,24.1369403 121.336764,22.9894309 120.378757,21.7768166 C120.856001,20.7817051 120.994184,18.9759945 120.730896,17.6165294 C124.384251,15.0221889 127.42652,10.9810903 130.168902,7.5635238 C130.496041,7.15413694 131.121206,6.61899263 130.979402,6.06129518 C118.480552,4.13004607 106.427065,0.277437639 91.9501152,0.977942421 C91.0361105,1.02107803 90.0014313,1.28348997 89.1525292,1.20799171 C87.9052915,1.09640842 86.8307897,0.481919405 85.6590389,0.285013741 C84.110008,0.0234484556 82.5933886,-0.0456050133 81.1230902,0.0272511041 L81.1230902,0.0272511041 Z" id="Path" fill="#2C3643"></path>
            <path d="M82.2588381,4.00217874 C76.6062677,4.11541225 71.3211646,6.92376776 67.1559218,9.20171139 C62.7144241,11.6302182 58.749533,14.4827141 55.9692142,17.3290262 C56.974435,15.6217963 58.0424702,13.9343764 59.2329614,12.33862 C60.4400901,10.7183687 61.7840197,9.25280068 62.8459351,7.8094401 C60.523787,7.20433019 58.1951594,6.56331924 55.8528051,6.06623578 C52.5234725,5.3602131 47.8940053,4.18995547 45.1360429,5.71816785 C44.3382686,6.15966157 43.6864626,7.246451 42.9228457,7.34391689 C42.2928169,7.42590851 41.2520658,6.96900983 40.475394,6.88269128 C37.6287289,6.5671922 35.011055,6.82798864 32.4389001,7.34391689 C30.0296608,7.82501264 24.9347906,8.67998652 24.2831237,10.9434834 C23.8646539,12.3965253 24.7958023,13.8036386 24.6323488,15.2406188 C24.4722932,16.654791 23.1106975,18.522976 22.4191508,19.6509109 C21.5725552,21.0329611 20.711603,22.2583185 19.2732491,22.9009774 C18.4014377,18.5751492 19.3489911,14.7316063 20.0881083,11.0623712 C20.5448479,8.80173455 21.4659707,6.48800355 20.6730249,4.21130592 C18.4522767,3.90350732 16.582446,5.65588575 14.3826576,6.53175906 C10.250648,8.180538 5.64824561,9.68068035 5.06423334,14.4270273 C4.73521454,17.0992355 5.74160046,18.801284 6.46113464,20.6994121 C8.0028549,24.7772853 9.90750811,28.2273138 12.1694597,31.3792244 C11.5526286,32.5084793 10.1000852,32.8034299 9.95338773,34.3958128 C10.6107417,35.3239022 11.9825558,35.442881 13.334981,35.442881 C17.244162,35.4343738 20.4486803,33.4724742 23.3518562,31.8418823 C29.6739613,28.297908 33.9204824,22.8391192 38.3800422,17.6770938 C39.1631524,16.7698323 39.8081455,15.6775279 40.8274939,15.1260286 C41.8291371,19.7122058 39.8809692,22.1620165 38.4950135,25.9204311 C37.9611972,27.368632 36.2744023,31.9012221 37.0966748,34.0477451 C37.9956695,36.4094412 45.6649557,36.5119557 47.6984658,34.9802231 C48.7226463,34.2094432 49.1334224,32.4633032 49.6831582,31.3792244 C50.3845457,29.9846334 50.9904072,28.7799799 51.5442562,27.5476128 C51.5757344,32.6337336 55.3672819,34.1274904 59.4657788,35.2108359 C68.1783445,37.5063814 76.9611298,33.4057163 81.7127226,30.5684981 C81.1189998,34.3365925 82.5911549,34.713501 85.5613878,35.3282908 C93.2442374,36.9087937 100.979131,35.0855039 107.227728,33.5850865 C112.956117,32.2106634 117.564262,31.2377052 118.413004,25.5723627 C117.496479,24.782075 115.203403,24.8799376 113.63451,25.1097048 C109.015423,25.7836789 104.541829,28.1120225 98.3749448,27.6636354 C97.2500877,27.5814971 94.8209888,27.1906955 94.6455628,26.5048407 C94.375165,25.4319833 96.2998177,24.6816184 97.9121826,24.4135688 C102.53447,23.6337683 109.21633,24.4215333 112.936058,23.0184322 C114.724394,22.3465849 116.877701,20.4066294 116.661128,18.2586396 C116.519344,16.8083119 114.621924,16.0497728 112.819645,15.9396187 C107.722189,15.6214802 104.078081,18.585272 98.7270403,17.5625035 C99.3964051,16.7192659 99.5162401,15.3336727 100.356756,14.6605054 C104.268723,14.5790271 108.069413,15.3550624 111.771975,15.1260286 C116.920393,14.8050292 119.824329,12.6435423 122.258792,9.78468944 C122.518815,9.47637747 123.172389,9.14380243 122.957244,8.62303095 C114.015596,7.26752901 101.82521,3.67562392 90.8026443,5.02203205 C89.3757934,5.19393578 88.3509926,6.67883502 87.4138643,7.26370371 C87.4153359,7.25123629 87.4268882,7.2469607 87.4224733,7.22789288 C87.6013061,6.43489161 87.9381849,5.8041412 88.0059536,4.90744033 C86.0679827,4.22701253 84.1430136,3.96547399 82.2588234,4.00360963 L82.2588234,4.00217954 L82.2588381,4.00217874 Z M86.6090652,9.6672346 C87.6979777,10.9044427 90.0816841,10.851319 91.4996537,11.7585072 C89.5856188,12.2486969 87.1753494,12.2461872 85.4406698,12.9173011 C85.8493054,11.8528768 86.217059,10.7477199 86.6090652,9.6672346 Z M73.0927521,13.9615048 C72.5199485,16.5663156 71.3209461,19.5488459 70.6481745,22.4368872 C74.3512703,22.4890303 78.2571084,21.7384388 82.0648254,21.5101384 C82.5796835,20.8236969 82.8322745,19.8773302 83.1139376,18.9562079 C83.8766628,20.0339797 84.4148977,22.0480386 83.6974179,23.5985457 C77.9146742,23.5184608 73.7567233,28.2364143 68.0857516,28.2437521 C65.5450734,28.2465349 63.3877924,26.7887451 64.590624,23.9466133 C66.2889992,19.9362109 70.4996691,17.13505 73.0927521,13.9615048 Z" id="Shape" fill="#FFFFFF"></path>
        </g>
    </g>
</svg>