<?xml version="1.0" encoding="UTF-8"?>
<svg width="175px" height="88px" viewBox="0 0 175 88" version="1.1" xmlns="http://www.w3.org/2000/svg" xmlns:xlink="http://www.w3.org/1999/xlink">
    <!-- Generator: Sketch 61.2 (89653) - https://sketch.com -->
    <title>logo_getaround_blk</title>
    <desc>Created with Sketch.</desc>
    <g id="logo_getaround_blk" stroke="none" stroke-width="1" fill="none" fill-rule="evenodd">
        <g id="getaround-logo" transform="translate(18.000000, 28.000000)" fill="#2C3643" fill-rule="nonzero">
            <path d="M25.3900352,5.8829257 C20.4543223,5.8829257 17.3075035,9.20829952 17.3075035,13.8282137 C17.3075035,18.6947954 20.4227427,21.9292918 25.6668215,21.9292918 C27.9814237,21.9292918 30.6025343,21.1280862 32.2075234,19.464472 L29.8000398,17.0979483 C28.9362436,17.9918859 27.1157699,18.5148951 25.7281231,18.5148951 C23.0735753,18.5148951 21.4388642,17.1610061 21.1936575,15.2822534 L33.069462,15.2822534 C33.6564718,9.02283528 30.479931,5.8829257 25.3900352,5.8829257 Z M21.2549592,12.1645995 C21.8122471,10.1931146 23.4841107,9.20829952 25.5107809,9.20829952 C27.6712002,9.20829952 29.2130299,10.1931146 29.4600942,12.1645995 L21.2549592,12.1645995 Z M40.598421,18.3257216 C39.4262589,18.3257216 38.6237643,17.6172482 38.6237643,16.1687725 L38.6237643,9.60890228 L42.849864,9.60890228 L42.849864,6.37440593 L38.655344,6.37440593 L38.655344,2.06236235 L34.8917933,2.46296511 L34.8917933,16.1706271 C34.8917933,19.9596615 37.0503549,21.8384143 40.3513567,21.7141532 C41.4220706,21.6991158 42.4800558,21.4800529 43.4684535,21.0687377 L42.4188947,17.8639156 C41.8537186,18.1503019 41.2319752,18.3080218 40.598421,18.3257216 L40.598421,18.3257216 Z M69.1166987,5.9441289 C67.574869,5.9441289 66.0014596,6.22047062 64.8292974,8.09922337 L64.5506535,6.34102237 L61.0657467,6.34102237 L61.0657467,21.5249797 L64.8292974,21.5249797 L64.8292974,13.5203431 C64.8292974,10.7179784 66.6497711,9.67937869 68.6244278,9.67937869 C69.8597492,9.67937869 70.3835998,9.83331401 71.1545147,10.4805842 L72.8505274,7.21455894 C72.0164533,6.37440593 70.6901081,5.9441289 69.1166987,5.9441289 Z M80.1900086,6.03686102 C75.3471771,6.03686102 72.3248192,9.60890228 72.3248192,13.9506201 C72.3248192,18.3257216 75.2858754,21.8662339 80.2215883,21.8662339 C85.1573011,21.8662339 88.149937,18.3257216 88.149937,13.9506201 C88.149937,9.60890228 85.0346978,6.03686102 80.1900086,6.03686102 Z M80.2215883,18.416599 C77.4760167,18.416599 76.0883699,16.2615046 76.0883699,13.9506201 C76.0883699,11.6731193 77.5075964,9.45496696 80.2215883,9.45496696 C82.7516752,9.45496696 84.3548066,11.6805378 84.3548066,13.9506201 C84.3548066,16.2615046 82.9671598,18.416599 80.2215883,18.416599 Z M101.071585,14.1064101 C101.071585,16.4154399 99.4981755,18.3553959 97.1854309,18.3553959 C94.7705168,18.3553959 93.5147615,16.6009041 93.5147615,14.2900197 L93.5147615,6.34102237 L89.7512108,6.34102237 L89.7512108,14.3159847 C89.7512108,19.028631 92.403901,21.7679379 96.0429908,21.7679379 C98.1718304,21.7679379 99.6226365,21.0260809 101.196046,19.490437 L101.441253,21.5527994 L104.805414,21.5527994 L104.805414,6.34102237 L101.071585,6.34102237 L101.071585,14.1064101 L101.071585,14.1064101 Z M115.5685,6.09806422 C113.655145,6.09806422 112.113315,6.86774081 110.569628,8.37741973 L110.322564,6.31320274 L106.96026,6.31320274 L106.96026,21.5212704 L110.694089,21.5212704 L110.694089,13.759592 C110.694089,11.4487075 112.267498,9.50875159 114.580243,9.50875159 C116.995157,9.50875159 118.250912,11.2650979 118.250912,13.5741277 L118.250912,21.5212704 L122.014463,21.5212704 L122.014463,13.5463081 C122.014463,8.77802249 119.151861,6.09806422 115.5685,6.09806422 L115.5685,6.09806422 Z M136.242022,0 L136.242022,8.40709401 C135.342931,6.83621189 132.842566,5.97009389 131.239435,5.97009389 C126.79785,5.97009389 123.496849,8.68158108 123.496849,13.9172366 C123.496849,18.9062246 126.859152,21.8625246 131.332316,21.8625246 C133.189942,21.8625246 135.064287,21.2467834 136.236449,19.4292338 L136.483514,21.5249797 L140,21.5249797 L140,0 L136.242022,0 Z M131.57938,18.396198 C129.164466,18.396198 127.260399,16.5786484 127.260399,13.9302191 C127.260399,11.1797844 129.171897,9.49391445 131.57938,9.49391445 C132.760382,9.47440047 133.898321,9.9363772 134.730544,10.7732139 C135.562768,11.6100507 136.017357,12.749429 135.989385,13.9283644 C135.989385,16.6621073 133.953427,18.396198 131.57938,18.396198 L131.57938,18.396198 Z M56.3640947,6.59325374 C54.5696278,5.58803756 50.9769787,5.51385186 49.0320441,6.03686102 C46.5632588,6.71195085 45.0622968,8.58884896 44.947124,10.933117 L48.515624,11.747305 C48.7998408,9.9594297 49.3348371,9.3603802 50.856233,9.1155674 C51.9708087,8.93010316 53.5442181,8.9709053 54.4154448,9.85742437 C54.89657,10.3507592 54.9485836,10.5825895 54.8742785,11.389359 C54.8389836,11.77327 54.0624959,11.9012403 53.6018046,12.001391 C51.929941,12.3723195 49.3125456,12.5577837 47.6685464,13.0066072 C44.4325615,13.8931262 43.9793007,17.8064217 45.6028661,19.8242726 C47.2747296,21.9088907 51.4766802,22.3762606 53.8321502,20.8350527 C54.1906721,20.6013678 54.5324753,20.3472818 54.9838785,20.0301379 L54.9838785,21.4841776 L58.8588868,21.4841776 L58.8588868,17.5894285 C58.8700325,15.2803987 58.9610562,12.9695143 58.877463,10.6660485 C58.8324899,8.95649473 57.8732674,7.40213748 56.3640947,6.59325374 L56.3640947,6.59325374 Z M53.4048962,18.0252695 C52.9061114,18.294808 52.3654046,18.4785161 51.80548,18.5686797 C51.099582,18.7040686 50.3676773,18.8283297 49.6654946,18.676249 C49.1750813,18.5686797 48.6809527,18.3312855 48.4246003,17.9010085 C48.2730143,17.6452878 48.2018278,17.3500155 48.2202614,17.0534369 C48.2371116,16.7669094 48.3466214,16.4935747 48.5323426,16.2744871 C48.7471289,16.0131137 49.02713,15.8128859 49.3441253,15.693984 C50.3286672,15.2618523 51.4190937,15.1375913 52.4890864,15.0263127 L54.2445432,14.8408485 L54.682943,14.7926278 L54.8947124,14.7703721 C54.9745903,14.7703721 54.9968818,14.7555349 54.9987431,14.8334299 C54.9990541,15.0960676 54.9791811,15.3583422 54.9392954,15.6179437 C54.9065494,15.8716131 54.8442052,16.1205895 54.7535328,16.3598006 C54.552072,16.9437971 54.1832383,17.4558524 53.6928282,17.8323867 C53.600806,17.9023793 53.5046555,17.9667896 53.4048962,18.0252695 L53.4048962,18.0252695 Z M7.89676906,21.8643793 C2.96105619,21.8643793 0,18.3220123 0,13.9506201 C0,9.60890228 3.02421548,6.03686102 7.86518941,6.03686102 L17.2814967,6.03686102 C17.2814967,6.03686102 16.8802495,8.51280862 14.526637,9.45682161 L7.91720295,9.45682161 C5.20321104,9.45682161 3.76355072,11.6731193 3.76355072,13.9524748 C3.76355072,16.2615046 5.15119751,18.416599 7.89676906,18.416599 C10.6423406,18.416599 12.0299874,16.2615046 12.0299874,13.9524748 C12.0354666,12.7066946 11.5520124,11.5083224 10.6832084,10.6141185 L15.1415113,10.6141185 C15.5941049,11.6688729 15.8254913,12.8050107 15.8214025,13.9524748 C15.8214025,16.4451142 14.8480064,18.6669758 13.0981225,20.1173061 C15.2715451,21.4007187 15.8214025,23.1496465 15.8214025,25.0098528 C15.8214025,29.3311696 12.5129702,32 7.9636436,32 C3.70596431,32 0.453260797,29.5796917 0.0501559079,25.807349 L3.8824388,25.397473 C4.10349632,27.2113133 5.87938698,28.3778834 7.96921648,28.3778834 C10.1983679,28.3778834 11.9463942,27.1705112 11.9463942,25.0098528 C11.9463942,22.8491944 9.91415113,21.8680886 7.97478936,21.8569607 L7.89676906,21.8643793 L7.89676906,21.8643793 Z" id="Shape"></path>
        </g>
    </g>
</svg>