<svg width="60" height="60" viewBox="0 0 60 60" fill="none" xmlns="http://www.w3.org/2000/svg">
<path d="M47.5511 56.9488C53.949 56.9488 59.1355 51.7622 59.1355 45.3643C59.1355 38.9663 53.949 33.7798 47.5511 33.7798C41.1531 33.7798 35.9666 38.9663 35.9666 45.3643C35.9666 51.7622 41.1531 56.9488 47.5511 56.9488Z" fill="#3088F4"/>
<path d="M30.0212 53.736C27.7722 53.7382 25.5354 53.4065 23.3837 52.752C23.2465 52.7042 23.1331 52.6052 23.0672 52.4756C23.0013 52.3461 22.9882 52.1961 23.0304 52.0571C23.0727 51.918 23.1671 51.8008 23.294 51.7298C23.4208 51.6589 23.5701 51.6397 23.7107 51.6765C27.264 52.7521 31.0329 52.9028 34.6607 52.1145C34.8065 52.0826 34.959 52.11 35.0846 52.1906C35.2102 52.2712 35.2987 52.3984 35.3305 52.5442C35.3623 52.69 35.3349 52.8425 35.2543 52.9681C35.1737 53.0937 35.0465 53.1821 34.9007 53.214C33.2976 53.5619 31.6617 53.7369 30.0212 53.736Z" fill="#2C3543"/>
<path d="M52.2646 31.9995H52.2496C52.1758 31.9975 52.103 31.981 52.0355 31.951C51.968 31.9209 51.9071 31.8778 51.8562 31.8242C51.8054 31.7705 51.7656 31.7074 51.7392 31.6384C51.7127 31.5694 51.7001 31.4958 51.7021 31.422C51.7942 28.2527 51.1906 25.1017 49.9337 22.1909C48.6768 19.2801 46.7972 16.6801 44.4271 14.574C44.3155 14.4745 44.248 14.3348 44.2395 14.1856C44.2309 14.0363 44.2819 13.8898 44.3814 13.7782C44.4808 13.6666 44.6206 13.5991 44.7698 13.5905C44.919 13.5819 45.0655 13.633 45.1771 13.7325C47.6693 15.9478 49.6457 18.6824 50.9674 21.7437C52.2891 24.8051 52.9239 28.1189 52.8271 31.452C52.8228 31.5984 52.7617 31.7374 52.6568 31.8396C52.5518 31.9418 52.4111 31.9991 52.2646 31.9995Z" fill="#2C3543"/>
<path d="M7.64118 31.9995C7.49445 31.9999 7.35338 31.9428 7.24823 31.8405C7.14308 31.7381 7.08221 31.5987 7.07868 31.452C6.98202 28.1188 7.61701 24.8049 8.93895 21.7435C10.2609 18.6821 12.2377 15.9476 14.7302 13.7325C14.8418 13.633 14.9883 13.5819 15.1375 13.5905C15.2868 13.5991 15.4265 13.6666 15.5259 13.7782C15.6254 13.8898 15.6764 14.0363 15.6679 14.1856C15.6593 14.3348 15.5918 14.4745 15.4802 14.574C13.1096 16.6797 11.2294 19.2795 9.97224 22.1905C8.71505 25.1014 8.11135 28.2525 8.20368 31.422C8.20691 31.5712 8.15101 31.7156 8.04817 31.8238C7.94533 31.932 7.80388 31.9951 7.65468 31.9995H7.64118Z" fill="#2C3543"/>
<path d="M15.3317 17.7001C15.3082 17.7016 15.2847 17.7016 15.2612 17.7001C15.1131 17.6813 14.9785 17.6047 14.8868 17.4869C14.7952 17.369 14.754 17.2197 14.7722 17.0716L15.1877 13.8106L12.2717 14.7301C12.1297 14.775 11.9756 14.7617 11.8434 14.6931C11.7779 14.6591 11.7198 14.6125 11.6723 14.5561C11.6249 14.4996 11.589 14.4344 11.5667 14.3641C11.5445 14.2937 11.5363 14.2197 11.5426 14.1462C11.549 14.0727 11.5697 14.0012 11.6037 13.9358C11.6723 13.8035 11.7907 13.704 11.9327 13.6591L15.3257 12.5881C15.4545 12.5471 15.5915 12.5393 15.7241 12.5653C15.8567 12.5914 15.9806 12.6504 16.0843 12.7369C16.1881 12.8235 16.2683 12.9348 16.3177 13.0606C16.367 13.1864 16.3839 13.3225 16.3667 13.4566L15.8897 17.2066C15.8723 17.3425 15.8061 17.4674 15.7034 17.5582C15.6008 17.6489 15.4687 17.6994 15.3317 17.7001Z" fill="#2C3543"/>
<path d="M52.455 33.1606C52.326 33.1609 52.1988 33.1301 52.0842 33.0708C51.9696 33.0115 51.8709 32.9255 51.7965 32.8201L49.6245 29.7166C49.5822 29.656 49.5522 29.5877 49.5362 29.5155C49.5203 29.4434 49.5187 29.3688 49.5316 29.296C49.5445 29.2232 49.5715 29.1537 49.6113 29.0914C49.6511 29.0291 49.7027 28.9752 49.7633 28.9329C49.8238 28.8905 49.8922 28.8605 49.9643 28.8446C50.0365 28.8286 50.1111 28.827 50.1839 28.8399C50.2566 28.8528 50.3262 28.8799 50.3885 28.9196C50.4508 28.9594 50.5047 29.011 50.547 29.0716L52.431 31.7626L53.9715 29.1226C54.0495 28.9989 54.1725 28.9104 54.3146 28.8757C54.4567 28.8409 54.6067 28.8627 54.7329 28.9365C54.8592 29.0102 54.9519 29.1302 54.9915 29.2709C55.0311 29.4117 55.0144 29.5624 54.945 29.6911L53.145 32.7616C53.0777 32.8785 52.9818 32.9764 52.8664 33.0461C52.751 33.1159 52.6198 33.1553 52.485 33.1606H52.455Z" fill="#2C3543"/>
<path d="M39.6586 11.2139H30.7036C30.5544 11.2139 30.4114 11.1546 30.3059 11.0491C30.2004 10.9437 30.1411 10.8006 30.1411 10.6514C30.1411 10.5022 30.2004 10.3591 30.3059 10.2536C30.4114 10.1482 30.5544 10.0889 30.7036 10.0889H39.6586C39.9186 10.0788 40.1647 9.96849 40.3451 9.78097C40.5255 9.59346 40.6263 9.34336 40.6263 9.08314C40.6263 8.82293 40.5255 8.57283 40.3451 8.38531C40.1647 8.19779 39.9186 8.08744 39.6586 8.07739H36.1786C36.0294 8.07739 35.8864 8.01813 35.7809 7.91264C35.6754 7.80715 35.6161 7.66408 35.6161 7.51489C35.6161 7.36571 35.6754 7.22263 35.7809 7.11714C35.8864 7.01166 36.0294 6.95239 36.1786 6.95239H39.6586C40.2139 6.96713 40.7416 7.19808 41.1291 7.59607C41.5167 7.99405 41.7336 8.52762 41.7336 9.08314C41.7336 9.63866 41.5167 10.1722 41.1291 10.5702C40.7416 10.9682 40.2139 11.1992 39.6586 11.2139Z" fill="#2C3543"/>
<path d="M39.6586 14.3489H30.7036C30.5544 14.3489 30.4114 14.2896 30.3059 14.1841C30.2004 14.0786 30.1411 13.9356 30.1411 13.7864C30.1411 13.6372 30.2004 13.4941 30.3059 13.3886C30.4114 13.2831 30.5544 13.2239 30.7036 13.2239H39.6586C39.9252 13.2239 40.1808 13.118 40.3693 12.9295C40.5577 12.741 40.6636 12.4854 40.6636 12.2189C40.6636 11.9523 40.5577 11.6967 40.3693 11.5082C40.1808 11.3198 39.9252 11.2139 39.6586 11.2139H30.7036C30.5544 11.2139 30.4114 11.1546 30.3059 11.0491C30.2004 10.9436 30.1411 10.8006 30.1411 10.6514C30.1411 10.5022 30.2004 10.3591 30.3059 10.2536C30.4114 10.1481 30.5544 10.0889 30.7036 10.0889H39.6586C40.2235 10.0889 40.7653 10.3133 41.1648 10.7127C41.5642 11.1122 41.7886 11.654 41.7886 12.2189C41.7886 12.7838 41.5642 13.3256 41.1648 13.725C40.7653 14.1245 40.2235 14.3489 39.6586 14.3489Z" fill="#2C3543"/>
<path d="M31.9035 22.4115C31.6637 22.4113 31.425 22.3785 31.194 22.314C22.563 19.95 18.1875 16.575 18.1875 12.3V8.99999C18.1891 7.62454 18.7363 6.3059 19.709 5.33345C20.6818 4.361 22.0005 3.81418 23.376 3.81299H36.1785C36.7434 3.81299 37.2852 4.0374 37.6846 4.43685C38.0841 4.8363 38.3085 5.37808 38.3085 5.94299C38.3085 6.5079 38.0841 7.04967 37.6846 7.44913C37.2852 7.84858 36.7434 8.07299 36.1785 8.07299H30.7035C30.5543 8.07299 30.4112 8.01372 30.3057 7.90824C30.2003 7.80275 30.141 7.65967 30.141 7.51049C30.141 7.3613 30.2003 7.21823 30.3057 7.11274C30.4112 7.00725 30.5543 6.94799 30.7035 6.94799H36.1785C36.445 6.94799 36.7007 6.8421 36.8891 6.65363C37.0776 6.46516 37.1835 6.20953 37.1835 5.94299C37.1835 5.67645 37.0776 5.42082 36.8891 5.23235C36.7007 5.04387 36.445 4.93799 36.1785 4.93799H23.376C22.2989 4.93918 21.2663 5.36747 20.5045 6.12894C19.7428 6.89042 19.3141 7.92291 19.3125 8.99999V12.3C19.3125 14.85 21.426 18.4695 31.4925 21.2325C31.8461 21.3358 32.226 21.297 32.5515 21.1245C32.829 20.9745 32.8665 20.8125 32.8665 20.6745C32.8401 20.457 32.7331 20.2573 32.5665 20.115C32.4219 19.9808 32.2561 19.8714 32.076 19.791L27.0435 17.457C26.9465 17.4115 26.8644 17.3395 26.8068 17.2492C26.7492 17.1589 26.7184 17.0541 26.718 16.947C26.7171 16.7951 26.7753 16.6489 26.8803 16.5392C26.9852 16.4294 27.1288 16.3648 27.2805 16.359H37.6305C37.7658 16.3642 37.9008 16.3421 38.0274 16.2939C38.154 16.2457 38.2696 16.1725 38.3672 16.0785C38.4648 15.9846 38.5424 15.872 38.5955 15.7474C38.6485 15.6227 38.6758 15.4887 38.6758 15.3532C38.6758 15.2178 38.6485 15.0837 38.5955 14.9591C38.5424 14.8345 38.4648 14.7218 38.3672 14.6279C38.2696 14.534 38.154 14.4608 38.0274 14.4126C37.9008 14.3644 37.7658 14.3423 37.6305 14.3475H30.7035C30.5543 14.3475 30.4112 14.2882 30.3057 14.1827C30.2003 14.0772 30.141 13.9342 30.141 13.785C30.141 13.6358 30.2003 13.4927 30.3057 13.3872C30.4112 13.2818 30.5543 13.2225 30.7035 13.2225H37.62C37.9046 13.2149 38.1878 13.2645 38.4529 13.3682C38.718 13.4718 38.9597 13.6276 39.1636 13.8262C39.3676 14.0248 39.5296 14.2622 39.6403 14.5245C39.751 14.7868 39.808 15.0686 39.808 15.3532C39.808 15.6379 39.751 15.9197 39.6403 16.182C39.5296 16.4442 39.3676 16.6817 39.1636 16.8803C38.9597 17.0789 38.718 17.2346 38.4529 17.3383C38.1878 17.442 37.9046 17.4915 37.62 17.484H29.7705L32.5425 18.7725C32.8392 18.9035 33.1107 19.0852 33.345 19.3095C33.5396 19.4814 33.6972 19.691 33.8083 19.9256C33.9195 20.1603 33.9818 20.415 33.9915 20.6745C33.9896 20.9713 33.9055 21.2617 33.7485 21.5135C33.5914 21.7653 33.3677 21.9687 33.102 22.101C32.7361 22.3064 32.3231 22.4133 31.9035 22.4115Z" fill="#2C3543"/>
<path d="M30.1037 15.9075C30.0493 15.9075 29.9952 15.8995 29.9432 15.8835C29.8004 15.8405 29.6804 15.7426 29.6095 15.6113C29.5387 15.4801 29.5228 15.326 29.5652 15.183C30.2666 12.2873 30.2615 9.26536 29.5502 6.37203C29.5168 6.22807 29.5414 6.07675 29.6187 5.95077C29.6959 5.8248 29.8197 5.73429 29.9631 5.69882C30.1066 5.66335 30.2583 5.68576 30.3853 5.76121C30.5124 5.83666 30.6047 5.95909 30.6422 6.10203C31.4133 9.18911 31.4133 12.4185 30.6422 15.5055C30.6072 15.6213 30.5361 15.7228 30.4391 15.7952C30.3422 15.8676 30.2247 15.9069 30.1037 15.9075Z" fill="#2C3543"/>
<path d="M41.9687 55.9499C41.5477 55.9489 41.1364 55.8232 40.7868 55.5886C40.4371 55.354 40.1649 55.0211 40.0044 54.6319C39.8439 54.2426 39.8023 53.8146 39.885 53.4017C39.9676 52.9889 40.1708 52.6098 40.4687 52.3124L46.8002 45.9794C46.9061 45.8741 47.0493 45.8153 47.1986 45.8157C47.3478 45.8161 47.4908 45.8758 47.596 45.9816C47.7012 46.0874 47.7601 46.2307 47.7597 46.3799C47.7592 46.5292 47.6996 46.6721 47.5937 46.7774L41.2607 53.1089C41.0722 53.2974 40.9662 53.5532 40.9662 53.8199C40.9662 54.0865 41.0722 54.3423 41.2607 54.5309C41.4493 54.7194 41.7051 54.8254 41.9717 54.8254C42.2384 54.8254 42.4942 54.7194 42.6827 54.5309L45.1442 52.0694C45.2507 51.9698 45.3916 51.9154 45.5373 51.9177C45.6831 51.92 45.8222 51.9788 45.9255 52.0816C46.0288 52.1845 46.0881 52.3234 46.0909 52.4692C46.0937 52.6149 46.0399 52.756 45.9407 52.8629L43.4792 55.3259C43.2811 55.5244 43.0456 55.6817 42.7864 55.7888C42.5271 55.8959 42.2492 55.9507 41.9687 55.9499Z" fill="#2C3543"/>
<path d="M39.7502 53.7316C39.3295 53.7304 38.9185 53.6046 38.5692 53.3701C38.2199 53.1356 37.9479 52.8029 37.7874 52.4139C37.627 52.025 37.5853 51.5973 37.6677 51.1847C37.75 50.7721 37.9527 50.3931 38.2502 50.0956L44.5832 43.7626C44.6888 43.657 44.8321 43.5977 44.9815 43.5977C45.1308 43.5977 45.2741 43.657 45.3797 43.7626C45.4853 43.8682 45.5447 44.0115 45.5447 44.1609C45.5447 44.3102 45.4853 44.4535 45.3797 44.5591L39.0467 50.8921C38.8583 51.0803 38.7524 51.3356 38.7523 51.6018C38.7521 51.8681 38.8578 52.1235 39.046 52.3119C39.2341 52.5002 39.4894 52.6061 39.7557 52.6063C40.0219 52.6064 40.2773 52.5008 40.4657 52.3126L46.8002 45.9796C46.906 45.8742 47.0494 45.8151 47.1988 45.8154C47.3481 45.8157 47.4913 45.8753 47.5967 45.9811C47.7021 46.0869 47.7612 46.2303 47.7609 46.3797C47.7606 46.529 47.701 46.6722 47.5952 46.7776L41.2607 53.1091C41.0629 53.308 40.8274 53.4655 40.5681 53.5723C40.3087 53.6792 40.0307 53.7334 39.7502 53.7316Z" fill="#2C3543"/>
<path d="M46.6502 55.7055C46.2292 55.7046 45.8179 55.5789 45.4682 55.3443C45.1186 55.1097 44.8463 54.7768 44.6858 54.3876C44.5253 53.9983 44.4838 53.5702 44.5664 53.1574C44.6491 52.7446 44.8522 52.3655 45.1502 52.068L49.0217 48.1965C49.1273 48.0909 49.2706 48.0316 49.42 48.0316C49.5693 48.0316 49.7126 48.0909 49.8182 48.1965C49.9238 48.3021 49.9832 48.4454 49.9832 48.5948C49.9832 48.7441 49.9238 48.8874 49.8182 48.993L45.9467 52.8645C45.7685 53.0549 45.6714 53.3071 45.6757 53.5679C45.68 53.8286 45.7855 54.0774 45.9699 54.2618C46.1543 54.4462 46.4031 54.5517 46.6639 54.556C46.9246 54.5604 47.1768 54.4632 47.3672 54.285L56.4197 45.2325C57.1812 44.4708 57.6089 43.4378 57.6089 42.3608C57.6089 41.2837 57.1812 40.2508 56.4197 39.489L54.0917 37.1595C51.4757 34.5405 46.4507 35.313 39.1652 39.456C38.8411 39.6338 38.599 39.9308 38.4902 40.284C38.4497 40.3721 38.437 40.4704 38.4539 40.5658C38.4708 40.6613 38.5164 40.7493 38.5847 40.818C38.7602 40.949 38.9767 41.0129 39.1952 40.998C39.3931 40.9921 39.5885 40.952 39.7727 40.8795L44.9807 38.973C45.0816 38.9366 45.1907 38.9294 45.2955 38.9522C45.4003 38.975 45.4966 39.027 45.5732 39.102C45.6801 39.2096 45.7416 39.3541 45.745 39.5057C45.7483 39.6573 45.6933 39.8044 45.5912 39.9165L38.2757 47.2335C38.1816 47.3263 38.1069 47.4369 38.0559 47.5588C38.0049 47.6808 37.9786 47.8116 37.9786 47.9438C37.9786 48.0759 38.0049 48.2068 38.0559 48.3287C38.1069 48.4506 38.1816 48.5612 38.2757 48.654C38.4667 48.8373 38.7212 48.9396 38.986 48.9396C39.2507 48.9396 39.5052 48.8373 39.6962 48.654L44.5877 43.7625C44.64 43.7102 44.7021 43.6687 44.7704 43.6404C44.8388 43.6121 44.912 43.5976 44.986 43.5976C45.0599 43.5976 45.1332 43.6121 45.2015 43.6404C45.2698 43.6687 45.3319 43.7102 45.3842 43.7625C45.4365 43.8148 45.478 43.8769 45.5063 43.9452C45.5346 44.0136 45.5492 44.0868 45.5492 44.1608C45.5492 44.2347 45.5346 44.308 45.5063 44.3763C45.478 44.4446 45.4365 44.5067 45.3842 44.559L40.4927 49.4505C40.2955 49.6517 40.0605 49.8118 39.8011 49.9216C39.5417 50.0314 39.2631 50.0886 38.9814 50.0901C38.6997 50.0915 38.4205 50.0372 38.16 49.9301C37.8995 49.823 37.6628 49.6653 37.4635 49.4662C37.2643 49.2671 37.1065 49.0304 36.9993 48.77C36.8921 48.5095 36.8376 48.2303 36.8389 47.9487C36.8402 47.667 36.8973 47.3884 37.007 47.1289C37.1166 46.8694 37.2766 46.6343 37.4777 46.437L43.0277 40.887L40.1567 41.937C39.8537 42.053 39.533 42.1159 39.2087 42.123C38.9488 42.1443 38.6874 42.1097 38.4419 42.0218C38.1964 41.9338 37.9725 41.7945 37.7852 41.613C37.5778 41.4017 37.4327 41.1373 37.3657 40.8489C37.2988 40.5604 37.3126 40.2591 37.4057 39.978C37.5933 39.3399 38.0243 38.8011 38.6057 38.478C46.3832 34.0545 51.8612 33.345 54.8852 36.3645L57.2087 38.7C58.1807 39.6734 58.7266 40.9927 58.7266 42.3683C58.7266 43.7438 58.1807 45.0632 57.2087 46.0365L48.1502 55.083C47.7519 55.4803 47.2128 55.7041 46.6502 55.7055Z" fill="#2C3543"/>
<path d="M50.7376 49.638C50.6351 49.6377 50.5345 49.6097 50.4466 49.557C47.7177 47.9178 45.4349 45.6314 43.8001 42.9C43.7635 42.8349 43.7403 42.7631 43.7317 42.6889C43.7232 42.6147 43.7295 42.5396 43.7503 42.4679C43.7711 42.3962 43.8059 42.3293 43.8528 42.2712C43.8998 42.2131 43.9578 42.1649 44.0235 42.1294C44.0892 42.094 44.1613 42.072 44.2357 42.0647C44.31 42.0574 44.385 42.065 44.4564 42.087C44.5277 42.109 44.594 42.145 44.6513 42.1929C44.7086 42.2408 44.7558 42.2996 44.7901 42.366C46.3384 44.9112 48.4767 47.0463 51.0241 48.591C51.1323 48.6532 51.2167 48.7496 51.2641 48.8651C51.3114 48.9806 51.319 49.1085 51.2857 49.2288C51.2524 49.3491 51.18 49.4548 51.0799 49.5295C50.9799 49.6041 50.8579 49.6433 50.7331 49.641L50.7376 49.638Z" fill="#2C3543"/>
<path d="M10.8451 45.2131C10.7712 45.2133 10.6981 45.1988 10.6298 45.1704C10.5616 45.1421 10.4996 45.1005 10.4476 45.0481L4.11461 38.7166C4.02144 38.6233 3.91081 38.5493 3.78904 38.4988C3.66726 38.4483 3.53673 38.4222 3.40489 38.4222C3.27306 38.4221 3.1425 38.448 3.02067 38.4984C2.89884 38.5488 2.78814 38.6226 2.69486 38.7158C2.50649 38.904 2.40059 39.1593 2.40045 39.4255C2.40031 39.6918 2.50594 39.9472 2.69411 40.1356L5.15411 42.6001C5.20631 42.6524 5.2477 42.7144 5.27592 42.7827C5.30413 42.851 5.31861 42.9242 5.31854 42.9981C5.31847 43.072 5.30385 43.1452 5.27551 43.2134C5.24717 43.2816 5.20566 43.3436 5.15336 43.3958C5.10106 43.448 5.039 43.4894 4.9707 43.5176C4.90241 43.5458 4.82923 43.5603 4.75533 43.5603C4.68144 43.5602 4.60829 43.5456 4.54005 43.5172C4.4718 43.4889 4.40981 43.4474 4.35761 43.3951L1.89611 40.9306C1.51265 40.5275 1.30195 39.9906 1.30901 39.4343C1.31607 38.878 1.54032 38.3466 1.93389 37.9534C2.32746 37.5602 2.85914 37.3365 3.41542 37.33C3.97169 37.3235 4.50846 37.5347 4.91111 37.9186L11.2501 44.2501C11.3548 44.3562 11.4135 44.4993 11.4135 44.6483C11.4135 44.7974 11.3548 44.9405 11.2501 45.0466C11.1973 45.1002 11.1342 45.1426 11.0646 45.1712C10.995 45.1998 10.9204 45.2141 10.8451 45.2131Z" fill="#2C3543"/>
<path d="M10.8452 45.213C10.7713 45.2131 10.6981 45.1987 10.6299 45.1703C10.5617 45.142 10.4997 45.1004 10.4477 45.048L4.11471 38.7165C3.71515 38.3165 3.49072 37.7743 3.49072 37.209C3.49072 36.6436 3.71515 36.1014 4.11471 35.7015C4.5212 35.3151 5.06061 35.0996 5.62146 35.0996C6.1823 35.0996 6.72171 35.3151 7.1282 35.7015L13.4597 42.0345C13.5593 42.1409 13.6136 42.2818 13.6113 42.4276C13.6091 42.5733 13.5503 42.7125 13.4474 42.8157C13.3445 42.919 13.2056 42.9783 13.0599 42.9811C12.9142 42.984 12.773 42.9301 12.6662 42.831L6.33171 36.498C6.1413 36.3198 5.88909 36.2226 5.62837 36.227C5.36764 36.2313 5.11881 36.3368 4.93442 36.5212C4.75004 36.7056 4.64454 36.9544 4.6402 37.2151C4.63587 37.4759 4.73305 37.7281 4.91121 37.9185L11.2502 44.25C11.3549 44.3561 11.4136 44.4991 11.4136 44.6482C11.4136 44.7973 11.3549 44.9404 11.2502 45.0465C11.1974 45.1001 11.1343 45.1425 11.0647 45.1711C10.9951 45.1997 10.9204 45.214 10.8452 45.213Z" fill="#2C3543"/>
<path d="M14.862 56.1795C14.181 56.1808 13.5063 56.0475 12.8769 55.7873C12.2475 55.527 11.6758 55.1449 11.1945 54.663L2.14203 45.6105C1.93581 45.4147 1.77089 45.1795 1.65701 44.9189C1.54312 44.6583 1.48257 44.3776 1.47893 44.0932C1.4753 43.8088 1.52864 43.5266 1.63582 43.2632C1.743 42.9998 1.90185 42.7605 2.103 42.5595C2.30414 42.3584 2.54351 42.1997 2.80699 42.0926C3.07046 41.9856 3.3527 41.9324 3.63707 41.9362C3.92144 41.9399 4.20217 42.0006 4.4627 42.1146C4.72324 42.2287 4.9583 42.3937 5.15403 42.6L9.02553 46.47C9.13116 46.5756 9.19049 46.7189 9.19049 46.8683C9.19049 47.0176 9.13116 47.1609 9.02553 47.2665C8.91991 47.3721 8.77666 47.4315 8.62728 47.4315C8.47791 47.4315 8.33466 47.3721 8.22903 47.2665L4.35753 43.395C4.16692 43.2115 3.91262 43.109 3.64803 43.109C3.38344 43.109 3.12915 43.2115 2.93853 43.395C2.84484 43.4879 2.77046 43.5984 2.71971 43.7202C2.66895 43.842 2.64282 43.9726 2.64282 44.1045C2.64282 44.2364 2.66895 44.3671 2.71971 44.4888C2.77046 44.6106 2.84484 44.7211 2.93853 44.814L11.9895 53.8665C12.3667 54.2438 12.8146 54.543 13.3074 54.7472C13.8003 54.9514 14.3285 55.0565 14.862 55.0565C15.3955 55.0565 15.9238 54.9514 16.4166 54.7472C16.9095 54.543 17.3573 54.2438 17.7345 53.8665L20.0625 51.5385C21.8625 49.7385 22.932 45.6885 17.7675 36.612C17.5905 36.2892 17.2945 36.0481 16.9425 35.94C16.8543 35.8979 16.7552 35.884 16.6588 35.9004C16.5624 35.9168 16.4734 35.9626 16.404 36.0315C16.269 36.2061 16.2047 36.4252 16.224 36.645C16.2323 36.8418 16.2729 37.0359 16.344 37.2195L18.2505 42.4275C18.2868 42.5285 18.2937 42.6377 18.2707 42.7426C18.2476 42.8474 18.1954 42.9436 18.12 43.02C18.013 43.1281 17.8682 43.1903 17.7161 43.1933C17.5641 43.1964 17.4168 43.1402 17.3055 43.0365L9.99003 35.7225C9.89794 35.6241 9.78699 35.5452 9.66379 35.4905C9.54058 35.4359 9.40764 35.4065 9.27287 35.4043C9.1381 35.402 9.00426 35.4269 8.8793 35.4775C8.75435 35.528 8.64084 35.6032 8.54553 35.6985C8.45022 35.7938 8.37506 35.9073 8.32451 36.0323C8.27397 36.1572 8.24907 36.2911 8.25131 36.4258C8.25355 36.5606 8.28288 36.6936 8.33755 36.8168C8.39222 36.94 8.47111 37.0509 8.56953 37.143L13.4595 42.0345C13.5591 42.141 13.6135 42.2819 13.6112 42.4276C13.6089 42.5734 13.5501 42.7125 13.4472 42.8158C13.3444 42.919 13.2054 42.9783 13.0597 42.9812C12.914 42.984 12.7729 42.9302 12.666 42.831L7.77303 37.9395C7.37421 37.5392 7.15029 36.9971 7.15029 36.432C7.15029 35.8669 7.37421 35.3249 7.77303 34.9245C8.17978 34.538 8.71944 34.3225 9.28053 34.3225C9.84162 34.3225 10.3813 34.538 10.788 34.9245L16.338 40.4745L15.288 37.602C15.1736 37.2996 15.1103 36.9802 15.1005 36.657C15.0849 36.3975 15.1219 36.1375 15.2092 35.8926C15.2966 35.6477 15.4326 35.423 15.609 35.232C15.8207 35.0236 16.0859 34.8779 16.3752 34.8109C16.6646 34.7439 16.9668 34.7583 17.2485 34.8525C17.8872 35.0391 18.4263 35.4704 18.7485 36.0525C23.175 43.83 23.8875 49.3065 20.862 52.3335L18.534 54.66C18.0524 55.1429 17.48 55.5257 16.8498 55.7865C16.2196 56.0473 15.5441 56.1809 14.862 56.1795Z" fill="#2C3543"/>
<path d="M8.14803 48.7576C8.04553 48.7571 7.94503 48.7292 7.85702 48.6766C7.72961 48.5992 7.63804 48.4745 7.60234 48.3297C7.56665 48.1849 7.58972 48.0319 7.66653 47.9041C9.30505 45.1766 11.5904 42.8948 14.3205 41.2606C14.3858 41.2221 14.4581 41.1972 14.5332 41.1874C14.6083 41.1775 14.6846 41.183 14.7575 41.2033C14.8305 41.2237 14.8986 41.2586 14.9577 41.3059C15.0168 41.3532 15.0658 41.412 15.1017 41.4787C15.1376 41.5454 15.1596 41.6186 15.1665 41.694C15.1734 41.7695 15.1649 41.8455 15.1417 41.9176C15.1185 41.9897 15.081 42.0563 15.0314 42.1136C14.9817 42.1708 14.9211 42.2174 14.853 42.2506C12.3092 43.8003 10.1752 45.9389 8.63103 48.4861C8.58036 48.5688 8.50938 48.6372 8.42484 48.6847C8.3403 48.7322 8.24501 48.7573 8.14803 48.7576Z" fill="#2C3543"/>
</svg>
