<svg width="60" height="60" viewBox="0 0 60 60" fill="none" xmlns="http://www.w3.org/2000/svg">
<path d="M46.5511 56.9488C52.949 56.9488 58.1355 51.7622 58.1355 45.3643C58.1355 38.9663 52.949 33.7798 46.5511 33.7798C40.1531 33.7798 34.9666 38.9663 34.9666 45.3643C34.9666 51.7622 40.1531 56.9488 46.5511 56.9488Z" fill="#00D0B2"/>
<path d="M29.9999 58.7994C17.9999 58.7994 11.9399 49.3959 11.9399 47.4864C11.9399 45.5769 17.9999 36.1689 29.9999 36.1689C41.9999 36.1689 48.0599 45.5724 48.0599 47.4834C48.0599 49.3944 41.9999 58.7994 29.9999 58.7994ZM29.9999 37.2969C18.4934 37.2969 13.0649 46.2969 13.0649 47.4864C13.0649 48.6759 18.4934 57.6714 29.9999 57.6714C41.5064 57.6714 46.9349 48.6639 46.9349 47.4834C46.9349 46.3029 41.5079 37.2939 29.9999 37.2939V37.2969Z" fill="#2C3543"/>
<path d="M30 55.0316C28.5067 55.0319 27.0469 54.5894 25.8051 53.7599C24.5634 52.9305 23.5955 51.7514 23.0239 50.3719C22.4523 48.9923 22.3027 47.4743 22.594 46.0097C22.8852 44.5451 23.6043 43.1997 24.6602 42.1438C25.7161 41.0879 27.0614 40.3689 28.526 40.0776C29.9906 39.7864 31.5087 39.936 32.8882 40.5076C34.2678 41.0792 35.4468 42.047 36.2763 43.2888C37.1057 44.5305 37.5483 45.9903 37.548 47.4836C37.5452 49.4846 36.7491 51.4029 35.3342 52.8178C33.9192 54.2327 32.001 55.0288 30 55.0316ZM30 41.0591C28.7293 41.0588 27.487 41.4354 26.4303 42.1411C25.3736 42.8469 24.5499 43.8501 24.0634 45.024C23.577 46.1979 23.4495 47.4897 23.6972 48.7361C23.945 49.9824 24.5567 51.1273 25.4551 52.0259C26.3536 52.9245 27.4983 53.5366 28.7446 53.7846C29.9908 54.0326 31.2827 53.9054 32.4567 53.4192C33.6307 52.933 34.6341 52.1096 35.3401 51.053C36.0461 49.9965 36.423 48.7543 36.423 47.4836C36.4214 45.7805 35.7442 44.1475 34.5401 42.9431C33.3359 41.7387 31.7031 41.0611 30 41.0591Z" fill="#2C3543"/>
<path d="M29.9144 27.2456C30.3482 27.2456 30.7722 27.3742 31.1328 27.6152C31.4934 27.8562 31.7745 28.1987 31.9405 28.5994C32.1065 29.0001 32.1499 29.441 32.0653 29.8664C31.9807 30.2918 31.7718 30.6826 31.4651 30.9893C31.1584 31.296 30.7677 31.5048 30.3423 31.5895C29.9169 31.6741 29.4759 31.6307 29.0752 31.4647C28.6745 31.2987 28.332 31.0176 28.091 30.657C27.8501 30.2963 27.7214 29.8723 27.7214 29.4386C27.7222 28.8572 27.9535 28.2999 28.3646 27.8888C28.7757 27.4777 29.3331 27.2464 29.9144 27.2456ZM29.9144 26.1206C29.2582 26.1206 28.6167 26.3152 28.0711 26.6798C27.5254 27.0444 27.1001 27.5626 26.849 28.1689C26.5979 28.7751 26.5322 29.4423 26.6602 30.0859C26.7882 30.7295 27.1042 31.3208 27.5683 31.7848C28.0323 32.2488 28.6235 32.5648 29.2671 32.6928C29.9108 32.8209 30.5779 32.7552 31.1842 32.504C31.7905 32.2529 32.3087 31.8276 32.6733 31.282C33.0378 30.7363 33.2324 30.0948 33.2324 29.4386C33.2324 28.5586 32.8829 27.7147 32.2606 27.0924C31.6384 26.4702 30.7944 26.1206 29.9144 26.1206Z" fill="#2C3643"/>
<path d="M29.9144 2.8916C30.3482 2.8916 30.7723 3.02026 31.133 3.26129C31.4936 3.50233 31.7747 3.84492 31.9406 4.24572C32.1066 4.64653 32.1499 5.08754 32.0652 5.51299C31.9804 5.93843 31.7714 6.32918 31.4646 6.63582C31.1577 6.94245 30.7668 7.1512 30.3413 7.23565C29.9158 7.32009 29.4749 7.27645 29.0742 7.11024C28.6735 6.94402 28.3311 6.66271 28.0903 6.30188C27.8495 5.94104 27.7211 5.5169 27.7214 5.0831C27.7222 4.50186 27.9536 3.94468 28.3647 3.53382C28.7759 3.12297 29.3332 2.892 29.9144 2.8916ZM29.9144 1.7666C29.2581 1.7666 28.6166 1.96124 28.0709 2.32589C27.5252 2.69054 27.0999 3.20883 26.8489 3.8152C26.5978 4.42158 26.5322 5.08879 26.6603 5.73246C26.7884 6.37613 27.1046 6.96734 27.5688 7.43131C28.033 7.89528 28.6243 8.21117 29.268 8.33903C29.9118 8.46689 30.579 8.40096 31.1852 8.1496C31.7915 7.89824 32.3096 7.47273 32.674 6.92689C33.0384 6.38105 33.2327 5.7394 33.2324 5.0831C33.232 4.20337 32.8823 3.35981 32.2601 2.73789C31.6379 2.11597 30.7942 1.7666 29.9144 1.7666Z" fill="#2C3643"/>
<path d="M16.8148 2.8916C17.2487 2.89131 17.6729 3.01971 18.0338 3.26056C18.3946 3.50142 18.6759 3.8439 18.8421 4.24468C19.0083 4.64546 19.0518 5.08653 18.9673 5.51207C18.8827 5.93761 18.6738 6.3285 18.367 6.63529C18.0602 6.94207 17.6693 7.15097 17.2438 7.23554C16.8183 7.32011 16.3772 7.27655 15.9764 7.11038C15.5756 6.94421 15.2331 6.6629 14.9923 6.30203C14.7514 5.94116 14.623 5.51696 14.6233 5.0831C14.6241 4.50212 14.8553 3.94517 15.2661 3.53435C15.6769 3.12354 16.2338 2.8924 16.8148 2.8916ZM16.8148 1.7666C16.1585 1.7666 15.517 1.96124 14.9713 2.32589C14.4256 2.69054 14.0003 3.20883 13.7493 3.8152C13.4982 4.42158 13.4325 5.08879 13.5607 5.73246C13.6888 6.37613 14.005 6.96734 14.4692 7.43131C14.9334 7.89528 15.5247 8.21117 16.1684 8.33903C16.8122 8.46689 17.4794 8.40096 18.0856 8.1496C18.6919 7.89824 19.21 7.47273 19.5744 6.92689C19.9388 6.38105 20.1331 5.7394 20.1328 5.0831C20.1328 4.64745 20.047 4.21606 19.8802 3.81359C19.7135 3.41111 19.469 3.04544 19.1609 2.73745C18.8528 2.42947 18.487 2.18521 18.0845 2.01862C17.6819 1.85204 17.2505 1.7664 16.8148 1.7666Z" fill="#2C3643"/>
<path d="M43.185 2.8916C43.6188 2.8916 44.0429 3.02026 44.4035 3.26129C44.7642 3.50233 45.0453 3.84492 45.2112 4.24573C45.3772 4.64653 45.4205 5.08755 45.3358 5.51299C45.251 5.93843 45.042 6.32918 44.7352 6.63582C44.4283 6.94246 44.0374 7.1512 43.6119 7.23565C43.1864 7.3201 42.7454 7.27645 42.3448 7.11024C41.9441 6.94403 41.6017 6.66271 41.3609 6.30188C41.1201 5.94104 40.9917 5.5169 40.992 5.0831C40.9928 4.50187 41.2242 3.94468 41.6353 3.53383C42.0464 3.12297 42.6038 2.892 43.185 2.8916ZM43.185 1.7666C42.5286 1.76601 41.8867 1.96014 41.3407 2.32443C40.7946 2.68872 40.3688 3.20681 40.1173 3.81313C39.8658 4.41945 39.7997 5.08676 39.9275 5.73062C40.0553 6.37449 40.3712 6.96598 40.8353 7.43025C41.2994 7.89452 41.8907 8.21071 42.5345 8.33881C43.1783 8.46691 43.8457 8.40116 44.4521 8.14989C45.0585 7.89862 45.5768 7.47311 45.9414 6.92721C46.3059 6.3813 46.5003 5.73953 46.5 5.0831C46.4996 4.20389 46.1503 3.36079 45.5287 2.73895C44.9072 2.11712 44.0642 1.7674 43.185 1.7666Z" fill="#2C3643"/>
<path d="M36.5505 15.0686C36.9842 15.0686 37.4082 15.1972 37.7688 15.4382C38.1295 15.6792 38.4105 16.0217 38.5765 16.4224C38.7425 16.8231 38.7859 17.264 38.7013 17.6894C38.6167 18.1148 38.4078 18.5056 38.1011 18.8123C37.7944 19.119 37.4037 19.3278 36.9783 19.4125C36.5529 19.4971 36.112 19.4537 35.7112 19.2877C35.3105 19.1217 34.968 18.8406 34.727 18.48C34.4861 18.1193 34.3575 17.6953 34.3575 17.2616C34.3579 16.6801 34.589 16.1225 35.0002 15.7114C35.4114 15.3002 35.969 15.069 36.5505 15.0686ZM36.5505 13.9436C35.8942 13.9433 35.2525 14.1377 34.7067 14.5021C34.1608 14.8665 33.7353 15.3846 33.484 15.9908C33.2326 16.5971 33.1667 17.2643 33.2945 17.908C33.4224 18.5517 33.7383 19.1431 34.2022 19.6073C34.6662 20.0714 35.2574 20.3876 35.9011 20.5157C36.5448 20.6439 37.212 20.5783 37.8184 20.3272C38.4247 20.0761 38.943 19.6508 39.3077 19.1051C39.6723 18.5595 39.867 17.9179 39.867 17.2616C39.8654 16.3829 39.5153 15.5407 38.8935 14.9198C38.2718 14.2989 37.4291 13.95 36.5505 13.9496V13.9436Z" fill="#2C3643"/>
<path d="M23.4509 15.0686C23.8846 15.0686 24.3086 15.1972 24.6692 15.4382C25.0299 15.6792 25.3109 16.0217 25.4769 16.4224C25.6429 16.8231 25.6863 17.264 25.6017 17.6894C25.5171 18.1148 25.3082 18.5056 25.0015 18.8123C24.6948 19.119 24.3041 19.3278 23.8787 19.4125C23.4533 19.4971 23.0123 19.4537 22.6116 19.2877C22.2109 19.1217 21.8684 18.8406 21.6274 18.48C21.3865 18.1193 21.2578 17.6953 21.2578 17.2616C21.2582 16.6801 21.4894 16.1225 21.9006 15.7114C22.3118 15.3002 22.8694 15.069 23.4509 15.0686ZM23.4509 13.9436C22.7945 13.9433 22.1529 14.1377 21.6071 14.5021C21.0612 14.8665 20.6357 15.3846 20.3843 15.9908C20.133 16.5971 20.0671 17.2643 20.1949 17.908C20.3228 18.5517 20.6387 19.1431 21.1026 19.6073C21.5666 20.0714 22.1578 20.3876 22.8015 20.5157C23.4452 20.6439 24.1124 20.5783 24.7187 20.3272C25.3251 20.0761 25.8434 19.6508 26.2081 19.1051C26.5727 18.5595 26.7674 17.9179 26.7674 17.2616C26.7658 16.3829 26.4157 15.5407 25.7939 14.9198C25.1722 14.2989 24.3295 13.95 23.4509 13.9496V13.9436Z" fill="#2C3643"/>
</svg>
