<svg width="60" height="60" viewBox="0 0 60 60" fill="none" xmlns="http://www.w3.org/2000/svg">
<path d="M46.5511 56.9488C52.949 56.9488 58.1355 51.7622 58.1355 45.3643C58.1355 38.9663 52.949 33.7798 46.5511 33.7798C40.1531 33.7798 34.9666 38.9663 34.9666 45.3643C34.9666 51.7622 40.1531 56.9488 46.5511 56.9488Z" fill="#4C4FEE"/>
<path d="M30 54.0256C29.8508 54.0256 29.7077 53.9664 29.6023 53.8609C29.4968 53.7554 29.4375 53.6123 29.4375 53.4631V48.6091C29.4375 48.4599 29.4968 48.3169 29.6023 48.2114C29.7077 48.1059 29.8508 48.0466 30 48.0466C30.1492 48.0466 30.2923 48.1059 30.3977 48.2114C30.5032 48.3169 30.5625 48.4599 30.5625 48.6091V53.4631C30.5627 53.537 30.5483 53.6103 30.5201 53.6786C30.4919 53.747 30.4505 53.809 30.3982 53.8613C30.3459 53.9136 30.2838 53.955 30.2155 53.9832C30.1472 54.0114 30.0739 54.0258 30 54.0256Z" fill="#2C3543"/>
<path d="M29.9999 54.0256C29.96 54.0255 29.9203 54.021 29.8814 54.0121L4.31238 48.5101C4.18696 48.483 4.07462 48.4138 3.9941 48.3139C3.91357 48.214 3.86973 48.0895 3.86988 47.9611V12.6751C3.86945 12.5911 3.88796 12.5081 3.92403 12.4322C3.96009 12.3563 4.0128 12.2895 4.07822 12.2367C4.14364 12.184 4.22011 12.1466 4.30194 12.1275C4.38376 12.1084 4.46885 12.1079 4.55088 12.1261L29.9999 17.6026L55.4489 12.1261C55.5309 12.1085 55.6159 12.1093 55.6976 12.1285C55.7793 12.1477 55.8557 12.1848 55.9214 12.2371C55.9867 12.2899 56.0393 12.3566 56.0754 12.4324C56.1115 12.5083 56.1301 12.5912 56.1299 12.6751V47.9611C56.1297 48.0905 56.0848 48.2158 56.0028 48.3159C55.9207 48.4159 55.8067 48.4846 55.6799 48.5101L30.1199 54.0121C30.0805 54.0211 30.0403 54.0256 29.9999 54.0256ZM4.99488 47.5066L29.9999 52.8871L55.0049 47.5066V13.3711L30.1199 18.7276C30.0412 18.7442 29.96 18.7442 29.8814 18.7276L4.99488 13.3711V47.5066Z" fill="#2C3543"/>
<path d="M30 23.4285C29.8508 23.4285 29.7077 23.3692 29.6023 23.2638C29.4968 23.1583 29.4375 23.0152 29.4375 22.866V18.177C29.4375 18.0278 29.4968 17.8847 29.6023 17.7793C29.7077 17.6738 29.8508 17.6145 30 17.6145C30.1492 17.6145 30.2923 17.6738 30.3977 17.7793C30.5032 17.8847 30.5625 18.0278 30.5625 18.177V22.866C30.5627 22.9399 30.5483 23.0132 30.5201 23.0815C30.4919 23.1498 30.4505 23.2119 30.3982 23.2642C30.3459 23.3165 30.2838 23.3579 30.2155 23.3861C30.1472 23.4143 30.0739 23.4287 30 23.4285Z" fill="#2C3543"/>
<path d="M30 18.7396C29.9601 18.74 29.9204 18.736 29.8815 18.7276L4.31247 13.2256C4.18804 13.1985 4.07649 13.13 3.99605 13.0313C3.91562 12.9326 3.87106 12.8095 3.86966 12.6821C3.86827 12.5548 3.91012 12.4308 3.98838 12.3303C4.06664 12.2298 4.17666 12.1589 4.30047 12.1291L29.8695 5.99109C29.9559 5.97172 30.0455 5.97172 30.132 5.99109L55.6995 12.1291C55.8233 12.1589 55.9333 12.2298 56.0116 12.3303C56.0898 12.4308 56.1317 12.5548 56.1303 12.6821C56.1289 12.8095 56.0843 12.9326 56.0039 13.0313C55.9235 13.13 55.8119 13.1985 55.6875 13.2256L30.12 18.7276C30.0805 18.736 30.0403 18.7401 30 18.7396ZM6.96597 12.6466L30 17.6026L53.034 12.6526L30 7.11609L6.96597 12.6466Z" fill="#2C3543"/>
<path d="M30.528 46.707H29.028C28.2075 46.707 27.561 45.531 27.138 44.4375C26.6067 44.2736 26.0919 44.0601 25.6005 43.8C24.5265 44.2755 23.2395 44.649 22.6575 44.07L21.6075 43.011C21.0285 42.432 21.402 41.1435 21.8745 40.071C21.6219 39.5907 21.413 39.0887 21.2505 38.571L20.625 38.421H20.601C20.1529 38.3906 19.7336 38.1892 19.4298 37.8584C19.126 37.5275 18.9611 37.0926 18.969 36.6435V35.1435C18.969 34.3245 20.145 33.6765 21.2385 33.2535C21.402 32.7222 21.615 32.2075 21.8745 31.716C21.402 30.6435 21.0285 29.3535 21.6075 28.773L22.6575 27.723C23.2395 27.1455 24.525 27.5175 25.599 27.9915C26.0913 27.732 26.6065 27.5186 27.138 27.354C27.561 26.262 28.2075 25.0845 29.028 25.0845H30.528C31.3485 25.0845 31.995 26.2605 32.418 27.354C32.9501 27.5171 33.4655 27.7305 33.957 27.9915C35.031 27.519 36.3165 27.147 36.8985 27.723L37.9485 28.773C38.5275 29.3535 38.154 30.642 37.6815 31.7145C37.941 32.2067 38.1544 32.7219 38.319 33.2535C39.411 33.6765 40.587 34.3245 40.587 35.1435V36.6435C40.587 37.464 39.411 38.112 38.3175 38.535C38.154 39.0662 37.9411 39.581 37.6815 40.0725C38.154 41.145 38.5275 42.4335 37.9485 43.014L36.8985 44.064C36.3165 44.646 35.028 44.271 33.957 43.7955C33.4652 44.0559 32.9499 44.2693 32.418 44.433C31.995 45.531 31.35 46.707 30.528 46.707ZM25.629 42.6105C25.7273 42.6101 25.824 42.6354 25.9095 42.684C26.4792 43.0089 27.0875 43.2609 27.72 43.434C27.8073 43.4575 27.8876 43.5018 27.954 43.5632C28.0204 43.6246 28.0708 43.7012 28.101 43.7865C28.2981 44.4565 28.6391 45.0753 29.1 45.6L30.522 45.5865C30.9299 45.0419 31.2451 44.4337 31.455 43.7865C31.4852 43.7012 31.5357 43.6246 31.602 43.5632C31.6684 43.5018 31.7487 43.4575 31.836 43.434C32.4692 43.2612 33.078 43.0092 33.648 42.684C33.7266 42.6393 33.8147 42.614 33.905 42.6104C33.9953 42.6067 34.0851 42.6248 34.167 42.663C34.7821 42.9919 35.4601 43.1862 36.156 43.233L37.152 42.2175C37.0565 41.5449 36.8507 40.8926 36.543 40.287C36.5049 40.2051 36.4869 40.1152 36.4906 40.0249C36.4943 39.9347 36.5194 39.8466 36.564 39.768C36.8892 39.1985 37.1412 38.5901 37.314 37.9575C37.3379 37.8706 37.3823 37.7907 37.4433 37.7244C37.5044 37.6581 37.5804 37.6074 37.665 37.5765C38.3251 37.3728 38.9373 37.0381 39.465 36.5925V35.148C38.9206 34.7397 38.3124 34.4245 37.665 34.215C37.5804 34.1844 37.5044 34.134 37.4434 34.0679C37.3823 34.0019 37.3379 33.9222 37.314 33.8355C37.142 33.2021 36.8899 32.5932 36.564 32.0235C36.5195 31.9439 36.4949 31.8547 36.4923 31.7636C36.4897 31.6724 36.5091 31.582 36.549 31.5C36.8799 30.8853 37.0739 30.2062 37.1175 29.5095L36.102 28.5135C35.4292 28.6068 34.777 28.8132 34.173 29.124C34.091 29.1618 34.0012 29.1797 33.911 29.176C33.8208 29.1724 33.7327 29.1473 33.654 29.103C33.0842 28.7773 32.4753 28.5253 31.842 28.353C31.7548 28.3293 31.6746 28.2848 31.6083 28.2234C31.542 28.1621 31.4914 28.0856 31.461 28.0005C31.2615 27.3316 30.9186 26.7142 30.456 26.1915L29.034 26.205C28.6262 26.7496 28.3109 27.3577 28.101 28.005C28.0705 28.0898 28.0202 28.166 27.9541 28.2274C27.8881 28.2887 27.8083 28.3333 27.7215 28.3575C27.0878 28.5298 26.4784 28.7818 25.908 29.1075C25.8294 29.1521 25.7413 29.1772 25.6511 29.1809C25.5608 29.1846 25.471 29.1666 25.389 29.1285C24.7752 28.7966 24.0965 28.6021 23.4 28.5585L22.404 29.574C22.4995 30.2452 22.7053 30.8959 23.013 31.5C23.0511 31.5819 23.0691 31.6717 23.0655 31.762C23.0618 31.8523 23.0366 31.9404 22.992 32.019C22.6665 32.5884 22.4145 33.1967 22.242 33.8295C22.2183 33.9165 22.1741 33.9965 22.113 34.0628C22.0519 34.1291 21.9758 34.1797 21.891 34.2105C21.2222 34.4113 20.6047 34.7541 20.0805 35.2155L20.094 36.6375C20.0944 36.8144 20.1649 36.9839 20.29 37.109C20.4151 37.2341 20.5846 37.3046 20.7615 37.305L21.8355 37.554C21.9324 37.5788 22.021 37.6288 22.0924 37.6989C22.1637 37.7689 22.2154 37.8566 22.242 37.953C22.4148 38.5856 22.6668 39.194 22.992 39.7635C23.0366 39.8421 23.0618 39.9302 23.0655 40.0204C23.0691 40.1107 23.0511 40.2006 23.013 40.2825C22.6822 40.8967 22.4883 41.5752 22.4445 42.2715L23.46 43.2705C24.1312 43.167 24.7823 42.9606 25.3905 42.6585C25.4655 42.6251 25.547 42.6087 25.629 42.6105Z" fill="#2C3543"/>
<path d="M29.7809 40.5764C28.855 40.5764 27.9498 40.3018 27.18 39.7874C26.4101 39.273 25.8101 38.5418 25.4557 37.6864C25.1014 36.831 25.0087 35.8897 25.1893 34.9816C25.37 34.0734 25.8158 33.2393 26.4705 32.5846C27.1253 31.9298 27.9594 31.484 28.8676 31.3033C29.7757 31.1227 30.717 31.2154 31.5724 31.5697C32.4278 31.9241 33.159 32.5241 33.6734 33.294C34.1878 34.0638 34.4624 34.969 34.4624 35.8949C34.4612 37.1361 33.9676 38.3262 33.0899 39.2039C32.2122 40.0816 31.0221 40.5752 29.7809 40.5764ZM29.7809 32.3399C29.0774 32.3399 28.3897 32.5485 27.8048 32.9394C27.2199 33.3302 26.7641 33.8858 26.4949 34.5357C26.2258 35.1857 26.1555 35.9008 26.2928 36.5908C26.4302 37.2807 26.769 37.9144 27.2666 38.4117C27.7641 38.9091 28.398 39.2477 29.0879 39.3847C29.7779 39.5218 30.4931 39.4511 31.1429 39.1817C31.7928 38.9123 32.3481 38.4562 32.7387 37.8712C33.1293 37.2861 33.3377 36.5984 33.3374 35.8949C33.3366 34.952 32.9616 34.048 32.2947 33.3815C31.6279 32.7149 30.7237 32.3403 29.7809 32.3399Z" fill="#2C3543"/>
</svg>
