<svg width="60" height="60" viewBox="0 0 60 60" fill="none" xmlns="http://www.w3.org/2000/svg">
<path d="M46.5511 56.9488C52.949 56.9488 58.1355 51.7622 58.1355 45.3643C58.1355 38.9663 52.949 33.7798 46.5511 33.7798C40.1531 33.7798 34.9666 38.9663 34.9666 45.3643C34.9666 51.7622 40.1531 56.9488 46.5511 56.9488Z" fill="#FF007B"/>
<path d="M30 59.4361C23.3295 59.4361 5.42554 40.8841 5.42554 31.9321V10.3126C5.42871 9.47742 5.70243 8.66571 6.20568 7.99912C6.70893 7.33254 7.41463 6.84696 8.21704 6.61514L28.95 0.711139C29.6362 0.514256 30.3639 0.514256 31.05 0.711139L51.7815 6.61514C52.5842 6.84669 53.2902 7.33215 53.7938 7.99876C54.2973 8.66537 54.5713 9.47723 54.5745 10.3126V31.9321C54.5745 40.8841 36.6705 59.4361 30 59.4361ZM30 1.68614C29.7464 1.68632 29.494 1.72166 29.25 1.79114L8.52454 7.69664C7.95707 7.86093 7.45808 8.20459 7.10223 8.67616C6.74639 9.14774 6.55283 9.72187 6.55054 10.3126V31.9321C6.55054 35.6521 10.2015 41.9116 16.0785 48.2671C21.5445 54.1801 27.27 58.3171 30 58.3171C32.73 58.3171 38.4555 54.1861 43.9215 48.2671C49.7985 41.9116 53.4495 35.6521 53.4495 31.9321V10.3126C53.4474 9.72162 53.2537 9.14722 52.8975 8.67557C52.5414 8.20393 52.0419 7.86045 51.474 7.69664L30.75 1.80014C30.5065 1.72791 30.2541 1.69004 30 1.68764V1.68614Z" fill="#2C3543"/>
<path d="M29.4631 38.1362C29.099 38.1359 28.7392 38.058 28.4076 37.9077C28.076 37.7574 27.7803 37.5382 27.5401 37.2647L21.3001 30.1502C20.8533 29.64 20.6273 28.9733 20.6718 28.2966C20.7162 27.6199 21.0274 26.9886 21.5371 26.5412C22.0493 26.0976 22.7146 25.8715 23.3911 25.9112C23.7264 25.9318 24.0543 26.0189 24.3556 26.1675C24.6569 26.3161 24.9256 26.5232 25.1461 26.7767L29.1241 31.3097L37.1206 18.5792C37.4814 18.0047 38.0556 17.5971 38.717 17.4461C39.3783 17.295 40.0726 17.4129 40.6471 17.7737C41.2215 18.1345 41.6291 18.7088 41.7802 19.3701C41.9312 20.0315 41.8134 20.7257 41.4526 21.3002L31.6306 36.9377C31.4177 37.2744 31.1296 37.5572 30.7889 37.7636C30.4481 37.97 30.0641 38.0945 29.6671 38.1272C29.5981 38.1332 29.5306 38.1362 29.4631 38.1362ZM23.2216 27.0362C22.8581 27.0369 22.5085 27.1756 22.2434 27.4243C21.9783 27.673 21.8175 28.013 21.7936 28.3757C21.7812 28.5636 21.8059 28.7521 21.8664 28.9305C21.9269 29.1088 22.0219 29.2735 22.1461 29.4152L28.3876 36.5297C28.522 36.6826 28.6874 36.8052 28.8728 36.8893C29.0583 36.9733 29.2595 37.0169 29.4631 37.0172H29.5786C29.8008 36.9993 30.0159 36.93 30.2067 36.8146C30.3975 36.6993 30.5589 36.5412 30.6781 36.3527L40.5001 20.7002C40.6935 20.3785 40.7531 19.9939 40.6661 19.6288C40.5791 19.2638 40.3524 18.9473 40.0348 18.7475C39.7171 18.5476 39.3338 18.4803 38.967 18.5598C38.6003 18.6394 38.2793 18.8596 38.0731 19.1732L29.6731 32.5457C29.6267 32.6198 29.5636 32.682 29.4888 32.7273C29.4141 32.7727 29.3297 32.7998 29.2426 32.8067C29.1548 32.8148 29.0663 32.8018 28.9846 32.7687C28.9029 32.7355 28.8304 32.6832 28.7731 32.6162L24.2986 27.5162C24.1751 27.3743 24.0246 27.2585 23.856 27.1753C23.6873 27.0921 23.5038 27.0433 23.3161 27.0317L23.2216 27.0362Z" fill="#2C3543"/>
</svg>
