<svg width="60" height="60" viewBox="0 0 60 60" fill="none" xmlns="http://www.w3.org/2000/svg">
<path d="M46.5511 56.9488C52.949 56.9488 58.1355 51.7622 58.1355 45.3643C58.1355 38.9663 52.949 33.7798 46.5511 33.7798C40.1531 33.7798 34.9666 38.9663 34.9666 45.3643C34.9666 51.7622 40.1531 56.9488 46.5511 56.9488Z" fill="#FFB400"/>
<path d="M30 57.3614C16.8645 57.3614 6.57446 53.7014 6.57446 49.0319V10.9694C6.57446 6.29993 16.8645 2.63843 30 2.63843C43.1355 2.63843 53.4255 6.29993 53.4255 10.9694V49.0319C53.4255 53.6999 43.1355 57.3614 30 57.3614ZM30 3.76343C16.6605 3.76343 7.69946 7.48793 7.69946 10.9634V49.0319C7.69946 52.5104 16.6605 56.2319 30 56.2319C43.3395 56.2319 52.3005 52.5059 52.3005 49.0319V10.9694C52.3005 7.48793 43.3395 3.76343 30 3.76343Z" fill="#2C3543"/>
<path d="M30 19.2987C16.8645 19.2987 6.57446 15.6387 6.57446 10.9692C6.57446 10.8201 6.63373 10.677 6.73922 10.5715C6.8447 10.466 6.98778 10.4067 7.13696 10.4067C7.28615 10.4067 7.42922 10.466 7.53471 10.5715C7.6402 10.677 7.69946 10.8201 7.69946 10.9692C7.69946 14.4477 16.6605 18.1692 30 18.1692C43.3395 18.1692 52.3005 14.4432 52.3005 10.9692C52.3005 10.8201 52.3597 10.677 52.4652 10.5715C52.5707 10.466 52.7138 10.4067 52.863 10.4067C53.0121 10.4067 53.1552 10.466 53.2607 10.5715C53.3662 10.677 53.4255 10.8201 53.4255 10.9692C53.4255 15.6387 43.1355 19.2987 30 19.2987Z" fill="#2C3543"/>
<path d="M30 31.9857C16.8645 31.9857 6.57446 28.3257 6.57446 23.6562C6.57446 23.5071 6.63373 23.364 6.73922 23.2585C6.8447 23.153 6.98778 23.0938 7.13696 23.0938C7.28615 23.0938 7.42922 23.153 7.53471 23.2585C7.6402 23.364 7.69946 23.5071 7.69946 23.6562C7.69946 27.1347 16.6605 30.8562 30 30.8562C43.3395 30.8562 52.3005 27.1302 52.3005 23.6562C52.3005 23.5071 52.3597 23.364 52.4652 23.2585C52.5707 23.153 52.7138 23.0938 52.863 23.0938C53.0121 23.0938 53.1552 23.153 53.2607 23.2585C53.3662 23.364 53.4255 23.5071 53.4255 23.6562C53.4255 28.3257 43.1355 31.9857 30 31.9857Z" fill="#2C3543"/>
<path d="M30 44.6745C16.8645 44.6745 6.57446 41.0145 6.57446 36.3435C6.57446 36.1943 6.63373 36.0512 6.73922 35.9458C6.8447 35.8403 6.98778 35.781 7.13696 35.781C7.28615 35.781 7.42922 35.8403 7.53471 35.9458C7.6402 36.0512 7.69946 36.1943 7.69946 36.3435C7.69946 39.8235 16.6605 43.5435 30 43.5435C43.3395 43.5435 52.3005 39.8175 52.3005 36.3435C52.3005 36.1943 52.3597 36.0512 52.4652 35.9458C52.5707 35.8403 52.7138 35.781 52.863 35.781C53.0121 35.781 53.1552 35.8403 53.2607 35.9458C53.3662 36.0512 53.4255 36.1943 53.4255 36.3435C53.4255 41.0145 43.1355 44.6745 30 44.6745Z" fill="#2C3543"/>
</svg>
