<svg width="112" height="112" viewBox="0 0 112 112" fill="none" xmlns="http://www.w3.org/2000/svg">
<circle cx="56" cy="56" r="56" fill="#00D0B2"/>
<path d="M95.0112 35.0001H78.0004C75.8051 34.9967 74.0191 37.0552 74 39.6126V71.3943C74.0029 72.6226 74.4253 73.7979 75.1732 74.6623C75.9225 75.525 76.9344 76.0067 77.9888 75.9999H94.9996C97.1949 76.0033 98.9809 73.9448 99 71.3874V39.6057C98.9971 38.3774 98.5747 37.2021 97.8268 36.3377C97.0775 35.475 96.0656 34.9932 95.0112 35.0001V35.0001ZM97.774 71.4008C97.7726 72.2499 97.4793 73.063 96.9601 73.6575C96.441 74.2538 95.74 74.5818 95.0112 74.5715H78.0004C76.4885 74.5749 75.2567 73.1604 75.2376 71.4008V39.6056C75.2391 38.76 75.5309 37.9485 76.0471 37.354C76.5633 36.7578 77.2628 36.4281 77.9887 36.435H94.9995C96.5114 36.4315 97.7432 37.846 97.7623 39.6056L97.774 71.4008Z" fill="white"/>
<path d="M91.876 38H81.5685C81.2464 38.0312 81 38.3028 81 38.6264C81 38.95 81.2464 39.2216 81.5685 39.2528H91.876C92.1981 39.2216 92.4445 38.95 92.4445 38.6264C92.4445 38.3028 92.1981 38.0312 91.876 38Z" fill="white"/>
<path d="M85.5266 60.1302L85.6784 60.3073L85.8302 60.1301L92.1519 52.754L92.2634 52.6239L92.1519 52.4937L91.6172 51.8698L91.4653 51.6927L91.3135 51.8698L85.6784 58.4448L82.6865 54.9539L82.5342 54.7761L82.3824 54.9545L81.8477 55.5828L81.7369 55.7129L81.8482 55.8426L85.5266 60.1302Z" fill="white" stroke="white" stroke-width="0.4"/>
<path d="M40.8877 33.6079C40.9173 33.5636 42.1519 31.7727 44.3896 29.8056C46.6291 27.8369 49.879 25.6869 53.9362 24.9408L53.9362 24.9408C58.9725 24.0156 64.1597 25.4022 69.3518 29.0461L69.3519 29.0463C69.3793 29.0656 69.4042 29.0873 69.4262 29.1114L69.4317 29.1107L69.466 29.1622C69.5629 29.3078 69.5671 29.5054 69.4607 29.6572C69.3215 29.8569 69.0466 29.9061 68.8475 29.7657C63.8438 26.2544 58.8842 24.9287 54.1023 25.8055C50.2338 26.5155 47.1239 28.5707 44.9732 30.461C43.8982 31.4057 43.0641 32.3082 42.4961 32.9785C42.2121 33.3136 41.9947 33.5906 41.847 33.7857C41.7732 33.8833 41.7168 33.9604 41.6782 34.014C41.659 34.0408 41.6441 34.0617 41.6339 34.0764L41.6218 34.0936L41.6184 34.0986L41.6174 34.1001L41.6171 34.1005L41.617 34.1007L41.6169 34.1008C41.4809 34.3028 41.2062 34.3557 41.0053 34.2185L41.0617 34.1359L41.0053 34.2185C40.8052 34.0818 40.7518 33.8098 40.8877 33.6079ZM40.8877 33.6079C40.8876 33.6079 40.8876 33.6079 40.8876 33.608L40.9707 33.6636L40.8878 33.6077C40.8877 33.6078 40.8877 33.6078 40.8877 33.6079Z" fill="white" stroke="#FFFDFD" stroke-width="0.2"/>
<path d="M68.1672 24.4398C68.1571 24.4176 68.1459 24.3983 68.1339 24.3823L68.1285 24.3756C68.0638 24.2961 67.9531 24.2645 67.8544 24.304C67.7308 24.3535 67.6709 24.4937 67.7193 24.6153L67.7194 24.6153L69.5558 29.2336L69.6102 29.3706L69.4628 29.3705L63.9549 29.368C63.9549 29.368 63.9548 29.368 63.9548 29.368C63.8214 29.3685 63.7144 29.4757 63.7148 29.6076L63.7148 29.6076L63.7148 29.6081C63.7146 29.7399 63.8222 29.8481 63.9544 29.8478L63.9547 29.8478L69.9644 29.8498L69.9647 29.8498C70.0443 29.85 70.1184 29.8105 70.1633 29.7448C70.2074 29.6803 70.2167 29.5956 70.1881 29.5213C70.1881 29.5212 70.188 29.521 70.1879 29.5209L68.1672 24.4398Z" fill="white" stroke="white" stroke-width="0.2"/>
<path d="M60.5312 43.6875H19.9062C17.7968 43.6875 16 45.4062 16 47.5938V80.4062C16 82.5157 17.7188 84.3125 19.9062 84.3125H60.5312C62.6407 84.3125 64.4375 82.5938 64.4375 80.4062V47.5938C64.4375 45.4062 62.7188 43.6875 60.5312 43.6875ZM19.9062 45.25H60.5312C61.7812 45.25 62.875 46.2656 62.875 47.5938V51.5H17.5625V47.5938C17.5625 46.2657 18.5781 45.25 19.9062 45.25ZM60.5312 82.75H19.9062C18.6562 82.75 17.5625 81.7344 17.5625 80.4062V53.0623H62.875V80.4062C62.875 81.7343 61.8594 82.75 60.5312 82.75Z" fill="white"/>
<g clip-path="url(#clip0)">
<path d="M39.5266 71.1302L39.6784 71.3073L39.8302 71.1301L46.1519 63.754L46.2634 63.6239L46.1519 63.4937L45.6172 62.8698L45.4653 62.6927L45.3135 62.8698L39.6784 69.4448L36.6865 65.9539L36.5342 65.7761L36.3824 65.9545L35.8477 66.5828L35.7369 66.7129L35.8482 66.8426L39.5266 71.1302Z" fill="white" stroke="white" stroke-width="0.4"/>
</g>
<rect x="58" y="47" width="3" height="3" rx="1.5" fill="white"/>
<rect x="53" y="47" width="3" height="3" rx="1.5" fill="white"/>
<rect x="48" y="47" width="3" height="3" rx="1.5" fill="white"/>
<defs>
<clipPath id="clip0">
<rect width="12" height="12" fill="white" transform="translate(34 59)"/>
</clipPath>
</defs>
</svg>
