<svg width="112" height="112" viewBox="0 0 112 112" fill="none" xmlns="http://www.w3.org/2000/svg">
<circle cx="56" cy="56" r="56" fill="#4C4FEE"/>
<circle cx="28.6154" cy="25.6155" r="8.48077" fill="#4C4FEE"/>
<ellipse cx="28.6154" cy="80.2693" rx="8.48077" ry="8.48077" fill="#4C4FEE"/>
<path d="M63.9116 28.6841H47.8175C47.3145 28.7328 46.9298 29.1569 46.9298 29.6621C46.9298 30.1674 47.3145 30.5915 47.8175 30.6402H63.9116C64.4146 30.5915 64.7993 30.1674 64.7993 29.6621C64.7993 29.1569 64.4146 28.7327 63.9116 28.6841Z" fill="white"/>
<path d="M69.6179 24.0001H42.4007C38.8882 23.9947 36.0306 27.2582 36 31.3127V81.6982C36.0047 83.6455 36.6804 85.5088 37.8771 86.8793C39.0761 88.247 40.695 89.0107 42.3821 88.9999H69.5993C73.1118 89.0053 75.9694 85.7418 76 81.6873V31.3018C75.9953 29.3545 75.3196 27.4912 74.1229 26.1207C72.9239 24.753 71.305 23.9893 69.6179 24.0001ZM74.0385 81.7086C74.0361 83.0547 73.5669 84.3438 72.7362 85.2863C71.9056 86.2316 70.7841 86.7516 69.6179 86.7353H42.4007C39.9816 86.7407 38.0107 84.4982 37.9801 81.7086V31.3016C37.9825 29.9609 38.4494 28.6745 39.2753 27.732C40.1012 26.7868 41.2204 26.2641 42.3819 26.2749H69.5991C72.0182 26.2695 73.9892 28.512 74.0197 31.3016L74.0385 81.7086Z" fill="white"/>
<path d="M63.783 53.3687C63.1982 53.8646 62.6581 54.4033 62.2303 54.9727C61.6714 55.7166 61.2643 56.5666 61.2643 57.4762C61.2643 58.7062 61.644 59.5785 62.3033 60.2967C62.8281 60.8684 63.5327 61.3379 64.2637 61.8176C63.9745 62.8773 63.3811 63.9658 62.6439 64.8191C61.7895 65.808 60.8608 66.35 60.1143 66.35C59.4782 66.35 58.9355 66.1559 58.3688 65.9227C58.3126 65.8996 58.2546 65.8752 58.1951 65.8503C57.7078 65.6457 57.1166 65.3976 56.5143 65.3976C56.1626 65.3976 55.8178 65.4782 55.5029 65.5753C55.252 65.6528 54.9877 65.7517 54.7347 65.8464C54.6733 65.8694 54.6126 65.8921 54.5528 65.9143C53.9132 66.1512 53.302 66.35 52.6571 66.35C52.3812 66.35 51.9216 66.1646 51.3327 65.6508C50.7661 65.1565 50.1633 64.4297 49.6103 63.5336C48.502 61.7378 47.65 59.3546 47.65 57C47.65 55.439 48.3736 54.2447 49.3729 53.4252C50.3876 52.5931 51.6578 52.1738 52.6571 52.1738C53.2713 52.1738 53.8622 52.4111 54.5055 52.7089C54.5645 52.7362 54.6247 52.7644 54.6858 52.793C54.9388 52.9114 55.2066 53.0367 55.4607 53.1347C55.7782 53.2572 56.1391 53.3643 56.5143 53.3643H56.5311L56.5478 53.3634C56.9275 53.3438 57.3158 53.2403 57.6788 53.1196C57.9677 53.0235 58.2728 52.905 58.5683 52.7901C58.6441 52.7607 58.7192 52.7315 58.7933 52.703C59.5565 52.4094 60.251 52.1738 60.8857 52.1738C61.9454 52.1738 63.045 52.7191 63.783 53.3687ZM58.9336 49.8562C58.4404 50.3384 57.7362 50.6892 56.9105 50.9348C56.9534 49.9335 57.2795 49.3367 57.7292 48.9153C58.2056 48.4687 58.8728 48.1631 59.724 47.8688C59.7291 48.7637 59.4101 49.3901 58.9336 49.8562Z" stroke="white" stroke-width="1.3"/>
<path d="M40.4663 49.0003C40.2877 49.0054 40.1182 49.0784 39.9936 49.204L33.8451 55.2349C33.8429 55.2339 33.841 55.2323 33.8388 55.2314L32.7574 56.2922C32.7599 56.2927 32.762 56.2942 32.7645 56.2948L28.8882 60.097C28.8875 60.0943 28.8861 60.0919 28.8855 60.0891L27.804 61.1499C27.8051 61.1523 27.8065 61.1545 27.8076 61.1569L23.0342 65.839C22.9682 65.9012 22.9155 65.9756 22.8792 66.058C22.8429 66.1403 22.8238 66.229 22.8228 66.3187C22.8219 66.4084 22.8392 66.4974 22.8738 66.5805C22.9084 66.6635 22.9595 66.739 23.0242 66.8025C23.0889 66.8659 23.1658 66.916 23.2505 66.95C23.3352 66.9839 23.4259 67.0009 23.5174 67C23.6089 66.9991 23.6992 66.9802 23.7832 66.9447C23.8672 66.9091 23.9431 66.8574 24.0064 66.7927L28.5686 62.3178C29.4083 63.2513 30.6336 63.8431 32 63.8431C34.5274 63.8431 36.5836 61.8262 36.5836 59.3471C36.5836 58.0071 35.9802 56.8051 35.0286 55.9813L37.0662 53.9827C39.29 55.2599 41.0154 57.3225 41.6489 59.7379C41.7268 60.0436 42.006 60.2463 42.3131 60.2463C42.3681 60.2463 42.4273 60.2415 42.4823 60.2235C42.8536 60.1336 43.0737 59.7656 42.9774 59.406C42.2716 56.7072 40.4619 54.4344 38.0858 52.9825L40.9658 50.1576C41.065 50.0629 41.1327 49.941 41.1601 49.8078C41.1875 49.6747 41.1732 49.5366 41.1193 49.4115C41.0653 49.2864 40.9741 49.1803 40.8576 49.1069C40.741 49.0335 40.6047 48.9964 40.4663 49.0003ZM31.9955 51.2544C26.8756 51.2544 22.2602 54.6807 21.0226 59.406C20.9263 59.7656 21.1464 60.1336 21.5177 60.2235C21.8843 60.3179 22.2594 60.1021 22.3511 59.7379C23.4191 55.669 27.5677 52.6032 31.9955 52.6032C32.7793 52.6032 33.5536 52.6972 34.3008 52.8816L35.4288 51.776C34.3333 51.4343 33.1781 51.2544 31.9955 51.2544ZM32 54.8512C29.4726 54.8512 27.4164 56.868 27.4164 59.3471C27.4164 59.4357 27.4243 59.5229 27.4298 59.6106L29.1361 57.9369C29.4464 57.3335 29.9471 56.8424 30.5622 56.538L32.2677 54.8643C32.1788 54.8589 32.0903 54.8512 32 54.8512ZM34.0501 56.9411C34.7543 57.5179 35.2085 58.3786 35.2085 59.3471C35.2085 61.0821 33.7693 62.4943 32 62.4943C31.0126 62.4943 30.1351 62.0489 29.547 61.358L30.8487 60.0812C30.9733 60.2696 31.1438 60.4244 31.3449 60.5318C31.5459 60.6391 31.7711 60.6955 32 60.6959C32.2959 60.6952 32.5837 60.6008 32.8206 60.4268C33.0575 60.2528 33.2309 60.0086 33.3149 59.7302C33.399 59.4519 33.3893 59.1544 33.2872 58.882C33.1851 58.6095 32.9962 58.3766 32.7484 58.2179L34.0501 56.9411Z" fill="white"/>
</svg>
