<svg width="112" height="112" viewBox="0 0 112 112" fill="none" xmlns="http://www.w3.org/2000/svg">
<circle cx="56" cy="56" r="56" fill="#FFB400"/>
<path d="M24 57.6744L30.6111 64L41 47" stroke="white" stroke-width="2.5" stroke-linecap="round" stroke-linejoin="round"/>
<path d="M69.6179 23.0001H42.4007C38.8882 22.9946 36.0306 26.3083 36 30.4252V81.5859C36.0047 83.5631 36.6804 85.4551 37.8771 86.8466C39.0761 88.2354 40.695 89.0109 42.3821 88.9999H69.5993C73.1118 89.0054 75.9694 85.6917 76 81.5748V30.4141C75.9953 28.4369 75.3196 26.5449 74.1229 25.1534C72.9239 23.7646 71.305 22.9891 69.6179 23.0001V23.0001ZM74.0385 81.5965C74.0361 82.9632 73.5669 84.2722 72.7362 85.2292C71.9056 86.189 70.7841 86.717 69.6179 86.7004H42.4007C39.9816 86.7059 38.0107 84.4289 37.9801 81.5965V30.4139C37.9825 29.0526 38.4494 27.7464 39.2753 26.7894C40.1012 25.8297 41.2204 25.2989 42.3819 25.3099H69.5991C72.0182 25.3044 73.9892 27.5814 74.0197 30.4139L74.0385 81.5965Z" fill="white"/>
<path d="M63.9818 27.6841H47.8877C47.3847 27.7328 47 28.1569 47 28.6621C47 29.1674 47.3847 29.5915 47.8877 29.6402H63.9818C64.4848 29.5915 64.8695 29.1674 64.8695 28.6621C64.8695 28.1569 64.4848 27.7327 63.9818 27.6841Z" fill="white"/>
<path d="M55.5 69.5254C55.2546 69.2531 54.9556 68.9157 54.6167 68.5227C53.646 67.3969 52.3537 65.8205 51.0635 64.0157C49.7712 62.2079 48.4948 60.1898 47.5448 58.1793C46.5884 56.1554 46 54.2161 46 52.5455C46 47.2699 50.2577 43 55.5 43C60.7423 43 65 47.2699 65 52.5455C65 54.2161 64.4116 56.1554 63.4552 58.1793C62.5052 60.1898 61.2288 62.2079 59.9365 64.0157C58.6463 65.8205 57.354 67.3969 56.3833 68.5227C56.0444 68.9157 55.7454 69.2531 55.5 69.5254ZM60.2529 52.5455C60.2529 49.9172 58.1275 47.7763 55.5 47.7763C52.8725 47.7763 50.7471 49.9172 50.7471 52.5455C50.7471 55.1738 52.8725 57.3146 55.5 57.3146C58.1275 57.3146 60.2529 55.1738 60.2529 52.5455Z" stroke="white" stroke-width="2"/>
</svg>
