<svg xmlns="http://www.w3.org/2000/svg" viewBox="0 0 120 120"><defs><style>.cls-1{fill:#00d0b2;}.cls-2{fill:#2c3543;}</style></defs><title>adaptivefraud-120x120-colorspot-outlines</title><g id="all_colorspots" data-name="all colorspots"><circle class="cls-1" cx="92.56" cy="92.61" r="22.79"/></g><g id="all_icons" data-name="all icons"><path class="cls-2" d="M76.42,93.74H43.58a4.65,4.65,0,0,1-4.76-4.52V69.16A19.7,19.7,0,0,1,49.5,51.94a4,4,0,0,1,3.93.06,13.37,13.37,0,0,0,13.14,0,4,4,0,0,1,3.93-.06h0A19.7,19.7,0,0,1,81.18,69.16V89.22A4.65,4.65,0,0,1,76.42,93.74ZM51.42,54a1.62,1.62,0,0,0-.74.18,17.23,17.23,0,0,0-9.36,15V89.22a2.15,2.15,0,0,0,2.26,2H76.42a2.15,2.15,0,0,0,2.26-2V69.16a17.23,17.23,0,0,0-9.36-15h0a1.55,1.55,0,0,0-1.49,0,15.65,15.65,0,0,1-15.66,0A1.43,1.43,0,0,0,51.42,54Z"/><path class="cls-2" d="M60,56a14.92,14.92,0,1,1,9.15-3.16A14.76,14.76,0,0,1,60,56Zm0-27.28a12.38,12.38,0,0,0-7.61,22.15,12.39,12.39,0,0,0,20-9.76A12.41,12.41,0,0,0,60,28.76Z"/><path class="cls-2" d="M66.12,44.64A4.34,4.34,0,0,1,62,41.78a1.13,1.13,0,0,1,.82-1.48L69,38.83A1.16,1.16,0,0,1,70,39a1.11,1.11,0,0,1,.48.78,4.33,4.33,0,0,1-3.32,4.73A4.27,4.27,0,0,1,66.12,44.64Zm-2.49-3A2.84,2.84,0,0,0,69,40.4Zm5.76-1.36h0Zm-.18-.74h0Z"/><path class="cls-2" d="M53.88,44.64a4.27,4.27,0,0,1-1-.12,4.33,4.33,0,0,1-3.32-4.73A1.11,1.11,0,0,1,50,39a1.16,1.16,0,0,1,.92-.18l6.18,1.47A1.13,1.13,0,0,1,58,41.78,4.34,4.34,0,0,1,53.88,44.64ZM51,40.4a2.84,2.84,0,0,0,5.33,1.26Zm5.76,1.36ZM50.61,40.3h0Z"/><path class="cls-2" d="M93.82,29.68a1.28,1.28,0,0,1-.94-.42A1.25,1.25,0,0,1,93,27.49l13.77-12.22a1.25,1.25,0,1,1,1.66,1.87L94.65,29.36A1.27,1.27,0,0,1,93.82,29.68Z"/><path class="cls-2" d="M106.86,23.33h-.19a1.51,1.51,0,0,1-1.3-1.69l.49-3.83-4,.32a1.5,1.5,0,1,1-.24-3l5.67-.46a1.51,1.51,0,0,1,1.45.8l.12.22a1.52,1.52,0,0,1,.17.91l-.7,5.42A1.52,1.52,0,0,1,106.86,23.33Z"/><path class="cls-2" d="M106.8,105.09a1.28,1.28,0,0,1-.94-.42L93.64,90.89a1.25,1.25,0,0,1,1.87-1.66L107.73,103a1.24,1.24,0,0,1-.1,1.76A1.27,1.27,0,0,1,106.8,105.09Z"/><path class="cls-2" d="M106.61,105.05h-.16l-5.43-.7a1.24,1.24,0,0,1-1.08-1.4,1.26,1.26,0,0,1,1.4-1.08l4.14.54-.35-4.29a1.25,1.25,0,0,1,2.5-.2l.45,5.67a1.26,1.26,0,0,1-.66,1.21l-.22.12A1.25,1.25,0,0,1,106.61,105.05Z"/><path class="cls-2" d="M106.84,63.72h-13a1.25,1.25,0,0,1,0-2.5h13a1.25,1.25,0,0,1,0,2.5Z"/><path class="cls-2" d="M104.1,67.3a1.26,1.26,0,0,1-1-.49,1.24,1.24,0,0,1,.23-1.75l3.3-2.55-3.27-2.79a1.25,1.25,0,1,1,1.62-1.9l4.33,3.69a1.25,1.25,0,0,1,.39,1.31l-.08.25a1.26,1.26,0,0,1-.43.63L104.86,67A1.25,1.25,0,0,1,104.1,67.3Z"/><path class="cls-2" d="M26.18,29.68a1.27,1.27,0,0,1-.83-.32L11.58,17.14a1.25,1.25,0,1,1,1.66-1.87L27,27.49a1.25,1.25,0,0,1,.11,1.77A1.28,1.28,0,0,1,26.18,29.68Z"/><path class="cls-2" d="M13.14,23.33A1.52,1.52,0,0,1,11.64,22l-.7-5.42a1.51,1.51,0,0,1,.17-.91l.12-.23a1.51,1.51,0,0,1,1.45-.79l5.67.46a1.5,1.5,0,1,1-.24,3l-4-.32.49,3.83a1.51,1.51,0,0,1-1.3,1.69Z"/><path class="cls-2" d="M13.2,105.09a1.27,1.27,0,0,1-.83-.32,1.24,1.24,0,0,1-.1-1.76L24.49,89.23a1.25,1.25,0,0,1,1.87,1.66L14.14,104.67A1.28,1.28,0,0,1,13.2,105.09Z"/><path class="cls-2" d="M13.39,105.05a1.22,1.22,0,0,1-.59-.14l-.23-.12a1.27,1.27,0,0,1-.65-1.21l.45-5.67a1.25,1.25,0,0,1,2.5.2l-.35,4.29,4.14-.54a1.26,1.26,0,0,1,1.4,1.08,1.24,1.24,0,0,1-1.08,1.4l-5.43.7Z"/><path class="cls-2" d="M26.18,63.72h-13a1.25,1.25,0,1,1,0-2.5h13a1.25,1.25,0,1,1,0,2.5Z"/><path class="cls-2" d="M15.9,67.3a1.25,1.25,0,0,1-.76-.26L10.8,63.7a1.26,1.26,0,0,1-.43-.63l-.08-.25a1.25,1.25,0,0,1,.39-1.31L15,57.82a1.25,1.25,0,1,1,1.62,1.9l-3.27,2.79,3.3,2.55a1.24,1.24,0,0,1,.23,1.75A1.26,1.26,0,0,1,15.9,67.3Z"/></g></svg>