<svg xmlns="http://www.w3.org/2000/svg" viewBox="0 0 120 120"><defs><style>.cls-1{fill:#00d0b2;}.cls-2{fill:#2c3543;}</style></defs><title>audiencemanagement-120x120-colorspot-outlines</title><g id="all_colorspots" data-name="all colorspots"><circle class="cls-1" cx="92.56" cy="92.61" r="22.79"/></g><g id="all_icons" data-name="all icons"><path class="cls-2" d="M74.07,81.72H45.93a4.16,4.16,0,0,1-4.25-4.06V60.48a17.07,17.07,0,0,1,9.24-14.91,3.68,3.68,0,0,1,3.54,0,11.27,11.27,0,0,0,11.08,0,3.68,3.68,0,0,1,3.54,0h0a17.07,17.07,0,0,1,9.24,14.91V77.66A4.16,4.16,0,0,1,74.07,81.72ZM52.65,47.64a1.1,1.1,0,0,0-.55.14,14.54,14.54,0,0,0-7.92,12.7V77.66a1.66,1.66,0,0,0,1.75,1.56H74.07a1.66,1.66,0,0,0,1.75-1.56V60.48a14.54,14.54,0,0,0-7.92-12.7,1.13,1.13,0,0,0-1.1,0,13.79,13.79,0,0,1-13.6,0A1.18,1.18,0,0,0,52.65,47.64Z"/><path class="cls-2" d="M60,49.42A13,13,0,0,1,47.07,36.48,12.93,12.93,0,1,1,68,46.67,12.79,12.79,0,0,1,60,49.42Zm0-23.37A10.42,10.42,0,0,0,53.59,44.7a10.43,10.43,0,0,0,16.84-8.22A10.44,10.44,0,0,0,60,26.05Z"/><path class="cls-2" d="M113.87,81.72H85.73a4.16,4.16,0,0,1-4.25-4.06V60.48a17.07,17.07,0,0,1,9.24-14.91,3.68,3.68,0,0,1,3.54,0,11.27,11.27,0,0,0,11.08,0,3.68,3.68,0,0,1,3.54,0h0a17.07,17.07,0,0,1,9.24,14.91V77.66A4.16,4.16,0,0,1,113.87,81.72ZM92.45,47.64a1.12,1.12,0,0,0-.55.14A14.54,14.54,0,0,0,84,60.48V77.66a1.67,1.67,0,0,0,1.75,1.56h28.14a1.66,1.66,0,0,0,1.75-1.56V60.48a14.54,14.54,0,0,0-7.92-12.7,1.13,1.13,0,0,0-1.1,0,13.79,13.79,0,0,1-13.6,0A1.15,1.15,0,0,0,92.45,47.64Z"/><path class="cls-2" d="M99.8,49.42A13,13,0,0,1,86.87,36.48a12.93,12.93,0,1,1,20.88,10.19A12.79,12.79,0,0,1,99.8,49.42Zm0-23.37A10.42,10.42,0,0,0,93.39,44.7a10.43,10.43,0,0,0,16.84-8.22A10.44,10.44,0,0,0,99.8,26.05Z"/><path class="cls-2" d="M34.27,81.72H6.13a4.16,4.16,0,0,1-4.25-4.06V60.48a17.07,17.07,0,0,1,9.24-14.91,3.68,3.68,0,0,1,3.54,0,11.27,11.27,0,0,0,11.08,0,3.68,3.68,0,0,1,3.54,0h0a17.07,17.07,0,0,1,9.24,14.91V77.66A4.16,4.16,0,0,1,34.27,81.72ZM12.85,47.64a1.1,1.1,0,0,0-.55.14,14.54,14.54,0,0,0-7.92,12.7V77.66a1.66,1.66,0,0,0,1.75,1.56H34.27A1.67,1.67,0,0,0,36,77.66V60.48a14.54,14.54,0,0,0-7.92-12.7,1.13,1.13,0,0,0-1.1,0,13.79,13.79,0,0,1-13.6,0A1.18,1.18,0,0,0,12.85,47.64Z"/><path class="cls-2" d="M20.2,49.42A13,13,0,0,1,7.27,36.48,12.93,12.93,0,1,1,28.15,46.67,12.79,12.79,0,0,1,20.2,49.42Zm0-23.37A10.42,10.42,0,0,0,13.79,44.7a10.43,10.43,0,0,0,16.84-8.22A10.44,10.44,0,0,0,20.2,26.05Z"/><path class="cls-2" d="M98.78,96.45H21.22A1.25,1.25,0,0,1,20,95.2V86a1.25,1.25,0,0,1,2.5,0v8H97.53V86a1.25,1.25,0,1,1,2.5,0V95.2A1.25,1.25,0,0,1,98.78,96.45Z"/><path class="cls-2" d="M60,95.26A1.25,1.25,0,0,1,58.75,94V86a1.25,1.25,0,0,1,2.5,0v8A1.25,1.25,0,0,1,60,95.26Z"/></g></svg>