<svg xmlns="http://www.w3.org/2000/svg" viewBox="0 0 120 120"><defs><style>.cls-1{fill:#4c4fee;}.cls-2{fill:#2c3543;}</style></defs><title>integrations-120x120-colorspot-outlines</title><g id="all_colorspots" data-name="all colorspots"><circle class="cls-1" cx="92.56" cy="92.61" r="22.79"/></g><g id="all_icons" data-name="all icons"><path class="cls-2" d="M65.32,115.36a1.25,1.25,0,0,1-.12-2.5c1.53-.15,3.09-.37,4.61-.65a53,53,0,0,0,35.84-79.07,1.25,1.25,0,1,1,2.15-1.27,54.84,54.84,0,0,1,6.65,17.41,55.56,55.56,0,0,1-44.18,65.39c-1.6.29-3.22.53-4.83.68Zm-11,0h-.13L53,115.17h0c-1.07-.13-2.16-.3-3.23-.5a55.52,55.52,0,0,1-37.42-83A1.25,1.25,0,0,1,14.46,33a53,53,0,0,0,35.73,79.25c1,.19,2.06.35,3.08.48h0l1.13.13a1.25,1.25,0,0,1-.13,2.5ZM99.38,24a1.26,1.26,0,0,1-.91-.39A53,53,0,0,0,74.6,9.13a53.64,53.64,0,0,0-29.2,0A53.09,53.09,0,0,0,22.47,22.67,1.25,1.25,0,0,1,20.7,20.9a55.56,55.56,0,0,1,24-14.17,56.13,56.13,0,0,1,30.58,0,55.55,55.55,0,0,1,25,15.19A1.26,1.26,0,0,1,99.38,24Z"/><path class="cls-2" d="M60,115.4a1.25,1.25,0,0,1-1.25-1.25V73.43a1.25,1.25,0,0,1,2.5,0v40.72A1.25,1.25,0,0,1,60,115.4Z"/><path class="cls-2" d="M50,83.29a1.23,1.23,0,0,1-.89-.37,1.25,1.25,0,0,1,0-1.77C59.33,71.1,59.33,71.1,60,71.1s.67,0,10.9,10a1.25,1.25,0,1,1-1.75,1.78C66.25,80.06,61.78,75.71,60,74c-1.78,1.68-6.26,6-9.17,8.91A1.29,1.29,0,0,1,50,83.29Z"/><path class="cls-2" d="M43,49.43a1.27,1.27,0,0,1-.78-.27l-26.36-21a1.25,1.25,0,0,1,1.55-2l26.37,21A1.25,1.25,0,0,1,43,49.43Z"/><path class="cls-2" d="M30.56,52.16A1.26,1.26,0,0,1,29.32,51a1.25,1.25,0,0,1,1.11-1.37c4.06-.46,10.27-1.16,12.69-1.48C43,45.75,42.4,39.54,42,35.48a1.25,1.25,0,0,1,2.49-.23c1.3,14.27,1.3,14.27.87,14.79s-.43.53-14.69,2.11Z"/><path class="cls-2" d="M75.57,49.67a1.25,1.25,0,0,1-1-.49,1.27,1.27,0,0,1,.23-1.76l27.77-21.2a1.25,1.25,0,0,1,1.51,2L76.33,49.41A1.27,1.27,0,0,1,75.57,49.67Z"/><path class="cls-2" d="M88.72,52.16h-.14C74.32,50.57,74.32,50.57,73.89,50s-.43-.52.87-14.79a1.25,1.25,0,0,1,2.49.23c-.37,4.06-.92,10.27-1.09,12.71,2.42.32,8.63,1,12.69,1.48A1.25,1.25,0,0,1,90,51,1.26,1.26,0,0,1,88.72,52.16Z"/></g></svg>