<svg xmlns="http://www.w3.org/2000/svg" viewBox="0 0 120 120"><defs><style>.cls-1{fill:#4c4fee;}.cls-2{fill:#2c3543;}</style></defs><title>security.secure.safe-120x120-colorspot-outlines_1</title><g id="all_colorspots" data-name="all colorspots"><circle class="cls-1" cx="92.56" cy="92.61" r="22.79"/></g><g id="all_icons" data-name="all icons"><path class="cls-2" d="M60,118.85c-13.34,0-49.15-37.1-49.15-55V20.73a7.83,7.83,0,0,1,5.66-7.5L57.86,1.45a7.78,7.78,0,0,1,4.28,0l41.35,11.78a7.83,7.83,0,0,1,5.66,7.5V63.85C109.15,81.75,73.34,118.85,60,118.85ZM60,3.65a5.46,5.46,0,0,0-1.45.2L17.2,15.63a5.32,5.32,0,0,0-3.85,5.1V63.85c0,7.39,7.27,19.85,19,32.5,10.88,11.78,22.27,20,27.68,20s16.8-8.22,27.68-20c11.7-12.65,19-25.11,19-32.5V20.73a5.32,5.32,0,0,0-3.85-5.1L61.45,3.85A5.46,5.46,0,0,0,60,3.65Z"/><path class="cls-2" d="M58.93,76.36A5.22,5.22,0,0,1,55,74.58L42.55,60.38a5.23,5.23,0,1,1,7.86-6.89l7.82,8.91L74.09,37.15A5.23,5.23,0,1,1,83,42.71L63.36,73.91a5.24,5.24,0,0,1-4,2.43ZM46.48,54.2a2.73,2.73,0,0,0-2,4.54L56.88,72.93a2.73,2.73,0,0,0,4.36-.35l19.6-31.2a2.73,2.73,0,0,0-4.63-2.9L59.46,65.15a1.26,1.26,0,0,1-1,.58,1.25,1.25,0,0,1-1-.42L48.53,55.13a2.74,2.74,0,0,0-1.87-.92Z"/></g></svg>