<svg xmlns="http://www.w3.org/2000/svg" viewBox="0 0 40 40"><defs><style>.cls-1{fill:#3088f4;}.cls-2{fill:#2c3543;}</style></defs><title>accuracy.target-40x40-colorspot-outlinesblue</title><g id="Layer_7" data-name="Layer 7"><circle class="cls-1" cx="31.034" cy="30.243" r="7.723"/></g><g id="Layer_1" data-name="Layer 1"><path class="cls-2" d="M19.782,38.987A18.844,18.844,0,1,1,32.137,5.927a.375.375,0,0,1-.492.566A18.1,18.1,0,1,0,33.45,8.3a.375.375,0,1,1,.566-.492A18.835,18.835,0,0,1,19.782,38.987Zm0-5.582a13.261,13.261,0,1,1,8.527-23.41.375.375,0,0,1-.482.575,12.507,12.507,0,1,0,4.465,9.574,12.363,12.363,0,0,0-2.72-7.781.375.375,0,1,1,.586-.467,13.105,13.105,0,0,1,2.884,8.248A13.277,13.277,0,0,1,19.782,33.405Z"/><path class="cls-2" d="M19.782,27.185A7.041,7.041,0,1,1,23.8,14.363a.375.375,0,1,1-.429.615,6.3,6.3,0,1,0,1.753,1.844.375.375,0,1,1,.636-.4,7.038,7.038,0,0,1-5.976,10.762Z"/><path class="cls-2" d="M19.782,27.185A7.041,7.041,0,1,1,23.8,14.363a.375.375,0,1,1-.429.615,6.3,6.3,0,1,0,1.753,1.844.375.375,0,1,1,.636-.4,7.038,7.038,0,0,1-5.976,10.762Z"/><path class="cls-2" d="M19.943,20.519a.372.372,0,0,1-.266-.11.378.378,0,0,1,0-.531l16.7-16.7a.375.375,0,1,1,.531.531l-16.7,16.7A.37.37,0,0,1,19.943,20.519Z"/><path class="cls-2" d="M36.64,3.821h-.02a.375.375,0,0,1-.354-.395l.115-2.058a.368.368,0,0,1,.4-.353.373.373,0,0,1,.353.4l-.115,2.057A.375.375,0,0,1,36.64,3.821Z"/><path class="cls-2" d="M36.64,3.821a.375.375,0,0,1-.02-.749l2.046-.115a.375.375,0,0,1,.041.748l-2.046.115Z"/><path class="cls-2" d="M34.667,5.794h-.02a.373.373,0,0,1-.354-.394l.115-2.088a.371.371,0,0,1,.394-.354.375.375,0,0,1,.354.4L35.042,5.44A.374.374,0,0,1,34.667,5.794Z"/><path class="cls-2" d="M34.667,5.794a.375.375,0,0,1-.021-.749l1.973-.115a.375.375,0,0,1,.043.748l-1.973.115Z"/></g></svg>