<svg xmlns="http://www.w3.org/2000/svg" viewBox="0 0 40 40"><defs><style>.cls-1{fill:#4c4fee;}.cls-2{fill:#2c3543;}</style></defs><title>adaptivefraud-40x40-colorspot-outlinesindigo</title><g id="Layer_7" data-name="Layer 7"><circle class="cls-1" cx="31.034" cy="30.243" r="7.723"/></g><g id="Layer_1" data-name="Layer 1"><path class="cls-2" d="M25.487,31.234H14.513a1.513,1.513,0,0,1-1.549-1.471v-6.7a6.543,6.543,0,0,1,3.548-5.716,1.309,1.309,0,0,1,1.27.018,4.5,4.5,0,0,0,4.436,0,1.309,1.309,0,0,1,1.27-.018h0a6.543,6.543,0,0,1,3.548,5.716v6.7A1.513,1.513,0,0,1,25.487,31.234Zm-8.352-13.3a.571.571,0,0,0-.269.068,5.793,5.793,0,0,0-3.152,5.054v6.7a.764.764,0,0,0,.8.721H25.487a.764.764,0,0,0,.8-.721v-6.7a5.793,5.793,0,0,0-3.152-5.054h0a.549.549,0,0,0-.537,0,5.277,5.277,0,0,1-5.194,0A.526.526,0,0,0,17.135,17.938Z"/><path class="cls-2" d="M20,18.632A4.941,4.941,0,0,1,15.067,13.7a4.933,4.933,0,1,1,7.965,3.886A4.881,4.881,0,0,1,20,18.632Zm0-9.116A4.181,4.181,0,1,0,24.183,13.7,4.188,4.188,0,0,0,20,9.516Z"/><path class="cls-2" d="M22.045,14.868a1.451,1.451,0,0,1-1.364-.955.377.377,0,0,1,.025-.308.385.385,0,0,1,.251-.191l2.063-.489h0a.4.4,0,0,1,.31.062.371.371,0,0,1,.156.261,1.453,1.453,0,0,1-1.108,1.582A1.473,1.473,0,0,1,22.045,14.868Zm-.832-1a.95.95,0,0,0,1.781-.422Zm-.14.034h0Z"/><path class="cls-2" d="M17.955,14.868a1.5,1.5,0,0,1-.336-.039,1.452,1.452,0,0,1-1.107-1.582.37.37,0,0,1,.156-.26.384.384,0,0,1,.31-.063h0l2.065.49a.385.385,0,0,1,.25.191.379.379,0,0,1,.024.307A1.45,1.45,0,0,1,17.955,14.868Zm-.949-1.418a.949.949,0,0,0,1.78.422Zm1.923.456h0Z"/><path class="cls-2" d="M31.3,9.823a.375.375,0,0,1-.249-.656l4.6-4.085a.375.375,0,1,1,.5.561l-4.6,4.085A.375.375,0,0,1,31.3,9.823Z"/><path class="cls-2" d="M35.661,7.745a.473.473,0,0,1-.065,0,.505.505,0,0,1-.436-.565L35.326,5.9,34,6.005a.512.512,0,0,1-.543-.461A.5.5,0,0,1,33.918,5l1.9-.153a.491.491,0,0,1,.486.268.819.819,0,0,1,.1.376L36.16,7.305A.505.505,0,0,1,35.661,7.745Z"/><path class="cls-2" d="M35.64,35.025a.376.376,0,0,1-.281-.126l-4.085-4.605a.375.375,0,0,1,.562-.5L35.921,34.4a.376.376,0,0,1-.281.624Z"/><path class="cls-2" d="M35.548,35.012h-.02l-1.815-.234a.376.376,0,0,1-.324-.42.381.381,0,0,1,.42-.324l1.437.185-.12-1.485a.375.375,0,0,1,.748-.061l.152,1.9a.375.375,0,0,1-.2.361A.785.785,0,0,1,35.548,35.012Z"/><path class="cls-2" d="M35.652,21.2H31.3a.375.375,0,0,1,0-.75h4.351a.375.375,0,0,1,0,.75Z"/><path class="cls-2" d="M34.738,22.4a.375.375,0,0,1-.229-.672l1.146-.884-1.135-.967a.375.375,0,0,1,.486-.57l1.449,1.234a.374.374,0,0,1,.115.4.7.7,0,0,1-.154.268l-1.449,1.117A.371.371,0,0,1,34.738,22.4Z"/><path class="cls-2" d="M8.7,9.823a.377.377,0,0,1-.249-.1l-4.6-4.085a.375.375,0,0,1,.5-.561l4.6,4.085a.375.375,0,0,1-.249.656Z"/><path class="cls-2" d="M4.339,7.745a.5.5,0,0,1-.5-.44L3.605,5.492a.506.506,0,0,1,.055-.3.662.662,0,0,1,.527-.343L6.082,5a.5.5,0,0,1,.462.543A.513.513,0,0,1,6,6.005L4.674,5.9l.165,1.278a.5.5,0,0,1-.435.565A.482.482,0,0,1,4.339,7.745Z"/><path class="cls-2" d="M4.36,35.025a.375.375,0,0,1-.28-.624L8.165,29.8a.375.375,0,0,1,.561.5L4.64,34.9A.374.374,0,0,1,4.36,35.025Z"/><path class="cls-2" d="M4.424,35.014a.382.382,0,0,1-.178-.045.513.513,0,0,1-.272-.4l.153-1.9a.375.375,0,0,1,.748.061l-.121,1.485,1.437-.185a.375.375,0,0,1,.095.744l-1.814.234Z"/><path class="cls-2" d="M8.7,21.2H4.348a.375.375,0,1,1,0-.75H8.7a.375.375,0,0,1,0,.75Z"/><path class="cls-2" d="M5.261,22.4a.37.37,0,0,1-.228-.078L3.584,21.2a.38.38,0,0,1-.13-.188.51.51,0,0,1,.091-.476L4.994,19.3a.375.375,0,1,1,.486.57l-1.135.967,1.146.884a.375.375,0,0,1-.23.672Z"/></g></svg>