<svg xmlns="http://www.w3.org/2000/svg" viewBox="0 0 40 40"><defs><style>.cls-1{fill:#ffb400;}.cls-2{fill:#2c3543;}</style></defs><title>advertisingclicks-40x40-colorspot-outlinesyellow</title><g id="Layer_7" data-name="Layer 7"><circle class="cls-1" cx="31.034" cy="30.243" r="7.723"/></g><g id="Layer_1" data-name="Layer 1"><path class="cls-2" d="M23.782,38.168a1.02,1.02,0,0,1-.288-.043.989.989,0,0,1-.585-.479l-4.62-8.619-7.435,7.481a1.031,1.031,0,0,1-1.763-.76L9.958,8.184a1.031,1.031,0,0,1,1.575-.844L34.938,21.854a1.068,1.068,0,0,1,.517.99,1.031,1.031,0,0,1-.829.918L24.28,25.809,28.9,34.433a.988.988,0,0,1-.406,1.339l-4.249,2.277A.973.973,0,0,1,23.782,38.168Zm-5.476-9.936a.659.659,0,0,1,.1.007.679.679,0,0,1,.5.354l4.664,8.7a.235.235,0,0,0,.142.116.243.243,0,0,0,.181-.018l4.25-2.279a.237.237,0,0,0,.1-.324l-4.666-8.7a.683.683,0,0,1,.469-.991l10.438-2.066c.164-.072.217-.154.226-.251a.319.319,0,0,0-.165-.283h0L11.138,7.977a.275.275,0,0,0-.281-.01.279.279,0,0,0-.149.241L9.841,35.772a.281.281,0,0,0,.48.208l7.5-7.546A.689.689,0,0,1,18.306,28.232Zm5.884-2.4Z"/><path class="cls-2" d="M8.653,5.061a.377.377,0,0,1-.31-.162L6.684,2.5A.375.375,0,0,1,7.3,2.072l1.659,2.4a.376.376,0,0,1-.308.588Z"/><path class="cls-2" d="M6.479,7.122a.363.363,0,0,1-.157-.035L4.758,6.361a.374.374,0,1,1,.315-.679l1.564.725a.375.375,0,0,1-.158.715Z"/><path class="cls-2" d="M11.684,4.234a.376.376,0,0,1-.375-.365l-.042-1.651a.375.375,0,0,1,.365-.385.349.349,0,0,1,.385.365l.042,1.652a.374.374,0,0,1-.365.384Z"/></g></svg>