<svg xmlns="http://www.w3.org/2000/svg" viewBox="0 0 40 40"><defs><style>.cls-1{fill:#ffb400;}.cls-2{fill:#2c3543;}</style></defs><title>analyticalfraud-40x40-colorspot-outlinesyellow</title><g id="Layer_7" data-name="Layer 7"><circle class="cls-1" cx="31.034" cy="30.243" r="7.723"/></g><g id="Layer_1" data-name="Layer 1"><path class="cls-2" d="M37.2,38.507a2.062,2.062,0,0,1-1.463-.6L25.5,27.673a.375.375,0,0,1,0-.531l2.4-2.4a.374.374,0,0,1,.53,0l10.23,10.229A2.071,2.071,0,0,1,37.2,38.507Zm-10.9-11.1,9.964,9.964a1.322,1.322,0,0,0,1.87-1.869l-9.965-9.964Z"/><path class="cls-2" d="M15.814,31.657A15.084,15.084,0,0,1,5.149,5.908h0A15.083,15.083,0,1,1,15.814,31.657ZM5.679,6.439a14.332,14.332,0,1,0,20.27,20.268A14.332,14.332,0,0,0,5.679,6.439ZM15.814,27.755a11.182,11.182,0,1,1,7.91-3.27h0A11.156,11.156,0,0,1,15.814,27.755Zm0-21.619a10.437,10.437,0,1,0,7.38,17.818h0a10.437,10.437,0,0,0-7.38-17.818Zm7.645,18.083h0Z"/><path class="cls-2" d="M19.16,23.064H12.469a1.069,1.069,0,0,1-1.091-1.042V17.934a4.133,4.133,0,0,1,2.24-3.613.943.943,0,0,1,.917.012,2.6,2.6,0,0,0,2.558,0,.942.942,0,0,1,.916-.014h0a4.131,4.131,0,0,1,2.24,3.613v4.088A1.068,1.068,0,0,1,19.16,23.064Zm-5.093-8.107a.2.2,0,0,0-.1.025,3.385,3.385,0,0,0-1.844,2.952v4.088a.32.32,0,0,0,.341.292H19.16a.319.319,0,0,0,.34-.292V17.934a3.383,3.383,0,0,0-1.844-2.952.192.192,0,0,0-.186,0,3.366,3.366,0,0,1-3.313,0A.176.176,0,0,0,14.067,14.957Z"/><path class="cls-2" d="M15.814,15.381a3.159,3.159,0,0,1-3.154-3.154,3.155,3.155,0,1,1,5.093,2.485A3.122,3.122,0,0,1,15.814,15.381Zm0-5.558a2.4,2.4,0,1,0,2.405,2.4A2.407,2.407,0,0,0,15.814,9.823Z"/><path class="cls-2" d="M17.06,13.039a.983.983,0,0,1-.923-.649.412.412,0,0,1,.021-.268.335.335,0,0,1,.22-.165l1.255-.3a.338.338,0,0,1,.268.05.422.422,0,0,1,.138.23.983.983,0,0,1-.751,1.071A.936.936,0,0,1,17.06,13.039Zm-.338-.645a.47.47,0,0,0,.45.127.481.481,0,0,0,.345-.316Zm-.227.054h0Zm1.255-.3Zm-.059-.245h0Z"/><path class="cls-2" d="M14.568,13.039a.942.942,0,0,1-.228-.028.983.983,0,0,1-.75-1.071.413.413,0,0,1,.138-.23A.336.336,0,0,1,14,11.66l1.26.3a.331.331,0,0,1,.215.164.412.412,0,0,1,.021.268A.982.982,0,0,1,14.568,13.039Zm-.457-.834a.481.481,0,0,0,.345.316.487.487,0,0,0,.451-.127Zm1.026.244h0Zm-1.259-.3Z"/></g></svg>