<svg xmlns="http://www.w3.org/2000/svg" viewBox="0 0 40 40"><defs><style>.cls-1{fill:#3088f4;}.cls-2{fill:#2c3543;}</style></defs><title>appinstalls-40x40-colorspot-outlinesblue</title><g id="Layer_7" data-name="Layer 7"><circle class="cls-1" cx="31.034" cy="30.243" r="7.723"/></g><g id="Layer_1" data-name="Layer 1"><path class="cls-2" d="M28.737,35.273a.375.375,0,0,1-.375-.375V27.045a.375.375,0,0,1,.75,0V34.9A.375.375,0,0,1,28.737,35.273Z"/><path class="cls-2" d="M28.732,35.505c-.19,0-.19,0-2.432-2.2a.375.375,0,1,1,.526-.535c.591.579,1.485,1.451,1.906,1.85.42-.4,1.315-1.274,1.908-1.855a.375.375,0,0,1,.526.535C28.921,35.505,28.921,35.505,28.732,35.505Z"/><path class="cls-2" d="M34.755,36.749H22.711a.375.375,0,0,1,0-.75H34.755a.375.375,0,0,1,0,.75Z"/><path class="cls-2" d="M16.377,16.831H6.157a1.682,1.682,0,0,1-1.68-1.68V4.931a1.682,1.682,0,0,1,1.68-1.68h10.22a1.683,1.683,0,0,1,1.681,1.68v10.22A1.683,1.683,0,0,1,16.377,16.831ZM6.157,4a.931.931,0,0,0-.93.93v10.22a.931.931,0,0,0,.93.93h10.22a.932.932,0,0,0,.931-.93V4.931A.932.932,0,0,0,16.377,4Z"/><path class="cls-2" d="M33.843,16.831H23.623a1.683,1.683,0,0,1-1.681-1.68V4.931a1.683,1.683,0,0,1,1.681-1.68h10.22a1.683,1.683,0,0,1,1.681,1.68v10.22A1.683,1.683,0,0,1,33.843,16.831ZM23.623,4a.932.932,0,0,0-.931.93v10.22a.932.932,0,0,0,.931.93h10.22a.932.932,0,0,0,.931-.93V4.931A.932.932,0,0,0,33.843,4Z"/><path class="cls-2" d="M16.377,34.4H6.157a1.682,1.682,0,0,1-1.68-1.68V22.5a1.683,1.683,0,0,1,1.68-1.681h10.22A1.683,1.683,0,0,1,18.058,22.5v10.22A1.683,1.683,0,0,1,16.377,34.4ZM6.157,21.573a.932.932,0,0,0-.93.931v10.22a.931.931,0,0,0,.93.93h10.22a.932.932,0,0,0,.931-.93V22.5a.933.933,0,0,0-.931-.931Z"/><path class="cls-2" d="M33.843,34.4H31.918a.375.375,0,0,1,0-.75h1.925a.932.932,0,0,0,.931-.93V22.5a.933.933,0,0,0-.931-.931H23.623a.933.933,0,0,0-.931.931v10.22a.932.932,0,0,0,.931.93h1.816a.375.375,0,0,1,0,.75H23.623a1.683,1.683,0,0,1-1.681-1.68V22.5a1.683,1.683,0,0,1,1.681-1.681h10.22A1.683,1.683,0,0,1,35.524,22.5v10.22A1.683,1.683,0,0,1,33.843,34.4Z"/></g></svg>