<svg xmlns="http://www.w3.org/2000/svg" xmlns:xlink="http://www.w3.org/1999/xlink" viewBox="0 0 640 480"><defs><style>.cls-1,.cls-5,.cls-7{fill:none;stroke-linecap:round;stroke-linejoin:round;}.cls-1{stroke:#2c3643;stroke-width:2px;}.cls-2,.cls-3{fill:#3088f4;}.cls-2{opacity:0.05;}.cls-4{fill:#2c3643;}.cls-5{stroke:#2c3543;}.cls-5,.cls-7{stroke-width:2.21px;}.cls-6{fill:#ffb400;}.cls-7{stroke:#4c5363;stroke-dasharray:0.1 4.9;opacity:0.75;}.cls-8{fill:#00d0b2;}.cls-9{clip-path:url(#clip-path);}</style><clipPath id="clip-path"><path class="cls-1" d="M203.61,404.21a3.63,3.63,0,0,1,3.34,3.86v23.51a3.53,3.53,0,0,1-3.34,3.87h-9.94a3.63,3.63,0,0,1-3.33-3.87V408.07a3.63,3.63,0,0,1,3.33-3.86Z"/></clipPath></defs><title>best-in-class-data-connectors-outlines</title><g id="Layer_1" data-name="Layer 1"><path class="cls-2" d="M33.37,178.94c25.15,28.95,50.77,42.56,42.55,82.37-4.61,22.32-31.07,23-55.83,67.58C3.48,358.81,3.93,447.17,62,457.46c80.75,14.31,156.67-55.2,191.75-66.12,134.44-41.88,115,28.59,214.52,52.89,65.82,16.08,196.81-41.62,157.22-129.3C593.65,244.52,471,229,526.8,132.16c16.27-28.22,76.48-71.93,29-99C526.6,16.47,460.3,17,432.19,31.32,397.84,48.78,316,88.66,276.33,89.48c-35.51.74-61-10-86.87-26.39C150,38.09,103.65,22.27,52.69,48.48-6.86,79.11-2,138.27,33.37,178.94Z"/><path class="cls-3" d="M355.34,177.89a110.29,110.29,0,0,1,19.55,64.05.82.82,0,0,0,1.52.43,98.23,98.23,0,0,0,4.76-9.1,95.53,95.53,0,0,0,2-74.3,100.37,100.37,0,0,0-75.62-21,.82.82,0,0,0-.19,1.58A106.38,106.38,0,0,1,355.34,177.89Z"/><path class="cls-3" d="M391.79,237.93A108.1,108.1,0,0,1,344.43,289a.82.82,0,0,0,.4,1.54,94.4,94.4,0,0,0,15-1.15,99.82,99.82,0,0,0,61.35-35.06,100.83,100.83,0,0,0-19.69-76.65.81.81,0,0,0-1.45.62A107.86,107.86,0,0,1,391.79,237.93Z"/><path class="cls-3" d="M287.31,177.5a104.08,104.08,0,0,1,61.85,15.34.82.82,0,0,0,1.15-1.09c-1.4-2.46-2.91-4.86-4.51-7.19a95.37,95.37,0,0,0-63.68-40.18,102.71,102.71,0,0,0-56.38,55.21.82.82,0,0,0,1.26,1A112.59,112.59,0,0,1,287.31,177.5Z"/><path class="cls-3" d="M361.78,300.91a107.9,107.9,0,0,1-16.84,1.32,104.33,104.33,0,0,1-56.16-16.73.82.82,0,0,0-1.17,1.08,93.65,93.65,0,0,0,6.22,9.68A101.94,101.94,0,0,0,357.74,335a102.71,102.71,0,0,0,56.54-55.43.82.82,0,0,0-1.26-1A113.34,113.34,0,0,1,361.78,300.91Z"/><path class="cls-3" d="M284.68,303.31a102.35,102.35,0,0,1-20.28-65.7.82.82,0,0,0-1.52-.45c-1.48,2.46-2.86,5-4.11,7.59a96.83,96.83,0,0,0-2.48,74.78A100.82,100.82,0,0,0,333,341.24a.82.82,0,0,0,.19-1.57A113,113,0,0,1,284.68,303.31Z"/><path class="cls-3" d="M247.15,240.55A102.42,102.42,0,0,1,294,190.26a.82.82,0,0,0-.36-1.54q-4.32-.09-8.63.21A96.82,96.82,0,0,0,219,224a100.82,100.82,0,0,0,19.36,77.36.82.82,0,0,0,1.46-.62A113,113,0,0,1,247.15,240.55Z"/><path class="cls-4" d="M117.89,114.37a2.75,2.75,0,0,1-2.81,2.73h-4.17v-9.67h3.87a2.65,2.65,0,0,1,2.71,2.64,2.43,2.43,0,0,1-1,2A2.46,2.46,0,0,1,117.89,114.37Zm-5.7-5.74v3h2.59a1.48,1.48,0,0,0,0-3Zm4.43,5.7a1.55,1.55,0,0,0-1.54-1.57h-2.89v3.14h2.89A1.54,1.54,0,0,0,116.62,114.33Z"/><path class="cls-4" d="M120.7,107.43v9.67h-1.29v-9.67Z"/><path class="cls-4" d="M125.54,107.43h1.35l2.21,8,2.35-8h1.3l2.35,8,2.21-8h1.36l-2.78,9.67H134.4l-2.3-7.72-2.29,7.72h-1.49Z"/><path class="cls-4" d="M146,110.19v6.91h-1.2v-1.19a3,3,0,0,1-1.08,1,3.24,3.24,0,0,1-1.54.36,3.38,3.38,0,0,1-2.46-1,3.65,3.65,0,0,1-1-2.58,3.69,3.69,0,0,1,1-2.59,3.41,3.41,0,0,1,2.46-1,3.13,3.13,0,0,1,1.54.37,3,3,0,0,1,1.08,1v-1.19H146Zm-1.2,3.46a2.43,2.43,0,0,0-2.46-2.48,2.42,2.42,0,0,0-1.74.71,2.55,2.55,0,0,0,0,3.53,2.38,2.38,0,0,0,1.74.71,2.42,2.42,0,0,0,1.75-.71A2.47,2.47,0,0,0,144.83,113.65Z"/><path class="cls-4" d="M151.22,110.07v1.26a1.93,1.93,0,0,0-2.16,2.11v3.66h-1.2v-6.91h1.2v1.16A2.2,2.2,0,0,1,151.22,110.07Z"/><path class="cls-4" d="M155.37,116.15a2.59,2.59,0,0,0,1.22-.29,2.14,2.14,0,0,0,.77-.72l.51.29.51.29a3.38,3.38,0,0,1-1.23,1.14,3.84,3.84,0,0,1-1.81.42,3.73,3.73,0,0,1-2.69-1,3.59,3.59,0,0,1-1-2.59,3.68,3.68,0,0,1,1-2.59,3.58,3.58,0,0,1,2.62-1,3.29,3.29,0,0,1,2.5,1.1,3.82,3.82,0,0,1,.94,2.55c0,.09,0,.18,0,.27l0,.27h-5.8a2.33,2.33,0,0,0,.86,1.44A2.7,2.7,0,0,0,155.37,116.15Zm-2.51-3h4.62a2.34,2.34,0,0,0-.8-1.51,2.23,2.23,0,0,0-1.42-.49,2.43,2.43,0,0,0-1.61.55A2.34,2.34,0,0,0,152.86,113.15Z"/><path class="cls-4" d="M166.21,112.86v4.24H165v-4.17a1.59,1.59,0,0,0-1.71-1.77c-1.11,0-2,.65-2,2.28v3.66h-1.21v-9.67h1.21v3.76a2.45,2.45,0,0,1,2.24-1.18A2.58,2.58,0,0,1,166.21,112.86Z"/><path class="cls-4" d="M167.5,113.65a3.65,3.65,0,1,1,3.63,3.63,3.6,3.6,0,0,1-3.63-3.63Zm6.08,0a2.49,2.49,0,0,0-.71-1.76,2.5,2.5,0,0,0-3.47,0,2.48,2.48,0,0,0-.7,1.76,2.44,2.44,0,1,0,4.88,0Z"/><path class="cls-4" d="M182.18,110.19v6.91H181v-1a2.48,2.48,0,0,1-2.24,1.17,2.58,2.58,0,0,1-2.68-2.84v-4.25h1.2v4.18a1.59,1.59,0,0,0,1.71,1.77c1.11,0,2-.65,2-2.28v-3.67Z"/><path class="cls-4" d="M188.9,115.21a1.88,1.88,0,0,1-.74,1.52,3,3,0,0,1-1.85.55,3.26,3.26,0,0,1-1.74-.45,2.52,2.52,0,0,1-1-1.16l.52-.3.52-.3a1.52,1.52,0,0,0,.62.79,2,2,0,0,0,1.09.29,1.89,1.89,0,0,0,1-.22.79.79,0,0,0,.41-.72c0-.74-1-.9-1.93-1.19s-1.94-.7-1.94-2a1.9,1.9,0,0,1,.7-1.48,2.69,2.69,0,0,1,1.75-.58,2.91,2.91,0,0,1,1.5.39,2.39,2.39,0,0,1,1,1l-.51.28-.5.29a1.4,1.4,0,0,0-.61-.68,1.86,1.86,0,0,0-.87-.21,1.59,1.59,0,0,0-.85.23.82.82,0,0,0-.38.7c0,.74,1,.89,1.93,1.18S188.9,113.94,188.9,115.21Z"/><path class="cls-4" d="M193.48,116.15a2.59,2.59,0,0,0,1.22-.29,2.06,2.06,0,0,0,.77-.72l.51.29.51.29a3.38,3.38,0,0,1-1.23,1.14,3.84,3.84,0,0,1-1.81.42,3.73,3.73,0,0,1-2.69-1,3.63,3.63,0,0,1-1-2.59,3.67,3.67,0,0,1,1-2.59,3.58,3.58,0,0,1,2.62-1,3.29,3.29,0,0,1,2.5,1.1,3.82,3.82,0,0,1,.94,2.55c0,.09,0,.18,0,.27l0,.27H191a2.28,2.28,0,0,0,.85,1.44A2.7,2.7,0,0,0,193.48,116.15Zm-2.5-3h4.61a2.34,2.34,0,0,0-.8-1.51,2.21,2.21,0,0,0-1.42-.49,2.43,2.43,0,0,0-1.61.55A2.33,2.33,0,0,0,191,113.15Z"/><path class="cls-3" d="M156.3,22.41c-16.77,0-30.36,4.62-30.36,10.32V83.27c0,5.7,13.59,10.31,30.36,10.31S186.66,89,186.66,83.27V32.73C186.66,27,173.07,22.41,156.3,22.41Z"/><path class="cls-5" d="M151.68,17.17c-16.77,0-30.36,4.61-30.36,10.31V78c0,5.7,13.59,10.32,30.36,10.32S182,83.72,182,78V27.48C182,21.78,168.45,17.17,151.68,17.17Z"/><path class="cls-5" d="M182,27.48c0,5.7-13.59,10.31-30.36,10.31s-30.36-4.61-30.36-10.31"/><path class="cls-5" d="M182,44.33c0,5.69-13.59,10.31-30.36,10.31S121.32,50,121.32,44.33"/><path class="cls-5" d="M182,61.17c0,5.7-13.59,10.32-30.36,10.32s-30.36-4.62-30.36-10.32"/><path class="cls-4" d="M485.21,108.64v3.14h4.11V113h-4.11v4.1h-1.28v-9.67h5.57v1.21Z"/><path class="cls-4" d="M490.73,108.13a.81.81,0,1,1,1.62,0,.81.81,0,0,1-1.62,0Zm.21,2.06h1.2v6.91h-1.2Z"/><path class="cls-4" d="M494,107h1.2V117.1H494Z"/><path class="cls-4" d="M500.37,116.15a2.59,2.59,0,0,0,1.22-.29,2.14,2.14,0,0,0,.77-.72l.51.29.51.29a3.27,3.27,0,0,1-1.23,1.13,4,4,0,0,1-4.5-.61,3.61,3.61,0,0,1-1-2.59,3.68,3.68,0,0,1,1-2.59,3.58,3.58,0,0,1,2.62-1,3.29,3.29,0,0,1,2.5,1.1,3.82,3.82,0,0,1,.94,2.55c0,.09,0,.18,0,.27l0,.27h-5.8a2.33,2.33,0,0,0,.86,1.44A2.7,2.7,0,0,0,500.37,116.15Zm-2.51-3h4.62a2.19,2.19,0,0,0-2.22-2A2.31,2.31,0,0,0,497.86,113.15Z"/><path class="cls-4" d="M509.71,115.21a1.87,1.87,0,0,1-.73,1.52,3,3,0,0,1-1.85.55,3.23,3.23,0,0,1-1.74-.45,2.46,2.46,0,0,1-1-1.16l.52-.3.52-.3a1.5,1.5,0,0,0,.61.79,2,2,0,0,0,1.1.29,1.89,1.89,0,0,0,1-.22.79.79,0,0,0,.41-.72c0-.74-1-.9-1.94-1.19s-1.93-.7-1.93-2a1.86,1.86,0,0,1,.7-1.48,2.66,2.66,0,0,1,1.74-.58,3.07,3.07,0,0,1,1.51.38,2.51,2.51,0,0,1,1,1.06l-.5.28-.51.29a1.36,1.36,0,0,0-.61-.68,1.83,1.83,0,0,0-.87-.21,1.55,1.55,0,0,0-.84.23.83.83,0,0,0-.39.7c0,.74,1,.89,1.94,1.17S509.71,113.94,509.71,115.21Z"/><path class="cls-6" d="M530.13,40.25a4.44,4.44,0,0,0-1.32-3.15l-12.5-12.31a4.41,4.41,0,0,0-3.1-1.28H468.15A2.49,2.49,0,0,0,465.66,26V97a2.48,2.48,0,0,0,2.49,2.48h59.49A2.48,2.48,0,0,0,530.13,97Z"/><path class="cls-5" d="M505.05,17.33V33.81a2,2,0,0,0,2,2h16.26"/><path class="cls-5" d="M523.92,36V91.23a3,3,0,0,1-2.95,3h-55a3,3,0,0,1-2.95-3V20.12a3,3,0,0,1,2.95-2.95h39.59a1.31,1.31,0,0,1,1,.4l17.07,17.54A1.35,1.35,0,0,1,523.92,36Z"/><line class="cls-7" x1="424.29" y1="370.91" x2="389.14" y2="335.76"/><line class="cls-7" x1="215.71" y1="370.91" x2="250.86" y2="335.76"/><line class="cls-7" x1="424.29" y1="116.4" x2="389.14" y2="151.55"/><line class="cls-7" x1="215.71" y1="116.4" x2="250.86" y2="151.55"/><line class="cls-7" x1="485.69" y1="239.6" x2="428.11" y2="239.6"/><line class="cls-7" x1="154.31" y1="239.6" x2="211.89" y2="239.6"/><path class="cls-4" d="M95.06,287.58H90.71l-.79,2.17H88.55l3.61-9.68h1.45l3.61,9.68H95.85Zm-.44-1.21-1.74-4.76-1.73,4.76Z"/><path class="cls-4" d="M105,283.18a3.06,3.06,0,0,1-3.13,3.11H99.66v3.46H98.37v-9.68h3.51A3.05,3.05,0,0,1,105,283.18Zm-1.28,0a1.82,1.82,0,0,0-1.85-1.91H99.66v3.82h2.22A1.83,1.83,0,0,0,103.73,283.18Z"/><path class="cls-4" d="M107.82,280.07v9.68h-1.29v-9.68Z"/><path class="cls-4" d="M114.67,287.85c0,1.29-1.1,2.08-2.58,2.08a2.81,2.81,0,0,1-2.75-1.62l1-.59a1.69,1.69,0,0,0,1.72,1.07c.73,0,1.37-.26,1.37-.94,0-1.48-3.87-.63-3.87-3.13a2.2,2.2,0,0,1,2.44-2.06,2.66,2.66,0,0,1,2.49,1.43l-1,.57a1.52,1.52,0,0,0-1.48-.88c-.62,0-1.23.3-1.23.92C110.8,286.18,114.67,285.31,114.67,287.85Z"/><path class="cls-8" d="M143.62,214.21a2.52,2.52,0,0,0-2.52-2.52H66.4a2.52,2.52,0,0,0-2.52,2.52v55a2.52,2.52,0,0,0,2.52,2.52h74.7a2.52,2.52,0,0,0,2.52-2.52v-55Z"/><path class="cls-5" d="M137.75,222.2v41.92a1.65,1.65,0,0,1-1.66,1.65H62.22a1.65,1.65,0,0,1-1.66-1.65V222.2Z"/><path class="cls-5" d="M60.56,222.2V209.71a1.65,1.65,0,0,1,1.66-1.65h73.87a1.65,1.65,0,0,1,1.66,1.65V222.2"/><line class="cls-5" x1="93.56" y1="254.36" x2="105.3" y2="232.3"/><path class="cls-5" d="M109.77,253.52l11.23-9.1a1.25,1.25,0,0,0,0-2.17l-11.23-9.1"/><path class="cls-5" d="M88.54,253.52l-11.23-9.1a1.25,1.25,0,0,1,0-2.17l11.23-9.1"/><path class="cls-4" d="M77.51,216.27h0a1.14,1.14,0,0,1,0-2.27,1.15,1.15,0,0,1,1.15,1.13A1.12,1.12,0,0,1,77.51,216.27Z"/><path class="cls-4" d="M73.22,216.27h0a1.14,1.14,0,1,1,1.15-1.14A1.12,1.12,0,0,1,73.22,216.27Z"/><path class="cls-4" d="M68.94,216.27h0a1.14,1.14,0,1,1,1.15-1.14A1.12,1.12,0,0,1,68.94,216.27Z"/><path class="cls-4" d="M526.56,288.53v1.22h-5.78v-9.68h5.71v1.22h-4.42v3h4.07v1.2h-4.07v3.07Z"/><path class="cls-4" d="M538.05,285.45v4.3h-1.2v-4.26a1.49,1.49,0,0,0-1.52-1.69c-1,0-1.7.61-1.7,2.11v3.84h-1.21v-4.26c0-1.09-.56-1.69-1.46-1.69s-1.77.61-1.77,2.11v3.84H528v-6.91h1.2v.92a2.31,2.31,0,0,1,2.06-1.1,2.16,2.16,0,0,1,2,1.17,2.43,2.43,0,0,1,2.17-1.17A2.53,2.53,0,0,1,538.05,285.45Z"/><path class="cls-4" d="M546.65,282.84v6.91h-1.2v-1.19a3,3,0,0,1-2.61,1.37,3.64,3.64,0,0,1,0-7.27,3,3,0,0,1,2.61,1.36v-1.18Zm-1.2,3.45a2.46,2.46,0,1,0-2.46,2.48A2.41,2.41,0,0,0,545.45,286.29Z"/><path class="cls-4" d="M548.27,280.78a.81.81,0,1,1,1.62,0,.81.81,0,0,1-1.62,0Zm.21,2.06h1.2v6.91h-1.2Z"/><path class="cls-4" d="M551.52,279.66h1.21v10.09h-1.21Z"/><path class="cls-3" d="M575,210.6H502.46A4.42,4.42,0,0,0,498,215v49.26a4.42,4.42,0,0,0,4.42,4.42H575a4.43,4.43,0,0,0,4.42-4.42V215A4.43,4.43,0,0,0,575,210.6Z"/><rect class="cls-5" x="493.96" y="207.57" width="80.08" height="56.1" rx="2.8"/><path class="cls-5" d="M565.52,216.67,537.25,233.5a6.35,6.35,0,0,1-6.49,0l-28.28-16.83"/><path class="cls-8" d="M519.36,377h-75a2.79,2.79,0,0,0-2.78,2.79V438.5a2.79,2.79,0,0,0,2.78,2.79h75a2.79,2.79,0,0,0,2.78-2.79V379.81A2.79,2.79,0,0,0,519.36,377Z"/><line class="cls-5" x1="445.43" y1="401.77" x2="512.77" y2="401.77"/><line class="cls-5" x1="445.43" y1="410.91" x2="512.77" y2="410.91"/><line class="cls-5" x1="445.43" y1="420.06" x2="512.77" y2="420.06"/><path class="cls-5" d="M520.31,388.35v44.76a1.76,1.76,0,0,1-1.77,1.76H439.66a1.76,1.76,0,0,1-1.77-1.76V388.35Z"/><path class="cls-5" d="M437.89,388.35V375a1.77,1.77,0,0,1,1.77-1.77h78.88a1.77,1.77,0,0,1,1.77,1.77v13.33"/><path class="cls-4" d="M455.3,382h0a1.21,1.21,0,0,1,0-2.42,1.22,1.22,0,0,1,1.23,1.21A1.19,1.19,0,0,1,455.3,382Z"/><path class="cls-4" d="M450.42,382h0a1.21,1.21,0,1,1,0-2.42,1.22,1.22,0,0,1,1.23,1.21A1.2,1.2,0,0,1,450.42,382Z"/><path class="cls-4" d="M445.55,382h0a1.21,1.21,0,1,1,1.22-1.21A1.19,1.19,0,0,1,445.55,382Z"/><path class="cls-4" d="M131.86,460.5H127.5l-.79,2.17h-1.36L129,453h1.46l3.6,9.67h-1.37Zm-.45-1.2-1.74-4.77-1.73,4.77Z"/><path class="cls-4" d="M135,452.58h1.2v10.09H135Z"/><path class="cls-4" d="M138.08,452.58h1.2v10.09h-1.2Z"/><path class="cls-4" d="M153.07,457.83a4.62,4.62,0,0,1-4.59,4.84h-3.77V453h3.77A4.62,4.62,0,0,1,153.07,457.83Zm-1.23,0a3.39,3.39,0,0,0-3.36-3.62H146v7.25h2.49A3.39,3.39,0,0,0,151.84,457.83Z"/><path class="cls-4" d="M157.86,461.72a2.59,2.59,0,0,0,1.22-.29,2.14,2.14,0,0,0,.77-.72l.51.29.51.29a3.27,3.27,0,0,1-1.23,1.13,4,4,0,0,1-4.5-.61,3.64,3.64,0,0,1,2.61-6.23,3.29,3.29,0,0,1,2.5,1.1,3.82,3.82,0,0,1,.94,2.55c0,.09,0,.18,0,.27l0,.27h-5.8a2.29,2.29,0,0,0,.86,1.44A2.7,2.7,0,0,0,157.86,461.72Zm-2.51-3H160a2.34,2.34,0,0,0-.8-1.52,2.23,2.23,0,0,0-1.42-.49,2.48,2.48,0,0,0-1.62.56A2.38,2.38,0,0,0,155.35,458.72Z"/><path class="cls-4" d="M168.43,455.76l-2.76,6.91h-1.41l-2.77-6.91h1.3l2.17,5.63,2.17-5.63Z"/><path class="cls-4" d="M169.25,453.7a.81.81,0,1,1,1.62,0,.81.81,0,0,1-1.62,0Zm.21,2.06h1.2v6.91h-1.2Z"/><path class="cls-4" d="M172.11,459.22a3.57,3.57,0,0,1,3.64-3.64,3.34,3.34,0,0,1,3.06,1.81l-1,.58a2.22,2.22,0,0,0-2.05-1.21,2.45,2.45,0,0,0,0,4.9,2.32,2.32,0,0,0,2.09-1.2l1,.6a3.52,3.52,0,0,1-3.11,1.79A3.56,3.56,0,0,1,172.11,459.22Z"/><path class="cls-4" d="M183.3,461.72a2.53,2.53,0,0,0,1.22-.29,2,2,0,0,0,.77-.72l.51.29.51.29a3.2,3.2,0,0,1-1.23,1.13,3.73,3.73,0,0,1-1.81.43,3.69,3.69,0,0,1-2.68-1,3.63,3.63,0,0,1,2.6-6.23,3.29,3.29,0,0,1,2.5,1.1,3.82,3.82,0,0,1,.94,2.55,2.44,2.44,0,0,1,0,.27l0,.27H180.8a2.29,2.29,0,0,0,.86,1.44A2.67,2.67,0,0,0,183.3,461.72Zm-2.5-3h4.62a2.39,2.39,0,0,0-.81-1.52,2.21,2.21,0,0,0-1.42-.49,2.44,2.44,0,0,0-1.61.56A2.33,2.33,0,0,0,180.8,458.72Z"/><path class="cls-4" d="M192.65,460.78a1.88,1.88,0,0,1-.74,1.52,3,3,0,0,1-1.85.55,3.23,3.23,0,0,1-1.74-.45,2.46,2.46,0,0,1-1-1.16l.52-.3.52-.3a1.47,1.47,0,0,0,.62.79,2,2,0,0,0,1.09.29,1.89,1.89,0,0,0,1-.22.79.79,0,0,0,.41-.72c0-.74-1-.9-1.93-1.19s-1.94-.7-1.94-1.95a1.9,1.9,0,0,1,.7-1.49,2.74,2.74,0,0,1,1.75-.57,3,3,0,0,1,1.5.38,2.53,2.53,0,0,1,1,1.06l-.51.28-.5.29a1.32,1.32,0,0,0-.61-.68,1.86,1.86,0,0,0-.87-.21,1.59,1.59,0,0,0-.85.23.81.81,0,0,0-.38.7c0,.74,1,.89,1.93,1.17S192.65,459.51,192.65,460.78Z"/><path class="cls-4" d="M449.6,457.83a4.62,4.62,0,0,1-4.59,4.84h-3.77V453H445A4.62,4.62,0,0,1,449.6,457.83Zm-1.23,0a3.39,3.39,0,0,0-3.36-3.62h-2.49v7.25H445A3.39,3.39,0,0,0,448.37,457.83Z"/><path class="cls-4" d="M458,455.76v6.91h-1.21v-1.19a2.78,2.78,0,0,1-1.07,1,3.16,3.16,0,0,1-1.54.37,3.45,3.45,0,0,1-2.47-1.05,3.76,3.76,0,0,1,0-5.17,3.45,3.45,0,0,1,2.47-1.05,3.16,3.16,0,0,1,1.54.37,2.93,2.93,0,0,1,1.07,1v-1.19H458Zm-1.21,3.46a2.41,2.41,0,0,0-2.46-2.48,2.44,2.44,0,0,0-1.74.71,2.58,2.58,0,0,0,0,3.53,2.4,2.4,0,0,0,1.74.71,2.43,2.43,0,0,0,1.76-.71A2.46,2.46,0,0,0,456.76,459.22Z"/><path class="cls-4" d="M464.69,460.78a1.88,1.88,0,0,1-.74,1.52,3,3,0,0,1-1.85.55,3.23,3.23,0,0,1-1.74-.45,2.52,2.52,0,0,1-1-1.16l.52-.3.52-.3a1.47,1.47,0,0,0,.62.79,2,2,0,0,0,1.09.29,1.89,1.89,0,0,0,1-.22.79.79,0,0,0,.41-.72c0-.74-1-.9-1.93-1.19s-1.94-.7-1.94-1.95a1.9,1.9,0,0,1,.7-1.49,2.74,2.74,0,0,1,1.75-.57,3,3,0,0,1,1.5.38,2.47,2.47,0,0,1,1,1.06l-.51.28-.5.29a1.32,1.32,0,0,0-.61-.68,1.86,1.86,0,0,0-.87-.21,1.59,1.59,0,0,0-.85.23.81.81,0,0,0-.38.7c0,.74,1,.89,1.93,1.17S464.69,459.51,464.69,460.78Z"/><path class="cls-4" d="M472.17,458.43v4.24H471V458.5a1.59,1.59,0,0,0-1.72-1.77c-1.1,0-2,.65-2,2.28v3.66h-1.2V453h1.2v3.76a2.45,2.45,0,0,1,2.24-1.18A2.58,2.58,0,0,1,472.17,458.43Z"/><path class="cls-4" d="M481.16,459.22a3.69,3.69,0,0,1-1,2.58,3.44,3.44,0,0,1-2.47,1.05,3.16,3.16,0,0,1-1.54-.37,2.78,2.78,0,0,1-1.07-1v1.19h-1.2V453h1.2V457a2.93,2.93,0,0,1,1.07-1,3.16,3.16,0,0,1,1.54-.37,3.44,3.44,0,0,1,2.47,1.05A3.7,3.7,0,0,1,481.16,459.22Zm-1.2,0a2.48,2.48,0,0,0-.71-1.77,2.44,2.44,0,0,0-1.74-.71,2.41,2.41,0,0,0-2.46,2.48,2.41,2.41,0,0,0,2.46,2.47,2.4,2.4,0,0,0,1.74-.71A2.47,2.47,0,0,0,480,459.22Z"/><path class="cls-4" d="M482.21,459.22a3.65,3.65,0,1,1,7.29,0,3.6,3.6,0,0,1-1.07,2.58,3.64,3.64,0,0,1-6.22-2.58Zm6.08,0a2.46,2.46,0,0,0-.7-1.76,2.43,2.43,0,0,0-1.74-.7,2.39,2.39,0,0,0-1.73.7,2.52,2.52,0,0,0,0,3.51,2.4,2.4,0,0,0,1.73.71,2.41,2.41,0,0,0,2.44-2.46Z"/><path class="cls-4" d="M497.85,455.76v6.91h-1.2v-1.19a2.87,2.87,0,0,1-1.08,1,3.13,3.13,0,0,1-1.54.37,3.45,3.45,0,0,1-2.47-1.05,3.79,3.79,0,0,1,0-5.17,3.45,3.45,0,0,1,2.47-1.05,3.13,3.13,0,0,1,1.54.37,3,3,0,0,1,1.08,1v-1.19h1.2Zm-1.2,3.46a2.43,2.43,0,0,0-2.46-2.48,2.44,2.44,0,0,0-1.75.71,2.58,2.58,0,0,0,0,3.53,2.51,2.51,0,0,0,3.5,0A2.47,2.47,0,0,0,496.65,459.22Z"/><path class="cls-4" d="M503,455.64v1.25a1.94,1.94,0,0,0-2.16,2.12v3.66h-1.2v-6.91h1.2v1.16A2.19,2.19,0,0,1,503,455.64Z"/><path class="cls-4" d="M510.77,453v9.67h-1.21v-1.19a2.78,2.78,0,0,1-1.07,1,3.16,3.16,0,0,1-1.54.37,3.45,3.45,0,0,1-2.47-1.05,3.76,3.76,0,0,1,0-5.17,3.45,3.45,0,0,1,2.47-1.05,3.16,3.16,0,0,1,1.54.37,2.93,2.93,0,0,1,1.07,1V453h1.21Zm-1.21,6.22a2.41,2.41,0,0,0-2.46-2.48,2.44,2.44,0,0,0-1.74.71,2.58,2.58,0,0,0,0,3.53,2.4,2.4,0,0,0,1.74.71,2.43,2.43,0,0,0,1.76-.71A2.46,2.46,0,0,0,509.56,459.22Z"/><path class="cls-4" d="M517.49,460.78a1.88,1.88,0,0,1-.74,1.52,3,3,0,0,1-1.85.55,3.23,3.23,0,0,1-1.74-.45,2.46,2.46,0,0,1-1-1.16l.52-.3.52-.3a1.47,1.47,0,0,0,.62.79,2,2,0,0,0,1.09.29,1.89,1.89,0,0,0,1-.22.79.79,0,0,0,.41-.72c0-.74-1-.9-1.93-1.19s-1.94-.7-1.94-1.95a1.9,1.9,0,0,1,.7-1.49,2.74,2.74,0,0,1,1.75-.57,3.06,3.06,0,0,1,1.5.38,2.51,2.51,0,0,1,1,1.06l-.5.28-.5.29a1.36,1.36,0,0,0-.61-.68,1.89,1.89,0,0,0-.87-.21,1.59,1.59,0,0,0-.85.23.81.81,0,0,0-.38.7c0,.74,1,.89,1.93,1.17S517.49,459.51,517.49,460.78Z"/><path class="cls-6" d="M191.74,440m6.54.87h10a4.39,4.39,0,0,0,4.14-4.74v-23.5a4.5,4.5,0,0,0-4.21-4.74h-4.09V383.07a4,4,0,0,0-4-4H118.27a4,4,0,0,0-4,4v51.78h-3.74a.87.87,0,0,0-.87.88v1a3.94,3.94,0,0,0,3.74,4.11h84.85Z"/><g class="cls-9"><line class="cls-1" x1="206.96" y1="430.62" x2="190.34" y2="430.62"/><line class="cls-1" x1="206.96" y1="409.17" x2="190.34" y2="409.17"/></g><path class="cls-1" d="M203.61,404.21a3.63,3.63,0,0,1,3.34,3.86v23.51a3.53,3.53,0,0,1-3.34,3.87h-9.94a3.63,3.63,0,0,1-3.33-3.87V408.07a3.63,3.63,0,0,1,3.33-3.86Z"/><path class="cls-1" d="M110.56,429.68V378.57a3.1,3.1,0,0,1,3.1-3.1h81.88a3.1,3.1,0,0,1,3.11,3.1v21.19"/><path class="cls-1" d="M186.26,435.45H108.83a3.08,3.08,0,0,1-2.88-3.24v-1h80.31"/><line class="cls-1" x1="158.03" y1="381.28" x2="151.18" y2="381.28"/></g></svg>