<svg xmlns="http://www.w3.org/2000/svg" viewBox="0 0 40 40"><defs><style>.cls-1{fill:#4c4fee;}.cls-2{fill:#2c3543;}</style></defs><title>blacklistsecurity-40x40-colorspot-outlinesindigo</title><g id="Layer_7" data-name="Layer 7"><circle class="cls-1" cx="31.034" cy="30.243" r="7.723"/></g><g id="Layer_1" data-name="Layer 1"><path class="cls-2" d="M20,28.89a8.846,8.846,0,0,1-6.129-2.459A.717.717,0,0,1,13.7,26.3a1.355,1.355,0,0,1-.181-.228A8.762,8.762,0,0,1,11.11,20a8.884,8.884,0,0,1,15.019-6.431.7.7,0,0,1,.168.134,1.3,1.3,0,0,1,.158.194A8.883,8.883,0,0,1,20,28.89Zm0-17.03a8.133,8.133,0,0,0-5.888,13.751,1.115,1.115,0,0,0,.122.155.511.511,0,0,0,.1.076A8.14,8.14,0,0,0,28.14,20a8.1,8.1,0,0,0-2.252-5.611.444.444,0,0,1-.046-.059.46.46,0,0,0-.076-.1.5.5,0,0,0-.1-.076A8.185,8.185,0,0,0,20,11.86Zm0,15.167a6.962,6.962,0,0,1-4.222-1.413.377.377,0,0,1-.039-.566l9.31-9.31a.356.356,0,0,1,.291-.109.379.379,0,0,1,.274.149A6.962,6.962,0,0,1,27.027,20,7.035,7.035,0,0,1,20,27.027Zm-3.416-1.763A6.208,6.208,0,0,0,20,26.277,6.284,6.284,0,0,0,26.277,20a6.21,6.21,0,0,0-1.013-3.416Zm-1.9-.892H14.66a.379.379,0,0,1-.274-.149A6.962,6.962,0,0,1,12.973,20,7.035,7.035,0,0,1,20,12.973a6.962,6.962,0,0,1,4.222,1.413.377.377,0,0,1,.039.566l-9.31,9.31A.376.376,0,0,1,14.686,24.372ZM20,13.723A6.284,6.284,0,0,0,13.723,20a6.2,6.2,0,0,0,1.013,3.415l8.68-8.679A6.208,6.208,0,0,0,20,13.723Z"/><path class="cls-2" d="M20,39.264c-4.366,0-16.084-12.142-16.084-18V7.121A2.53,2.53,0,0,1,5.748,4.7L19.309.832a2.535,2.535,0,0,1,1.382,0L34.252,4.7a2.53,2.53,0,0,1,1.832,2.425V21.264C36.084,27.122,24.366,39.264,20,39.264ZM20,1.486a1.792,1.792,0,0,0-.486.067L5.953,5.416A1.781,1.781,0,0,0,4.666,7.121V21.264c0,2.432,2.388,6.525,6.231,10.682,3.575,3.867,7.319,6.568,9.1,6.568s5.528-2.7,9.1-6.568c3.844-4.157,6.231-8.25,6.231-10.682V7.121a1.781,1.781,0,0,0-1.287-1.7L20.486,1.553A1.792,1.792,0,0,0,20,1.486Z"/></g></svg>