<svg xmlns="http://www.w3.org/2000/svg" viewBox="0 0 40 40"><defs><style>.cls-1{fill:#3088f4;}.cls-2{fill:#2c3543;}</style></defs><title>budgetmanagement.ROI.ROAS-40x40-colorspot-outlinesblue</title><g id="Layer_7" data-name="Layer 7"><circle class="cls-1" cx="31.034" cy="30.243" r="7.723"/></g><g id="Layer_1" data-name="Layer 1"><path class="cls-2" d="M20.614,35.162c-.213,0-.425,0-.639-.012a15.19,15.19,0,1,1,.639.012ZM20.6,5.588A14.412,14.412,0,1,0,35.006,20.6l.374.016-.374-.016a14.428,14.428,0,0,0-13.8-15Q20.9,5.587,20.6,5.588Z"/><path class="cls-2" d="M20.209,30.582h-.044a1.082,1.082,0,0,1-1.037-1.128l.043-1.034a6.156,6.156,0,0,1-4.551-3.25,1.413,1.413,0,0,1,2.511-1.294,3.722,3.722,0,0,0,3.4,1.882c1.879.076,2.988-.627,3.043-1.933s-1.031-1.842-3.347-2.667c-2.532-.933-5.146-1.9-5.013-5.1a4.764,4.764,0,0,1,4.668-4.591l.04-1.008a1.076,1.076,0,0,1,.349-.752,1.052,1.052,0,0,1,.779-.285,1.083,1.083,0,0,1,1.037,1.128l-.045,1.079a5.956,5.956,0,0,1,3.709,2.687,1.387,1.387,0,1,1-2.355,1.465,3.214,3.214,0,0,0-2.768-1.558c-1.5-.079-2.517.669-2.567,1.863-.049,1.172.731,1.666,2.951,2.472l.106.04c2.662,1,5.415,2.028,5.278,5.3-.109,2.641-2.082,4.435-5.06,4.644l-.041,1A1.086,1.086,0,0,1,20.209,30.582Zm-4.317-6.708a.614.614,0,0,0-.288.072.656.656,0,0,0-.315.884,5.5,5.5,0,0,0,4.327,2.9.374.374,0,0,1,.32.411l-.059,1.342a.325.325,0,0,0,.088.239.333.333,0,0,0,.578-.212l.055-1.325a.378.378,0,0,1,.364-.379c2.79-.078,4.584-1.589,4.682-3.943h0c.114-2.73-2.16-3.581-4.793-4.568l-.1-.038c-2.06-.748-3.515-1.416-3.44-3.207.067-1.625,1.417-2.683,3.347-2.582a3.978,3.978,0,0,1,3.376,1.915.641.641,0,0,0,.834.229.63.63,0,0,0,.318-.4.637.637,0,0,0-.074-.51,5.225,5.225,0,0,0-3.534-2.413.377.377,0,0,1-.3-.416l.063-1.362a.332.332,0,0,0-.089-.24.324.324,0,0,0-.231-.107.282.282,0,0,0-.239.087.334.334,0,0,0-.108.232l-.055,1.325a.379.379,0,0,1-.36.38c-2.059.071-4.185,1.3-4.293,3.893-.11,2.66,2.035,3.45,4.52,4.365,2.016.719,3.924,1.4,3.84,3.4-.056,1.356-1.093,2.762-3.824,2.652a4.479,4.479,0,0,1-4.026-2.276A.658.658,0,0,0,15.892,23.874ZM21.649,11.9Z"/><path class="cls-2" d="M20.619,39.054A19.023,19.023,0,0,1,6.291,32.588a.375.375,0,0,1,.563-.5,18.309,18.309,0,1,0-4.41-9.735.375.375,0,0,1-.324.42.382.382,0,0,1-.42-.325,19.074,19.074,0,1,1,18.919,16.6Z"/><path class="cls-2" d="M2.133,23.079a.382.382,0,0,1-.184-.047.377.377,0,0,1-.143-.511l1.019-1.809a.375.375,0,1,1,.653.367L2.46,22.888A.373.373,0,0,1,2.133,23.079Z"/><path class="cls-2" d="M2.133,23.079a.377.377,0,0,1-.263-.107l-1.428-1.4a.375.375,0,1,1,.525-.535l1.429,1.4a.375.375,0,0,1-.263.642Z"/></g></svg>