<svg xmlns="http://www.w3.org/2000/svg" viewBox="0 0 201 201"><defs><style>.cls-1{fill:#303742;}</style></defs><title>circle-blk-lines-thin-filler</title><g id="Layer_2" data-name="Layer 2"><g id="Layer_1-2" data-name="Layer 1"><path class="cls-1" d="M60.59,8.22c-1.2.52-2.39,1.06-3.57,1.63L9.85,57c-.57,1.18-1.11,2.37-1.63,3.57s-.93,2.19-1.37,3.31l57.05-57C62.79,7.29,61.68,7.75,60.59,8.22Z"/><path class="cls-1" d="M80.89,1.9c-.83.16-1.65.33-2.47.52l-76,76q-.27,1.2-.51,2.43c-.16.78-.31,1.57-.44,2.36L83.27,1.46C82.47,1.59,81.68,1.74,80.89,1.9Z"/><path class="cls-1" d="M96.7.06c-.69,0-1.38.05-2.06.09L.15,94.65c0,.68-.07,1.37-.09,2S0,98,0,98.68L98.7,0C98,0,97.37,0,96.7.06Z"/><path class="cls-1" d="M110.26.45l-1.8-.16L.29,108.47c.05.6.1,1.2.16,1.79s.12,1.17.19,1.75L112,.64Z"/><path class="cls-1" d="M122.33,2.36,120.72,2,2,120.73c.11.53.23,1.06.35,1.6s.23,1,.36,1.56L123.91,2.72Z"/><path class="cls-1" d="M133.23,5.43l-1.48-.5L4.94,131.76c.16.49.32,1,.49,1.47s.33,1,.51,1.44L134.67,5.94Q134,5.67,133.23,5.43Z"/><path class="cls-1" d="M143.16,9.46l-1.33-.63-133,133,.61,1.32.63,1.31L144.48,10.08Z"/><path class="cls-1" d="M152.27,14.32,151,13.59,13.59,151.05c.24.41.48.82.73,1.22s.48.8.73,1.19L153.48,15.05Z"/><path class="cls-1" d="M160.63,19.93c-.37-.28-.76-.56-1.14-.83L19.1,159.5c.28.38.55.76.83,1.13s.55.73.83,1.09l141-140.95Z"/><path class="cls-1" d="M168.27,26.25l-1-.92L25.33,167.24c.3.35.61.69.92,1l.93,1L169.28,27.19Z"/><path class="cls-1" d="M175.23,33.26l-.94-1L32.24,174.3l1,.93,1,.92L176.15,34.29Z"/><path class="cls-1" d="M181.51,41c-.28-.38-.56-.76-.85-1.13L39.83,180.66c.37.29.75.57,1.13.85l1.11.81L182.32,42.08Z"/><path class="cls-1" d="M187.06,49.36c-.24-.41-.48-.82-.73-1.23L48.14,186.33c.4.25.81.49,1.22.73s.81.49,1.22.72l137.2-137.2C187.55,50.17,187.3,49.76,187.06,49.36Z"/><path class="cls-1" d="M191.87,58.52c-.2-.45-.41-.89-.62-1.33l-134,134.07,1.31.61,1.33.6L192.48,59.86C192.28,59.41,192.08,59,191.87,58.52Z"/><path class="cls-1" d="M195.84,68.52c-.16-.48-.33-1-.5-1.44L67.07,195.34l1.45.5,1.46.48L196.32,70C196.17,69.51,196,69,195.84,68.52Z"/><path class="cls-1" d="M198.83,79.49c-.11-.53-.22-1.07-.34-1.59L77.89,198.48c.53.13,1.07.24,1.6.35s1.06.22,1.6.33L199.16,81.1C199.06,80.56,199,80,198.83,79.49Z"/><path class="cls-1" d="M200.65,91.65c-.06-.6-.11-1.2-.17-1.79L89.86,200.48l1.79.17,1.78.14L200.79,93.44C200.75,92.84,200.7,92.25,200.65,91.65Z"/><path class="cls-1" d="M103.31,201l2-.08,2-.12,93.41-93.39c0-.69.09-1.38.12-2.06s.06-1.37.08-2Z"/><path class="cls-1" d="M118.93,199.35c.81-.15,1.62-.31,2.42-.48h0c.84-.18,1.67-.36,2.5-.56l74.46-74.45c.2-.83.38-1.67.56-2.51s.33-1.62.48-2.43Z"/><path class="cls-1" d="M138.74,193.51c1.15-.48,2.3-1,3.43-1.49s2.5-1.17,3.73-1.79l44.32-44.31c.63-1.24,1.23-2.48,1.8-3.75s1-2.28,1.49-3.44Z"/></g></g></svg>