<svg xmlns="http://www.w3.org/2000/svg" viewBox="0 0 40 40"><defs><style>.cls-1{fill:#4c4fee;}.cls-2{fill:#2c3543;}</style></defs><title>CTR.clickthroughrate-40x40-colorspot-outlinesindigo</title><g id="Layer_7" data-name="Layer 7"><circle class="cls-1" cx="31.034" cy="30.243" r="7.723"/></g><g id="Layer_1" data-name="Layer 1"><path class="cls-2" d="M31.843,35.5H25.448a.375.375,0,0,1,0-.75h6.4a.278.278,0,0,0,.278-.278V2.969a.278.278,0,0,0-.278-.279H8.157a.278.278,0,0,0-.278.279v31.5a.278.278,0,0,0,.278.278h9.582a.375.375,0,0,1,0,.75H8.157a1.029,1.029,0,0,1-1.028-1.028V2.969A1.029,1.029,0,0,1,8.157,1.94H31.843a1.029,1.029,0,0,1,1.028,1.029v31.5A1.029,1.029,0,0,1,31.843,35.5Z"/><path class="cls-2" d="M29.739,25.917H10.261a.375.375,0,0,1-.375-.375V6.064a.375.375,0,0,1,.375-.375H29.739a.375.375,0,0,1,.375.375V25.542A.375.375,0,0,1,29.739,25.917Zm-19.1-.75H29.364V6.439H10.636Z"/><path class="cls-2" d="M21.976,14.3a.372.372,0,0,1,.32.179l.041.064.015.021,4.022,6.556H14.051l2.4-3.752.021.032.85,1.345a.968.968,0,0,0,1.637,0l2.7-4.266a.373.373,0,0,1,.32-.179m0-.75a1.122,1.122,0,0,0-.953.528l-2.7,4.266a.218.218,0,0,1-.369,0L17.1,16.985l-.01-.013-.008-.013a.739.739,0,0,0-.447-.333.746.746,0,0,0-.168-.019.711.711,0,0,0-.6.333l-2.963,4.6a.218.218,0,0,0,.184.336H27.324a.218.218,0,0,0,.186-.332l-4.534-7.39-.015-.021-.031-.049a1.124,1.124,0,0,0-.954-.528Z"/><path class="cls-2" d="M18.306,12.1a.879.879,0,1,1-.879.879.879.879,0,0,1,.879-.879m0-.75a1.629,1.629,0,1,0,1.628,1.629,1.629,1.629,0,0,0-1.628-1.629Z"/><path class="cls-2" d="M25.122,32.218h-.729a.375.375,0,1,1,0-.75h.729l-.049-2.515L14.747,29l.049,2.515,2.943-.049a.375.375,0,0,1,0,.75H14.747a.7.7,0,0,1-.7-.7V28.953a.7.7,0,0,1,.7-.7H25.122a.7.7,0,0,1,.7.7v2.564A.7.7,0,0,1,25.122,32.218Z"/><path class="cls-2" d="M22.453,38.059a.532.532,0,0,1-.47-.28l-1-1.869-1.633,1.644a.544.544,0,0,1-.928-.4l.222-7.04a.543.543,0,0,1,.83-.444l5.976,3.707a.553.553,0,0,1,.263.514.538.538,0,0,1-.287.431.757.757,0,0,1-.156.054L23,34.824l1,1.87a.532.532,0,0,1-.216.72L22.7,38A.542.542,0,0,1,22.453,38.059Zm-1.376-3.094a.2.2,0,0,1,.043,0,.448.448,0,0,1,.333.235l1.087,2.028.7-.375-1.089-2.032a.538.538,0,0,1-.012-.4.458.458,0,0,1,.32-.254l2.152-.426L19.381,30.5l-.2,6.155L20.731,35.1A.559.559,0,0,1,21.077,34.965Zm1.736-.5v0Zm2.241-.455h0Z"/></g></svg>