<svg xmlns="http://www.w3.org/2000/svg" viewBox="0 0 40 40"><defs><style>.cls-1{fill:#00d0b2;}.cls-2{fill:#2c3543;}</style></defs><title>customizablefraud-40x40-colorspot-outlinesgreen</title><g id="Layer_7" data-name="Layer 7"><circle class="cls-1" cx="31.034" cy="30.243" r="7.723"/></g><g id="Layer_1" data-name="Layer 1"><path class="cls-2" d="M14.386,39.079H13.159c-.66,0-1.193-1.084-1.486-1.847a7.223,7.223,0,0,1-1.324-.548c-.746.331-1.89.724-2.356.254l-.868-.866c-.466-.468-.077-1.611.255-2.356a7.264,7.264,0,0,1-.541-1.3l-.559-.138a1.338,1.338,0,0,1-1.295-1.374V29.678c0-.66,1.084-1.192,1.845-1.485a7.291,7.291,0,0,1,.55-1.326c-.332-.746-.721-1.89-.255-2.356l.867-.867c.466-.466,1.61-.076,2.355.255a7.2,7.2,0,0,1,1.327-.549c.292-.763.825-1.847,1.485-1.847h1.227c.66,0,1.193,1.084,1.485,1.847A7.186,7.186,0,0,1,17.2,23.9c.745-.331,1.888-.72,2.354-.256l.868.869c.467.465.077,1.609-.255,2.355a7.08,7.08,0,0,1,.549,1.326c.762.293,1.846.825,1.846,1.485v1.227c0,.66-1.084,1.192-1.846,1.485a7.136,7.136,0,0,1-.549,1.326c.332.745.722,1.889.255,2.356l-.867.867c-.467.467-1.61.077-2.356-.255a7.221,7.221,0,0,1-1.325.548C15.579,37.995,15.046,39.079,14.386,39.079Zm-4.021-3.19a.373.373,0,0,1,.186.05,6.533,6.533,0,0,0,1.507.624.372.372,0,0,1,.253.233,3.724,3.724,0,0,0,.873,1.535l1.2,0a4.059,4.059,0,0,0,.847-1.533.375.375,0,0,1,.254-.233A6.551,6.551,0,0,0,17,35.939a.376.376,0,0,1,.345-.015,3.659,3.659,0,0,0,1.7.469l.848-.853a4.066,4.066,0,0,0-.484-1.681.372.372,0,0,1,.014-.346,6.439,6.439,0,0,0,.624-1.507.376.376,0,0,1,.235-.254,3.844,3.844,0,0,0,1.531-.864v-1.21a4.035,4.035,0,0,0-1.531-.847.378.378,0,0,1-.235-.254,6.386,6.386,0,0,0-.624-1.507.375.375,0,0,1-.014-.346,3.744,3.744,0,0,0,.469-1.7l-.853-.85a4.151,4.151,0,0,0-1.682.486A.373.373,0,0,1,17,24.644a6.431,6.431,0,0,0-1.508-.625.377.377,0,0,1-.254-.233,3.728,3.728,0,0,0-.872-1.536l-1.2,0a4.071,4.071,0,0,0-.848,1.533.374.374,0,0,1-.253.233,6.52,6.52,0,0,0-1.509.625.373.373,0,0,1-.345.015,3.7,3.7,0,0,0-1.7-.469l-.848.852a4.066,4.066,0,0,0,.484,1.682.375.375,0,0,1-.014.346A6.463,6.463,0,0,0,7.5,28.578a.375.375,0,0,1-.234.253,3.719,3.719,0,0,0-1.534.872l0,1.2a.635.635,0,0,0,.635.634l.859.2a.374.374,0,0,1,.272.265,6.456,6.456,0,0,0,.624,1.507.375.375,0,0,1,.014.346,3.744,3.744,0,0,0-.469,1.7l.853.847a3.952,3.952,0,0,0,1.682-.484A.388.388,0,0,1,10.365,35.889Z"/><path class="cls-2" d="M13.772,34.046a3.755,3.755,0,1,1,3.756-3.755A3.759,3.759,0,0,1,13.772,34.046Zm0-6.76a3.005,3.005,0,1,0,3.006,3A3.008,3.008,0,0,0,13.772,27.286Z"/><path class="cls-2" d="M33.012,31.793H21.788a.375.375,0,0,1,0-.75H33.012A1.2,1.2,0,0,0,34.265,29.9V20.6a8.183,8.183,0,0,0-4.449-7.139.914.914,0,0,0-.887.01,7.177,7.177,0,0,1-7.056,0,.917.917,0,0,0-.887-.009A8.179,8.179,0,0,0,16.538,20.6v3.08a.375.375,0,0,1-.75,0V20.6a8.928,8.928,0,0,1,4.844-7.8,1.67,1.67,0,0,1,1.619.022,6.411,6.411,0,0,0,6.3,0A1.675,1.675,0,0,1,30.17,12.8a8.93,8.93,0,0,1,4.845,7.8v9.3A1.952,1.952,0,0,1,33.012,31.793Z"/><path class="cls-2" d="M25.4,14.316a6.71,6.71,0,0,1-6.7-6.7A6.7,6.7,0,1,1,29.518,12.9,6.628,6.628,0,0,1,25.4,14.316Zm0-12.645A5.942,5.942,0,0,0,21.747,12.3a6.006,6.006,0,0,0,7.309,0A5.942,5.942,0,0,0,25.4,1.671Z"/><path class="cls-2" d="M28.236,9.265a2.035,2.035,0,0,1-1.914-1.344.538.538,0,0,1,.033-.44.559.559,0,0,1,.363-.281l2.866-.68a.559.559,0,0,1,.45.086.545.545,0,0,1,.231.381,2.039,2.039,0,0,1-1.556,2.222A2.017,2.017,0,0,1,28.236,9.265ZM27.124,7.873a1.29,1.29,0,0,0,2.4-.568Zm2.547-.988h0Z"/><path class="cls-2" d="M22.566,9.264a2.007,2.007,0,0,1-.472-.055,2.038,2.038,0,0,1-1.556-2.222.547.547,0,0,1,.23-.381.572.572,0,0,1,.45-.086l2.865.679a.561.561,0,0,1,.365.283.54.54,0,0,1,.032.441A2.034,2.034,0,0,1,22.566,9.264Zm-1.29-1.959a1.291,1.291,0,0,0,2.4.569Zm2.633.623h0Zm-.133-.263v0Z"/></g></svg>