<svg xmlns="http://www.w3.org/2000/svg" viewBox="0 0 40 40"><defs><style>.cls-1{fill:#ffb400;}.cls-2{fill:#2c3543;}</style></defs><title>customemetrics-40x40-colorspot-outlinesyellow</title><g id="Layer_7" data-name="Layer 7"><circle class="cls-1" cx="31.034" cy="30.243" r="7.723"/></g><g id="Layer_1" data-name="Layer 1"><path class="cls-2" d="M8.846,35.979H7.868c-.539,0-.964-.77-1.241-1.485a5.842,5.842,0,0,1-1-.416c-.7.309-1.548.554-1.929.173l-.691-.692c-.381-.381-.137-1.226.172-1.928a5.882,5.882,0,0,1-.406-.974l-.4-.1a1.126,1.126,0,0,1-1.09-1.169v-.977c0-.539.77-.964,1.485-1.243a5.94,5.94,0,0,1,.415-1c-.309-.7-.553-1.546-.172-1.928l.691-.691c.382-.382,1.226-.138,1.928.173a5.839,5.839,0,0,1,1-.416c.277-.716.7-1.485,1.241-1.485h.978c.539,0,.964.769,1.242,1.485a5.906,5.906,0,0,1,1,.415c.7-.307,1.546-.553,1.927-.173l.692.692c.381.382.137,1.226-.172,1.928a5.94,5.94,0,0,1,.415,1c.715.279,1.485.7,1.485,1.243v.977c0,.539-.77.964-1.485,1.241a5.806,5.806,0,0,1-.415,1c.309.7.553,1.547.172,1.928l-.691.692c-.383.381-1.227.137-1.929-.172a5.862,5.862,0,0,1-1,.415C9.81,35.209,9.385,35.979,8.846,35.979Zm-3.2-2.695a.379.379,0,0,1,.187.049,5.034,5.034,0,0,0,1.183.492.372.372,0,0,1,.253.233,3.162,3.162,0,0,0,.655,1.18l.927-.009a4.157,4.157,0,0,0,.6-1.17.373.373,0,0,1,.253-.234,5.1,5.1,0,0,0,1.184-.491.384.384,0,0,1,.346-.014,3.22,3.22,0,0,0,1.3.372l.65-.663a4.183,4.183,0,0,0-.4-1.254.375.375,0,0,1,.014-.346,5.028,5.028,0,0,0,.49-1.183.374.374,0,0,1,.235-.254,3.418,3.418,0,0,0,1.17-.639v-.942a4.15,4.15,0,0,0-1.17-.605.376.376,0,0,1-.235-.254,5.014,5.014,0,0,0-.49-1.183.381.381,0,0,1-.014-.346,3.173,3.173,0,0,0,.372-1.3l-.663-.649a3.547,3.547,0,0,0-1.254.4.37.37,0,0,1-.345-.015,5.1,5.1,0,0,0-1.185-.49.374.374,0,0,1-.253-.233A3.164,3.164,0,0,0,8.8,22.56l-.928.009a4.184,4.184,0,0,0-.6,1.17.371.371,0,0,1-.253.234,5.084,5.084,0,0,0-1.184.491.372.372,0,0,1-.346.015,3.1,3.1,0,0,0-1.3-.372l-.649.662a4.148,4.148,0,0,0,.4,1.254.375.375,0,0,1-.014.346,5.1,5.1,0,0,0-.49,1.183.375.375,0,0,1-.234.254,3.188,3.188,0,0,0-1.18.654l.009.928a.431.431,0,0,0,.43.43l.7.162a.376.376,0,0,1,.272.265,5.1,5.1,0,0,0,.49,1.184.375.375,0,0,1,.014.346,3.158,3.158,0,0,0-.371,1.3l.662.65a3.92,3.92,0,0,0,1.255-.4A.368.368,0,0,1,5.641,33.284Z"/><path class="cls-2" d="M8.357,31.968A3.069,3.069,0,1,1,11.426,28.9,3.073,3.073,0,0,1,8.357,31.968Zm0-5.388A2.319,2.319,0,1,0,10.676,28.9,2.321,2.321,0,0,0,8.357,26.58Z"/><path class="cls-2" d="M38.348,26.328H15.062a.375.375,0,0,1,0-.75H38.348a.375.375,0,0,1,0,.75Z"/><path class="cls-2" d="M18.223,26.328H15.062a.375.375,0,0,1,0-.75h2.786V18.153a.368.368,0,0,0-.368-.368H12.3a.368.368,0,0,0-.368.368v4.152a.375.375,0,0,1-.75,0V18.153A1.119,1.119,0,0,1,12.3,17.035H17.48A1.119,1.119,0,0,1,18.6,18.153v7.8A.375.375,0,0,1,18.223,26.328Z"/><path class="cls-2" d="M27.235,26.328H20.567a.375.375,0,0,1-.375-.375V11.307a1.119,1.119,0,0,1,1.118-1.118h5.182a1.119,1.119,0,0,1,1.118,1.118V25.953A.375.375,0,0,1,27.235,26.328Zm-6.293-.75H26.86V11.307a.368.368,0,0,0-.368-.368H21.31a.368.368,0,0,0-.368.368Z"/><path class="cls-2" d="M36.247,26.328H29.579a.375.375,0,0,1-.375-.375V5.139a1.119,1.119,0,0,1,1.118-1.118H35.5a1.119,1.119,0,0,1,1.118,1.118V25.953A.375.375,0,0,1,36.247,26.328Zm-6.293-.75h5.918V5.139a.368.368,0,0,0-.368-.368H30.322a.368.368,0,0,0-.368.368Z"/></g></svg>