<svg xmlns="http://www.w3.org/2000/svg" viewBox="0 0 40 40"><defs><style>.cls-1{fill:#4c4fee;}.cls-2{fill:#2c3543;}</style></defs><title>dimensional.settings-40x40-colorspot-outlinesindigo</title><g id="Layer_7" data-name="Layer 7"><circle class="cls-1" cx="31.034" cy="30.243" r="7.723"/></g><g id="Layer_1" data-name="Layer 1"><path class="cls-2" d="M20,36.017a.375.375,0,0,1-.375-.375V32.406a.375.375,0,0,1,.75,0v3.236A.374.374,0,0,1,20,36.017Z"/><path class="cls-2" d="M20,36.017a.361.361,0,0,1-.079-.009L2.875,32.34a.374.374,0,0,1-.295-.366V8.45a.373.373,0,0,1,.454-.366L20,11.735,36.966,8.084a.378.378,0,0,1,.315.074.374.374,0,0,1,.139.292V31.974a.374.374,0,0,1-.3.366L20.08,36.008A.363.363,0,0,1,20,36.017ZM3.33,31.671,20,35.258l16.67-3.587V8.914L20.08,12.485a.387.387,0,0,1-.159,0L3.33,8.914Z"/><path class="cls-2" d="M20,15.619a.375.375,0,0,1-.375-.375V12.118a.375.375,0,0,1,.75,0v3.126A.374.374,0,0,1,20,15.619Z"/><path class="cls-2" d="M20,12.493a.359.359,0,0,1-.079-.008L2.875,8.817a.375.375,0,0,1-.008-.731L19.913,3.994a.4.4,0,0,1,.175,0L37.133,8.086a.375.375,0,0,1-.008.731L20.08,12.485A.362.362,0,0,1,20,12.493ZM4.644,8.431,20,11.735l15.356-3.3L20,4.744Z"/><path class="cls-2" d="M20.352,31.138h-1c-.547,0-.978-.784-1.26-1.513a5.922,5.922,0,0,1-1.025-.425c-.716.317-1.574.566-1.962.18l-.7-.706c-.386-.386-.137-1.245.178-1.96a6.022,6.022,0,0,1-.416-1l-.417-.1h-.016a1.167,1.167,0,0,1-1.088-1.185v-1c0-.546.784-.978,1.513-1.26a5.931,5.931,0,0,1,.424-1.025c-.315-.715-.564-1.575-.178-1.962l.7-.7c.388-.385,1.245-.137,1.961.179a6.019,6.019,0,0,1,1.026-.425c.282-.728.713-1.513,1.26-1.513h1c.547,0,.978.784,1.26,1.513a5.835,5.835,0,0,1,1.026.425c.716-.315,1.573-.563,1.961-.179l.7.7c.386.387.137,1.246-.178,1.961a6.019,6.019,0,0,1,.425,1.026c.728.282,1.512.714,1.512,1.26v1c0,.547-.784.979-1.513,1.261a5.931,5.931,0,0,1-.424,1.025c.315.715.564,1.574.178,1.961l-.7.7c-.388.388-1.247.138-1.961-.179a5.9,5.9,0,0,1-1.026.425C21.33,30.354,20.9,31.138,20.352,31.138Zm-3.266-2.731a.376.376,0,0,1,.187.049,5.211,5.211,0,0,0,1.207.5.372.372,0,0,1,.254.235A3.2,3.2,0,0,0,19.4,30.4l.948-.009a4.124,4.124,0,0,0,.622-1.2.372.372,0,0,1,.254-.235,5.2,5.2,0,0,0,1.208-.5.377.377,0,0,1,.346-.014,3.278,3.278,0,0,0,1.326.38l.664-.677a4.122,4.122,0,0,0-.406-1.287.378.378,0,0,1,.014-.346,5.193,5.193,0,0,0,.5-1.207.377.377,0,0,1,.234-.254,3.426,3.426,0,0,0,1.2-.656v-.963a4.109,4.109,0,0,0-1.2-.622.375.375,0,0,1-.234-.253,5.154,5.154,0,0,0-.5-1.208A.377.377,0,0,1,24.366,21a3.225,3.225,0,0,0,.379-1.327l-.677-.664a4.018,4.018,0,0,0-1.286.407.38.38,0,0,1-.346-.014,5.168,5.168,0,0,0-1.208-.5.374.374,0,0,1-.254-.235,3.2,3.2,0,0,0-.67-1.206l-.948.009a4.124,4.124,0,0,0-.622,1.2.376.376,0,0,1-.253.235,5.179,5.179,0,0,0-1.209.5.378.378,0,0,1-.346.014,3.21,3.21,0,0,0-1.326-.38l-.664.677A4.1,4.1,0,0,0,15.342,21a.378.378,0,0,1-.014.346,5.175,5.175,0,0,0-.5,1.207.375.375,0,0,1-.234.254,3.235,3.235,0,0,0-1.207.67l.009.948a.446.446,0,0,0,.445.445l.716.166a.379.379,0,0,1,.271.266,5.193,5.193,0,0,0,.5,1.207.378.378,0,0,1,.014.346,3.222,3.222,0,0,0-.379,1.326l.677.666a4.4,4.4,0,0,0,1.287-.408A.371.371,0,0,1,17.086,28.407Z"/><path class="cls-2" d="M19.854,27.051a3.121,3.121,0,1,1,3.121-3.121A3.124,3.124,0,0,1,19.854,27.051Zm0-5.491a2.371,2.371,0,1,0,2.371,2.37A2.372,2.372,0,0,0,19.854,21.56Z"/></g></svg>