<svg xmlns="http://www.w3.org/2000/svg" viewBox="0 0 40 40"><defs><style>.cls-1{fill:#4c4fee;}.cls-2{fill:#2c3543;}</style></defs><title>eCPM.costpermille.CPM-40x40-colorspot-outlinesindigo</title><g id="Layer_7" data-name="Layer 7"><circle class="cls-1" cx="31.034" cy="30.243" r="7.723"/></g><g id="Layer_1" data-name="Layer 1"><path class="cls-2" d="M14.5,18.632H7.325a1.229,1.229,0,0,1-1.256-1.2V12.408A5,5,0,0,1,8.78,8.04a1.075,1.075,0,0,1,1.042.015,3.292,3.292,0,0,0,3.234,0A1.074,1.074,0,0,1,14.1,8.041a5.012,5.012,0,0,1,2.689,3.951.375.375,0,0,1-.341.407.371.371,0,0,1-.406-.34,4.264,4.264,0,0,0-2.3-3.357.323.323,0,0,0-.312,0,4.054,4.054,0,0,1-3.988,0,.324.324,0,0,0-.311,0,4.25,4.25,0,0,0-2.315,3.707v5.028a.479.479,0,0,0,.506.446H14.5a.375.375,0,1,1,0,.75Z"/><path class="cls-2" d="M11.439,9.183a3.8,3.8,0,1,1,2.332-.8A3.762,3.762,0,0,1,11.439,9.183Zm0-6.836A3.04,3.04,0,1,0,14.482,5.39,3.046,3.046,0,0,0,11.439,2.347Z"/><path class="cls-2" d="M16.747,12.415h-.032a.375.375,0,0,1-.342-.4A5.006,5.006,0,0,1,19.065,8.04a1.075,1.075,0,0,1,1.043.015,3.288,3.288,0,0,0,3.233,0,1.071,1.071,0,0,1,1.044-.014,5.013,5.013,0,0,1,2.69,3.951.376.376,0,0,1-.341.407.371.371,0,0,1-.406-.34A4.263,4.263,0,0,0,24.03,8.7a.316.316,0,0,0-.312,0,4.049,4.049,0,0,1-3.988,0,.324.324,0,0,0-.311,0,4.264,4.264,0,0,0-2.3,3.37A.374.374,0,0,1,16.747,12.415Z"/><path class="cls-2" d="M24.788,18.632H18.366a.375.375,0,0,1,0-.75h6.422a.375.375,0,0,1,0,.75Z"/><path class="cls-2" d="M21.725,9.183A3.8,3.8,0,0,1,17.932,5.39a3.793,3.793,0,1,1,6.124,2.988A3.757,3.757,0,0,1,21.725,9.183Zm0-6.836A3.04,3.04,0,1,0,24.767,5.39,3.046,3.046,0,0,0,21.725,2.347Z"/><path class="cls-2" d="M35.829,18.632H28.651a.375.375,0,0,1,0-.75h7.178a.478.478,0,0,0,.505-.446V12.408A4.247,4.247,0,0,0,34.02,8.7a.316.316,0,0,0-.312,0,4.049,4.049,0,0,1-3.988,0,.324.324,0,0,0-.311,0,4.264,4.264,0,0,0-2.3,3.358.375.375,0,1,1-.747-.067A5.013,5.013,0,0,1,29.054,8.04a1.077,1.077,0,0,1,1.044.015,3.286,3.286,0,0,0,3.232,0,1.073,1.073,0,0,1,1.045-.014,5,5,0,0,1,2.709,4.367v5.028A1.228,1.228,0,0,1,35.829,18.632Z"/><path class="cls-2" d="M31.714,9.183A3.8,3.8,0,0,1,27.921,5.39a3.794,3.794,0,1,1,6.125,2.987A3.753,3.753,0,0,1,31.714,9.183Zm0-6.836A3.039,3.039,0,1,0,34.758,5.39,3.047,3.047,0,0,0,31.714,2.347Z"/><path class="cls-2" d="M30.834,28.686H22.605a1.228,1.228,0,0,1-1.255-1.2V22.462a5,5,0,0,1,2.709-4.368,1.068,1.068,0,0,1,1.045.015,3.288,3.288,0,0,0,3.232,0,1.071,1.071,0,0,1,1.044-.014,5,5,0,0,1,2.709,4.368v5.027A1.228,1.228,0,0,1,30.834,28.686Zm-6.265-9.971a.333.333,0,0,0-.155.039A4.252,4.252,0,0,0,22.1,22.462v5.027a.479.479,0,0,0,.5.447h8.229a.479.479,0,0,0,.5-.447V22.462a4.252,4.252,0,0,0-2.314-3.708.317.317,0,0,0-.31,0,4.053,4.053,0,0,1-3.99,0A.3.3,0,0,0,24.569,18.715Z"/><path class="cls-2" d="M28.651,18.632a.375.375,0,0,1-.211-.686c.051-.034.1-.068.149-.106a3.04,3.04,0,0,0-1.853-5.44.375.375,0,0,1,0-.75h0a3.79,3.79,0,0,1,2.311,6.781c-.061.047-.125.093-.19.136A.369.369,0,0,1,28.651,18.632Z"/><path class="cls-2" d="M26.72,19.235a3.76,3.76,0,0,1-2.145-.67A.375.375,0,1,1,25,17.948a3.064,3.064,0,0,0,3.437,0,.375.375,0,0,1,.426.617A3.76,3.76,0,0,1,26.72,19.235Z"/><path class="cls-2" d="M26.738,12.4a.4.4,0,0,1-.413-.376.375.375,0,0,1,.376-.374.392.392,0,0,1,.394.375A.36.36,0,0,1,26.738,12.4Z"/><path class="cls-2" d="M24.788,18.632a.373.373,0,0,1-.211-.066c-.064-.043-.129-.088-.19-.136A3.79,3.79,0,0,1,26.7,11.65h0a.375.375,0,0,1,0,.75,3.039,3.039,0,0,0-1.853,5.439c.048.039.1.074.149.108a.375.375,0,0,1-.211.685Z"/><path class="cls-2" d="M20.549,28.686H19.435a.375.375,0,1,1,0-.75h1.114a.479.479,0,0,0,.5-.447V22.462a4.254,4.254,0,0,0-2.314-3.708.321.321,0,0,0-.311,0,4.051,4.051,0,0,1-3.989,0,.314.314,0,0,0-.311,0,4.313,4.313,0,0,0-2.232,2.9.381.381,0,0,1-.443.291.374.374,0,0,1-.291-.443,5.051,5.051,0,0,1,2.611-3.406,1.071,1.071,0,0,1,1.045.015,3.281,3.281,0,0,0,3.231,0,1.078,1.078,0,0,1,1.045-.014A5,5,0,0,1,21.8,22.462v5.027A1.228,1.228,0,0,1,20.549,28.686Z"/><path class="cls-2" d="M16.747,12.415h-.032c-.093-.008-.186-.015-.281-.015a.382.382,0,0,1-.384-.374.366.366,0,0,1,.365-.375h0c.155.011.255.006.363.015a.375.375,0,0,1-.031.749Z"/><path class="cls-2" d="M18.366,18.632a.375.375,0,0,1-.212-.685c.05-.034.1-.069.149-.107a3.04,3.04,0,0,0-1.591-5.427.374.374,0,0,1-.339-.407.366.366,0,0,1,.407-.339,3.79,3.79,0,0,1,1.986,6.764c-.061.047-.125.092-.189.135A.373.373,0,0,1,18.366,18.632Z"/><path class="cls-2" d="M16.434,19.235a3.757,3.757,0,0,1-2.144-.67.375.375,0,1,1,.426-.617,3.064,3.064,0,0,0,3.437,0,.375.375,0,0,1,.426.617A3.76,3.76,0,0,1,16.434,19.235Z"/><path class="cls-2" d="M14.5,18.632a.373.373,0,0,1-.21-.065c-.065-.043-.129-.089-.19-.137a3.79,3.79,0,0,1,2.311-6.78h0a.375.375,0,0,1,0,.75,3.04,3.04,0,0,0-1.853,5.439c.049.039.1.073.149.107a.375.375,0,0,1-.211.686Z"/><path class="cls-2" d="M9.148,29.582a1.993,1.993,0,1,1,1.993-1.993A2,2,0,0,1,9.148,29.582Zm0-3.236a1.243,1.243,0,1,0,1.243,1.243A1.244,1.244,0,0,0,9.148,26.346Z"/><path class="cls-2" d="M13.73,34.165a1.994,1.994,0,1,1,1.994-1.994A2,2,0,0,1,13.73,34.165Zm0-3.237a1.244,1.244,0,1,0,1.244,1.243A1.244,1.244,0,0,0,13.73,30.928Z"/><path class="cls-2" d="M7.691,33.939a.376.376,0,0,1-.265-.641l7.431-7.432a.375.375,0,1,1,.53.532L7.956,33.829A.377.377,0,0,1,7.691,33.939Z"/><path class="cls-2" d="M11.439,38.4a8.523,8.523,0,1,1,8.524-8.523A8.533,8.533,0,0,1,11.439,38.4Zm0-16.3a7.773,7.773,0,1,0,7.774,7.773A7.782,7.782,0,0,0,11.439,22.107Z"/></g></svg>