<svg xmlns="http://www.w3.org/2000/svg" viewBox="0 0 40 40"><defs><style>.cls-1{fill:#00d0b2;}.cls-2{fill:#2c3543;}</style></defs><title>exportAPIs-40x40-colorspot-outlinesgreen</title><g id="Layer_7" data-name="Layer 7"><circle class="cls-1" cx="31.034" cy="30.243" r="7.723"/></g><g id="Layer_1" data-name="Layer 1"><path class="cls-2" d="M25.154,29.4H2.083a.985.985,0,0,1-.983-.984V12.985a.375.375,0,0,1,.375-.375H29.882a.375.375,0,0,1,.375.375V21a.375.375,0,0,1-.75,0V13.36H1.85V28.411a.233.233,0,0,0,.233.234H25.154a.375.375,0,0,1,0,.75Z"/><path class="cls-2" d="M29.882,13.36a.375.375,0,0,1-.375-.375v-4.6a.233.233,0,0,0-.233-.233H2.083a.233.233,0,0,0-.233.233v4.6a.375.375,0,0,1-.75,0v-4.6A.984.984,0,0,1,2.083,7.4H29.274a.984.984,0,0,1,.983.983v4.6A.375.375,0,0,1,29.882,13.36Z"/><path class="cls-2" d="M13.617,25.2a.374.374,0,0,1-.33-.551l4.321-8.12a.375.375,0,1,1,.662.351L13.949,25A.376.376,0,0,1,13.617,25.2Z"/><path class="cls-2" d="M19.587,24.885a.375.375,0,0,1-.236-.666l4.225-3.457c-.017-.011-.077-.1-.092-.109L19.351,17.3a.375.375,0,1,1,.472-.582l4.133,3.349a.79.79,0,0,1,.37.691.829.829,0,0,1-.419.725L19.823,24.8A.371.371,0,0,1,19.587,24.885Z"/><path class="cls-2" d="M11.77,24.885a.371.371,0,0,1-.236-.084L7.4,21.452a.792.792,0,0,1-.37-.69.831.831,0,0,1,.419-.726l4.084-3.314a.375.375,0,1,1,.472.582L7.781,20.762c.017.01.077.1.092.108l4.133,3.349a.375.375,0,0,1-.236.666Z"/><path class="cls-2" d="M7.712,10.8H7.7a.417.417,0,0,1,0-.834.422.422,0,0,1,.424.417A.413.413,0,0,1,7.712,10.8Z"/><path class="cls-2" d="M4.353,10.8H4.341a.417.417,0,1,1,0-.834.422.422,0,0,1,.423.417A.412.412,0,0,1,4.353,10.8Z"/><path class="cls-2" d="M6.032,10.8H6.021a.417.417,0,1,1,0-.834.422.422,0,0,1,.423.417A.413.413,0,0,1,6.032,10.8Z"/><path class="cls-2" d="M36.119,32.6H26.843a.707.707,0,0,1-.706-.706V22.615a.707.707,0,0,1,.706-.707h7.4a.375.375,0,0,1,0,.75h-7.4l.044,9.232,9.232-.044-.044-6.755a.375.375,0,0,1,.75,0v6.8A.707.707,0,0,1,36.119,32.6Z"/><path class="cls-2" d="M31.481,27.618a.374.374,0,0,1-.268-.636l7.044-7.206a.375.375,0,1,1,.537.523l-7.045,7.206A.374.374,0,0,1,31.481,27.618Z"/><path class="cls-2" d="M38,23.212a.333.333,0,0,1-.07-.007.375.375,0,0,1-.3-.437l.527-2.8a.369.369,0,0,1,.438-.3.376.376,0,0,1,.3.438l-.526,2.8A.376.376,0,0,1,38,23.212Z"/><path class="cls-2" d="M35.726,20.939a.375.375,0,0,1-.069-.743l2.8-.527a.372.372,0,0,1,.438.3.376.376,0,0,1-.3.438l-2.8.526A.323.323,0,0,1,35.726,20.939Z"/></g></svg>