<svg xmlns="http://www.w3.org/2000/svg" viewBox="0 0 40 40"><defs><style>.cls-1{fill:#ffb400;}.cls-2{fill:#2c3543;}.cls-3{fill:none;stroke:#2c3643;stroke-linecap:round;stroke-linejoin:round;stroke-width:0.75px;}</style></defs><title>geographicoutliertssecurity-40x40-colorspot-outlinesyellow</title><g id="Layer_7" data-name="Layer 7"><circle class="cls-1" cx="31.034" cy="30.243" r="7.723"/></g><g id="Layer_1" data-name="Layer 1"><path class="cls-2" d="M20,39.264c-4.366,0-16.084-12.142-16.084-18V7.121A2.53,2.53,0,0,1,5.748,4.7L19.309.832a2.535,2.535,0,0,1,1.382,0L34.252,4.7a2.53,2.53,0,0,1,1.831,2.425V21.264C36.083,27.122,24.366,39.264,20,39.264ZM20,1.486a1.774,1.774,0,0,0-.485.067L5.953,5.416A1.781,1.781,0,0,0,4.666,7.121V21.264c0,2.432,2.388,6.525,6.231,10.682,3.576,3.867,7.319,6.568,9.1,6.568s5.527-2.7,9.1-6.568c3.843-4.157,6.23-8.25,6.23-10.682V7.121a1.779,1.779,0,0,0-1.286-1.7L20.486,1.553A1.786,1.786,0,0,0,20,1.486Z"/><line class="cls-3" x1="12.95" y1="16.057" x2="27.05" y2="16.057"/><path class="cls-2" d="M27.2,24.244H12.8a.375.375,0,1,1,0-.75H27.2a.375.375,0,1,1,0,.75Z"/><path class="cls-2" d="M28.089,20.7H11.911a.375.375,0,1,1,0-.75H28.089a.375.375,0,0,1,0,.75Z"/><path class="cls-2" d="M20,28.578A8.578,8.578,0,1,1,28.578,20,8.588,8.588,0,0,1,20,28.578Zm0-16.406A7.828,7.828,0,1,0,27.828,20,7.837,7.837,0,0,0,20,12.172Z"/><path class="cls-2" d="M20,27.565a.375.375,0,0,1-.375-.375V12.81a.375.375,0,0,1,.75,0V27.19A.375.375,0,0,1,20,27.565Z"/><path class="cls-2" d="M22.35,27.1a.375.375,0,0,1-.3-.593A11.72,11.72,0,0,0,23.726,20a11.614,11.614,0,0,0-1.715-6.552A.375.375,0,1,1,22.616,13a12.372,12.372,0,0,1,1.86,7,12.483,12.483,0,0,1-1.82,6.941A.378.378,0,0,1,22.35,27.1Z"/><path class="cls-2" d="M17.781,27.1a.377.377,0,0,1-.3-.153,12.377,12.377,0,0,1-1.86-7,12.473,12.473,0,0,1,1.82-6.941.375.375,0,1,1,.61.436,11.719,11.719,0,0,0-1.68,6.505A11.618,11.618,0,0,0,18.083,26.5a.376.376,0,0,1-.081.525A.372.372,0,0,1,17.781,27.1Z"/></g></svg>