<svg xmlns="http://www.w3.org/2000/svg" viewBox="0 0 40 40"><defs><style>.cls-1{fill:#00d0b2;}.cls-2{fill:#2c3543;}</style></defs><title>global.worldwide-40x40-colorspot-outlinesgreen</title><g id="Layer_7" data-name="Layer 7"><circle class="cls-1" cx="31.034" cy="30.243" r="7.723"/></g><g id="Layer_1" data-name="Layer 1"><path class="cls-2" d="M35.461,11.728H4.539a.375.375,0,0,1,0-.75H35.461a.375.375,0,0,1,0,.75Z"/><path class="cls-2" d="M35.8,28.859H4.2a.375.375,0,1,1,0-.75H35.8a.375.375,0,0,1,0,.75Z"/><path class="cls-2" d="M37.738,21.084H2.263a.375.375,0,0,1,0-.75H37.738a.375.375,0,0,1,0,.75Z"/><path class="cls-2" d="M20,38.363A18.363,18.363,0,1,1,38.363,20,18.384,18.384,0,0,1,20,38.363ZM20,2.387A17.613,17.613,0,1,0,37.613,20,17.633,17.633,0,0,0,20,2.387Z"/><path class="cls-2" d="M20,36.142a.375.375,0,0,1-.375-.375V4.233a.375.375,0,0,1,.75,0V35.767A.375.375,0,0,1,20,36.142Z"/><path class="cls-2" d="M25.154,35.117a.374.374,0,0,1-.3-.592c2.361-3.308,3.77-8.738,3.77-14.525,0-5.866-1.439-11.337-3.849-14.633a.375.375,0,1,1,.605-.444c2.5,3.422,3.994,9.058,3.994,15.077,0,5.938-1.461,11.531-3.909,14.96A.374.374,0,0,1,25.154,35.117Z"/><path class="cls-2" d="M15.134,35.117a.377.377,0,0,1-.3-.153c-2.5-3.423-3.993-9.058-3.993-15.077,0-5.938,1.461-11.531,3.909-14.96a.375.375,0,1,1,.61.436C13,8.669,11.587,14.1,11.587,19.887c0,5.865,1.439,11.336,3.849,14.634a.375.375,0,0,1-.3.6Z"/></g></svg>