<svg xmlns="http://www.w3.org/2000/svg" viewBox="0 0 40 40"><title>iconography-campaign.marketing.megaphone-40x40-colorspot-outlines</title><circle cx="31.034" cy="30.243" r="7.723" fill="#00d0b2"/><path d="M32.651,34.361a1.114,1.114,0,0,1-.229-.024l-.038-.01L9.09,26.92a.375.375,0,0,1-.261-.357v-13.8a.376.376,0,0,1,.263-.359l23.294-7.27a1.133,1.133,0,0,1,.966.218,1.05,1.05,0,0,1,.392.816V33.293a1.054,1.054,0,0,1-.392.818A1.108,1.108,0,0,1,32.651,34.361Zm-.062-.755a.373.373,0,0,0,.289-.077.3.3,0,0,0,.116-.236V6.168a.3.3,0,0,0-.116-.235.362.362,0,0,0-.3-.073L9.579,13.038v13.25Z" fill="#2c3543"/><path d="M9.2,26.938H2.634a1.912,1.912,0,0,1-1.909-1.91V14.3a1.911,1.911,0,0,1,1.909-1.908H9.2a.375.375,0,0,1,.375.375v13.8A.375.375,0,0,1,9.2,26.938Zm-6.57-13.8A1.16,1.16,0,0,0,1.475,14.3V25.028a1.161,1.161,0,0,0,1.159,1.16h6.2V13.138Z" fill="#2c3543"/><path d="M5.152,34.9a1.526,1.526,0,0,1-1.587-1.452V26.925a.375.375,0,0,1,.75,0v6.522a.78.78,0,0,0,.837.7.779.779,0,0,0,.836-.7V26.925a.375.375,0,0,1,.75,0v6.522A1.525,1.525,0,0,1,5.152,34.9Z" fill="#2c3543"/><path d="M38.607,20.106H36.534a.375.375,0,0,1,0-.75h2.073a.375.375,0,0,1,0,.75Z" fill="#2c3543"/><path d="M36.71,8.43a.375.375,0,0,1-.209-.687L38.223,6.59a.375.375,0,0,1,.417.623L36.918,8.366A.371.371,0,0,1,36.71,8.43Z" fill="#2c3543"/><path d="M38.431,32.936a.371.371,0,0,1-.208-.064L36.5,31.719a.375.375,0,1,1,.417-.623l1.722,1.153a.375.375,0,0,1-.209.687Z" fill="#2c3543"/></svg>