<svg xmlns="http://www.w3.org/2000/svg" viewBox="0 0 40 40"><title>iconography-settings.utilities.fix.tools-40x40-colorspot-outlines</title><circle cx="31.034" cy="30.243" r="7.723" fill="#ff007b"/><path d="M16.043,39.143c-.052,0-.106,0-.159,0a3.315,3.315,0,0,1-3.117-3.355L12.8,14.717a7.645,7.645,0,0,1-.1-13.789.68.68,0,0,1,.978.611V7.37a.352.352,0,0,0,.168.3L16.1,9.046,18.263,7.67a.354.354,0,0,0,.169-.3V1.538a.679.679,0,0,1,.976-.61,7.649,7.649,0,0,1-.1,13.8l.012,21.144a3.274,3.274,0,0,1-3.274,3.276ZM12.919,1.653a6.9,6.9,0,0,0,.4,12.479.377.377,0,0,1,.226.345l-.029,21.309a2.564,2.564,0,0,0,2.4,2.6,2.525,2.525,0,0,0,2.647-2.523l-.012-21.386a.377.377,0,0,1,.226-.345,6.9,6.9,0,0,0,.4-12.482V7.37a1.112,1.112,0,0,1-.528.941L16.4,9.687a.685.685,0,0,1-.68.006L13.447,8.311a1.107,1.107,0,0,1-.528-.941Zm3.123,36.008a1.673,1.673,0,1,1,1.672-1.672A1.675,1.675,0,0,1,16.042,37.661Zm0-2.595a.923.923,0,1,0,.922.923A.924.924,0,0,0,16.042,35.066Z" fill="#2c3543"/><path d="M30.111,19.048H28.82a.375.375,0,0,1,0-.75h1.291a.524.524,0,0,0,.447-.549l.288-13.3A2.749,2.749,0,0,0,30.084,2.4a2.833,2.833,0,0,0-4.006,0,2.742,2.742,0,0,0-.762,2.04L25.6,17.756a.522.522,0,0,0,.447.542h1.291a.375.375,0,0,1,0,.75H26.051a1.258,1.258,0,0,1-1.2-1.269L24.566,4.465a3.518,3.518,0,1,1,7.029.01l-.287,13.3A1.261,1.261,0,0,1,30.111,19.048Z" fill="#2c3543"/><path d="M29.057,39.208H27.105a.92.92,0,0,1-.916-.86l-.361-5.654a.917.917,0,0,1,.915-.977h.224V18.673a.375.375,0,0,1,.375-.375H28.82a.375.375,0,0,1,.375.375V31.717h.224a.917.917,0,0,1,.915.977l-.361,5.655A.92.92,0,0,1,29.057,39.208Zm-2.314-6.741a.166.166,0,0,0-.122.053.163.163,0,0,0-.045.125l.361,5.655a.169.169,0,0,0,.168.158h1.952a.169.169,0,0,0,.168-.157l.361-5.656a.164.164,0,0,0-.045-.125.166.166,0,0,0-.122-.053h-.6a.375.375,0,0,1-.375-.375V19.048h-.728V32.092a.375.375,0,0,1-.375.375Z" fill="#2c3543"/></svg>