<svg xmlns="http://www.w3.org/2000/svg" viewBox="0 0 40 40"><title>iconography-generaladmin.administration.admin-40x40-colorspot-outlines</title><circle cx="31.034" cy="30.243" r="7.723" fill="#ffb400"/><path d="M28.9,6.328H10.906a.429.429,0,0,1,0-.857H28.9a.429.429,0,0,1,0,.857Z" fill="#2c3543"/><path d="M36.6,37.28H3.4a2.1,2.1,0,0,1-2.1-2.1V7.568a2.1,2.1,0,0,1,2.1-2.1H4.845a.429.429,0,0,1,0,.857H3.4a1.242,1.242,0,0,0-1.24,1.24V35.183a1.242,1.242,0,0,0,1.24,1.24H36.6a1.242,1.242,0,0,0,1.24-1.24V7.568a1.242,1.242,0,0,0-1.24-1.24H34.9a.429.429,0,0,1,0-.857h1.7a2.1,2.1,0,0,1,2.1,2.1V35.183A2.1,2.1,0,0,1,36.6,37.28Z" fill="#2c3543"/><path d="M8.166,9.46H7.635a1.508,1.508,0,0,1-1.5-1.506V4.2A1.507,1.507,0,0,1,7.635,2.69h.531A1.507,1.507,0,0,1,9.671,4.2V7.954A1.508,1.508,0,0,1,8.166,9.46ZM7.635,3.547a.649.649,0,0,0-.649.648V7.954a.649.649,0,0,0,.649.648h.531a.649.649,0,0,0,.649-.648V4.2a.649.649,0,0,0-.649-.648Z" fill="#2c3543"/><path d="M32.171,9.46h-.532a1.508,1.508,0,0,1-1.5-1.506V4.2a1.507,1.507,0,0,1,1.5-1.505h.532A1.507,1.507,0,0,1,33.676,4.2V7.954A1.508,1.508,0,0,1,32.171,9.46Zm-.532-5.913a.649.649,0,0,0-.649.648V7.954a.649.649,0,0,0,.649.648h.532a.649.649,0,0,0,.649-.648V4.2a.649.649,0,0,0-.649-.648Z" fill="#2c3543"/><path d="M38.264,13.236H1.736a.429.429,0,1,1,0-.857H38.264a.429.429,0,1,1,0,.857Z" fill="#2c3543"/><path d="M19.9,37.31a.428.428,0,0,1-.428-.429V12.838a.428.428,0,0,1,.856,0V36.881A.429.429,0,0,1,19.9,37.31Z" fill="#2c3543"/><path d="M29.5,37.31a.429.429,0,0,1-.428-.429V12.838a.428.428,0,1,1,.856,0V36.881A.429.429,0,0,1,29.5,37.31Z" fill="#2c3543"/><path d="M10.508,37.31a.429.429,0,0,1-.428-.429V12.838a.428.428,0,0,1,.856,0V36.881A.428.428,0,0,1,10.508,37.31Z" fill="#2c3543"/><path d="M38.264,21.5H1.983a.429.429,0,0,1,0-.857H38.264a.429.429,0,1,1,0,.857Z" fill="#2c3543"/><path d="M38.264,29.471H1.983a.429.429,0,0,1,0-.857H38.264a.429.429,0,1,1,0,.857Z" fill="#2c3543"/><path d="M13.986,27.431a.424.424,0,0,1-.314-.138L12.3,25.812a.428.428,0,1,1,.629-.582L14.011,26.4l3.909-3.591a.428.428,0,0,1,.58.63l-4.224,3.881A.424.424,0,0,1,13.986,27.431Z" fill="#2c3543"/><path d="M26.963,9.735H13.037a.429.429,0,0,1,0-.858H26.963a.429.429,0,0,1,0,.858Z" fill="#2c3543"/></svg>