<svg xmlns="http://www.w3.org/2000/svg" viewBox="0 0 40 40"><title>iconography-product.productdesign-40x40-colorspot-outlines</title><circle cx="31.034" cy="30.243" r="7.723" fill="#ffb400"/><path d="M19.911,23.023a3.268,3.268,0,0,1-.68-.073L8.189,20.574a1.144,1.144,0,0,1-.9-1.111V4.344a.437.437,0,1,1,.873,0V19.463a.261.261,0,0,0,.208.257L19.415,22.1a2.369,2.369,0,0,0,.992,0L31.45,19.72a.26.26,0,0,0,.207-.257V4.344a.437.437,0,1,1,.873,0V19.463a1.143,1.143,0,0,1-.895,1.111L20.591,22.95A3.268,3.268,0,0,1,19.911,23.023Z" fill="#2c3543"/><path d="M19.911,21.454a.437.437,0,0,1-.436-.437V8.712a.437.437,0,1,1,.873,0V21.017A.437.437,0,0,1,19.911,21.454Z" fill="#2c3543"/><path d="M19.911,7.339a3.268,3.268,0,0,1-.68-.073L7.637,4.771a.436.436,0,0,1-.01-.851L19.32,1.112a2.57,2.57,0,0,1,1.183,0L32.2,3.92a.437.437,0,0,1-.01.851l-11.595,2.5A3.268,3.268,0,0,1,19.911,7.339ZM9.7,4.321l9.718,2.091a2.369,2.369,0,0,0,.992,0l9.719-2.091L20.3,1.961a1.691,1.691,0,0,0-.775,0Z" fill="#2c3543"/><path d="M25.531,29.824a.437.437,0,0,1-.082-.867,18.332,18.332,0,0,0,5.6-2.3,8.05,8.05,0,0,1,1.118-.581,2.881,2.881,0,0,1,4.108,1.379.437.437,0,0,1-.771.41,2.055,2.055,0,0,0-3.021-.977,8.153,8.153,0,0,0-1,.527,19.11,19.11,0,0,1-5.87,2.406A.583.583,0,0,1,25.531,29.824Z" fill="#2c3543"/><path d="M23.3,28.819a.437.437,0,0,1-.1-.863,15.226,15.226,0,0,0,4.621-2.046,6.02,6.02,0,0,1,1.088-.586c1.063-.391,2.626-.777,3.724.422a.437.437,0,1,1-.644.591c-.575-.626-1.437-.683-2.8-.187a6.14,6.14,0,0,0-.915.505,16.164,16.164,0,0,1-4.88,2.152A.478.478,0,0,1,23.3,28.819Z" fill="#2c3543"/><path d="M22.4,27.29a.437.437,0,0,1-.106-.861,12.433,12.433,0,0,0,3.164-1.243c.212-.115.383-.206.522-.263l.145-.056c1.225-.463,2.109-.8,3.253.595a.437.437,0,0,1-.675.555c-.746-.907-1.07-.788-2.269-.332l-.133.05c-.1.043-.247.122-.427.22a13.457,13.457,0,0,1-3.367,1.321A.43.43,0,0,1,22.4,27.29Z" fill="#2c3543"/><path d="M25.835,32.372a.439.439,0,0,1-.378-.215,6.565,6.565,0,0,0-2.584-2.372.436.436,0,1,1,.354-.8,7.34,7.34,0,0,1,2.984,2.727.436.436,0,0,1-.156.6A.429.429,0,0,1,25.835,32.372Z" fill="#2c3543"/><path d="M16.354,38.957a.536.536,0,0,1-.07-.005L3.461,36.871A1.32,1.32,0,0,1,2.34,35.523l.211-6.749A1.321,1.321,0,0,1,3.569,27.53l7.306-2.036a.458.458,0,0,1,.184-.011L21.85,27.157a.435.435,0,0,1,.294.185,1.927,1.927,0,0,1,.381,1.466,2.86,2.86,0,0,1-1.368,1.662,9.571,9.571,0,0,1-5.891,1.163L13.4,31.526a.436.436,0,0,1-.411-.461.473.473,0,0,1,.461-.411l1.863.107a8.831,8.831,0,0,0,5.362-1.016c.615-.414.932-.764,1-1.1a.969.969,0,0,0-.147-.655l-10.5-1.629L3.786,28.375a.452.452,0,0,0-.361.426L3.213,35.55a.447.447,0,0,0,.382.457l12.77,2.073c.757-.087,8.755-1.054,13.961-3.629C33.3,32.26,36.58,29.609,36.8,29.03a.985.985,0,0,0-.428-.592,3.944,3.944,0,0,0-2.891-.032,7.1,7.1,0,0,0-1.366.716,17.674,17.674,0,0,1-5.368,2.355.436.436,0,0,1-.171-.856,16.966,16.966,0,0,0,5.092-2.25,6.479,6.479,0,0,1,1.609-.813c.517-.151,2.416-.607,3.574.149a1.8,1.8,0,0,1,.808,1.309c.035.257.141,1.04-6.876,6.178-5.647,2.8-14.023,3.723-14.377,3.76A.371.371,0,0,1,16.354,38.957Z" fill="#2c3543"/></svg>