<svg xmlns="http://www.w3.org/2000/svg" viewBox="0 0 40 40"><title>iconography-customersuccess.customersatisfaction.customerservice-40x40-colorspot-outlines</title><circle cx="31.034" cy="30.243" r="7.723" fill="#ffb400"/><path d="M23.333,13.3a1.037,1.037,0,0,1-.485-.121L20,11.682l-2.847,1.5a1.043,1.043,0,0,1-1.514-1.1l.544-3.171-2.3-2.245a1.043,1.043,0,0,1,.578-1.779l3.183-.462,1.424-2.885A1.036,1.036,0,0,1,20,.957h0a1.038,1.038,0,0,1,.935.581h0l1.424,2.885,3.183.462a1.043,1.043,0,0,1,.578,1.779l-2.3,2.245.544,3.17A1.045,1.045,0,0,1,23.333,13.3ZM20,10.81a.4.4,0,0,1,.19.048l3.038,1.6a.224.224,0,0,0,.325-.237l-.58-3.382a.414.414,0,0,1,.118-.363l2.458-2.4a.217.217,0,0,0,.057-.229.22.22,0,0,0-.181-.152l-3.4-.494a.414.414,0,0,1-.308-.224L20.2,1.9a.224.224,0,0,0-.4,0L18.28,4.978a.414.414,0,0,1-.308.224l-3.4.494a.223.223,0,0,0-.124.381l2.457,2.4a.409.409,0,0,1,.118.363l-.58,3.382a.218.218,0,0,0,.089.219.222.222,0,0,0,.237.018l3.037-1.6A.4.4,0,0,1,20,10.81Z" fill="#2c3543"/><path d="M25.44,39.043H14.56a1.537,1.537,0,0,1-1.573-1.5V30.9a6.523,6.523,0,0,1,3.537-5.7,1.342,1.342,0,0,1,1.295.019,4.445,4.445,0,0,0,4.361,0,1.34,1.34,0,0,1,1.3-.019h0a6.523,6.523,0,0,1,3.537,5.7v6.646A1.537,1.537,0,0,1,25.44,39.043ZM17.157,25.86a.521.521,0,0,0-.247.063A5.706,5.706,0,0,0,13.805,30.9v6.646a.72.72,0,0,0,.755.677H25.44a.72.72,0,0,0,.755-.677V30.9a5.708,5.708,0,0,0-3.105-4.978.508.508,0,0,0-.5,0,5.275,5.275,0,0,1-5.185,0A.488.488,0,0,0,17.157,25.86Z" fill="#2c3543"/><path d="M20,26.549a4.938,4.938,0,0,1-4.928-4.929A4.928,4.928,0,1,1,23.03,25.5,4.885,4.885,0,0,1,20,26.549Zm0-9.039a4.107,4.107,0,1,0,4.11,4.11A4.114,4.114,0,0,0,20,17.51Z" fill="#2c3543"/><path d="M10.993,33.947H4.6a1.359,1.359,0,0,1-1.389-1.324v-5.6a5.562,5.562,0,0,1,3.014-4.861,1.2,1.2,0,0,1,1.154.017,3.676,3.676,0,0,0,3.611,0,1.2,1.2,0,0,1,1.154-.017,5.839,5.839,0,0,1,2.231,2.09.409.409,0,0,1-.7.426,5,5,0,0,0-1.919-1.794.359.359,0,0,0-.355,0,4.5,4.5,0,0,1-4.434,0,.366.366,0,0,0-.357,0A4.743,4.743,0,0,0,4.03,27.023v5.6a.542.542,0,0,0,.571.505h6.392a.41.41,0,0,1,0,.819Z" fill="#2c3543"/><path d="M9.185,23.42a4.227,4.227,0,1,1,2.592-.9A4.187,4.187,0,0,1,9.185,23.42Zm0-7.617a3.395,3.395,0,1,0,3.4,3.4A3.4,3.4,0,0,0,9.185,15.8Z" fill="#2c3543"/><path d="M35.4,33.947H29.006a.41.41,0,0,1,0-.819H35.4a.542.542,0,0,0,.572-.505v-5.6a4.744,4.744,0,0,0-2.583-4.139.359.359,0,0,0-.355,0,4.505,4.505,0,0,1-4.435,0,.366.366,0,0,0-.357,0,5.022,5.022,0,0,0-1.918,1.794.409.409,0,0,1-.7-.426,5.839,5.839,0,0,1,2.231-2.09,1.2,1.2,0,0,1,1.154.017,3.676,3.676,0,0,0,3.611,0,1.2,1.2,0,0,1,1.154-.017,5.562,5.562,0,0,1,3.014,4.861v5.6A1.359,1.359,0,0,1,35.4,33.947Z" fill="#2c3543"/><path d="M30.814,23.42a4.224,4.224,0,1,1,2.593-.9A4.185,4.185,0,0,1,30.814,23.42Zm0-7.617a3.4,3.4,0,1,0,3.4,3.4A3.4,3.4,0,0,0,30.814,15.8Z" fill="#2c3543"/></svg>