<svg xmlns="http://www.w3.org/2000/svg" viewBox="0 0 40 40"><title>iconography-businessdevelopment.bizdev.bd-40x40-colorspot-outlines</title><circle cx="31.034" cy="30.243" r="7.723" fill="#ffb400"/><path d="M35.892,31.031a.487.487,0,0,1-.151-.95l1.724-.563a.711.711,0,0,0,.492-.678V18.655a.711.711,0,0,0-.49-.677l-10.1-3.322a9.063,9.063,0,0,0-7.134.645l-6.9,3.752a1.367,1.367,0,0,0,1.15,2.475l6.222-2.422a16.71,16.71,0,0,1,6.08-1.141h1.148a.487.487,0,0,1,0,.974H26.786a15.735,15.735,0,0,0-5.726,1.075l-6.223,2.422A2.341,2.341,0,0,1,12.868,18.2l6.9-3.752a10.037,10.037,0,0,1,7.9-.716l10.1,3.322a1.684,1.684,0,0,1,1.159,1.6V28.84a1.683,1.683,0,0,1-1.163,1.6l-1.724.563A.5.5,0,0,1,35.892,31.031Z" fill="#2c3543"/><path d="M15.93,37.372a2.02,2.02,0,0,1-.864-.2h0L15,37.143a2.015,2.015,0,0,1-.953-2.685l1.622-3.4a2.051,2.051,0,0,1,3.7,1.764l-1.621,3.4a2,2,0,0,1-1.146,1.034A2.029,2.029,0,0,1,15.93,37.372Zm1.593-6.515a1.081,1.081,0,0,0-.975.614l-1.622,3.4a1.041,1.041,0,0,0,.493,1.388l.066.032a1.042,1.042,0,0,0,1.388-.494l1.62-3.4a1.078,1.078,0,0,0-.97-1.542Z" fill="#2c3543"/><path d="M18.934,38.373a1.819,1.819,0,0,1-.785-.178l-.058-.026a1.836,1.836,0,0,1-.868-2.448l1.43-3a1.867,1.867,0,0,1,3.371,1.605l-1.43,3A1.837,1.837,0,0,1,18.934,38.373Zm1.4-5.743a.877.877,0,0,0-.3.051.889.889,0,0,0-.508.457l-1.43,3a.864.864,0,0,0,.408,1.149l.057.027a.868.868,0,0,0,1.147-.407l1.431-3a.894.894,0,0,0-.807-1.277Z" fill="#2c3543"/><path d="M12.876,36.145a2.088,2.088,0,0,1-.9-.205h0l-.069-.033a2.114,2.114,0,0,1-1-2.815l1.723-3.619a2.151,2.151,0,1,1,3.884,1.85l-1.724,3.618A2.112,2.112,0,0,1,12.876,36.145Zm1.693-6.925a1.189,1.189,0,0,0-.394.069,1.17,1.17,0,0,0-.669.6l-1.724,3.62a1.14,1.14,0,0,0,.539,1.517l.069.033a1.138,1.138,0,0,0,1.516-.538L15.631,30.9a1.18,1.18,0,0,0-1.062-1.684Z" fill="#2c3543"/><path d="M9.966,34.323a1.913,1.913,0,0,1-.825-.188h0l-.062-.029a1.93,1.93,0,0,1-.911-2.569L9.7,28.329a1.962,1.962,0,0,1,3.543,1.685L11.71,33.223A1.93,1.93,0,0,1,9.966,34.323Zm1.5-6.14a1,1,0,0,0-.331.058.984.984,0,0,0-.561.506L9.048,31.956A.954.954,0,0,0,9.5,33.227l.061.03a.957.957,0,0,0,1.271-.452L12.359,29.6a.988.988,0,0,0-.467-1.316A.992.992,0,0,0,11.467,28.183Z" fill="#2c3543"/><path d="M6.947,31.582H2.385a.478.478,0,0,1-.151-.025,1.682,1.682,0,0,1-1.164-1.6v-11.3a1.683,1.683,0,0,1,1.16-1.6c.161-.084,5.51-2.641,14.414-2.721a.514.514,0,0,1,.491.483.486.486,0,0,1-.482.491c-8.686.079-14,2.622-14.058,2.648a.745.745,0,0,0-.552.7v11.3a.711.711,0,0,0,.429.654H6.947a.488.488,0,0,1,0,.975Z" fill="#2c3543"/><path d="M26.949,36.589a2.348,2.348,0,0,1-1.8-.844l-.137-.165-5.564-6.863A.487.487,0,0,1,20.2,28.1l5.687,7.01a1.375,1.375,0,0,0,1.485.436,1.409,1.409,0,0,0,1-1.2.487.487,0,0,1,.967.112,2.364,2.364,0,0,1-1.686,2.02A2.433,2.433,0,0,1,26.949,36.589Z" fill="#2c3543"/><path d="M23.133,36.847a1.872,1.872,0,0,1-.378-.038.487.487,0,1,1,.193-.955.939.939,0,0,0,.906-.319A1.171,1.171,0,0,0,24.1,34.4a.487.487,0,0,1,.927-.3,2.145,2.145,0,0,1-.446,2.081A1.938,1.938,0,0,1,23.133,36.847Z" fill="#2c3543"/><path d="M30.606,36.072a2.142,2.142,0,0,1-1.668-.8l-6.61-8.152a.487.487,0,1,1,.757-.613l6.61,8.152a1.176,1.176,0,0,0,1.826-1.481L24.91,25.025a.487.487,0,0,1,.757-.613l6.611,8.153a2.154,2.154,0,0,1-1.672,3.507Z" fill="#2c3543"/><path d="M32.757,34.174a2.246,2.246,0,0,1-.282-.017.488.488,0,0,1-.429-.539.478.478,0,0,1,.539-.428,1.319,1.319,0,0,0,1.333-.711,1.81,1.81,0,0,0-.178-1.987L25.9,20.786a.487.487,0,1,1,.758-.611l7.841,9.7a2.787,2.787,0,0,1,.275,3.067A2.261,2.261,0,0,1,32.757,34.174Z" fill="#2c3543"/><path d="M5.046,14.413a.487.487,0,0,1-.323-.852l9.033-8.013a.489.489,0,0,1,.561-.061l9.934,5.558L34.432,2.013a.487.487,0,0,1,.647.729L24.639,12a.482.482,0,0,1-.561.06L14.144,6.506,5.369,14.29A.485.485,0,0,1,5.046,14.413Z" fill="#2c3543"/><path d="M34.689,2.865a.377.377,0,0,1-.058,0l-2.2-.263a.486.486,0,0,1-.426-.541.48.48,0,0,1,.541-.425l2.2.262a.487.487,0,0,1-.057.971Z" fill="#2c3543"/><path d="M34.954,5.144a.487.487,0,0,1-.485-.443l-.2-2.206a.486.486,0,0,1,.441-.529.491.491,0,0,1,.528.441l.2,2.206A.486.486,0,0,1,35,5.142Z" fill="#2c3543"/></svg>