<svg xmlns="http://www.w3.org/2000/svg" viewBox="0 0 40 40"><defs><style>.cls-1{fill:#4c4fee;}.cls-2{fill:#2c3543;}</style></defs><title>impression40x40-colorspot-outlinesindigo</title><g id="Layer_7" data-name="Layer 7"><circle class="cls-1" cx="31.034" cy="30.243" r="7.723"/></g><g id="Layer_1" data-name="Layer 1"><path class="cls-2" d="M20.324,34.489H4.872a.375.375,0,0,1,0-.75H20.324a.375.375,0,1,1,0,.75Z"/><path class="cls-2" d="M12.6,14.548H4.872a.375.375,0,0,1,0-.75H12.6a.375.375,0,0,1,0,.75Z"/><path class="cls-2" d="M7.977,38.977A3.752,3.752,0,0,1,4.5,35.01V13.155a3.752,3.752,0,0,1,3.48-3.967H12.6a.375.375,0,0,1,0,.75H7.977a3.007,3.007,0,0,0-2.73,3.217V35.01a3.008,3.008,0,0,0,2.73,3.217h9.236a2.906,2.906,0,0,0,2.731-3.2V31.4a.375.375,0,0,1,.75,0V35.01a3.628,3.628,0,0,1-3.449,3.966Z"/><path class="cls-2" d="M34.475,29.488H14.668A1.029,1.029,0,0,1,13.64,28.46V2.051a1.028,1.028,0,0,1,1.028-1.027H34.475A1.028,1.028,0,0,1,35.5,2.051V28.46A1.029,1.029,0,0,1,34.475,29.488ZM14.668,1.774a.278.278,0,0,0-.278.277V28.46a.279.279,0,0,0,.278.278H34.475a.279.279,0,0,0,.278-.278V2.051a.278.278,0,0,0-.278-.277Z"/><path class="cls-2" d="M32.8,21.394H16.344a.375.375,0,0,1-.375-.375V4.565a.374.374,0,0,1,.375-.375H32.8a.374.374,0,0,1,.375.375V21.019A.375.375,0,0,1,32.8,21.394Zm-16.08-.75h15.7V4.94h-15.7Z"/><path class="cls-2" d="M27.046,11.338l-.605.446.019.028,3.288,5.359H19.763l1.82-2.824.629,1a.935.935,0,0,0,1.58,0l2.277-3.6a.2.2,0,0,1,.172-.1.2.2,0,0,1,.172.1l.633-.4m-.8-.446a.951.951,0,0,0-.806.446l-2.278,3.6a.184.184,0,0,1-.311,0l-.728-1.152-.008-.011-.007-.011a.624.624,0,0,0-.377-.281.64.64,0,0,0-.143-.016.6.6,0,0,0-.51.282l-2.5,3.883a.185.185,0,0,0,.155.285H30.758a.185.185,0,0,0,.158-.281L27.085,11.4l-.012-.017-.027-.042a.948.948,0,0,0-.8-.446Z"/><path class="cls-2" d="M23.14,9.779a.626.626,0,1,1-.626.626.627.627,0,0,1,.626-.626m0-.75a1.376,1.376,0,1,0,1.376,1.376A1.377,1.377,0,0,0,23.14,9.029Z"/><path class="cls-2" d="M28.847,26.717H20.185a.7.7,0,0,1-.7-.7V23.951a.7.7,0,0,1,.7-.7h8.662a.7.7,0,0,1,.7.7v2.065A.7.7,0,0,1,28.847,26.717ZM28.8,23.951,20.185,24l.049,2.016,8.565-.049Z"/></g></svg>