<svg xmlns="http://www.w3.org/2000/svg" viewBox="0 0 40 40"><defs><style>.cls-1{fill:#2c3543;}.cls-2{fill:#4c4fee;}</style></defs><title>inappevents.event-40x40-colorspot-outlinesindigo</title><g id="Layer_7" data-name="Layer 7"><circle class="cls-2" cx="31.034" cy="30.243" r="7.723"/></g><g id="Layer_1" data-name="Layer 1"><path class="cls-1" d="M30.3,6.638H9.509a.375.375,0,0,1,0-.75H30.3a.375.375,0,0,1,0,.75Z"/><path class="cls-1" d="M36.186,36.824H3.814a2,2,0,0,1-2-2V7.89a2,2,0,0,1,2-2H6.89a.375.375,0,0,1,0,.75H3.814A1.253,1.253,0,0,0,2.562,7.89V34.823a1.253,1.253,0,0,0,1.252,1.251H36.186a1.253,1.253,0,0,0,1.252-1.251V7.89a1.253,1.253,0,0,0-1.252-1.252H32.92a.375.375,0,0,1,0-.75h3.266a2,2,0,0,1,2,2V34.823A2,2,0,0,1,36.186,36.824Z"/><path class="cls-1" d="M23.435,30.805a1.027,1.027,0,0,1-.48-.119L20,29.132l-2.955,1.554A1.029,1.029,0,0,1,15.553,29.6l.565-3.29-2.391-2.331a1.028,1.028,0,0,1,.569-1.753l3.305-.481,1.477-2.994a1.028,1.028,0,0,1,1.844,0L22.4,21.747l3.305.481a1.028,1.028,0,0,1,.569,1.753l-2.391,2.331.565,3.29a1.031,1.031,0,0,1-1.012,1.2ZM20,18.93a.272.272,0,0,0-.249.155l-1.565,3.171a.373.373,0,0,1-.282.2l-3.5.509a.278.278,0,0,0-.154.474l2.532,2.468a.373.373,0,0,1,.108.332l-.6,3.485A.271.271,0,0,0,16.4,30a.276.276,0,0,0,.292.021l3.13-1.646a.384.384,0,0,1,.349,0L23.3,30.022A.278.278,0,0,0,23.6,30a.271.271,0,0,0,.11-.272l-.6-3.485a.375.375,0,0,1,.107-.332l2.533-2.468a.278.278,0,0,0-.155-.474l-3.5-.509a.373.373,0,0,1-.282-.2l-1.565-3.171h0A.272.272,0,0,0,20,18.93Z"/><path class="cls-1" d="M8.459,9.692H7.941A1.428,1.428,0,0,1,6.515,8.266V4.6A1.428,1.428,0,0,1,7.941,3.175h.518A1.427,1.427,0,0,1,9.884,4.6V8.266A1.427,1.427,0,0,1,8.459,9.692ZM7.941,3.925a.676.676,0,0,0-.676.676V8.266a.676.676,0,0,0,.676.676h.518a.676.676,0,0,0,.675-.676V4.6a.676.676,0,0,0-.675-.676Z"/><path class="cls-1" d="M31.87,9.692h-.518a1.428,1.428,0,0,1-1.426-1.426V4.6a1.428,1.428,0,0,1,1.426-1.426h.518A1.427,1.427,0,0,1,33.3,4.6V8.266A1.427,1.427,0,0,1,31.87,9.692Zm-.518-5.767a.676.676,0,0,0-.676.676V8.266a.676.676,0,0,0,.676.676h.518a.676.676,0,0,0,.675-.676V4.6a.676.676,0,0,0-.675-.676Z"/><path class="cls-1" d="M37.813,13.375H2.187a.375.375,0,1,1,0-.75H37.813a.375.375,0,0,1,0,.75Z"/></g></svg>