<svg xmlns="http://www.w3.org/2000/svg" xmlns:xlink="http://www.w3.org/1999/xlink" viewBox="0 0 253 416"><defs><style>.cls-1{fill:none;}.cls-2{clip-path:url(#clip-path);}.cls-3{fill:#00cbaa;}.cls-4{clip-path:url(#clip-path-2);}.cls-5{fill:url(#linear-gradient);}.cls-6{fill:url(#linear-gradient-2);}</style><clipPath id="clip-path"><rect class="cls-1" y="592.75" width="1440" height="2037.811"/></clipPath><clipPath id="clip-path-2"><rect class="cls-1" y="-0.338" width="253" height="416"/></clipPath><linearGradient id="linear-gradient" x1="-134.064" y1="318.249" x2="144.065" y2="202.097" gradientUnits="userSpaceOnUse"><stop offset="0.165" stop-color="#3088f4"/><stop offset="0.237" stop-color="#4499f6"/><stop offset="0.473" stop-color="#7fcbfb"/><stop offset="0.647" stop-color="#a4eafe"/><stop offset="0.739" stop-color="#b2f6ff"/></linearGradient><linearGradient id="linear-gradient-2" x1="88.638" y1="5.055" x2="165.004" y2="187.917" gradientUnits="userSpaceOnUse"><stop offset="0" stop-color="#4759ef"/><stop offset="0.564" stop-color="#4c4fee"/><stop offset="1" stop-color="#3e36e6"/></linearGradient></defs><title>Artboard 25 copy 2</title><g id="Layer_1" data-name="Layer 1"><g class="cls-2"><path class="cls-3" d="M36.97,2628.155c-54.706.321-106.221-27.1-135.272-73.453q-.88-1.4-1.733-2.827c-55.685-92.9-101.045-184.529-134.822-272.346-33.307-86.6-56.411-172.225-68.666-254.5-12-80.585-13.959-160.24-5.813-236.753a863.357,863.357,0,0,1,50.947-213.737c23.924-63.292,56.031-125.74,95.425-185.611,35.155-53.428,77.331-106.615,125.357-158.086,77.827-83.412,171.265-163.733,294.054-252.777C520.614,786.493,664.8,594.867,673.419,423.9c3.3-65.419-13.137-129.14-48.849-189.394-29.4-49.6-31.031-78.347-31.351-78.631.933.832-28.863,1.241-28.863,1.241L810.727-97.26c10.654,9.051,66.54,58.533,120.6,144.167a701.342,701.342,0,0,1,76.259,163.781A654.732,654.732,0,0,1,1037.4,432.745c-5.109,133.12-50.331,266.533-134.409,396.532-45.143,69.8-102.337,139.661-170,207.649-70.692,71.039-154.91,142.139-250.313,211.322C377.7,1324.381,299.542,1391.2,236.72,1458.528,164.153,1536.3,114.232,1612.85,84.1,1692.55c-33.506,88.636-42.409,181.306-27.215,283.3,18.164,121.939,71.875,258.009,159.643,404.432a166.876,166.876,0,0,1,18.743,126.338c-2.688,10.733-8.787,22.512-16.424,34.142a192.645,192.645,0,0,1-16.375,21.485c-33.975,38.635-82.416,61.5-133.77,64.625C58.071,2627.522,46.163,2628.1,36.97,2628.155Z"/></g><g class="cls-4"><path class="cls-5" d="M66.717,289.052c0,77.61-56.625,140.526-130.634,140.526s-134.006-62.916-134.006-140.526,60-140.526,134.006-140.526S66.717,206.475,66.717,289.052Z"/><path class="cls-6" d="M252.889,0C214.655,39.872,139.28,123.44,0,191.169V0Z"/></g></g></svg>