<svg xmlns="http://www.w3.org/2000/svg" viewBox="0 0 40 40"><defs><style>.cls-1{fill:#4c4fee;}.cls-2{fill:#2c3543;}</style></defs><title>insights-40x40-colorspot-outlinesindigo</title><g id="Layer_7" data-name="Layer 7"><circle class="cls-1" cx="31.034" cy="30.243" r="7.723"/></g><g id="Layer_1" data-name="Layer 1"><path class="cls-2" d="M20,35.514C7.72,35.514,1.166,25.7,1.166,23.8S7.72,12.08,20,12.08,38.835,21.89,38.835,23.8,32.28,35.514,20,35.514ZM20,12.83C8.209,12.83,1.916,22.012,1.916,23.8S8.209,34.764,20,34.764,38.085,25.582,38.085,23.8,31.792,12.83,20,12.83Z"/><path class="cls-2" d="M20,31.541A7.745,7.745,0,1,1,27.745,23.8,7.754,7.754,0,0,1,20,31.541ZM20,16.8a6.995,6.995,0,1,0,7,7A7,7,0,0,0,20,16.8Z"/><path class="cls-2" d="M28.735,10.3a.376.376,0,0,1-.3-.6L31.129,6a.375.375,0,0,1,.606.441l-2.7,3.706A.378.378,0,0,1,28.735,10.3Z"/><path class="cls-2" d="M11.265,10.3a.377.377,0,0,1-.3-.154l-2.7-3.706A.375.375,0,0,1,8.871,6l2.7,3.705a.376.376,0,0,1-.3.6Z"/><path class="cls-2" d="M20.125,8.882a.376.376,0,0,1-.375-.374l0-3.646a.375.375,0,0,1,.375-.376h0a.375.375,0,0,1,.375.374l0,3.646a.374.374,0,0,1-.374.376Z"/></g></svg>