<svg xmlns="http://www.w3.org/2000/svg" viewBox="0 0 40 40"><defs><style>.cls-1{fill:#ffb400;}.cls-2{fill:#2c3543;}</style></defs><title>intelligentautomation-40x40-colorspot-outlinesyellow</title><g id="Layer_7" data-name="Layer 7"><circle class="cls-1" cx="31.034" cy="30.243" r="7.723"/></g><g id="Layer_1" data-name="Layer 1"><path class="cls-2" d="M26.756,20.332a.37.37,0,0,1-.21-.064.375.375,0,0,1-.1-.521A7.966,7.966,0,0,0,15.566,8.574a.375.375,0,0,1-.4-.632,8.715,8.715,0,0,1,11.9,12.225A.374.374,0,0,1,26.756,20.332Z"/><path class="cls-2" d="M18.706,9.079h-.023l-3.32-.2a.6.6,0,0,1-.494-.887l1.673-3.119a.375.375,0,0,1,.661.356L15.639,8.143l3.089.187a.375.375,0,0,1-.022.749Z"/><path class="cls-2" d="M20.159,23.636A8.715,8.715,0,0,1,12.933,10.05a.375.375,0,0,1,.622.42A7.965,7.965,0,0,0,24.434,21.643a.375.375,0,1,1,.4.633A8.7,8.7,0,0,1,20.159,23.636Z"/><path class="cls-2" d="M23.127,25.543a.378.378,0,0,1-.177-.045.373.373,0,0,1-.153-.507l1.565-2.918-3.09-.187a.376.376,0,0,1-.352-.4.37.37,0,0,1,.4-.351l3.32.2a.6.6,0,0,1,.5.886l-1.674,3.12A.374.374,0,0,1,23.127,25.543Zm1.463-3.456h0Z"/><path class="cls-2" d="M14.6,34.192a.375.375,0,0,1-.375-.375c0-3.066-1.656-6.667-4.432-9.636A13.967,13.967,0,0,1,18.921.72,13.856,13.856,0,0,1,29.5,4.406,13.965,13.965,0,0,1,30,24.4a14.4,14.4,0,0,0-4.227,9.336.375.375,0,0,1-.75,0,14.973,14.973,0,0,1,4.44-9.86,13.214,13.214,0,0,0-.477-18.915,13.1,13.1,0,0,0-10.01-3.488,13.217,13.217,0,0,0-8.635,22.2c2.9,3.1,4.634,6.9,4.634,10.148A.375.375,0,0,1,14.6,34.192Z"/><path class="cls-2" d="M24.982,36.811H14.814A1.312,1.312,0,0,1,13.5,35.5v-.639a1.312,1.312,0,0,1,1.31-1.31H24.982a1.312,1.312,0,0,1,1.31,1.31V35.5A1.312,1.312,0,0,1,24.982,36.811ZM14.814,34.3a.56.56,0,0,0-.56.56V35.5a.561.561,0,0,0,.56.561H24.982a.561.561,0,0,0,.56-.561v-.639a.56.56,0,0,0-.56-.56Z"/><path class="cls-2" d="M24.982,39.32H14.814a1.311,1.311,0,0,1-1.31-1.31v-.64a1.312,1.312,0,0,1,1.31-1.309H24.982a1.312,1.312,0,0,1,1.31,1.309v.64A1.311,1.311,0,0,1,24.982,39.32ZM14.814,36.811a.56.56,0,0,0-.56.559v.64a.56.56,0,0,0,.56.56H24.982a.56.56,0,0,0,.56-.56v-.64a.56.56,0,0,0-.56-.559Z"/></g></svg>