<svg xmlns="http://www.w3.org/2000/svg" viewBox="0 0 40 40"><defs><style>.cls-1{fill:#ffb400;}.cls-2{fill:#2c3543;}</style></defs><title>integrations-40x40-colorspot-outlinesyellow</title><g id="Layer_7" data-name="Layer 7"><circle class="cls-1" cx="31.034" cy="30.243" r="7.723"/></g><g id="Layer_1" data-name="Layer 1"><path class="cls-2" d="M21.776,38.457a.375.375,0,0,1-.036-.748c.514-.05,1.034-.124,1.546-.218A17.756,17.756,0,0,0,37.758,20.035a17.975,17.975,0,0,0-.337-3.464A17.635,17.635,0,0,0,35.293,11a.375.375,0,0,1,.645-.383,18.36,18.36,0,0,1,2.218,5.805,18.531,18.531,0,0,1-14.732,21.8c-.534.1-1.076.177-1.611.228Zm-3.688-.013-.04,0-.386-.045h-.008q-.546-.069-1.078-.169A18.53,18.53,0,0,1,1.868,16.306v0A18.352,18.352,0,0,1,4.1,10.558a.375.375,0,1,1,.643.385A17.656,17.656,0,0,0,2.6,16.456h0A17.785,17.785,0,0,0,16.714,37.491c.341.063.684.117,1.031.161h0l.379.044a.375.375,0,0,1-.039.748ZM33.16,7.936a.374.374,0,0,1-.272-.117,17.759,17.759,0,0,0-8-4.86,17.981,17.981,0,0,0-9.782,0A17.8,17.8,0,0,0,7.427,7.494.375.375,0,1,1,6.9,6.965,18.5,18.5,0,0,1,33.432,7.3a.375.375,0,0,1-.272.633Z"/><path class="cls-2" d="M19.993,38.473a.375.375,0,0,1-.375-.375V24.488a.375.375,0,0,1,.75,0V38.1A.375.375,0,0,1,19.993,38.473Z"/><path class="cls-2" d="M16.645,27.741a.375.375,0,0,1-.262-.642c3.41-3.345,3.41-3.345,3.619-3.345s.209,0,3.615,3.337a.374.374,0,1,1-.524.535c-.992-.969-2.516-2.455-3.091-3-.574.541-2.1,2.03-3.094,3A.377.377,0,0,1,16.645,27.741Z"/><path class="cls-2" d="M14.328,16.425a.371.371,0,0,1-.233-.081L5.284,9.338a.375.375,0,0,1,.467-.588l8.811,7.006a.375.375,0,0,1-.234.669Z"/><path class="cls-2" d="M10.163,17.336a.375.375,0,0,1-.041-.748c1.381-.153,3.5-.394,4.284-.5-.056-.787-.242-2.907-.368-4.288a.375.375,0,0,1,.34-.407.371.371,0,0,1,.407.339c.432,4.75.432,4.75.3,4.911s-.132.161-4.879.689Z"/><path class="cls-2" d="M25.205,16.5a.375.375,0,0,1-.228-.673l9.278-7.085a.375.375,0,0,1,.455.6l-9.278,7.085A.373.373,0,0,1,25.205,16.5Z"/><path class="cls-2" d="M29.6,17.336l-.042,0c-4.748-.528-4.748-.528-4.88-.689s-.132-.161.3-4.911a.369.369,0,0,1,.407-.339.374.374,0,0,1,.34.407c-.126,1.381-.312,3.5-.367,4.288.783.1,2.9.345,4.284.5a.375.375,0,0,1-.041.748Z"/></g></svg>