<svg xmlns="http://www.w3.org/2000/svg" viewBox="0 0 40 40"><defs><style>.cls-1{fill:#ffb400;}.cls-2{fill:#2c3543;}</style></defs><title>lock.secure.security-40x40-colorspot-outlinesyellow</title><g id="Layer_7" data-name="Layer 7"><circle class="cls-1" cx="31.034" cy="30.243" r="7.723"/></g><g id="Layer_1" data-name="Layer 1"><path class="cls-2" d="M30.3,39H9.7a3.969,3.969,0,0,1-3.965-3.965V19.122A3.97,3.97,0,0,1,9.7,15.157H30.3a3.97,3.97,0,0,1,3.965,3.965V35.036A3.969,3.969,0,0,1,30.3,39ZM9.7,15.907a3.219,3.219,0,0,0-3.215,3.215V35.036A3.218,3.218,0,0,0,9.7,38.251H30.3a3.219,3.219,0,0,0,3.215-3.215V19.122A3.22,3.22,0,0,0,30.3,15.907Z"/><path class="cls-2" d="M30.15,15.907H26.331a.375.375,0,0,1-.375-.375V9.723A4.666,4.666,0,0,0,21.3,5.062H18.7a4.666,4.666,0,0,0-4.661,4.661v5.809a.375.375,0,0,1-.375.375H9.85a.375.375,0,0,1-.375-.375V9.447A8.458,8.458,0,0,1,17.924,1h4.152a8.458,8.458,0,0,1,8.449,8.448v6.085A.375.375,0,0,1,30.15,15.907Zm-3.444-.75h3.069V9.447a7.707,7.707,0,0,0-7.7-7.7H17.924a7.707,7.707,0,0,0-7.7,7.7v5.71h3.069V9.723A5.417,5.417,0,0,1,18.7,4.312H21.3a5.417,5.417,0,0,1,5.411,5.411Z"/></g></svg>