<svg xmlns="http://www.w3.org/2000/svg" viewBox="0 0 40 40"><defs><style>.cls-1{fill:#3088f4;}.cls-2{fill:#2c3543;}</style></defs><title>london-40x40-colorspot-outlinesblue</title><g id="Layer_7" data-name="Layer 7"><circle class="cls-1" cx="31.034" cy="30.243" r="7.723"/></g><g id="Layer_1" data-name="Layer 1"><path class="cls-2" d="M36.492,25.51H30.617a1.375,1.375,0,1,1,0-2.749h.01a1.962,1.962,0,0,1,1.885-1.25,2.457,2.457,0,0,1,2.051-1.1,2.482,2.482,0,0,1,2.38,1.821,1.669,1.669,0,0,1-.451,3.275Zm-5.875-1.956a.582.582,0,1,0,0,1.163h5.875a.875.875,0,0,0,.081-1.746.4.4,0,0,1-.356-.337,1.673,1.673,0,0,0-3.141-.522.4.4,0,0,1-.417.209,1.166,1.166,0,0,0-.194-.018,1.181,1.181,0,0,0-1.163.97.4.4,0,0,1-.509.308A.583.583,0,0,0,30.617,23.554Z"/><path class="cls-2" d="M25.939,38.372H17.027a.4.4,0,0,1-.4-.4V26.038a.4.4,0,0,1,.793,0V37.579h8.12V26.038a.4.4,0,0,1,.793,0V37.976A.4.4,0,0,1,25.939,38.372Z"/><path class="cls-2" d="M24.039,10.669a.4.4,0,0,1-.4-.4v-4.7a.4.4,0,1,1,.794,0v4.7A.4.4,0,0,1,24.039,10.669Z"/><path class="cls-2" d="M24.039,8.394a.4.4,0,0,1-.365-.241L21.483,3.032,19.291,8.153a.4.4,0,1,1-.729-.312l2.556-5.973a.4.4,0,0,1,.73,0L24.4,7.841a.4.4,0,0,1-.209.521A.393.393,0,0,1,24.039,8.394Z"/><path class="cls-2" d="M18.927,10.669a.4.4,0,0,1-.4-.4v-4.7a.4.4,0,1,1,.793,0v4.7A.4.4,0,0,1,18.927,10.669Z"/><path class="cls-2" d="M21.483,24.28a3.865,3.865,0,1,1,3.865-3.865A3.87,3.87,0,0,1,21.483,24.28Zm0-6.936a3.072,3.072,0,1,0,3.072,3.071A3.075,3.075,0,0,0,21.483,17.344Z"/><path class="cls-2" d="M21.483,21.32a.4.4,0,0,1-.4-.4V18.355a.4.4,0,1,1,.793,0v2.569A.4.4,0,0,1,21.483,21.32Z"/><path class="cls-2" d="M22.894,21.32H21.483a.4.4,0,1,1,0-.793h1.411a.4.4,0,0,1,0,.793Z"/><path class="cls-2" d="M19.033,38.372a.4.4,0,0,1-.4-.4V29.508a.4.4,0,0,1,.793,0v8.468A.4.4,0,0,1,19.033,38.372Z"/><path class="cls-2" d="M21.483,38.372a.4.4,0,0,1-.4-.4V29.508a.4.4,0,0,1,.793,0v8.468A.4.4,0,0,1,21.483,38.372Z"/><path class="cls-2" d="M23.932,38.372a.4.4,0,0,1-.4-.4V29.508a.4.4,0,0,1,.793,0v8.468A.4.4,0,0,1,23.932,38.372Z"/><path class="cls-2" d="M25.32,15.242a.4.4,0,0,1-.4-.4V12.4H18.042v2.445a.4.4,0,0,1-.793,0V12a.4.4,0,0,1,.4-.4H25.32a.4.4,0,0,1,.4.4v2.842A.4.4,0,0,1,25.32,15.242Z"/><path class="cls-2" d="M25.32,12.4A.4.4,0,0,1,25,12.228l-1.1-1.559H19.067l-1.1,1.559a.4.4,0,1,1-.649-.456l1.216-1.728a.4.4,0,0,1,.324-.168H24.1a.4.4,0,0,1,.325.168l1.215,1.728a.4.4,0,0,1-.324.625Z"/><path class="cls-2" d="M24.039,8.394H18.927a.4.4,0,1,1,0-.793h5.112a.4.4,0,1,1,0,.793Z"/><path class="cls-2" d="M26.618,25.023H16.348a.4.4,0,0,1-.4-.4V16.2a.4.4,0,0,1,.4-.4h10.27a.4.4,0,0,1,.4.4v8.422A.4.4,0,0,1,26.618,25.023Zm-9.873-.793h9.476V16.6H16.745Z"/><path class="cls-2" d="M27.122,16.625H15.843a.4.4,0,0,1-.4-.4V15.015a.4.4,0,0,1,.4-.4H27.122a.4.4,0,0,1,.4.4v1.213A.4.4,0,0,1,27.122,16.625ZM16.24,15.832H26.726v-.42H16.24Z"/><path class="cls-2" d="M27.122,26.435H15.843a.4.4,0,0,1-.4-.4V24.615a.4.4,0,0,1,.4-.4H27.122a.4.4,0,0,1,.4.4v1.423A.4.4,0,0,1,27.122,26.435ZM16.24,25.642H26.726v-.631H16.24Z"/><path class="cls-2" d="M19.193,15.412a.4.4,0,0,1-.4-.4V13.39a.4.4,0,1,1,.793,0v1.625A.4.4,0,0,1,19.193,15.412Z"/><path class="cls-2" d="M20.72,15.412a.4.4,0,0,1-.4-.4V13.39a.4.4,0,1,1,.793,0v1.625A.4.4,0,0,1,20.72,15.412Z"/><path class="cls-2" d="M22.246,15.412a.4.4,0,0,1-.4-.4V13.39a.4.4,0,1,1,.793,0v1.625A.4.4,0,0,1,22.246,15.412Z"/><path class="cls-2" d="M23.773,15.412a.4.4,0,0,1-.4-.4V13.39a.4.4,0,1,1,.793,0v1.625A.4.4,0,0,1,23.773,15.412Z"/><path class="cls-2" d="M22.731,10.669a.4.4,0,0,1-.4-.4V9.264a.4.4,0,0,1,.793,0v1.008A.4.4,0,0,1,22.731,10.669Z"/><path class="cls-2" d="M21.483,10.669a.4.4,0,0,1-.4-.4V9.264a.4.4,0,0,1,.793,0v1.008A.4.4,0,0,1,21.483,10.669Z"/><path class="cls-2" d="M20.235,10.669a.4.4,0,0,1-.4-.4V9.264a.4.4,0,0,1,.793,0v1.008A.4.4,0,0,1,20.235,10.669Z"/><path class="cls-2" d="M25.351,15.242a.4.4,0,0,1-.4-.4V10.21a.4.4,0,0,1,.793,0v4.636A.4.4,0,0,1,25.351,15.242Z"/><path class="cls-2" d="M17.646,15.242a.4.4,0,0,1-.4-.4V10.21a.4.4,0,0,1,.793,0v4.636A.4.4,0,0,1,17.646,15.242Z"/><path class="cls-2" d="M5.194,38.372a.4.4,0,0,1-.4-.4v-6.8a.4.4,0,0,1,.4-.4H16.865a.4.4,0,1,1,0,.793H5.59v6.4A.4.4,0,0,1,5.194,38.372Z"/><path class="cls-2" d="M5.141,38.372a.4.4,0,0,1-.4-.4V29.508a.4.4,0,0,1,.793,0v8.468A.4.4,0,0,1,5.141,38.372Z"/><path class="cls-2" d="M25.939,38.372H2.237a.4.4,0,1,1,0-.793h23.7a.4.4,0,1,1,0,.793Z"/><path class="cls-2" d="M34.6,38.372H27.122a.4.4,0,0,1,0-.793H34.6a2.968,2.968,0,0,0,2.217-.833,1.358,1.358,0,0,0,.386-.923,1.586,1.586,0,0,0-1.555-1.714,1.707,1.707,0,0,0-.517.08.4.4,0,0,1-.51-.307,3,3,0,0,0-2.959-2.471,3.041,3.041,0,0,0-.5.045.4.4,0,0,1-.417-.209,4.057,4.057,0,0,0-3.613-2.2.4.4,0,1,1,0-.793,4.846,4.846,0,0,1,4.181,2.382,3.425,3.425,0,0,1,.345-.018,3.8,3.8,0,0,1,3.644,2.722,2.447,2.447,0,0,1,.342-.024A2.378,2.378,0,0,1,38,35.823a2.149,2.149,0,0,1-.617,1.483A3.769,3.769,0,0,1,34.6,38.372Z"/><path class="cls-2" d="M7.909,31.576a.4.4,0,0,1-.4-.4V29.508a.4.4,0,0,1,.794,0V31.18A.4.4,0,0,1,7.909,31.576Z"/><path class="cls-2" d="M11.054,31.576a.4.4,0,0,1-.4-.4V29.508a.4.4,0,0,1,.793,0V31.18A.4.4,0,0,1,11.054,31.576Z"/><path class="cls-2" d="M14.2,31.576a.4.4,0,0,1-.4-.4V29.508a.4.4,0,0,1,.794,0V31.18A.4.4,0,0,1,14.2,31.576Z"/><path class="cls-2" d="M14.2,38.064a.4.4,0,0,1-.4-.4V34.039a.4.4,0,1,1,.794,0v3.628A.4.4,0,0,1,14.2,38.064Z"/><path class="cls-2" d="M11.054,38.064a.4.4,0,0,1-.4-.4V34.039a.4.4,0,1,1,.793,0v3.628A.4.4,0,0,1,11.054,38.064Z"/><path class="cls-2" d="M7.909,38.064a.4.4,0,0,1-.4-.4V34.039a.4.4,0,0,1,.794,0v3.628A.4.4,0,0,1,7.909,38.064Z"/><path class="cls-2" d="M16.865,32.783H5.194a.4.4,0,1,1,0-.793H16.865a.4.4,0,1,1,0,.793Z"/><path class="cls-2" d="M18.927,27.6a.4.4,0,0,1-.4-.4V26.038a.4.4,0,0,1,.793,0V27.2A.4.4,0,0,1,18.927,27.6Z"/><path class="cls-2" d="M21.483,27.6a.4.4,0,0,1-.4-.4V26.038a.4.4,0,0,1,.793,0V27.2A.4.4,0,0,1,21.483,27.6Z"/><path class="cls-2" d="M24.039,27.6a.4.4,0,0,1-.4-.4V26.038a.4.4,0,0,1,.794,0V27.2A.4.4,0,0,1,24.039,27.6Z"/></g></svg>