<svg xmlns="http://www.w3.org/2000/svg" viewBox="0 0 40 40"  width="85" height="85"><defs><style>.cls-1{fill:#4c4fee;}.cls-2{fill:#2c3543;}</style></defs><title>lookalikes-40x40-colorspot-outlinesindigo</title><g id="Layer_7" data-name="Layer 7"><circle class="cls-1" cx="31.034" cy="30.243" r="7.723"/></g><g id="Layer_1" data-name="Layer 1"><path class="cls-2" d="M36.572,38.849H15.02a1.683,1.683,0,0,1-1.681-1.681V15.616a1.683,1.683,0,0,1,1.681-1.681H36.572a1.683,1.683,0,0,1,1.681,1.681V37.168A1.683,1.683,0,0,1,36.572,38.849ZM15.02,14.685a.933.933,0,0,0-.931.931V37.168a.933.933,0,0,0,.931.931H36.572a.932.932,0,0,0,.931-.931V15.616a.932.932,0,0,0-.931-.931Z"/><path class="cls-2" d="M29.269,33.64H22.323a1.1,1.1,0,0,1-1.118-1.068V28.33a4.279,4.279,0,0,1,2.318-3.74.978.978,0,0,1,.939.014,2.707,2.707,0,0,0,2.669,0,.968.968,0,0,1,.939-.013,4.277,4.277,0,0,1,2.317,3.739v4.242A1.1,1.1,0,0,1,29.269,33.64Zm-5.287-8.415a.226.226,0,0,0-.1.026,3.531,3.531,0,0,0-1.923,3.079v4.242a.346.346,0,0,0,.368.318h6.946a.346.346,0,0,0,.368-.318V28.33a3.527,3.527,0,0,0-1.922-3.078h0a.211.211,0,0,0-.2,0,3.484,3.484,0,0,1-3.425,0A.2.2,0,0,0,23.982,25.225Z"/><path class="cls-2" d="M25.8,25.664a3.266,3.266,0,0,1-3.26-3.259A3.26,3.26,0,1,1,27.8,24.973,3.228,3.228,0,0,1,25.8,25.664Zm0-5.769a2.508,2.508,0,1,0,2.51,2.51A2.513,2.513,0,0,0,25.8,19.9Z"/><path class="cls-2" d="M12.162,26.065H3.427a1.683,1.683,0,0,1-1.68-1.681V2.831a1.682,1.682,0,0,1,1.68-1.68H24.98a1.683,1.683,0,0,1,1.681,1.68V12.956a.375.375,0,1,1-.75,0V2.831a.932.932,0,0,0-.931-.93H3.427a.931.931,0,0,0-.93.93V24.384a.932.932,0,0,0,.93.931h8.735a.375.375,0,1,1,0,.75Z"/><path class="cls-2" d="M12.162,20.855H10.731a1.1,1.1,0,0,1-1.118-1.067V15.544a4.279,4.279,0,0,1,2.318-3.739.96.96,0,0,1,.938.014,2.709,2.709,0,0,0,2.67,0,.969.969,0,0,1,.937-.014,4.539,4.539,0,0,1,1.288,1.024.375.375,0,0,1-.566.492,3.786,3.786,0,0,0-1.076-.855.219.219,0,0,0-.205,0,3.48,3.48,0,0,1-3.426,0,.217.217,0,0,0-.207,0,3.528,3.528,0,0,0-1.921,3.077v4.244a.346.346,0,0,0,.368.317h1.431a.375.375,0,1,1,0,.75Z"/><path class="cls-2" d="M14.2,12.88a3.268,3.268,0,0,1-3.26-3.26,3.26,3.26,0,1,1,5.263,2.568A3.221,3.221,0,0,1,14.2,12.88Zm0-5.77a2.508,2.508,0,1,0,2.51,2.51A2.513,2.513,0,0,0,14.2,7.11Z"/></g></svg>