<svg xmlns="http://www.w3.org/2000/svg" viewBox="0 0 40 40"><defs><style>.cls-1{fill:#ffb400;}.cls-2{fill:#2c3543;}</style></defs><title>multiple.devices-40x40-colorspot-outlinesyellow</title><g id="Layer_7" data-name="Layer 7"><circle class="cls-1" cx="31.034" cy="30.243" r="7.723"/></g><g id="Layer_1" data-name="Layer 1"><path class="cls-2" d="M33,19.131h-6.3a.375.375,0,0,1,0-.75H33a.375.375,0,0,1,0,.75Z"/><path class="cls-2" d="M33,5.976H22.81a.375.375,0,0,1,0-.75H33a.375.375,0,0,1,0,.75Z"/><path class="cls-2" d="M26.706,22.091a.375.375,0,1,1,0-.75h4.245a1.775,1.775,0,0,0,1.675-1.973V4.93a1.858,1.858,0,0,0-1.674-1.995H24.858A1.857,1.857,0,0,0,23.185,4.93V8.612a.375.375,0,0,1-.75,0V4.93a2.6,2.6,0,0,1,2.423-2.745h6.093A2.6,2.6,0,0,1,33.375,4.93V19.347a2.514,2.514,0,0,1-2.393,2.743Z"/><path class="cls-2" d="M25.1,26.8H18.8a.375.375,0,0,1,0-.75h6.3a.375.375,0,0,1,0,.75Z"/><path class="cls-2" d="M25.1,13.645H14.9a.375.375,0,0,1,0-.75H25.1a.375.375,0,0,1,0,.75Z"/><path class="cls-2" d="M18.8,29.76a.375.375,0,0,1,0-.75h4.245a1.774,1.774,0,0,0,1.674-1.974V12.6A1.856,1.856,0,0,0,23.045,10.6H16.951A1.856,1.856,0,0,0,15.278,12.6v3.683a.375.375,0,0,1-.75,0V12.6a2.6,2.6,0,0,1,2.423-2.744h6.094A2.6,2.6,0,0,1,25.468,12.6V27.015a2.541,2.541,0,0,1-2.392,2.744Z"/><path class="cls-2" d="M17.19,34.855H7a.375.375,0,0,1,0-.75H17.19a.375.375,0,1,1,0,.75Z"/><path class="cls-2" d="M17.19,21.7H7a.375.375,0,0,1,0-.75H17.19a.375.375,0,0,1,0,.75Z"/><path class="cls-2" d="M9.045,37.815A2.6,2.6,0,0,1,6.622,35.07V20.653a2.6,2.6,0,0,1,2.423-2.744h6.093a2.6,2.6,0,0,1,2.422,2.744V35.07a2.54,2.54,0,0,1-2.391,2.744Zm0-19.156a1.856,1.856,0,0,0-1.673,1.994V35.07a1.857,1.857,0,0,0,1.673,1.995h6.093a1.773,1.773,0,0,0,1.673-1.975V20.653a1.856,1.856,0,0,0-1.672-1.994Z"/></g></svg>