<svg xmlns="http://www.w3.org/2000/svg" viewBox="0 0 40 40"><defs><style>.cls-1{fill:#3088f4;}.cls-2{fill:#2c3543;}</style></defs><title>performancemarketing.performance.UA-40x40-colorspot-outlinesblue</title><g id="Layer_7" data-name="Layer 7"><circle class="cls-1" cx="31.034" cy="30.243" r="7.723"/></g><g id="Layer_1" data-name="Layer 1"><path class="cls-2" d="M20.022,13.682a.375.375,0,0,1-.375-.375V10.694a.375.375,0,0,1,.75,0v2.613A.375.375,0,0,1,20.022,13.682Z"/><path class="cls-2" d="M17.317,29.372a2.691,2.691,0,0,1,1.177-2.217c.062-.346.242-1.146.734-3.117a.79.79,0,0,1,1.548.02c.487,1.957.666,2.751.728,3.094a2.694,2.694,0,0,1,1.18,2.22m-.75,0a1.942,1.942,0,0,0-.963-1.67.377.377,0,0,1-.186-.323c-.03-.234-.4-1.79-.741-3.159a32.4,32.4,0,0,0-.832,3.169c.026.153-.05.236-.185.315a1.941,1.941,0,0,0-.96,1.668"/><path class="cls-2" d="M37.6,29.682H2.4a1.364,1.364,0,0,1-.986-.425,1.336,1.336,0,0,1-.369-1,18.989,18.989,0,0,1,37.919,0,1.336,1.336,0,0,1-.367,1A1.367,1.367,0,0,1,37.6,29.682ZM20,11.069A18.233,18.233,0,0,0,1.789,28.3a.608.608,0,0,0,.606.634H37.6a.6.6,0,0,0,.443-.191.585.585,0,0,0,.163-.443A18.232,18.232,0,0,0,20,11.069Z"/><path class="cls-2" d="M13.251,14.682a.374.374,0,0,1-.347-.233l-.82-2a.375.375,0,0,1,.694-.285l.82,2a.375.375,0,0,1-.347.518Z"/><path class="cls-2" d="M26.749,14.682a.375.375,0,0,1-.347-.518l.82-2a.375.375,0,0,1,.694.285l-.82,2A.375.375,0,0,1,26.749,14.682Z"/><path class="cls-2" d="M32.2,18.8a.375.375,0,0,1-.27-.636l1.5-1.555a.375.375,0,0,1,.54.521l-1.5,1.556A.376.376,0,0,1,32.2,18.8Z"/><path class="cls-2" d="M7.859,18.771a.372.372,0,0,1-.26-.106l-1.556-1.5a.375.375,0,0,1,.521-.539l1.556,1.5a.375.375,0,0,1-.261.645Z"/><path class="cls-2" d="M35.629,25.6a.375.375,0,0,1-.113-.733l2.322-.734a.375.375,0,1,1,.227.715l-2.322.734A.377.377,0,0,1,35.629,25.6Z"/><path class="cls-2" d="M4.33,25.574a.365.365,0,0,1-.113-.017l-2.24-.707a.375.375,0,1,1,.226-.715l2.239.707a.375.375,0,0,1-.112.732Z"/><path class="cls-2" d="M32.481,29.682a.375.375,0,0,1-.375-.375,12.107,12.107,0,1,0-24.213,0,.375.375,0,0,1-.75,0,12.857,12.857,0,1,1,25.713,0A.375.375,0,0,1,32.481,29.682Z"/></g></svg>