<svg xmlns="http://www.w3.org/2000/svg" viewBox="0 0 40 40"><defs><style>.cls-1{fill:#ffb400;}.cls-2{fill:#2c3543;}</style></defs><title>qa.best.quality-40x40-colorspot-outlinesyellow</title><g id="Layer_7" data-name="Layer 7"><circle class="cls-1" cx="31.034" cy="30.243" r="7.723"/></g><g id="Layer_1" data-name="Layer 1"><path class="cls-2" d="M23.761,38.456h-.017a.373.373,0,0,1-.33-.233l-3.475-8.5a.375.375,0,0,1,.7-.283L23.8,37.19l2.324-4.479a.373.373,0,0,1,.491-.167l4.453,2.071-2.87-7.2a.375.375,0,1,1,.7-.277l3.219,8.075a.373.373,0,0,1-.09.411.38.38,0,0,1-.416.068l-4.984-2.318-2.531,4.879A.376.376,0,0,1,23.761,38.456Z"/><path class="cls-2" d="M16.239,38.456a.374.374,0,0,1-.333-.2l-2.531-4.879L8.391,35.693a.379.379,0,0,1-.416-.068.375.375,0,0,1-.091-.412l3.239-8.075a.375.375,0,0,1,.7.279l-2.887,7.2,4.451-2.07a.373.373,0,0,1,.491.167l2.324,4.48,3.229-7.853a.375.375,0,1,1,.693.285l-3.535,8.6a.374.374,0,0,1-.33.232Z"/><path class="cls-2" d="M22.609,30.11a7.211,7.211,0,0,1-1.355-.173,6.262,6.262,0,0,0-2.507,0,4.85,4.85,0,0,1-1.994.1,4.9,4.9,0,0,1-1.8-.981,6.5,6.5,0,0,0-1.013-.666,6.674,6.674,0,0,0-1.176-.389,4.864,4.864,0,0,1-1.864-.783,4.9,4.9,0,0,1-1.179-1.647,6.637,6.637,0,0,0-.636-1.056,6.538,6.538,0,0,0-.884-.85,4.867,4.867,0,0,1-1.351-1.521,4.852,4.852,0,0,1-.345-1.984,6.746,6.746,0,0,0-.118-1.241A6.364,6.364,0,0,0,5.97,17.8a4.937,4.937,0,0,1-.559-1.979,4.941,4.941,0,0,1,.559-1.98,6.344,6.344,0,0,0,.42-1.128,6.74,6.74,0,0,0,.118-1.242,4.878,4.878,0,0,1,.345-1.983A4.907,4.907,0,0,1,8.2,7.962a6.531,6.531,0,0,0,.884-.848,6.536,6.536,0,0,0,.636-1.056A4.911,4.911,0,0,1,10.9,4.41a4.879,4.879,0,0,1,1.864-.783,6.635,6.635,0,0,0,1.175-.388,6.574,6.574,0,0,0,1.014-.666,4.877,4.877,0,0,1,1.8-.982,4.829,4.829,0,0,1,1.993.1,6.221,6.221,0,0,0,2.506,0,4.832,4.832,0,0,1,1.994-.1,4.884,4.884,0,0,1,1.8.982,6.574,6.574,0,0,0,1.014.666,6.588,6.588,0,0,0,1.178.389A4.909,4.909,0,0,1,29.1,4.41a4.894,4.894,0,0,1,1.179,1.648,6.577,6.577,0,0,0,.637,1.057,6.642,6.642,0,0,0,.883.848,4.907,4.907,0,0,1,1.351,1.522,4.861,4.861,0,0,1,.345,1.983,6.749,6.749,0,0,0,.118,1.242,6.405,6.405,0,0,0,.42,1.126,4.942,4.942,0,0,1,.559,1.981A4.932,4.932,0,0,1,34.03,17.8a6.364,6.364,0,0,0-.42,1.127,6.757,6.757,0,0,0-.118,1.242,4.883,4.883,0,0,1-.345,1.984,4.9,4.9,0,0,1-1.35,1.52,6.555,6.555,0,0,0-.885.851,6.611,6.611,0,0,0-.637,1.056A4.914,4.914,0,0,1,29.1,27.223a4.88,4.88,0,0,1-1.863.782,6.566,6.566,0,0,0-1.176.389,6.508,6.508,0,0,0-1.015.666,4.891,4.891,0,0,1-1.8.982A2.819,2.819,0,0,1,22.609,30.11ZM20,29.023a7.437,7.437,0,0,1,1.4.177,4.268,4.268,0,0,0,1.684.112,4.3,4.3,0,0,0,1.514-.853,7.181,7.181,0,0,1,1.137-.741,7.3,7.3,0,0,1,1.31-.437,4.312,4.312,0,0,0,1.587-.644,4.309,4.309,0,0,0,.983-1.409,7.19,7.19,0,0,1,.715-1.177,7.256,7.256,0,0,1,.984-.952,4.273,4.273,0,0,0,1.161-1.276,4.282,4.282,0,0,0,.272-1.684,7.422,7.422,0,0,1,.135-1.382,7.072,7.072,0,0,1,.465-1.264,4.3,4.3,0,0,0,.5-1.676,4.3,4.3,0,0,0-.5-1.677,7.118,7.118,0,0,1-.464-1.264,7.342,7.342,0,0,1-.136-1.383,4.272,4.272,0,0,0-.272-1.682A4.288,4.288,0,0,0,31.31,8.534a7.24,7.24,0,0,1-.983-.951,7.266,7.266,0,0,1-.715-1.176A4.307,4.307,0,0,0,28.629,5a4.289,4.289,0,0,0-1.586-.643,7.162,7.162,0,0,1-1.311-.439,7.106,7.106,0,0,1-1.137-.74,4.281,4.281,0,0,0-1.514-.852,4.277,4.277,0,0,0-1.686.111,7.5,7.5,0,0,1-2.789,0,4.261,4.261,0,0,0-1.686-.111,4.285,4.285,0,0,0-1.515.852,7.053,7.053,0,0,1-1.136.74,7.241,7.241,0,0,1-1.309.438A4.283,4.283,0,0,0,11.372,5a4.273,4.273,0,0,0-.983,1.41,7.294,7.294,0,0,1-.715,1.176,7.247,7.247,0,0,1-.983.952A4.277,4.277,0,0,0,7.529,9.81a4.274,4.274,0,0,0-.272,1.683,7.414,7.414,0,0,1-.135,1.382,6.954,6.954,0,0,1-.466,1.265,4.321,4.321,0,0,0-.5,1.677,4.317,4.317,0,0,0,.5,1.675,7.01,7.01,0,0,1,.466,1.265,7.412,7.412,0,0,1,.135,1.381,4.285,4.285,0,0,0,.272,1.684A4.276,4.276,0,0,0,8.69,23.1a7.247,7.247,0,0,1,.984.951,7.254,7.254,0,0,1,.714,1.177,4.294,4.294,0,0,0,.983,1.409,4.306,4.306,0,0,0,1.589.645,7.306,7.306,0,0,1,1.308.437,7.175,7.175,0,0,1,1.137.74,4.284,4.284,0,0,0,1.514.853,4.256,4.256,0,0,0,1.686-.111A7.437,7.437,0,0,1,20,29.023Z"/><path class="cls-2" d="M20,26.03A10.213,10.213,0,1,1,30.213,15.817,10.224,10.224,0,0,1,20,26.03ZM20,6.354a9.463,9.463,0,1,0,9.463,9.463A9.474,9.474,0,0,0,20,6.354Z"/><path class="cls-2" d="M19.287,20.569a1.17,1.17,0,0,1-.879-.4l-2.482-2.83A1.169,1.169,0,0,1,17.683,15.8l1.449,1.653,3.074-4.894A1.168,1.168,0,1,1,24.185,13.8l-3.908,6.222a1.173,1.173,0,0,1-.9.544ZM16.8,16.151a.416.416,0,0,0-.276.1.42.42,0,0,0-.038.592l2.482,2.83a.42.42,0,0,0,.315.143v.375l.029-.376a.423.423,0,0,0,.326-.2L23.551,13.4a.419.419,0,0,0-.71-.447L19.5,18.275a.374.374,0,0,1-.6.048l-1.78-2.031A.422.422,0,0,0,16.8,16.151Z"/></g></svg>