<svg xmlns="http://www.w3.org/2000/svg" viewBox="0 0 40 40" width="85" height="85"><defs><style>.cls-1{fill:#00d0b2;}.cls-2{fill:#2c3543;}</style></defs><title>reengageaudiences-40x40-colorspot-outlinesgreen</title><g id="Layer_7" data-name="Layer 7"><circle class="cls-1" cx="31.034" cy="30.243" r="7.723"/></g><g id="Layer_1" data-name="Layer 1"><path class="cls-2" d="M14.71,22.872a.367.367,0,0,1-.16-.037,11.448,11.448,0,1,1,12.7-1.977.375.375,0,0,1-.512-.549,10.705,10.705,0,1,0-17.9-6.376,10.72,10.72,0,0,0,6.032,8.225.375.375,0,0,1-.161.714Z"/><path class="cls-2" d="M15.132,16.539a.374.374,0,0,1-.285-.13,6.049,6.049,0,1,1,9.4-.251.375.375,0,1,1-.595-.457,5.3,5.3,0,1,0-8.231.219.374.374,0,0,1-.285.619Z"/><path class="cls-2" d="M32.952,38.978H17.031a1.022,1.022,0,0,1-.91-.551c-.858-1.64-4-7.161-8.413-9.306a2.937,2.937,0,0,1-1.687-2.646,2.014,2.014,0,0,1,.57-1.444,2.752,2.752,0,0,1,1.366-.761C9.478,23.9,14.533,26.183,16.27,27l.288-12.4c0-2.92,1.359-3.964,2.631-3.964a2.8,2.8,0,0,1,2.633,2.935l.291,7.827,9.2,2.12a3.481,3.481,0,0,1,2.672,3.433v11A1.029,1.029,0,0,1,32.952,38.978ZM8.387,24.973A1.166,1.166,0,0,0,8.133,25a2.036,2.036,0,0,0-1,.548,1.23,1.23,0,0,0-.365.846,2.225,2.225,0,0,0,1.265,2.055c4.62,2.245,7.865,7.94,8.75,9.633a.276.276,0,0,0,.245.148H32.952a.278.278,0,0,0,.278-.277v-11a2.763,2.763,0,0,0-2.065-2.7l-9.5-2.189a.374.374,0,0,1-.29-.352l-.3-8.128a2.058,2.058,0,0,0-1.883-2.2c-1.16,0-1.881,1.235-1.881,3.223l-.3,12.982a.379.379,0,0,1-.179.312.384.384,0,0,1-.359.017C14,26.73,9.823,24.973,8.387,24.973Z"/></g></svg>