<svg xmlns="http://www.w3.org/2000/svg" viewBox="0 0 40 40"><defs><style>.cls-1{fill:#3088f4;}.cls-2{fill:#2c3543;}</style></defs><title>reengagement-40x40-colorspot-outlinesblue</title><g id="Layer_7" data-name="Layer 7"><circle class="cls-1" cx="31.034" cy="30.243" r="7.723"/></g><g id="Layer_1" data-name="Layer 1"><path class="cls-2" d="M24.465,29.211h-8.93a1.3,1.3,0,0,1-1.33-1.265V22.49a5.39,5.39,0,0,1,2.923-4.712,1.136,1.136,0,0,1,1.1.015,3.606,3.606,0,0,0,3.54,0,1.142,1.142,0,0,1,1.1-.016h0A5.389,5.389,0,0,1,25.8,22.49v5.456A1.3,1.3,0,0,1,24.465,29.211Zm-6.8-10.819a.394.394,0,0,0-.185.047,4.645,4.645,0,0,0-2.527,4.051v5.456a.551.551,0,0,0,.58.515h8.93a.551.551,0,0,0,.58-.515V22.49a4.642,4.642,0,0,0-2.528-4.051h0a.376.376,0,0,0-.369,0,4.372,4.372,0,0,1-4.3,0A.355.355,0,0,0,17.667,18.392Z"/><path class="cls-2" d="M20,18.957a4.091,4.091,0,0,1-4.084-4.084,4.084,4.084,0,1,1,6.595,3.217A4.042,4.042,0,0,1,20,18.957Zm0-7.419A3.332,3.332,0,0,0,17.952,17.5a3.374,3.374,0,0,0,4.1,0A3.332,3.332,0,0,0,20,11.538Z"/><path class="cls-2" d="M33.781,34.454a.374.374,0,0,1-.249-.094l-4.6-4.086a.375.375,0,1,1,.5-.561l4.6,4.086a.375.375,0,0,1-.249.655Z"/><path class="cls-2" d="M34.966,37.241a2.021,2.021,0,1,1,2.021-2.022A2.024,2.024,0,0,1,34.966,37.241Zm0-3.292a1.271,1.271,0,1,0,1.271,1.27A1.272,1.272,0,0,0,34.966,33.949Z"/><path class="cls-2" d="M29.177,10.381a.375.375,0,0,1-.249-.655l4.6-4.085a.375.375,0,0,1,.5.56l-4.6,4.085A.372.372,0,0,1,29.177,10.381Z"/><path class="cls-2" d="M34.966,6.8a2.021,2.021,0,1,1,2.021-2.02A2.022,2.022,0,0,1,34.966,6.8Zm0-3.291a1.271,1.271,0,1,0,1.271,1.271A1.272,1.272,0,0,0,34.966,3.51Z"/><path class="cls-2" d="M35.679,20.375h-5.57a.375.375,0,0,1,0-.75h5.57a.375.375,0,0,1,0,.75Z"/><path class="cls-2" d="M37.325,22.021A2.021,2.021,0,1,1,39.346,20,2.023,2.023,0,0,1,37.325,22.021Zm0-3.292A1.271,1.271,0,1,0,38.6,20,1.272,1.272,0,0,0,37.325,18.729Z"/><path class="cls-2" d="M6.22,34.454a.375.375,0,0,1-.249-.655l4.6-4.086a.375.375,0,0,1,.5.561l-4.6,4.086A.378.378,0,0,1,6.22,34.454Z"/><path class="cls-2" d="M5.035,37.241a2.021,2.021,0,1,1,2.02-2.022A2.024,2.024,0,0,1,5.035,37.241Zm0-3.292a1.271,1.271,0,1,0,1.27,1.27A1.272,1.272,0,0,0,5.035,33.949Z"/><path class="cls-2" d="M10.823,10.381a.372.372,0,0,1-.249-.1L5.971,6.2a.375.375,0,1,1,.5-.56l4.6,4.085a.375.375,0,0,1-.249.655Z"/><path class="cls-2" d="M5.035,6.8a2.021,2.021,0,1,1,2.02-2.02A2.022,2.022,0,0,1,5.035,6.8Zm0-3.291a1.271,1.271,0,1,0,1.27,1.271A1.272,1.272,0,0,0,5.035,3.51Z"/><path class="cls-2" d="M9.891,20.375H4.321a.375.375,0,1,1,0-.75h5.57a.375.375,0,0,1,0,.75Z"/><path class="cls-2" d="M2.675,22.021A2.021,2.021,0,1,1,4.7,20,2.023,2.023,0,0,1,2.675,22.021Zm0-3.292A1.271,1.271,0,1,0,3.946,20,1.272,1.272,0,0,0,2.675,18.729Z"/></g></svg>