<svg xmlns="http://www.w3.org/2000/svg" viewBox="0 0 40 40"><defs><style>.cls-1{fill:#ffb400;}.cls-2{fill:#2c3543;}</style></defs><title>seoul-40x40-colorspot-outlinesyellow</title><g id="Layer_7" data-name="Layer 7"><circle class="cls-1" cx="31.034" cy="30.243" r="7.723"/></g><g id="Layer_1" data-name="Layer 1"><path class="cls-2" d="M15.662,9.878H11.217a1.6,1.6,0,1,1,.057-3.2A2.307,2.307,0,0,1,13.549,5.16,2.913,2.913,0,0,1,16,3.829a2.944,2.944,0,0,1,2.833,2.2A1.945,1.945,0,0,1,20.17,8.6a.416.416,0,0,1-.78-.292,1.1,1.1,0,0,0,.076-.392A1.12,1.12,0,0,0,18.445,6.8a.415.415,0,0,1-.374-.353,2.093,2.093,0,0,0-3.929-.653.414.414,0,0,1-.438.219,1.514,1.514,0,0,0-.247-.022,1.5,1.5,0,0,0-1.472,1.229.417.417,0,0,1-.535.323.77.77,0,1,0-.233,1.5h4.445a.416.416,0,0,1,0,.832Z"/><path class="cls-2" d="M15.662,9.878a.416.416,0,0,1-.17-.8A1.849,1.849,0,0,1,15.709,9a2.479,2.479,0,0,1,4.409-.784.416.416,0,0,1-.677.484,1.647,1.647,0,0,0-2.97.714.416.416,0,0,1-.373.354.827.827,0,0,0-.266.074A.429.429,0,0,1,15.662,9.878Z"/><path class="cls-2" d="M22.037,12.3h-5.86a1.682,1.682,0,0,1-.685-3.219.416.416,0,1,1,.34.76.849.849,0,0,0,.345,1.626h5.86a.56.56,0,0,0,0-1.119.554.554,0,0,0-.17.027.416.416,0,0,1-.534-.323A1.157,1.157,0,0,0,20.194,9.1,1.094,1.094,0,0,0,20,9.12a.417.417,0,0,1-.438-.22,1.585,1.585,0,0,0-.124-.2.417.417,0,1,1,.678-.484l.037.054a1.965,1.965,0,0,1,1.885,1.247,1.392,1.392,0,0,1,0,2.784Z"/><path class="cls-2" d="M37.563,35.687a.416.416,0,0,1,0-.832A1.149,1.149,0,0,0,38.718,33.8a1.108,1.108,0,0,0-.571-1.028.417.417,0,0,1-.045-.7c.012-.009.044-.033,0-.11a.382.382,0,0,1-.441-.395.229.229,0,0,0-.229-.228.221.221,0,0,0-.168.076.6.6,0,0,1-.907-.337.417.417,0,0,0-.417-.4.406.406,0,0,0-.165.034.418.418,0,0,1-.359-.014.146.146,0,0,0-.181.027.416.416,0,0,1-.405.113.355.355,0,0,0-.453.3.418.418,0,0,1-.526.344.291.291,0,0,0-.2.009.316.316,0,0,0-.151.133.279.279,0,0,0-.04.232.419.419,0,0,1-.031.287.434.434,0,0,1-.469.257.407.407,0,0,1-.343-.386.286.286,0,0,0-.572.006.433.433,0,0,1-.154.358.421.421,0,0,1-.375.083.388.388,0,0,0-.266.016.4.4,0,0,0,0,.74.415.415,0,0,1,.225.529.075.075,0,0,0,.012.072.414.414,0,0,1,.086.188.26.26,0,0,0,.219.211.417.417,0,0,1,.356.424.2.2,0,0,0,.054.153.192.192,0,0,0,.139.059.416.416,0,1,1,0,.832,1.027,1.027,0,0,1-.986-.741,1.088,1.088,0,0,1-.578-.69.886.886,0,0,1-.139-.443,1.234,1.234,0,0,1,.652-2.192,1.12,1.12,0,0,1,1.044-.718,1.1,1.1,0,0,1,.556.151,1.128,1.128,0,0,1,.782-.411A1.2,1.2,0,0,1,34.817,30a.978.978,0,0,1,.8-.109,1.212,1.212,0,0,1,.318-.042,1.249,1.249,0,0,1,1.135.724,1.047,1.047,0,0,1,.357-.062,1.064,1.064,0,0,1,1,.7.8.8,0,0,1,.375.311.931.931,0,0,1,.115.786,1.935,1.935,0,0,1,.634,1.537A1.966,1.966,0,0,1,37.563,35.687Z"/><path class="cls-2" d="M30.3,28.747a.416.416,0,0,1-.416-.416V16.356H28.6V28.331a.416.416,0,0,1-.832,0V15.94a.417.417,0,0,1,.416-.417H30.3a.417.417,0,0,1,.417.417V28.331A.417.417,0,0,1,30.3,28.747Z"/><path class="cls-2" d="M3.317,35.687H1.83a.416.416,0,1,1,0-.832H3.317a.416.416,0,0,1,0,.832Z"/><path class="cls-2" d="M38.932,35.687H23.727a.416.416,0,1,1,0-.832H38.932a.416.416,0,1,1,0,.832Z"/><path class="cls-2" d="M30.588,14.434h-2.7a.416.416,0,0,1-.416-.416v-1.14a.416.416,0,0,1,.416-.416h2.7a.416.416,0,0,1,.416.416v1.14A.416.416,0,0,1,30.588,14.434Zm-2.28-.832h1.864v-.308H28.308Z"/><path class="cls-2" d="M30.28,19.377H28.2a.416.416,0,1,1,0-.832h2.08a.416.416,0,1,1,0,.832Z"/><path class="cls-2" d="M30.28,20.867H28.2a.417.417,0,0,1,0-.833h2.08a.417.417,0,0,1,0,.833Z"/><path class="cls-2" d="M30.28,22.356H28.2a.416.416,0,0,1,0-.832h2.08a.416.416,0,0,1,0,.832Z"/><path class="cls-2" d="M30.28,8.791H28.2a.416.416,0,1,1,0-.832h2.08a.416.416,0,0,1,0,.832Z"/><path class="cls-2" d="M30.28,10.281H28.2a.417.417,0,0,1,0-.833h2.08a.417.417,0,0,1,0,.833Z"/><path class="cls-2" d="M30.28,11.77H28.2a.416.416,0,0,1,0-.832h2.08a.416.416,0,0,1,0,.832Z"/><path class="cls-2" d="M30.931,25.387H27.549a.417.417,0,0,1,0-.833h3.382a.417.417,0,0,1,0,.833Z"/><path class="cls-2" d="M30.931,26.784H27.549a.416.416,0,0,1,0-.832h3.382a.416.416,0,1,1,0,.832Z"/><path class="cls-2" d="M30.28,28.789H28.2a.417.417,0,0,1,0-.833h2.08a.417.417,0,0,1,0,.833Z"/><path class="cls-2" d="M30.28,30.278H28.2a.416.416,0,0,1,0-.832h2.08a.416.416,0,1,1,0,.832Z"/><path class="cls-2" d="M29.852,7.267H28.628a.415.415,0,0,1-.415-.446l.375-5.147a.654.654,0,0,1,1.3-.012v.012l.375,5.147a.415.415,0,0,1-.415.446Zm-.776-.832h.329L29.24,4.181Z"/><path class="cls-2" d="M30.588,29.887a.416.416,0,0,1-.416-.416v-.724H28.308v.724a.416.416,0,0,1-.832,0v-1.14a.416.416,0,0,1,.416-.416h2.7a.416.416,0,0,1,.416.416v1.14A.416.416,0,0,1,30.588,29.887Z"/><path class="cls-2" d="M31.466,31.809H27.015a.417.417,0,0,1-.417-.416V29.862a.417.417,0,0,1,.417-.416h4.451a.416.416,0,0,1,.416.416v1.531A.416.416,0,0,1,31.466,31.809Zm-4.035-.832h3.618v-.7H27.431Z"/><path class="cls-2" d="M29.852,13.294H28.628a.416.416,0,0,1-.416-.416V6.851a.416.416,0,0,1,.416-.416h1.224a.416.416,0,0,1,.416.416v6.027A.416.416,0,0,1,29.852,13.294Zm-.808-.832h.392V7.267h-.392Z"/><path class="cls-2" d="M30.855,16.356h-3.23A1.029,1.029,0,0,1,26.6,15.329v-.661a1.029,1.029,0,0,1,1.027-1.027h3.23a1.029,1.029,0,0,1,1.027,1.027v.661A1.029,1.029,0,0,1,30.855,16.356Zm-3.23-1.882a.194.194,0,0,0-.194.194v.661a.194.194,0,0,0,.194.194h3.23a.194.194,0,0,0,.194-.194v-.661a.194.194,0,0,0-.194-.194Z"/><path class="cls-2" d="M25.684,35.687a.416.416,0,0,1-.416-.416V32.958a.416.416,0,0,1,.416-.416h4.9a.416.416,0,1,1,0,.832H26.1v1.9A.416.416,0,0,1,25.684,35.687Z"/><path class="cls-2" d="M13.194,32.016A105.058,105.058,0,0,1,.737,31.279a.415.415,0,0,1-.133-.72l5.04-4.05a.416.416,0,0,1,.522.649L1.889,30.6c1.953.2,6.758.6,11.536.588,4.719-.013,9.487-.417,11.51-.611l-4.249-3.414a.416.416,0,0,1,.522-.649l5.04,4.05a.416.416,0,0,1-.215.738c-.063.007-6.374.7-12.606.718Z"/><path class="cls-2" d="M13.427,27.751c-1.42,0-2.841-.063-4.251-.19l-3.289-.3a.417.417,0,0,1-.294-.162L2.825,23.47a.416.416,0,0,1,.662-.5l2.657,3.488,3.106.279a46.874,46.874,0,0,0,8.36,0l3.1-.279,2.658-3.488a.416.416,0,0,1,.662.5L21.259,27.1a.415.415,0,0,1-.293.162l-3.281.3C16.272,27.688,14.85,27.751,13.427,27.751Z"/><path class="cls-2" d="M6.905,20.361a.419.419,0,0,1-.385-.574,5.229,5.229,0,0,0,.327-1.2.416.416,0,0,1,.823.123A6.019,6.019,0,0,1,7.29,20.1.416.416,0,0,1,6.905,20.361Z"/><path class="cls-2" d="M13.243,24.343A70.42,70.42,0,0,1,2.973,23.6a.416.416,0,0,1-.12-.7l3.78-3.267a.416.416,0,1,1,.544.63L4.083,22.934a81.419,81.419,0,0,0,9.342.577,89.009,89.009,0,0,0,9.319-.6l-3.069-2.653a.416.416,0,1,1,.544-.63L24,22.9a.417.417,0,0,1-.217.728,91.32,91.32,0,0,1-10.354.719ZM3.126,23.211h0Z"/><path class="cls-2" d="M19.947,20.361a.416.416,0,0,1-.385-.259,6.07,6.07,0,0,1-.38-1.393.416.416,0,1,1,.823-.123,5.229,5.229,0,0,0,.327,1.2.416.416,0,0,1-.227.542A.421.421,0,0,1,19.947,20.361Z"/><path class="cls-2" d="M6.905,20.36H5.479a.416.416,0,0,1,0-.832H6.905a.416.416,0,1,1,0,.832Z"/><path class="cls-2" d="M21.4,20.36H19.947a.416.416,0,0,1,0-.832H21.4a.416.416,0,0,1,0,.832Z"/><path class="cls-2" d="M19.947,20.36H6.905a.416.416,0,0,1,0-.832H19.947a.416.416,0,0,1,0,.832Z"/><path class="cls-2" d="M22.048,37.849H15.467a.417.417,0,0,1-.416-.417V36.153a1.52,1.52,0,0,0-1.45-1.579,1.521,1.521,0,0,0-1.451,1.579v1.279a.417.417,0,0,1-.416.417H4.8a.417.417,0,0,1-.416-.417V33.415L.66,31.243a.416.416,0,1,1,.418-.719l3.935,2.292a.415.415,0,0,1,.207.359v3.841h6.1v-.863A2.352,2.352,0,0,1,13.6,33.742a2.353,2.353,0,0,1,2.283,2.411v.863h5.748V33.175a.415.415,0,0,1,.207-.359l3.935-2.292a.416.416,0,0,1,.419.719l-3.729,2.172v4.017A.417.417,0,0,1,22.048,37.849Z"/><path class="cls-2" d="M19.947,27.249a.416.416,0,0,1-.416-.416V25.046a.416.416,0,1,1,.832,0v1.787A.416.416,0,0,1,19.947,27.249Z"/><path class="cls-2" d="M6.905,27.249a.416.416,0,0,1-.416-.416V25.046a.416.416,0,1,1,.832,0v1.787A.416.416,0,0,1,6.905,27.249Z"/><path class="cls-2" d="M9.514,27.571a.417.417,0,0,1-.417-.416v-1.71a.417.417,0,0,1,.833,0v1.71A.416.416,0,0,1,9.514,27.571Z"/><path class="cls-2" d="M12.122,27.571a.416.416,0,0,1-.416-.416V25.844a.416.416,0,0,1,.832,0v1.311A.416.416,0,0,1,12.122,27.571Z"/><path class="cls-2" d="M14.73,27.571a.416.416,0,0,1-.416-.416V25.844a.416.416,0,0,1,.832,0v1.311A.416.416,0,0,1,14.73,27.571Z"/><path class="cls-2" d="M17.339,27.571a.417.417,0,0,1-.417-.416v-1.71a.417.417,0,0,1,.833,0v1.71A.416.416,0,0,1,17.339,27.571Z"/><path class="cls-2" d="M19.947,33.024a.416.416,0,0,1-.416-.416V31.451a.416.416,0,0,1,.832,0v1.157A.416.416,0,0,1,19.947,33.024Z"/><path class="cls-2" d="M6.905,33.024a.416.416,0,0,1-.416-.416V31.451a.416.416,0,1,1,.832,0v1.157A.416.416,0,0,1,6.905,33.024Z"/><path class="cls-2" d="M9.514,33.346A.417.417,0,0,1,9.1,32.93V31.6a.417.417,0,0,1,.833,0V32.93A.416.416,0,0,1,9.514,33.346Z"/><path class="cls-2" d="M12.122,33.346a.416.416,0,0,1-.416-.416V31.6a.416.416,0,1,1,.832,0V32.93A.416.416,0,0,1,12.122,33.346Z"/><path class="cls-2" d="M14.73,33.346a.416.416,0,0,1-.416-.416V31.6a.416.416,0,0,1,.832,0V32.93A.416.416,0,0,1,14.73,33.346Z"/><path class="cls-2" d="M17.339,33.346a.417.417,0,0,1-.417-.416V31.6a.417.417,0,0,1,.833,0V32.93A.416.416,0,0,1,17.339,33.346Z"/><path class="cls-2" d="M23.005,38.926H3.847a.416.416,0,0,1-.416-.416V37.432a.416.416,0,0,1,.416-.416H23.005a.416.416,0,0,1,.416.416V38.51A.416.416,0,0,1,23.005,38.926ZM4.264,38.093H22.589v-.244H4.264Z"/><path class="cls-2" d="M27.637,33.018a.417.417,0,0,1-.417-.416V31.373a.417.417,0,1,1,.833,0V32.6A.416.416,0,0,1,27.637,33.018Z"/></g></svg>