<svg xmlns="http://www.w3.org/2000/svg" viewBox="0 0 40 40"  width="85" height="85"><defs><style>.cls-1{fill:#ffb400;}.cls-2{fill:#2c3543;}</style></defs><title>stop.suppress.hold-40x40-colorspot-outlinesyellow</title><g id="Layer_7" data-name="Layer 7"><circle class="cls-1" cx="31.034" cy="30.243" r="7.723"/></g><g id="Layer_1" data-name="Layer 1"><path class="cls-2" d="M15.872,19.177A.375.375,0,0,1,15.5,18.8V3.789a2.254,2.254,0,0,0-4.507,0V9.624a.375.375,0,0,1-.75,0V3.789a3,3,0,0,1,6.007,0V18.8A.375.375,0,0,1,15.872,19.177Z"/><path class="cls-2" d="M21.128,19.177a.375.375,0,0,1-.375-.375V3.789a2.253,2.253,0,0,0-4.506,0V18.8a.375.375,0,0,1-.75,0V3.789a3,3,0,0,1,6.006,0V18.8A.375.375,0,0,1,21.128,19.177Z"/><path class="cls-2" d="M18.631,39.214H13.113a8.138,8.138,0,0,1-8.13-8.129V9.624a3,3,0,0,1,6.007,0V18.8a.375.375,0,0,1-.75,0V9.624a2.254,2.254,0,0,0-4.507,0V31.085a7.388,7.388,0,0,0,7.38,7.379h5.518c6.5,0,11.722-7.009,15.521-20.834a2.9,2.9,0,0,0-.233-2.2c-.574-1.024-1.629-1.119-2.586-.134a3.46,3.46,0,0,0-.65.981l-3.916,8.434c-.149.318-.757.2-.757-.158V7.206a2.254,2.254,0,0,0-4.507,0V18.8a.375.375,0,0,1-.75,0V7.206a3,3,0,0,1,6.007,0V22.941L30,15.956a4.213,4.213,0,0,1,.793-1.187,2.663,2.663,0,0,1,1.884-.912,2.122,2.122,0,0,1,1.895,1.2,3.653,3.653,0,0,1,.3,2.771C30.975,32.019,25.51,39.214,18.631,39.214Z"/><path class="cls-2" d="M8.473,20.182a.375.375,0,0,1-.089-.739,32.457,32.457,0,0,1,15.463,0,.375.375,0,0,1-.216.718,31.687,31.687,0,0,0-15.068,0A.4.4,0,0,1,8.473,20.182Z"/></g></svg>