<svg xmlns="http://www.w3.org/2000/svg" viewBox="0 0 40 40"><defs><style>.cls-1{fill:#4c4fee;}.cls-2{fill:#2c3543;}</style></defs><title>sync-40x40-colorspot-outlinesindigo</title><g id="Layer_7" data-name="Layer 7"><circle class="cls-1" cx="31.034" cy="30.243" r="7.723"/></g><g id="Layer_1" data-name="Layer 1"><path class="cls-2" d="M38,20.924a.375.375,0,0,1-.375-.375V18.608A5.924,5.924,0,0,0,31.7,12.683h0L2.463,12.69a.375.375,0,1,1,0-.75L31.7,11.933h0a6.673,6.673,0,0,1,6.673,6.675v1.941A.375.375,0,0,1,38,20.924Z"/><path class="cls-2" d="M6.154,16.982a.371.371,0,0,1-.267-.112C1.629,12.529,1.629,12.512,1.629,12.3s0-.224,4.247-4.56a.375.375,0,0,1,.536.525C5.122,9.585,3.134,11.627,2.5,12.3c.634.677,2.627,2.722,3.92,4.04a.376.376,0,0,1-.268.638Z"/><path class="cls-2" d="M8.3,28.067a6.673,6.673,0,0,1-6.674-6.675V19.451a.375.375,0,0,1,.75,0v1.941A5.925,5.925,0,0,0,8.3,27.317h0l29.231-.007a.375.375,0,0,1,0,.75l-29.231.007Z"/><path class="cls-2" d="M33.856,32.369a.369.369,0,0,1-.262-.108.375.375,0,0,1-.006-.53c1.289-1.317,3.278-3.358,3.909-4.035-.633-.677-2.626-2.722-3.919-4.04a.375.375,0,0,1,.536-.526c4.257,4.342,4.257,4.359,4.257,4.566s0,.224-4.247,4.56A.376.376,0,0,1,33.856,32.369Z"/></g></svg>