<svg xmlns="http://www.w3.org/2000/svg" viewBox="0 0 40 40"><defs><style>.cls-1{fill:#00d0b2;}.cls-2{fill:#2c3543;}</style></defs><title>telaviv-40x40-colorspot-outlinesgreen</title><g id="Layer_7" data-name="Layer 7"><circle class="cls-1" cx="31.034" cy="30.243" r="7.723"/></g><g id="Layer_1" data-name="Layer 1"><path class="cls-2" d="M8.4,15.454a.422.422,0,0,1-.422-.422v-.843a.422.422,0,0,1,.844,0v.843A.422.422,0,0,1,8.4,15.454Z"/><path class="cls-2" d="M3.883,15.454a.422.422,0,0,1-.422-.422v-.843a.422.422,0,0,1,.843,0v.843A.421.421,0,0,1,3.883,15.454Z"/><path class="cls-2" d="M6.144,15.454a.422.422,0,0,1-.422-.422v-.843a.422.422,0,0,1,.843,0v.843A.422.422,0,0,1,6.144,15.454Z"/><path class="cls-2" d="M8.4,18.326a.421.421,0,0,1-.422-.421v-.843a.422.422,0,0,1,.844,0v.843A.421.421,0,0,1,8.4,18.326Z"/><path class="cls-2" d="M3.883,18.326a.421.421,0,0,1-.422-.421v-.843a.422.422,0,0,1,.843,0v.843A.42.42,0,0,1,3.883,18.326Z"/><path class="cls-2" d="M6.144,18.326a.421.421,0,0,1-.422-.421v-.843a.422.422,0,0,1,.843,0v.843A.421.421,0,0,1,6.144,18.326Z"/><path class="cls-2" d="M8.4,24.072a.422.422,0,0,1-.422-.422v-.843a.422.422,0,0,1,.844,0v.843A.422.422,0,0,1,8.4,24.072Z"/><path class="cls-2" d="M3.883,24.072a.422.422,0,0,1-.422-.422v-.843a.422.422,0,0,1,.843,0v.843A.421.421,0,0,1,3.883,24.072Z"/><path class="cls-2" d="M6.144,24.072a.422.422,0,0,1-.422-.422v-.843a.422.422,0,0,1,.843,0v.843A.422.422,0,0,1,6.144,24.072Z"/><path class="cls-2" d="M8.4,26.945a.422.422,0,0,1-.422-.422V25.68a.422.422,0,0,1,.844,0v.843A.422.422,0,0,1,8.4,26.945Z"/><path class="cls-2" d="M3.883,26.945a.422.422,0,0,1-.422-.422V25.68a.422.422,0,0,1,.843,0v.843A.421.421,0,0,1,3.883,26.945Z"/><path class="cls-2" d="M6.144,26.945a.422.422,0,0,1-.422-.422V25.68a.422.422,0,0,1,.843,0v.843A.422.422,0,0,1,6.144,26.945Z"/><path class="cls-2" d="M8.4,29.817a.422.422,0,0,1-.422-.421v-.843a.422.422,0,1,1,.844,0V29.4A.422.422,0,0,1,8.4,29.817Z"/><path class="cls-2" d="M3.883,29.817a.422.422,0,0,1-.422-.421v-.843a.422.422,0,1,1,.843,0V29.4A.421.421,0,0,1,3.883,29.817Z"/><path class="cls-2" d="M6.144,29.817a.422.422,0,0,1-.422-.421v-.843a.422.422,0,1,1,.843,0V29.4A.422.422,0,0,1,6.144,29.817Z"/><path class="cls-2" d="M8.4,21.2a.422.422,0,0,1-.422-.421v-.843a.422.422,0,0,1,.844,0v.843A.422.422,0,0,1,8.4,21.2Z"/><path class="cls-2" d="M3.883,21.2a.422.422,0,0,1-.422-.421v-.843a.422.422,0,1,1,.843,0v.843A.421.421,0,0,1,3.883,21.2Z"/><path class="cls-2" d="M6.144,21.2a.422.422,0,0,1-.422-.421v-.843a.422.422,0,1,1,.843,0v.843A.422.422,0,0,1,6.144,21.2Z"/><path class="cls-2" d="M10.888,9.043H1.4a.421.421,0,0,1-.421-.421V6.953A.42.42,0,0,1,1.4,6.532h9.489a.42.42,0,0,1,.421.421V8.622A.421.421,0,0,1,10.888,9.043ZM1.821,8.2h8.645V7.375H1.821Z"/><path class="cls-2" d="M1.929,33.217a.422.422,0,0,1-.422-.422V8.734a.422.422,0,1,1,.843,0V32.8A.422.422,0,0,1,1.929,33.217Z"/><path class="cls-2" d="M10.358,33.217a.422.422,0,0,1-.421-.422V8.734a.422.422,0,1,1,.843,0V32.8A.422.422,0,0,1,10.358,33.217Z"/><path class="cls-2" d="M8.4,12.581a.422.422,0,0,1-.422-.422v-.842a.422.422,0,0,1,.844,0v.842A.422.422,0,0,1,8.4,12.581Z"/><path class="cls-2" d="M3.883,12.581a.422.422,0,0,1-.422-.422v-.842a.422.422,0,1,1,.843,0v.842A.421.421,0,0,1,3.883,12.581Z"/><path class="cls-2" d="M6.144,12.581a.422.422,0,0,1-.422-.422v-.842a.422.422,0,1,1,.843,0v.842A.422.422,0,0,1,6.144,12.581Z"/><path class="cls-2" d="M39.015,33.217H.985a.422.422,0,1,1,0-.843h38.03a.422.422,0,1,1,0,.843Z"/><path class="cls-2" d="M20.331,35.121H17.669a.422.422,0,0,1,0-.843h2.662a.422.422,0,1,1,0,.843Z"/><path class="cls-2" d="M32.015,35.711H26.833a.422.422,0,1,1,0-.843h5.182a.422.422,0,1,1,0,.843Z"/><path class="cls-2" d="M23.21,35.876h-.733a.422.422,0,0,1,0-.843h.733a.422.422,0,0,1,0,.843Z"/><path class="cls-2" d="M36.369,34.8H34.9a.422.422,0,0,1,0-.843h1.465a.422.422,0,1,1,0,.843Z"/><path class="cls-2" d="M15.332,35.876H10.149a.422.422,0,0,1,0-.843h5.183a.422.422,0,0,1,0,.843Z"/><path class="cls-2" d="M28.247,11.451A3.664,3.664,0,1,1,31.91,7.787,3.669,3.669,0,0,1,28.247,11.451Zm0-6.484a2.821,2.821,0,1,0,2.82,2.82A2.824,2.824,0,0,0,28.247,4.967Z"/><path class="cls-2" d="M34.025,28.781H28.282a.42.42,0,0,1-.421-.421,3.293,3.293,0,0,1,6.586,0A.421.421,0,0,1,34.025,28.781Zm-5.285-.843h4.827a2.45,2.45,0,0,0-4.827,0Z"/><path class="cls-2" d="M31.154,33.185a.421.421,0,0,1-.422-.421V28.5a.422.422,0,1,1,.843,0v4.268A.42.42,0,0,1,31.154,33.185Z"/><path class="cls-2" d="M31.154,25.91a.422.422,0,0,1-.422-.422v-.562a.422.422,0,1,1,.843,0v.562A.421.421,0,0,1,31.154,25.91Z"/><path class="cls-2" d="M34.711,32.986a.422.422,0,0,1-.422-.421V31.2a.422.422,0,0,1,.844,0v1.365A.422.422,0,0,1,34.711,32.986Z"/><path class="cls-2" d="M37.574,32.986a.422.422,0,0,1-.421-.421v-.988H34.186a.422.422,0,0,1-.3-.124L32.738,30.3a.421.421,0,0,1,.6-.6l1.026,1.026h3.214a.421.421,0,0,1,.422.421v1.41A.422.422,0,0,1,37.574,32.986Z"/><path class="cls-2" d="M18.94,21.187H11.6a.422.422,0,0,1,0-.843H18.94a.422.422,0,1,1,0,.843Z"/><path class="cls-2" d="M20.98,23.65H17.317a.421.421,0,0,1-.421-.421V20.765a.422.422,0,0,1,.843,0v2.042H20.98a.422.422,0,1,1,0,.843Z"/><path class="cls-2" d="M23.473,26.2h-3.42a.422.422,0,0,1-.422-.422V23.229a.422.422,0,0,1,.844,0v2.125h3a.422.422,0,0,1,0,.844Z"/><path class="cls-2" d="M25.368,29.4H22.53a.422.422,0,0,1-.422-.422v-3.2a.422.422,0,1,1,.844,0v2.777h2.416a.422.422,0,1,1,0,.843Z"/><path class="cls-2" d="M24.512,33.217a.422.422,0,0,1-.422-.422V28.974a.422.422,0,0,1,.843,0V32.8A.422.422,0,0,1,24.512,33.217Z"/><path class="cls-2" d="M17.317,31.691a.421.421,0,0,1-.421-.421v-.422a.422.422,0,0,1,.843,0v.422A.421.421,0,0,1,17.317,31.691Z"/><path class="cls-2" d="M11.847,31.691a.421.421,0,0,1-.422-.421v-.422a.422.422,0,0,1,.843,0v.422A.42.42,0,0,1,11.847,31.691Z"/><path class="cls-2" d="M14.582,31.691a.421.421,0,0,1-.422-.421v-.422a.422.422,0,0,1,.844,0v.422A.421.421,0,0,1,14.582,31.691Z"/><path class="cls-2" d="M20.053,31.691a.421.421,0,0,1-.422-.421v-.422a.422.422,0,0,1,.844,0v.422A.421.421,0,0,1,20.053,31.691Z"/><path class="cls-2" d="M22.384,31.691a.421.421,0,0,1-.422-.421v-.422a.422.422,0,0,1,.843,0v.422A.421.421,0,0,1,22.384,31.691Z"/><path class="cls-2" d="M17.317,28.84a.421.421,0,0,1-.421-.421V28a.422.422,0,0,1,.843,0v.422A.421.421,0,0,1,17.317,28.84Z"/><path class="cls-2" d="M11.847,28.84a.421.421,0,0,1-.422-.421V28a.422.422,0,0,1,.843,0v.422A.42.42,0,0,1,11.847,28.84Z"/><path class="cls-2" d="M14.582,28.84a.421.421,0,0,1-.422-.421V28A.422.422,0,0,1,15,28v.422A.421.421,0,0,1,14.582,28.84Z"/><path class="cls-2" d="M20.053,28.84a.421.421,0,0,1-.422-.421V28a.422.422,0,0,1,.844,0v.422A.421.421,0,0,1,20.053,28.84Z"/><path class="cls-2" d="M17.317,26.074a.422.422,0,0,1-.421-.422v-.421a.422.422,0,1,1,.843,0v.421A.422.422,0,0,1,17.317,26.074Z"/><path class="cls-2" d="M11.847,26.074a.422.422,0,0,1-.422-.422v-.421a.422.422,0,1,1,.843,0v.421A.421.421,0,0,1,11.847,26.074Z"/><path class="cls-2" d="M14.582,26.074a.422.422,0,0,1-.422-.422v-.421a.422.422,0,0,1,.844,0v.421A.422.422,0,0,1,14.582,26.074Z"/><path class="cls-2" d="M11.847,23.475a.421.421,0,0,1-.422-.421v-.422a.422.422,0,0,1,.843,0v.422A.42.42,0,0,1,11.847,23.475Z"/><path class="cls-2" d="M14.582,23.475a.421.421,0,0,1-.422-.421v-.422a.422.422,0,0,1,.844,0v.422A.421.421,0,0,1,14.582,23.475Z"/><path class="cls-2" d="M6.831,33.077a.422.422,0,0,1-.422-.422V31.3H5.378v1.357a.422.422,0,0,1-.844,0V30.876a.421.421,0,0,1,.422-.421H6.831a.421.421,0,0,1,.421.421v1.779A.422.422,0,0,1,6.831,33.077Z"/></g></svg>