<svg xmlns="http://www.w3.org/2000/svg" viewBox="0 0 40 40"><defs><style>.cls-1{fill:#4c4fee;}.cls-2{fill:#2c3543;}.cls-3{fill:none;stroke:#2c3643;stroke-linecap:round;stroke-linejoin:round;stroke-width:0.75px;}</style></defs><title>timesecurity-40x40-colorspot-outlinesindigo</title><g id="Layer_7" data-name="Layer 7"><circle class="cls-1" cx="31.034" cy="30.243" r="7.723"/></g><g id="Layer_1" data-name="Layer 1"><path class="cls-2" d="M20,39.264c-4.366,0-16.084-12.142-16.084-18V7.121A2.53,2.53,0,0,1,5.748,4.7L19.309.832a2.535,2.535,0,0,1,1.382,0L34.252,4.7a2.53,2.53,0,0,1,1.831,2.425V21.264C36.083,27.122,24.366,39.264,20,39.264ZM20,1.486a1.774,1.774,0,0,0-.485.067L5.953,5.416A1.781,1.781,0,0,0,4.666,7.121V21.264c0,2.432,2.388,6.525,6.231,10.682,3.576,3.867,7.319,6.568,9.1,6.568s5.527-2.7,9.1-6.568c3.843-4.157,6.23-8.25,6.23-10.682V7.121a1.779,1.779,0,0,0-1.286-1.7L20.486,1.553A1.786,1.786,0,0,0,20,1.486Z"/><path class="cls-3" d="M20,11.644A8.356,8.356,0,1,0,28.356,20,8.356,8.356,0,0,0,20,11.644ZM20,26.7A6.7,6.7,0,1,1,26.7,20,6.7,6.7,0,0,1,20,26.7Z"/><path class="cls-2" d="M20.058,15.7a.227.227,0,0,0-.225.2c-.088.773-.21,4.252-.21,4.638v.118a.629.629,0,0,0,1.145.356l1.343-2.261a.188.188,0,0,0-.155-.3.187.187,0,0,0-.108.034l-1.333,1.706s-.142-3.523-.231-4.3a.226.226,0,0,0-.2-.2Z"/></g></svg>