<svg xmlns="http://www.w3.org/2000/svg" viewBox="0 0 40 40"><defs><style>.cls-1{fill:#4c4fee;}.cls-2{fill:#2c3543;}.cls-3{fill:none;stroke:#2c3643;stroke-linecap:round;stroke-linejoin:round;stroke-width:0.75px;}</style></defs><title>transparentsecurity-40x40-colorspot-outlinesindigo</title><g id="Layer_7" data-name="Layer 7"><circle class="cls-1" cx="31.034" cy="30.243" r="7.723"/></g><g id="Layer_1" data-name="Layer 1"><path class="cls-2" d="M26.007,24.368a.417.417,0,0,1-.421-.375.338.338,0,0,1,.328-.375h.093a.375.375,0,0,1,0,.75Z"/><path class="cls-2" d="M32.367,24.368h-.184a.375.375,0,0,1,0-.75h.184a.375.375,0,0,1,0,.75Zm-2.12,0h-.183a.375.375,0,0,1,0-.75h.183a.375.375,0,0,1,0,.75Zm-2.12,0h-.184a.375.375,0,0,1,0-.75h.184a.375.375,0,0,1,0,.75Zm6.053-.418a.376.376,0,0,1-.286-.618.694.694,0,0,0,.07-.1.375.375,0,0,1,.645.383,1.614,1.614,0,0,1-.142.2A.373.373,0,0,1,34.18,23.95Zm.255-2.059a.375.375,0,0,1-.375-.375v-.184a.375.375,0,0,1,.75,0v.184A.375.375,0,0,1,34.435,21.891Zm0-2.12a.375.375,0,0,1-.375-.375v-.183a.375.375,0,0,1,.75,0V19.4A.375.375,0,0,1,34.435,19.771Zm0-2.12a.375.375,0,0,1-.375-.375v-.183a.375.375,0,0,1,.75,0v.183A.375.375,0,0,1,34.435,17.651Zm-.085-2.114a.373.373,0,0,1-.369-.313l-.032-.165a.375.375,0,1,1,.734-.156l.037.2a.376.376,0,0,1-.307.433A.446.446,0,0,1,34.35,15.537Zm-.724-1.982a.372.372,0,0,1-.324-.186l-.09-.148a.375.375,0,0,1,.637-.4l.1.167a.374.374,0,0,1-.323.563ZM32.27,11.939a.374.374,0,0,1-.245-.091l-.13-.109a.375.375,0,1,1,.469-.584l.151.125a.375.375,0,0,1-.245.659Z"/><path class="cls-2" d="M30.328,11.058a.375.375,0,0,1-.213-.684.442.442,0,0,1,.165-.067l.055-.016a.376.376,0,0,1,.165.733l-.074-.255.021.27A.375.375,0,0,1,30.328,11.058Z"/><path class="cls-2" d="M31.7,9.59a.374.374,0,0,1-.323-.563l.082-.149a.375.375,0,0,1,.661.356l-.1.17A.372.372,0,0,1,31.7,9.59Zm-7.934-.036a.373.373,0,0,1-.327-.19l-.093-.17a.375.375,0,1,1,.663-.35l.083.151a.374.374,0,0,1-.142.51A.366.366,0,0,1,23.763,9.554Zm8.549-1.965h-.024a.373.373,0,0,1-.35-.4l.007-.167a.393.393,0,0,1,.384-.366.374.374,0,0,1,.366.383l-.009.2A.375.375,0,0,1,32.312,7.589Zm-9.146-.041a.374.374,0,0,1-.374-.356L22.785,7a.374.374,0,0,1,.369-.381.349.349,0,0,1,.381.369l.006.17a.376.376,0,0,1-.357.393Zm8.805-2.022a.375.375,0,0,1-.347-.232l-.066-.15a.375.375,0,1,1,.678-.32c.029.059.056.121.081.183a.374.374,0,0,1-.2.49A.362.362,0,0,1,31.971,5.526Zm-8.446-.039a.38.38,0,0,1-.15-.031.376.376,0,0,1-.193-.5l.08-.175a.375.375,0,1,1,.678.32l-.071.156A.375.375,0,0,1,23.525,5.487Zm7.221-1.659a.375.375,0,0,1-.247-.093l-.128-.108a.375.375,0,0,1,.469-.584l.152.127a.375.375,0,0,1-.246.658ZM24.766,3.8a.375.375,0,0,1-.242-.662l.149-.122a.375.375,0,1,1,.467.586l-.133.11A.374.374,0,0,1,24.766,3.8Zm4.129-.95a.365.365,0,0,1-.1-.013l-.164-.04a.374.374,0,0,1,.166-.73l.192.046a.375.375,0,0,1-.1.737Zm-2.27-.009a.375.375,0,0,1-.09-.739l.19-.044a.375.375,0,0,1,.156.734l-.166.038A.4.4,0,0,1,26.625,2.842Z"/><path class="cls-2" d="M25.152,11.058a.373.373,0,0,1-.118-.019.417.417,0,0,1-.287-.469.392.392,0,0,1,.194-.257.308.308,0,0,1,.349.009l.076.052a.375.375,0,0,1-.214.684Z"/><path class="cls-2" d="M21.836,13.586a.373.373,0,0,1-.323-.563l.1-.165a.375.375,0,1,1,.64.39l-.091.152A.372.372,0,0,1,21.836,13.586ZM23.2,11.95a.376.376,0,0,1-.245-.66l.15-.125a.375.375,0,0,1,.474.581l-.134.113A.378.378,0,0,1,23.2,11.95Z"/><path class="cls-2" d="M21.133,15.464a.39.39,0,0,1-.058-.005.348.348,0,0,1-.307-.4l.017-.1a.375.375,0,0,1,.738.139l0,.026A.416.416,0,0,1,21.133,15.464Z"/><path class="cls-3" d="M5.565,27.152V18.711a1.282,1.282,0,0,1,.93-1.232l8.094-2.306a1.288,1.288,0,0,1,.7,0l8.093,2.306a1.282,1.282,0,0,1,.931,1.232v8.441c0,3.379-6.95,10.519-9.375,10.519S5.565,30.531,5.565,27.152Z"/><line class="cls-3" x1="14.589" y1="15.173" x2="14.589" y2="37.671"/></g></svg>