<svg width="1500" height="700" viewBox="0 0 1500 700" fill="none" xmlns="http://www.w3.org/2000/svg">
<rect x="46.5244" y="189.988" width="342.71" height="228.527" fill="white"/>
<rect x="42.4446" y="177.522" width="350.87" height="12.4651" fill="#737373"/>
<path fill-rule="evenodd" clip-rule="evenodd" d="M396.65 177.984C397.914 178.595 398.858 179.796 399.166 181.149C399.243 181.488 399.244 181.841 399.283 182.186L389.982 186.85H46.3047V427.319H389.982V259.392C390.02 259.046 390.021 258.693 390.098 258.354C390.718 255.629 394.044 253.931 396.65 255.19C397.909 255.798 398.855 256.988 399.166 258.354C399.243 258.693 399.244 259.046 399.283 259.392V431.983C399.244 432.329 399.243 432.682 399.166 433.021C398.854 434.393 397.896 435.584 396.65 436.185C395.807 436.593 395.544 436.544 394.632 436.647H41.6541C41.3091 436.609 40.9575 436.608 40.619 436.531C39.2515 436.218 38.064 435.257 37.4638 434.007C37.0579 433.162 37.1062 432.898 37.0034 431.983V182.186C37.1062 181.272 37.0579 181.008 37.4638 180.163C38.0726 178.895 39.2709 177.948 40.619 177.639C40.9575 177.562 41.3091 177.561 41.6541 177.522H394.632C394.977 177.561 395.322 177.6 395.667 177.639C395.995 177.754 396.337 177.833 396.65 177.984Z" fill="#2C3643"/>
<path fill-rule="evenodd" clip-rule="evenodd" d="M389.98 186.85V264.836H399.281V182.186L388.539 182.827L389.98 186.85Z" fill="#2C3643"/>
<path fill-rule="evenodd" clip-rule="evenodd" d="M433.668 428.685C434.446 429.173 434.704 429.244 435.286 429.975C436.362 431.323 436.336 433.202 436.244 435.09C435.657 447.073 430.017 458.785 420.838 466.562C413.451 472.821 403.726 476.409 394.169 476.458C276.822 476.641 159.475 476.64 42.1283 476.458C27.95 476.385 14.1874 468.503 6.62425 456.294C2.32393 449.351 0.0379576 441.171 0 433.004V432.871C0.101478 431.96 0.0529341 431.698 0.458073 430.856C1.05817 429.608 2.24725 428.653 3.61269 428.341C3.95121 428.264 4.30289 428.264 4.64787 428.225H162.879C164.58 428.412 166.223 429.208 167.013 430.743C167.168 431.044 167.255 431.375 167.376 431.691L171.567 447.703H264.731L268.922 431.691C269.165 431.057 269.414 430.415 269.846 429.897C270.502 429.11 271.421 428.556 272.408 428.336C272.739 428.263 273.082 428.262 273.419 428.225H431.65L432.685 428.341C433.013 428.456 433.341 428.571 433.668 428.685ZM9.61928 437.688C11.0663 448.261 17.6004 458.219 27.1518 463.365C31.7493 465.842 37.0058 467.154 42.1598 467.181C159.486 467.363 276.812 467.363 394.138 467.181C399.365 467.153 404.547 465.836 409.121 463.379C418.617 458.277 425.251 448.405 426.694 437.572L426.703 437.503H277.009L272.817 453.514C272.574 454.149 272.325 454.791 271.893 455.309C271.238 456.095 270.319 456.65 269.331 456.87C269 456.943 268.657 456.944 268.32 456.98H167.978C166.277 456.794 164.634 455.997 163.844 454.462C163.689 454.161 163.602 453.83 163.481 453.514L159.289 437.503H9.59475C9.60276 437.564 9.61102 437.626 9.61928 437.688Z" fill="#2C3643"/>
<rect x="128.904" y="361.994" width="103.175" height="47.7313" fill="#CFFFCE"/>
<rect x="232.08" y="361.995" width="307.887" height="47.7313" fill="#3088F4"/>
<rect x="874.057" y="361.995" width="11.4639" height="47.7313" fill="#3D40B8"/>
<rect x="539.966" y="361.995" width="6.5508" height="47.7313" fill="#01D0B2"/>
<rect x="546.517" y="361.995" width="26.2032" height="47.7313" fill="#FFBB00"/>
<rect x="572.72" y="361.995" width="301.337" height="47.7313" fill="#4F47F7"/>
<rect x="507.631" y="292.01" width="90.1736" height="47.7313" fill="#FFBB00"/>
<rect x="128.904" y="292.01" width="70.4994" height="47.7313" fill="#A5A6FF"/>
<rect x="199.403" y="292.01" width="27.8718" height="47.7313" fill="#CFFFCE"/>
<rect x="227.275" y="292.01" width="34.4299" height="47.7313" fill="#A5A6FF"/>
<rect x="494.516" y="292.01" width="13.1162" height="47.7313" fill="#01D0B2"/>
<rect x="597.806" y="292.01" width="281.997" height="47.7313" fill="#4C4FEE"/>
<rect x="879.802" y="292.01" width="8.1976" height="47.7313" fill="#CFFFCE"/>
<rect x="261.705" y="292.01" width="232.812" height="47.7313" fill="#3088F4"/>
<rect x="128.742" y="222.816" width="32.7904" height="47.7313" fill="#CFFFCE"/>
<rect x="161.532" y="222.816" width="16.3952" height="47.7313" fill="#3D6DF1"/>
<rect x="177.927" y="222.816" width="18.0347" height="47.7313" fill="#FFBC00"/>
<rect x="195.961" y="222.816" width="22.9533" height="47.7313" fill="#3D40B8"/>
<rect x="218.914" y="222.816" width="26.2323" height="47.7313" fill="#3D6DF1"/>
<rect x="392.704" y="222.816" width="19.6742" height="47.7313" fill="#01D0B2"/>
<rect x="479.599" y="222.816" width="277.079" height="47.7313" fill="#4C4FEE"/>
<rect x="412.378" y="222.816" width="67.2203" height="47.7313" fill="#FFBB00"/>
<rect x="756.678" y="222.816" width="131.162" height="47.7313" fill="#00D0B2"/>
<rect x="245.146" y="222.816" width="147.557" height="47.7313" fill="#3088F4"/>
<ellipse cx="94.2938" cy="316.133" rx="25.3299" ry="25.7964" fill="#E1E1E1"/>
<path fill-rule="evenodd" clip-rule="evenodd" d="M88.8511 323.441L87.9461 317.594C91.9715 314.567 95.0099 311.055 94.6813 305.886L93.9694 305.9C93.8744 306.972 93.4966 307.7 92.921 308.191C91.3382 309.54 88.8571 306.681 84.9425 309.59C84.0808 308.765 83.5388 308.281 83.2603 307.299C83.0086 306.41 82.8194 305.95 83.5606 305.458C85.1077 304.431 86.2736 303.424 87.172 302.249C87.7756 301.46 88.1213 300.596 88.7687 299.6C89.0729 299.131 89.4369 298.787 90.0963 298.689C89.7302 297.934 89.7004 297.179 90.4258 296.292C91.013 296.567 91.5523 296.878 91.8515 297.391C96.0595 296.525 99.3122 297.631 101.635 299.86C107.177 305.181 106.618 318.231 102.737 323.508L103.184 323.51C103.642 323.512 104.016 323.849 104.014 324.259C104.012 324.623 103.715 324.925 103.327 324.988L103.481 325.27C106.579 329.549 106.036 330.917 104.63 333.459C104.881 333.592 105.354 333.77 105.485 334.499L105.481 335.393L86.2438 335.304L86.2479 334.407C86.3856 333.678 86.8616 333.506 87.1129 333.375C85.7299 330.82 85.1989 329.447 88.3353 325.197L88.4916 324.917C88.1042 324.852 87.8091 324.545 87.8107 324.181C87.8126 323.771 88.1896 323.438 88.6477 323.44L88.8511 323.441Z" fill="#3A76F3"/>
<ellipse cx="96.0841" cy="247.962" rx="23.5206" ry="23.9538" fill="#E1E1E1"/>
<path d="M103.201 236.653C100.446 234.315 98.425 232.385 95.7326 229.984C95.7256 229.979 95.7189 229.973 95.7128 229.967L95.6947 229.986C93.0042 232.385 90.9872 234.321 88.2299 236.666C84.2429 240.055 79.6563 244.622 80.9926 250.234C82.011 254.502 86.7275 257.991 91.0504 257.086C92.0981 256.855 93.1085 256.473 94.0515 255.95C94.0515 256.278 94.0515 256.611 94.0208 256.946C93.8402 259.741 92.9229 262.284 91.6626 263.72C95.7236 263.72 95.7236 263.596 99.7883 263.72C98.4683 262.302 97.5004 259.823 97.3163 256.946C97.2946 256.586 97.2838 256.232 97.2856 255.883C98.2652 256.436 99.3182 256.84 100.411 257.08C104.732 257.978 109.44 254.482 110.456 250.214C111.789 244.6 107.194 240.038 103.201 236.653Z" fill="#3D40B8"/>
<ellipse cx="96.449" cy="385.498" rx="24.4252" ry="24.8751" fill="#E1E1E1"/>
<path d="M110.953 394.588C110.565 394.192 110.059 393.954 109.554 393.875C109.943 393.322 110.214 392.886 110.371 392.648C110.72 392.054 110.565 391.303 109.982 390.946C109.399 390.59 108.661 390.748 108.311 391.341C108.077 391.737 107.805 392.133 107.494 392.569L102.908 387.899C102.986 387.858 103.025 387.82 103.103 387.741C104.229 386.949 105.317 386.039 106.134 384.971C106.562 384.456 106.445 383.664 105.94 383.23C105.434 382.794 104.657 382.913 104.231 383.428C103.493 384.377 102.482 385.169 101.394 385.921C98.247 382.517 94.2837 377.215 94.1668 372.347C94.1668 372.347 86.861 374.326 82.3546 369.735C82.3546 369.735 82.977 379.945 97.9753 388.611C96.849 389.679 95.9155 390.907 95.6043 392.568C95.1762 394.587 95.7212 396.526 97.1191 397.99C98.5976 399.574 100.89 400.366 102.832 400.049C104.038 399.811 105.358 398.862 106.524 397.634C106.641 397.515 106.796 397.357 106.913 397.198C107.029 397.515 107.224 397.832 107.456 398.109C108.427 399.098 109.942 399.098 110.914 398.109C111.887 397.121 111.887 395.577 110.953 394.587L110.953 394.588ZM102.405 397.596C101.239 397.794 99.762 397.279 98.83 396.29C98.2471 395.656 97.6248 394.628 97.9359 393.083C98.2076 391.817 99.1017 390.788 100.228 389.877C100.345 389.799 100.462 389.679 100.577 389.601L101.509 390.55L105.747 394.826C104.542 396.251 103.299 397.438 102.405 397.596L102.405 397.596Z" fill="#4F47F7"/>
<rect x="389.839" y="192.897" width="9.13684" height="231.077" fill="#2C3643"/>
</svg>
