<svg xmlns="http://www.w3.org/2000/svg" viewBox="0 0 120 120"><defs><style>.cls-1{fill:#fff;}</style></defs><title>settings.gear.custom-120x120-outlines</title><g id="all_icons" data-name="all icons"><path class="cls-1" d="M64,116H56c-1,0-4.7-.86-8.77-11.8a46.4,46.4,0,0,1-9.48-3.92c-10.6,4.85-13.8,2.88-14.54,2.14l-5.64-5.64c-.74-.74-2.71-3.93,2.14-14.54a46.22,46.22,0,0,1-3.9-9.4l-4.16-1A7.82,7.82,0,0,1,4,64V56c0-1,.86-4.7,11.79-8.77a45.88,45.88,0,0,1,3.93-9.48C14.87,27.15,16.84,24,17.58,23.22l5.64-5.64c.74-.74,3.93-2.71,14.54,2.14a45.65,45.65,0,0,1,9.48-3.93C51.31,4.86,55,4,56,4h8c1,0,4.7.86,8.77,11.79a45.88,45.88,0,0,1,9.48,3.93c10.61-4.85,13.8-2.88,14.54-2.14l5.64,5.64c.74.74,2.71,3.93-2.14,14.54a45.88,45.88,0,0,1,3.93,9.48C115.14,51.31,116,55,116,56v8c0,1-.86,4.7-11.79,8.77a45.88,45.88,0,0,1-3.93,9.48c4.85,10.61,2.88,13.8,2.14,14.54l-5.64,5.64c-.74.74-3.93,2.71-14.54-2.14a46.07,46.07,0,0,1-9.48,3.92C68.69,115.14,65,116,64,116ZM37.82,97.62a1.26,1.26,0,0,1,.62.17A43.47,43.47,0,0,0,48.53,102a1.22,1.22,0,0,1,.84.78c1.88,5.19,5,10.75,6.64,10.75h8c1.65,0,4.76-5.56,6.64-10.75a1.22,1.22,0,0,1,.84-.78,43.65,43.65,0,0,0,10.09-4.18,1.26,1.26,0,0,1,1.15-.05c5,2.35,11.14,4.08,12.3,2.92L100.66,95c1.16-1.16-.57-7.3-2.92-12.3a1.26,1.26,0,0,1,.05-1.15A43,43,0,0,0,102,71.47a1.26,1.26,0,0,1,.78-.84c5.19-1.88,10.75-5,10.75-6.64V56c0-1.62-5.66-4.8-10.75-6.64a1.26,1.26,0,0,1-.78-.84,43,43,0,0,0-4.18-10.09,1.26,1.26,0,0,1-.05-1.15c2.35-5,4.08-11.14,2.92-12.3L95,19.34c-1.16-1.16-7.3.57-12.3,2.92a1.26,1.26,0,0,1-1.15-.05A43,43,0,0,0,71.47,18a1.26,1.26,0,0,1-.84-.78C68.75,12.06,65.64,6.5,64,6.5H56c-1.62,0-4.8,5.66-6.64,10.75a1.26,1.26,0,0,1-.84.78,43.11,43.11,0,0,0-10.1,4.18,1.23,1.23,0,0,1-1.15.05c-5-2.35-11.13-4.08-12.29-2.91L19.34,25c-1.16,1.16.57,7.3,2.92,12.3a1.26,1.26,0,0,1-.05,1.15A43,43,0,0,0,18,48.53a1.26,1.26,0,0,1-.78.84C12.06,51.25,6.5,54.36,6.5,56v8a5.32,5.32,0,0,0,5.32,5.32,1.54,1.54,0,0,1,.3,0l5,1.24a1.27,1.27,0,0,1,.9.88,43,43,0,0,0,4.18,10.09,1.26,1.26,0,0,1,.05,1.15c-2.35,5-4.08,11.14-2.92,12.3L25,100.66c1.16,1.16,7.3-.57,12.3-2.92A1.24,1.24,0,0,1,37.82,97.62Z"/><path class="cls-1" d="M60,83.25A23.25,23.25,0,1,1,83.25,60,23.28,23.28,0,0,1,60,83.25Zm0-44A20.75,20.75,0,1,0,80.75,60,20.78,20.78,0,0,0,60,39.25Z"/></g></svg>