<svg width="465" height="310" viewBox="0 0 465 310" fill="none" xmlns="http://www.w3.org/2000/svg">
<path d="M373.5 92L4 255.5L277.5 263.5L373.5 92Z" fill="#FCCD54" fill-opacity="0.39"/>
<ellipse cx="140.5" cy="266" rx="140.5" ry="44" fill="#FCCD54" fill-opacity="0.4"/>
<path d="M381.5 103C373.492 103 367 96.5081 367 88.5C367 80.4919 373.492 74 381.5 74C389.508 74 396 80.4919 396 88.5C396 96.5081 389.508 103 381.5 103Z" fill="url(#paint0_linear)"/>
<path d="M410 40.9896C410.724 41.0517 411.444 40.8338 412.005 40.3829C412.566 39.9319 412.924 39.2839 413 38.5784V2.41113C412.864 1.73205 412.49 1.12022 411.943 0.680365C411.396 0.240513 410.709 0 410 0C409.291 0 408.604 0.240513 408.057 0.680365C407.51 1.12022 407.136 1.73205 407 2.41113V38.5784C407.076 39.2839 407.434 39.9319 407.995 40.3829C408.556 40.8338 409.276 41.0517 410 40.9896V40.9896Z" fill="#3088F4"/>
<path d="M414.131 25.4628L392.524 47.6056L421.333 77.1294L442.94 54.9866C444.454 53.4358 445.654 51.5947 446.473 49.5684C447.292 47.5421 447.714 45.3703 447.714 43.1771C447.714 40.9839 447.292 38.8121 446.473 36.7859C445.654 34.7596 444.454 32.9185 442.94 31.3676L437.179 25.4628C435.665 23.912 433.869 22.6818 431.891 21.8425C429.914 21.0032 427.795 20.5712 425.655 20.5712C421.333 20.5712 417.187 22.3308 414.131 25.4628V25.4628Z" fill="#4C4FEE"/>
<path d="M428 44C428.394 44.0002 428.784 43.9246 429.148 43.7775C429.512 43.6304 429.843 43.4147 430.122 43.1427C430.4 42.8707 430.621 42.5478 430.772 42.1924C430.923 41.837 431 41.4561 431 41.0714V5.92857C431 5.15187 430.684 4.40697 430.121 3.85776C429.559 3.30855 428.796 3 428 3C427.204 3 426.441 3.30855 425.879 3.85776C425.316 4.40697 425 5.15187 425 5.92857V41.0714C425 41.4561 425.077 41.837 425.228 42.1924C425.379 42.5478 425.6 42.8707 425.878 43.1427C426.157 43.4147 426.488 43.6304 426.852 43.7775C427.216 43.9246 427.606 44.0002 428 44V44Z" fill="#3088F4"/>
<path d="M419.304 93.1513L402.879 110.053C401.667 111.3 400.024 112 398.311 112C396.598 112 394.955 111.3 393.743 110.053L360.892 76.2495C359.681 75.003 359 73.3124 359 71.5495C359 69.7867 359.681 68.0961 360.892 66.8496L377.318 49.9477C382.885 44.2186 390.437 41 398.311 41C406.185 41 413.736 44.2186 419.304 49.9477V49.9477C422.061 52.7845 424.248 56.1523 425.74 59.8587C427.232 63.5651 428 67.5377 428 71.5495C428 75.5613 427.232 79.5339 425.74 83.2403C424.248 86.9468 422.061 90.3145 419.304 93.1513V93.1513Z" fill="#3088F4"/>
<path d="M346.881 0H462.119C463.71 0 465 1.34315 465 3C465 4.65685 463.71 6 462.119 6H346.881C345.29 6 344 4.65685 344 3C344 1.34315 345.29 0 346.881 0Z" fill="#4C4FEE"/>
<path d="M32 123C32 89.8629 58.8629 63 92 63H188.864C222.001 63 248.864 89.8629 248.864 123V220.335C248.864 253.473 222.001 280.335 188.864 280.335H92.0001C58.863 280.335 32 253.473 32 220.335V123Z" fill="white"/>
<path fill-rule="evenodd" clip-rule="evenodd" d="M107.366 110.88C108.854 111.649 109.788 113.184 109.788 114.859V228.005C109.788 230.479 107.783 232.484 105.31 232.484C102.836 232.484 100.831 230.479 100.831 228.005V123.522L77.9624 139.728C75.9443 141.158 73.1489 140.681 71.7187 138.663C70.2885 136.645 70.7652 133.85 72.7833 132.419L102.72 111.204C104.086 110.236 105.879 110.111 107.366 110.88Z" fill="url(#paint1_linear)"/>
<path fill-rule="evenodd" clip-rule="evenodd" d="M185.375 110.584C187.245 111.167 188.519 112.899 188.519 114.859V193.904H205.963C208.436 193.904 210.441 195.909 210.441 198.382C210.441 200.856 208.436 202.861 205.963 202.861H188.519V228.005C188.519 230.479 186.514 232.484 184.041 232.484C181.567 232.484 179.562 230.479 179.562 228.005V202.861H126.289C124.623 202.861 123.096 201.937 122.322 200.462C121.549 198.987 121.658 197.205 122.605 195.835L180.357 112.312C181.471 110.7 183.504 110 185.375 110.584ZM179.562 193.904V129.211L134.831 193.904H179.562Z" fill="url(#paint2_linear)"/>
<defs>
<linearGradient id="paint0_linear" x1="370.465" y1="101.164" x2="378.788" y2="91.6117" gradientUnits="userSpaceOnUse">
<stop stop-color="#FFDA1C"/>
<stop offset="1" stop-color="#FEB705"/>
</linearGradient>
<linearGradient id="paint1_linear" x1="84.3303" y1="108.258" x2="113.088" y2="230.834" gradientUnits="userSpaceOnUse">
<stop stop-color="#F6A800"/>
<stop offset="1" stop-color="#E2333B"/>
</linearGradient>
<linearGradient id="paint2_linear" x1="132.418" y1="118.63" x2="205.963" y2="231.305" gradientUnits="userSpaceOnUse">
<stop stop-color="#E53D38"/>
<stop offset="1" stop-color="#3E589D"/>
</linearGradient>
</defs>
</svg>
