<svg width="378" height="479" viewBox="0 0 378 479" fill="none" xmlns="http://www.w3.org/2000/svg">
<path fill-rule="evenodd" clip-rule="evenodd" d="M303.295 90.8286C303.295 100.674 295.17 108.657 285.147 108.657C275.125 108.657 267 100.674 267 90.8286C267 80.9817 275.125 73 285.147 73C295.17 73 303.295 80.9817 303.295 90.8286Z" fill="#00D0B2"/>
<path fill-rule="evenodd" clip-rule="evenodd" d="M304 469.5C304 474.746 299.747 479 294.5 479C289.253 479 285 474.746 285 469.5C285 464.253 289.253 460 294.5 460C299.747 460 304 464.253 304 469.5Z" fill="#00D0B2"/>
<path fill-rule="evenodd" clip-rule="evenodd" d="M377.295 17.8286C377.295 27.6739 369.17 35.6572 359.147 35.6572C349.125 35.6572 341 27.6739 341 17.8286C341 7.98165 349.125 0 359.147 0C369.17 0 377.295 7.98165 377.295 17.8286Z" fill="#FFB400"/>
<path fill-rule="evenodd" clip-rule="evenodd" d="M36.2953 450.829C36.2953 460.674 28.1705 468.657 18.1468 468.657C8.12486 468.657 0 460.674 0 450.829C0 440.982 8.12486 433 18.1468 433C28.1705 433 36.2953 440.982 36.2953 450.829Z" fill="#4C4FEE"/>
<path fill-rule="evenodd" clip-rule="evenodd" d="M18 100C18 104.97 13.9706 109 8.99958 109C4.02938 109 0 104.97 0 100C0 95.0292 4.02938 91 8.99958 91C13.9706 91 18 95.0292 18 100Z" fill="#4C4FEE"/>
</svg>
