<svg width="948" height="82" viewBox="0 0 948 82" fill="none" xmlns="http://www.w3.org/2000/svg">
<path fill-rule="evenodd" clip-rule="evenodd" d="M375.295 17.8286C375.295 27.6739 367.17 35.6572 357.147 35.6572C347.125 35.6572 339 27.6739 339 17.8286C339 7.98165 347.125 0 357.147 0C367.17 0 375.295 7.98165 375.295 17.8286Z" fill="#00D0B2"/>
<path fill-rule="evenodd" clip-rule="evenodd" d="M219 72.5C219 77.7461 214.747 82 209.5 82C204.253 82 200 77.7461 200 72.5C200 67.253 204.253 63 209.5 63C214.747 63 219 67.253 219 72.5Z" fill="#00D0B2"/>
<path fill-rule="evenodd" clip-rule="evenodd" d="M559.295 44.8286C559.295 54.6739 551.17 62.6572 541.147 62.6572C531.125 62.6572 523 54.6739 523 44.8286C523 34.9817 531.125 27 541.147 27C551.17 27 559.295 34.9817 559.295 44.8286Z" fill="#FFB400"/>
<path fill-rule="evenodd" clip-rule="evenodd" d="M948 73C948 77.97 943.971 82 939 82C934.029 82 930 77.97 930 73C930 68.0292 934.029 64 939 64C943.971 64 948 68.0292 948 73Z" fill="#FFB400"/>
<path fill-rule="evenodd" clip-rule="evenodd" d="M733.295 53.8286C733.295 63.6739 725.17 71.6572 715.147 71.6572C705.125 71.6572 697 63.6739 697 53.8286C697 43.9817 705.125 36 715.147 36C725.17 36 733.295 43.9817 733.295 53.8286Z" fill="#4C4FEE"/>
<path fill-rule="evenodd" clip-rule="evenodd" d="M18 38C18 42.97 13.9706 47 8.99958 47C4.02938 47 0 42.97 0 38C0 33.0292 4.02938 29 8.99958 29C13.9706 29 18 33.0292 18 38Z" fill="#4C4FEE"/>
</svg>
