<svg width="65" height="65" viewBox="0 0 65 65" fill="none" xmlns="http://www.w3.org/2000/svg">
<rect width="65" height="65" fill="white"/>
<g clip-path="url(#clip0_706_324)">
<path d="M51.8446 17.6083C51.7766 17.5221 51.6903 17.4526 51.5921 17.405C51.494 17.3573 51.3865 17.3329 51.2777 17.3333H49.8332V12.5667C49.8332 11.8859 49.5669 11.2331 49.0929 10.7518C48.6188 10.2704 47.9759 10 47.3055 10H13.7221C13.5306 10 13.3469 10.0773 13.2114 10.2148C13.076 10.3523 12.9999 10.5388 12.9999 10.7333C12.9997 10.7723 13.0027 10.8113 13.0089 10.8498L16.5117 32.8983C16.1059 33.0676 15.7603 33.3579 15.5206 33.7309C15.2808 34.1039 15.1582 34.542 15.169 34.9873C15.1798 35.4326 15.3234 35.864 15.5809 36.2246C15.8383 36.5852 16.1976 36.858 16.611 37.0068V38.6C16.611 38.7257 16.6427 38.8493 16.7033 38.9589C16.7638 39.0686 16.8511 39.1606 16.9568 39.2261L29.611 47.0783V53.2667C29.611 53.3829 29.6382 53.4974 29.6903 53.6009C29.7425 53.7043 29.8181 53.7937 29.9109 53.8616C30.0038 53.9296 30.1112 53.9741 30.2243 53.9917C30.3374 54.0092 30.4531 53.9992 30.5616 53.9624L34.895 52.4958C35.0388 52.4471 35.1639 52.3537 35.2525 52.2288C35.3411 52.1039 35.3888 51.9539 35.3888 51.8V47.0783L48.043 39.2261C48.1487 39.1606 48.236 39.0686 48.2965 38.9589C48.3571 38.8493 48.3888 38.7257 48.3888 38.6V37.0068C48.7988 36.8601 49.1559 36.5915 49.4136 36.236C49.6713 35.8804 49.8178 35.4544 49.8338 35.0132C49.8499 34.5721 49.7349 34.1362 49.5037 33.7623C49.2726 33.3884 48.936 33.0938 48.5377 32.9167L51.98 18.2335C52.0055 18.1257 52.0065 18.0134 51.9831 17.9051C51.9596 17.7968 51.9123 17.6954 51.8446 17.6083ZM40.8055 17.3333C40.5181 17.3333 40.2426 17.2174 40.0394 17.0112C39.8363 16.8049 39.7221 16.5251 39.7221 16.2333C39.7221 15.9416 39.8363 15.6618 40.0394 15.4555C40.2426 15.2492 40.5181 15.1333 40.8055 15.1333H47.3055C47.6803 15.1336 48.0504 15.0487 48.3888 14.8849V17.3333H40.8055ZM47.3055 11.4667C47.5928 11.4667 47.8683 11.5826 48.0715 11.7888C48.2747 11.9951 48.3888 12.2749 48.3888 12.5667C48.3888 12.8584 48.2747 13.1382 48.0715 13.3445C47.8683 13.5508 47.5928 13.6667 47.3055 13.6667H40.8055C40.135 13.6667 39.4921 13.9371 39.018 14.4184C38.544 14.8998 38.2777 15.5526 38.2777 16.2333V32.7333H17.948L14.5698 11.4667H47.3055ZM34.2901 46.0406C34.1845 46.1061 34.0972 46.1981 34.0366 46.3077C33.9761 46.4174 33.9443 46.541 33.9443 46.6667V51.2711L31.0554 52.2492V46.6667C31.0555 46.541 31.0237 46.4174 30.9632 46.3077C30.9026 46.1981 30.8153 46.1061 30.7097 46.0406L18.0554 38.1884V37.1333H46.9443V38.1884L34.2901 46.0406ZM47.6666 35.6667H17.3332C17.1417 35.6667 16.958 35.5894 16.8225 35.4519C16.6871 35.3144 16.611 35.1278 16.611 34.9333C16.611 34.7388 16.6871 34.5523 16.8225 34.4148C16.958 34.2773 17.1417 34.2 17.3332 34.2H47.6666C47.8581 34.2 48.0418 34.2773 48.1773 34.4148C48.3127 34.5523 48.3888 34.7388 48.3888 34.9333C48.3888 35.1278 48.3127 35.3144 48.1773 35.4519C48.0418 35.5894 47.8581 35.6667 47.6666 35.6667ZM47.096 32.7333H39.7221V18.5516C40.0605 18.7154 40.4306 18.8002 40.8055 18.8H50.3632L47.096 32.7333Z" fill="#0F3384"/>
<path d="M23.8334 25.4C24.8706 25.4011 25.889 25.1183 26.7814 24.5815C27.6738 24.0447 28.4072 23.2736 28.9046 22.3494C29.402 21.4251 29.6449 20.3819 29.6078 19.3294C29.5707 18.2768 29.255 17.2539 28.6939 16.3681L30.6322 14.4H36.1111V12.9333H30.3334C30.2385 12.9333 30.1445 12.9522 30.0569 12.989C29.9692 13.0258 29.8895 13.0798 29.8224 13.1478L27.7641 15.2388C27.0748 14.5874 26.2391 14.117 25.3299 13.8684C24.4206 13.6198 23.4653 13.6007 22.5471 13.8126C21.6289 14.0246 20.7757 14.4611 20.0616 15.0844C19.3475 15.7076 18.7943 16.4986 18.45 17.3885C18.1058 18.2785 17.9809 19.2403 18.0864 20.1904C18.1919 21.1405 18.5244 22.05 19.0551 22.8398C19.5858 23.6296 20.2986 24.2757 21.1314 24.7219C21.9642 25.1681 22.8917 25.4009 23.8334 25.4ZM19.5 19.5333C19.4991 18.6198 19.7801 17.729 20.3035 16.9859L23.1111 19.8368V23.8701C22.1022 23.6958 21.1863 23.165 20.5255 22.3714C19.8647 21.5778 19.5015 20.5726 19.5 19.5333ZM23.1111 17.7633L21.3245 15.9492C21.8562 15.5638 22.4671 15.3062 23.1111 15.1957V17.7633ZM26.511 18.5883L27.6422 17.4388C27.9701 18.054 28.1488 18.7397 28.1635 19.4391C28.1782 20.1385 28.0284 20.8313 27.7267 21.4602C27.4249 22.0891 26.9798 22.6358 26.4283 23.0551C25.8768 23.4743 25.2348 23.7541 24.5556 23.871V15.1957C25.3715 15.3355 26.1308 15.7103 26.743 16.2755L25.4891 17.5478L26.511 18.5883Z" fill="#0F3384"/>
<path d="M20.9445 26.8667H22.3889V28.3334H20.9445V26.8667Z" fill="#0F3384"/>
<path d="M23.8334 26.8667H36.1112V28.3334H23.8334V26.8667Z" fill="#0F3384"/>
<path d="M19.5 29.8H34.6666V31.2667H19.5V29.8Z" fill="#0F3384"/>
<path d="M31.7778 15.8667H36.1112V17.3334H31.7778V15.8667Z" fill="#0F3384"/>
<path d="M31.7778 18.8H36.1112V20.2667H31.7778V18.8Z" fill="#0F3384"/>
<path d="M31.7778 21.7333H36.1112V23.1999H31.7778V21.7333Z" fill="#0F3384"/>
</g>
<defs>
<clipPath id="clip0_706_324">
<rect width="39" height="44" fill="white" transform="translate(13 10)"/>
</clipPath>
</defs>
</svg>
