<svg width="352" height="258" viewBox="0 0 352 258" fill="none" xmlns="http://www.w3.org/2000/svg">
<g clip-path="url(#clip0_702_6)">
<g clip-path="url(#clip1_702_6)">
<path d="M54.2816 79.6046H57.0567V78.9092H54.2816V79.6046ZM59.8318 79.6046H62.6069V78.9092H59.8318V79.6046ZM65.3819 79.6046H68.157V78.9092H65.3819V79.6046ZM70.9321 79.6046H73.7072V78.9092H70.9321V79.6046ZM76.4823 79.6046H79.2573V78.9092H76.4823V79.6046ZM82.0324 79.6046H84.8075V78.9092H82.0324V79.6046ZM87.5826 79.6046H90.3577V78.9092H87.5826V79.6046ZM93.1327 79.6046H95.9078V78.9092H93.1327V79.6046ZM98.6829 79.6046H101.458V78.9092H98.6829V79.6046ZM104.233 79.6046H107.008V78.9092H104.233V79.6046ZM109.783 79.6046H112.558V78.9092H109.783V79.6046ZM115.333 79.6046H118.108V78.9092H115.333V79.6046ZM120.884 79.6046H123.659V78.9092H120.884V79.6046ZM126.434 79.6046H127.731L127.385 79.2569V80.7378H128.078V78.9092H126.434V79.6046ZM127.385 83.5194V86.3011H128.078V83.5194H127.385ZM127.385 89.0828V91.8645H128.078V89.0828H127.385ZM127.385 94.6461V97.4278H128.078V94.6461H127.385ZM127.385 100.209V102.991H128.078V100.209H127.385ZM127.385 105.773V108.554H128.078V105.773H127.385ZM127.385 111.336V114.118H128.078V111.336H127.385ZM127.385 116.899V119.681H128.078V116.899H127.385ZM127.385 122.463V125.245H128.078V122.463H127.385ZM127.385 128.026V130.808H128.078V128.026H127.385ZM127.385 133.59V136.371H128.078V133.59H127.385ZM127.385 139.153V141.935H128.078V139.153H127.385ZM127.385 144.716V147.498H128.078V144.716H127.385ZM127.385 150.28V152.176L127.731 151.828H126.848V152.524H128.078V150.28H127.385ZM124.073 151.828H121.298V152.524H124.073V151.828ZM118.523 151.828H115.748V152.524H118.523V151.828ZM112.973 151.828H110.198V152.524H112.973V151.828ZM107.423 151.828H104.648V152.524H107.423V151.828ZM101.873 151.828H99.0976V152.524H101.873V151.828ZM96.3225 151.828H93.5474V152.524H96.3225V151.828ZM90.7723 151.828H87.9973V152.524H90.7723V151.828ZM85.2222 151.828H82.4471V152.524H85.2222V151.828ZM79.672 151.828H76.8969V152.524H79.672V151.828Z" fill="#FFBB00"/>
</g>
<path d="M62.2937 85.3023H65.3975V84.6157H62.2937V85.3023ZM68.5013 85.3023H71.6052V84.6157H68.5013V85.3023ZM74.709 85.3023H77.8129V84.6157H74.709V85.3023ZM80.9167 85.3023H84.0205V84.6157H80.9167V85.3023ZM87.1244 85.3023H90.2282V84.6157H87.1244V85.3023ZM93.3321 85.3023H96.4359V84.6157H93.3321V85.3023ZM99.5397 85.3023H102.644V84.6157H99.5397V85.3023ZM105.747 85.3023H108.851V84.6157H105.747V85.3023ZM111.955 85.3023H115.059V84.6157H111.955V85.3023ZM118.163 85.3023H121.267V84.6157H118.163V85.3023ZM124.37 85.3023H127.474V84.6157H124.37V85.3023ZM130.578 85.3023H133.682V84.6157H130.578V85.3023ZM136.786 85.3023H139.89V84.6157H136.786V85.3023ZM142.993 85.3023H144.445L144.057 84.959V86.421H144.833V84.6157H142.993V85.3023ZM144.057 89.1672V91.9134H144.833V89.1672H144.057ZM144.057 94.6596V97.4058H144.833V94.6596H144.057ZM144.057 100.152V102.898H144.833V100.152H144.057ZM144.057 105.644V108.391H144.833V105.644H144.057ZM144.057 111.137V113.883H144.833V111.137H144.057ZM144.057 116.629V119.375H144.833V116.629H144.057ZM144.057 122.122V124.868H144.833V122.122H144.057ZM144.057 127.614V130.36H144.833V127.614H144.057ZM144.057 133.106V135.853H144.833V133.106H144.057ZM144.057 138.599V141.345H144.833V138.599H144.057ZM144.057 144.091V146.838H144.833V144.091H144.057ZM144.057 149.584V152.33H144.833V149.584H144.057ZM144.057 155.076V156.949L144.445 156.605H143.457V157.292H144.833V155.076H144.057ZM140.353 156.605H137.25V157.292H140.353V156.605ZM134.146 156.605H131.042V157.292H134.146V156.605ZM127.938 156.605H124.834V157.292H127.938V156.605ZM121.73 156.605H118.627V157.292H121.73V156.605ZM115.523 156.605H112.419V157.292H115.523V156.605ZM109.315 156.605H106.211V157.292H109.315V156.605ZM103.107 156.605H100.004V157.292H103.107V156.605ZM96.8997 156.605H93.7959V157.292H96.8997V156.605ZM90.692 156.605H87.5882V157.292H90.692V156.605Z" fill="#31BEF0"/>
<path d="M84.4026 133.261H48.0088C42.877 133.261 38.7168 137.424 38.7168 142.559V174.324C38.7168 179.459 42.877 183.622 48.0088 183.622H84.4026C89.5344 183.622 93.6946 179.459 93.6946 174.324V142.559C93.6946 137.424 89.5344 133.261 84.4026 133.261Z" fill="#E1E7FF"/>
<path d="M55.907 55.7837H9.9115C4.43753 55.7837 0 60.2237 0 65.7008V106.299C0 111.776 4.43753 116.216 9.9115 116.216H55.907C61.381 116.216 65.8185 111.776 65.8185 106.299V65.7008C65.8185 60.2237 61.381 55.7837 55.907 55.7837Z" fill="#E1E7FF"/>
<path d="M34.1589 65.4972C34.1634 65.1731 34.3032 64.8647 34.5445 64.6464C34.7858 64.4281 35.1059 64.32 35.4284 64.3448C40.3687 64.9187 44.9684 67.1402 48.4838 70.651C51.9991 74.1598 54.2247 78.7515 54.8017 83.6824C54.8265 84.0043 54.716 84.3239 54.4973 84.5647C54.2786 84.8055 53.9719 84.9428 53.6472 84.9495H46.7203C46.1566 84.945 45.6786 84.5354 45.5884 83.9817C45.1465 81.3912 43.9085 79.001 42.0483 77.1419C40.1858 75.2851 37.7934 74.0495 35.1982 73.6106C34.5871 73.5498 34.1316 73.0232 34.1587 72.411L34.1589 65.4972Z" fill="#E64068"/>
<path d="M53.6477 87.185H46.7208C46.1571 87.1895 45.6791 87.5992 45.5889 88.1528C45.0974 91.1215 43.5596 93.8178 41.2529 95.7532C38.9439 97.6888 36.0194 98.7376 33.0047 98.7083C32.0396 98.7128 31.0768 98.5958 30.141 98.3617C29.5863 98.2402 29.0226 98.5305 28.8017 99.0549L26.1229 105.622C25.9854 105.915 25.9854 106.252 26.1229 106.545C26.2604 106.847 26.522 107.074 26.84 107.166C28.8468 107.715 30.9235 107.972 33.0049 107.927C38.4053 107.94 43.6209 105.96 47.6455 102.363C51.6704 98.7666 54.2208 93.8128 54.8021 88.4514C54.8269 88.1296 54.7164 87.81 54.4977 87.5692C54.279 87.3284 53.9723 87.1888 53.6476 87.1843L53.6477 87.185Z" fill="#E64068"/>
<path d="M26.2403 96.7507C23.3135 94.9254 21.2594 91.9883 20.5513 88.6168C19.8433 85.2453 20.5423 81.7321 22.486 78.887C24.4319 76.0421 27.4534 74.111 30.8583 73.5416C31.422 73.4606 31.8436 72.9812 31.8505 72.4118V65.4977C31.8459 65.1736 31.7061 64.8652 31.4649 64.6469C31.2236 64.4286 30.9034 64.3205 30.581 64.3453C24.4051 65.0655 18.8243 68.3673 15.2275 73.4293C11.631 78.4933 10.3571 84.8428 11.7213 90.8989C13.0855 96.9534 16.9615 102.146 22.3846 105.184C22.5538 105.276 22.7454 105.324 22.9371 105.324C23.0588 105.348 23.1851 105.348 23.3069 105.324C23.6248 105.225 23.8796 104.988 23.9991 104.678L26.7004 98.2251C26.9733 97.6894 26.7703 97.0345 26.2404 96.7509L26.2403 96.7507Z" fill="#E64068"/>
<path d="M234.909 186.721H237.232V185.946H234.909V186.721ZM239.555 186.721H241.878V185.946H239.555V186.721ZM244.201 186.721H246.524V185.946H244.201V186.721ZM248.847 186.721H251.17V185.946H248.847V186.721ZM253.493 186.721H255.816V185.946H253.493V186.721ZM258.139 186.721H260.462V185.946H258.139V186.721ZM262.785 186.721H265.108V185.946H262.785V186.721ZM267.431 186.721H269.754V185.946H267.431V186.721ZM272.077 186.721H274.4V185.946H272.077V186.721Z" fill="#FFBB00"/>
<path d="M115.376 17.0861C115.376 7.64968 122.93 0 132.249 0H230.956C240.276 0 247.83 7.64968 247.83 17.0861V240.914C247.83 250.35 240.276 258 230.956 258H132.249C122.93 258 115.376 250.35 115.376 240.914V17.0861Z" fill="#4C5363"/>
<path d="M118.358 19.826C118.358 10.588 125.624 3.09912 134.586 3.09912H229.52C238.483 3.09912 245.748 10.588 245.748 19.826V238.949C245.748 248.186 238.483 255.676 229.52 255.676H134.586C125.624 255.676 118.358 248.186 118.358 238.949V19.826Z" fill="white"/>
<path d="M150.896 209.817H137.612C133.335 209.817 129.868 213.286 129.868 217.565V228.519C129.868 232.798 133.335 236.266 137.612 236.266H150.896C155.173 236.266 158.64 232.798 158.64 228.519V217.565C158.64 213.286 155.173 209.817 150.896 209.817Z" fill="#E1E7FF"/>
<path d="M184.668 209.817H171.383C167.107 209.817 163.64 213.286 163.64 217.565V228.519C163.64 232.798 167.107 236.266 171.383 236.266H184.668C188.944 236.266 192.411 232.798 192.411 228.519V217.565C192.411 213.286 188.944 209.817 184.668 209.817Z" fill="#0087FC"/>
<path d="M150.342 179.748H137.057C132.781 179.748 129.314 183.217 129.314 187.496V198.449C129.314 202.728 132.781 206.197 137.057 206.197H150.342C154.619 206.197 158.086 202.728 158.086 198.449V187.496C158.086 183.217 154.619 179.748 150.342 179.748Z" fill="#E64068"/>
<path d="M185.187 179.748H171.903C167.626 179.748 164.159 183.217 164.159 187.496V198.449C164.159 202.728 167.626 206.197 171.903 206.197H185.187C189.464 206.197 192.931 202.728 192.931 198.449V187.496C192.931 183.217 189.464 179.748 185.187 179.748Z" fill="#00D0B2"/>
<path d="M178.993 26.3423H165.708C161.431 26.3423 157.964 29.8111 157.964 34.09V45.0437C157.964 49.3227 161.431 52.7915 165.708 52.7915H178.993C183.269 52.7915 186.736 49.3227 186.736 45.0437V34.09C186.736 29.8111 183.269 26.3423 178.993 26.3423Z" fill="#E1E7FF"/>
<path d="M211.515 26.3423H198.23C193.953 26.3423 190.487 29.8111 190.487 34.09V45.0437C190.487 49.3227 193.953 52.7915 198.23 52.7915H211.515C215.791 52.7915 219.258 49.3227 219.258 45.0437V34.09C219.258 29.8111 215.791 26.3423 211.515 26.3423Z" fill="#00D0B2"/>
<path d="M211.515 57.3333H198.23C193.953 57.3333 190.487 60.802 190.487 65.081V76.0347C190.487 80.3137 193.953 83.7825 198.23 83.7825H211.515C215.791 83.7825 219.258 80.3137 219.258 76.0347V65.081C219.258 60.802 215.791 57.3333 211.515 57.3333Z" fill="#4857EF"/>
<path d="M177.998 57.3467H164.713C160.437 57.3467 156.97 60.8155 156.97 65.0944V76.0481C156.97 80.3271 160.437 83.7959 164.713 83.7959H177.998C182.275 83.7959 185.741 80.3271 185.741 76.0481V65.0944C185.741 60.8155 182.275 57.3467 177.998 57.3467Z" fill="#FFBB00"/>
<path d="M121.791 39.5269H108.506C104.23 39.5269 100.763 42.9956 100.763 47.2746V58.2283C100.763 62.5073 104.23 65.9761 108.506 65.9761H121.791C126.067 65.9761 129.534 62.5073 129.534 58.2283V47.2746C129.534 42.9956 126.067 39.5269 121.791 39.5269Z" fill="#FFBB00"/>
<path d="M121.791 75.1663H108.506C104.23 75.1663 100.763 78.635 100.763 82.914V93.8677C100.763 98.1467 104.23 101.615 108.506 101.615H121.791C126.067 101.615 129.534 98.1467 129.534 93.8677V82.914C129.534 78.635 126.067 75.1663 121.791 75.1663Z" fill="#E64068"/>
<path d="M312.832 156.504H277.987C271.572 156.504 266.371 161.708 266.371 168.126V198.342C266.371 204.761 271.572 209.964 277.987 209.964H312.832C319.246 209.964 324.447 204.761 324.447 198.342V168.126C324.447 161.708 319.246 156.504 312.832 156.504Z" fill="#E1E7FF"/>
<path d="M277.212 166.577H287.279V198.342H277.212V166.577Z" fill="#00D0B2"/>
<path d="M290.376 172.775H300.442V198.342H290.376V172.775Z" fill="#00D0B2"/>
<path d="M303.54 177.423H313.606V198.342H303.54V177.423Z" fill="#00D0B2"/>
<path d="M163.831 131.558C165.202 131.558 166.323 130.436 166.323 129.097C166.323 127.758 165.202 126.605 163.831 126.605C162.492 126.605 161.37 127.758 161.37 129.097C161.37 130.436 162.492 131.558 163.831 131.558ZM161.838 149H165.856V133.427H161.838V149ZM180.03 149.436C186.321 149.436 191.367 144.453 191.367 138.099C191.367 131.713 186.321 126.761 180.03 126.761C173.738 126.761 168.723 131.713 168.723 138.099C168.723 144.453 173.738 149.436 180.03 149.436ZM180.03 145.231C176.074 145.231 172.99 142.272 172.99 138.099C172.99 133.894 176.074 130.935 180.03 130.935C183.985 130.935 187.069 133.894 187.069 138.099C187.069 142.272 183.985 145.231 180.03 145.231ZM201.041 149.436C205.682 149.436 208.953 146.944 208.953 142.864C208.953 138.41 205.277 137.258 201.82 136.167C198.518 135.171 197.678 134.454 197.678 133.115C197.678 131.869 198.736 130.935 200.543 130.935C202.754 130.935 203.938 132.087 204.717 133.738L208.33 131.651C206.866 128.599 204.125 126.761 200.543 126.761C196.805 126.761 193.379 129.128 193.379 133.24C193.379 137.382 196.619 138.784 199.951 139.749C203.191 140.684 204.654 141.307 204.654 142.926C204.654 144.141 203.751 145.231 201.166 145.231C198.456 145.231 196.93 143.923 196.151 141.899L192.476 144.048C193.66 147.287 196.587 149.436 201.041 149.436Z" fill="black"/>
<rect x="183.007" y="101.747" width="12.6867" height="12.4588" fill="#3088F4"/>
<path d="M189.171 110.925C190.471 110.925 191.206 109.849 191.206 108.279C191.206 106.71 190.471 105.634 189.171 105.634C187.877 105.634 187.136 106.71 187.136 108.279C187.136 109.849 187.877 110.925 189.171 110.925ZM189.171 109.944C188.487 109.944 188.139 109.355 188.139 108.279C188.139 107.204 188.487 106.608 189.171 106.608C189.854 106.608 190.21 107.204 190.21 108.279C190.21 109.355 189.854 109.944 189.171 109.944Z" fill="white"/>
<rect x="212.609" y="101.747" width="12.6867" height="12.4588" fill="#3088F4"/>
<rect x="138.604" y="101.747" width="12.6867" height="12.4588" fill="#3088F4"/>
<rect x="153.405" y="101.747" width="12.6867" height="12.4588" fill="#3088F4"/>
<rect x="197.808" y="101.747" width="12.6867" height="12.4588" fill="#3088F4"/>
<rect x="168.206" y="101.747" width="12.6867" height="12.4588" fill="#3088F4"/>
<path d="M144.693 105.736L143.356 106.208L143.603 107.066L144.562 106.797V110.823H145.565V105.736H144.693Z" fill="white"/>
<path d="M174.282 105.736L172.945 106.208L173.192 107.066L174.152 106.797V110.823H175.155V105.736H174.282Z" fill="white"/>
<path d="M203.872 105.736L202.535 106.208L202.782 107.066L203.741 106.797V110.823H204.744V105.736H203.872Z" fill="white"/>
<path d="M159.581 110.925C160.882 110.925 161.616 109.849 161.616 108.279C161.616 106.71 160.882 105.634 159.581 105.634C158.287 105.634 157.546 106.71 157.546 108.279C157.546 109.849 158.287 110.925 159.581 110.925ZM159.581 109.944C158.898 109.944 158.549 109.355 158.549 108.279C158.549 107.204 158.898 106.608 159.581 106.608C160.264 106.608 160.62 107.204 160.62 108.279C160.62 109.355 160.264 109.944 159.581 109.944Z" fill="white"/>
<path d="M219.279 110.925C220.58 110.925 221.314 109.849 221.314 108.279C221.314 106.71 220.58 105.634 219.279 105.634C217.986 105.634 217.244 106.71 217.244 108.279C217.244 109.849 217.986 110.925 219.279 110.925ZM219.279 109.944C218.596 109.944 218.247 109.355 218.247 108.279C218.247 107.204 218.596 106.608 219.279 106.608C219.962 106.608 220.318 107.204 220.318 108.279C220.318 109.355 219.962 109.944 219.279 109.944Z" fill="white"/>
<path d="M66.4467 175.461C67.9667 175.461 83.5596 168.636 83.6505 145.343C83.6505 145.202 83.5808 145.069 83.464 144.988C76.2952 140.174 67.224 138.085 66.4466 138.085C65.6691 138.085 56.5979 140.174 49.4292 144.988C49.3124 145.069 49.2426 145.202 49.2426 145.343C49.3334 168.637 64.9265 175.461 66.4465 175.461H66.4467ZM57.7824 156.466L59.5361 154.713V154.711C59.6999 154.547 59.966 154.547 60.1314 154.711L64.6394 159.221L72.7621 151.098C72.8416 151.019 72.9487 150.975 73.0606 150.975C73.1726 150.975 73.2796 151.019 73.3575 151.098L75.1111 152.852C75.2766 153.017 75.2766 153.283 75.1111 153.447L64.9382 163.622C64.7727 163.786 64.5066 163.786 64.3428 163.622L57.7824 157.061C57.7029 156.982 57.6575 156.875 57.6575 156.763C57.6575 156.651 57.7029 156.544 57.7824 156.466L57.7824 156.466Z" fill="#FFBB00"/>
</g>
<path d="M333.414 26.4749C324 29.6534 316.663 32.836 317.71 46.6165C327.124 44.4961 335.507 39.1971 333.414 26.4749ZM303.516 45.6094C294.452 45.6094 281.36 53.6661 281.36 68.7723C281.36 89.921 295.459 111.07 303.516 111.07C309.558 111.07 314.594 107.041 318.622 107.041C322.651 107.041 326.679 111.07 332.721 111.07C340.778 111.07 349.842 98.9848 351.856 87.9069C344.806 82.8715 339.771 79.8502 339.771 70.7865C339.771 64.744 344.806 58.7015 350.849 53.6661C347.828 49.6378 341.785 45.6094 335.743 45.6094C329.7 45.6094 323.201 50.3891 318.622 50.6448C314.594 50.6448 309.558 45.6094 303.516 45.6094Z" fill="#E1E7FF"/>
<defs>
<clipPath id="clip0_702_6">
<rect width="324.447" height="258" fill="white"/>
</clipPath>
<clipPath id="clip1_702_6">
<rect width="74.2334" height="73.7143" fill="white" transform="translate(53.9879 78.9053)"/>
</clipPath>
</defs>
</svg>
