<svg width="65" height="65" viewBox="0 0 65 65" fill="none" xmlns="http://www.w3.org/2000/svg">
<rect width="65" height="65" fill="white"/>
<path d="M33.4432 60.9395C26.8083 60.9395 9 42.6815 9 33.8714V12.5946C9.00316 11.7726 9.27541 10.9738 9.77598 10.3178C10.2765 9.66176 10.9785 9.18388 11.7766 8.95574L32.3988 3.14532C33.0813 2.95156 33.8051 2.95156 34.4876 3.14532L55.1083 8.95574C55.9067 9.18361 56.609 9.66138 57.1098 10.3174C57.6107 10.9735 57.8832 11.7725 57.8864 12.5946V33.8714C57.8864 42.6815 40.0781 60.9395 33.4432 60.9395ZM33.4432 4.10487C33.1909 4.10504 32.9399 4.13982 32.6972 4.2082L12.0824 10.0201C11.518 10.1818 11.0217 10.52 10.6677 10.9841C10.3138 11.4482 10.1213 12.0132 10.119 12.5946V33.8714C10.119 37.5325 13.7505 43.6927 19.5961 49.9475C25.0329 55.7668 30.7278 59.8382 33.4432 59.8382C36.1586 59.8382 41.8535 55.7727 47.2903 49.9475C53.1359 43.6927 56.7674 37.5325 56.7674 33.8714V12.5946C56.7653 12.013 56.5726 11.4477 56.2184 10.9835C55.8641 10.5193 55.3673 10.1813 54.8025 10.0201L34.1892 4.21706C33.947 4.14597 33.6959 4.10871 33.4432 4.10634V4.10487Z" fill="#0F3384" stroke="#0F3384" stroke-width="0.2"/>
<path d="M32.9084 39.9771C32.5463 39.9768 32.1884 39.9002 31.8586 39.7523C31.5288 39.6044 31.2346 39.3886 30.9957 39.1194L24.789 32.1177C24.3446 31.6156 24.1198 30.9595 24.164 30.2935C24.2082 29.6276 24.5178 29.0062 25.0247 28.5659C25.5343 28.1293 26.1959 27.9068 26.8688 27.9459C27.2024 27.9662 27.5285 28.052 27.8282 28.1982C28.1279 28.3444 28.3951 28.5482 28.6144 28.7977L32.5712 33.2588L40.525 20.7301C40.8839 20.1648 41.4551 19.7636 42.1129 19.615C42.7707 19.4663 43.4612 19.5823 44.0326 19.9374C44.604 20.2925 45.0094 20.8576 45.1597 21.5085C45.3099 22.1594 45.1927 22.8426 44.8338 23.408L35.0643 38.7976C34.8526 39.129 34.566 39.4073 34.2271 39.6104C33.8882 39.8136 33.5062 39.9361 33.1113 39.9683C33.0427 39.9742 32.9755 39.9771 32.9084 39.9771ZM26.7002 29.0531C26.3387 29.0538 25.9909 29.1903 25.7273 29.435C25.4636 29.6797 25.3037 30.0144 25.2799 30.3713C25.2675 30.5563 25.2922 30.7418 25.3523 30.9173C25.4125 31.0929 25.507 31.255 25.6305 31.3944L31.8386 38.3961C31.9723 38.5466 32.1368 38.6672 32.3213 38.75C32.5057 38.8327 32.7059 38.8756 32.9084 38.8759H33.0233C33.2443 38.8583 33.4582 38.79 33.6481 38.6765C33.8379 38.563 33.9984 38.4074 34.1169 38.2219L43.8864 22.8175C44.0788 22.501 44.1381 22.1224 44.0515 21.7631C43.965 21.4039 43.7396 21.0924 43.4236 20.8958C43.1077 20.6991 42.7264 20.6328 42.3616 20.7111C41.9968 20.7894 41.6775 21.0061 41.4724 21.3147L33.1173 34.4752C33.0711 34.5482 33.0084 34.6094 32.934 34.654C32.8596 34.6986 32.7758 34.7254 32.6891 34.7321C32.6017 34.7401 32.5137 34.7273 32.4325 34.6947C32.3512 34.662 32.279 34.6106 32.2221 34.5446L27.7715 29.5255C27.6486 29.3859 27.499 29.2718 27.3312 29.19C27.1635 29.1081 26.9809 29.0601 26.7942 29.0486L26.7002 29.0531Z" fill="#0F3384"/>
</svg>
