<svg width="65" height="65" viewBox="0 0 65 65" fill="none" xmlns="http://www.w3.org/2000/svg">
<rect width="65" height="65" fill="white"/>
<path d="M33.1304 56.0491C32.9812 56.0491 32.8381 55.9898 32.7326 55.8843C32.6271 55.7788 32.5679 55.6357 32.5679 55.4866V50.6326C32.5679 50.4834 32.6271 50.3403 32.7326 50.2348C32.8381 50.1293 32.9812 50.0701 33.1304 50.0701C33.2796 50.0701 33.4226 50.1293 33.5281 50.2348C33.6336 50.3403 33.6929 50.4834 33.6929 50.6326V55.4866C33.6931 55.5605 33.6787 55.6337 33.6505 55.7021C33.6223 55.7704 33.5808 55.8325 33.5286 55.8848C33.4763 55.937 33.4142 55.9785 33.3459 56.0067C33.2775 56.0348 33.2043 56.0493 33.1304 56.0491Z" fill="#0F3384"/>
<path d="M33.1303 56.0491C33.0904 56.049 33.0506 56.0444 33.0117 56.0356L7.44275 50.5336C7.31733 50.5065 7.20499 50.4372 7.12447 50.3373C7.04394 50.2374 7.0001 50.1129 7.00025 49.9846V14.6986C6.99982 14.6145 7.01833 14.5315 7.0544 14.4556C7.09047 14.3797 7.14317 14.3129 7.20859 14.2601C7.27402 14.2074 7.35048 14.1701 7.43231 14.1509C7.51413 14.1318 7.59922 14.1313 7.68125 14.1496L33.1303 19.6261L58.5792 14.1496C58.6613 14.132 58.7463 14.1328 58.828 14.152C58.9097 14.1712 58.9861 14.2083 59.0517 14.2606C59.1171 14.3133 59.1697 14.3801 59.2058 14.4559C59.2419 14.5317 59.2605 14.6146 59.2602 14.6986V49.9846C59.26 50.1139 59.2151 50.2393 59.1331 50.3393C59.0511 50.4394 58.9371 50.508 58.8102 50.5336L33.2502 56.0356C33.2109 56.0445 33.1706 56.049 33.1303 56.0491ZM8.12525 49.5301L33.1303 54.9106L58.1352 49.5301V15.3946L33.2502 20.7511C33.1716 20.7676 33.0904 20.7676 33.0117 20.7511L8.12525 15.3946V49.5301Z" fill="#0F3384"/>
<path d="M33.1304 25.4519C32.9812 25.4519 32.8381 25.3927 32.7326 25.2872C32.6271 25.1817 32.5679 25.0386 32.5679 24.8894V20.2004C32.5679 20.0513 32.6271 19.9082 32.7326 19.8027C32.8381 19.6972 32.9812 19.6379 33.1304 19.6379C33.2796 19.6379 33.4226 19.6972 33.5281 19.8027C33.6336 19.9082 33.6929 20.0513 33.6929 20.2004V24.8894C33.6931 24.9634 33.6787 25.0366 33.6505 25.1049C33.6223 25.1733 33.5808 25.2354 33.5286 25.2876C33.4763 25.3399 33.4142 25.3813 33.3459 25.4095C33.2775 25.4377 33.2043 25.4521 33.1304 25.4519Z" fill="#0F3384"/>
<path d="M33.1303 20.763C33.0905 20.7634 33.0508 20.7594 33.0118 20.751L7.44284 15.249C7.31841 15.2219 7.20686 15.1534 7.12642 15.0547C7.04599 14.956 7.00143 14.8329 7.00003 14.7056C6.99864 14.5782 7.04049 14.4542 7.11875 14.3537C7.19701 14.2533 7.30704 14.1823 7.43084 14.1525L32.9998 8.01453C33.0863 7.99516 33.1759 7.99516 33.2623 8.01453L58.8298 14.1525C58.9536 14.1823 59.0637 14.2533 59.1419 14.3537C59.2202 14.4542 59.262 14.5782 59.2606 14.7056C59.2593 14.8329 59.2147 14.956 59.1343 15.0547C59.0538 15.1534 58.9423 15.2219 58.8178 15.249L33.2503 20.751C33.2109 20.7595 33.1707 20.7635 33.1303 20.763ZM10.0963 14.67L33.1303 19.626L56.1643 14.676L33.1303 9.13953L10.0963 14.67Z" fill="#0F3384"/>
<path d="M33.6583 48.7304H32.1583C31.3378 48.7304 30.6913 47.5544 30.2683 46.4609C29.737 46.297 29.2222 46.0836 28.7308 45.8234C27.6568 46.2989 26.3698 46.6724 25.7878 46.0934L24.7378 45.0344C24.1588 44.4554 24.5323 43.1669 25.0048 42.0944C24.7521 41.6142 24.5433 41.1121 24.3808 40.5944L23.7553 40.4444H23.7313C23.2831 40.4141 22.8638 40.2126 22.5601 39.8818C22.2563 39.5509 22.0913 39.116 22.0993 38.6669V37.1669C22.0993 36.3479 23.2753 35.6999 24.3688 35.2769C24.5323 34.7457 24.7452 34.2309 25.0048 33.7394C24.5323 32.6669 24.1588 31.3769 24.7378 30.7964L25.7878 29.7464C26.3698 29.1689 27.6553 29.5409 28.7293 30.0149C29.2215 29.7554 29.7367 29.542 30.2683 29.3774C30.6913 28.2854 31.3378 27.1079 32.1583 27.1079H33.6583C34.4788 27.1079 35.1253 28.2839 35.5483 29.3774C36.0804 29.5405 36.5957 29.754 37.0873 30.0149C38.1613 29.5424 39.4468 29.1704 40.0288 29.7464L41.0788 30.7964C41.6578 31.3769 41.2843 32.6654 40.8118 33.7379C41.0713 34.2302 41.2847 34.7454 41.4493 35.2769C42.5413 35.6999 43.7173 36.3479 43.7173 37.1669V38.6669C43.7173 39.4874 42.5413 40.1354 41.4478 40.5584C41.2843 41.0897 41.0713 41.6044 40.8118 42.0959C41.2843 43.1684 41.6578 44.4569 41.0788 45.0374L40.0288 46.0874C39.4468 46.6694 38.1583 46.2944 37.0873 45.8189C36.5955 46.0793 36.0802 46.2928 35.5483 46.4564C35.1253 47.5544 34.4803 48.7304 33.6583 48.7304ZM28.7593 44.6339C28.8576 44.6335 28.9543 44.6589 29.0398 44.7074C29.6094 45.0324 30.2177 45.2844 30.8503 45.4574C30.9376 45.4809 31.0179 45.5253 31.0843 45.5867C31.1506 45.6481 31.2011 45.7247 31.2313 45.8099C31.4284 46.4799 31.7693 47.0988 32.2303 47.6234L33.6523 47.6099C34.0602 47.0653 34.3754 46.4571 34.5853 45.8099C34.6155 45.7247 34.6659 45.6481 34.7323 45.5867C34.7987 45.5253 34.879 45.4809 34.9663 45.4574C35.5994 45.2846 36.2082 45.0326 36.7783 44.7074C36.8568 44.6627 36.9449 44.6375 37.0352 44.6338C37.1255 44.6301 37.2154 44.6482 37.2973 44.6864C37.9123 45.0153 38.5904 45.2096 39.2863 45.2564L40.2823 44.2409C40.1867 43.5683 39.981 42.9161 39.6733 42.3104C39.6352 42.2285 39.6172 42.1386 39.6208 42.0484C39.6245 41.9581 39.6497 41.87 39.6943 41.7914C40.0195 41.2219 40.2715 40.6136 40.4443 39.9809C40.4682 39.894 40.5125 39.8141 40.5736 39.7479C40.6346 39.6816 40.7106 39.6309 40.7953 39.5999C41.4553 39.3962 42.0675 39.0616 42.5953 38.6159V37.1714C42.0509 36.7632 41.4427 36.4479 40.7953 36.2384C40.7107 36.2078 40.6347 36.1574 40.5736 36.0914C40.5125 36.0253 40.4682 35.9456 40.4443 35.8589C40.2722 35.2255 40.0202 34.6166 39.6943 34.0469C39.6498 33.9673 39.6251 33.8782 39.6225 33.787C39.6199 33.6958 39.6394 33.6054 39.6793 33.5234C40.0102 32.9087 40.2041 32.2297 40.2478 31.5329L39.2323 30.5369C38.5595 30.6303 37.9073 30.8367 37.3033 31.1474C37.2213 31.1853 37.1315 31.2031 37.0412 31.1995C36.951 31.1958 36.8629 31.1708 36.7843 31.1264C36.2145 30.8007 35.6056 30.5487 34.9723 30.3764C34.8851 30.3527 34.8049 30.3082 34.7386 30.2469C34.6722 30.1855 34.6217 30.109 34.5913 30.0239C34.3918 29.355 34.0488 28.7377 33.5863 28.2149L32.1643 28.2284C31.7564 28.773 31.4412 29.3812 31.2313 30.0284C31.2008 30.1132 31.1504 30.1895 31.0844 30.2508C31.0184 30.3121 30.9386 30.3567 30.8518 30.3809C30.218 30.5532 29.6086 30.8053 29.0383 31.1309C28.9597 31.1755 28.8716 31.2007 28.7813 31.2043C28.691 31.208 28.6012 31.19 28.5193 31.1519C27.9054 30.82 27.2267 30.6255 26.5303 30.5819L25.5343 31.5974C25.6297 32.2686 25.8355 32.9194 26.1433 33.5234C26.1814 33.6053 26.1994 33.6952 26.1957 33.7855C26.192 33.8757 26.1669 33.9638 26.1223 34.0424C25.7968 34.6118 25.5448 35.2202 25.3723 35.8529C25.3486 35.9399 25.3043 36.0199 25.2432 36.0862C25.1822 36.1525 25.106 36.2032 25.0213 36.2339C24.3525 36.4347 23.7349 36.7775 23.2108 37.2389L23.2243 38.6609C23.2247 38.8378 23.2951 39.0074 23.4202 39.1325C23.5453 39.2576 23.7149 39.328 23.8918 39.3284L24.9658 39.5774C25.0626 39.6023 25.1512 39.6523 25.2226 39.7223C25.294 39.7924 25.3456 39.88 25.3723 39.9764C25.5451 40.6091 25.7971 41.2174 26.1223 41.7869C26.1669 41.8655 26.192 41.9536 26.1957 42.0439C26.1994 42.1341 26.1814 42.224 26.1433 42.3059C25.8124 42.9201 25.6185 43.5987 25.5748 44.2949L26.5903 45.2939C27.2614 45.1904 27.9126 44.984 28.5208 44.6819C28.5958 44.6485 28.6772 44.6321 28.7593 44.6339Z" fill="#0F3384"/>
<path d="M32.9114 42.5998C31.9854 42.5998 31.0803 42.3253 30.3105 41.8108C29.5406 41.2964 28.9406 40.5653 28.5862 39.7099C28.2319 38.8544 28.1392 37.9131 28.3198 37.005C28.5005 36.0969 28.9463 35.2627 29.601 34.608C30.2558 33.9533 31.0899 33.5074 31.998 33.3268C32.9062 33.1461 33.8475 33.2388 34.7029 33.5932C35.5583 33.9475 36.2895 34.5475 36.8039 35.3174C37.3183 36.0873 37.5929 36.9924 37.5929 37.9183C37.5917 39.1596 37.0981 40.3496 36.2204 41.2273C35.3427 42.105 34.1526 42.5986 32.9114 42.5998ZM32.9114 34.3633C32.2079 34.3633 31.5202 34.5719 30.9353 34.9628C30.3504 35.3537 29.8946 35.9092 29.6254 36.5592C29.3563 37.2091 29.286 37.9243 29.4233 38.6142C29.5607 39.3041 29.8995 39.9378 30.3971 40.4352C30.8946 40.9325 31.5285 41.2711 32.2184 41.4082C32.9084 41.5452 33.6236 41.4746 34.2734 41.2052C34.9233 40.9358 35.4786 40.4797 35.8692 39.8946C36.2598 39.3096 36.4682 38.6218 36.4679 37.9183C36.4671 36.9755 36.0921 36.0715 35.4252 35.4049C34.7584 34.7383 33.8542 34.3637 32.9114 34.3633Z" fill="#0F3384"/>
</svg>
