<svg width="65" height="65" viewBox="0 0 65 65" fill="none" xmlns="http://www.w3.org/2000/svg">
<rect width="65" height="65" fill="white"/>
<path d="M32.7123 55.923C30.4633 55.9252 28.2264 55.5936 26.0748 54.939C25.9375 54.8912 25.8241 54.7922 25.7582 54.6626C25.6924 54.5331 25.6792 54.3831 25.7215 54.2441C25.7637 54.1051 25.8582 53.9878 25.985 53.9168C26.1118 53.8459 26.2612 53.8268 26.4018 53.8635C29.955 54.9391 33.724 55.0899 37.3518 54.3015C37.4976 54.2696 37.65 54.297 37.7757 54.3776C37.9013 54.4582 37.9897 54.5854 38.0215 54.7312C38.0533 54.877 38.026 55.0295 37.9454 55.1551C37.8648 55.2807 37.7376 55.3691 37.5918 55.401C35.9886 55.7489 34.3528 55.9239 32.7123 55.923Z" fill="#0F3384"/>
<path d="M54.9558 34.1865H54.9408C54.8669 34.1845 54.7941 34.168 54.7266 34.138C54.6591 34.1079 54.5982 34.0648 54.5474 34.0112C54.4965 33.9575 54.4568 33.8944 54.4303 33.8254C54.4039 33.7564 54.3913 33.6828 54.3933 33.609C54.4854 30.4397 53.8818 27.2887 52.6248 24.3779C51.3679 21.4671 49.4883 18.8671 47.1183 16.761C47.0067 16.6615 46.9392 16.5218 46.9306 16.3726C46.922 16.2233 46.9731 16.0768 47.0725 15.9652C47.172 15.8536 47.3117 15.7861 47.4609 15.7775C47.6102 15.769 47.7567 15.82 47.8683 15.9195C50.3605 18.1348 52.3369 20.8694 53.6586 23.9308C54.9802 26.9921 55.615 30.3059 55.5183 33.639C55.514 33.7854 55.4529 33.9244 55.3479 34.0266C55.2429 34.1288 55.1023 34.1861 54.9558 34.1865Z" fill="#0F3384"/>
<path d="M10.3323 34.1865C10.1856 34.1869 10.0445 34.1298 9.93939 34.0275C9.83424 33.9251 9.77337 33.7857 9.76984 33.639C9.67319 30.3058 10.3082 26.9919 11.6301 23.9305C12.9521 20.8691 14.9288 18.1346 17.4213 15.9195C17.5329 15.82 17.6795 15.769 17.8287 15.7775C17.9779 15.7861 18.1176 15.8536 18.2171 15.9652C18.3166 16.0768 18.3676 16.2233 18.359 16.3726C18.3504 16.5218 18.2829 16.6615 18.1713 16.761C15.8007 18.8667 13.9206 21.4666 12.6634 24.3775C11.4062 27.2884 10.8025 30.4395 10.8948 33.609C10.8981 33.7582 10.8422 33.9027 10.7393 34.0108C10.6365 34.119 10.495 34.1822 10.3458 34.1865H10.3323Z" fill="#0F3384"/>
<path d="M18.0229 19.8871C17.9994 19.8886 17.9758 19.8886 17.9524 19.8871C17.8043 19.8683 17.6697 19.7917 17.578 19.6739C17.4863 19.5561 17.4451 19.4067 17.4634 19.2586L17.8789 15.9976L14.9629 16.9171C14.8209 16.962 14.6668 16.9487 14.5346 16.8801C14.4691 16.8461 14.411 16.7996 14.3635 16.7431C14.316 16.6866 14.2801 16.6214 14.2579 16.5511C14.2356 16.4808 14.2274 16.4067 14.2338 16.3332C14.2401 16.2598 14.2609 16.1882 14.2949 16.1228C14.3635 15.9906 14.4819 15.891 14.6239 15.8461L18.0169 14.7751C18.1456 14.7341 18.2826 14.7263 18.4152 14.7524C18.5478 14.7784 18.6717 14.8374 18.7755 14.9239C18.8792 15.0105 18.9595 15.1218 19.0088 15.2476C19.0582 15.3734 19.0751 15.5096 19.0579 15.6436L18.5809 19.3936C18.5634 19.5295 18.4972 19.6544 18.3946 19.7452C18.292 19.836 18.1599 19.8864 18.0229 19.8871Z" fill="#0F3384"/>
<path d="M55.1462 35.3476C55.0171 35.3479 54.8899 35.3171 54.7753 35.2578C54.6607 35.1985 54.5621 35.1126 54.4877 35.0071L52.3157 31.9036C52.2733 31.8431 52.2433 31.7747 52.2274 31.7026C52.2114 31.6304 52.2098 31.5558 52.2227 31.483C52.2356 31.4102 52.2627 31.3407 52.3025 31.2784C52.3422 31.2161 52.3938 31.1622 52.4544 31.1199C52.515 31.0775 52.5833 31.0475 52.6555 31.0316C52.7276 31.0156 52.8023 31.014 52.875 31.0269C52.9478 31.0398 53.0173 31.0669 53.0796 31.1067C53.142 31.1464 53.1958 31.1981 53.2382 31.2586L55.1222 33.9496L56.6627 31.3096C56.7407 31.1859 56.8637 31.0974 57.0058 31.0627C57.1478 31.0279 57.2978 31.0498 57.4241 31.1235C57.5504 31.1972 57.6431 31.3172 57.6827 31.458C57.7222 31.5987 57.7056 31.7494 57.6362 31.8781L55.8362 34.9486C55.7688 35.0655 55.673 35.1634 55.5576 35.2332C55.4422 35.3029 55.3109 35.3423 55.1762 35.3476H55.1462Z" fill="#0F3384"/>
<path d="M42.3498 13.4009H33.3948C33.2456 13.4009 33.1025 13.3416 32.997 13.2362C32.8915 13.1307 32.8323 12.9876 32.8323 12.8384C32.8323 12.6892 32.8915 12.5461 32.997 12.4407C33.1025 12.3352 33.2456 12.2759 33.3948 12.2759H42.3498C42.6098 12.2659 42.8558 12.1555 43.0362 11.968C43.2166 11.7805 43.3174 11.5304 43.3174 11.2702C43.3174 11.0099 43.2166 10.7598 43.0362 10.5723C42.8558 10.3848 42.6098 10.2744 42.3498 10.2644H38.8698C38.7206 10.2644 38.5775 10.2051 38.472 10.0997C38.3665 9.99416 38.3073 9.85109 38.3073 9.7019C38.3073 9.55272 38.3665 9.40965 38.472 9.30416C38.5775 9.19867 38.7206 9.1394 38.8698 9.1394H42.3498C42.9051 9.15414 43.4327 9.38509 43.8203 9.78308C44.2079 10.1811 44.4247 10.7146 44.4247 11.2702C44.4247 11.8257 44.2079 12.3592 43.8203 12.7572C43.4327 13.1552 42.9051 13.3862 42.3498 13.4009Z" fill="#0F3384"/>
<path d="M42.3498 16.5359H33.3948C33.2456 16.5359 33.1025 16.4766 32.997 16.3711C32.8915 16.2656 32.8323 16.1226 32.8323 15.9734C32.8323 15.8242 32.8915 15.6811 32.997 15.5756C33.1025 15.4701 33.2456 15.4109 33.3948 15.4109H42.3498C42.6163 15.4109 42.8719 15.305 43.0604 15.1165C43.2489 14.928 43.3548 14.6724 43.3548 14.4059C43.3548 14.1393 43.2489 13.8837 43.0604 13.6952C42.8719 13.5068 42.6163 13.4009 42.3498 13.4009H33.3948C33.2456 13.4009 33.1025 13.3416 32.997 13.2361C32.8915 13.1306 32.8323 12.9876 32.8323 12.8384C32.8323 12.6892 32.8915 12.5461 32.997 12.4406C33.1025 12.3351 33.2456 12.2759 33.3948 12.2759H42.3498C42.9147 12.2759 43.4565 12.5003 43.8559 12.8997C44.2554 13.2992 44.4798 13.841 44.4798 14.4059C44.4798 14.9708 44.2554 15.5126 43.8559 15.912C43.4565 16.3115 42.9147 16.5359 42.3498 16.5359Z" fill="#0F3384"/>
<path d="M34.5947 24.5985C34.3548 24.5983 34.1161 24.5655 33.8852 24.501C25.2542 22.137 20.8787 18.762 20.8787 14.487V11.187C20.8803 9.81155 21.4275 8.49291 22.4002 7.52046C23.3729 6.54801 24.6917 6.00119 26.0672 6H38.8697C39.4346 6 39.9763 6.22441 40.3758 6.62386C40.7752 7.02332 40.9997 7.56509 40.9997 8.13C40.9997 8.69491 40.7752 9.23669 40.3758 9.63614C39.9763 10.0356 39.4346 10.26 38.8697 10.26H33.3947C33.2455 10.26 33.1024 10.2007 32.9969 10.0952C32.8914 9.98976 32.8322 9.84668 32.8322 9.6975C32.8322 9.54832 32.8914 9.40524 32.9969 9.29975C33.1024 9.19426 33.2455 9.135 33.3947 9.135H38.8697C39.1362 9.135 39.3918 9.02912 39.5803 8.84064C39.7688 8.65217 39.8747 8.39654 39.8747 8.13C39.8747 7.86346 39.7688 7.60783 39.5803 7.41936C39.3918 7.23088 39.1362 7.125 38.8697 7.125H26.0672C24.9901 7.12619 23.9574 7.55448 23.1957 8.31596C22.4339 9.07743 22.0052 10.1099 22.0037 11.187V14.487C22.0037 17.037 24.1172 20.6565 34.1837 23.4195C34.5373 23.5228 34.9172 23.484 35.2427 23.3115C35.5202 23.1615 35.5577 22.9995 35.5577 22.8615C35.5313 22.644 35.4242 22.4443 35.2577 22.302C35.113 22.1679 34.9473 22.0584 34.7672 21.978L29.7347 19.644C29.6377 19.5985 29.5556 19.5265 29.498 19.4362C29.4403 19.3459 29.4095 19.2411 29.4092 19.134C29.4083 18.9822 29.4665 18.8359 29.5714 18.7262C29.6764 18.6165 29.8199 18.5518 29.9717 18.546H40.3217C40.457 18.5512 40.592 18.5291 40.7186 18.4809C40.8452 18.4327 40.9607 18.3595 41.0583 18.2656C41.1559 18.1717 41.2336 18.059 41.2866 17.9344C41.3397 17.8097 41.367 17.6757 41.367 17.5403C41.367 17.4048 41.3397 17.2708 41.2866 17.1461C41.2336 17.0215 41.1559 16.9089 41.0583 16.8149C40.9607 16.721 40.8452 16.6478 40.7186 16.5996C40.592 16.5514 40.457 16.5293 40.3217 16.5345H33.3947C33.2455 16.5345 33.1024 16.4752 32.9969 16.3697C32.8914 16.2643 32.8322 16.1212 32.8322 15.972C32.8322 15.8228 32.8914 15.6797 32.9969 15.5743C33.1024 15.4688 33.2455 15.4095 33.3947 15.4095H40.3112C40.5957 15.4019 40.8789 15.4515 41.144 15.5552C41.4092 15.6588 41.6508 15.8146 41.8548 16.0132C42.0587 16.2118 42.2208 16.4492 42.3315 16.7115C42.4422 16.9738 42.4992 17.2556 42.4992 17.5403C42.4992 17.8249 42.4422 18.1067 42.3315 18.369C42.2208 18.6313 42.0587 18.8687 41.8548 19.0673C41.6508 19.2659 41.4092 19.4217 41.144 19.5253C40.8789 19.629 40.5957 19.6786 40.3112 19.671H32.4617L35.2337 20.9595C35.5303 21.0905 35.8019 21.2722 36.0362 21.4965C36.2307 21.6684 36.3884 21.878 36.4995 22.1126C36.6106 22.3473 36.6729 22.6021 36.6827 22.8615C36.6808 23.1583 36.5966 23.4487 36.4396 23.7005C36.2826 23.9524 36.0588 24.1557 35.7932 24.288C35.4272 24.4934 35.0143 24.6004 34.5947 24.5985Z" fill="#0F3384"/>
<path d="M32.7949 18.0945C32.7405 18.0946 32.6864 18.0865 32.6344 18.0705C32.4915 18.0275 32.3716 17.9296 32.3007 17.7984C32.2299 17.6671 32.2139 17.5131 32.2564 17.37C32.9578 14.4743 32.9526 11.4524 32.2414 8.55904C32.208 8.41509 32.2325 8.26376 32.3098 8.13779C32.3871 8.01181 32.5108 7.9213 32.6543 7.88583C32.7978 7.85036 32.9494 7.87277 33.0765 7.94822C33.2036 8.02367 33.2958 8.1461 33.3334 8.28904C34.1045 11.3761 34.1045 14.6055 33.3334 17.6925C33.2984 17.8083 33.2272 17.9099 33.1303 17.9822C33.0334 18.0546 32.9158 18.0939 32.7949 18.0945Z" fill="#0F3384"/>
<path d="M44.6599 58.1369C44.2389 58.1359 43.8276 58.0102 43.4779 57.7756C43.1283 57.5411 42.856 57.2081 42.6955 56.8189C42.535 56.4297 42.4935 56.0016 42.5761 55.5887C42.6588 55.1759 42.8619 54.7968 43.1599 54.4994L49.4914 48.1664C49.5972 48.0611 49.7405 48.0023 49.8897 48.0027C50.039 48.0031 50.1819 48.0628 50.2871 48.1686C50.3924 48.2744 50.4512 48.4177 50.4508 48.567C50.4504 48.7162 50.3907 48.8591 50.2849 48.9644L43.9519 55.2959C43.7633 55.4844 43.6574 55.7402 43.6574 56.0069C43.6574 56.2735 43.7633 56.5293 43.9519 56.7179C44.1405 56.9064 44.3962 57.0124 44.6629 57.0124C44.9296 57.0124 45.1853 56.9064 45.3739 56.7179L47.8354 54.2564C47.9418 54.1568 48.0828 54.1024 48.2285 54.1047C48.3742 54.107 48.5134 54.1658 48.6167 54.2687C48.7199 54.3715 48.7792 54.5105 48.7821 54.6562C48.7849 54.8019 48.7311 54.943 48.6319 55.0499L46.1704 57.5129C45.9723 57.7114 45.7368 57.8687 45.4775 57.9758C45.2183 58.0829 44.9404 58.1377 44.6599 58.1369Z" fill="#0F3384"/>
<path d="M42.4414 55.9186C42.0206 55.9174 41.6097 55.7916 41.2604 55.5571C40.9111 55.3226 40.6391 54.9899 40.4786 54.6009C40.3182 54.212 40.2765 53.7843 40.3588 53.3717C40.4412 52.9591 40.6439 52.5801 40.9414 52.2826L47.2744 45.9496C47.38 45.844 47.5232 45.7847 47.6726 45.7847C47.822 45.7847 47.9652 45.844 48.0709 45.9496C48.1765 46.0552 48.2358 46.1985 48.2358 46.3479C48.2358 46.4973 48.1765 46.6405 48.0709 46.7461L41.7379 53.0791C41.5495 53.2673 41.4436 53.5226 41.4434 53.7888C41.4433 54.0551 41.5489 54.3105 41.7371 54.4989C41.9253 54.6872 42.1806 54.7932 42.4468 54.7933C42.7131 54.7934 42.9685 54.6878 43.1569 54.4996L49.4914 48.1666C49.5972 48.0612 49.7406 48.0021 49.8899 48.0024C50.0393 48.0027 50.1824 48.0623 50.2879 48.1681C50.3933 48.2739 50.4524 48.4173 50.4521 48.5667C50.4518 48.7161 50.3922 48.8592 50.2864 48.9646L43.9519 55.2961C43.754 55.495 43.5186 55.6525 43.2592 55.7593C42.9999 55.8662 42.7219 55.9204 42.4414 55.9186Z" fill="#0F3384"/>
<path d="M49.3412 57.8925C48.9202 57.8916 48.5089 57.7659 48.1593 57.5313C47.8096 57.2967 47.5374 56.9638 47.3769 56.5746C47.2164 56.1853 47.1748 55.7572 47.2575 55.3444C47.3401 54.9316 47.5433 54.5525 47.8412 54.255L51.7127 50.3835C51.8184 50.2779 51.9616 50.2186 52.111 50.2186C52.2604 50.2186 52.4036 50.2779 52.5092 50.3835C52.6149 50.4892 52.6742 50.6324 52.6742 50.7818C52.6742 50.9312 52.6149 51.0744 52.5092 51.18L48.6377 55.0515C48.4596 55.2419 48.3624 55.4942 48.3667 55.7549C48.3711 56.0156 48.4766 56.2644 48.661 56.4488C48.8453 56.6332 49.0942 56.7387 49.3549 56.743C49.6156 56.7474 49.8678 56.6502 50.0582 56.472L59.1107 47.4195C59.8722 46.6578 60.3 45.6248 60.3 44.5478C60.3 43.4707 59.8722 42.4378 59.1107 41.676L56.7827 39.3465C54.1667 36.7275 49.1417 37.5 41.8562 41.643C41.5322 41.8208 41.2901 42.1178 41.1812 42.471C41.1407 42.5591 41.128 42.6574 41.1449 42.7528C41.1618 42.8483 41.2074 42.9363 41.2757 43.005C41.4512 43.136 41.6678 43.1999 41.8862 43.185C42.0841 43.1791 42.2795 43.139 42.4637 43.0665L47.6717 41.16C47.7726 41.1236 47.8818 41.1164 47.9866 41.1392C48.0914 41.162 48.1876 41.214 48.2642 41.289C48.3712 41.3966 48.4327 41.5411 48.436 41.6927C48.4394 41.8443 48.3843 41.9914 48.2822 42.1035L40.9667 49.4205C40.8726 49.5133 40.7979 49.6239 40.7469 49.7458C40.6959 49.8678 40.6696 49.9986 40.6696 50.1308C40.6696 50.263 40.6959 50.3938 40.7469 50.5157C40.7979 50.6377 40.8726 50.7482 40.9667 50.841C41.1578 51.0243 41.4123 51.1266 41.677 51.1266C41.9417 51.1266 42.1962 51.0243 42.3872 50.841L47.2787 45.9495C47.331 45.8972 47.3931 45.8558 47.4615 45.8274C47.5298 45.7991 47.603 45.7846 47.677 45.7846C47.751 45.7846 47.8242 45.7991 47.8925 45.8274C47.9609 45.8558 48.0229 45.8972 48.0752 45.9495C48.1275 46.0018 48.169 46.0639 48.1973 46.1323C48.2256 46.2006 48.2402 46.2738 48.2402 46.3478C48.2402 46.4218 48.2256 46.495 48.1973 46.5633C48.169 46.6317 48.1275 46.6937 48.0752 46.746L43.1837 51.6375C42.9866 51.8387 42.7515 51.9988 42.4921 52.1086C42.2327 52.2184 41.9541 52.2756 41.6724 52.2771C41.3908 52.2786 41.1116 52.2242 40.8511 52.1171C40.5905 52.01 40.3538 51.8523 40.1546 51.6532C39.9554 51.4541 39.7976 51.2174 39.6904 50.957C39.5831 50.6965 39.5286 50.4173 39.5299 50.1357C39.5312 49.854 39.5884 49.5754 39.698 49.3159C39.8077 49.0564 39.9677 48.8213 40.1687 48.624L45.7187 43.074L42.8477 44.124C42.5448 44.24 42.2241 44.3029 41.8997 44.31C41.6398 44.3313 41.3784 44.2968 41.1329 44.2088C40.8874 44.1208 40.6635 43.9815 40.4762 43.8C40.2688 43.5887 40.1237 43.3243 40.0567 43.0359C39.9898 42.7474 40.0036 42.4461 40.0967 42.165C40.2843 41.5269 40.7153 40.9881 41.2967 40.665C49.0742 36.2415 54.5522 35.532 57.5762 38.5515L59.8997 40.887C60.8717 41.8604 61.4176 43.1797 61.4176 44.5553C61.4176 45.9308 60.8717 47.2502 59.8997 48.2235L50.8412 57.27C50.443 57.6674 49.9038 57.8911 49.3412 57.8925Z" fill="#0F3384"/>
<path d="M53.4288 51.825C53.3262 51.8247 53.2257 51.7967 53.1378 51.744C50.4089 50.1049 48.1261 47.8184 46.4913 45.087C46.4547 45.0219 46.4314 44.9501 46.4229 44.8759C46.4143 44.8018 46.4206 44.7266 46.4414 44.6549C46.4622 44.5832 46.4971 44.5163 46.544 44.4582C46.5909 44.4001 46.6489 44.3519 46.7147 44.3165C46.7804 44.281 46.8525 44.259 46.9268 44.2517C47.0011 44.2444 47.0762 44.252 47.1475 44.274C47.2189 44.296 47.2851 44.332 47.3424 44.3799C47.3997 44.4278 47.4469 44.4867 47.4813 44.553C49.0296 47.0982 51.1678 49.2333 53.7152 50.778C53.8234 50.8402 53.9079 50.9366 53.9552 51.0521C54.0026 51.1676 54.0102 51.2955 53.9769 51.4158C53.9435 51.5361 53.8711 51.6419 53.7711 51.7165C53.6711 51.7911 53.549 51.8303 53.4242 51.828L53.4288 51.825Z" fill="#0F3384"/>
<path d="M13.5363 47.4001C13.4624 47.4003 13.3892 47.3858 13.321 47.3575C13.2527 47.3291 13.1908 47.2875 13.1388 47.2351L6.80578 40.9036C6.7126 40.8103 6.60197 40.7363 6.4802 40.6858C6.35842 40.6353 6.22789 40.6092 6.09606 40.6092C5.96422 40.6091 5.83366 40.635 5.71183 40.6854C5.59001 40.7358 5.4793 40.8097 5.38603 40.9028C5.19766 41.091 5.09175 41.3463 5.09161 41.6126C5.09147 41.8788 5.1971 42.1342 5.38528 42.3226L7.84528 44.7871C7.89748 44.8394 7.93886 44.9015 7.96708 44.9697C7.99529 45.038 8.00978 45.1112 8.00971 45.1851C8.00964 45.259 7.99501 45.3322 7.96667 45.4004C7.93833 45.4686 7.89682 45.5306 7.84453 45.5828C7.79223 45.635 7.73016 45.6764 7.66186 45.7046C7.59357 45.7329 7.52039 45.7473 7.4465 45.7473C7.3726 45.7472 7.29945 45.7326 7.23121 45.7042C7.16297 45.6759 7.10098 45.6344 7.04878 45.5821L4.58728 43.1176C4.20381 42.7146 3.99311 42.1776 4.00017 41.6213C4.00723 41.065 4.23149 40.5336 4.62505 40.1404C5.01862 39.7472 5.55031 39.5235 6.10658 39.517C6.66285 39.5105 7.19962 39.7217 7.60228 40.1056L13.9413 46.4371C14.046 46.5432 14.1047 46.6863 14.1047 46.8353C14.1047 46.9844 14.046 47.1275 13.9413 47.2336C13.8885 47.2872 13.8254 47.3296 13.7558 47.3582C13.6862 47.3868 13.6115 47.4011 13.5363 47.4001Z" fill="#0F3384"/>
<path d="M13.5364 47.4C13.4625 47.4002 13.3893 47.3857 13.3211 47.3573C13.2528 47.329 13.1909 47.2874 13.1389 47.235L6.80587 40.9035C6.40632 40.5035 6.18188 39.9613 6.18188 39.396C6.18188 38.8306 6.40632 38.2884 6.80587 37.8885C7.21237 37.5021 7.75178 37.2866 8.31262 37.2866C8.87346 37.2866 9.41287 37.5021 9.81937 37.8885L16.1509 44.2215C16.2504 44.3279 16.3048 44.4689 16.3025 44.6146C16.3002 44.7603 16.2414 44.8995 16.1386 45.0027C16.0357 45.106 15.8968 45.1653 15.751 45.1681C15.6053 45.171 15.4642 45.1171 15.3574 45.018L9.02287 38.685C8.83246 38.5068 8.58026 38.4096 8.31953 38.414C8.05881 38.4183 7.80997 38.5238 7.62559 38.7082C7.4412 38.8926 7.3357 39.1414 7.33137 39.4021C7.32703 39.6629 7.42421 39.9151 7.60237 40.1055L13.9414 46.437C14.0461 46.5431 14.1048 46.6862 14.1048 46.8352C14.1048 46.9843 14.0461 47.1274 13.9414 47.2335C13.8886 47.2871 13.8255 47.3295 13.7559 47.3581C13.6863 47.3867 13.6116 47.401 13.5364 47.4Z" fill="#0F3384"/>
<path d="M17.5532 58.3665C16.8721 58.3678 16.1975 58.2345 15.5681 57.9743C14.9387 57.714 14.367 57.332 13.8857 56.85L4.8332 47.7975C4.62697 47.6017 4.46205 47.3665 4.34817 47.1059C4.23428 46.8454 4.17373 46.5646 4.1701 46.2802C4.16646 45.9959 4.2198 45.7136 4.32698 45.4502C4.43417 45.1868 4.59301 44.9475 4.79416 44.7465C4.9953 44.5454 5.23467 44.3867 5.49815 44.2796C5.76162 44.1726 6.04387 44.1194 6.32823 44.1232C6.6126 44.1269 6.89333 44.1876 7.15386 44.3016C7.4144 44.4157 7.64947 44.5807 7.8452 44.787L11.7167 48.657C11.8223 48.7626 11.8817 48.9059 11.8817 49.0553C11.8817 49.2046 11.8223 49.3479 11.7167 49.4535C11.6111 49.5591 11.4678 49.6185 11.3184 49.6185C11.1691 49.6185 11.0258 49.5591 10.9202 49.4535L7.0487 45.582C6.85808 45.3985 6.60378 45.296 6.3392 45.296C6.07461 45.296 5.82031 45.3985 5.6297 45.582C5.536 45.6749 5.46162 45.7854 5.41087 45.9072C5.36011 46.029 5.33398 46.1596 5.33398 46.2915C5.33398 46.4235 5.36011 46.5541 5.41087 46.6759C5.46162 46.7976 5.536 46.9081 5.6297 47.001L14.6807 56.0535C15.0579 56.4308 15.5057 56.73 15.9986 56.9342C16.4915 57.1384 17.0197 57.2435 17.5532 57.2435C18.0867 57.2435 18.6149 57.1384 19.1078 56.9342C19.6007 56.73 20.0485 56.4308 20.4257 56.0535L22.7537 53.7255C24.5537 51.9255 25.6232 47.8755 20.4587 38.799C20.2816 38.4762 19.9857 38.2351 19.6337 38.127C19.5455 38.0849 19.4463 38.071 19.3499 38.0874C19.2535 38.1038 19.1646 38.1496 19.0952 38.2185C18.9602 38.3931 18.8959 38.6122 18.9152 38.832C18.9235 39.0288 18.964 39.2229 19.0352 39.4065L20.9417 44.6145C20.9779 44.7156 20.9849 44.8248 20.9618 44.9296C20.9387 45.0344 20.8865 45.1306 20.8112 45.207C20.7042 45.3151 20.5593 45.3773 20.4073 45.3804C20.2552 45.3834 20.108 45.3272 19.9967 45.2235L12.6812 37.9095C12.5891 37.8111 12.4782 37.7322 12.3549 37.6775C12.2317 37.6229 12.0988 37.5935 11.964 37.5913C11.8293 37.5891 11.6954 37.614 11.5705 37.6645C11.4455 37.715 11.332 37.7902 11.2367 37.8855C11.1414 37.9808 11.0662 38.0943 11.0157 38.2193C10.9651 38.3442 10.9402 38.4781 10.9425 38.6129C10.9447 38.7476 10.974 38.8806 11.0287 39.0038C11.0834 39.127 11.1623 39.2379 11.2607 39.33L16.1507 44.2215C16.2503 44.328 16.3046 44.4689 16.3023 44.6146C16.3 44.7604 16.2413 44.8995 16.1384 45.0028C16.0355 45.106 15.8966 45.1653 15.7509 45.1682C15.6052 45.171 15.464 45.1172 15.3572 45.018L10.4642 40.1265C10.0654 39.7262 9.84145 39.1841 9.84145 38.619C9.84145 38.0539 10.0654 37.5119 10.4642 37.1115C10.8709 36.725 11.4106 36.5095 11.9717 36.5095C12.5328 36.5095 13.0724 36.725 13.4792 37.1115L19.0292 42.6615L17.9792 39.789C17.8648 39.4866 17.8014 39.1672 17.7917 38.844C17.776 38.5845 17.813 38.3245 17.9004 38.0796C17.9878 37.8347 18.1238 37.61 18.3002 37.419C18.5118 37.2107 18.777 37.0649 19.0664 36.9979C19.3558 36.931 19.658 36.9453 19.9397 37.0395C20.5784 37.2261 21.1175 37.6574 21.4397 38.2395C25.8662 46.017 26.5787 51.4935 23.5532 54.5205L21.2252 56.847C20.7435 57.3299 20.1712 57.7127 19.541 57.9735C18.9108 58.2343 18.2352 58.3679 17.5532 58.3665Z" fill="#0F3384"/>
<path d="M10.8392 50.9446C10.7367 50.9442 10.6362 50.9162 10.5482 50.8636C10.4208 50.7862 10.3292 50.6615 10.2935 50.5167C10.2578 50.3719 10.2809 50.2189 10.3577 50.0911C11.9962 47.3636 14.2816 45.0819 17.0117 43.4476C17.0769 43.4092 17.1493 43.3842 17.2243 43.3744C17.2994 43.3646 17.3757 43.37 17.4487 43.3903C17.5216 43.4107 17.5897 43.4456 17.6489 43.4929C17.708 43.5402 17.757 43.599 17.7929 43.6657C17.8287 43.7324 17.8508 43.8056 17.8577 43.8811C17.8645 43.9565 17.8561 44.0325 17.8329 44.1046C17.8097 44.1767 17.7721 44.2433 17.7225 44.3006C17.6729 44.3578 17.6123 44.4044 17.5442 44.4376C15.0004 45.9874 12.8664 48.126 11.3222 50.6731C11.2715 50.7558 11.2005 50.8242 11.116 50.8717C11.0315 50.9192 10.9362 50.9443 10.8392 50.9446Z" fill="#0F3384"/>
</svg>
