<svg width="65" height="65" viewBox="0 0 65 65" fill="none" xmlns="http://www.w3.org/2000/svg">
<rect width="65" height="65" fill="white"/>
<path d="M32.6329 64.9999C19.5878 64.9999 13 54.7774 13 52.7016C13 50.6258 19.5878 40.3984 32.6329 40.3984C45.678 40.3984 52.2658 50.6209 52.2658 52.6983C52.2658 54.7758 45.678 64.9999 32.6329 64.9999ZM32.6329 41.6247C20.1243 41.6247 14.223 51.4085 14.223 52.7016C14.223 53.9947 20.1243 63.7736 32.6329 63.7736C45.1415 63.7736 51.0428 53.9817 51.0428 52.6983C51.0428 51.415 45.1431 41.6214 32.6329 41.6214V41.6247Z" fill="#0F3384"/>
<path d="M32.6328 60.904C31.0095 60.9043 29.4225 60.4232 28.0726 59.5215C26.7228 58.6199 25.6706 57.3381 25.0492 55.8384C24.4279 54.3387 24.2652 52.6884 24.5818 51.0963C24.8984 49.5041 25.6801 48.0416 26.828 46.8938C27.9758 45.7459 29.4383 44.9642 31.0305 44.6476C32.6226 44.331 34.2729 44.4937 35.7726 45.115C37.2723 45.7364 38.5541 46.7886 39.4558 48.1384C40.3574 49.4883 40.8385 51.0753 40.8382 52.6986C40.8352 54.8739 39.9697 56.9592 38.4316 58.4974C36.8934 60.0355 34.8081 60.901 32.6328 60.904ZM32.6328 45.7146C31.2515 45.7143 29.901 46.1236 28.7523 46.8908C27.6035 47.6581 26.7081 48.7487 26.1793 50.0248C25.6504 51.301 25.5119 52.7053 25.7812 54.0601C26.0505 55.415 26.7155 56.6596 27.6922 57.6365C28.6688 58.6134 29.9133 59.2787 31.2681 59.5483C32.6229 59.8179 34.0272 59.6797 35.3035 59.1512C36.5798 58.6226 37.6706 57.7275 38.4381 56.5789C39.2056 55.4304 39.6152 54.08 39.6152 52.6986C39.6135 50.8472 38.8774 49.072 37.5683 47.7627C36.2593 46.4533 34.4843 45.7168 32.6328 45.7146Z" fill="#0F3384"/>
<path d="M32.54 30.6981C33.0115 30.6981 33.4724 30.8379 33.8644 31.0999C34.2565 31.3618 34.562 31.7341 34.7425 32.1698C34.9229 32.6054 34.9701 33.0847 34.8781 33.5472C34.7862 34.0096 34.5591 34.4344 34.2257 34.7678C33.8923 35.1012 33.4675 35.3283 33.0051 35.4203C32.5426 35.5122 32.0633 35.465 31.6276 35.2846C31.192 35.1042 30.8197 34.7986 30.5577 34.4065C30.2958 34.0145 30.156 33.5536 30.156 33.0821C30.1568 32.4501 30.4083 31.8442 30.8552 31.3973C31.3021 30.9504 31.9079 30.6989 32.54 30.6981ZM32.54 29.4751C31.8266 29.4751 31.1292 29.6866 30.536 30.083C29.9429 30.4793 29.4806 31.0427 29.2075 31.7017C28.9345 32.3608 28.8631 33.0861 29.0023 33.7858C29.1415 34.4854 29.485 35.1281 29.9894 35.6326C30.4939 36.137 31.1366 36.4806 31.8363 36.6197C32.536 36.7589 33.2612 36.6875 33.9203 36.4145C34.5794 36.1415 35.1427 35.6792 35.539 35.086C35.9354 34.4928 36.1469 33.7955 36.1469 33.0821C36.1469 32.1254 35.7669 31.208 35.0905 30.5316C34.414 29.8551 33.4966 29.4751 32.54 29.4751Z" fill="#0F3384"/>
<path d="M32.54 4.22298C33.0115 4.22298 33.4725 4.36284 33.8646 4.62487C34.2567 4.8869 34.5622 5.25932 34.7426 5.69503C34.923 6.13075 34.9701 6.61017 34.878 7.07267C34.7859 7.53516 34.5587 7.95994 34.2251 8.29329C33.8915 8.62663 33.4666 8.85355 33.004 8.94536C32.5415 9.03716 32.0621 8.98971 31.6265 8.80903C31.1909 8.62834 30.8187 8.32252 30.5569 7.93026C30.2952 7.538 30.1556 7.07692 30.156 6.60534C30.1568 5.97348 30.4083 5.36777 30.8553 4.92113C31.3022 4.47449 31.9081 4.22341 32.54 4.22298ZM32.54 3C31.8265 3 31.1291 3.21159 30.5359 3.608C29.9427 4.00441 29.4803 4.56784 29.2074 5.22702C28.9344 5.8862 28.8631 6.61153 29.0024 7.31126C29.1417 8.01099 29.4854 8.65368 29.99 9.15806C30.4946 9.66244 31.1375 10.0058 31.8373 10.1448C32.5371 10.2838 33.2624 10.2122 33.9214 9.93891C34.5805 9.66566 35.1437 9.20309 35.5398 8.60971C35.936 8.01633 36.1472 7.3188 36.1469 6.60534C36.1465 5.649 35.7663 4.73197 35.0899 4.05588C34.4135 3.3798 33.4963 3 32.54 3Z" fill="#0F3384"/>
<path d="M18.2996 4.22298C18.7712 4.22266 19.2324 4.36224 19.6247 4.62408C20.017 4.88591 20.3228 5.25822 20.5034 5.6939C20.6841 6.12959 20.7314 6.60907 20.6395 7.07167C20.5476 7.53427 20.3205 7.9592 19.987 8.29271C19.6535 8.62622 19.2285 8.8533 18.7659 8.94524C18.3033 9.03717 17.8238 8.98982 17.3882 8.80918C16.9525 8.62854 16.5802 8.32273 16.3183 7.93043C16.0565 7.53814 15.9169 7.07699 15.9172 6.60534C15.9181 5.97376 16.1694 5.3683 16.616 4.92171C17.0626 4.47512 17.668 4.22384 18.2996 4.22298ZM18.2996 3C17.5861 3 16.8887 3.21159 16.2955 3.608C15.7023 4.00441 15.24 4.56784 14.967 5.22702C14.6941 5.8862 14.6227 6.61153 14.7621 7.31126C14.9014 8.01099 15.2451 8.65368 15.7497 9.15806C16.2543 9.66244 16.8971 10.0058 17.5969 10.1448C18.2967 10.2838 19.022 10.2122 19.6811 9.93891C20.3401 9.66566 20.9033 9.20309 21.2995 8.60971C21.6956 8.01633 21.9069 7.3188 21.9066 6.60534C21.9066 6.13174 21.8133 5.66279 21.632 5.22526C21.4507 4.78773 21.185 4.39021 20.85 4.0554C20.5151 3.7206 20.1174 3.45506 19.6798 3.27397C19.2422 3.09288 18.7732 2.99979 18.2996 3Z" fill="#0F3384"/>
<path d="M46.9663 4.22298C47.4379 4.22298 47.8989 4.36284 48.291 4.62487C48.683 4.8869 48.9886 5.25932 49.169 5.69504C49.3494 6.13075 49.3965 6.61017 49.3044 7.07267C49.2123 7.53516 48.985 7.95995 48.6515 8.29329C48.3179 8.62663 47.893 8.85356 47.4304 8.94536C46.9679 9.03716 46.4885 8.98972 46.0529 8.80903C45.6173 8.62834 45.2451 8.32252 44.9833 7.93026C44.7215 7.538 44.582 7.07692 44.5823 6.60534C44.5832 5.97348 44.8347 5.36778 45.2816 4.92114C45.7286 4.4745 46.3345 4.22341 46.9663 4.22298ZM46.9663 3C46.2527 2.99936 45.555 3.21039 44.9613 3.60641C44.3677 4.00243 43.9049 4.56564 43.6314 5.22476C43.358 5.88389 43.2862 6.60931 43.4251 7.30926C43.564 8.0092 43.9075 8.6522 44.412 9.15691C44.9164 9.66162 45.5593 10.0053 46.2592 10.1446C46.959 10.2839 47.6845 10.2124 48.3438 9.93923C49.003 9.66607 49.5664 9.2035 49.9627 8.61005C50.359 8.0166 50.5703 7.31894 50.57 6.60534C50.5696 5.64956 50.1898 4.73303 49.5141 4.05703C48.8385 3.38104 47.9221 3.00087 46.9663 3Z" fill="#0F3384"/>
<path d="M39.7539 17.4605C40.2254 17.4605 40.6863 17.6003 41.0783 17.8623C41.4704 18.1243 41.776 18.4966 41.9564 18.9322C42.1368 19.3678 42.184 19.8472 42.0921 20.3096C42.0001 20.7721 41.773 21.1969 41.4396 21.5303C41.1062 21.8637 40.6814 22.0907 40.219 22.1827C39.7565 22.2747 39.2772 22.2275 38.8416 22.047C38.4059 21.8666 38.0336 21.561 37.7717 21.169C37.5097 20.777 37.3699 20.316 37.3699 19.8445C37.3703 19.2124 37.6216 18.6063 38.0686 18.1593C38.5156 17.7123 39.1217 17.461 39.7539 17.4605ZM39.7539 16.2375C39.0404 16.2372 38.3429 16.4485 37.7495 16.8446C37.1561 17.2408 36.6936 17.804 36.4203 18.4631C36.147 19.1221 36.0754 19.8474 36.2144 20.5472C36.3534 21.247 36.6968 21.8899 37.2011 22.3945C37.7055 22.8991 38.3482 23.2428 39.048 23.3821C39.7477 23.5214 40.473 23.45 41.1322 23.1771C41.7914 22.9041 42.3548 22.4418 42.7512 21.8486C43.1476 21.2554 43.3592 20.558 43.3592 19.8445C43.3575 18.8893 42.9769 17.9738 42.301 17.2988C41.6251 16.6238 40.7091 16.2445 39.7539 16.2441V16.2375Z" fill="#0F3384"/>
<path d="M25.5134 17.4605C25.9849 17.4605 26.4458 17.6003 26.8379 17.8623C27.2299 18.1243 27.5355 18.4966 27.7159 18.9322C27.8964 19.3678 27.9436 19.8472 27.8516 20.3096C27.7596 20.7721 27.5325 21.1969 27.1991 21.5303C26.8657 21.8637 26.4409 22.0907 25.9785 22.1827C25.516 22.2747 25.0367 22.2275 24.6011 22.047C24.1655 21.8666 23.7931 21.561 23.5312 21.169C23.2692 20.777 23.1294 20.316 23.1294 19.8445C23.1298 19.2124 23.3811 18.6063 23.8281 18.1593C24.2751 17.7123 24.8812 17.461 25.5134 17.4605ZM25.5134 16.2375C24.7999 16.2372 24.1024 16.4485 23.509 16.8446C22.9156 17.2408 22.4531 17.804 22.1798 18.4631C21.9066 19.1221 21.8349 19.8474 21.9739 20.5472C22.1129 21.247 22.4563 21.8899 22.9607 22.3945C23.465 22.8991 24.1077 23.2428 24.8075 23.3821C25.5072 23.5214 26.2325 23.45 26.8917 23.1771C27.5509 22.9041 28.1143 22.4418 28.5107 21.8486C28.9071 21.2554 29.1187 20.558 29.1187 19.8445C29.117 18.8893 28.7365 17.9738 28.0606 17.2988C27.3847 16.6238 26.4686 16.2445 25.5134 16.2441V16.2375Z" fill="#0F3384"/>
</svg>
