<svg width="65" height="65" viewBox="0 0 65 65" fill="none" xmlns="http://www.w3.org/2000/svg">
<rect width="65" height="65" fill="white"/>
<path d="M51.2147 17.7239C50.0554 17.7239 48.922 17.3801 47.958 16.736C46.994 16.0919 46.2427 15.1764 45.799 14.1052C45.3553 13.0341 45.2392 11.8555 45.4654 10.7183C45.6916 9.58124 46.2499 8.53674 47.0697 7.71693C47.8895 6.89712 48.934 6.33882 50.0711 6.11264C51.2082 5.88645 52.3869 6.00254 53.458 6.44622C54.5291 6.8899 55.4447 7.64124 56.0888 8.60523C56.7329 9.56923 57.0767 10.7026 57.0767 11.862C57.0748 13.4161 56.4566 14.906 55.3577 16.0049C54.2588 17.1039 52.7689 17.7221 51.2147 17.7239ZM51.2147 7.31434C50.3157 7.31434 49.4368 7.58084 48.6891 8.08015C47.9415 8.57946 47.3586 9.28919 47.0141 10.1196C46.6697 10.9501 46.5791 11.864 46.7539 12.7459C46.9286 13.6279 47.3609 14.4382 47.996 15.0745C48.6311 15.7109 49.4406 16.1447 50.3222 16.3211C51.2038 16.4976 52.1179 16.4088 52.949 16.0659C53.7801 15.7231 54.4909 15.1416 54.9917 14.3949C55.4924 13.6482 55.7606 12.7698 55.7624 11.8707C55.7624 10.6638 55.2835 9.50621 54.4309 8.65197C53.5783 7.79773 52.4216 7.31666 51.2147 7.31434Z" fill="#0F3384"/>
<path d="M38.6811 32.2552C37.5216 32.2555 36.3881 31.912 35.4239 31.2681C34.4597 30.6242 33.7081 29.7088 33.2641 28.6377C32.8202 27.5666 32.7038 26.3879 32.9298 25.2507C33.1558 24.1135 33.714 23.0688 34.5337 22.2488C35.3534 21.4288 36.3979 20.8703 37.5351 20.644C38.6722 20.4177 39.851 20.5337 40.9222 20.9773C41.9934 21.4209 42.9091 22.1723 43.5533 23.1363C44.1975 24.1003 44.5413 25.2337 44.5413 26.3932C44.5399 27.9472 43.9221 29.4371 42.8235 30.5361C41.7248 31.6351 40.2351 32.2533 38.6811 32.2552ZM38.6811 21.8456C37.7795 21.8435 36.8975 22.109 36.1468 22.6084C35.3962 23.1078 34.8105 23.8186 34.4641 24.651C34.1176 25.4834 34.0259 26.3999 34.2005 27.2844C34.3751 28.169 34.8082 28.9818 35.445 29.6201C36.0818 30.2584 36.8937 30.6934 37.7778 30.87C38.6619 31.0467 39.5786 30.9571 40.4118 30.6125C41.245 30.268 41.9572 29.684 42.4583 28.9345C42.9595 28.1849 43.227 27.3036 43.227 26.402C43.227 25.1954 42.7484 24.038 41.8961 23.1838C41.0439 22.3297 39.8877 21.8484 38.6811 21.8456Z" fill="#0F3384"/>
<path d="M26.7714 20.3418C25.612 20.3418 24.4786 19.998 23.5147 19.3539C22.5507 18.7098 21.7993 17.7943 21.3556 16.7232C20.912 15.652 20.7959 14.4734 21.0221 13.3363C21.2482 12.1992 21.8065 11.1547 22.6264 10.3349C23.4462 9.51504 24.4907 8.95674 25.6278 8.73056C26.7649 8.50437 27.9435 8.62046 29.0147 9.06414C30.0858 9.50782 31.0013 10.2592 31.6454 11.2232C32.2895 12.1871 32.6333 13.3205 32.6333 14.4799C32.6315 16.034 32.0133 17.5239 30.9144 18.6229C29.8154 19.7218 28.3255 20.34 26.7714 20.3418ZM26.7714 9.93402C25.8723 9.93575 24.9938 10.204 24.2471 10.7048C23.5003 11.2056 22.9188 11.9166 22.576 12.7478C22.2332 13.579 22.1445 14.4932 22.3211 15.3748C22.4977 16.2565 22.9317 17.0659 23.5682 17.701C24.2047 18.336 25.0152 18.7681 25.8972 18.9427C26.7793 19.1173 27.6933 19.0265 28.5237 18.6817C29.3541 18.337 30.0637 17.7539 30.5628 17.006C31.0619 16.2581 31.3281 15.379 31.3278 14.4799C31.325 13.2733 30.8437 12.117 29.9895 11.2648C29.1353 10.4126 27.978 9.93401 26.7714 9.93402Z" fill="#0F3384"/>
<path d="M14.4049 37.4588C13.2453 37.4591 12.1117 37.1156 11.1475 36.4716C10.1832 35.8276 9.43159 34.9121 8.98769 33.8409C8.5438 32.7697 8.42756 31.5909 8.65369 30.4536C8.87982 29.3164 9.43815 28.2717 10.2581 27.4518C11.078 26.6319 12.1226 26.0735 13.2599 25.8474C14.3972 25.6213 15.576 25.7375 16.6472 26.1814C17.7184 26.6253 18.6339 27.3769 19.2779 28.3412C19.9219 29.3055 20.2654 30.439 20.2651 31.5986C20.2632 33.1522 19.6452 34.6417 18.5466 35.7403C17.448 36.8389 15.9585 37.4569 14.4049 37.4588ZM14.4049 27.051C13.5053 27.0506 12.6259 27.317 11.8779 27.8165C11.1298 28.316 10.5466 29.0261 10.2022 29.8571C9.85768 30.688 9.76738 31.6024 9.94265 32.4847C10.1179 33.367 10.5509 34.1774 11.1868 34.8136C11.8228 35.4498 12.6331 35.8831 13.5153 36.0587C14.3975 36.2343 15.3119 36.1443 16.143 35.8002C16.9741 35.456 17.6844 34.8732 18.1842 34.1253C18.684 33.3774 18.9507 32.4981 18.9507 31.5986C18.9484 30.3935 18.4688 29.2384 17.6168 28.3861C16.7649 27.5338 15.6099 27.0537 14.4049 27.051Z" fill="#0F3384"/>
<path d="M47.6616 15.6176L41.9884 21.8164L42.9567 22.7026L48.6299 16.5038L47.6616 15.6176Z" fill="#0F3384"/>
<path d="M31.1442 17.4409L30.2194 18.3723L34.8094 22.9298L35.7342 21.9983L31.1442 17.4409Z" fill="#0F3384"/>
<path d="M23.2254 18.3405L17.0248 27.0828L18.0954 27.8421L24.2961 19.0998L23.2254 18.3405Z" fill="#0F3384"/>
<path d="M59.7513 58.9989H6.65717C6.48288 58.9989 6.31572 58.9297 6.19248 58.8064C6.06924 58.6832 6 58.516 6 58.3417C6 58.1674 6.06924 58.0003 6.19248 57.8771C6.31572 57.7538 6.48288 57.6846 6.65717 57.6846H59.7565C59.9308 57.6846 60.098 57.7538 60.2212 57.8771C60.3444 58.0003 60.4137 58.1674 60.4137 58.3417C60.4137 58.516 60.3444 58.6832 60.2212 58.8064C60.098 58.9297 59.9308 58.9989 59.7565 58.9989H59.7513Z" fill="#0F3384"/>
<path d="M51.2145 59.0001C51.0403 59.0001 50.8731 58.9308 50.7499 58.8076C50.6266 58.6844 50.5574 58.5172 50.5574 58.3429V24.9797C50.5574 24.8054 50.6266 24.6382 50.7499 24.515C50.8731 24.3917 51.0403 24.3225 51.2145 24.3225C51.3888 24.3225 51.556 24.3917 51.6792 24.515C51.8025 24.6382 51.8717 24.8054 51.8717 24.9797V58.3429C51.8717 58.5172 51.8025 58.6844 51.6792 58.8076C51.556 58.9308 51.3888 59.0001 51.2145 59.0001Z" fill="#0F3384"/>
<path d="M38.6818 58.9975C38.5075 58.9975 38.3404 58.9282 38.2171 58.805C38.0939 58.6817 38.0247 58.5146 38.0247 58.3403V37.6613C38.0247 37.487 38.0939 37.3199 38.2171 37.1966C38.3404 37.0734 38.5075 37.0042 38.6818 37.0042C38.8561 37.0042 39.0233 37.0734 39.1465 37.1966C39.2698 37.3199 39.339 37.487 39.339 37.6613V58.3403C39.339 58.5146 39.2698 58.6817 39.1465 58.805C39.0233 58.9282 38.8561 58.9975 38.6818 58.9975Z" fill="#0F3384"/>
<path d="M26.7714 58.9988C26.5971 58.9988 26.43 58.9296 26.3067 58.8063C26.1835 58.6831 26.1143 58.5159 26.1143 58.3416V30.7282C26.1143 30.5539 26.1835 30.3868 26.3067 30.2635C26.43 30.1403 26.5971 30.071 26.7714 30.071C26.9457 30.071 27.1129 30.1403 27.2361 30.2635C27.3594 30.3868 27.4286 30.5539 27.4286 30.7282V58.3416C27.4286 58.5159 27.3594 58.6831 27.2361 58.8063C27.1129 58.9296 26.9457 58.9988 26.7714 58.9988Z" fill="#0F3384"/>
<path d="M14.405 58.9979C14.2307 58.9979 14.0635 58.9287 13.9403 58.8054C13.817 58.6822 13.7478 58.515 13.7478 58.3407V45.6845C13.7478 45.5102 13.817 45.3431 13.9403 45.2198C14.0635 45.0966 14.2307 45.0273 14.405 45.0273C14.5793 45.0273 14.7464 45.0966 14.8697 45.2198C14.9929 45.3431 15.0621 45.5102 15.0621 45.6845V58.3407C15.0621 58.515 14.9929 58.6822 14.8697 58.8054C14.7464 58.9287 14.5793 58.9979 14.405 58.9979Z" fill="#0F3384"/>
</svg>
