<svg width="627" height="400" viewBox="0 0 627 400" fill="none" xmlns="http://www.w3.org/2000/svg">
<rect width="627" height="400" fill="white"/>
<path d="M520.497 124.325C478.741 82.5583 411.038 82.5583 369.282 124.325L313.422 180.199L257.561 124.325L257.534 124.351V124.325C215.777 82.5583 148.074 82.5583 106.318 124.325C64.5618 166.092 64.5595 233.812 106.318 275.581C148.076 317.35 215.777 317.348 257.534 275.581L257.561 275.607L313.422 219.733L369.291 275.607L369.303 275.593C411.061 317.348 478.755 317.345 520.507 275.581C562.258 233.817 562.256 166.094 520.497 124.325ZM237.799 255.841L237.773 255.813C206.93 286.667 156.922 286.667 126.078 255.813C95.2353 224.96 95.2353 174.944 126.078 144.093C156.922 113.242 206.93 113.239 237.773 144.093H237.799L293.659 199.967L237.799 255.841ZM500.737 255.813C469.894 286.667 419.885 286.667 389.042 255.813L389.028 255.827L333.182 199.967L389.042 144.093C419.885 113.239 469.894 113.239 500.737 144.093C531.58 174.946 531.58 224.962 500.737 255.813Z" fill="url(#paint0_linear_773_450)" fill-opacity="0.1"/>
<g filter="url(#filter0_d_773_450)">
<path d="M397.127 253.287C403.662 253.287 408.96 247.99 408.96 241.455C408.96 234.92 403.662 229.623 397.127 229.623C390.593 229.623 385.295 234.92 385.295 241.455C385.295 247.99 390.593 253.287 397.127 253.287Z" fill="#3C5A9A"/>
<path d="M401.06 233.243H398.425C396.861 233.243 395.122 233.899 395.122 236.156C395.13 236.943 395.122 237.696 395.122 238.544H393.313V241.412H395.178V249.666H398.605V241.357H400.867L401.072 238.536H398.546C398.546 238.536 398.552 237.281 398.546 236.917C398.546 236.025 399.478 236.076 399.534 236.076C399.978 236.076 400.84 236.077 401.062 236.076V233.243H401.06Z" fill="white"/>
</g>
<g filter="url(#filter1_d_773_450)">
<path d="M466.198 239.946C463.621 240.828 461.425 242.756 460.202 245.196C459.776 246.038 459.469 246.931 459.281 247.858C458.814 250.156 459.139 252.608 460.197 254.701C460.885 256.066 461.875 257.284 463.069 258.233C464.201 259.132 465.515 259.803 466.914 260.173C468.678 260.645 470.555 260.634 472.329 260.23C473.933 259.86 475.452 259.092 476.664 257.978C477.944 256.8 478.859 255.253 479.343 253.586C479.872 251.772 479.94 249.832 479.61 247.966C476.294 247.966 472.972 247.966 469.656 247.966C469.656 249.343 469.656 250.719 469.656 252.096C471.579 252.096 473.501 252.096 475.424 252.096C475.202 253.416 474.417 254.622 473.308 255.367C472.608 255.839 471.806 256.14 470.976 256.288C470.145 256.43 469.281 256.447 468.45 256.282C467.603 256.112 466.801 255.759 466.095 255.264C464.969 254.474 464.11 253.319 463.672 252.016C463.223 250.691 463.217 249.218 463.672 247.898C463.991 246.965 464.514 246.106 465.208 245.401C466.061 244.525 467.17 243.899 468.37 243.643C469.394 243.427 470.475 243.467 471.476 243.769C472.329 244.025 473.114 244.497 473.757 245.111C474.406 244.463 475.054 243.814 475.702 243.166C476.044 242.819 476.402 242.483 476.732 242.125C475.748 241.215 474.588 240.481 473.325 240.014C471.05 239.173 468.49 239.155 466.198 239.946Z" fill="white"/>
<path d="M466.197 239.946C468.484 239.155 471.049 239.172 473.324 240.009C474.587 240.475 475.742 241.203 476.732 242.119C476.402 242.477 476.043 242.813 475.702 243.16C475.054 243.808 474.405 244.457 473.757 245.105C473.114 244.491 472.329 244.024 471.476 243.763C470.475 243.461 469.394 243.416 468.37 243.638C467.176 243.894 466.066 244.519 465.207 245.395C464.514 246.095 463.99 246.96 463.672 247.892C462.517 246.994 461.362 246.101 460.202 245.202C461.425 242.756 463.62 240.828 466.197 239.946Z" fill="#EA4335"/>
<path d="M459.286 247.853C459.474 246.931 459.781 246.032 460.208 245.19C461.362 246.089 462.517 246.982 463.677 247.881C463.222 249.206 463.222 250.68 463.677 251.999C462.523 252.898 461.368 253.797 460.213 254.69C459.144 252.602 458.82 250.151 459.286 247.853Z" fill="#FBBC05"/>
<path d="M469.655 247.961C472.972 247.961 476.293 247.961 479.61 247.961C479.939 249.821 479.866 251.76 479.342 253.581C478.859 255.247 477.943 256.794 476.663 257.972C475.543 257.102 474.422 256.231 473.301 255.361C474.411 254.616 475.196 253.41 475.417 252.09C473.495 252.09 471.572 252.09 469.65 252.09C469.655 250.714 469.655 249.337 469.655 247.961Z" fill="#4285F4"/>
<path d="M460.202 254.695C461.357 253.802 462.511 252.904 463.666 252.005C464.11 253.308 464.963 254.462 466.089 255.253C466.794 255.748 467.602 256.1 468.444 256.271C469.274 256.442 470.133 256.419 470.97 256.277C471.8 256.129 472.602 255.827 473.302 255.355C474.422 256.226 475.543 257.096 476.663 257.966C475.452 259.087 473.933 259.849 472.329 260.219C470.554 260.623 468.677 260.634 466.914 260.162C465.515 259.792 464.201 259.127 463.069 258.222C461.88 257.278 460.89 256.061 460.202 254.695Z" fill="#34A853"/>
</g>
<g filter="url(#filter2_d_773_450)">
<path d="M500.484 221.48C508.893 221.48 513.486 214.546 513.486 208.53C513.486 208.333 513.486 208.136 513.473 207.941C514.367 207.296 515.139 206.498 515.752 205.583C514.918 205.952 514.034 206.193 513.128 206.3C514.081 205.731 514.795 204.837 515.137 203.784C514.24 204.314 513.258 204.688 512.235 204.889C510.819 203.388 508.568 203.021 506.745 203.993C504.922 204.965 503.98 207.034 504.448 209.04C500.774 208.856 497.35 207.128 495.03 204.284C493.817 206.364 494.437 209.025 496.445 210.36C495.718 210.339 495.006 210.143 494.371 209.791V209.848C494.371 212.015 495.905 213.881 498.037 214.31C497.364 214.493 496.658 214.52 495.974 214.388C496.572 216.242 498.288 217.512 500.243 217.549C498.625 218.816 496.626 219.503 494.568 219.501C494.204 219.501 493.841 219.479 493.48 219.436C495.57 220.771 498.001 221.48 500.484 221.477" fill="#2DAAE1"/>
</g>
<g filter="url(#filter3_d_773_450)">
<path fill-rule="evenodd" clip-rule="evenodd" d="M422.293 170.151C419.684 170.147 418.434 168.754 418.437 166.997V166.465L421.362 166.469V166.7C421.362 167.274 421.659 167.668 422.227 167.669C422.751 167.67 423.009 167.428 423.01 167.019C423.011 165.858 418.538 166.047 418.542 162.794C418.544 161.04 419.656 159.512 422.423 159.516C424.908 159.52 426.142 160.916 426.139 162.668V163.24L423.215 163.236V162.909C423.215 162.437 422.972 161.965 422.42 161.965C421.979 161.965 421.725 162.209 421.724 162.602C421.722 163.886 426.193 163.563 426.189 166.813C426.186 168.568 425.022 170.154 422.293 170.151ZM417.937 161.653L415.058 161.648L415.061 159.366L417.94 159.371L417.937 161.653ZM417.937 164.192C417.936 165.151 417.613 165.691 416.905 165.886C417.646 166.183 417.934 166.713 417.932 167.844L417.93 169.504L415.032 169.48L415.035 167.311C415.035 166.879 414.558 166.826 414.164 166.692L414.166 165.138C414.56 165.009 415.038 164.885 415.04 164.542L415.042 162.249L417.94 162.253L417.937 164.192ZM420.258 153.061C414.018 153.061 408.96 158.119 408.96 164.359C408.96 170.598 414.018 175.656 420.257 175.656C426.497 175.656 431.555 170.598 431.555 164.359C431.555 158.119 426.498 153.061 420.258 153.061Z" fill="#4000A1"/>
</g>
<g filter="url(#filter4_d_773_450)">
<path d="M490.824 172.849H486.712C486.622 172.849 486.535 172.813 486.471 172.749C486.407 172.685 486.371 172.598 486.371 172.507V158.695C486.19 155.399 484.931 152.254 482.786 149.744C481.94 150.766 479.188 154.419 479.188 158.695V172.507C479.188 172.598 479.152 172.685 479.087 172.749C479.023 172.813 478.937 172.849 478.846 172.849H474.732C474.671 172.85 474.611 172.834 474.557 172.804C474.504 172.774 474.46 172.73 474.43 172.677C474.4 172.624 474.384 172.563 474.385 172.502C474.386 172.441 474.403 172.381 474.435 172.329L478.499 165.535V158.695C478.499 153.395 482.363 149.171 482.525 148.994C482.557 148.96 482.595 148.932 482.638 148.914C482.682 148.895 482.728 148.885 482.775 148.885C482.822 148.885 482.869 148.895 482.912 148.914C482.955 148.932 482.994 148.96 483.026 148.994C485.46 151.658 486.884 155.091 487.05 158.695V165.537L491.113 172.332C491.145 172.384 491.162 172.443 491.163 172.504C491.165 172.565 491.149 172.625 491.12 172.678C491.09 172.731 491.046 172.775 490.994 172.806C490.941 172.836 490.881 172.852 490.821 172.852L490.824 172.849Z" fill="#3C6A89"/>
<path d="M482.781 159.769C482.402 159.767 482.032 159.653 481.717 159.44C481.403 159.228 481.158 158.927 481.015 158.576C480.871 158.225 480.834 157.839 480.91 157.467C480.985 157.095 481.169 156.754 481.438 156.486C481.707 156.219 482.049 156.037 482.422 155.964C482.794 155.891 483.18 155.929 483.53 156.075C483.88 156.221 484.18 156.467 484.39 156.783C484.601 157.098 484.713 157.469 484.713 157.849C484.71 158.359 484.505 158.847 484.143 159.207C483.781 159.567 483.292 159.769 482.781 159.769ZM482.781 156.612C482.537 156.614 482.299 156.689 482.097 156.826C481.895 156.964 481.738 157.158 481.647 157.384C481.555 157.611 481.532 157.859 481.581 158.098C481.63 158.337 481.749 158.557 481.923 158.728C482.096 158.9 482.317 159.017 482.556 159.064C482.796 159.11 483.044 159.085 483.27 158.991C483.495 158.897 483.688 158.738 483.823 158.535C483.958 158.332 484.03 158.093 484.03 157.849C484.028 157.519 483.896 157.204 483.661 156.972C483.427 156.74 483.111 156.611 482.781 156.612Z" fill="#3C6A89"/>
<path d="M485.684 172.971H484.402C485.037 175.105 483.516 178.089 482.824 179C482.132 178.089 480.516 175.105 481.15 172.971H479.938C478.2 176.686 482.824 182.294 482.824 182.294C487.434 176.684 485.684 172.971 485.684 172.971Z" fill="#DF5326"/>
<path d="M481.82 172.971C481.161 174.625 482.563 177.238 482.824 177.713C483.084 177.236 484.388 174.627 483.732 172.971H481.82Z" fill="#F89F4A"/>
</g>
<path d="M146.276 167.976L143.669 167.993L142.816 155.445L145.423 155.428L146.276 167.976Z" fill="#D14028"/>
<path d="M132.62 163.268L130.013 163.286L144.538 151.039L147.145 151.022L132.62 163.268Z" fill="#D14028"/>
<path d="M148.562 171.847L145.954 171.865L130.013 163.286L132.62 163.268L148.562 171.847Z" fill="#F9643A"/>
<path d="M147.146 151.022L148.561 171.848L132.621 163.268L147.146 151.022ZM145.423 155.428L136.672 162.807L146.271 167.977L145.419 155.43L145.423 155.428Z" fill="url(#paint1_linear_773_450)"/>
<path d="M253.772 208.152L251.861 206.853L257.553 197.271L259.463 198.57L253.772 208.152Z" fill="#D14028"/>
<path d="M246.18 197.847L244.269 196.548L261.026 194.923L262.937 196.222L246.18 197.847Z" fill="#D14028"/>
<path d="M253.491 212.126L251.58 210.827L244.269 196.548L246.18 197.847L253.491 212.126Z" fill="#F9643A"/>
<path d="M262.937 196.222L253.491 212.126L246.18 197.847L262.937 196.222ZM259.463 198.57L249.367 199.549L253.768 208.15L259.46 198.569L259.463 198.57Z" fill="url(#paint2_linear_773_450)"/>
<path d="M189.989 242.377L188.078 241.078L193.77 231.496L195.68 232.795L189.989 242.377Z" fill="#D14028"/>
<path d="M182.397 232.072L180.486 230.773L197.243 229.148L199.154 230.447L182.397 232.072Z" fill="#D14028"/>
<path d="M189.708 246.351L187.797 245.052L180.486 230.773L182.397 232.072L189.708 246.351Z" fill="#F9643A"/>
<path d="M199.154 230.447L189.707 246.351L182.397 232.072L199.154 230.447ZM195.68 232.795L185.584 233.774L189.985 242.375L195.677 232.794L195.68 232.795Z" fill="url(#paint3_linear_773_450)"/>
<rect x="195.979" y="184.908" width="14.5076" height="14.5076" rx="1.49668" transform="rotate(-27.907 195.979 184.908)" fill="url(#paint4_linear_773_450)"/>
<rect x="177.675" y="133.692" width="13.8165" height="13.8165" rx="1.86919" transform="rotate(-27.907 177.675 133.692)" fill="url(#paint5_linear_773_450)"/>
<rect x="169.897" y="265.558" width="8.04671" height="8.04671" rx="1.86919" transform="rotate(-27.907 169.897 265.558)" fill="url(#paint6_linear_773_450)"/>
<rect x="125.42" y="226.682" width="12.4536" height="12.4536" rx="1.86919" transform="rotate(-27.907 125.42 226.682)" fill="url(#paint7_linear_773_450)"/>
<rect x="226.604" y="208.167" width="8.56731" height="8.56731" rx="0.853799" transform="rotate(-48.183 226.604 208.167)" fill="url(#paint8_linear_773_450)"/>
<rect x="181.369" y="154.453" width="7.96949" height="7.96949" rx="1.67446" transform="rotate(25.9345 181.369 154.453)" fill="url(#paint9_linear_773_450)"/>
<path d="M417.842 206.095L417.792 206.103L420.987 218.016L421.57 220.181L442.109 202.165L417.842 206.095Z" fill="url(#paint10_linear_773_450)"/>
<path d="M435.05 225.713L442.109 202.165L421.57 220.181L423.639 221.039L435.036 225.761L435.05 225.713Z" fill="#03A18A"/>
<path d="M429.232 268.989L429.205 269.004L433.529 275.066L434.316 276.167L442.125 261.64L429.232 268.989Z" fill="url(#paint11_linear_773_450)"/>
<path d="M443.107 276.447L442.125 261.64L434.315 276.167L435.667 276.215L443.11 276.478L443.107 276.447Z" fill="#03A18A"/>
<path opacity="0.9" d="M450.854 156.797H453.691V153.96H454.711V156.797H457.548V157.817H454.711V160.654H453.691V157.817H450.854V156.797Z" fill="#3088F4"/>
<path opacity="0.8" d="M389.668 203.695H390.924V202.439H391.375V203.695H392.631V204.147H391.375V205.402H390.924V204.147H389.668V203.695Z" fill="#3088F4"/>
<path opacity="0.8" d="M301.97 195.343H303.226V194.087H303.677V195.343H304.933V195.794H303.677V197.05H303.226V195.794H301.97V195.343Z" fill="#3088F4"/>
<path opacity="0.8" d="M432.509 242.235H436.722V238.022H439.265V242.235H443.477V244.777H439.265V248.99H436.722V244.777H432.509V242.235Z" fill="#3088F4" fill-opacity="0.6"/>
<path opacity="0.8" d="M482.736 192.738H487.073V188.425H489.142V192.738H493.455V194.807H489.142V199.144H487.073V194.807H482.736V192.738Z" fill="#3088F4"/>
<path d="M396.435 172.56C395.844 173.701 394.928 174.64 393.803 175.26C392.677 175.88 391.393 176.153 390.113 176.043C388.833 175.933 387.614 175.446 386.611 174.644C385.607 173.842 384.864 172.76 384.476 171.535C384.087 170.31 384.071 168.998 384.428 167.764C384.785 166.53 385.5 165.429 386.483 164.602C387.466 163.774 388.672 163.256 389.949 163.114C391.226 162.972 392.516 163.212 393.657 163.803C394.415 164.195 395.088 164.733 395.637 165.385C396.187 166.038 396.603 166.792 396.861 167.605C397.119 168.419 397.214 169.275 397.141 170.125C397.068 170.975 396.828 171.803 396.435 172.56Z" fill="url(#paint12_linear_773_450)"/>
<path d="M389.02 173.102C388.992 173.111 388.962 173.115 388.932 173.112C388.902 173.11 388.873 173.101 388.847 173.087C388.82 173.074 388.796 173.055 388.776 173.032C388.756 173.009 388.741 172.982 388.732 172.953C388.723 172.924 388.72 172.893 388.722 172.863C388.725 172.833 388.734 172.803 388.748 172.777L391.726 167.032C391.754 166.978 391.803 166.937 391.861 166.919C391.919 166.9 391.982 166.906 392.036 166.933C392.09 166.961 392.13 167.01 392.149 167.067C392.167 167.125 392.162 167.188 392.134 167.242L389.155 172.989C389.141 173.016 389.122 173.04 389.099 173.059C389.076 173.079 389.049 173.093 389.02 173.102Z" fill="white"/>
<path d="M392.192 166.982L388.396 168.187C388.338 168.205 388.275 168.2 388.221 168.172C388.166 168.144 388.126 168.096 388.107 168.038C388.089 167.979 388.094 167.916 388.122 167.862C388.15 167.808 388.199 167.768 388.257 167.749L392.053 166.545C392.111 166.526 392.174 166.532 392.228 166.56C392.282 166.588 392.323 166.636 392.341 166.694C392.36 166.752 392.354 166.815 392.326 166.869C392.298 166.923 392.25 166.964 392.192 166.982Z" fill="white"/>
<path d="M393.396 170.779C393.338 170.797 393.275 170.792 393.221 170.764C393.167 170.736 393.126 170.687 393.108 170.629L391.903 166.833C391.885 166.775 391.89 166.712 391.918 166.658C391.946 166.604 391.995 166.563 392.053 166.545C392.111 166.526 392.174 166.532 392.228 166.56C392.282 166.588 392.323 166.636 392.341 166.694L393.546 170.49C393.564 170.548 393.559 170.611 393.531 170.666C393.503 170.72 393.454 170.76 393.396 170.779Z" fill="white"/>
<path d="M479.856 135.626C479.08 137.122 477.878 138.355 476.402 139.169C474.926 139.982 473.241 140.339 471.562 140.195C469.882 140.051 468.283 139.413 466.967 138.36C465.65 137.307 464.676 135.888 464.166 134.281C463.656 132.675 463.634 130.953 464.103 129.334C464.572 127.715 465.51 126.271 466.799 125.185C468.088 124.099 469.671 123.42 471.346 123.234C473.021 123.047 474.714 123.361 476.211 124.137C477.205 124.651 478.088 125.357 478.809 126.213C479.53 127.069 480.076 128.059 480.414 129.126C480.753 130.193 480.878 131.316 480.782 132.431C480.686 133.547 480.372 134.632 479.856 135.626Z" fill="#00D0B2"/>
<path d="M470.128 136.337C470.09 136.349 470.051 136.354 470.012 136.35C469.973 136.347 469.935 136.336 469.9 136.318C469.865 136.3 469.833 136.275 469.807 136.245C469.781 136.214 469.762 136.179 469.75 136.141C469.737 136.103 469.733 136.063 469.737 136.023C469.741 135.984 469.752 135.945 469.771 135.91L473.677 128.373C473.714 128.303 473.778 128.249 473.854 128.225C473.931 128.201 474.013 128.208 474.085 128.244C474.155 128.281 474.208 128.344 474.232 128.42C474.256 128.496 474.249 128.578 474.213 128.649L470.305 136.189C470.286 136.224 470.261 136.256 470.231 136.281C470.2 136.306 470.165 136.326 470.128 136.337Z" fill="white"/>
<path d="M474.289 128.309L469.308 129.889C469.232 129.913 469.149 129.906 469.079 129.869C469.008 129.832 468.954 129.769 468.93 129.693C468.906 129.617 468.913 129.534 468.95 129.463C468.986 129.392 469.05 129.339 469.126 129.314L474.106 127.734C474.183 127.71 474.265 127.717 474.336 127.754C474.407 127.791 474.46 127.854 474.485 127.93C474.509 128.006 474.502 128.089 474.465 128.16C474.428 128.231 474.365 128.284 474.289 128.309Z" fill="white"/>
<path d="M475.869 133.289C475.792 133.313 475.71 133.306 475.639 133.269C475.568 133.233 475.515 133.169 475.49 133.093L473.91 128.113C473.886 128.036 473.893 127.954 473.93 127.883C473.967 127.812 474.03 127.759 474.106 127.734C474.182 127.71 474.265 127.717 474.336 127.754C474.407 127.791 474.46 127.854 474.484 127.93L476.065 132.911C476.089 132.987 476.082 133.07 476.045 133.14C476.008 133.211 475.945 133.265 475.869 133.289Z" fill="white"/>
<path opacity="0.8" d="M242.237 236.95C242.237 240.181 240.166 242.522 237.92 242.522C235.674 242.522 233.603 240.181 233.603 236.95C233.603 233.72 235.674 231.379 237.92 231.379C240.166 231.379 242.237 233.72 242.237 236.95Z" stroke="#FF9999" stroke-width="1.40189"/>
<path opacity="0.8" d="M176.912 183.691C176.912 185.767 175.591 187.171 174.268 187.171C172.946 187.171 171.624 185.767 171.624 183.691C171.624 181.615 172.946 180.211 174.268 180.211C175.591 180.211 176.912 181.615 176.912 183.691Z" stroke="#FF9999" stroke-width="1.40189"/>
<path opacity="0.8" d="M131.86 198.009C131.86 202.072 129.249 205.086 126.338 205.086C123.426 205.086 120.816 202.072 120.816 198.009C120.816 193.946 123.426 190.931 126.338 190.931C129.249 190.931 131.86 193.946 131.86 198.009Z" stroke="#FF9999" stroke-width="1.40189"/>
<path d="M321.291 184.421C324.626 189.247 326.377 194.99 326.303 200.855C326.306 200.899 326.322 200.942 326.35 200.976C326.378 201.011 326.416 201.036 326.459 201.048C326.502 201.059 326.547 201.057 326.589 201.042C326.631 201.026 326.666 200.997 326.691 200.96C328.594 197.769 329.74 194.184 330.041 190.48C330.342 186.777 329.79 183.054 328.428 179.597C325.727 177.445 322.62 175.859 319.292 174.936C315.964 174.012 312.484 173.769 309.06 174.221C309.016 174.228 308.975 174.249 308.943 174.281C308.911 174.313 308.891 174.354 308.884 174.399C308.878 174.444 308.885 174.489 308.907 174.529C308.928 174.569 308.961 174.601 309.002 174.62C313.973 176.608 318.248 180.017 321.291 184.421Z" fill="#0087FC"/>
<path d="M330.611 199.775C328.123 205.362 323.856 209.968 318.474 212.875C318.437 212.899 318.409 212.935 318.393 212.976C318.377 213.018 318.375 213.064 318.387 213.107C318.399 213.15 318.424 213.188 318.458 213.216C318.493 213.244 318.535 213.26 318.58 213.262C319.881 213.273 321.181 213.175 322.465 212.969C328.625 211.996 334.216 208.801 338.182 203.989C338.711 200.545 338.538 197.03 337.672 193.655C336.807 190.281 335.267 187.116 333.147 184.351C333.118 184.314 333.078 184.287 333.032 184.276C332.986 184.264 332.938 184.268 332.895 184.287C332.852 184.306 332.816 184.338 332.794 184.38C332.771 184.421 332.763 184.469 332.771 184.516C333.509 189.704 332.76 194.995 330.611 199.775Z" fill="#0087FC"/>
<path d="M303.849 184.304C309.409 183.92 314.949 185.296 319.683 188.236C319.723 188.259 319.769 188.269 319.815 188.264C319.861 188.258 319.904 188.238 319.937 188.206C319.97 188.174 319.992 188.133 319.999 188.087C320.006 188.042 319.999 187.995 319.977 187.954C319.625 187.321 319.237 186.71 318.803 186.111C316.929 183.379 314.518 181.057 311.717 179.287C308.916 177.517 305.783 176.337 302.511 175.817C299.295 177.099 296.365 179.003 293.887 181.421C291.41 183.838 289.434 186.72 288.073 189.903C288.054 189.946 288.051 189.995 288.063 190.041C288.075 190.087 288.102 190.127 288.14 190.156C288.178 190.184 288.225 190.199 288.272 190.198C288.319 190.197 288.365 190.18 288.402 190.149C292.867 186.73 298.238 184.697 303.849 184.304Z" fill="#0087FC"/>
<path d="M322.923 215.914C316.416 216.944 309.757 215.536 304.225 211.959C304.185 211.929 304.136 211.915 304.087 211.917C304.038 211.92 303.991 211.939 303.955 211.973C303.919 212.006 303.895 212.051 303.889 212.1C303.882 212.149 303.893 212.199 303.919 212.24C304.398 213.099 304.931 213.927 305.516 214.717C309.53 219.998 315.407 223.55 321.949 224.647C325.171 223.353 328.104 221.432 330.578 218.996C333.052 216.56 335.019 213.657 336.363 210.456C336.378 210.414 336.38 210.369 336.367 210.326C336.355 210.283 336.329 210.245 336.294 210.218C336.259 210.191 336.216 210.175 336.172 210.174C336.127 210.172 336.083 210.185 336.046 210.21C332.215 213.173 327.704 215.134 322.923 215.914Z" fill="#0087FC"/>
<path d="M303.168 216.525C299.552 211.674 297.72 205.725 297.98 199.681C297.98 199.636 297.965 199.591 297.938 199.555C297.911 199.518 297.873 199.491 297.83 199.478C297.786 199.465 297.74 199.466 297.697 199.482C297.654 199.497 297.617 199.526 297.592 199.564C297.205 200.197 296.853 200.855 296.536 201.512C295.163 204.503 294.4 207.737 294.291 211.027C294.182 214.316 294.73 217.593 295.902 220.669C298.627 222.883 301.775 224.519 305.153 225.475C308.532 226.432 312.07 226.69 315.551 226.232C315.598 226.221 315.639 226.195 315.668 226.158C315.697 226.12 315.713 226.074 315.713 226.027C315.713 225.979 315.697 225.933 315.668 225.896C315.639 225.859 315.598 225.833 315.551 225.822C310.658 223.901 306.378 220.688 303.168 216.525Z" fill="#0087FC"/>
<path d="M293.555 200.455C295.952 194.894 300.199 190.333 305.574 187.544C305.611 187.52 305.639 187.485 305.656 187.444C305.672 187.404 305.675 187.359 305.665 187.317C305.654 187.274 305.631 187.236 305.598 187.207C305.565 187.178 305.524 187.161 305.481 187.156C304.741 187.156 304.002 187.156 303.262 187.156C299.985 187.461 296.801 188.413 293.895 189.959C290.99 191.504 288.42 193.612 286.336 196.159C285.771 199.628 285.92 203.175 286.774 206.584C287.627 209.993 289.168 213.192 291.301 215.985C291.331 216.017 291.371 216.038 291.414 216.047C291.457 216.055 291.501 216.05 291.541 216.032C291.581 216.014 291.615 215.984 291.637 215.946C291.659 215.908 291.669 215.864 291.665 215.82C290.895 210.622 291.548 205.312 293.555 200.455Z" fill="#0087FC"/>
<path d="M234.265 152.299V155.677L231.918 152.299H231.278V157.277H232.096V153.899L234.443 157.277H235.083V152.299H234.265ZM239.32 157.277H240.202L238.403 152.299H237.421L235.615 157.277H236.504L236.852 156.274H238.972L239.32 157.277ZM237.123 155.506L237.912 153.259L238.701 155.506H237.123Z" fill="#E64068"/>
<path opacity="0.8" d="M161.95 204.248V209.569L158.31 204.248H157.75V210.782H158.403V205.462L162.043 210.782H162.603V204.248H161.95ZM168.444 210.782H169.134L166.623 204.248H165.951L163.44 210.782H164.131L164.738 209.177H167.837L168.444 210.782ZM164.971 208.561L166.287 205.06L167.603 208.561H164.971Z" fill="#E64068"/>
<rect x="531.622" y="147.493" width="4.08809" height="55.8453" rx="2.04404" transform="rotate(89.8558 531.622 147.493)" fill="url(#paint13_linear_773_450)"/>
<rect x="439.749" y="186.47" width="2.48816" height="55.8453" rx="1.24408" transform="rotate(89.8558 439.749 186.47)" fill="url(#paint14_linear_773_450)"/>
<rect x="413.135" y="231.015" width="1.36444" height="30.624" rx="0.682218" transform="rotate(89.8558 413.135 231.015)" fill="url(#paint15_linear_773_450)"/>
<rect x="360.413" y="207.35" width="3.31524" height="21.0548" rx="1.65762" transform="rotate(89.8558 360.413 207.35)" fill="url(#paint16_linear_773_450)"/>
<path d="M366.98 235.856C366.576 236.636 365.949 237.279 365.179 237.703C364.409 238.127 363.531 238.314 362.655 238.239C361.78 238.164 360.946 237.831 360.259 237.282C359.573 236.733 359.065 235.993 358.799 235.155C358.533 234.317 358.521 233.419 358.766 232.575C359.01 231.731 359.5 230.978 360.172 230.412C360.844 229.845 361.669 229.491 362.543 229.394C363.416 229.297 364.299 229.461 365.079 229.865C365.598 230.133 366.058 230.501 366.434 230.948C366.81 231.394 367.095 231.91 367.271 232.467C367.448 233.023 367.513 233.609 367.463 234.19C367.413 234.772 367.249 235.338 366.98 235.856Z" fill="#00D0B2"/>
<path d="M361.907 236.227C361.888 236.233 361.867 236.235 361.847 236.233C361.827 236.232 361.807 236.226 361.789 236.216C361.77 236.207 361.754 236.194 361.74 236.178C361.727 236.163 361.717 236.144 361.71 236.124C361.704 236.105 361.702 236.084 361.704 236.063C361.706 236.042 361.712 236.022 361.722 236.004L363.758 232.074C363.778 232.037 363.811 232.009 363.851 231.997C363.891 231.984 363.934 231.988 363.971 232.006C364.008 232.026 364.035 232.059 364.048 232.098C364.06 232.138 364.057 232.18 364.038 232.217L362 236.149C361.99 236.168 361.977 236.184 361.961 236.197C361.945 236.21 361.927 236.22 361.907 236.227Z" fill="white"/>
<path d="M364.077 232.04L361.48 232.864C361.44 232.877 361.397 232.873 361.36 232.854C361.323 232.835 361.295 232.802 361.283 232.762C361.27 232.722 361.274 232.679 361.293 232.642C361.312 232.605 361.345 232.577 361.385 232.565L363.982 231.741C364.022 231.728 364.065 231.732 364.102 231.751C364.139 231.77 364.167 231.803 364.179 231.843C364.192 231.883 364.188 231.926 364.169 231.963C364.15 232 364.117 232.028 364.077 232.04Z" fill="white"/>
<path d="M364.901 234.637C364.861 234.65 364.818 234.646 364.781 234.627C364.744 234.608 364.716 234.575 364.704 234.535L363.88 231.938C363.867 231.898 363.871 231.855 363.89 231.818C363.909 231.781 363.942 231.753 363.982 231.741C364.022 231.728 364.065 231.732 364.102 231.751C364.139 231.77 364.167 231.803 364.179 231.843L365.003 234.44C365.016 234.48 365.012 234.523 364.993 234.56C364.974 234.597 364.941 234.625 364.901 234.637Z" fill="white"/>
<path d="M306.462 200.104L306.438 200.118L310.952 205.401L311.773 206.36L317.871 193.119L306.462 200.104Z" fill="url(#paint17_linear_773_450)"/>
<path d="M319.98 206.329L317.871 193.119L311.773 206.36L313.035 206.36L319.985 206.356L319.98 206.329Z" fill="#03A18A"/>
<rect x="538.582" y="236.583" width="4.99116" height="55.8453" rx="2.49558" transform="rotate(89.8558 538.582 236.583)" fill="url(#paint18_linear_773_450)"/>
<path d="M429.474 118.147L428.501 118.498L428.709 119.226L429.368 119.046V121.868H430.218V118.147H429.474ZM432.267 121.943C433.229 121.943 433.782 121.156 433.782 120.008C433.782 118.86 433.229 118.073 432.267 118.073C431.305 118.073 430.752 118.86 430.752 120.008C430.752 121.156 431.305 121.943 432.267 121.943ZM432.267 121.114C431.82 121.114 431.602 120.725 431.602 120.008C431.602 119.29 431.82 118.902 432.267 118.902C432.713 118.902 432.931 119.29 432.931 120.008C432.931 120.725 432.713 121.114 432.267 121.114ZM435.615 121.943C436.577 121.943 437.13 121.156 437.13 120.008C437.13 118.86 436.577 118.073 435.615 118.073C434.653 118.073 434.1 118.86 434.1 120.008C434.1 121.156 434.653 121.943 435.615 121.943ZM435.615 121.114C435.169 121.114 434.951 120.725 434.951 120.008C434.951 119.29 435.169 118.902 435.615 118.902C436.062 118.902 436.28 119.29 436.28 120.008C436.28 120.725 436.062 121.114 435.615 121.114ZM438.323 119.88C438.849 119.88 439.242 119.476 439.242 118.977C439.242 118.461 438.849 118.073 438.323 118.073C437.791 118.073 437.398 118.477 437.398 118.977C437.398 119.476 437.791 119.88 438.323 119.88ZM437.839 121.284L438.19 121.491L440.593 118.828L440.242 118.626L437.839 121.284ZM438.317 119.269C438.153 119.269 438.036 119.141 438.036 118.977C438.036 118.812 438.153 118.684 438.317 118.684C438.488 118.684 438.605 118.812 438.605 118.977C438.605 119.131 438.488 119.269 438.317 119.269ZM440.221 121.932C440.747 121.932 441.14 121.528 441.14 121.028C441.14 120.529 440.747 120.125 440.221 120.125C439.689 120.125 439.296 120.529 439.296 121.028C439.296 121.528 439.689 121.932 440.221 121.932ZM440.215 121.321C440.05 121.321 439.934 121.193 439.934 121.028C439.934 120.864 440.05 120.736 440.215 120.736C440.385 120.736 440.502 120.864 440.502 121.028C440.502 121.183 440.385 121.321 440.215 121.321Z" fill="#89C8FF"/>
<path d="M361.122 187.294H362.036L361.244 185.928C361.654 185.72 361.93 185.306 361.93 184.848C361.93 184.141 361.361 183.573 360.654 183.573H359.166V187.294H360.016V186.071H360.42L361.122 187.294ZM360.016 184.37H360.654C360.888 184.37 361.079 184.577 361.079 184.848C361.079 185.12 360.888 185.327 360.654 185.327H360.016V184.37ZM364.16 187.368C365.228 187.368 366.095 186.528 366.095 185.433C366.095 184.338 365.228 183.498 364.16 183.498C363.091 183.498 362.225 184.338 362.225 185.433C362.225 186.528 363.091 187.368 364.16 187.368ZM364.16 186.539C363.554 186.539 363.075 186.098 363.075 185.433C363.075 184.769 363.554 184.327 364.16 184.327C364.766 184.327 365.244 184.769 365.244 185.433C365.244 186.098 364.766 186.539 364.16 186.539ZM366.574 183.573V187.294H367.424V183.573H366.574Z" fill="#89C8FF"/>
<path d="M455 213.93V213.931C455.012 214.376 455.016 214.823 455.091 215.264C455.17 215.732 455.284 216.187 455.5 216.612C455.793 217.186 456.196 217.671 456.703 218.067C457.068 218.351 457.466 218.577 457.907 218.719C458.55 218.927 459.213 219.006 459.886 219.01C460.306 219.013 460.726 219.023 461.146 219.021C464.196 219.008 467.246 219.043 470.296 219.002C470.701 218.997 471.099 218.948 471.497 218.875C472.258 218.736 472.931 218.411 473.507 217.897C474.178 217.299 474.63 216.566 474.835 215.682C474.968 215.105 475.002 214.518 475.007 213.93V213.813C475.007 213.767 474.99 203.818 474.989 203.686C474.984 203.325 474.957 202.966 474.89 202.611C474.807 202.178 474.691 201.756 474.484 201.364C474.265 200.95 473.99 200.578 473.651 200.252C473.131 199.754 472.531 199.401 471.833 199.215C471.202 199.047 470.559 199.009 469.911 199.01C469.91 199.01 469.907 199.003 469.907 199H460.097C460.097 199.003 460.097 199.007 460.097 199.01C459.729 199.017 459.36 199.014 458.994 199.059C458.594 199.109 458.196 199.184 457.817 199.324C457.219 199.545 456.7 199.89 456.256 200.349C455.754 200.87 455.4 201.473 455.212 202.174C455.044 202.8 455.007 203.438 455.007 204.081" fill="#FFFC00"/>
<path d="M465.093 215.893C465.051 215.893 465.012 215.892 464.981 215.891C464.957 215.893 464.933 215.893 464.908 215.893C464.035 215.893 463.451 215.481 462.936 215.116C462.567 214.856 462.219 214.609 461.811 214.542C461.611 214.508 461.411 214.491 461.219 214.491C460.872 214.491 460.598 214.545 460.397 214.584C460.274 214.608 460.168 214.629 460.086 214.629C460 214.629 459.896 214.61 459.852 214.461C459.817 214.344 459.793 214.23 459.769 214.121C459.709 213.848 459.666 213.681 459.563 213.665C458.468 213.496 457.822 213.247 457.693 212.946C457.679 212.914 457.672 212.882 457.67 212.851C457.665 212.761 457.728 212.682 457.817 212.667C458.686 212.524 459.46 212.065 460.115 211.301C460.623 210.71 460.872 210.145 460.899 210.083C460.9 210.08 460.901 210.077 460.903 210.074C461.029 209.818 461.054 209.596 460.978 209.416C460.837 209.083 460.369 208.935 460.06 208.837C459.983 208.813 459.911 208.79 459.853 208.767C459.579 208.658 459.128 208.43 459.188 208.114C459.232 207.884 459.536 207.724 459.782 207.724C459.851 207.724 459.911 207.736 459.962 207.759C460.24 207.89 460.49 207.956 460.705 207.956C460.973 207.956 461.102 207.854 461.133 207.825C461.126 207.682 461.116 207.531 461.107 207.389C461.107 207.388 461.107 207.387 461.107 207.387C461.044 206.388 460.966 205.145 461.284 204.432C462.236 202.298 464.254 202.132 464.85 202.132C464.866 202.132 465.109 202.129 465.109 202.129C465.12 202.129 465.132 202.129 465.145 202.129C465.742 202.129 467.765 202.295 468.717 204.43C469.035 205.144 468.957 206.388 468.894 207.388L468.891 207.436C468.882 207.572 468.874 207.7 468.867 207.825C468.897 207.852 469.015 207.945 469.256 207.955C469.461 207.947 469.696 207.881 469.956 207.76C470.036 207.722 470.125 207.714 470.185 207.714C470.276 207.714 470.369 207.732 470.446 207.764L470.451 207.766C470.671 207.844 470.815 208 470.818 208.164C470.821 208.317 470.707 208.546 470.148 208.767C470.091 208.789 470.018 208.813 469.94 208.837C469.631 208.935 469.164 209.083 469.023 209.416C468.946 209.596 468.972 209.818 469.098 210.074C469.099 210.077 469.101 210.08 469.102 210.083C469.141 210.174 470.083 212.321 472.184 212.667C472.272 212.682 472.336 212.761 472.331 212.851C472.329 212.883 472.321 212.915 472.308 212.946C472.18 213.246 471.533 213.495 470.438 213.664C470.335 213.68 470.291 213.846 470.232 214.118C470.208 214.23 470.183 214.34 470.149 214.456C470.117 214.565 470.046 214.618 469.932 214.618H469.915C469.841 214.618 469.736 214.604 469.603 214.579C469.372 214.534 469.112 214.492 468.782 214.492C468.59 214.492 468.39 214.508 468.19 214.542C467.782 214.61 467.434 214.855 467.066 215.116C466.549 215.481 465.966 215.893 465.093 215.893Z" fill="white"/>
<path d="M465.146 202.305C465.708 202.305 467.645 202.456 468.557 204.502C468.858 205.176 468.781 206.396 468.719 207.377C468.709 207.532 468.7 207.683 468.692 207.827L468.689 207.889L468.73 207.935C468.747 207.954 468.903 208.117 469.25 208.13L469.256 208.131L469.262 208.13C469.492 208.122 469.75 208.05 470.031 207.919C470.073 207.899 470.128 207.89 470.186 207.89C470.253 207.89 470.323 207.902 470.381 207.927L470.39 207.93C470.537 207.982 470.642 208.079 470.643 208.167C470.644 208.217 470.607 208.397 470.084 208.603C470.033 208.623 469.966 208.645 469.888 208.669C469.548 208.777 469.035 208.94 468.862 209.347C468.765 209.577 468.791 209.847 468.941 210.152C469.003 210.296 469.973 212.481 472.156 212.841C472.156 212.851 472.153 212.862 472.147 212.876C472.11 212.963 471.875 213.264 470.412 213.49C470.183 213.525 470.126 213.782 470.061 214.08C470.038 214.187 470.014 214.295 469.981 214.406C469.971 214.44 469.969 214.442 469.933 214.442C469.928 214.442 469.922 214.442 469.916 214.442C469.851 214.442 469.753 214.428 469.638 214.406C469.43 214.365 469.146 214.316 468.783 214.316C468.58 214.316 468.372 214.333 468.162 214.368C467.714 214.443 467.35 214.7 466.964 214.973C466.446 215.339 465.911 215.718 465.094 215.718C465.058 215.718 465.023 215.716 464.989 215.715L464.979 215.714L464.97 215.715C464.95 215.717 464.93 215.718 464.909 215.718C464.093 215.718 463.557 215.339 463.039 214.973C462.653 214.7 462.289 214.443 461.841 214.368C461.632 214.333 461.423 214.316 461.22 214.316C460.857 214.316 460.573 214.371 460.365 214.412C460.251 214.434 460.152 214.453 460.087 214.453C460.034 214.453 460.033 214.45 460.022 214.412C459.989 214.3 459.965 214.19 459.942 214.083C459.877 213.784 459.821 213.526 459.592 213.491C458.128 213.265 457.893 212.964 457.856 212.877C457.85 212.863 457.847 212.851 457.847 212.841C460.03 212.482 461 210.296 461.062 210.152C461.212 209.848 461.238 209.577 461.141 209.347C460.968 208.94 460.455 208.777 460.115 208.669C460.037 208.645 459.97 208.623 459.919 208.603C459.477 208.429 459.342 208.253 459.362 208.147C459.385 208.024 459.598 207.899 459.784 207.899C459.825 207.899 459.862 207.906 459.889 207.919C460.19 208.06 460.465 208.132 460.707 208.132C461.086 208.132 461.255 207.955 461.273 207.935L461.314 207.889L461.311 207.827C461.303 207.683 461.294 207.533 461.284 207.377C461.222 206.397 461.145 205.177 461.446 204.503C462.355 202.465 464.282 202.308 464.851 202.308C464.865 202.308 465.112 202.305 465.112 202.305C465.123 202.305 465.134 202.305 465.146 202.305ZM465.146 201.953H465.145C465.132 201.953 465.12 201.953 465.108 201.953C465.016 201.954 464.864 201.956 464.85 201.956C464.517 201.956 463.85 202.003 463.134 202.319C462.724 202.5 462.356 202.744 462.039 203.045C461.661 203.404 461.353 203.846 461.124 204.36C460.789 205.112 460.868 206.38 460.932 207.398L460.932 207.399C460.939 207.509 460.946 207.622 460.953 207.733C460.904 207.756 460.824 207.78 460.706 207.78C460.517 207.78 460.292 207.719 460.038 207.6C459.963 207.565 459.877 207.548 459.783 207.548C459.632 207.548 459.472 207.592 459.333 207.674C459.159 207.776 459.047 207.921 459.016 208.081C458.996 208.187 458.997 208.397 459.23 208.609C459.358 208.726 459.546 208.834 459.789 208.93C459.853 208.955 459.928 208.979 460.008 209.005C460.286 209.093 460.707 209.226 460.817 209.485C460.872 209.616 460.848 209.788 460.746 209.996C460.743 210.002 460.74 210.007 460.738 210.013C460.712 210.073 460.473 210.615 459.982 211.186C459.704 211.511 459.397 211.783 459.07 211.994C458.672 212.251 458.241 212.42 457.789 212.494C457.612 212.523 457.485 212.681 457.495 212.861C457.498 212.912 457.51 212.964 457.531 213.014C457.532 213.014 457.532 213.014 457.532 213.015C457.604 213.182 457.77 213.325 458.04 213.451C458.37 213.604 458.864 213.733 459.508 213.834C459.541 213.896 459.575 214.051 459.598 214.158C459.622 214.271 459.648 214.387 459.684 214.511C459.724 214.645 459.825 214.805 460.087 214.805C460.186 214.805 460.3 214.782 460.432 214.757C460.625 214.719 460.89 214.667 461.22 214.667C461.403 214.667 461.592 214.683 461.783 214.715C462.151 214.776 462.468 215 462.835 215.26C463.372 215.639 463.98 216.069 464.909 216.069C464.934 216.069 464.96 216.068 464.985 216.066C465.015 216.068 465.054 216.069 465.094 216.069C466.023 216.069 466.631 215.639 467.167 215.26L467.168 215.259C467.535 215 467.852 214.776 468.219 214.715C468.41 214.683 468.6 214.667 468.783 214.667C469.098 214.667 469.348 214.707 469.57 214.751C469.716 214.779 469.829 214.793 469.916 214.793L469.924 214.793H469.933C470.124 214.793 470.265 214.688 470.318 214.505C470.354 214.384 470.38 214.27 470.405 214.155C470.427 214.055 470.461 213.895 470.494 213.833C471.138 213.732 471.632 213.603 471.962 213.449C472.232 213.324 472.398 213.182 472.47 213.015C472.492 212.965 472.504 212.913 472.507 212.86C472.517 212.681 472.391 212.523 472.213 212.494C470.206 212.163 469.302 210.1 469.265 210.013C469.262 210.007 469.259 210.001 469.257 209.996C469.154 209.788 469.13 209.615 469.186 209.484C469.295 209.226 469.716 209.093 469.994 209.004C470.075 208.979 470.151 208.955 470.214 208.93C470.488 208.822 470.683 208.704 470.812 208.571C470.967 208.412 470.997 208.26 470.995 208.161C470.99 207.92 470.806 207.705 470.513 207.601C470.414 207.56 470.301 207.538 470.186 207.538C470.108 207.538 469.992 207.549 469.882 207.6C469.648 207.71 469.437 207.77 469.257 207.778C469.161 207.774 469.093 207.753 469.05 207.733C469.055 207.639 469.061 207.542 469.067 207.442L469.07 207.399C469.134 206.38 469.214 205.111 468.879 204.359C468.649 203.843 468.34 203.399 467.96 203.04C467.642 202.739 467.272 202.494 466.861 202.314C466.146 202 465.479 201.953 465.146 201.953Z" fill="#020202"/>
<defs>
<filter id="filter0_d_773_450" x="377.765" y="225.439" width="38.7238" height="38.7239" filterUnits="userSpaceOnUse" color-interpolation-filters="sRGB">
<feFlood flood-opacity="0" result="BackgroundImageFix"/>
<feColorMatrix in="SourceAlpha" type="matrix" values="0 0 0 0 0 0 0 0 0 0 0 0 0 0 0 0 0 0 127 0" result="hardAlpha"/>
<feOffset dy="3.34654"/>
<feGaussianBlur stdDeviation="3.76486"/>
<feComposite in2="hardAlpha" operator="out"/>
<feColorMatrix type="matrix" values="0 0 0 0 0 0 0 0 0 0 0 0 0 0 0 0 0 0 0.15 0"/>
<feBlend mode="normal" in2="BackgroundImageFix" result="effect1_dropShadow_773_450"/>
<feBlend mode="normal" in="SourceGraphic" in2="effect1_dropShadow_773_450" result="shape"/>
</filter>
<filter id="filter1_d_773_450" x="451.543" y="235.184" width="35.7975" height="36.2228" filterUnits="userSpaceOnUse" color-interpolation-filters="sRGB">
<feFlood flood-opacity="0" result="BackgroundImageFix"/>
<feColorMatrix in="SourceAlpha" type="matrix" values="0 0 0 0 0 0 0 0 0 0 0 0 0 0 0 0 0 0 127 0" result="hardAlpha"/>
<feOffset dy="3.34654"/>
<feGaussianBlur stdDeviation="3.76486"/>
<feComposite in2="hardAlpha" operator="out"/>
<feColorMatrix type="matrix" values="0 0 0 0 0 0 0 0 0 0 0 0 0 0 0 0 0 0 0.15 0"/>
<feBlend mode="normal" in2="BackgroundImageFix" result="effect1_dropShadow_773_450"/>
<feBlend mode="normal" in="SourceGraphic" in2="effect1_dropShadow_773_450" result="shape"/>
</filter>
<filter id="filter2_d_773_450" x="485.95" y="199.271" width="37.3319" height="33.0858" filterUnits="userSpaceOnUse" color-interpolation-filters="sRGB">
<feFlood flood-opacity="0" result="BackgroundImageFix"/>
<feColorMatrix in="SourceAlpha" type="matrix" values="0 0 0 0 0 0 0 0 0 0 0 0 0 0 0 0 0 0 127 0" result="hardAlpha"/>
<feOffset dy="3.34654"/>
<feGaussianBlur stdDeviation="3.76486"/>
<feComposite in2="hardAlpha" operator="out"/>
<feColorMatrix type="matrix" values="0 0 0 0 0 0 0 0 0 0 0 0 0 0 0 0 0 0 0.15 0"/>
<feBlend mode="normal" in2="BackgroundImageFix" result="effect1_dropShadow_773_450"/>
<feBlend mode="normal" in="SourceGraphic" in2="effect1_dropShadow_773_450" result="shape"/>
</filter>
<filter id="filter3_d_773_450" x="401.43" y="148.878" width="37.6544" height="37.6545" filterUnits="userSpaceOnUse" color-interpolation-filters="sRGB">
<feFlood flood-opacity="0" result="BackgroundImageFix"/>
<feColorMatrix in="SourceAlpha" type="matrix" values="0 0 0 0 0 0 0 0 0 0 0 0 0 0 0 0 0 0 127 0" result="hardAlpha"/>
<feOffset dy="3.34654"/>
<feGaussianBlur stdDeviation="3.76486"/>
<feComposite in2="hardAlpha" operator="out"/>
<feColorMatrix type="matrix" values="0 0 0 0 0 0 0 0 0 0 0 0 0 0 0 0 0 0 0.15 0"/>
<feBlend mode="normal" in2="BackgroundImageFix" result="effect1_dropShadow_773_450"/>
<feBlend mode="normal" in="SourceGraphic" in2="effect1_dropShadow_773_450" result="shape"/>
</filter>
<filter id="filter4_d_773_450" x="466.855" y="144.702" width="31.838" height="48.4681" filterUnits="userSpaceOnUse" color-interpolation-filters="sRGB">
<feFlood flood-opacity="0" result="BackgroundImageFix"/>
<feColorMatrix in="SourceAlpha" type="matrix" values="0 0 0 0 0 0 0 0 0 0 0 0 0 0 0 0 0 0 127 0" result="hardAlpha"/>
<feOffset dy="3.34654"/>
<feGaussianBlur stdDeviation="3.76486"/>
<feComposite in2="hardAlpha" operator="out"/>
<feColorMatrix type="matrix" values="0 0 0 0 0 0 0 0 0 0 0 0 0 0 0 0 0 0 0.15 0"/>
<feBlend mode="normal" in2="BackgroundImageFix" result="effect1_dropShadow_773_450"/>
<feBlend mode="normal" in="SourceGraphic" in2="effect1_dropShadow_773_450" result="shape"/>
</filter>
<linearGradient id="paint0_linear_773_450" x1="-3.29379" y1="110.562" x2="216.993" y2="497.791" gradientUnits="userSpaceOnUse">
<stop stop-color="#17A38F"/>
<stop offset="1" stop-color="#03C1FF"/>
</linearGradient>
<linearGradient id="paint1_linear_773_450" x1="138.877" y1="155.109" x2="147.427" y2="172.408" gradientUnits="userSpaceOnUse">
<stop stop-color="#FF846E"/>
<stop offset="1" stop-color="#D14028"/>
</linearGradient>
<linearGradient id="paint2_linear_773_450" x1="254.849" y1="195.043" x2="252.381" y2="211.964" gradientUnits="userSpaceOnUse">
<stop stop-color="#FF846E"/>
<stop offset="1" stop-color="#D14028"/>
</linearGradient>
<linearGradient id="paint3_linear_773_450" x1="191.066" y1="229.268" x2="188.598" y2="246.189" gradientUnits="userSpaceOnUse">
<stop stop-color="#FF846E"/>
<stop offset="1" stop-color="#D14028"/>
</linearGradient>
<linearGradient id="paint4_linear_773_450" x1="200.042" y1="184.908" x2="203.233" y2="199.415" gradientUnits="userSpaceOnUse">
<stop stop-color="#FFB65F"/>
<stop offset="1" stop-color="#E63039"/>
</linearGradient>
<linearGradient id="paint5_linear_773_450" x1="181.544" y1="133.692" x2="184.584" y2="147.508" gradientUnits="userSpaceOnUse">
<stop stop-color="#FFB65F"/>
<stop offset="1" stop-color="#E63039"/>
</linearGradient>
<linearGradient id="paint6_linear_773_450" x1="172.15" y1="265.558" x2="173.92" y2="273.605" gradientUnits="userSpaceOnUse">
<stop stop-color="#FFB65F"/>
<stop offset="1" stop-color="#E63039"/>
</linearGradient>
<linearGradient id="paint7_linear_773_450" x1="128.907" y1="226.682" x2="131.647" y2="239.135" gradientUnits="userSpaceOnUse">
<stop stop-color="#FFB65F"/>
<stop offset="1" stop-color="#E63039"/>
</linearGradient>
<linearGradient id="paint8_linear_773_450" x1="229.003" y1="208.167" x2="230.888" y2="216.735" gradientUnits="userSpaceOnUse">
<stop stop-color="#FFB65F"/>
<stop offset="1" stop-color="#FF8A00"/>
</linearGradient>
<linearGradient id="paint9_linear_773_450" x1="183.6" y1="154.453" x2="185.353" y2="162.423" gradientUnits="userSpaceOnUse">
<stop stop-color="#FFB65F"/>
<stop offset="1" stop-color="#FF8A00"/>
</linearGradient>
<linearGradient id="paint10_linear_773_450" x1="437.798" y1="197.25" x2="417.259" y2="215.267" gradientUnits="userSpaceOnUse">
<stop stop-color="#B7FFF5"/>
<stop offset="0.731431" stop-color="#00D0B2"/>
</linearGradient>
<linearGradient id="paint11_linear_773_450" x1="438.649" y1="259.772" x2="430.839" y2="274.299" gradientUnits="userSpaceOnUse">
<stop stop-color="#B7FFF5"/>
<stop offset="0.731431" stop-color="#00D0B2"/>
</linearGradient>
<linearGradient id="paint12_linear_773_450" x1="380.8" y1="167.005" x2="398.839" y2="173.806" gradientUnits="userSpaceOnUse">
<stop stop-color="#17A38F"/>
<stop offset="1" stop-color="#03C1FF"/>
</linearGradient>
<linearGradient id="paint13_linear_773_450" x1="533.666" y1="147.493" x2="533.666" y2="203.338" gradientUnits="userSpaceOnUse">
<stop stop-color="#66FFF1"/>
<stop offset="1" stop-color="#C4C4C4" stop-opacity="0"/>
</linearGradient>
<linearGradient id="paint14_linear_773_450" x1="440.993" y1="186.47" x2="440.993" y2="242.315" gradientUnits="userSpaceOnUse">
<stop stop-color="#66FFF1"/>
<stop offset="1" stop-color="#C4C4C4" stop-opacity="0"/>
</linearGradient>
<linearGradient id="paint15_linear_773_450" x1="413.817" y1="231.015" x2="413.817" y2="261.639" gradientUnits="userSpaceOnUse">
<stop stop-color="#66FFF1"/>
<stop offset="1" stop-color="#C4C4C4" stop-opacity="0"/>
</linearGradient>
<linearGradient id="paint16_linear_773_450" x1="362.071" y1="207.35" x2="362.071" y2="228.405" gradientUnits="userSpaceOnUse">
<stop stop-color="#66FFF1"/>
<stop offset="1" stop-color="#C4C4C4" stop-opacity="0"/>
</linearGradient>
<linearGradient id="paint17_linear_773_450" x1="314.484" y1="191.56" x2="308.387" y2="204.801" gradientUnits="userSpaceOnUse">
<stop stop-color="#B7FFF5"/>
<stop offset="0.731431" stop-color="#00D0B2"/>
</linearGradient>
<linearGradient id="paint18_linear_773_450" x1="541.078" y1="236.583" x2="541.078" y2="292.428" gradientUnits="userSpaceOnUse">
<stop stop-color="#66FFF1"/>
<stop offset="1" stop-color="#C4C4C4" stop-opacity="0"/>
</linearGradient>
</defs>
</svg>
