<svg width="1097" height="578" viewBox="0 0 1097 578" fill="none" xmlns="http://www.w3.org/2000/svg">
<g clip-path="url(#clip0_707_583)">
<rect width="1097" height="578" fill="white"/>
<g filter="url(#filter0_d_707_583)">
<path d="M723.572 356.877L555.531 274.062L539.411 266.109L523.275 274.062L355.234 356.877L444.084 400.663L532.983 444.481L539.444 447.662L545.905 444.481L634.804 400.663L723.638 356.877H723.572Z" fill="url(#paint0_linear_707_583)"/>
<path d="M767.127 426.44L723.604 356.925L634.771 400.71L545.872 444.528L539.411 447.71V538.757L767.127 426.44Z" fill="#E9EEF3"/>
<path d="M539.411 447.71L532.95 444.528L444.051 400.71L355.218 356.925L311.646 426.506L539.411 538.757V447.71Z" fill="white"/>
<path d="M651.712 232.228L539.412 176.897L427.111 232.228L426.882 232.605L522.111 279.539L539.412 288.066L556.713 279.539L651.942 232.605L651.712 232.228Z" fill="url(#paint1_linear_707_583)"/>
<path d="M539.411 288.067L522.11 279.539L426.881 232.605L385.08 299.366L539.411 375.457V288.067Z" fill="white"/>
<path d="M693.742 299.366L651.941 232.605L556.712 279.539L539.411 288.067V375.457L693.742 299.366Z" fill="#E9EEF3"/>
<path d="M453.579 187.672L453.399 187.951L526.177 223.832L539.411 230.342V50.6091L453.579 187.672Z" fill="url(#paint2_linear_707_583)"/>
<path d="M625.243 187.672L539.411 50.6091V230.342L552.628 223.832L625.424 187.951L625.243 187.672Z" fill="#03A18A"/>
</g>
<path d="M56.6825 455.99H42.9647V459.506H47.9724V474.636H51.6482V459.506H56.6825V455.99ZM65.9796 460.945C64.195 460.945 62.8099 461.61 62.0108 462.809V455.99H58.5747V474.636H62.0108V467.444C62.0108 465.126 63.2627 464.141 64.9408 464.141C66.4857 464.141 67.5778 465.073 67.5778 466.884V474.636H71.0139V466.458C71.0139 462.916 68.8031 460.945 65.9796 460.945ZM76.8512 469.388H86.8931C86.973 468.935 87.0263 468.483 87.0263 467.977C87.0263 464.061 84.2295 460.945 80.2873 460.945C76.1054 460.945 73.2553 464.008 73.2553 467.977C73.2553 471.945 76.0787 475.009 80.5536 475.009C83.1107 475.009 85.1085 473.97 86.3604 472.158L83.5902 470.56C83.0042 471.333 81.9387 471.892 80.6069 471.892C78.7956 471.892 77.3306 471.146 76.8512 469.388ZM76.7979 466.725C77.1975 465.02 78.4494 464.034 80.2873 464.034C81.7256 464.034 83.164 464.807 83.5902 466.725H76.7979ZM107.378 459.506V455.99H96.2439V474.636H99.9197V467.444H107.165V463.928H99.9197V459.506H107.378ZM116.236 475.009C120.152 475.009 123.295 471.945 123.295 467.977C123.295 464.008 120.152 460.945 116.236 460.945C112.32 460.945 109.204 464.008 109.204 467.977C109.204 471.945 112.32 475.009 116.236 475.009ZM116.236 471.652C114.212 471.652 112.64 470.134 112.64 467.977C112.64 465.819 114.212 464.301 116.236 464.301C118.287 464.301 119.859 465.819 119.859 467.977C119.859 470.134 118.287 471.652 116.236 471.652ZM134.502 461.317V468.509C134.502 470.827 133.25 471.812 131.572 471.812C130.027 471.812 128.935 470.88 128.935 469.069V461.317H125.499V469.495C125.499 473.037 127.71 475.009 130.533 475.009C132.318 475.009 133.703 474.343 134.502 473.144V474.636H137.938V461.317H134.502ZM148.49 460.945C146.705 460.945 145.32 461.61 144.521 462.809V461.317H141.085V474.636H144.521V467.444C144.521 465.126 145.773 464.141 147.451 464.141C148.996 464.141 150.088 465.073 150.088 466.884V474.636H153.524V466.458C153.524 462.916 151.313 460.945 148.49 460.945ZM166.553 455.99V462.889C165.594 461.664 164.183 460.945 162.238 460.945C158.669 460.945 155.739 464.008 155.739 467.977C155.739 471.945 158.669 475.009 162.238 475.009C164.183 475.009 165.594 474.289 166.553 473.064V474.636H169.989V455.99H166.553ZM162.877 471.732C160.747 471.732 159.175 470.214 159.175 467.977C159.175 465.739 160.747 464.221 162.877 464.221C164.982 464.221 166.553 465.739 166.553 467.977C166.553 470.214 164.982 471.732 162.877 471.732ZM183.254 461.317V462.889C182.295 461.69 180.856 460.945 178.912 460.945C175.369 460.945 172.439 464.008 172.439 467.977C172.439 471.945 175.369 475.009 178.912 475.009C180.856 475.009 182.295 474.263 183.254 473.064V474.636H186.69V461.317H183.254ZM179.551 471.732C177.447 471.732 175.875 470.214 175.875 467.977C175.875 465.739 177.447 464.221 179.551 464.221C181.682 464.221 183.254 465.739 183.254 467.977C183.254 470.214 181.682 471.732 179.551 471.732ZM197.424 464.62V461.317H194.414V457.588L190.978 458.627V461.317H188.66V464.62H190.978V470.161C190.978 473.757 192.602 475.168 197.424 474.636V471.519C195.453 471.626 194.414 471.599 194.414 470.161V464.62H197.424ZM201.551 459.719C202.723 459.719 203.682 458.76 203.682 457.615C203.682 456.47 202.723 455.484 201.551 455.484C200.406 455.484 199.447 456.47 199.447 457.615C199.447 458.76 200.406 459.719 201.551 459.719ZM199.846 474.636H203.282V461.317H199.846V474.636ZM212.767 475.009C216.682 475.009 219.825 471.945 219.825 467.977C219.825 464.008 216.682 460.945 212.767 460.945C208.851 460.945 205.735 464.008 205.735 467.977C205.735 471.945 208.851 475.009 212.767 475.009ZM212.767 471.652C210.742 471.652 209.171 470.134 209.171 467.977C209.171 465.819 210.742 464.301 212.767 464.301C214.818 464.301 216.389 465.819 216.389 467.977C216.389 470.134 214.818 471.652 212.767 471.652ZM229.648 460.945C227.863 460.945 226.478 461.61 225.679 462.809V461.317H222.243V474.636H225.679V467.444C225.679 465.126 226.931 464.141 228.609 464.141C230.154 464.141 231.246 465.073 231.246 466.884V474.636H234.682V466.458C234.682 462.916 232.471 460.945 229.648 460.945Z" fill="#0087FC"/>
<path d="M50.636 505.982C54.445 505.982 57.082 503.904 57.082 500.628C57.082 497.032 54.0188 496.073 50.7692 495.008C48.1588 494.182 46.8537 493.543 46.8537 491.811C46.8537 490.107 48.2387 489.041 50.2365 489.041C52.5006 489.041 53.8057 490.32 54.4717 491.918L56.5493 490.719C55.5105 488.375 53.2997 486.644 50.2365 486.644C47.12 486.644 44.3765 488.562 44.3765 491.918C44.3765 495.381 47.2532 496.313 50.2365 497.272C52.98 498.124 54.6315 498.763 54.6315 500.681C54.6315 502.359 53.3263 503.558 50.6893 503.558C47.9724 503.558 46.3742 502.226 45.7083 500.175L43.5774 501.4C44.5629 504.197 47.0934 505.982 50.636 505.982ZM74.1593 491.971C72.4279 491.971 70.9096 492.717 69.9773 494.235C69.2049 492.797 67.8731 491.971 66.0618 491.971C64.437 491.971 63.0519 492.61 62.093 494.102V492.317H59.7756V505.636H62.093V498.231C62.093 495.354 63.7178 494.182 65.5024 494.182C67.2338 494.182 68.3259 495.327 68.3259 497.432V505.636H70.6433V498.231C70.6433 495.354 72.055 494.182 73.9195 494.182C75.6775 494.182 76.8495 495.327 76.8495 497.432V505.636H79.1669V497.352C79.1669 494.022 77.1159 491.971 74.1593 491.971ZM93.4076 492.317V494.608C92.3421 492.983 90.6374 491.971 88.3733 491.971C84.6708 491.971 81.6343 495.034 81.6343 498.977C81.6343 502.919 84.6708 505.982 88.3733 505.982C90.6374 505.982 92.3421 504.97 93.4076 503.345V505.636H95.7249V492.317H93.4076ZM88.6663 503.744C86.0027 503.744 83.9517 501.693 83.9517 498.977C83.9517 496.26 86.0027 494.209 88.6663 494.209C91.3566 494.209 93.4076 496.26 93.4076 498.977C93.4076 501.693 91.3566 503.744 88.6663 503.744ZM101.553 494.555V492.317H99.2359V505.636H101.553V498.577C101.553 495.434 103.711 494.422 105.709 494.502V492.078C104.03 492.078 102.406 492.69 101.553 494.555ZM115.533 494.555V492.317H111.991V488.588L109.673 489.281V492.317H107.036V494.555H109.673V501.773C109.673 505.103 111.538 506.168 115.533 505.636V503.558C113.163 503.665 111.991 503.798 111.991 501.773V494.555H115.533ZM134.017 505.982C137.48 505.982 140.516 504.171 142.061 501.427L139.904 500.202C138.838 502.226 136.574 503.558 134.017 503.558C129.649 503.558 126.719 500.388 126.719 496.313C126.719 492.211 129.649 489.041 134.017 489.041C136.574 489.041 138.838 490.373 139.904 492.424L142.061 491.172C140.49 488.429 137.453 486.644 134.017 486.644C128.317 486.644 124.268 490.932 124.268 496.313C124.268 501.667 128.317 505.982 134.017 505.982ZM150.835 505.982C154.723 505.982 157.867 502.919 157.867 498.977C157.867 495.034 154.723 491.971 150.835 491.971C146.946 491.971 143.829 495.034 143.829 498.977C143.829 502.919 146.946 505.982 150.835 505.982ZM150.835 503.718C148.198 503.718 146.147 501.667 146.147 498.977C146.147 496.286 148.198 494.235 150.835 494.235C153.498 494.235 155.549 496.286 155.549 498.977C155.549 501.667 153.498 503.718 150.835 503.718ZM167.231 491.971C165.366 491.971 163.901 492.664 162.916 494.235V492.317H160.598V505.636H162.916V498.577C162.916 495.434 164.647 494.182 166.778 494.182C168.829 494.182 170.081 495.407 170.081 497.591V505.636H172.398V497.458C172.398 494.049 170.347 491.971 167.231 491.971ZM184.774 492.317L180.592 503.158L176.41 492.317H173.906L179.234 505.636H181.951L187.278 492.317H184.774ZM190.342 500.042H201.503C201.556 499.696 201.583 499.349 201.583 499.003C201.583 495.274 198.972 491.971 194.95 491.971C190.795 491.971 187.972 495.034 187.972 498.977C187.972 502.972 190.822 505.982 195.11 505.982C197.774 505.982 199.798 504.783 200.97 502.972L198.999 501.853C198.333 502.945 197.001 503.798 195.163 503.798C192.686 503.798 190.795 502.439 190.342 500.042ZM194.95 494.155C196.948 494.155 198.839 495.381 199.239 498.018H190.342C190.715 495.7 192.447 494.155 194.95 494.155ZM206.564 494.555V492.317H204.247V505.636H206.564V498.577C206.564 495.434 208.722 494.422 210.719 494.502V492.078C209.041 492.078 207.416 492.69 206.564 494.555ZM214.49 495.913C214.49 494.715 215.662 494.129 216.861 494.129C218.033 494.129 219.205 494.635 219.711 495.833L221.655 494.741C220.803 493.01 219.045 491.971 216.861 491.971C214.171 491.971 212.146 493.596 212.146 495.94C212.146 500.761 219.604 499.136 219.604 501.986C219.604 503.292 218.379 503.798 216.967 503.798C215.316 503.798 214.091 502.999 213.665 501.72L211.667 502.865C212.439 504.703 214.304 505.982 216.967 505.982C219.818 505.982 221.948 504.464 221.948 501.986C221.948 497.085 214.49 498.763 214.49 495.913ZM225.734 489.894C226.586 489.894 227.279 489.201 227.279 488.349C227.279 487.496 226.586 486.777 225.734 486.777C224.855 486.777 224.163 487.496 224.163 488.349C224.163 489.201 224.855 489.894 225.734 489.894ZM224.562 505.636H226.879V492.317H224.562V505.636ZM236.674 505.982C240.563 505.982 243.706 502.919 243.706 498.977C243.706 495.034 240.563 491.971 236.674 491.971C232.785 491.971 229.669 495.034 229.669 498.977C229.669 502.919 232.785 505.982 236.674 505.982ZM236.674 503.718C234.037 503.718 231.986 501.667 231.986 498.977C231.986 496.286 234.037 494.235 236.674 494.235C239.338 494.235 241.389 496.286 241.389 498.977C241.389 501.667 239.338 503.718 236.674 503.718ZM253.071 491.971C251.206 491.971 249.741 492.664 248.756 494.235V492.317H246.438V505.636H248.756V498.577C248.756 495.434 250.487 494.182 252.618 494.182C254.669 494.182 255.921 495.407 255.921 497.591V505.636H258.238V497.458C258.238 494.049 256.187 491.971 253.071 491.971ZM62.063 517.99H59.2662L53.3529 527.846L47.413 517.99H44.6162V536.636H47.0934V522.092L53.1931 532.214H53.5127L59.6125 522.066V536.636H62.063V517.99ZM76.8379 523.317V525.608C75.7724 523.983 74.0677 522.971 71.8036 522.971C68.1011 522.971 65.0646 526.034 65.0646 529.977C65.0646 533.919 68.1011 536.982 71.8036 536.982C74.0677 536.982 75.7724 535.97 76.8379 534.345V536.636H79.1552V523.317H76.8379ZM72.0966 534.744C69.433 534.744 67.382 532.693 67.382 529.977C67.382 527.26 69.433 525.209 72.0966 525.209C74.7869 525.209 76.8379 527.26 76.8379 529.977C76.8379 532.693 74.7869 534.744 72.0966 534.744ZM89.2987 522.971C87.4342 522.971 85.9692 523.664 84.9836 525.235V523.317H82.6662V536.636H84.9836V529.577C84.9836 526.434 86.715 525.182 88.8459 525.182C90.8969 525.182 92.1488 526.407 92.1488 528.591V536.636H94.4662V528.458C94.4662 525.049 92.4152 522.971 89.2987 522.971ZM108.729 523.317V525.608C107.663 523.983 105.958 522.971 103.694 522.971C99.992 522.971 96.9554 526.034 96.9554 529.977C96.9554 533.919 99.992 536.982 103.694 536.982C105.958 536.982 107.663 535.97 108.729 534.345V536.636H111.046V523.317H108.729ZM103.987 534.744C101.324 534.744 99.2728 532.693 99.2728 529.977C99.2728 527.26 101.324 525.209 103.987 525.209C106.678 525.209 108.729 527.26 108.729 529.977C108.729 532.693 106.678 534.744 103.987 534.744ZM125.611 523.317V525.608C124.546 523.983 122.841 522.971 120.604 522.971C116.821 522.971 113.811 526.034 113.811 529.897C113.811 533.786 116.821 536.849 120.604 536.849C122.841 536.849 124.546 535.81 125.611 534.185V536.076C125.611 538.58 123.933 540.152 121.163 540.152C118.553 540.152 117.434 539.166 116.821 537.914L114.797 539.06C115.889 541.164 118.126 542.309 121.11 542.309C124.572 542.309 127.902 540.232 127.902 536.076V523.317H125.611ZM120.87 534.638C118.18 534.638 116.129 532.587 116.129 529.897C116.129 527.233 118.18 525.182 120.87 525.182C123.56 525.182 125.611 527.233 125.611 529.897C125.611 532.587 123.56 534.638 120.87 534.638ZM133.038 531.042H144.198C144.252 530.696 144.278 530.349 144.278 530.003C144.278 526.274 141.668 522.971 137.646 522.971C133.491 522.971 130.667 526.034 130.667 529.977C130.667 533.972 133.517 536.982 137.806 536.982C140.469 536.982 142.494 535.783 143.666 533.972L141.695 532.853C141.029 533.945 139.697 534.798 137.859 534.798C135.382 534.798 133.491 533.439 133.038 531.042ZM137.646 525.155C139.644 525.155 141.535 526.381 141.934 529.018H133.038C133.411 526.7 135.142 525.155 137.646 525.155ZM161.326 522.971C159.594 522.971 158.076 523.717 157.144 525.235C156.371 523.797 155.04 522.971 153.228 522.971C151.603 522.971 150.218 523.61 149.259 525.102V523.317H146.942V536.636H149.259V529.231C149.259 526.354 150.884 525.182 152.669 525.182C154.4 525.182 155.492 526.327 155.492 528.432V536.636H157.81V529.231C157.81 526.354 159.221 525.182 161.086 525.182C162.844 525.182 164.016 526.327 164.016 528.432V536.636H166.333V528.352C166.333 525.022 164.282 522.971 161.326 522.971ZM171.171 531.042H182.332C182.385 530.696 182.412 530.349 182.412 530.003C182.412 526.274 179.802 522.971 175.779 522.971C171.624 522.971 168.801 526.034 168.801 529.977C168.801 533.972 171.651 536.982 175.939 536.982C178.603 536.982 180.627 535.783 181.799 533.972L179.828 532.853C179.162 533.945 177.83 534.798 175.993 534.798C173.515 534.798 171.624 533.439 171.171 531.042ZM175.779 525.155C177.777 525.155 179.668 526.381 180.068 529.018H171.171C171.544 526.7 173.276 525.155 175.779 525.155ZM191.708 522.971C189.844 522.971 188.379 523.664 187.393 525.235V523.317H185.076V536.636H187.393V529.577C187.393 526.434 189.125 525.182 191.255 525.182C193.306 525.182 194.558 526.407 194.558 528.591V536.636H196.876V528.458C196.876 525.049 194.825 522.971 191.708 522.971ZM207.356 525.555V523.317H203.813V519.588L201.496 520.281V523.317H198.859V525.555H201.496V532.773C201.496 536.103 203.36 537.168 207.356 536.636V534.558C204.985 534.665 203.813 534.798 203.813 532.773V525.555H207.356Z" fill="#2C3543"/>
<path d="M832.075 190.145H818.358V193.661H823.365V208.791H827.041V193.661H832.075V190.145ZM841.373 195.1C839.588 195.1 838.203 195.766 837.404 196.964V190.145H833.968V208.791H837.404V201.599C837.404 199.282 838.656 198.296 840.334 198.296C841.879 198.296 842.971 199.228 842.971 201.04V208.791H846.407V200.614C846.407 197.071 844.196 195.1 841.373 195.1ZM852.244 203.544H862.286C862.366 203.091 862.419 202.638 862.419 202.132C862.419 198.216 859.622 195.1 855.68 195.1C851.498 195.1 848.648 198.163 848.648 202.132C848.648 206.101 851.472 209.164 855.947 209.164C858.504 209.164 860.501 208.125 861.753 206.314L858.983 204.716C858.397 205.488 857.332 206.047 856 206.047C854.189 206.047 852.724 205.302 852.244 203.544ZM852.191 200.88C852.59 199.175 853.842 198.19 855.68 198.19C857.119 198.19 858.557 198.962 858.983 200.88H852.191ZM882.904 199.122C883.996 198.243 884.662 196.991 884.662 195.393C884.662 192.276 882.132 190.145 878.988 190.145H871.637V208.791H879.548C882.771 208.791 885.355 206.58 885.355 203.384C885.355 201.439 884.396 199.974 882.904 199.122ZM878.988 193.582C880.16 193.582 880.986 194.461 880.986 195.633C880.986 196.805 880.134 197.684 878.988 197.684H875.313V193.582H878.988ZM879.548 205.355H875.313V200.96H879.548C880.8 200.96 881.705 201.892 881.705 203.144C881.705 204.423 880.8 205.355 879.548 205.355ZM896.681 195.473V202.665C896.681 204.982 895.429 205.967 893.751 205.967C892.206 205.967 891.114 205.035 891.114 203.224V195.473H887.678V203.65C887.678 207.193 889.888 209.164 892.712 209.164C894.496 209.164 895.882 208.498 896.681 207.299V208.791H900.117V195.473H896.681ZM904.968 193.875C906.14 193.875 907.099 192.916 907.099 191.77C907.099 190.625 906.14 189.639 904.968 189.639C903.823 189.639 902.864 190.625 902.864 191.77C902.864 192.916 903.823 193.875 904.968 193.875ZM903.264 208.791H906.7V195.473H903.264V208.791ZM909.845 208.791H913.281V189.346H909.845V208.791ZM926.521 190.145V197.044C925.562 195.819 924.15 195.1 922.206 195.1C918.637 195.1 915.707 198.163 915.707 202.132C915.707 206.101 918.637 209.164 922.206 209.164C924.15 209.164 925.562 208.445 926.521 207.219V208.791H929.957V190.145H926.521ZM922.845 205.888C920.714 205.888 919.143 204.369 919.143 202.132C919.143 199.894 920.714 198.376 922.845 198.376C924.95 198.376 926.521 199.894 926.521 202.132C926.521 204.369 924.95 205.888 922.845 205.888ZM934.804 193.875C935.976 193.875 936.935 192.916 936.935 191.77C936.935 190.625 935.976 189.639 934.804 189.639C933.659 189.639 932.7 190.625 932.7 191.77C932.7 192.916 933.659 193.875 934.804 193.875ZM933.1 208.791H936.536V195.473H933.1V208.791ZM947.086 195.1C945.301 195.1 943.916 195.766 943.117 196.964V195.473H939.681V208.791H943.117V201.599C943.117 199.282 944.369 198.296 946.047 198.296C947.592 198.296 948.684 199.228 948.684 201.04V208.791H952.12V200.614C952.12 197.071 949.909 195.1 947.086 195.1ZM965.256 195.473V197.124C964.323 195.872 962.885 195.1 960.994 195.1C957.211 195.1 954.361 198.19 954.361 201.919C954.361 205.674 957.211 208.738 960.994 208.738C962.885 208.738 964.323 207.965 965.256 206.713V208.152C965.256 210.256 963.924 211.428 961.766 211.428C959.715 211.428 958.836 210.602 958.277 209.563L955.347 211.241C956.519 213.399 958.81 214.491 961.66 214.491C965.176 214.491 968.612 212.52 968.612 208.152V195.473H965.256ZM961.526 205.568C959.369 205.568 957.797 204.05 957.797 201.919C957.797 199.814 959.369 198.296 961.526 198.296C963.684 198.296 965.256 199.814 965.256 201.919C965.256 204.05 963.684 205.568 961.526 205.568ZM989.814 199.122C990.906 198.243 991.572 196.991 991.572 195.393C991.572 192.276 989.041 190.145 985.898 190.145H978.546V208.791H986.457C989.68 208.791 992.264 206.58 992.264 203.384C992.264 201.439 991.305 199.974 989.814 199.122ZM985.898 193.582C987.07 193.582 987.896 194.461 987.896 195.633C987.896 196.805 987.043 197.684 985.898 197.684H982.222V193.582H985.898ZM986.457 205.355H982.222V200.96H986.457C987.709 200.96 988.615 201.892 988.615 203.144C988.615 204.423 987.709 205.355 986.457 205.355ZM994.514 208.791H997.95V189.346H994.514V208.791ZM1007.43 209.164C1011.35 209.164 1014.49 206.101 1014.49 202.132C1014.49 198.163 1011.35 195.1 1007.43 195.1C1003.52 195.1 1000.4 198.163 1000.4 202.132C1000.4 206.101 1003.52 209.164 1007.43 209.164ZM1007.43 205.808C1005.41 205.808 1003.84 204.289 1003.84 202.132C1003.84 199.974 1005.41 198.456 1007.43 198.456C1009.49 198.456 1011.06 199.974 1011.06 202.132C1011.06 204.289 1009.49 205.808 1007.43 205.808ZM1023.25 209.164C1025.86 209.164 1028.12 207.779 1029.27 205.701L1026.29 203.996C1025.75 205.088 1024.61 205.754 1023.22 205.754C1021.17 205.754 1019.65 204.236 1019.65 202.132C1019.65 200.001 1021.17 198.483 1023.22 198.483C1024.58 198.483 1025.73 199.175 1026.26 200.267L1029.22 198.536C1028.12 196.485 1025.86 195.1 1023.25 195.1C1019.2 195.1 1016.22 198.163 1016.22 202.132C1016.22 206.101 1019.2 209.164 1023.25 209.164ZM1043.37 208.791L1037.85 202.052L1043.21 195.473H1039.1L1034.52 201.333V190.145H1031.09V208.791H1034.52V202.744L1039.37 208.791H1043.37ZM1047.37 199.255C1047.37 198.536 1048.06 198.163 1048.91 198.163C1049.9 198.163 1050.64 198.669 1051.04 199.521L1053.97 197.923C1052.93 196.085 1051.07 195.1 1048.91 195.1C1046.17 195.1 1043.85 196.618 1043.85 199.335C1043.85 204.023 1050.72 202.958 1050.72 204.902C1050.72 205.674 1049.98 206.047 1048.89 206.047C1047.55 206.047 1046.65 205.408 1046.27 204.316L1043.29 205.994C1044.25 208.045 1046.22 209.164 1048.89 209.164C1051.74 209.164 1054.24 207.779 1054.24 204.902C1054.24 200.001 1047.37 201.226 1047.37 199.255Z" fill="#0087FC"/>
<path d="M868.516 240.137C873.924 240.137 878.185 235.822 878.185 230.468C878.185 225.088 873.924 220.799 868.516 220.799C863.109 220.799 858.874 225.088 858.874 230.468C858.874 235.822 863.109 240.137 868.516 240.137ZM868.516 237.713C864.441 237.713 861.325 234.544 861.325 230.468C861.325 226.366 864.441 223.196 868.516 223.196C872.592 223.196 875.708 226.366 875.708 230.468C875.708 234.544 872.592 237.713 868.516 237.713ZM890.243 226.473V233.531C890.243 236.674 888.512 237.926 886.381 237.926C884.33 237.926 883.078 236.701 883.078 234.517V226.473H880.761V234.65C880.761 238.06 882.812 240.137 885.928 240.137C887.793 240.137 889.258 239.445 890.243 237.873V239.791H892.561V226.473H890.243ZM903.334 228.71V226.473H899.791V222.744L897.474 223.436V226.473H894.837V228.71H897.474V235.929C897.474 239.258 899.338 240.324 903.334 239.791V237.713C900.963 237.82 899.791 237.953 899.791 235.929V228.71H903.334ZM906.109 232.732H915.831V230.495H906.109V232.732ZM925.837 240.137C929.726 240.137 932.869 237.074 932.869 233.132C932.869 229.19 929.726 226.126 925.837 226.126C921.948 226.126 918.832 229.19 918.832 233.132C918.832 237.074 921.948 240.137 925.837 240.137ZM925.837 237.873C923.2 237.873 921.149 235.822 921.149 233.132C921.149 230.442 923.2 228.391 925.837 228.391C928.501 228.391 930.552 230.442 930.552 233.132C930.552 235.822 928.501 237.873 925.837 237.873ZM941.952 223.037V220.799C938.143 220.533 936.119 222.531 936.119 226.073V226.473H933.988V228.71H936.119V239.791H938.436V228.71H941.952V226.473H938.436V226.073C938.436 223.756 939.635 222.85 941.952 223.037ZM943.67 232.732H953.393V230.495H943.67V232.732ZM964.098 228.71V226.473H960.555V222.744L958.238 223.436V226.473H955.601V228.71H958.238V235.929C958.238 239.258 960.103 240.324 964.098 239.791V237.713C961.727 237.82 960.555 237.953 960.555 235.929V228.71H964.098ZM973.474 226.126C971.61 226.126 970.145 226.819 969.159 228.391V221.145H966.842V239.791H969.159V232.732C969.159 229.589 970.89 228.337 973.021 228.337C975.072 228.337 976.324 229.563 976.324 231.747V239.791H978.642V231.614C978.642 228.204 976.591 226.126 973.474 226.126ZM983.501 234.197H994.662C994.715 233.851 994.742 233.505 994.742 233.158C994.742 229.429 992.132 226.126 988.11 226.126C983.954 226.126 981.131 229.19 981.131 233.132C981.131 237.127 983.981 240.137 988.269 240.137C990.933 240.137 992.957 238.939 994.129 237.127L992.158 236.009C991.492 237.101 990.161 237.953 988.323 237.953C985.845 237.953 983.954 236.595 983.501 234.197ZM988.11 228.311C990.107 228.311 991.998 229.536 992.398 232.173H983.501C983.874 229.856 985.606 228.311 988.11 228.311ZM997.646 232.732H1007.37V230.495H997.646V232.732ZM1018.47 226.126C1016.2 226.126 1014.5 227.139 1013.43 228.763V221.145H1011.11V239.791H1013.43V237.5C1014.5 239.125 1016.2 240.137 1018.47 240.137C1022.17 240.137 1025.2 237.074 1025.2 233.132C1025.2 229.19 1022.17 226.126 1018.47 226.126ZM1018.17 237.9C1015.48 237.9 1013.43 235.849 1013.43 233.132C1013.43 230.415 1015.48 228.364 1018.17 228.364C1020.84 228.364 1022.89 230.415 1022.89 233.132C1022.89 235.849 1020.84 237.9 1018.17 237.9ZM1034.23 240.137C1038.12 240.137 1041.26 237.074 1041.26 233.132C1041.26 229.19 1038.12 226.126 1034.23 226.126C1030.34 226.126 1027.22 229.19 1027.22 233.132C1027.22 237.074 1030.34 240.137 1034.23 240.137ZM1034.23 237.873C1031.59 237.873 1029.54 235.822 1029.54 233.132C1029.54 230.442 1031.59 228.391 1034.23 228.391C1036.89 228.391 1038.94 230.442 1038.94 233.132C1038.94 235.822 1036.89 237.873 1034.23 237.873ZM1054.62 239.791L1049.53 232.919L1054.32 226.473H1051.61L1048.17 231.107L1044.74 226.473H1041.99L1046.81 232.945L1041.7 239.791H1044.42L1048.17 234.757L1051.9 239.791H1054.62ZM869.027 271.137C872.836 271.137 875.473 269.06 875.473 265.783C875.473 262.187 872.41 261.228 869.16 260.163C866.55 259.337 865.245 258.698 865.245 256.967C865.245 255.262 866.63 254.196 868.627 254.196C870.891 254.196 872.197 255.475 872.863 257.073L874.94 255.875C873.901 253.531 871.691 251.799 868.627 251.799C865.511 251.799 862.767 253.717 862.767 257.073C862.767 260.536 865.644 261.468 868.627 262.427C871.371 263.279 873.022 263.919 873.022 265.837C873.022 267.515 871.717 268.713 869.08 268.713C866.363 268.713 864.765 267.381 864.099 265.33L861.968 266.556C862.954 269.353 865.484 271.137 869.027 271.137ZM891.834 270.791L883.337 261.202L891.568 252.145H888.531L880.753 260.563V252.145H878.276V270.791H880.753V261.841L888.798 270.791H891.834ZM906.657 270.791H909.294L902.342 252.145H899.545L892.593 270.791H895.23L896.748 266.609H905.139L906.657 270.791ZM897.601 264.292L900.93 255.102L904.286 264.292H897.601ZM923.08 252.145V266.05L913.491 252.145H911.494V270.791H913.971V256.86L923.56 270.791H925.558V252.145H923.08ZM947.259 270.791H950.003L945.608 263.333C947.845 262.534 949.47 260.376 949.47 257.926C949.47 254.729 946.86 252.145 943.663 252.145H936.205V270.791H938.682V263.652H943.077L947.259 270.791ZM938.682 254.463H943.663C945.501 254.463 946.993 256.008 946.993 257.926C946.993 259.843 945.501 261.415 943.663 261.415H938.682V254.463ZM953.197 265.197H964.358C964.411 264.851 964.438 264.505 964.438 264.158C964.438 260.429 961.828 257.126 957.805 257.126C953.65 257.126 950.827 260.19 950.827 264.132C950.827 268.127 953.677 271.137 957.965 271.137C960.629 271.137 962.653 269.939 963.825 268.127L961.854 267.009C961.188 268.101 959.856 268.953 958.019 268.953C955.541 268.953 953.65 267.595 953.197 265.197ZM957.805 259.311C959.803 259.311 961.694 260.536 962.094 263.173H953.197C953.57 260.856 955.302 259.311 957.805 259.311ZM974.453 257.126C972.189 257.126 970.485 258.139 969.419 259.763V257.473H967.102V276.118H969.419V268.5C970.485 270.125 972.189 271.137 974.453 271.137C978.156 271.137 981.192 268.074 981.192 264.132C981.192 260.19 978.156 257.126 974.453 257.126ZM974.16 268.9C971.47 268.9 969.419 266.849 969.419 264.132C969.419 261.415 971.47 259.364 974.16 259.364C976.824 259.364 978.875 261.415 978.875 264.132C978.875 266.849 976.824 268.9 974.16 268.9ZM990.217 271.137C994.106 271.137 997.249 268.074 997.249 264.132C997.249 260.19 994.106 257.126 990.217 257.126C986.328 257.126 983.212 260.19 983.212 264.132C983.212 268.074 986.328 271.137 990.217 271.137ZM990.217 268.873C987.58 268.873 985.529 266.822 985.529 264.132C985.529 261.442 987.58 259.391 990.217 259.391C992.881 259.391 994.932 261.442 994.932 264.132C994.932 266.822 992.881 268.873 990.217 268.873ZM1002.3 259.71V257.473H999.981V270.791H1002.3V263.732C1002.3 260.589 1004.46 259.577 1006.45 259.657V257.233C1004.78 257.233 1003.15 257.846 1002.3 259.71ZM1016.28 259.71V257.473H1012.74V253.744L1010.42 254.436V257.473H1007.78V259.71H1010.42V266.929C1010.42 270.258 1012.28 271.324 1016.28 270.791V268.713C1013.91 268.82 1012.74 268.953 1012.74 266.929V259.71H1016.28ZM1020.19 255.049C1021.05 255.049 1021.74 254.356 1021.74 253.504C1021.74 252.652 1021.05 251.932 1020.19 251.932C1019.31 251.932 1018.62 252.652 1018.62 253.504C1018.62 254.356 1019.31 255.049 1020.19 255.049ZM1019.02 270.791H1021.34V257.473H1019.02V270.791ZM1031.51 257.126C1029.64 257.126 1028.18 257.819 1027.19 259.391V257.473H1024.87V270.791H1027.19V263.732C1027.19 260.589 1028.92 259.337 1031.05 259.337C1033.11 259.337 1034.36 260.563 1034.36 262.747V270.791H1036.67V262.614C1036.67 259.204 1034.62 257.126 1031.51 257.126ZM1050.96 257.473V259.763C1049.9 258.139 1048.19 257.126 1045.96 257.126C1042.17 257.126 1039.16 260.19 1039.16 264.052C1039.16 267.941 1042.17 271.004 1045.96 271.004C1048.19 271.004 1049.9 269.965 1050.96 268.34V270.232C1050.96 272.735 1049.29 274.307 1046.52 274.307C1043.91 274.307 1042.79 273.321 1042.17 272.069L1040.15 273.215C1041.24 275.319 1043.48 276.464 1046.46 276.464C1049.92 276.464 1053.25 274.387 1053.25 270.232V257.473H1050.96ZM1046.22 268.793C1043.53 268.793 1041.48 266.742 1041.48 264.052C1041.48 261.388 1043.53 259.337 1046.22 259.337C1048.91 259.337 1050.96 261.388 1050.96 264.052C1050.96 266.742 1048.91 268.793 1046.22 268.793Z" fill="#2C3543"/>
<path d="M56.6825 70.2819H42.9647V73.7979H47.9724V88.9274H51.6482V73.7979H56.6825V70.2819ZM65.9796 75.2363C64.195 75.2363 62.8099 75.9022 62.0108 77.1008V70.2819H58.5747V88.9274H62.0108V81.7355C62.0108 79.4182 63.2627 78.4326 64.9408 78.4326C66.4857 78.4326 67.5778 79.3649 67.5778 81.1762V88.9274H71.0139V80.75C71.0139 77.2074 68.8031 75.2363 65.9796 75.2363ZM76.8512 83.68H86.8931C86.973 83.2272 87.0263 82.7744 87.0263 82.2683C87.0263 78.3527 84.2295 75.2363 80.2873 75.2363C76.1054 75.2363 73.2553 78.2995 73.2553 82.2683C73.2553 86.2371 76.0787 89.3003 80.5536 89.3003C83.1107 89.3003 85.1085 88.2615 86.3604 86.4502L83.5902 84.852C83.0042 85.6245 81.9387 86.1838 80.6069 86.1838C78.7956 86.1838 77.3306 85.438 76.8512 83.68ZM76.7979 81.0164C77.1975 79.3116 78.4494 78.3261 80.2873 78.3261C81.7256 78.3261 83.164 79.0985 83.5902 81.0164H76.7979ZM108.23 88.9274H112.226L105.673 70.2819H101.118L94.5925 88.9274H98.5613L99.68 85.5712H107.112L108.23 88.9274ZM100.852 82.1351L103.409 74.5171L105.966 82.1351H100.852ZM123.607 70.2819V77.1807C122.648 75.9555 121.237 75.2363 119.292 75.2363C115.723 75.2363 112.793 78.2995 112.793 82.2683C112.793 86.2371 115.723 89.3003 119.292 89.3003C121.237 89.3003 122.648 88.5811 123.607 87.3558V88.9274H127.043V70.2819H123.607ZM119.932 86.024C117.801 86.024 116.229 84.5057 116.229 82.2683C116.229 80.0308 117.801 78.5125 119.932 78.5125C122.036 78.5125 123.607 80.0308 123.607 82.2683C123.607 84.5057 122.036 86.024 119.932 86.024ZM138.949 75.6092L135.7 84.9319L132.477 75.6092H128.694L133.755 88.9274H137.671L142.732 75.6092H138.949ZM153.99 75.6092V77.1807C153.031 75.9821 151.593 75.2363 149.648 75.2363C146.106 75.2363 143.176 78.2995 143.176 82.2683C143.176 86.2371 146.106 89.3003 149.648 89.3003C151.593 89.3003 153.031 88.5545 153.99 87.3558V88.9274H157.426V75.6092H153.99ZM150.288 86.024C148.183 86.024 146.612 84.5057 146.612 82.2683C146.612 80.0308 148.183 78.5125 150.288 78.5125C152.419 78.5125 153.99 80.0308 153.99 82.2683C153.99 84.5057 152.419 86.024 150.288 86.024ZM167.947 75.2363C166.162 75.2363 164.777 75.9022 163.978 77.1008V75.6092H160.542V88.9274H163.978V81.7355C163.978 79.4182 165.23 78.4326 166.908 78.4326C168.453 78.4326 169.545 79.3649 169.545 81.1762V88.9274H172.981V80.75C172.981 77.2074 170.77 75.2363 167.947 75.2363ZM182.255 89.3003C184.865 89.3003 187.129 87.9152 188.274 85.8375L185.291 84.1328C184.758 85.2249 183.613 85.8908 182.228 85.8908C180.177 85.8908 178.659 84.3725 178.659 82.2683C178.659 80.1374 180.177 78.6191 182.228 78.6191C183.586 78.6191 184.732 79.3116 185.265 80.4037L188.221 78.6724C187.129 76.6214 184.865 75.2363 182.255 75.2363C178.206 75.2363 175.223 78.2995 175.223 82.2683C175.223 86.2371 178.206 89.3003 182.255 89.3003ZM192.787 83.68H202.829C202.909 83.2272 202.962 82.7744 202.962 82.2683C202.962 78.3527 200.165 75.2363 196.223 75.2363C192.041 75.2363 189.191 78.2995 189.191 82.2683C189.191 86.2371 192.015 89.3003 196.489 89.3003C199.047 89.3003 201.044 88.2615 202.296 86.4502L199.526 84.852C198.94 85.6245 197.875 86.1838 196.543 86.1838C194.731 86.1838 193.266 85.438 192.787 83.68ZM192.734 81.0164C193.133 79.3116 194.385 78.3261 196.223 78.3261C197.661 78.3261 199.1 79.0985 199.526 81.0164H192.734ZM215.352 70.2819V77.1807C214.393 75.9555 212.981 75.2363 211.037 75.2363C207.468 75.2363 204.538 78.2995 204.538 82.2683C204.538 86.2371 207.468 89.3003 211.037 89.3003C212.981 89.3003 214.393 88.5811 215.352 87.3558V88.9274H218.788V70.2819H215.352ZM211.676 86.024C209.545 86.024 207.974 84.5057 207.974 82.2683C207.974 80.0308 209.545 78.5125 211.676 78.5125C213.78 78.5125 215.352 80.0308 215.352 82.2683C215.352 84.5057 213.78 86.024 211.676 86.024ZM235.116 89.3003C239.084 89.3003 241.881 87.1694 241.881 83.68C241.881 79.871 238.738 78.8855 235.781 77.9532C232.958 77.1008 232.239 76.4882 232.239 75.3428C232.239 74.2774 233.144 73.4783 234.689 73.4783C236.581 73.4783 237.593 74.4638 238.259 75.8755L241.348 74.0909C240.097 71.4805 237.753 69.909 234.689 69.909C231.493 69.909 228.563 71.9334 228.563 75.4494C228.563 78.992 231.333 80.1906 234.183 81.0164C236.953 81.8155 238.205 82.3482 238.205 83.7333C238.205 84.7721 237.433 85.7044 235.222 85.7044C232.905 85.7044 231.6 84.5856 230.934 82.8543L227.791 84.6922C228.803 87.4624 231.307 89.3003 235.116 89.3003ZM252.909 75.6092V82.801C252.909 85.1184 251.657 86.1039 249.979 86.1039C248.434 86.1039 247.342 85.1716 247.342 83.3604V75.6092H243.906V83.7865C243.906 87.3292 246.117 89.3003 248.94 89.3003C250.725 89.3003 252.11 88.6344 252.909 87.4357V88.9274H256.345V75.6092H252.909ZM261.197 74.011C262.369 74.011 263.328 73.0521 263.328 71.9067C263.328 70.7614 262.369 69.7758 261.197 69.7758C260.051 69.7758 259.092 70.7614 259.092 71.9067C259.092 73.0521 260.051 74.011 261.197 74.011ZM259.492 88.9274H262.928V75.6092H259.492V88.9274ZM273.691 78.9121V75.6092H270.681V71.8801L267.245 72.9189V75.6092H264.928V78.9121H267.245V84.4525C267.245 88.0484 268.87 89.4601 273.691 88.9274V85.8109C271.72 85.9175 270.681 85.8908 270.681 84.4525V78.9121H273.691ZM278.601 83.68H288.643C288.723 83.2272 288.776 82.7744 288.776 82.2683C288.776 78.3527 285.979 75.2363 282.037 75.2363C277.855 75.2363 275.005 78.2995 275.005 82.2683C275.005 86.2371 277.828 89.3003 282.303 89.3003C284.86 89.3003 286.858 88.2615 288.11 86.4502L285.34 84.852C284.754 85.6245 283.688 86.1838 282.357 86.1838C280.545 86.1838 279.08 85.438 278.601 83.68ZM278.548 81.0164C278.947 79.3116 280.199 78.3261 282.037 78.3261C283.475 78.3261 284.914 79.0985 285.34 81.0164H278.548Z" fill="#0087FC"/>
<path d="M51.8879 101.282H44.6162V119.927H51.8879C57.0287 119.927 60.7312 115.772 60.7312 110.605C60.7312 105.437 57.0287 101.282 51.8879 101.282ZM51.8879 117.583H47.0934V103.626H51.8879C55.7236 103.626 58.3606 106.662 58.3606 110.605C58.3606 114.547 55.7236 117.583 51.8879 117.583ZM74.5228 106.609V108.9C73.4573 107.275 71.7526 106.263 69.4885 106.263C65.7861 106.263 62.7495 109.326 62.7495 113.268C62.7495 117.21 65.7861 120.274 69.4885 120.274C71.7526 120.274 73.4573 119.261 74.5228 117.637V119.927H76.8402V106.609H74.5228ZM69.7815 118.036C67.1179 118.036 65.0669 115.985 65.0669 113.268C65.0669 110.551 67.1179 108.5 69.7815 108.5C72.4718 108.5 74.5228 110.551 74.5228 113.268C74.5228 115.985 72.4718 118.036 69.7815 118.036ZM87.5963 108.847V106.609H84.0536V102.88L81.7363 103.573V106.609H79.0993V108.847H81.7363V116.065C81.7363 119.395 83.6008 120.46 87.5963 119.927V117.85C85.2256 117.956 84.0536 118.089 84.0536 116.065V108.847H87.5963ZM100.691 106.609V108.9C99.6255 107.275 97.9208 106.263 95.6567 106.263C91.9542 106.263 88.9177 109.326 88.9177 113.268C88.9177 117.21 91.9542 120.274 95.6567 120.274C97.9208 120.274 99.6255 119.261 100.691 117.637V119.927H103.008V106.609H100.691ZM95.9497 118.036C93.286 118.036 91.235 115.985 91.235 113.268C91.235 110.551 93.286 108.5 95.9497 108.5C98.64 108.5 100.691 110.551 100.691 113.268C100.691 115.985 98.64 118.036 95.9497 118.036ZM106.759 112.869H116.481V110.631H106.759V112.869ZM122.225 110.205C122.225 109.006 123.397 108.42 124.596 108.42C125.768 108.42 126.94 108.927 127.446 110.125L129.391 109.033C128.538 107.302 126.78 106.263 124.596 106.263C121.906 106.263 119.881 107.888 119.881 110.232C119.881 115.053 127.34 113.428 127.34 116.278C127.34 117.583 126.114 118.089 124.703 118.089C123.051 118.089 121.826 117.29 121.4 116.012L119.402 117.157C120.174 118.995 122.039 120.274 124.703 120.274C127.553 120.274 129.684 118.755 129.684 116.278C129.684 111.377 122.225 113.055 122.225 110.205ZM138.323 120.274C140.933 120.274 143.197 118.889 144.316 116.811L142.345 115.666C141.599 117.051 140.134 117.983 138.323 117.983C135.659 117.983 133.635 115.932 133.635 113.268C133.635 110.578 135.659 108.527 138.323 108.527C140.107 108.527 141.599 109.459 142.265 110.871L144.209 109.752C143.197 107.648 140.96 106.263 138.323 106.263C134.301 106.263 131.317 109.326 131.317 113.268C131.317 117.21 134.301 120.274 138.323 120.274ZM147.776 104.185C148.628 104.185 149.321 103.493 149.321 102.64C149.321 101.788 148.628 101.069 147.776 101.069C146.897 101.069 146.204 101.788 146.204 102.64C146.204 103.493 146.897 104.185 147.776 104.185ZM146.604 119.927H148.921V106.609H146.604V119.927ZM154.081 114.334H165.242C165.295 113.987 165.322 113.641 165.322 113.295C165.322 109.566 162.712 106.263 158.69 106.263C154.534 106.263 151.711 109.326 151.711 113.268C151.711 117.264 154.561 120.274 158.849 120.274C161.513 120.274 163.537 119.075 164.709 117.264L162.738 116.145C162.072 117.237 160.741 118.089 158.903 118.089C156.425 118.089 154.534 116.731 154.081 114.334ZM158.69 108.447C160.687 108.447 162.578 109.672 162.978 112.309H154.081C154.454 109.992 156.186 108.447 158.69 108.447ZM174.618 106.263C172.754 106.263 171.289 106.955 170.303 108.527V106.609H167.986V119.927H170.303V112.869C170.303 109.726 172.035 108.474 174.165 108.474C176.216 108.474 177.468 109.699 177.468 111.883V119.927H179.786V111.75C179.786 108.341 177.735 106.263 174.618 106.263ZM189.28 120.274C191.891 120.274 194.155 118.889 195.274 116.811L193.302 115.666C192.557 117.051 191.092 117.983 189.28 117.983C186.617 117.983 184.592 115.932 184.592 113.268C184.592 110.578 186.617 108.527 189.28 108.527C191.065 108.527 192.557 109.459 193.223 110.871L195.167 109.752C194.155 107.648 191.917 106.263 189.28 106.263C185.258 106.263 182.275 109.326 182.275 113.268C182.275 117.21 185.258 120.274 189.28 120.274ZM199.004 114.334H210.165C210.218 113.987 210.245 113.641 210.245 113.295C210.245 109.566 207.635 106.263 203.612 106.263C199.457 106.263 196.634 109.326 196.634 113.268C196.634 117.264 199.484 120.274 203.772 120.274C206.436 120.274 208.46 119.075 209.632 117.264L207.661 116.145C206.995 117.237 205.663 118.089 203.826 118.089C201.348 118.089 199.457 116.731 199.004 114.334ZM203.612 108.447C205.61 108.447 207.501 109.672 207.901 112.309H199.004C199.377 109.992 201.109 108.447 203.612 108.447ZM226.919 106.263C224.655 106.263 222.951 107.275 221.885 108.9V106.609H219.568V125.255H221.885V117.637C222.951 119.261 224.655 120.274 226.919 120.274C230.622 120.274 233.658 117.21 233.658 113.268C233.658 109.326 230.622 106.263 226.919 106.263ZM226.626 118.036C223.936 118.036 221.885 115.985 221.885 113.268C221.885 110.551 223.936 108.5 226.626 108.5C229.29 108.5 231.341 110.551 231.341 113.268C231.341 115.985 229.29 118.036 226.626 118.036ZM242.683 120.274C246.572 120.274 249.715 117.21 249.715 113.268C249.715 109.326 246.572 106.263 242.683 106.263C238.794 106.263 235.678 109.326 235.678 113.268C235.678 117.21 238.794 120.274 242.683 120.274ZM242.683 118.01C240.046 118.01 237.995 115.959 237.995 113.268C237.995 110.578 240.046 108.527 242.683 108.527C245.347 108.527 247.398 110.578 247.398 113.268C247.398 115.959 245.347 118.01 242.683 118.01ZM267.616 106.609L264.686 116.758L261.543 106.609H259.305L256.162 116.731L253.232 106.609H250.808L254.937 119.927H257.307L260.424 110.072L263.54 119.927H265.911L270.04 106.609H267.616ZM273.529 114.334H284.69C284.743 113.987 284.769 113.641 284.769 113.295C284.769 109.566 282.159 106.263 278.137 106.263C273.982 106.263 271.158 109.326 271.158 113.268C271.158 117.264 274.008 120.274 278.297 120.274C280.96 120.274 282.985 119.075 284.157 117.264L282.186 116.145C281.52 117.237 280.188 118.089 278.35 118.089C275.873 118.089 273.982 116.731 273.529 114.334ZM278.137 108.447C280.135 108.447 282.026 109.672 282.425 112.309H273.529C273.902 109.992 275.633 108.447 278.137 108.447ZM289.751 108.847V106.609H287.433V119.927H289.751V112.869C289.751 109.726 291.908 108.713 293.906 108.793V106.369C292.228 106.369 290.603 106.982 289.751 108.847ZM297.07 114.334H308.23C308.284 113.987 308.31 113.641 308.31 113.295C308.31 109.566 305.7 106.263 301.678 106.263C297.523 106.263 294.699 109.326 294.699 113.268C294.699 117.264 297.549 120.274 301.838 120.274C304.501 120.274 306.526 119.075 307.698 117.264L305.727 116.145C305.061 117.237 303.729 118.089 301.891 118.089C299.414 118.089 297.523 116.731 297.07 114.334ZM301.678 108.447C303.676 108.447 305.567 109.672 305.966 112.309H297.07C297.443 109.992 299.174 108.447 301.678 108.447ZM321.976 101.282V108.9C320.91 107.275 319.205 106.263 316.941 106.263C313.239 106.263 310.202 109.326 310.202 113.268C310.202 117.21 313.239 120.274 316.941 120.274C319.205 120.274 320.91 119.261 321.976 117.637V119.927H324.293V101.282H321.976ZM317.234 118.036C314.571 118.036 312.52 115.985 312.52 113.268C312.52 110.551 314.571 108.5 317.234 108.5C319.925 108.5 321.976 110.551 321.976 113.268C321.976 115.985 319.925 118.036 317.234 118.036ZM56.8956 150.927H59.5326L52.5805 132.282H49.7837L42.8316 150.927H45.4686L46.9868 146.745H55.3773L56.8956 150.927ZM47.8392 144.428L51.1687 135.239L54.5249 144.428H47.8392ZM68.1249 137.263C66.2603 137.263 64.7953 137.955 63.8098 139.527V137.609H61.4924V150.927H63.8098V143.869C63.8098 140.726 65.5411 139.474 67.6721 139.474C69.7231 139.474 70.975 140.699 70.975 142.883V150.927H73.2923V142.75C73.2923 139.341 71.2413 137.263 68.1249 137.263ZM87.5549 137.609V139.9C86.4894 138.275 84.7847 137.263 82.5206 137.263C78.8181 137.263 75.7816 140.326 75.7816 144.268C75.7816 148.21 78.8181 151.274 82.5206 151.274C84.7847 151.274 86.4894 150.261 87.5549 148.637V150.927H89.8722V137.609H87.5549ZM82.8136 149.036C80.1499 149.036 78.0989 146.985 78.0989 144.268C78.0989 141.551 80.1499 139.5 82.8136 139.5C85.5039 139.5 87.5549 141.551 87.5549 144.268C87.5549 146.985 85.5039 149.036 82.8136 149.036ZM93.3832 150.927H95.7006V131.483H93.3832V150.927ZM108.532 137.609L104.696 148.051L100.168 137.609H97.691L103.498 150.874L103.258 151.38C102.565 153.138 101.447 154.23 99.6621 154.097V156.255C102.379 156.441 104.457 154.736 105.575 151.753L111.009 137.609H108.532ZM120.189 139.847V137.609H116.647V133.88L114.329 134.573V137.609H111.692V139.847H114.329V147.065C114.329 150.395 116.194 151.46 120.189 150.927V148.85C117.819 148.956 116.647 149.089 116.647 147.065V139.847H120.189ZM124.105 135.185C124.957 135.185 125.65 134.493 125.65 133.64C125.65 132.788 124.957 132.069 124.105 132.069C123.226 132.069 122.533 132.788 122.533 133.64C122.533 134.493 123.226 135.185 124.105 135.185ZM122.933 150.927H125.25V137.609H122.933V150.927ZM135.045 151.274C137.656 151.274 139.92 149.889 141.038 147.811L139.067 146.666C138.321 148.051 136.856 148.983 135.045 148.983C132.382 148.983 130.357 146.932 130.357 144.268C130.357 141.578 132.382 139.527 135.045 139.527C136.83 139.527 138.321 140.459 138.987 141.871L140.932 140.752C139.92 138.648 137.682 137.263 135.045 137.263C131.023 137.263 128.04 140.326 128.04 144.268C128.04 148.21 131.023 151.274 135.045 151.274ZM145.22 141.205C145.22 140.006 146.392 139.42 147.591 139.42C148.763 139.42 149.935 139.927 150.441 141.125L152.385 140.033C151.533 138.302 149.775 137.263 147.591 137.263C144.9 137.263 142.876 138.888 142.876 141.232C142.876 146.053 150.334 144.428 150.334 147.278C150.334 148.583 149.109 149.089 147.697 149.089C146.046 149.089 144.821 148.29 144.394 147.012L142.397 148.157C143.169 149.995 145.034 151.274 147.697 151.274C150.547 151.274 152.678 149.755 152.678 147.278C152.678 142.377 145.22 144.055 145.22 141.205ZM177.344 150.155L174.867 147.518C175.586 146.319 176.065 144.934 176.305 143.549L174.174 142.324C173.988 143.629 173.668 144.774 173.215 145.707L168.128 140.273C167.195 139.287 166.476 138.382 166.476 137.103C166.476 135.425 167.861 134.333 169.539 134.333C171.137 134.333 172.443 135.318 172.975 136.943L175.053 135.745C174.147 133.321 171.937 131.936 169.486 131.936C166.583 131.936 163.999 133.933 163.999 137.13C163.999 138.595 164.505 139.634 165.198 140.513C162.907 141.658 161.788 143.682 161.788 145.893C161.788 149.223 164.372 151.274 168.048 151.274C170.338 151.274 172.096 150.528 173.375 149.329L175.266 151.354L177.344 150.155ZM168.101 148.93C165.677 148.93 164.265 147.704 164.265 145.733C164.265 144.455 164.905 142.99 166.742 142.217L171.777 147.624C170.818 148.477 169.593 148.93 168.101 148.93ZM195.273 151.274C200.68 151.274 204.942 146.959 204.942 141.605C204.942 136.224 200.68 131.936 195.273 131.936C189.866 131.936 185.631 136.224 185.631 141.605C185.631 146.959 189.866 151.274 195.273 151.274ZM195.273 148.85C191.198 148.85 188.081 145.68 188.081 141.605C188.081 137.503 191.198 134.333 195.273 134.333C199.348 134.333 202.465 137.503 202.465 141.605C202.465 145.68 199.348 148.85 195.273 148.85ZM215.032 137.263C212.768 137.263 211.063 138.275 209.998 139.9V137.609H207.68V156.255H209.998V148.637C211.063 150.261 212.768 151.274 215.032 151.274C218.734 151.274 221.771 148.21 221.771 144.268C221.771 140.326 218.734 137.263 215.032 137.263ZM214.739 149.036C212.049 149.036 209.998 146.985 209.998 144.268C209.998 141.551 212.049 139.5 214.739 139.5C217.403 139.5 219.454 141.551 219.454 144.268C219.454 146.985 217.403 149.036 214.739 149.036ZM231.495 139.847V137.609H227.952V133.88L225.635 134.573V137.609H222.998V139.847H225.635V147.065C225.635 150.395 227.5 151.46 231.495 150.927V148.85C229.124 148.956 227.952 149.089 227.952 147.065V139.847H231.495ZM235.411 135.185C236.263 135.185 236.956 134.493 236.956 133.64C236.956 132.788 236.263 132.069 235.411 132.069C234.532 132.069 233.839 132.788 233.839 133.64C233.839 134.493 234.532 135.185 235.411 135.185ZM234.239 150.927H236.556V137.609H234.239V150.927ZM254.475 137.263C252.744 137.263 251.225 138.009 250.293 139.527C249.521 138.089 248.189 137.263 246.378 137.263C244.753 137.263 243.368 137.902 242.409 139.394V137.609H240.091V150.927H242.409V143.522C242.409 140.646 244.034 139.474 245.818 139.474C247.55 139.474 248.642 140.619 248.642 142.723V150.927H250.959V143.522C250.959 140.646 252.371 139.474 254.235 139.474C255.993 139.474 257.165 140.619 257.165 142.723V150.927H259.483V142.643C259.483 139.314 257.432 137.263 254.475 137.263ZM263.868 135.185C264.72 135.185 265.413 134.493 265.413 133.64C265.413 132.788 264.72 132.069 263.868 132.069C262.989 132.069 262.296 132.788 262.296 133.64C262.296 134.493 262.989 135.185 263.868 135.185ZM262.696 150.927H265.013V137.609H262.696V150.927ZM271.239 148.717L278.058 139.154V137.609H268.335V139.82H274.861L268.069 149.382V150.927H278.324V148.717H271.239ZM291.281 137.609V139.9C290.216 138.275 288.511 137.263 286.247 137.263C282.545 137.263 279.508 140.326 279.508 144.268C279.508 148.21 282.545 151.274 286.247 151.274C288.511 151.274 290.216 150.261 291.281 148.637V150.927H293.599V137.609H291.281ZM286.54 149.036C283.877 149.036 281.826 146.985 281.826 144.268C281.826 141.551 283.877 139.5 286.54 139.5C289.23 139.5 291.281 141.551 291.281 144.268C291.281 146.985 289.23 149.036 286.54 149.036ZM304.355 139.847V137.609H300.812V133.88L298.495 134.573V137.609H295.858V139.847H298.495V147.065C298.495 150.395 300.359 151.46 304.355 150.927V148.85C301.984 148.956 300.812 149.089 300.812 147.065V139.847H304.355ZM308.27 135.185C309.123 135.185 309.815 134.493 309.815 133.64C309.815 132.788 309.123 132.069 308.27 132.069C307.391 132.069 306.699 132.788 306.699 133.64C306.699 134.493 307.391 135.185 308.27 135.185ZM307.098 150.927H309.416V137.609H307.098V150.927ZM319.211 151.274C323.1 151.274 326.243 148.21 326.243 144.268C326.243 140.326 323.1 137.263 319.211 137.263C315.322 137.263 312.205 140.326 312.205 144.268C312.205 148.21 315.322 151.274 319.211 151.274ZM319.211 149.01C316.574 149.01 314.523 146.959 314.523 144.268C314.523 141.578 316.574 139.527 319.211 139.527C321.874 139.527 323.925 141.578 323.925 144.268C323.925 146.959 321.874 149.01 319.211 149.01ZM335.607 137.263C333.742 137.263 332.277 137.955 331.292 139.527V137.609H328.975V150.927H331.292V143.869C331.292 140.726 333.023 139.474 335.154 139.474C337.205 139.474 338.457 140.699 338.457 142.883V150.927H340.774V142.75C340.774 139.341 338.723 137.263 335.607 137.263ZM346.007 141.205C346.007 140.006 347.179 139.42 348.378 139.42C349.55 139.42 350.722 139.927 351.228 141.125L353.172 140.033C352.32 138.302 350.562 137.263 348.378 137.263C345.688 137.263 343.663 138.888 343.663 141.232C343.663 146.053 351.121 144.428 351.121 147.278C351.121 148.583 349.896 149.089 348.484 149.089C346.833 149.089 345.608 148.29 345.182 147.012L343.184 148.157C343.956 149.995 345.821 151.274 348.484 151.274C351.335 151.274 353.465 149.755 353.465 147.278C353.465 142.377 346.007 144.055 346.007 141.205Z" fill="#2C3543"/>
<path d="M121.576 386.218L121.176 384.948L121.576 386.218ZM286.221 386.771C286.526 386.102 286.231 385.312 285.562 385.007L274.657 380.032C273.988 379.727 273.198 380.022 272.893 380.691C272.587 381.36 272.882 382.15 273.551 382.455L283.245 386.877L278.823 396.571C278.517 397.24 278.812 398.03 279.482 398.335C280.151 398.641 280.941 398.346 281.246 397.676L286.221 386.771ZM86.5326 418.498C87.3479 415.06 90.5602 409.069 96.4651 403.018C102.338 397 110.794 391.009 121.976 387.489L121.176 384.948C109.529 388.615 100.703 394.861 94.5588 401.157C88.446 407.421 84.9036 413.823 83.9408 417.884L86.5326 418.498ZM121.976 387.489C132.624 384.137 142.716 384.395 153.27 386.227C163.919 388.075 174.768 391.458 187.264 394.35C212.142 400.107 242.36 403.567 285.475 387.466L284.543 384.971C242.042 400.842 212.38 397.428 187.864 391.755C175.663 388.931 164.437 385.461 153.725 383.602C142.918 381.727 132.365 381.426 121.176 384.948L121.976 387.489Z" fill="#E64068"/>
<path d="M943.055 304.655C943.641 304.211 943.756 303.376 943.312 302.789C942.867 302.203 942.032 302.089 941.446 302.533L943.055 304.655ZM814.177 303.594L813.322 304.615L814.177 303.594ZM720.904 265.422C720.384 265.942 720.384 266.785 720.904 267.305L729.379 275.781C729.899 276.301 730.743 276.301 731.263 275.781C731.783 275.261 731.783 274.418 731.263 273.898L723.729 266.364L731.263 258.83C731.783 258.31 731.783 257.466 731.263 256.946C730.743 256.426 729.899 256.426 729.379 256.946L720.904 265.422ZM941.446 302.533C929.6 311.516 911.567 322.906 889.733 326.367C867.969 329.818 842.294 325.414 815.033 302.573L813.322 304.615C841.162 327.941 867.61 332.571 890.15 328.998C912.621 325.436 931.073 313.742 943.055 304.655L941.446 302.533ZM815.033 302.573C794.188 285.109 778.038 275.697 763.48 270.669C748.911 265.637 736.032 265.032 721.845 265.032V267.695C735.954 267.695 748.472 268.304 762.61 273.187C776.759 278.073 792.627 287.276 813.322 304.615L815.033 302.573Z" fill="#FF783F"/>
<path d="M358.214 65.3274C357.603 65.7371 356.775 65.574 356.366 64.9631C355.956 64.3522 356.119 63.5249 356.73 63.1152L358.214 65.3274ZM485.421 46.9166C485.786 47.5554 485.563 48.3688 484.924 48.7333L474.513 54.6736C473.875 55.0381 473.061 54.8157 472.697 54.1768C472.332 53.538 472.554 52.7246 473.193 52.36L482.447 47.0798L477.167 37.8257C476.803 37.1868 477.025 36.3734 477.664 36.0089C478.303 35.6444 479.116 35.8668 479.481 36.5057L485.421 46.9166ZM356.73 63.1152C375.095 50.799 426.213 30.3237 484.616 46.2919L483.913 48.8612C426.413 33.1396 376.084 53.343 358.214 65.3274L356.73 63.1152Z" fill="#009C84"/>
</g>
<defs>
<filter id="filter0_d_707_583" x="247.442" y="-0.753863" width="583.889" height="616.555" filterUnits="userSpaceOnUse" color-interpolation-filters="sRGB">
<feFlood flood-opacity="0" result="BackgroundImageFix"/>
<feColorMatrix in="SourceAlpha" type="matrix" values="0 0 0 0 0 0 0 0 0 0 0 0 0 0 0 0 0 0 127 0" result="hardAlpha"/>
<feOffset dy="12.8407"/>
<feGaussianBlur stdDeviation="32.1019"/>
<feComposite in2="hardAlpha" operator="out"/>
<feColorMatrix type="matrix" values="0 0 0 0 0.503937 0 0 0 0 0.634143 0 0 0 0 0.754333 0 0 0 0.28 0"/>
<feBlend mode="normal" in2="BackgroundImageFix" result="effect1_dropShadow_707_583"/>
<feBlend mode="normal" in="SourceGraphic" in2="effect1_dropShadow_707_583" result="shape"/>
</filter>
<linearGradient id="paint0_linear_707_583" x1="397.98" y1="378.679" x2="702.307" y2="363.571" gradientUnits="userSpaceOnUse">
<stop stop-color="#FF783F"/>
<stop offset="0.637933" stop-color="#E64068"/>
<stop offset="0.99706" stop-color="#981B6E"/>
</linearGradient>
<linearGradient id="paint1_linear_707_583" x1="427.118" y1="232.45" x2="642.953" y2="240.544" gradientUnits="userSpaceOnUse">
<stop stop-color="#FFB400"/>
<stop offset="0.933781" stop-color="#FF783F"/>
</linearGradient>
<linearGradient id="paint2_linear_707_583" x1="496.405" y1="50.6091" x2="496.405" y2="230.342" gradientUnits="userSpaceOnUse">
<stop stop-color="#B7FFF5"/>
<stop offset="0.731431" stop-color="#00D0B2"/>
</linearGradient>
<clipPath id="clip0_707_583">
<rect width="1097" height="578" fill="white"/>
</clipPath>
</defs>
</svg>
