<svg width="63" height="52" viewBox="0 0 63 52" fill="none" xmlns="http://www.w3.org/2000/svg">
<path d="M50.8795 50.9768C57.5381 50.9768 62.936 45.4795 62.936 38.6982C62.936 31.917 57.5381 26.4197 50.8795 26.4197C44.2209 26.4197 38.823 31.917 38.823 38.6982C38.823 45.4795 44.2209 50.9768 50.8795 50.9768Z" fill="#3088F4"/>
<g clip-path="url(#clip0_101_405)">
<path d="M7.677 2.88577V49.9535H34.9807C35.052 49.7468 35.1427 49.5444 35.2613 49.35L36.1483 47.9071H9.68641V4.9322H29.7805V17.2107H41.837V33.6141C42.4599 34.4664 42.8417 35.5109 42.8417 36.6518V36.9995L43.8464 35.3627V15.7639L31.2013 2.88577H7.677ZM31.79 6.37908L40.4163 15.1643H31.79V6.37908ZM14.7099 21.3036C14.5768 21.3017 14.4446 21.3267 14.3211 21.3773C14.1975 21.4278 14.0851 21.5029 13.9903 21.5981C13.8955 21.6933 13.8202 21.8068 13.7688 21.9318C13.7174 22.0569 13.6909 22.1912 13.6909 22.3268C13.6909 22.4624 13.7174 22.5966 13.7688 22.7217C13.8202 22.8468 13.8955 22.9603 13.9903 23.0555C14.0851 23.1507 14.1975 23.2258 14.3211 23.2763C14.4446 23.3269 14.5768 23.3519 14.7099 23.35H36.8135C36.9466 23.3519 37.0788 23.3269 37.2024 23.2763C37.3259 23.2258 37.4383 23.1507 37.5332 23.0555C37.628 22.9603 37.7033 22.8468 37.7547 22.7217C37.806 22.5966 37.8325 22.4624 37.8325 22.3268C37.8325 22.1912 37.806 22.0569 37.7547 21.9318C37.7033 21.8068 37.628 21.6933 37.5332 21.5981C37.4383 21.5029 37.3259 21.4278 37.2024 21.3773C37.0788 21.3267 36.9466 21.3017 36.8135 21.3036H14.7099ZM14.7099 27.4429C14.5768 27.4409 14.4446 27.466 14.3211 27.5165C14.1975 27.5671 14.0851 27.6422 13.9903 27.7374C13.8955 27.8326 13.8202 27.946 13.7688 28.0711C13.7174 28.1962 13.6909 28.3305 13.6909 28.4661C13.6909 28.6017 13.7174 28.7359 13.7688 28.861C13.8202 28.9861 13.8955 29.0995 13.9903 29.1948C14.0851 29.29 14.1975 29.365 14.3211 29.4156C14.4446 29.4661 14.5768 29.4912 14.7099 29.4893H36.8135C36.9466 29.4912 37.0788 29.4661 37.2024 29.4156C37.3259 29.365 37.4383 29.29 37.5332 29.1948C37.628 29.0995 37.7033 28.9861 37.7547 28.861C37.806 28.7359 37.8325 28.6017 37.8325 28.4661C37.8325 28.3305 37.806 28.1962 37.7547 28.0711C37.7033 27.946 37.628 27.8326 37.5332 27.7374C37.4383 27.6422 37.3259 27.5671 37.2024 27.5165C37.0788 27.466 36.9466 27.4409 36.8135 27.4429H14.7099ZM47.8162 33.5701C47.6531 33.5798 47.4948 33.6297 47.3549 33.7158C47.2151 33.8018 47.0979 33.9212 47.0136 34.0637L36.9666 50.4351C36.8905 50.549 36.8378 50.6774 36.8116 50.8125C36.7854 50.9477 36.7863 51.0868 36.8142 51.2216C36.8421 51.3564 36.8964 51.4841 36.9739 51.597C37.0514 51.7098 37.1505 51.8056 37.2652 51.8786C37.38 51.9516 37.508 52.0002 37.6416 52.0215C37.7752 52.0429 37.9117 52.0366 38.0428 52.0029C38.174 51.9693 38.2971 51.909 38.4049 51.8257C38.5126 51.7425 38.6027 51.6379 38.6698 51.5183L48.7169 35.1469C48.8127 34.9956 48.8676 34.8211 48.876 34.6412C48.8845 34.4614 48.8461 34.2824 48.7649 34.1224C48.6837 33.9625 48.5624 33.8272 48.4134 33.7302C48.2644 33.6332 48.0929 33.578 47.9163 33.5701C47.8829 33.5684 47.8495 33.5684 47.8162 33.5701V33.5701ZM14.7099 33.5821C14.5768 33.5802 14.4446 33.6053 14.3211 33.6558C14.1975 33.7064 14.0851 33.7814 13.9903 33.8766C13.8955 33.9718 13.8202 34.0853 13.7688 34.2104C13.7174 34.3355 13.6909 34.4697 13.6909 34.6053C13.6909 34.7409 13.7174 34.8752 13.7688 35.0003C13.8202 35.1254 13.8955 35.2388 13.9903 35.334C14.0851 35.4292 14.1975 35.5043 14.3211 35.5549C14.4446 35.6054 14.5768 35.6305 14.7099 35.6285H30.7853C30.9184 35.6305 31.0506 35.6054 31.1741 35.5549C31.2977 35.5043 31.4101 35.4292 31.5049 35.334C31.5997 35.2388 31.675 35.1254 31.7264 35.0003C31.7778 34.8752 31.8043 34.7409 31.8043 34.6053C31.8043 34.4697 31.7778 34.3355 31.7264 34.2104C31.675 34.0853 31.5997 33.9718 31.5049 33.8766C31.4101 33.7814 31.2977 33.7064 31.1741 33.6558C31.0506 33.6053 30.9184 33.5802 30.7853 33.5821H14.7099ZM37.8182 33.5821C36.1655 33.5821 34.8041 34.9686 34.8041 36.6518V38.6982V39.7214H35.2221C35.6675 40.8538 36.5557 41.7678 37.8182 41.7678C39.4709 41.7678 40.8323 40.3813 40.8323 38.6982V36.6518C40.8323 34.9686 39.4709 33.5821 37.8182 33.5821ZM37.8182 35.6285C38.3859 35.6285 38.8229 36.0736 38.8229 36.6518V38.6982C38.8229 39.2763 38.3859 39.7214 37.8182 39.7214C37.2505 39.7214 36.8135 39.2763 36.8135 38.6982V36.6518C36.8135 36.0736 37.2505 35.6285 37.8182 35.6285ZM14.7099 39.7214C14.5768 39.7195 14.4446 39.7445 14.3211 39.7951C14.1975 39.8456 14.0851 39.9207 13.9903 40.0159C13.8955 40.1111 13.8202 40.2246 13.7688 40.3497C13.7174 40.4748 13.6909 40.609 13.6909 40.7446C13.6909 40.8802 13.7174 41.0145 13.7688 41.1395C13.8202 41.2646 13.8955 41.3781 13.9903 41.4733C14.0851 41.5685 14.1975 41.6436 14.3211 41.6941C14.4446 41.7447 14.5768 41.7697 14.7099 41.7678H30.7853C30.9184 41.7697 31.0506 41.7447 31.1741 41.6941C31.2977 41.6436 31.4101 41.5685 31.5049 41.4733C31.5997 41.3781 31.675 41.2646 31.7264 41.1395C31.7778 41.0145 31.8043 40.8802 31.8043 40.7446C31.8043 40.609 31.7778 40.4748 31.7264 40.3497C31.675 40.2246 31.5997 40.1111 31.5049 40.0159C31.4101 39.9207 31.2977 39.8456 31.1741 39.7951C31.0506 39.7445 30.9184 39.7195 30.7853 39.7214H14.7099ZM47.8653 43.8142C46.2125 43.8142 44.8511 45.2007 44.8511 46.8839V48.9303V49.9535H45.2691C45.7146 51.0859 46.6027 51.9999 47.8653 51.9999C49.518 51.9999 50.8794 50.6134 50.8794 48.9303V46.8839C50.8794 45.2007 49.518 43.8142 47.8653 43.8142ZM47.8653 45.8607C48.433 45.8607 48.87 46.3057 48.87 46.8839V48.9303C48.87 49.5084 48.433 49.9535 47.8653 49.9535C47.2976 49.9535 46.8606 49.5084 46.8606 48.9303V46.8839C46.8606 46.3057 47.2976 45.8607 47.8653 45.8607Z" fill="#333E48"/>
</g>
<defs>
<clipPath id="clip0_101_405">
<rect width="50.2353" height="51.1606" fill="white" transform="translate(0.644043 0.839355)"/>
</clipPath>
</defs>
</svg>
