<svg width="90" height="62" viewBox="0 0 90 62" fill="none" xmlns="http://www.w3.org/2000/svg">
<path d="M73.1338 56.2432C82.0442 56.2432 89.2676 49.0253 89.2676 40.1216C89.2676 31.2179 82.0442 24 73.1338 24C64.2233 24 57 31.2179 57 40.1216C57 49.0253 64.2233 56.2432 73.1338 56.2432Z" fill="#3A76F3"/>
<path d="M34 33.8359L34.7071 33.1288L34 32.4217L33.2929 33.1288L34 33.8359ZM42 41.8359L41.2929 42.543L42 43.2502L42.7071 42.543L42 41.8359ZM53 30.8359L41.8464 33.8245L50.0114 41.9895L53 30.8359ZM19.7071 49.543L34.7071 34.543L33.2929 33.1288L18.2929 48.1288L19.7071 49.543ZM33.2929 34.543L41.2929 42.543L42.7071 41.1288L34.7071 33.1288L33.2929 34.543ZM42.7071 42.543L47.3431 37.907L45.9289 36.4928L41.2929 41.1288L42.7071 42.543Z" fill="black"/>
<rect x="1" y="1" width="66" height="60" rx="6" stroke="black" stroke-width="2"/>
<path d="M0.5 15.3359H67.5" stroke="black" stroke-width="2"/>
<path d="M63 9.33594H57" stroke="black" stroke-width="2"/>
<path d="M54 9.33594H40.5" stroke="black" stroke-width="2"/>
</svg>
