<svg width="10828" height="4195" viewBox="0 0 10828 4195" fill="none" xmlns="http://www.w3.org/2000/svg">
<g filter="url(#filter0_d_106_407)">
<rect x="74.9541" width="10678.3" height="4046" rx="37.1305" fill="url(#paint0_linear_106_407)" shape-rendering="crispEdges"/>
</g>
<rect x="212.104" y="529.017" width="10404" height="3370.03" rx="37.1305" fill="white"/>
<rect x="711.067" y="1865.63" width="347.101" height="1149.77" fill="#FFBB00"/>
<rect x="1296.8" y="1865.63" width="347.101" height="1149.77" fill="#FFBB00"/>
<rect x="4767.81" y="1865.63" width="347.101" height="889.447" fill="#FFBB00"/>
<rect x="1882.53" y="715.86" width="347.101" height="1149.77" fill="#6265F0"/>
<rect x="2446.56" y="1236.51" width="347.101" height="629.121" fill="#6265F0"/>
<rect x="3032.3" y="1236.51" width="347.101" height="629.121" fill="#6265F0"/>
<rect x="3618.05" y="1279.89" width="347.101" height="585.733" fill="#6265F0"/>
<rect x="5375.23" y="1366.67" width="347.101" height="498.958" fill="#6265F0"/>
<rect x="5939.27" y="1366.67" width="347.101" height="498.958" fill="#6265F0"/>
<rect x="6525" y="1518.53" width="347.101" height="347.101" fill="#6265F0"/>
<rect x="8846.25" y="1605.31" width="347.101" height="260.326" fill="#6265F0"/>
<rect x="9410.28" y="1648.69" width="347.101" height="216.938" fill="#6265F0"/>
<rect x="9996.01" y="1692.08" width="347.101" height="173.551" fill="#6265F0"/>
<rect x="7674.78" y="1518.53" width="347.101" height="347.101" fill="#6265F0"/>
<rect x="7110.75" y="1475.15" width="347.101" height="390.489" fill="#6265F0"/>
<rect x="4203.77" y="1778.85" width="347.101" height="86.7753" fill="#6265F0"/>
<rect x="8238.81" y="1865.63" width="347.101" height="86.7753" fill="#FFBB00"/>
<path d="M393.282 168.736H361.723L330.974 227.807L300.224 168.736H268.665L317.015 255.118V310.346H344.73V255.118L393.282 168.736ZM407.541 270.493H483.808C484.415 267.054 484.82 263.614 484.82 259.771C484.82 230.033 463.578 206.364 433.638 206.364C401.877 206.364 380.231 229.628 380.231 259.771C380.231 289.913 401.675 313.178 435.661 313.178C455.082 313.178 470.254 305.288 479.762 291.532L458.723 279.394C454.273 285.261 446.181 289.509 436.066 289.509C422.309 289.509 411.183 283.844 407.541 270.493ZM407.137 250.263C410.171 237.315 419.679 229.83 433.638 229.83C444.562 229.83 455.486 235.697 458.723 250.263H407.137ZM579.122 209.196V221.131C571.839 212.028 560.915 206.364 546.147 206.364C519.241 206.364 496.988 229.628 496.988 259.771C496.988 289.913 519.241 313.178 546.147 313.178C560.915 313.178 571.839 307.514 579.122 298.41V310.346H605.218V209.196H579.122ZM551.002 288.295C535.02 288.295 523.085 276.764 523.085 259.771C523.085 242.778 535.02 231.246 551.002 231.246C567.186 231.246 579.122 242.778 579.122 259.771C579.122 276.764 567.186 288.295 551.002 288.295ZM654.979 226.594V209.196H628.883V310.346H654.979V261.996C654.979 240.755 672.175 234.686 685.729 236.304V207.173C672.984 207.173 660.239 212.837 654.979 226.594ZM799.714 313.178C829.452 313.178 853.324 289.913 853.324 259.771C853.324 229.628 829.452 206.364 799.714 206.364C769.976 206.364 746.307 229.628 746.307 259.771C746.307 289.913 769.976 313.178 799.714 313.178ZM799.714 287.688C784.339 287.688 772.404 276.157 772.404 259.771C772.404 243.384 784.339 231.853 799.714 231.853C815.291 231.853 827.227 243.384 827.227 259.771C827.227 276.157 815.291 287.688 799.714 287.688ZM934.288 209.196L909.607 280.001L885.129 209.196H856.402L894.839 310.346H924.577L963.014 209.196H934.288ZM993.698 270.493H1069.96C1070.57 267.054 1070.98 263.614 1070.98 259.771C1070.98 230.033 1049.73 206.364 1019.79 206.364C988.033 206.364 966.387 229.628 966.387 259.771C966.387 289.913 987.831 313.178 1021.82 313.178C1041.24 313.178 1056.41 305.288 1065.92 291.532L1044.88 279.394C1040.43 285.261 1032.34 289.509 1022.22 289.509C1008.47 289.509 997.339 283.844 993.698 270.493ZM993.293 250.263C996.327 237.315 1005.84 229.83 1019.79 229.83C1030.72 229.83 1041.64 235.697 1044.88 250.263H993.293ZM1115.29 226.594V209.196H1089.19V310.346H1115.29V261.996C1115.29 240.755 1132.49 234.686 1146.04 236.304V207.173C1133.3 207.173 1120.55 212.837 1115.29 226.594ZM1277.83 209.196L1255.37 277.169L1229.07 209.196H1200.55L1242.02 307.109C1237.17 320.663 1229.88 326.732 1215.52 326.53V350.806C1241.21 352.222 1258.41 339.477 1268.93 310.346L1305.75 209.196H1277.83ZM1336.26 270.493H1412.53C1413.14 267.054 1413.54 263.614 1413.54 259.771C1413.54 230.033 1392.3 206.364 1362.36 206.364C1330.6 206.364 1308.95 229.628 1308.95 259.771C1308.95 289.913 1330.4 313.178 1364.38 313.178C1383.8 313.178 1398.98 305.288 1408.49 291.532L1387.45 279.394C1383 285.261 1374.9 289.509 1364.79 289.509C1351.03 289.509 1339.91 283.844 1336.26 270.493ZM1335.86 250.263C1338.89 237.315 1348.4 229.83 1362.36 229.83C1373.29 229.83 1384.21 235.697 1387.45 250.263H1335.86ZM1507.84 209.196V221.131C1500.56 212.028 1489.64 206.364 1474.87 206.364C1447.96 206.364 1425.71 229.628 1425.71 259.771C1425.71 289.913 1447.96 313.178 1474.87 313.178C1489.64 313.178 1500.56 307.514 1507.84 298.41V310.346H1533.94V209.196H1507.84ZM1479.72 288.295C1463.74 288.295 1451.81 276.764 1451.81 259.771C1451.81 242.778 1463.74 231.246 1479.72 231.246C1495.91 231.246 1507.84 242.778 1507.84 259.771C1507.84 276.764 1495.91 288.295 1479.72 288.295ZM1583.7 226.594V209.196H1557.61V310.346H1583.7V261.996C1583.7 240.755 1600.9 234.686 1614.45 236.304V207.173C1601.71 207.173 1588.96 212.837 1583.7 226.594ZM1728.44 313.178C1748.26 313.178 1765.46 302.658 1774.16 286.879L1751.5 273.932C1747.45 282.226 1738.75 287.284 1728.23 287.284C1712.66 287.284 1701.13 275.752 1701.13 259.771C1701.13 243.587 1712.66 232.056 1728.23 232.056C1738.55 232.056 1747.25 237.315 1751.3 245.61L1773.75 232.46C1765.46 216.883 1748.26 206.364 1728.44 206.364C1697.69 206.364 1675.03 229.628 1675.03 259.771C1675.03 289.913 1697.69 313.178 1728.44 313.178ZM1844.2 206.364C1830.64 206.364 1820.12 211.421 1814.06 220.525V168.736H1787.96V310.346H1814.06V255.725C1814.06 238.125 1823.56 230.64 1836.31 230.64C1848.04 230.64 1856.34 237.72 1856.34 251.476V310.346H1882.43V248.24C1882.43 221.334 1865.64 206.364 1844.2 206.364ZM1981.59 209.196V221.131C1974.31 212.028 1963.38 206.364 1948.62 206.364C1921.71 206.364 1899.46 229.628 1899.46 259.771C1899.46 289.913 1921.71 313.178 1948.62 313.178C1963.38 313.178 1974.31 307.514 1981.59 298.41V310.346H2007.69V209.196H1981.59ZM1953.47 288.295C1937.49 288.295 1925.55 276.764 1925.55 259.771C1925.55 242.778 1937.49 231.246 1953.47 231.246C1969.65 231.246 1981.59 242.778 1981.59 259.771C1981.59 276.764 1969.65 288.295 1953.47 288.295ZM2087.59 206.364C2074.04 206.364 2063.52 211.421 2057.45 220.525V209.196H2031.35V310.346H2057.45V255.725C2057.45 238.125 2066.96 230.64 2079.7 230.64C2091.43 230.64 2099.73 237.72 2099.73 251.476V310.346H2125.83V248.24C2125.83 221.334 2109.03 206.364 2087.59 206.364ZM2225.59 209.196V221.738C2218.51 212.23 2207.58 206.364 2193.22 206.364C2164.49 206.364 2142.85 229.83 2142.85 258.152C2142.85 286.677 2164.49 309.941 2193.22 309.941C2207.58 309.941 2218.51 304.074 2225.59 294.566V305.491C2225.59 321.472 2215.47 330.373 2199.09 330.373C2183.51 330.373 2176.83 324.102 2172.59 316.212L2150.33 328.957C2159.23 345.344 2176.63 353.638 2198.28 353.638C2224.98 353.638 2251.08 338.668 2251.08 305.491V209.196H2225.59ZM2197.27 285.867C2180.88 285.867 2168.95 274.336 2168.95 258.152C2168.95 242.171 2180.88 230.64 2197.27 230.64C2213.65 230.64 2225.59 242.171 2225.59 258.152C2225.59 274.336 2213.65 285.867 2197.27 285.867ZM2296.79 270.493H2373.06C2373.67 267.054 2374.07 263.614 2374.07 259.771C2374.07 230.033 2352.83 206.364 2322.89 206.364C2291.13 206.364 2269.48 229.628 2269.48 259.771C2269.48 289.913 2290.93 313.178 2324.91 313.178C2344.33 313.178 2359.51 305.288 2369.02 291.532L2347.98 279.394C2343.53 285.261 2335.43 289.509 2325.32 289.509C2311.56 289.509 2300.44 283.844 2296.79 270.493ZM2296.39 250.263C2299.42 237.315 2308.93 229.83 2322.89 229.83C2333.81 229.83 2344.74 235.697 2347.98 250.263H2296.39ZM2455.81 197.058C2464.71 197.058 2472 189.775 2472 181.076C2472 172.377 2464.71 164.892 2455.81 164.892C2447.11 164.892 2439.83 172.377 2439.83 181.076C2439.83 189.775 2447.11 197.058 2455.81 197.058ZM2442.87 310.346H2468.96V209.196H2442.87V310.346ZM2549.09 206.364C2535.53 206.364 2525.01 211.421 2518.94 220.525V209.196H2492.85V310.346H2518.94V255.725C2518.94 238.125 2528.45 230.64 2541.2 230.64C2552.93 230.64 2561.23 237.72 2561.23 251.476V310.346H2587.32V248.24C2587.32 221.334 2570.53 206.364 2549.09 206.364ZM2772.05 206.364C2758.3 206.364 2748.18 211.826 2741.91 220.929C2736.24 211.623 2726.94 206.364 2714.4 206.364C2701.45 206.364 2691.94 211.421 2686.28 219.918V209.196H2660.18V310.346H2686.28V253.499C2686.28 238.327 2694.17 230.64 2705.29 230.64C2716.22 230.64 2722.29 237.922 2722.29 249.858V310.346H2748.38V253.499C2748.38 238.327 2755.67 230.64 2767.2 230.64C2778.12 230.64 2784.19 237.922 2784.19 249.858V310.346H2810.29V248.037C2810.29 222.75 2795.11 206.364 2772.05 206.364ZM2909.33 209.196V221.131C2902.04 212.028 2891.12 206.364 2876.35 206.364C2849.44 206.364 2827.19 229.628 2827.19 259.771C2827.19 289.913 2849.44 313.178 2876.35 313.178C2891.12 313.178 2902.04 307.514 2909.33 298.41V310.346H2935.42V209.196H2909.33ZM2881.21 288.295C2865.22 288.295 2853.29 276.764 2853.29 259.771C2853.29 242.778 2865.22 231.246 2881.21 231.246C2897.39 231.246 2909.33 242.778 2909.33 259.771C2909.33 276.764 2897.39 288.295 2881.21 288.295ZM2985.18 226.594V209.196H2959.09V310.346H2985.18V261.996C2985.18 240.755 3002.38 234.686 3015.93 236.304V207.173C3003.19 207.173 2990.44 212.837 2985.18 226.594ZM3124.46 310.346L3082.58 259.164L3123.24 209.196H3092.09L3057.29 253.702V168.736H3031.19V310.346H3057.29V264.424L3094.11 310.346H3124.46ZM3152.22 270.493H3228.49C3229.1 267.054 3229.5 263.614 3229.5 259.771C3229.5 230.033 3208.26 206.364 3178.32 206.364C3146.56 206.364 3124.91 229.628 3124.91 259.771C3124.91 289.913 3146.36 313.178 3180.34 313.178C3199.76 313.178 3214.94 305.288 3224.44 291.532L3203.4 279.394C3198.95 285.261 3190.86 289.509 3180.75 289.509C3166.99 289.509 3155.86 283.844 3152.22 270.493ZM3151.82 250.263C3154.85 237.315 3164.36 229.83 3178.32 229.83C3189.24 229.83 3200.17 235.697 3203.4 250.263H3151.82ZM3302.61 234.281V209.196H3279.75V180.874L3253.66 188.763V209.196H3236.06V234.281H3253.66V276.359C3253.66 303.67 3266 314.392 3302.61 310.346V286.677C3287.64 287.486 3279.75 287.284 3279.75 276.359V234.281H3302.61ZM3397.24 237.922C3397.24 232.46 3402.5 229.628 3408.98 229.628C3416.46 229.628 3422.13 233.472 3425.16 239.945L3447.41 227.807C3439.52 213.849 3425.36 206.364 3408.98 206.364C3388.14 206.364 3370.54 217.895 3370.54 238.529C3370.54 274.134 3422.73 266.042 3422.73 280.81C3422.73 286.677 3417.07 289.509 3408.77 289.509C3398.66 289.509 3391.78 284.654 3388.95 276.359L3366.29 289.104C3373.57 304.681 3388.54 313.178 3408.77 313.178C3430.42 313.178 3449.44 302.658 3449.44 280.81C3449.44 243.587 3397.24 252.893 3397.24 237.922ZM3522.46 206.364C3508.9 206.364 3498.38 211.421 3492.32 220.525V168.736H3466.22V310.346H3492.32V255.725C3492.32 238.125 3501.82 230.64 3514.57 230.64C3526.3 230.64 3534.6 237.72 3534.6 251.476V310.346H3560.69V248.24C3560.69 221.334 3543.9 206.364 3522.46 206.364ZM3659.85 209.196V221.131C3652.57 212.028 3641.64 206.364 3626.88 206.364C3599.97 206.364 3577.72 229.628 3577.72 259.771C3577.72 289.913 3599.97 313.178 3626.88 313.178C3641.64 313.178 3652.57 307.514 3659.85 298.41V310.346H3685.95V209.196H3659.85ZM3631.73 288.295C3615.75 288.295 3603.81 276.764 3603.81 259.771C3603.81 242.778 3615.75 231.246 3631.73 231.246C3647.91 231.246 3659.85 242.778 3659.85 259.771C3659.85 276.764 3647.91 288.295 3631.73 288.295ZM3735.71 226.594V209.196H3709.61V310.346H3735.71V261.996C3735.71 240.755 3752.9 234.686 3766.46 236.304V207.173C3753.71 207.173 3740.97 212.837 3735.71 226.594ZM3800.02 270.493H3876.28C3876.89 267.054 3877.3 263.614 3877.3 259.771C3877.3 230.033 3856.05 206.364 3826.11 206.364C3794.35 206.364 3772.71 229.628 3772.71 259.771C3772.71 289.913 3794.15 313.178 3828.14 313.178C3847.56 313.178 3862.73 305.288 3872.24 291.532L3851.2 279.394C3846.75 285.261 3838.66 289.509 3828.54 289.509C3814.79 289.509 3803.66 283.844 3800.02 270.493ZM3799.61 250.263C3802.65 237.315 3812.16 229.83 3826.11 229.83C3837.04 229.83 3847.96 235.697 3851.2 250.263H3799.61Z" fill="#333E48"/>
<path d="M783.836 3660.86V3698.41L758.013 3660.86H755.144V3704.52H758.45V3666.98L784.21 3704.52H787.142V3660.86H783.836ZM811.376 3672.65C801.832 3672.65 795.221 3679.76 795.221 3688.93C795.221 3698.35 802.02 3705.21 811.625 3705.21C817.8 3705.21 822.665 3702.4 825.223 3698.16L822.478 3696.54C820.669 3699.85 816.802 3702.22 811.687 3702.22C804.577 3702.22 799.213 3697.6 798.464 3690.55H826.72C826.72 3690.05 826.782 3689.56 826.782 3689.06C826.782 3680.51 820.856 3672.65 811.376 3672.65ZM811.376 3675.65C817.488 3675.65 822.852 3679.89 823.538 3687.5H798.464C799.088 3680.57 804.265 3675.65 811.376 3675.65ZM849.125 3676.39V3673.34H839.832V3664.61L836.651 3665.54V3673.34H829.789V3676.39H836.651V3696.67C836.651 3703.78 840.954 3705.77 849.125 3704.52V3701.72C842.763 3702.28 839.832 3702.15 839.832 3696.67V3676.39H849.125ZM894.469 3673.34L886.174 3700.47L877.441 3673.34H874.198L865.466 3700.47L857.17 3673.34H853.864L863.719 3704.52H867.15L875.82 3677.95L884.49 3704.52H887.92L897.775 3673.34H894.469ZM917.672 3705.21C926.717 3705.21 934.014 3698.16 934.014 3688.93C934.014 3679.7 926.717 3672.65 917.672 3672.65C908.566 3672.65 901.268 3679.7 901.268 3688.93C901.268 3698.16 908.566 3705.21 917.672 3705.21ZM917.672 3702.22C910.25 3702.22 904.449 3696.35 904.449 3688.93C904.449 3681.51 910.25 3675.65 917.672 3675.65C925.095 3675.65 930.833 3681.51 930.833 3688.93C930.833 3696.35 925.095 3702.22 917.672 3702.22ZM944.638 3679.45V3673.34H941.52V3704.52H944.638V3687.19C944.638 3679.2 949.691 3675.9 955.055 3675.9V3672.9C950.813 3672.9 946.759 3674.52 944.638 3679.45ZM985.266 3704.52L967.864 3688.31L984.642 3673.34H980.276L964.496 3687.5V3660.86H961.377V3704.52H964.496V3689.18L981.025 3704.52H985.266ZM1015.83 3660.86L1004.41 3664.79L1005.23 3667.66L1015.33 3664.48V3704.52H1018.64V3660.86H1015.83ZM1374.13 3660.86V3698.41L1348.31 3660.86H1345.44V3704.52H1348.75V3666.98L1374.51 3704.52H1377.44V3660.86H1374.13ZM1401.67 3672.65C1392.13 3672.65 1385.52 3679.76 1385.52 3688.93C1385.52 3698.35 1392.32 3705.21 1401.92 3705.21C1408.1 3705.21 1412.96 3702.4 1415.52 3698.16L1412.77 3696.54C1410.97 3699.85 1407.1 3702.22 1401.98 3702.22C1394.87 3702.22 1389.51 3697.6 1388.76 3690.55H1417.02C1417.02 3690.05 1417.08 3689.56 1417.08 3689.06C1417.08 3680.51 1411.15 3672.65 1401.67 3672.65ZM1401.67 3675.65C1407.78 3675.65 1413.15 3679.89 1413.83 3687.5H1388.76C1389.38 3680.57 1394.56 3675.65 1401.67 3675.65ZM1439.42 3676.39V3673.34H1430.13V3664.61L1426.95 3665.54V3673.34H1420.09V3676.39H1426.95V3696.67C1426.95 3703.78 1431.25 3705.77 1439.42 3704.52V3701.72C1433.06 3702.28 1430.13 3702.15 1430.13 3696.67V3676.39H1439.42ZM1484.77 3673.34L1476.47 3700.47L1467.74 3673.34H1464.49L1455.76 3700.47L1447.47 3673.34H1444.16L1454.02 3704.52H1457.45L1466.12 3677.95L1474.79 3704.52H1478.22L1488.07 3673.34H1484.77ZM1507.97 3705.21C1517.01 3705.21 1524.31 3698.16 1524.31 3688.93C1524.31 3679.7 1517.01 3672.65 1507.97 3672.65C1498.86 3672.65 1491.56 3679.7 1491.56 3688.93C1491.56 3698.16 1498.86 3705.21 1507.97 3705.21ZM1507.97 3702.22C1500.55 3702.22 1494.75 3696.35 1494.75 3688.93C1494.75 3681.51 1500.55 3675.65 1507.97 3675.65C1515.39 3675.65 1521.13 3681.51 1521.13 3688.93C1521.13 3696.35 1515.39 3702.22 1507.97 3702.22ZM1534.93 3679.45V3673.34H1531.82V3704.52H1534.93V3687.19C1534.93 3679.2 1539.99 3675.9 1545.35 3675.9V3672.9C1541.11 3672.9 1537.05 3674.52 1534.93 3679.45ZM1575.56 3704.52L1558.16 3688.31L1574.94 3673.34H1570.57L1554.79 3687.5V3660.86H1551.67V3704.52H1554.79V3689.18L1571.32 3704.52H1575.56ZM1596.33 3704.52H1623.78V3701.34H1601.07L1614.61 3687.43C1619.04 3682.94 1622.78 3678.14 1622.78 3672.71C1622.78 3664.61 1616.48 3660.18 1609.81 3660.18C1604.13 3660.18 1599.2 3662.92 1596.58 3668.29L1599.39 3669.97C1601.45 3665.6 1605.06 3663.36 1609.81 3663.36C1615.11 3663.36 1619.41 3666.73 1619.41 3672.71C1619.41 3677.02 1616.17 3681.13 1612.36 3685.06L1596.33 3701.53V3704.52ZM1943.35 3660.86V3698.41L1917.53 3660.86H1914.66V3704.52H1917.97V3666.98L1943.73 3704.52H1946.66V3660.86H1943.35ZM1970.89 3672.65C1961.35 3672.65 1954.74 3679.76 1954.74 3688.93C1954.74 3698.35 1961.54 3705.21 1971.14 3705.21C1977.32 3705.21 1982.18 3702.4 1984.74 3698.16L1981.99 3696.54C1980.19 3699.85 1976.32 3702.22 1971.2 3702.22C1964.09 3702.22 1958.73 3697.6 1957.98 3690.55H1986.24C1986.24 3690.05 1986.3 3689.56 1986.3 3689.06C1986.3 3680.51 1980.37 3672.65 1970.89 3672.65ZM1970.89 3675.65C1977 3675.65 1982.37 3679.89 1983.05 3687.5H1957.98C1958.6 3680.57 1963.78 3675.65 1970.89 3675.65ZM2008.64 3676.39V3673.34H1999.35V3664.61L1996.17 3665.54V3673.34H1989.31V3676.39H1996.17V3696.67C1996.17 3703.78 2000.47 3705.77 2008.64 3704.52V3701.72C2002.28 3702.28 1999.35 3702.15 1999.35 3696.67V3676.39H2008.64ZM2053.99 3673.34L2045.69 3700.47L2036.96 3673.34H2033.71L2024.98 3700.47L2016.69 3673.34H2013.38L2023.24 3704.52H2026.67L2035.34 3677.95L2044.01 3704.52H2047.44L2057.29 3673.34H2053.99ZM2077.19 3705.21C2086.23 3705.21 2093.53 3698.16 2093.53 3688.93C2093.53 3679.7 2086.23 3672.65 2077.19 3672.65C2068.08 3672.65 2060.78 3679.7 2060.78 3688.93C2060.78 3698.16 2068.08 3705.21 2077.19 3705.21ZM2077.19 3702.22C2069.77 3702.22 2063.97 3696.35 2063.97 3688.93C2063.97 3681.51 2069.77 3675.65 2077.19 3675.65C2084.61 3675.65 2090.35 3681.51 2090.35 3688.93C2090.35 3696.35 2084.61 3702.22 2077.19 3702.22ZM2104.15 3679.45V3673.34H2101.04V3704.52H2104.15V3687.19C2104.15 3679.2 2109.21 3675.9 2114.57 3675.9V3672.9C2110.33 3672.9 2106.28 3674.52 2104.15 3679.45ZM2144.78 3704.52L2127.38 3688.31L2144.16 3673.34H2139.79L2124.01 3687.5V3660.86H2120.89V3704.52H2124.01V3689.18L2140.54 3704.52H2144.78ZM2181.02 3679.01L2191.5 3663.98V3660.86H2166.36V3663.98H2187.7L2176.66 3679.64L2178.09 3681.82H2179.03C2185.51 3681.82 2190.25 3685.63 2190.25 3691.93C2190.25 3698.23 2185.51 3702.03 2179.15 3702.03C2173.66 3702.03 2169.61 3699.66 2167.99 3695.29L2165.24 3696.92C2167.36 3702.28 2172.79 3705.21 2179.15 3705.21C2186.88 3705.21 2193.56 3700.35 2193.56 3691.93C2193.56 3684.25 2187.94 3679.7 2181.02 3679.01ZM2496.68 3660.86V3698.41L2470.85 3660.86H2467.98V3704.52H2471.29V3666.98L2497.05 3704.52H2499.98V3660.86H2496.68ZM2524.21 3672.65C2514.67 3672.65 2508.06 3679.76 2508.06 3688.93C2508.06 3698.35 2514.86 3705.21 2524.46 3705.21C2530.64 3705.21 2535.5 3702.4 2538.06 3698.16L2535.32 3696.54C2533.51 3699.85 2529.64 3702.22 2524.53 3702.22C2517.42 3702.22 2512.05 3697.6 2511.3 3690.55H2539.56C2539.56 3690.05 2539.62 3689.56 2539.62 3689.06C2539.62 3680.51 2533.7 3672.65 2524.21 3672.65ZM2524.21 3675.65C2530.33 3675.65 2535.69 3679.89 2536.38 3687.5H2511.3C2511.93 3680.57 2517.1 3675.65 2524.21 3675.65ZM2561.96 3676.39V3673.34H2552.67V3664.61L2549.49 3665.54V3673.34H2542.63V3676.39H2549.49V3696.67C2549.49 3703.78 2553.79 3705.77 2561.96 3704.52V3701.72C2555.6 3702.28 2552.67 3702.15 2552.67 3696.67V3676.39H2561.96ZM2607.31 3673.34L2599.01 3700.47L2590.28 3673.34H2587.04L2578.3 3700.47L2570.01 3673.34H2566.7L2576.56 3704.52H2579.99L2588.66 3677.95L2597.33 3704.52H2600.76L2610.61 3673.34H2607.31ZM2630.51 3705.21C2639.56 3705.21 2646.85 3698.16 2646.85 3688.93C2646.85 3679.7 2639.56 3672.65 2630.51 3672.65C2621.4 3672.65 2614.11 3679.7 2614.11 3688.93C2614.11 3698.16 2621.4 3705.21 2630.51 3705.21ZM2630.51 3702.22C2623.09 3702.22 2617.29 3696.35 2617.29 3688.93C2617.29 3681.51 2623.09 3675.65 2630.51 3675.65C2637.93 3675.65 2643.67 3681.51 2643.67 3688.93C2643.67 3696.35 2637.93 3702.22 2630.51 3702.22ZM2657.48 3679.45V3673.34H2654.36V3704.52H2657.48V3687.19C2657.48 3679.2 2662.53 3675.9 2667.89 3675.9V3672.9C2663.65 3672.9 2659.6 3674.52 2657.48 3679.45ZM2698.1 3704.52L2680.7 3688.31L2697.48 3673.34H2693.11L2677.33 3687.5V3660.86H2674.22V3704.52H2677.33V3689.18L2693.86 3704.52H2698.1ZM2750.37 3692.24H2744.76V3678.52H2741.45V3692.24H2721.62L2738.15 3660.86H2734.53L2717.94 3692.24V3695.36H2741.45V3704.52H2744.76V3695.36H2750.37V3692.24Z" fill="black"/>
<rect x="819.497" y="3527.92" width="118.704" height="137.153" transform="rotate(-90 819.497 3527.92)" fill="#BEBEBE"/>
<rect x="1397.49" y="3528.92" width="118.704" height="137.153" transform="rotate(-90 1397.49 3528.92)" fill="#2C3643"/>
<rect x="1975.5" y="3527.92" width="118.704" height="137.153" transform="rotate(-90 1975.5 3527.92)" fill="#737373"/>
<rect x="2553.5" y="3527.92" width="118.704" height="137.153" transform="rotate(-90 2553.5 3527.92)" fill="#8B8F9E"/>
<path d="M3067.65 3660.86V3698.41L3041.83 3660.86H3038.96V3704.52H3042.26V3666.98L3068.02 3704.52H3070.96V3660.86H3067.65ZM3095.19 3672.65C3085.65 3672.65 3079.03 3679.76 3079.03 3688.93C3079.03 3698.35 3085.83 3705.21 3095.44 3705.21C3101.61 3705.21 3106.48 3702.4 3109.04 3698.16L3106.29 3696.54C3104.48 3699.85 3100.62 3702.22 3095.5 3702.22C3088.39 3702.22 3083.03 3697.6 3082.28 3690.55H3110.53C3110.53 3690.05 3110.6 3689.56 3110.6 3689.06C3110.6 3680.51 3104.67 3672.65 3095.19 3672.65ZM3095.19 3675.65C3101.3 3675.65 3106.67 3679.89 3107.35 3687.5H3082.28C3082.9 3680.57 3088.08 3675.65 3095.19 3675.65ZM3132.94 3676.39V3673.34H3123.65V3664.61L3120.46 3665.54V3673.34H3113.6V3676.39H3120.46V3696.67C3120.46 3703.78 3124.77 3705.77 3132.94 3704.52V3701.72C3126.58 3702.28 3123.65 3702.15 3123.65 3696.67V3676.39H3132.94ZM3178.28 3673.34L3169.99 3700.47L3161.25 3673.34H3158.01L3149.28 3700.47L3140.98 3673.34H3137.68L3147.53 3704.52H3150.96L3159.63 3677.95L3168.3 3704.52H3171.73L3181.59 3673.34H3178.28ZM3201.49 3705.21C3210.53 3705.21 3217.83 3698.16 3217.83 3688.93C3217.83 3679.7 3210.53 3672.65 3201.49 3672.65C3192.38 3672.65 3185.08 3679.7 3185.08 3688.93C3185.08 3698.16 3192.38 3705.21 3201.49 3705.21ZM3201.49 3702.22C3194.06 3702.22 3188.26 3696.35 3188.26 3688.93C3188.26 3681.51 3194.06 3675.65 3201.49 3675.65C3208.91 3675.65 3214.65 3681.51 3214.65 3688.93C3214.65 3696.35 3208.91 3702.22 3201.49 3702.22ZM3228.45 3679.45V3673.34H3225.33V3704.52H3228.45V3687.19C3228.45 3679.2 3233.5 3675.9 3238.87 3675.9V3672.9C3234.63 3672.9 3230.57 3674.52 3228.45 3679.45ZM3269.08 3704.52L3251.68 3688.31L3268.46 3673.34H3264.09L3248.31 3687.5V3660.86H3245.19V3704.52H3248.31V3689.18L3264.84 3704.52H3269.08ZM3303.76 3678.64H3295.53L3296.52 3663.98H3316.67V3660.86H3293.59L3292.1 3681.82H3303.76C3310.25 3681.82 3314.99 3685.63 3314.99 3691.93C3314.99 3698.23 3310.25 3702.03 3303.76 3702.03C3298.4 3702.03 3294.22 3699.47 3292.78 3694.79L3289.97 3696.42C3291.97 3702.15 3297.52 3705.21 3303.76 3705.21C3311.62 3705.21 3318.29 3700.35 3318.29 3691.93C3318.29 3683.5 3311.62 3678.64 3303.76 3678.64ZM3637.72 3660.86V3698.41L3611.9 3660.86H3609.03V3704.52H3612.34V3666.98L3638.1 3704.52H3641.03V3660.86H3637.72ZM3665.26 3672.65C3655.72 3672.65 3649.11 3679.76 3649.11 3688.93C3649.11 3698.35 3655.91 3705.21 3665.51 3705.21C3671.69 3705.21 3676.55 3702.4 3679.11 3698.16L3676.36 3696.54C3674.56 3699.85 3670.69 3702.22 3665.57 3702.22C3658.46 3702.22 3653.1 3697.6 3652.35 3690.55H3680.61C3680.61 3690.05 3680.67 3689.56 3680.67 3689.06C3680.67 3680.51 3674.74 3672.65 3665.26 3672.65ZM3665.26 3675.65C3671.37 3675.65 3676.74 3679.89 3677.43 3687.5H3652.35C3652.97 3680.57 3658.15 3675.65 3665.26 3675.65ZM3703.01 3676.39V3673.34H3693.72V3664.61L3690.54 3665.54V3673.34H3683.68V3676.39H3690.54V3696.67C3690.54 3703.78 3694.84 3705.77 3703.01 3704.52V3701.72C3696.65 3702.28 3693.72 3702.15 3693.72 3696.67V3676.39H3703.01ZM3748.36 3673.34L3740.06 3700.47L3731.33 3673.34H3728.08L3719.35 3700.47L3711.06 3673.34H3707.75L3717.61 3704.52H3721.04L3729.71 3677.95L3738.38 3704.52H3741.81L3751.66 3673.34H3748.36ZM3771.56 3705.21C3780.6 3705.21 3787.9 3698.16 3787.9 3688.93C3787.9 3679.7 3780.6 3672.65 3771.56 3672.65C3762.45 3672.65 3755.15 3679.7 3755.15 3688.93C3755.15 3698.16 3762.45 3705.21 3771.56 3705.21ZM3771.56 3702.22C3764.14 3702.22 3758.34 3696.35 3758.34 3688.93C3758.34 3681.51 3764.14 3675.65 3771.56 3675.65C3778.98 3675.65 3784.72 3681.51 3784.72 3688.93C3784.72 3696.35 3778.98 3702.22 3771.56 3702.22ZM3798.53 3679.45V3673.34H3795.41V3704.52H3798.53V3687.19C3798.53 3679.2 3803.58 3675.9 3808.94 3675.9V3672.9C3804.7 3672.9 3800.65 3674.52 3798.53 3679.45ZM3839.15 3704.52L3821.75 3688.31L3838.53 3673.34H3834.16L3818.38 3687.5V3660.86H3815.26V3704.52H3818.38V3689.18L3834.91 3704.52H3839.15ZM3873.96 3676.46C3872.27 3676.46 3870.71 3676.71 3869.22 3677.14L3880.38 3660.86H3876.64L3861.98 3682.13C3860.3 3684.5 3859.3 3687.43 3859.3 3690.87C3859.3 3699.35 3865.47 3705.21 3873.96 3705.21C3882.44 3705.21 3888.62 3699.35 3888.62 3690.87C3888.62 3682.32 3882.44 3676.46 3873.96 3676.46ZM3873.96 3702.03C3867.03 3702.03 3862.67 3697.35 3862.67 3690.87C3862.67 3684.32 3867.03 3679.64 3873.96 3679.64C3880.88 3679.64 3885.31 3684.32 3885.31 3690.87C3885.31 3697.35 3880.88 3702.03 3873.96 3702.03ZM4257.44 3660.86V3698.41L4231.62 3660.86H4228.75V3704.52H4232.05V3666.98L4257.81 3704.52H4260.74V3660.86H4257.44ZM4284.98 3672.65C4275.44 3672.65 4268.82 3679.76 4268.82 3688.93C4268.82 3698.35 4275.62 3705.21 4285.23 3705.21C4291.4 3705.21 4296.27 3702.4 4298.83 3698.16L4296.08 3696.54C4294.27 3699.85 4290.41 3702.22 4285.29 3702.22C4278.18 3702.22 4272.82 3697.6 4272.07 3690.55H4300.32C4300.32 3690.05 4300.38 3689.56 4300.38 3689.06C4300.38 3680.51 4294.46 3672.65 4284.98 3672.65ZM4284.98 3675.65C4291.09 3675.65 4296.46 3679.89 4297.14 3687.5H4272.07C4272.69 3680.57 4277.87 3675.65 4284.98 3675.65ZM4322.73 3676.39V3673.34H4313.43V3664.61L4310.25 3665.54V3673.34H4303.39V3676.39H4310.25V3696.67C4310.25 3703.78 4314.56 3705.77 4322.73 3704.52V3701.72C4316.37 3702.28 4313.43 3702.15 4313.43 3696.67V3676.39H4322.73ZM4368.07 3673.34L4359.78 3700.47L4351.04 3673.34H4347.8L4339.07 3700.47L4330.77 3673.34H4327.47L4337.32 3704.52H4340.75L4349.42 3677.95L4358.09 3704.52H4361.52L4371.38 3673.34H4368.07ZM4391.28 3705.21C4400.32 3705.21 4407.62 3698.16 4407.62 3688.93C4407.62 3679.7 4400.32 3672.65 4391.28 3672.65C4382.17 3672.65 4374.87 3679.7 4374.87 3688.93C4374.87 3698.16 4382.17 3705.21 4391.28 3705.21ZM4391.28 3702.22C4383.85 3702.22 4378.05 3696.35 4378.05 3688.93C4378.05 3681.51 4383.85 3675.65 4391.28 3675.65C4398.7 3675.65 4404.44 3681.51 4404.44 3688.93C4404.44 3696.35 4398.7 3702.22 4391.28 3702.22ZM4418.24 3679.45V3673.34H4415.12V3704.52H4418.24V3687.19C4418.24 3679.2 4423.29 3675.9 4428.66 3675.9V3672.9C4424.42 3672.9 4420.36 3674.52 4418.24 3679.45ZM4458.87 3704.52L4441.47 3688.31L4458.25 3673.34H4453.88L4438.1 3687.5V3660.86H4434.98V3704.52H4438.1V3689.18L4454.63 3704.52H4458.87ZM4478.39 3660.86V3663.98H4501.41L4484.44 3704.52H4487.87L4504.84 3663.98V3660.86H4478.39ZM4791.09 3660.86V3698.41L4765.26 3660.86H4762.4V3704.52H4765.7V3666.98L4791.46 3704.52H4794.39V3660.86H4791.09ZM4818.63 3672.65C4809.08 3672.65 4802.47 3679.76 4802.47 3688.93C4802.47 3698.35 4809.27 3705.21 4818.88 3705.21C4825.05 3705.21 4829.92 3702.4 4832.47 3698.16L4829.73 3696.54C4827.92 3699.85 4824.05 3702.22 4818.94 3702.22C4811.83 3702.22 4806.46 3697.6 4805.72 3690.55H4833.97C4833.97 3690.05 4834.03 3689.56 4834.03 3689.06C4834.03 3680.51 4828.11 3672.65 4818.63 3672.65ZM4818.63 3675.65C4824.74 3675.65 4830.1 3679.89 4830.79 3687.5H4805.72C4806.34 3680.57 4811.52 3675.65 4818.63 3675.65ZM4856.38 3676.39V3673.34H4847.08V3664.61L4843.9 3665.54V3673.34H4837.04V3676.39H4843.9V3696.67C4843.9 3703.78 4848.21 3705.77 4856.38 3704.52V3701.72C4850.01 3702.28 4847.08 3702.15 4847.08 3696.67V3676.39H4856.38ZM4901.72 3673.34L4893.42 3700.47L4884.69 3673.34H4881.45L4872.72 3700.47L4864.42 3673.34H4861.12L4870.97 3704.52H4874.4L4883.07 3677.95L4891.74 3704.52H4895.17L4905.03 3673.34H4901.72ZM4924.92 3705.21C4933.97 3705.21 4941.27 3698.16 4941.27 3688.93C4941.27 3679.7 4933.97 3672.65 4924.92 3672.65C4915.82 3672.65 4908.52 3679.7 4908.52 3688.93C4908.52 3698.16 4915.82 3705.21 4924.92 3705.21ZM4924.92 3702.22C4917.5 3702.22 4911.7 3696.35 4911.7 3688.93C4911.7 3681.51 4917.5 3675.65 4924.92 3675.65C4932.35 3675.65 4938.08 3681.51 4938.08 3688.93C4938.08 3696.35 4932.35 3702.22 4924.92 3702.22ZM4951.89 3679.45V3673.34H4948.77V3704.52H4951.89V3687.19C4951.89 3679.2 4956.94 3675.9 4962.31 3675.9V3672.9C4958.06 3672.9 4954.01 3674.52 4951.89 3679.45ZM4992.52 3704.52L4975.11 3688.31L4991.89 3673.34H4987.53L4971.75 3687.5V3660.86H4968.63V3704.52H4971.75V3689.18L4988.28 3704.52H4992.52ZM5034.43 3681.95C5038.17 3680.07 5040.79 3676.58 5040.79 3671.97C5040.79 3664.23 5034.62 3660.18 5027.76 3660.18C5020.9 3660.18 5014.72 3664.23 5014.72 3671.97C5014.72 3676.58 5017.34 3680.07 5021.08 3681.95C5016.41 3683.82 5013.29 3687.75 5013.29 3692.86C5013.29 3700.78 5019.59 3705.21 5027.76 3705.21C5035.93 3705.21 5042.23 3700.78 5042.23 3692.86C5042.23 3687.75 5039.11 3683.82 5034.43 3681.95ZM5018.03 3671.97C5018.03 3666.35 5022.27 3663.36 5027.76 3663.36C5033.25 3663.36 5037.49 3666.35 5037.49 3671.97C5037.49 3677.33 5033.25 3680.51 5027.76 3680.51C5022.27 3680.51 5018.03 3677.33 5018.03 3671.97ZM5027.76 3702.03C5020.96 3702.03 5016.66 3698.66 5016.66 3692.86C5016.66 3687.12 5020.96 3683.75 5027.76 3683.75C5034.56 3683.75 5038.86 3687.12 5038.86 3692.86C5038.86 3698.66 5034.56 3702.03 5027.76 3702.03Z" fill="black"/>
<path d="M10023.2 3660.86V3698.41L9997.42 3660.86H9994.55V3704.52H9997.86V3666.98L10023.6 3704.52H10026.5V3660.86H10023.2ZM10050.8 3672.65C10041.2 3672.65 10034.6 3679.76 10034.6 3688.93C10034.6 3698.35 10041.4 3705.21 10051 3705.21C10057.2 3705.21 10062.1 3702.4 10064.6 3698.16L10061.9 3696.54C10060.1 3699.85 10056.2 3702.22 10051.1 3702.22C10044 3702.22 10038.6 3697.6 10037.9 3690.55H10066.1C10066.1 3690.05 10066.2 3689.56 10066.2 3689.06C10066.2 3680.51 10060.3 3672.65 10050.8 3672.65ZM10050.8 3675.65C10056.9 3675.65 10062.3 3679.89 10062.9 3687.5H10037.9C10038.5 3680.57 10043.7 3675.65 10050.8 3675.65ZM10088.5 3676.39V3673.34H10079.2V3664.61L10076.1 3665.54V3673.34H10069.2V3676.39H10076.1V3696.67C10076.1 3703.78 10080.4 3705.77 10088.5 3704.52V3701.72C10082.2 3702.28 10079.2 3702.15 10079.2 3696.67V3676.39H10088.5ZM10133.9 3673.34L10125.6 3700.47L10116.8 3673.34H10113.6L10104.9 3700.47L10096.6 3673.34H10093.3L10103.1 3704.52H10106.6L10115.2 3677.95L10123.9 3704.52H10127.3L10137.2 3673.34H10133.9ZM10157.1 3705.21C10166.1 3705.21 10173.4 3698.16 10173.4 3688.93C10173.4 3679.7 10166.1 3672.65 10157.1 3672.65C10148 3672.65 10140.7 3679.7 10140.7 3688.93C10140.7 3698.16 10148 3705.21 10157.1 3705.21ZM10157.1 3702.22C10149.7 3702.22 10143.9 3696.35 10143.9 3688.93C10143.9 3681.51 10149.7 3675.65 10157.1 3675.65C10164.5 3675.65 10170.2 3681.51 10170.2 3688.93C10170.2 3696.35 10164.5 3702.22 10157.1 3702.22ZM10184 3679.45V3673.34H10180.9V3704.52H10184V3687.19C10184 3679.2 10189.1 3675.9 10194.5 3675.9V3672.9C10190.2 3672.9 10186.2 3674.52 10184 3679.45ZM10224.7 3704.52L10207.3 3688.31L10224 3673.34H10219.7L10203.9 3687.5V3660.86H10200.8V3704.52H10203.9V3689.18L10220.4 3704.52H10224.7ZM10255.2 3660.86L10243.8 3664.79L10244.6 3667.66L10254.7 3664.48V3704.52H10258V3660.86H10255.2ZM10264.9 3660.86V3663.98H10287.9L10271 3704.52H10274.4L10291.4 3663.98V3660.86H10264.9Z" fill="black"/>
<path d="M363.846 723.866H358.232V710.144H354.926V723.866H335.092L351.621 692.492H348.003L331.412 723.866V726.985H354.926V736.153H358.232V726.985H363.846V723.866ZM375.786 710.393C381.4 710.393 385.33 706.276 385.33 701.099C385.33 695.922 381.275 691.806 375.786 691.806C370.298 691.806 366.243 695.922 366.243 701.099C366.243 706.276 370.298 710.393 375.786 710.393ZM375.786 707.524C372.044 707.524 369.362 704.717 369.362 701.099C369.362 697.482 372.044 694.675 375.786 694.675C379.591 694.675 382.273 697.482 382.273 701.099C382.273 704.717 379.591 707.524 375.786 707.524ZM368.613 730.54L370.672 731.725L400.362 698.417L398.241 697.232L368.613 730.54ZM393.438 736.84C398.927 736.84 402.981 732.723 402.981 727.546C402.981 722.369 398.927 718.252 393.438 718.252C387.949 718.252 383.895 722.369 383.895 727.546C383.895 732.723 387.949 736.84 393.438 736.84ZM393.438 733.97C389.696 733.97 387.014 731.164 387.014 727.546C387.014 723.928 389.696 721.121 393.438 721.121C397.243 721.121 399.925 723.928 399.925 727.546C399.925 731.164 397.243 733.97 393.438 733.97Z" fill="black"/>
<path d="M349.313 1892.84C359.792 1892.84 365.655 1883.79 365.655 1870.32C365.655 1856.85 359.792 1847.8 349.313 1847.8C338.834 1847.8 332.971 1856.85 332.971 1870.32C332.971 1883.79 338.834 1892.84 349.313 1892.84ZM349.313 1889.66C341.204 1889.66 336.339 1882.55 336.339 1870.32C336.339 1858.1 341.204 1850.99 349.313 1850.99C357.421 1850.99 362.286 1858.1 362.286 1870.32C362.286 1882.55 357.421 1889.66 349.313 1889.66ZM381.208 1866.39C386.821 1866.39 390.751 1862.28 390.751 1857.1C390.751 1851.92 386.696 1847.8 381.208 1847.8C375.719 1847.8 371.664 1851.92 371.664 1857.1C371.664 1862.28 375.719 1866.39 381.208 1866.39ZM381.208 1863.52C377.465 1863.52 374.783 1860.72 374.783 1857.1C374.783 1853.48 377.465 1850.67 381.208 1850.67C385.012 1850.67 387.694 1853.48 387.694 1857.1C387.694 1860.72 385.012 1863.52 381.208 1863.52ZM374.035 1886.54L376.093 1887.72L405.783 1854.42L403.662 1853.23L374.035 1886.54ZM398.859 1892.84C404.348 1892.84 408.403 1888.72 408.403 1883.54C408.403 1878.37 404.348 1874.25 398.859 1874.25C393.37 1874.25 389.316 1878.37 389.316 1883.54C389.316 1888.72 393.37 1892.84 398.859 1892.84ZM398.859 1889.97C395.117 1889.97 392.435 1887.16 392.435 1883.54C392.435 1879.93 395.117 1877.12 398.859 1877.12C402.664 1877.12 405.346 1879.93 405.346 1883.54C405.346 1887.16 402.664 1889.97 398.859 1889.97Z" fill="black"/>
<path d="M332.347 1314.15H359.792V1310.97H337.088L350.623 1297.06C355.051 1292.57 358.794 1287.77 358.794 1282.34C358.794 1274.23 352.494 1269.8 345.82 1269.8C340.144 1269.8 335.216 1272.55 332.597 1277.91L335.403 1279.6C337.462 1275.23 341.079 1272.99 345.82 1272.99C351.122 1272.99 355.425 1276.35 355.425 1282.34C355.425 1286.65 352.182 1290.76 348.377 1294.69L332.347 1311.16V1314.15ZM375.421 1288.39C381.035 1288.39 384.964 1284.28 384.964 1279.1C384.964 1273.92 380.91 1269.8 375.421 1269.8C369.932 1269.8 365.878 1273.92 365.878 1279.1C365.878 1284.28 369.932 1288.39 375.421 1288.39ZM375.421 1285.52C371.679 1285.52 368.996 1282.72 368.996 1279.1C368.996 1275.48 371.679 1272.67 375.421 1272.67C379.226 1272.67 381.908 1275.48 381.908 1279.1C381.908 1282.72 379.226 1285.52 375.421 1285.52ZM368.248 1308.54L370.306 1309.72L399.996 1276.42L397.876 1275.23L368.248 1308.54ZM393.073 1314.84C398.562 1314.84 402.616 1310.72 402.616 1305.54C402.616 1300.37 398.562 1296.25 393.073 1296.25C387.584 1296.25 383.53 1300.37 383.53 1305.54C383.53 1310.72 387.584 1314.84 393.073 1314.84ZM393.073 1311.97C389.33 1311.97 386.648 1309.16 386.648 1305.54C386.648 1301.93 389.33 1299.12 393.073 1299.12C396.878 1299.12 399.56 1301.93 399.56 1305.54C399.56 1309.16 396.878 1311.97 393.073 1311.97Z" fill="black"/>
<path d="M295.906 3020.58H318.361V3017.59H295.906V3020.58ZM357.918 3026.07H352.304V3012.35H348.999V3026.07H329.164L345.693 2994.69H342.075L325.484 3026.07V3029.19H348.999V3038.36H352.304V3029.19H357.918V3026.07ZM369.859 3012.6C375.472 3012.6 379.402 3008.48 379.402 3003.3C379.402 2998.13 375.348 2994.01 369.859 2994.01C364.37 2994.01 360.316 2998.13 360.316 3003.3C360.316 3008.48 364.37 3012.6 369.859 3012.6ZM369.859 3009.73C366.116 3009.73 363.434 3006.92 363.434 3003.3C363.434 2999.68 366.116 2996.88 369.859 2996.88C373.664 2996.88 376.346 2999.68 376.346 3003.3C376.346 3006.92 373.664 3009.73 369.859 3009.73ZM362.686 3032.74L364.744 3033.93L394.434 3000.62L392.313 2999.44L362.686 3032.74ZM387.51 3039.04C392.999 3039.04 397.054 3034.93 397.054 3029.75C397.054 3024.57 392.999 3020.46 387.51 3020.46C382.022 3020.46 377.967 3024.57 377.967 3029.75C377.967 3034.93 382.022 3039.04 387.51 3039.04ZM387.51 3036.17C383.768 3036.17 381.086 3033.37 381.086 3029.75C381.086 3026.13 383.768 3023.32 387.51 3023.32C391.315 3023.32 393.997 3026.13 393.997 3029.75C393.997 3033.37 391.315 3036.17 387.51 3036.17Z" fill="black"/>
<path d="M295.906 2442.58H318.361V2439.59H295.906V2442.58ZM326.419 2460.36H353.864V2457.17H331.16L344.695 2443.27C349.123 2438.77 352.866 2433.97 352.866 2428.54C352.866 2420.44 346.566 2416.01 339.892 2416.01C334.216 2416.01 329.289 2418.75 326.669 2424.12L329.476 2425.8C331.534 2421.43 335.152 2419.19 339.892 2419.19C345.194 2419.19 349.498 2422.56 349.498 2428.54C349.498 2432.85 346.254 2436.97 342.449 2440.89L326.419 2457.36V2460.36ZM369.493 2434.6C375.107 2434.6 379.036 2430.48 379.036 2425.3C379.036 2420.12 374.982 2416.01 369.493 2416.01C364.004 2416.01 359.95 2420.12 359.95 2425.3C359.95 2430.48 364.004 2434.6 369.493 2434.6ZM369.493 2431.73C365.751 2431.73 363.069 2428.92 363.069 2425.3C363.069 2421.68 365.751 2418.88 369.493 2418.88C373.298 2418.88 375.98 2421.68 375.98 2425.3C375.98 2428.92 373.298 2431.73 369.493 2431.73ZM362.32 2454.74L364.379 2455.93L394.068 2422.62L391.948 2421.43L362.32 2454.74ZM387.145 2461.04C392.634 2461.04 396.688 2456.92 396.688 2451.75C396.688 2446.57 392.634 2442.45 387.145 2442.45C381.656 2442.45 377.602 2446.57 377.602 2451.75C377.602 2456.92 381.656 2461.04 387.145 2461.04ZM387.145 2458.17C383.403 2458.17 380.721 2455.37 380.721 2451.75C380.721 2448.13 383.403 2445.32 387.145 2445.32C390.95 2445.32 393.632 2448.13 393.632 2451.75C393.632 2455.37 390.95 2458.17 387.145 2458.17Z" fill="black"/>
<rect x="3111.9" y="3527.92" width="118.704" height="137.153" transform="rotate(-90 3111.9 3527.92)" fill="#929292"/>
<rect x="3689.9" y="3528.92" width="118.704" height="137.153" transform="rotate(-90 3689.9 3528.92)" fill="#929292"/>
<rect x="4267.9" y="3528.92" width="118.704" height="137.153" transform="rotate(-90 4267.9 3528.92)" fill="#E1E1E1"/>
<rect x="4845.9" y="3527.92" width="118.704" height="137.153" transform="rotate(-90 4845.9 3527.92)" fill="#CBD0DB"/>
<path d="M5368.87 3664.72V3702.27L5343.05 3664.72H5340.18V3708.38H5343.49V3670.83L5369.25 3708.38H5372.18V3664.72H5368.87ZM5396.41 3676.5C5386.87 3676.5 5380.26 3683.62 5380.26 3692.78C5380.26 3702.2 5387.06 3709.06 5396.66 3709.06C5402.84 3709.06 5407.7 3706.26 5410.26 3702.02L5407.52 3700.39C5405.71 3703.7 5401.84 3706.07 5396.73 3706.07C5389.61 3706.07 5384.25 3701.45 5383.5 3694.41H5411.76C5411.76 3693.91 5411.82 3693.41 5411.82 3692.91C5411.82 3684.36 5405.89 3676.5 5396.41 3676.5ZM5396.41 3679.5C5402.53 3679.5 5407.89 3683.74 5408.58 3691.35H5383.5C5384.13 3684.43 5389.3 3679.5 5396.41 3679.5ZM5434.16 3680.25V3677.19H5424.87V3668.46L5421.69 3669.39V3677.19H5414.83V3680.25H5421.69V3700.52C5421.69 3707.63 5425.99 3709.63 5434.16 3708.38V3705.57C5427.8 3706.13 5424.87 3706.01 5424.87 3700.52V3680.25H5434.16ZM5479.51 3677.19L5471.21 3704.32L5462.48 3677.19H5459.24L5450.5 3704.32L5442.21 3677.19H5438.9L5448.76 3708.38H5452.19L5460.86 3681.81L5469.53 3708.38H5472.96L5482.81 3677.19H5479.51ZM5502.71 3709.06C5511.75 3709.06 5519.05 3702.02 5519.05 3692.78C5519.05 3683.55 5511.75 3676.5 5502.71 3676.5C5493.6 3676.5 5486.31 3683.55 5486.31 3692.78C5486.31 3702.02 5493.6 3709.06 5502.71 3709.06ZM5502.71 3706.07C5495.29 3706.07 5489.49 3700.21 5489.49 3692.78C5489.49 3685.36 5495.29 3679.5 5502.71 3679.5C5510.13 3679.5 5515.87 3685.36 5515.87 3692.78C5515.87 3700.21 5510.13 3706.07 5502.71 3706.07ZM5529.68 3683.3V3677.19H5526.56V3708.38H5529.68V3691.04C5529.68 3683.05 5534.73 3679.75 5540.09 3679.75V3676.75C5535.85 3676.75 5531.8 3678.38 5529.68 3683.3ZM5570.3 3708.38L5552.9 3692.16L5569.68 3677.19H5565.31L5549.53 3691.35V3664.72H5546.41V3708.38H5549.53V3693.03L5566.06 3708.38H5570.3ZM5619.77 3678.38C5619.77 3669.89 5613.59 3664.03 5605.11 3664.03C5596.63 3664.03 5590.45 3669.89 5590.45 3678.38C5590.45 3686.92 5596.63 3692.78 5605.11 3692.78C5606.79 3692.78 5608.41 3692.54 5609.91 3692.1L5598.75 3708.38H5602.49L5617.08 3687.11C5618.77 3684.74 5619.77 3681.81 5619.77 3678.38ZM5593.82 3678.38C5593.82 3671.89 5598.18 3667.21 5605.11 3667.21C5612.03 3667.21 5616.46 3671.89 5616.46 3678.38C5616.46 3684.93 5612.03 3689.6 5605.11 3689.6C5598.18 3689.6 5593.82 3684.93 5593.82 3678.38ZM5955.33 3664.72V3702.27L5929.51 3664.72H5926.64V3708.38H5929.95V3670.83L5955.71 3708.38H5958.64V3664.72H5955.33ZM5982.87 3676.5C5973.33 3676.5 5966.72 3683.62 5966.72 3692.78C5966.72 3702.2 5973.52 3709.06 5983.12 3709.06C5989.3 3709.06 5994.16 3706.26 5996.72 3702.02L5993.97 3700.39C5992.17 3703.7 5988.3 3706.07 5983.18 3706.07C5976.07 3706.07 5970.71 3701.45 5969.96 3694.41H5998.22C5998.22 3693.91 5998.28 3693.41 5998.28 3692.91C5998.28 3684.36 5992.35 3676.5 5982.87 3676.5ZM5982.87 3679.5C5988.98 3679.5 5994.35 3683.74 5995.03 3691.35H5969.96C5970.58 3684.43 5975.76 3679.5 5982.87 3679.5ZM6020.62 3680.25V3677.19H6011.33V3668.46L6008.15 3669.39V3677.19H6001.29V3680.25H6008.15V3700.52C6008.15 3707.63 6012.45 3709.63 6020.62 3708.38V3705.57C6014.26 3706.13 6011.33 3706.01 6011.33 3700.52V3680.25H6020.62ZM6065.97 3677.19L6057.67 3704.32L6048.94 3677.19H6045.69L6036.96 3704.32L6028.67 3677.19H6025.36L6035.22 3708.38H6038.65L6047.32 3681.81L6055.99 3708.38H6059.42L6069.27 3677.19H6065.97ZM6089.17 3709.06C6098.21 3709.06 6105.51 3702.02 6105.51 3692.78C6105.51 3683.55 6098.21 3676.5 6089.17 3676.5C6080.06 3676.5 6072.76 3683.55 6072.76 3692.78C6072.76 3702.02 6080.06 3709.06 6089.17 3709.06ZM6089.17 3706.07C6081.75 3706.07 6075.95 3700.21 6075.95 3692.78C6075.95 3685.36 6081.75 3679.5 6089.17 3679.5C6096.59 3679.5 6102.33 3685.36 6102.33 3692.78C6102.33 3700.21 6096.59 3706.07 6089.17 3706.07ZM6116.13 3683.3V3677.19H6113.02V3708.38H6116.13V3691.04C6116.13 3683.05 6121.19 3679.75 6126.55 3679.75V3676.75C6122.31 3676.75 6118.26 3678.38 6116.13 3683.3ZM6156.76 3708.38L6139.36 3692.16L6156.14 3677.19H6151.77L6135.99 3691.35V3664.72H6132.87V3708.38H6135.99V3693.03L6152.52 3708.38H6156.76ZM6187.33 3664.72L6175.91 3668.65L6176.72 3671.52L6186.83 3668.33V3708.38H6190.13V3664.72H6187.33ZM6215.21 3709.06C6225.69 3709.06 6231.55 3700.02 6231.55 3686.55C6231.55 3673.07 6225.69 3664.03 6215.21 3664.03C6204.73 3664.03 6198.87 3673.07 6198.87 3686.55C6198.87 3700.02 6204.73 3709.06 6215.21 3709.06ZM6215.21 3705.88C6207.1 3705.88 6202.23 3698.77 6202.23 3686.55C6202.23 3674.32 6207.1 3667.21 6215.21 3667.21C6223.32 3667.21 6228.18 3674.32 6228.18 3686.55C6228.18 3698.77 6223.32 3705.88 6215.21 3705.88ZM6551.66 3664.72V3702.27L6525.84 3664.72H6522.97V3708.38H6526.27V3670.83L6552.03 3708.38H6554.96V3664.72H6551.66ZM6579.2 3676.5C6569.65 3676.5 6563.04 3683.62 6563.04 3692.78C6563.04 3702.2 6569.84 3709.06 6579.45 3709.06C6585.62 3709.06 6590.49 3706.26 6593.04 3702.02L6590.3 3700.39C6588.49 3703.7 6584.62 3706.07 6579.51 3706.07C6572.4 3706.07 6567.04 3701.45 6566.29 3694.41H6594.54C6594.54 3693.91 6594.6 3693.41 6594.6 3692.91C6594.6 3684.36 6588.68 3676.5 6579.2 3676.5ZM6579.2 3679.5C6585.31 3679.5 6590.67 3683.74 6591.36 3691.35H6566.29C6566.91 3684.43 6572.09 3679.5 6579.2 3679.5ZM6616.95 3680.25V3677.19H6607.65V3668.46L6604.47 3669.39V3677.19H6597.61V3680.25H6604.47V3700.52C6604.47 3707.63 6608.78 3709.63 6616.95 3708.38V3705.57C6610.59 3706.13 6607.65 3706.01 6607.65 3700.52V3680.25H6616.95ZM6662.29 3677.19L6654 3704.32L6645.26 3677.19H6642.02L6633.29 3704.32L6624.99 3677.19H6621.69L6631.54 3708.38H6634.97L6643.64 3681.81L6652.31 3708.38H6655.74L6665.6 3677.19H6662.29ZM6685.49 3709.06C6694.54 3709.06 6701.84 3702.02 6701.84 3692.78C6701.84 3683.55 6694.54 3676.5 6685.49 3676.5C6676.39 3676.5 6669.09 3683.55 6669.09 3692.78C6669.09 3702.02 6676.39 3709.06 6685.49 3709.06ZM6685.49 3706.07C6678.07 3706.07 6672.27 3700.21 6672.27 3692.78C6672.27 3685.36 6678.07 3679.5 6685.49 3679.5C6692.92 3679.5 6698.66 3685.36 6698.66 3692.78C6698.66 3700.21 6692.92 3706.07 6685.49 3706.07ZM6712.46 3683.3V3677.19H6709.34V3708.38H6712.46V3691.04C6712.46 3683.05 6717.51 3679.75 6722.88 3679.75V3676.75C6718.64 3676.75 6714.58 3678.38 6712.46 3683.3ZM6753.09 3708.38L6735.69 3692.16L6752.46 3677.19H6748.1L6732.32 3691.35V3664.72H6729.2V3708.38H6732.32V3693.03L6748.85 3708.38H6753.09ZM6783.65 3664.72L6772.24 3668.65L6773.05 3671.52L6783.15 3668.33V3708.38H6786.46V3664.72H6783.65ZM6804.36 3664.72L6792.95 3668.65L6793.76 3671.52L6803.86 3668.33V3708.38H6807.17V3664.72H6804.36ZM7096.15 3664.72V3702.27L7070.33 3664.72H7067.46V3708.38H7070.76V3670.83L7096.52 3708.38H7099.45V3664.72H7096.15ZM7123.69 3676.5C7114.14 3676.5 7107.53 3683.62 7107.53 3692.78C7107.53 3702.2 7114.33 3709.06 7123.94 3709.06C7130.11 3709.06 7134.98 3706.26 7137.54 3702.02L7134.79 3700.39C7132.98 3703.7 7129.11 3706.07 7124 3706.07C7116.89 3706.07 7111.53 3701.45 7110.78 3694.41H7139.03C7139.03 3693.91 7139.09 3693.41 7139.09 3692.91C7139.09 3684.36 7133.17 3676.5 7123.69 3676.5ZM7123.69 3679.5C7129.8 3679.5 7135.16 3683.74 7135.85 3691.35H7110.78C7111.4 3684.43 7116.58 3679.5 7123.69 3679.5ZM7161.44 3680.25V3677.19H7152.14V3668.46L7148.96 3669.39V3677.19H7142.1V3680.25H7148.96V3700.52C7148.96 3707.63 7153.27 3709.63 7161.44 3708.38V3705.57C7155.08 3706.13 7152.14 3706.01 7152.14 3700.52V3680.25H7161.44ZM7206.78 3677.19L7198.49 3704.32L7189.75 3677.19H7186.51L7177.78 3704.32L7169.48 3677.19H7166.18L7176.03 3708.38H7179.46L7188.13 3681.81L7196.8 3708.38H7200.23L7210.09 3677.19H7206.78ZM7229.99 3709.06C7239.03 3709.06 7246.33 3702.02 7246.33 3692.78C7246.33 3683.55 7239.03 3676.5 7229.99 3676.5C7220.88 3676.5 7213.58 3683.55 7213.58 3692.78C7213.58 3702.02 7220.88 3709.06 7229.99 3709.06ZM7229.99 3706.07C7222.56 3706.07 7216.76 3700.21 7216.76 3692.78C7216.76 3685.36 7222.56 3679.5 7229.99 3679.5C7237.41 3679.5 7243.15 3685.36 7243.15 3692.78C7243.15 3700.21 7237.41 3706.07 7229.99 3706.07ZM7256.95 3683.3V3677.19H7253.83V3708.38H7256.95V3691.04C7256.95 3683.05 7262 3679.75 7267.37 3679.75V3676.75C7263.13 3676.75 7259.07 3678.38 7256.95 3683.3ZM7297.58 3708.38L7280.18 3692.16L7296.95 3677.19H7292.59L7276.81 3691.35V3664.72H7273.69V3708.38H7276.81V3693.03L7293.34 3708.38H7297.58ZM7328.14 3664.72L7316.73 3668.65L7317.54 3671.52L7327.64 3668.33V3708.38H7330.95V3664.72H7328.14ZM7339.06 3708.38H7366.5V3705.2H7343.8L7357.33 3691.29C7361.76 3686.8 7365.51 3681.99 7365.51 3676.57C7365.51 3668.46 7359.21 3664.03 7352.53 3664.03C7346.86 3664.03 7341.93 3666.77 7339.31 3672.14L7342.12 3673.82C7344.17 3669.46 7347.79 3667.21 7352.53 3667.21C7357.83 3667.21 7362.14 3670.58 7362.14 3676.57C7362.14 3680.87 7358.89 3684.99 7355.09 3688.92L7339.06 3705.38V3708.38Z" fill="black"/>
<path d="M7713.71 3664.72V3702.27L7687.89 3664.72H7685.02V3708.38H7688.33V3670.83L7714.09 3708.38H7717.02V3664.72H7713.71ZM7741.25 3676.5C7731.71 3676.5 7725.1 3683.62 7725.1 3692.78C7725.1 3702.2 7731.9 3709.06 7741.5 3709.06C7747.68 3709.06 7752.54 3706.26 7755.1 3702.02L7752.36 3700.39C7750.55 3703.7 7746.68 3706.07 7741.56 3706.07C7734.45 3706.07 7729.09 3701.45 7728.34 3694.41H7756.6C7756.6 3693.91 7756.66 3693.41 7756.66 3692.91C7756.66 3684.36 7750.73 3676.5 7741.25 3676.5ZM7741.25 3679.5C7747.37 3679.5 7752.73 3683.74 7753.42 3691.35H7728.34C7728.97 3684.43 7734.14 3679.5 7741.25 3679.5ZM7779 3680.25V3677.19H7769.71V3668.46L7766.53 3669.39V3677.19H7759.67V3680.25H7766.53V3700.52C7766.53 3707.63 7770.83 3709.63 7779 3708.38V3705.57C7772.64 3706.13 7769.71 3706.01 7769.71 3700.52V3680.25H7779ZM7824.35 3677.19L7816.05 3704.32L7807.32 3677.19H7804.08L7795.34 3704.32L7787.05 3677.19H7783.74L7793.6 3708.38H7797.03L7805.7 3681.81L7814.37 3708.38H7817.8L7827.65 3677.19H7824.35ZM7847.55 3709.06C7856.59 3709.06 7863.89 3702.02 7863.89 3692.78C7863.89 3683.55 7856.59 3676.5 7847.55 3676.5C7838.44 3676.5 7831.15 3683.55 7831.15 3692.78C7831.15 3702.02 7838.44 3709.06 7847.55 3709.06ZM7847.55 3706.07C7840.13 3706.07 7834.33 3700.21 7834.33 3692.78C7834.33 3685.36 7840.13 3679.5 7847.55 3679.5C7854.97 3679.5 7860.71 3685.36 7860.71 3692.78C7860.71 3700.21 7854.97 3706.07 7847.55 3706.07ZM7874.52 3683.3V3677.19H7871.4V3708.38H7874.52V3691.04C7874.52 3683.05 7879.57 3679.75 7884.93 3679.75V3676.75C7880.69 3676.75 7876.64 3678.38 7874.52 3683.3ZM7915.14 3708.38L7897.74 3692.16L7914.52 3677.19H7910.15L7894.37 3691.35V3664.72H7891.25V3708.38H7894.37V3693.03L7910.9 3708.38H7915.14ZM7945.71 3664.72L7934.29 3668.65L7935.1 3671.52L7945.21 3668.33V3708.38H7948.51V3664.72H7945.71ZM7972.09 3682.87L7982.57 3667.84V3664.72H7957.43V3667.84H7978.77L7967.73 3683.49L7969.16 3685.67H7970.1C7976.58 3685.67 7981.32 3689.48 7981.32 3695.78C7981.32 3702.08 7976.58 3705.88 7970.22 3705.88C7964.73 3705.88 7960.68 3703.51 7959.06 3699.15L7956.31 3700.77C7958.43 3706.13 7963.86 3709.06 7970.22 3709.06C7977.96 3709.06 7984.63 3704.2 7984.63 3695.78C7984.63 3688.11 7979.02 3683.55 7972.09 3682.87ZM8271.12 3664.72V3702.27L8245.29 3664.72H8242.43V3708.38H8245.73V3670.83L8271.49 3708.38H8274.42V3664.72H8271.12ZM8298.66 3676.5C8289.11 3676.5 8282.5 3683.62 8282.5 3692.78C8282.5 3702.2 8289.3 3709.06 8298.91 3709.06C8305.08 3709.06 8309.95 3706.26 8312.5 3702.02L8309.76 3700.39C8307.95 3703.7 8304.08 3706.07 8298.97 3706.07C8291.86 3706.07 8286.49 3701.45 8285.75 3694.41H8314C8314 3693.91 8314.06 3693.41 8314.06 3692.91C8314.06 3684.36 8308.14 3676.5 8298.66 3676.5ZM8298.66 3679.5C8304.77 3679.5 8310.13 3683.74 8310.82 3691.35H8285.75C8286.37 3684.43 8291.55 3679.5 8298.66 3679.5ZM8336.41 3680.25V3677.19H8327.11V3668.46L8323.93 3669.39V3677.19H8317.07V3680.25H8323.93V3700.52C8323.93 3707.63 8328.24 3709.63 8336.41 3708.38V3705.57C8330.04 3706.13 8327.11 3706.01 8327.11 3700.52V3680.25H8336.41ZM8381.75 3677.19L8373.45 3704.32L8364.72 3677.19H8361.48L8352.75 3704.32L8344.45 3677.19H8341.15L8351 3708.38H8354.43L8363.1 3681.81L8371.77 3708.38H8375.2L8385.06 3677.19H8381.75ZM8404.95 3709.06C8414 3709.06 8421.3 3702.02 8421.3 3692.78C8421.3 3683.55 8414 3676.5 8404.95 3676.5C8395.85 3676.5 8388.55 3683.55 8388.55 3692.78C8388.55 3702.02 8395.85 3709.06 8404.95 3709.06ZM8404.95 3706.07C8397.53 3706.07 8391.73 3700.21 8391.73 3692.78C8391.73 3685.36 8397.53 3679.5 8404.95 3679.5C8412.38 3679.5 8418.11 3685.36 8418.11 3692.78C8418.11 3700.21 8412.38 3706.07 8404.95 3706.07ZM8431.92 3683.3V3677.19H8428.8V3708.38H8431.92V3691.04C8431.92 3683.05 8436.97 3679.75 8442.34 3679.75V3676.75C8438.09 3676.75 8434.04 3678.38 8431.92 3683.3ZM8472.55 3708.38L8455.14 3692.16L8471.92 3677.19H8467.56L8451.78 3691.35V3664.72H8448.66V3708.38H8451.78V3693.03L8468.31 3708.38H8472.55ZM8503.11 3664.72L8491.7 3668.65L8492.51 3671.52L8502.61 3668.33V3708.38H8505.92V3664.72H8503.11ZM8545.53 3696.09H8539.91V3682.37H8536.61V3696.09H8516.77L8533.3 3664.72H8529.68L8513.09 3696.09V3699.21H8536.61V3708.38H8539.91V3699.21H8545.53V3696.09ZM8847.28 3664.72V3702.27L8821.46 3664.72H8818.59V3708.38H8821.9V3670.83L8847.66 3708.38H8850.59V3664.72H8847.28ZM8874.82 3676.5C8865.28 3676.5 8858.67 3683.62 8858.67 3692.78C8858.67 3702.2 8865.46 3709.06 8875.07 3709.06C8881.25 3709.06 8886.11 3706.26 8888.67 3702.02L8885.92 3700.39C8884.11 3703.7 8880.25 3706.07 8875.13 3706.07C8868.02 3706.07 8862.66 3701.45 8861.91 3694.41H8890.16C8890.16 3693.91 8890.23 3693.41 8890.23 3692.91C8890.23 3684.36 8884.3 3676.5 8874.82 3676.5ZM8874.82 3679.5C8880.93 3679.5 8886.3 3683.74 8886.98 3691.35H8861.91C8862.53 3684.43 8867.71 3679.5 8874.82 3679.5ZM8912.57 3680.25V3677.19H8903.28V3668.46L8900.1 3669.39V3677.19H8893.23V3680.25H8900.1V3700.52C8900.1 3707.63 8904.4 3709.63 8912.57 3708.38V3705.57C8906.21 3706.13 8903.28 3706.01 8903.28 3700.52V3680.25H8912.57ZM8957.91 3677.19L8949.62 3704.32L8940.89 3677.19H8937.64L8928.91 3704.32L8920.62 3677.19H8917.31L8927.16 3708.38H8930.6L8939.27 3681.81L8947.94 3708.38H8951.37L8961.22 3677.19H8957.91ZM8981.12 3709.06C8990.16 3709.06 8997.46 3702.02 8997.46 3692.78C8997.46 3683.55 8990.16 3676.5 8981.12 3676.5C8972.01 3676.5 8964.71 3683.55 8964.71 3692.78C8964.71 3702.02 8972.01 3709.06 8981.12 3709.06ZM8981.12 3706.07C8973.7 3706.07 8967.89 3700.21 8967.89 3692.78C8967.89 3685.36 8973.7 3679.5 8981.12 3679.5C8988.54 3679.5 8994.28 3685.36 8994.28 3692.78C8994.28 3700.21 8988.54 3706.07 8981.12 3706.07ZM9008.08 3683.3V3677.19H9004.97V3708.38H9008.08V3691.04C9008.08 3683.05 9013.14 3679.75 9018.5 3679.75V3676.75C9014.26 3676.75 9010.2 3678.38 9008.08 3683.3ZM9048.71 3708.38L9031.31 3692.16L9048.09 3677.19H9043.72L9027.94 3691.35V3664.72H9024.82V3708.38H9027.94V3693.03L9044.47 3708.38H9048.71ZM9079.27 3664.72L9067.86 3668.65L9068.67 3671.52L9078.78 3668.33V3708.38H9082.08V3664.72H9079.27ZM9104.1 3682.49H9095.87L9096.87 3667.84H9117.01V3664.72H9093.93L9092.44 3685.67H9104.1C9110.59 3685.67 9115.33 3689.48 9115.33 3695.78C9115.33 3702.08 9110.59 3705.88 9104.1 3705.88C9098.74 3705.88 9094.56 3703.33 9093.12 3698.65L9090.32 3700.27C9092.31 3706.01 9097.86 3709.06 9104.1 3709.06C9111.96 3709.06 9118.63 3704.2 9118.63 3695.78C9118.63 3687.36 9111.96 3682.49 9104.1 3682.49ZM9454.69 3664.72V3702.27L9428.87 3664.72H9426V3708.38H9429.31V3670.83L9455.07 3708.38H9458V3664.72H9454.69ZM9482.23 3676.5C9472.69 3676.5 9466.08 3683.62 9466.08 3692.78C9466.08 3702.2 9472.88 3709.06 9482.48 3709.06C9488.66 3709.06 9493.52 3706.26 9496.08 3702.02L9493.34 3700.39C9491.53 3703.7 9487.66 3706.07 9482.54 3706.07C9475.43 3706.07 9470.07 3701.45 9469.32 3694.41H9497.58C9497.58 3693.91 9497.64 3693.41 9497.64 3692.91C9497.64 3684.36 9491.71 3676.5 9482.23 3676.5ZM9482.23 3679.5C9488.35 3679.5 9493.71 3683.74 9494.4 3691.35H9469.32C9469.95 3684.43 9475.12 3679.5 9482.23 3679.5ZM9519.98 3680.25V3677.19H9510.69V3668.46L9507.51 3669.39V3677.19H9500.65V3680.25H9507.51V3700.52C9507.51 3707.63 9511.81 3709.63 9519.98 3708.38V3705.57C9513.62 3706.13 9510.69 3706.01 9510.69 3700.52V3680.25H9519.98ZM9565.33 3677.19L9557.03 3704.32L9548.3 3677.19H9545.06L9536.32 3704.32L9528.03 3677.19H9524.72L9534.58 3708.38H9538.01L9546.68 3681.81L9555.35 3708.38H9558.78L9568.63 3677.19H9565.33ZM9588.53 3709.06C9597.57 3709.06 9604.87 3702.02 9604.87 3692.78C9604.87 3683.55 9597.57 3676.5 9588.53 3676.5C9579.42 3676.5 9572.13 3683.55 9572.13 3692.78C9572.13 3702.02 9579.42 3709.06 9588.53 3709.06ZM9588.53 3706.07C9581.11 3706.07 9575.31 3700.21 9575.31 3692.78C9575.31 3685.36 9581.11 3679.5 9588.53 3679.5C9595.95 3679.5 9601.69 3685.36 9601.69 3692.78C9601.69 3700.21 9595.95 3706.07 9588.53 3706.07ZM9615.5 3683.3V3677.19H9612.38V3708.38H9615.5V3691.04C9615.5 3683.05 9620.55 3679.75 9625.91 3679.75V3676.75C9621.67 3676.75 9617.62 3678.38 9615.5 3683.3ZM9656.12 3708.38L9638.72 3692.16L9655.5 3677.19H9651.13L9635.35 3691.35V3664.72H9632.23V3708.38H9635.35V3693.03L9651.88 3708.38H9656.12ZM9686.69 3664.72L9675.27 3668.65L9676.08 3671.52L9686.19 3668.33V3708.38H9689.49V3664.72H9686.69ZM9711.64 3680.31C9709.95 3680.31 9708.39 3680.56 9706.9 3681L9718.06 3664.72H9714.32L9699.66 3685.99C9697.98 3688.36 9696.98 3691.29 9696.98 3694.72C9696.98 3703.2 9703.16 3709.06 9711.64 3709.06C9720.12 3709.06 9726.3 3703.2 9726.3 3694.72C9726.3 3686.17 9720.12 3680.31 9711.64 3680.31ZM9711.64 3705.88C9704.71 3705.88 9700.35 3701.2 9700.35 3694.72C9700.35 3688.17 9704.71 3683.49 9711.64 3683.49C9718.56 3683.49 9722.99 3688.17 9722.99 3694.72C9722.99 3701.2 9718.56 3705.88 9711.64 3705.88Z" fill="black"/>
<rect x="5414.11" y="3527.92" width="118.704" height="137.153" transform="rotate(-90 5414.11 3527.92)" fill="#C4C4C4"/>
<rect x="5992.1" y="3528.92" width="118.704" height="137.153" transform="rotate(-90 5992.1 3528.92)" fill="#BEBEBE"/>
<rect x="6570.11" y="3528.92" width="118.704" height="137.153" transform="rotate(-90 6570.11 3528.92)" fill="#6B707A"/>
<rect x="7148.11" y="3527.92" width="118.704" height="137.153" transform="rotate(-90 7148.11 3527.92)" fill="#737373"/>
<rect x="7745.7" y="3527.92" width="118.704" height="137.153" transform="rotate(-90 7745.7 3527.92)" fill="#E1E1E1"/>
<rect x="8323.7" y="3528.92" width="118.704" height="137.153" transform="rotate(-90 8323.7 3528.92)" fill="#929292"/>
<rect x="8901.7" y="3528.92" width="118.704" height="137.153" transform="rotate(-90 8901.7 3528.92)" fill="#ECE7EA"/>
<rect x="9479.7" y="3527.92" width="118.704" height="137.153" transform="rotate(-90 9479.7 3527.92)" fill="#737373"/>
<rect x="10096.9" y="3527.92" width="118.704" height="137.153" transform="rotate(-90 10096.9 3527.92)" fill="#50423D"/>
<path d="M506.006 1871.15H10439.8" stroke="#E6E6E6" stroke-width="9.19545"/>
<defs>
<filter id="filter0_d_106_407" x="0.693184" y="0" width="10826.8" height="4194.52" filterUnits="userSpaceOnUse" color-interpolation-filters="sRGB">
<feFlood flood-opacity="0" result="BackgroundImageFix"/>
<feColorMatrix in="SourceAlpha" type="matrix" values="0 0 0 0 0 0 0 0 0 0 0 0 0 0 0 0 0 0 127 0" result="hardAlpha"/>
<feOffset dy="74.2609"/>
<feGaussianBlur stdDeviation="37.1305"/>
<feComposite in2="hardAlpha" operator="out"/>
<feColorMatrix type="matrix" values="0 0 0 0 0 0 0 0 0 0 0 0 0 0 0 0 0 0 0.1 0"/>
<feBlend mode="normal" in2="BackgroundImageFix" result="effect1_dropShadow_106_407"/>
<feBlend mode="normal" in="SourceGraphic" in2="effect1_dropShadow_106_407" result="shape"/>
</filter>
<linearGradient id="paint0_linear_106_407" x1="5414.11" y1="0" x2="5414.11" y2="4046" gradientUnits="userSpaceOnUse">
<stop stop-color="#F1F0F2" stop-opacity="0.385417"/>
<stop offset="1" stop-color="#F0EFF3"/>
</linearGradient>
</defs>
</svg>
