<svg xmlns="http://www.w3.org/2000/svg" viewBox="0 0 1024 100"><defs><style>.cls-1{fill:#4c4fee;}.cls-2{fill:#2c3543;}</style></defs><title>icon-7 copy 2</title><g id="Logos"><g id="Layer_7" data-name="Layer 7"><circle class="cls-1" cx="46.39" cy="79" r="12.07"/></g><g id="Layer_1-2" data-name="Layer 1"><path class="cls-2" d="M20.88,67.48a.7.7,0,0,1-.25,0,17.9,17.9,0,1,1,19.84-3.09.59.59,0,1,1-.8-.86,16.72,16.72,0,1,0-18.54,2.89.59.59,0,0,1,.28.78.6.6,0,0,1-.53.33Z"/><path class="cls-2" d="M21.54,57.59a.62.62,0,0,1-.45-.21A9.45,9.45,0,1,1,35.78,57a.59.59,0,1,1-.93-.71h0A8.28,8.28,0,1,0,22,56.62a.58.58,0,0,1-.06.82.55.55,0,0,1-.38.15Z"/><path class="cls-2" d="M49.38,92.65H24.51a1.62,1.62,0,0,1-1.43-.86C21.74,89.23,16.83,80.6,9.94,77.25A4.62,4.62,0,0,1,7.3,73.11a3.18,3.18,0,0,1,.89-2.25,4.31,4.31,0,0,1,2.14-1.19c2.37-.58,10.27,3,13,4.26l.45-19.37c0-4.56,2.12-6.2,4.11-6.2A4.37,4.37,0,0,1,32,53l.46,12.23,14.37,3.31A5.44,5.44,0,0,1,51,73.86V91a1.62,1.62,0,0,1-1.61,1.61ZM11,70.77a1.81,1.81,0,0,0-.4,0A3.24,3.24,0,0,0,9,71.66,2,2,0,0,0,8.47,73a3.47,3.47,0,0,0,2,3.21c7.22,3.5,12.29,12.4,13.67,15a.43.43,0,0,0,.38.23H49.38a.44.44,0,0,0,.44-.43V73.86a4.32,4.32,0,0,0-3.23-4.22L31.75,66.22a.59.59,0,0,1-.46-.55L30.82,53a3.21,3.21,0,0,0-2.94-3.44c-1.81,0-2.94,1.93-2.94,5l-.47,20.28a.59.59,0,0,1-.27.49.64.64,0,0,1-.57,0C19.77,73.51,13.24,70.77,11,70.77Z"/></g></g></svg>