<svg xmlns="http://www.w3.org/2000/svg" viewBox="0 0 1024 100"><defs><style>.cls-1{fill:#4c4fee;}.cls-2{fill:#2c3543;}</style></defs><title>icon-7 copy</title><g id="Logos"><g id="Layer_7" data-name="Layer 7"><circle class="cls-1" cx="49.49" cy="75.96" r="13.82"/></g><g id="Layer_1-2" data-name="Layer 1"><path class="cls-2" d="M29.8,92.7a3.61,3.61,0,0,1-3.17-1.82l-20.54-30A3.68,3.68,0,0,1,6,57.17a3.61,3.61,0,0,1,3.16-1.83h10.6V25.38a2.79,2.79,0,0,1,2.8-2.79H36.9a2.79,2.79,0,0,1,2.79,2.79V55.3H50.28a3.6,3.6,0,0,1,3.17,1.81h0a3.63,3.63,0,0,1,0,3.66L32.9,91A3.56,3.56,0,0,1,29.8,92.7ZM22.59,23.93a1.45,1.45,0,0,0-1.45,1.45V56a.67.67,0,0,1-.67.67H9.2A2.32,2.32,0,0,0,6.89,59a2.29,2.29,0,0,0,.34,1.2l20.54,30a2.33,2.33,0,0,0,2,1.19,2.24,2.24,0,0,0,2-1.11L52.32,60.05a2.3,2.3,0,0,0,0-2.27h0a2.26,2.26,0,0,0-2-1.15H39a.66.66,0,0,1-.67-.66h0V25.38a1.45,1.45,0,0,0-1.45-1.45Z"/></g></g></svg>