<svg xmlns="http://www.w3.org/2000/svg" viewBox="0 0 1024 100"><defs><style>.cls-1{fill:#4c4fee;}.cls-2{fill:#2c3543;}</style></defs><title>icon-7</title><g id="Logos"><g id="Layer_7" data-name="Layer 7"><circle class="cls-1" cx="56.13" cy="79.71" r="13.36"/></g><g id="Layer_1-2" data-name="Layer 1"><path class="cls-2" d="M48.46,65.83a.65.65,0,0,1-.65-.64.64.64,0,0,1,.15-.42l9.27-11.18a.66.66,0,0,1,.92-.08.65.65,0,0,1,.08.91L49,65.59A.64.64,0,0,1,48.46,65.83Z"/><path class="cls-2" d="M41,67.83a.59.59,0,0,1-.29-.07l-8.07-3.92a.67.67,0,0,1-.33-.86.66.66,0,0,1,.86-.33l0,0,8.07,3.92A.65.65,0,0,1,41,67.83Z"/><path class="cls-2" d="M17,72.57a.65.65,0,0,1-.65-.65.66.66,0,0,1,.19-.46L24,64a.64.64,0,0,1,.92,0,.66.66,0,0,1,0,.92l-7.42,7.46A.66.66,0,0,1,17,72.57Z"/><path class="cls-2" d="M10.36,84a6.06,6.06,0,0,1,0-12.12,5.91,5.91,0,0,1,3.89,1.5h0A6,6,0,0,1,16.42,78,6.08,6.08,0,0,1,10.36,84Zm0-10.83A4.77,4.77,0,1,0,15.12,78h0A4.66,4.66,0,0,0,13.4,74.4,4.74,4.74,0,0,0,10.36,73.21Z"/><path class="cls-2" d="M63.73,52.05A6,6,0,0,1,59.27,42h0a5.92,5.92,0,0,1,4.46-2,6.06,6.06,0,1,1,0,12.12Zm0-10.82a4.67,4.67,0,0,0-3.5,1.6h0A4.67,4.67,0,0,0,59,46a4.77,4.77,0,1,0,4.76-4.77h0Zm-4,1.16Z"/><path class="cls-2" d="M45.7,75.9a6,6,0,0,1-4.46-10.09h0a6,6,0,0,1,4.46-2A6.47,6.47,0,0,1,52,70.1,6.05,6.05,0,0,1,45.7,75.9Zm-3.5-9.22a4.7,4.7,0,0,0-1.26,3.16,4.76,4.76,0,0,0,4.76,4.77,4.71,4.71,0,0,0,5-4.42v-.07a5.19,5.19,0,0,0-5-5,4.71,4.71,0,0,0-3.5,1.6Z"/><path class="cls-2" d="M28.24,66.68a6,6,0,0,1-4.46-10.1h0a6,6,0,0,1,4.46-2,6.06,6.06,0,0,1,0,12.12Zm0-10.83a4.71,4.71,0,0,0-3.5,1.6h0a4.7,4.7,0,0,0-1.26,3.16,4.77,4.77,0,1,0,4.76-4.76Zm-4,1.17Z"/><path class="cls-2" d="M58.72,56.76a.65.65,0,0,1-.64-.57l-.37-2.93A.65.65,0,0,1,59,53.1L59.36,56a.64.64,0,0,1-.56.72Z"/><path class="cls-2" d="M55.4,53.91a.65.65,0,0,1,0-1.3l2.94-.09a.64.64,0,0,1,.67.6v0a.65.65,0,0,1-.63.67l-2.94.09Z"/><path class="cls-2" d="M16.57,73.06a.65.65,0,0,1-.65-.62l-.14-2.94a.64.64,0,0,1,.62-.68.69.69,0,0,1,.68.62l.13,2.94a.65.65,0,0,1-.61.68Z"/><path class="cls-2" d="M19.53,73.21h0l-2.94-.13a.65.65,0,0,1-.61-.68.7.7,0,0,1,.68-.62l2.94.14a.65.65,0,0,1,0,1.29Z"/></g></g></svg>