<svg width="65" height="65" viewBox="0 0 65 65" fill="none" xmlns="http://www.w3.org/2000/svg">
<g clip-path="url(#clip0_4_1168)">
<path d="M32.0682 61C24.5708 57.444 18.2022 52.5034 13.5298 45.4777C10.9124 41.5771 9.03001 37.2183 7.97785 32.622C7.90455 32.3023 7.95 31.8457 8.12446 31.5958C8.51297 31.0634 9.26213 31.3594 9.46885 32.0762C9.87788 33.4965 10.2195 34.9436 10.7209 36.3312C13.5738 44.2537 18.557 50.5165 25.3815 55.2578C27.5146 56.745 29.8486 57.9229 32.1049 59.2153C32.2241 59.2709 32.3533 59.301 32.4844 59.3039C32.6155 59.3067 32.7459 59.2821 32.8672 59.2317C39.8149 55.8438 45.7276 51.1902 50.0906 44.6568C52.5903 40.9448 54.403 36.8022 55.4403 32.4317C55.474 32.2829 55.5033 32.1416 55.5487 32.0018C55.6954 31.5557 55.9988 31.3296 56.465 31.398C56.5704 31.4132 56.6713 31.451 56.7612 31.5088C56.851 31.5665 56.9277 31.643 56.9863 31.7332C57.0448 31.8233 57.0837 31.9251 57.1005 32.0316C57.1173 32.1382 57.1116 32.2472 57.0837 32.3513C56.9371 33.0578 56.7656 33.7598 56.5633 34.4513C53.8012 43.9459 48.195 51.3345 40.1741 56.8387C37.8856 58.4078 35.3596 59.6229 32.9435 61.003L32.0682 61Z" fill="#0F3384"/>
<path d="M10.9203 22.9414C10.9203 21.3055 10.9203 20.1633 10.9203 19.0136C10.9115 17.7004 11.4862 16.8036 12.6957 16.295C16.0324 14.8895 18.5599 12.5769 20.1726 9.28707C20.6681 8.28021 21.4686 7.76562 22.5857 7.76562H42.4436C43.5373 7.76562 44.3319 8.26831 44.8186 9.25287C46.4313 12.5456 48.9485 14.8672 52.2882 16.2697C53.5168 16.7857 54.1164 17.69 54.0885 19.03C54.0357 21.6237 54.0885 24.2264 53.9009 26.8112C53.5578 31.5704 52.1211 36.0321 49.8501 40.1964C46.0911 47.1136 40.6242 52.246 33.8026 55.9463C33.4136 56.177 32.9716 56.2998 32.521 56.3024C32.0704 56.305 31.6271 56.1873 31.2355 55.9612C24.0694 52.0691 18.4045 46.6347 14.669 39.255C12.0874 34.2233 10.7981 28.6125 10.9203 22.9414ZM32.5286 9.37185C29.2725 9.37185 26.0178 9.37185 22.7631 9.37185C22.2163 9.37185 21.8249 9.54139 21.5683 10.0649C19.7929 13.6938 16.9986 16.2191 13.3422 17.7837C12.7778 18.0246 12.5124 18.3682 12.5212 18.9988C12.5447 20.6496 12.5212 22.3019 12.5329 23.9528C12.5704 29.374 13.9556 34.6981 16.5602 39.432C20.1535 46.0413 25.3903 50.9417 31.9084 54.4948C32.3922 54.7595 32.8042 54.6613 33.2499 54.4159C38.2462 51.6824 42.5227 48.0907 45.9094 43.452C49.4411 38.614 51.6783 33.2272 52.2486 27.2187C52.4978 24.5863 52.4216 21.9227 52.4759 19.2724C52.4993 18.1971 52.4143 18.1153 51.4599 17.693C47.9486 16.1418 45.2511 13.6893 43.5153 10.2062C43.2045 9.58452 42.791 9.36441 42.1298 9.36738C38.9294 9.38374 35.7334 9.37185 32.5286 9.37185Z" fill="#0F3384"/>
<path d="M32.5082 4.00167H45.5107C46.9768 4.00167 47.7098 4.67241 47.9884 6.12247C48.6613 9.53123 50.7856 11.6505 53.9377 12.7868C54.5978 13.0027 55.276 13.1571 55.9638 13.2478C57.273 13.459 57.9972 14.2369 57.9958 15.5739C57.9958 19.0243 57.983 22.4752 57.9576 25.9266C57.9576 26.5363 57.8917 27.1476 57.8359 27.7574C57.7802 28.3671 57.4225 28.6839 56.9153 28.62C56.4461 28.562 56.2189 28.1738 56.2291 27.5938C56.2985 23.5901 56.3601 19.5855 56.4139 15.5798C56.4212 15.1218 56.1852 14.9314 55.7483 14.8734C53.4026 14.5655 51.3076 13.6747 49.5424 12.061C47.874 10.5366 46.7848 8.66417 46.4197 6.3991C46.3303 5.84139 46.0869 5.62276 45.5122 5.62425C36.8429 5.63912 28.174 5.63912 19.5057 5.62425C18.9852 5.62425 18.7052 5.77297 18.5938 6.32771C17.6702 10.959 14.7175 13.5453 10.3472 14.6801C9.97491 14.7751 9.59606 14.8412 9.2139 14.8779C8.75503 14.9255 8.58496 15.1753 8.58643 15.6215C8.58643 16.7533 8.58643 17.8851 8.58643 19.0169C8.61282 21.559 8.64556 24.0997 8.68465 26.639C8.68465 26.9721 8.7433 27.3038 8.76969 27.6369C8.81367 28.2318 8.52046 28.6423 8.03665 28.678C7.57924 28.7137 7.20686 28.3657 7.17314 27.7975C7.09984 26.52 7.02654 25.241 7.01041 23.9634C6.98695 21.2358 7.00161 18.5082 7.01041 15.7836C7.01041 14.1833 7.66721 13.4352 9.22563 13.2389C12.8776 12.7794 15.9417 10.2302 16.855 6.86758C16.9474 6.52849 17.0016 6.17899 17.0676 5.83544C17.3095 4.67687 18.1364 4.00316 19.3429 4.00316C23.7323 3.9982 28.1208 3.9977 32.5082 4.00167Z" fill="#0F3384"/>
<path d="M40.3471 24.2533H41.451C43.1737 24.2533 44.2102 25.3033 44.2146 27.0657C44.2234 30.1086 44.2146 33.1515 44.2146 36.1943C44.2146 36.8056 44.2146 37.4184 44.2146 38.0296C44.2146 40.0076 43.222 41.0219 41.2824 41.0234H25.9254C25.1381 41.0234 24.3523 41.0338 23.5665 41.0234C21.904 40.9981 20.8704 39.9407 20.869 38.2572C20.869 34.5093 20.869 30.7615 20.869 27.0136C20.869 25.3241 21.9113 24.2652 23.5651 24.2563C23.9272 24.2563 24.2893 24.2563 24.7174 24.2563C24.7174 23.0114 24.6807 21.8097 24.7306 20.614C24.7463 19.8001 24.8515 18.9905 25.0443 18.2002C26.053 14.5 29.6536 12.0505 33.3525 12.4892C37.1833 12.9428 40.0964 16.0199 40.3134 19.8823C40.3808 21.1226 40.3398 22.3675 40.3471 23.6108C40.3486 23.8071 40.3471 24.0064 40.3471 24.2533ZM32.5418 39.4023C35.4661 39.4023 38.3904 39.4023 41.3147 39.4023C42.2984 39.4023 42.6034 39.1049 42.6034 38.1203C42.6034 34.4696 42.6034 30.8175 42.6034 27.1638C42.6034 26.1703 42.3102 25.8699 41.3294 25.8699C35.4651 25.8699 29.6008 25.8699 23.7366 25.8699C22.7822 25.8699 22.4728 26.1674 22.4714 27.1207C22.4714 30.7892 22.4714 34.4602 22.4714 38.1337C22.4714 39.09 22.7836 39.4008 23.7205 39.4023C26.6584 39.4043 29.5989 39.4043 32.5418 39.4023ZM38.6655 24.2221C38.6655 22.5861 38.8121 20.9962 38.6362 19.4421C38.3078 16.4527 35.8507 14.2813 32.8145 14.088C29.9864 13.9125 27.198 15.8295 26.6115 18.6732C26.2436 20.4578 26.3388 22.3392 26.223 24.2176L38.6655 24.2221Z" fill="#0F3384"/>
<path d="M31.7369 34.7695C31.7274 34.5847 31.7274 34.3995 31.7369 34.2148C31.7726 34.0102 31.7495 33.7995 31.6705 33.6078C31.5915 33.4161 31.4598 33.2515 31.2912 33.1335C30.4556 32.4643 30.4556 31.2001 31.2033 30.4253C31.3764 30.2467 31.5827 30.1046 31.8102 30.0074C32.0378 29.9102 32.2821 29.8597 32.529 29.8589C32.7759 29.8581 33.0205 29.9069 33.2487 30.0026C33.4768 30.0983 33.6841 30.2389 33.8583 30.4163C34.6031 31.1719 34.6045 32.4539 33.785 33.132C33.6205 33.2545 33.4918 33.4197 33.4123 33.6103C33.3328 33.8009 33.3056 34.0098 33.3335 34.2148C33.3613 34.6951 33.3511 35.177 33.3335 35.6589C33.3159 36.2315 32.9919 36.5958 32.5315 36.5943C32.0712 36.5929 31.7501 36.227 31.7369 35.6589C31.7311 35.3644 31.7369 35.0669 31.7369 34.7695Z" fill="#0F3384"/>
</g>
<defs>
<clipPath id="clip0_4_1168">
<rect width="51" height="57" fill="white" transform="translate(7 4)"/>
</clipPath>
</defs>
</svg>
