<svg width="61" height="51" viewBox="0 0 61 51" fill="none" xmlns="http://www.w3.org/2000/svg">
<g clip-path="url(#clip0_16_33)">
<path d="M0 46.0503C0.394698 45.2345 1.18091 45.5122 1.90983 45.4191V44.777C1.90983 41.7064 1.99896 38.6327 1.88914 35.5669C1.72999 30.9658 4.92418 27.1379 9.5412 26.5273C9.5412 25.8378 9.55552 25.1356 9.52847 24.435C9.49353 24.267 9.40206 24.1156 9.26905 24.0058C8.27035 23.04 7.51708 21.853 7.07115 20.5424C7.00544 20.3421 6.88607 20.1632 6.72579 20.0249C4.0934 17.9405 3.39791 15.2045 3.99951 12.0456C4.04629 11.8707 4.04324 11.6864 3.9907 11.5131C3.93816 11.3399 3.83818 11.1844 3.70189 11.0641C3.09689 10.4253 2.62734 9.67254 2.32107 8.85052C2.01479 8.0285 1.87802 7.15391 1.91883 6.27854C1.95965 5.40316 2.17723 4.5448 2.5587 3.7543C2.94016 2.9638 3.47775 2.25723 4.13963 1.67644C4.8015 1.09564 5.5742 0.652422 6.41197 0.373039C7.24974 0.0936567 8.13554 -0.0162116 9.01691 0.0499384C9.89828 0.116089 10.7573 0.356914 11.5431 0.758151C12.3289 1.15939 13.0255 1.71288 13.5916 2.38584C13.9099 2.76769 14.2012 2.87183 14.6866 2.84816C19.8193 2.60517 24.0623 5.87294 25.2512 10.9805C25.7461 13.1043 25.8973 15.2234 24.9233 17.2778C24.9111 17.3151 24.8962 17.3515 24.8787 17.3867C23.9572 18.6048 23.4686 20.0186 22.918 21.4229C22.2495 23.1207 20.989 24.3956 19.3705 25.265C18.8564 25.5411 18.9376 25.934 18.9965 26.308C19.0203 26.4657 19.3339 26.6235 19.5423 26.6788C20.6721 26.9818 21.6795 27.624 22.4264 28.5173C23.1732 29.4106 23.6229 30.5112 23.7137 31.668C23.7424 32.0719 23.8617 32.2124 24.274 32.1997C25.0872 32.1761 25.9037 32.1745 26.7154 32.2092C28.2305 32.2771 29.4209 33.3737 29.4496 34.8742C29.5005 38.101 29.4671 41.3277 29.4576 44.556C29.4362 44.8428 29.3937 45.1276 29.3302 45.4081H31.5122V44.7075C31.5122 40.4962 31.5377 36.2833 31.5027 32.0719C31.4836 29.7998 32.4448 28.2093 34.5266 27.2326C36.2629 26.4168 37.9563 25.508 39.6942 24.6938C40.3309 24.3987 40.0444 23.9049 40.1224 23.4883C40.1924 23.0986 39.933 23.0071 39.6449 22.8745C36.3982 21.3976 34.5807 18.9093 34.4183 15.3481C34.3324 13.4546 34.4024 11.5612 34.3786 9.68035C34.3786 9.48153 34.2831 9.19594 34.1335 9.09969C32.7011 8.17348 32.2539 7.21571 32.561 5.56368C33.0385 2.97124 35.2666 1.00994 37.9261 0.953136C40.6651 0.894755 43.4073 0.874243 46.1447 0.953136C50.0774 1.06832 53.2875 4.36134 53.3559 8.2792C53.3962 10.5619 53.3962 12.845 53.3559 15.1287C53.3161 16.9023 52.4933 18.264 50.9288 19.146C50.7798 19.2113 50.656 19.3227 50.576 19.4634C50.496 19.6042 50.464 19.7668 50.4848 19.927C50.5081 21.0095 50.5081 22.0919 50.4848 23.1743C50.4721 23.7613 50.7124 24.1321 51.2376 24.3861C52.627 25.0583 54.0068 25.7494 55.3883 26.4373C57.2106 27.3509 58.1162 28.831 58.1241 30.8554C58.1241 32.5295 58.1337 34.2021 58.1241 35.8746C58.1071 36.0158 58.1363 36.1587 58.2074 36.2823C58.2784 36.4058 58.3876 36.5035 58.5188 36.561C60.1422 37.4682 60.9761 38.8694 60.9873 40.7155C61.0048 43.7655 60.9873 46.8171 60.9873 49.8672C60.9873 50.593 60.6419 51.0174 60.0785 51.0064C59.5151 50.9953 59.2032 50.5788 59.2032 49.8356C59.2032 46.8629 59.2032 43.8907 59.2032 40.9191C59.2032 38.9436 58.0207 37.7633 56.0201 37.7633C51.7315 37.7559 47.4434 37.7559 43.1558 37.7633C41.1505 37.7633 39.9982 38.9309 39.995 40.9364C39.995 43.8492 39.995 46.7619 39.995 49.6747C40.0042 49.9101 39.9818 50.1457 39.9282 50.3752C39.8873 50.5721 39.7721 50.7461 39.6062 50.8617C39.4402 50.9772 39.2361 51.0256 39.0354 50.9969C38.8343 50.9934 38.6417 50.9161 38.4947 50.78C38.3478 50.6439 38.2569 50.4587 38.2396 50.2601C38.217 50.0447 38.2096 49.828 38.2173 49.6116C38.2173 45.3197 38.1982 41.0295 38.2253 36.7393C38.2364 35.1914 37.7176 33.9543 36.4746 32.9966C35.4878 32.2408 34.552 31.4187 33.4507 30.5114C33.3998 31.1157 33.325 31.5859 33.3234 32.0561C33.3159 37.8817 33.3159 43.7077 33.3234 49.5342C33.3298 49.7506 33.3234 49.9671 33.3043 50.1827C33.2406 50.6892 32.8491 51.0474 32.3876 51.0017C31.891 50.9527 31.5743 50.6687 31.5536 50.1622C31.5265 49.4364 31.5393 48.7074 31.5361 47.9785V47.2305H30.7642C20.9572 47.2305 11.1502 47.2305 1.34325 47.2305C0.789397 47.2305 0.326263 47.1359 0.0190987 46.642L0 46.0503ZM6.82924 45.4191C6.76 45.0471 6.71217 44.6715 6.686 44.2941C6.67008 42.8377 6.67486 41.3814 6.686 39.925C6.686 39.226 7.01226 38.8347 7.57089 38.8205C8.12952 38.8063 8.46692 39.1976 8.46851 39.895C8.46851 41.2331 8.46851 42.5774 8.46851 43.9107C8.46851 45.0783 8.82501 45.4397 9.98364 45.4412H26.1822C27.3233 45.4412 27.6878 45.0878 27.6894 43.9675C27.6894 41.1526 27.6894 38.3377 27.6894 35.5227C27.6894 34.2604 27.3711 33.9543 26.1106 33.9543C20.8888 33.9543 15.667 33.9748 10.4452 33.9417C8.95552 33.9307 8.3014 34.1689 8.46214 35.8351C8.46453 35.8551 8.46453 35.8752 8.46214 35.8951C8.42076 36.4142 8.08018 36.7661 7.60431 36.7835C7.37273 36.7877 7.14836 36.7036 6.97748 36.5486C6.80661 36.3935 6.70227 36.1794 6.686 35.9503C6.40907 33.4021 7.97514 32.1193 10.0155 32.1634C13.7476 32.2344 17.4813 32.184 21.2134 32.184H21.8914C22.0299 30.5193 20.849 28.9446 19.1986 28.4302C18.7625 28.2945 18.562 28.3734 18.3153 28.7821C17.9053 29.4884 17.3149 30.075 16.6033 30.483C15.8918 30.891 15.0844 31.1058 14.2625 31.1058C13.4405 31.1058 12.6331 30.891 11.9216 30.483C11.2101 30.075 10.6196 29.4884 10.2096 28.7821C9.95499 28.3466 9.70035 28.285 9.26586 28.3718C5.97459 29.0172 3.7178 31.6853 3.69552 35.0115C3.67324 38.3377 3.69552 41.6654 3.69552 44.9915C3.69552 45.1241 3.71144 45.2566 3.72099 45.4144L6.82924 45.4191ZM48.8598 24.5833C48.8073 24.009 48.7325 23.5057 48.7214 23.0055C48.6991 22.0808 48.7071 21.1546 48.7214 20.23C48.7214 19.9444 48.6816 19.7771 48.3474 19.6856C47.9193 19.5673 47.6551 19.187 47.7999 18.7752C47.9033 18.477 48.2423 18.2482 48.5065 18.021C48.5925 17.9468 48.7739 17.9768 48.9108 17.9642C50.3957 17.8159 51.54 16.6735 51.5638 15.1871C51.602 12.8456 51.6371 10.5024 51.5511 8.16401C51.4984 6.73868 50.9027 5.38613 49.8841 4.37891C48.8655 3.37169 47.4997 2.78467 46.0619 2.73613C43.3659 2.65881 40.6635 2.68564 37.9659 2.72824C37.165 2.75284 36.3924 3.02712 35.7578 3.51208C35.1232 3.99704 34.6589 4.668 34.4311 5.42956C33.9536 6.99639 34.3515 7.55022 35.9828 7.56126C38.386 7.57704 39.9712 9.13914 39.9935 11.5201C40.003 12.4448 39.976 13.3694 40.0094 14.294C40.0361 15.2478 40.426 16.1563 41.1006 16.8368C41.7752 17.5173 42.6846 17.9195 43.646 17.9626C44.063 17.9847 44.4816 17.9626 44.8954 18.0005C45.118 18.0103 45.3279 18.1061 45.4802 18.2674C45.6324 18.4287 45.715 18.6427 45.7102 18.8636C45.7389 19.3259 45.3664 19.6935 44.8508 19.7409C40.4407 20.1416 38.0375 16.866 38.1966 13.8428C38.2428 13.0191 38.2221 12.1907 38.1966 11.3639C38.16 10.1648 37.3674 9.37897 36.212 9.38844C36.1904 9.5005 36.1761 9.61381 36.169 9.72768C36.169 11.558 36.134 13.3883 36.1833 15.2171C36.2629 18.2151 38.0932 20.5819 40.9882 21.4828C41.7266 21.7148 41.8937 21.9388 41.8985 22.723C41.8985 23.3305 41.8985 23.938 41.8985 24.5833H48.8598ZM56.313 35.9819C56.3273 35.7515 56.3464 35.5795 56.3464 35.4075C56.3464 33.8928 56.3464 32.3765 56.3464 30.8617C56.3464 29.5536 55.7718 28.6022 54.5957 28.0215C53.6567 27.5482 52.7241 27.0748 51.7723 26.6362C51.4733 26.4957 51.1482 26.4178 50.8174 26.4074C48.6147 26.3884 46.4025 26.5241 44.211 26.3648C41.4799 26.166 39.0003 26.6803 36.6974 28.1446C36.0703 28.5438 35.3669 28.8247 34.6443 29.186C35.7584 30.1059 36.804 30.9785 37.8576 31.8416C38.8928 32.6583 39.6041 33.811 39.8661 35.0967C39.9823 35.6695 39.9935 36.2628 40.0619 36.9539C41.4943 35.7847 43.1765 35.9898 44.8126 35.9866C48.4052 35.9866 51.9978 35.9866 55.5904 35.9866L56.313 35.9819ZM11.5465 11.5343C9.41388 13.483 8.42076 15.5879 8.451 18.032C8.49238 21.3203 11.0404 24.1668 14.2808 24.5486C17.7185 24.9541 20.9174 22.9029 21.6575 19.6225C21.9647 18.2655 21.8692 16.8155 21.9185 15.4049C21.944 14.6838 21.6002 14.354 20.8458 14.2688C17.5959 13.8948 14.4383 13.21 11.5465 11.5343ZM23.7137 14.8305L23.8729 14.7911C23.8172 13.9706 23.8188 13.1406 23.6946 12.3312C22.9227 7.28198 19.0092 4.05839 13.9227 4.68796C9.01281 5.29544 5.17883 9.87285 5.61331 14.7548C5.6733 15.6861 6.0137 16.5782 6.59051 17.3157C6.77354 16.5062 6.90881 15.752 7.11412 15.0151C7.71413 12.8377 9.25472 11.2835 10.7619 9.71663C11.1359 9.3269 11.5831 9.42 12.0065 9.70559C13.4087 10.6428 14.9734 11.3152 16.6219 11.689C17.9452 12.0249 19.2891 12.2747 20.6453 12.4369C22.2177 12.5963 23.3063 13.2321 23.7137 14.8305ZM11.9492 3.28681C10.3577 1.36654 7.18892 1.26556 5.24089 3.03435C2.98888 5.07612 3.46953 8.2792 4.78094 9.50363C6.26955 6.42046 8.65737 4.34819 11.9444 3.28681H11.9492ZM11.3619 25.489C11.2028 27.0054 11.5211 28.2598 12.8882 28.9919C13.98 29.5742 15.0797 29.4653 16.0712 28.7142C16.8861 28.0831 17.2505 27.2452 17.1662 26.1659C15.1195 26.573 13.2288 26.3837 11.3619 25.489Z" fill="#1F457E"/>
<path d="M20.8713 39.7027C20.8725 40.0671 20.8013 40.4283 20.6616 40.7654C20.522 41.1025 20.3166 41.4091 20.0573 41.6674C19.798 41.9258 19.4899 42.131 19.1506 42.2712C18.8112 42.4114 18.4474 42.4838 18.0797 42.4844C17.3387 42.4742 16.631 42.1773 16.1077 41.657C15.5844 41.1367 15.2869 40.4342 15.2786 39.6995C15.2829 38.9642 15.5809 38.2605 16.1074 37.7427C16.6339 37.2248 17.346 36.935 18.0877 36.9366C18.4547 36.9333 18.8187 37.0025 19.1584 37.1404C19.4981 37.2783 19.8066 37.482 20.0659 37.7396C20.3251 37.9972 20.5299 38.3036 20.6682 38.6406C20.8065 38.9777 20.8755 39.3388 20.8713 39.7027ZM19.0808 39.6758C19.0811 39.5435 19.0539 39.4124 19.0009 39.2909C18.9479 39.1694 18.8703 39.06 18.7728 38.9696C18.6753 38.8791 18.56 38.8096 18.4342 38.7652C18.3084 38.7208 18.1747 38.7027 18.0415 38.7118C17.7825 38.721 17.5369 38.8285 17.3554 39.0119C17.1738 39.1954 17.0702 39.441 17.0659 39.6979C17.0725 39.9652 17.1829 40.2197 17.3742 40.4082C17.5655 40.5966 17.8228 40.7045 18.0925 40.7093C18.226 40.7063 18.3575 40.6771 18.4796 40.6234C18.6016 40.5697 18.7117 40.4926 18.8036 40.3965C18.8955 40.3005 18.9673 40.1873 19.0148 40.0636C19.0624 39.9399 19.0848 39.8081 19.0808 39.6758Z" fill="#1F457E"/>
</g>
<defs>
<clipPath id="clip0_16_33">
<rect width="61" height="51" fill="white"/>
</clipPath>
</defs>
</svg>
