<svg width="63" height="22" viewBox="0 0 63 22" fill="none" xmlns="http://www.w3.org/2000/svg">
<path d="M62.328 0.358249C62.4163 0.357971 62.5038 0.375222 62.5855 0.409012C62.6671 0.442801 62.7413 0.492462 62.8038 0.555135C62.8662 0.617807 62.9157 0.692255 62.9494 0.774194C62.9831 0.856133 63.0003 0.943946 63 1.03258V4.31993C63.0003 4.40857 62.9831 4.49638 62.9494 4.57832C62.9157 4.66025 62.8662 4.73471 62.8038 4.79738C62.7413 4.86005 62.6671 4.90971 62.5855 4.9435C62.5038 4.97729 62.4163 4.99454 62.328 4.99426H58.5376C58.4885 4.99135 58.4395 4.99889 58.3936 5.01639C58.3477 5.03389 58.306 5.06096 58.2713 5.0958C58.2365 5.13064 58.2096 5.17248 58.1921 5.21854C58.1747 5.2646 58.1672 5.31385 58.1701 5.36304V20.9569C58.1704 21.0455 58.1532 21.1333 58.1195 21.2153C58.0858 21.2972 58.0363 21.3717 57.9739 21.4343C57.9114 21.497 57.8372 21.5467 57.7556 21.5805C57.6739 21.6143 57.5864 21.6315 57.4981 21.6312H54.2221C54.1338 21.6315 54.0463 21.6143 53.9646 21.5805C53.883 21.5467 53.8088 21.497 53.7463 21.4343C53.6839 21.3717 53.6344 21.2972 53.6007 21.2153C53.5671 21.1333 53.5499 21.0455 53.5501 20.9569V5.43679C53.5531 5.3876 53.5455 5.33835 53.5281 5.29229C53.5107 5.24623 53.4837 5.2044 53.449 5.16955C53.4142 5.13471 53.3725 5.10765 53.3266 5.09014C53.2807 5.07264 53.2317 5.0651 53.1827 5.06802H49.3922C49.3039 5.06829 49.2164 5.05104 49.1347 5.01725C49.0531 4.98346 48.9789 4.9338 48.9164 4.87113C48.854 4.80846 48.8045 4.73401 48.7708 4.65207C48.7371 4.57013 48.7199 4.48232 48.7202 4.39369V1.10633C48.7199 1.0177 48.7371 0.929889 48.7708 0.84795C48.8045 0.766011 48.854 0.691562 48.9164 0.628889C48.9789 0.566216 49.0531 0.516556 49.1347 0.482766C49.2164 0.448976 49.3039 0.431725 49.3922 0.432004H62.328" fill="#2C3543"/>
<path d="M7.58087 17.5958H4.53592C4.45957 17.5908 4.38763 17.5582 4.33353 17.5039C4.27943 17.4496 4.24687 17.3774 4.24193 17.3008V13.1178C4.24687 13.0412 4.27943 12.969 4.33353 12.9147C4.38763 12.8604 4.45957 12.8278 4.53592 12.8228H7.58087C8.84085 12.8228 9.73334 14.0134 9.73334 15.2146C9.73334 16.4157 8.92485 17.5958 7.58087 17.5958ZM4.23143 4.90996C4.23637 4.83335 4.26893 4.76115 4.32303 4.70686C4.37713 4.65258 4.44907 4.6199 4.52542 4.61494H7.42338C8.46286 4.61494 9.42884 5.58429 9.42884 6.6274C9.42884 7.6705 8.46286 8.7136 7.42338 8.7136H4.53592C4.45957 8.70864 4.38763 8.67597 4.33353 8.62168C4.27943 8.56739 4.24687 8.4952 4.24193 8.41858V4.90996H4.23143ZM12.2638 11.0316C12.2289 10.9973 12.2011 10.9563 12.1822 10.9111C12.1633 10.8658 12.1535 10.8173 12.1535 10.7682C12.1535 10.7191 12.1633 10.6706 12.1822 10.6253C12.2011 10.5801 12.2289 10.5391 12.2638 10.5048C13.3768 9.38793 13.8283 7.96552 13.8283 6.47989C13.8283 3.11878 11.2243 0.284485 7.50737 0.284485H2.00547C0.892485 0.284485 0 1.18008 0 2.37069V19.9138C0 21.0307 0.892485 22 2.00547 22H7.43388C11.4448 22 13.9753 19.387 13.9753 15.2883C14.0488 13.6446 13.4608 12.001 12.2638 11.0316V11.0316Z" fill="#2C3543"/>
<path d="M28.927 17.1533H21.8606C21.8116 17.1562 21.7625 17.1486 21.7166 17.1311C21.6707 17.1136 21.629 17.0866 21.5943 17.0517C21.5596 17.0169 21.5326 16.975 21.5152 16.929C21.4977 16.8829 21.4902 16.8337 21.4931 16.7845V13.8027C21.4902 13.7535 21.4977 13.7042 21.5152 13.6582C21.5326 13.6121 21.5596 13.5703 21.5943 13.5354C21.629 13.5006 21.6707 13.4735 21.7166 13.456C21.7625 13.4385 21.8116 13.431 21.8606 13.4339H28.549C28.7466 13.4334 28.9359 13.3544 29.0755 13.2142C29.2152 13.074 29.2939 12.8841 29.2945 12.6858V9.32472C29.2939 9.12648 29.2152 8.93653 29.0755 8.79635C28.9359 8.65618 28.7466 8.57719 28.549 8.57663H21.8606C21.8116 8.57955 21.7625 8.572 21.7166 8.5545C21.6707 8.537 21.629 8.50994 21.5943 8.47509C21.5596 8.44025 21.5326 8.39842 21.5152 8.35236C21.4977 8.30629 21.4902 8.25705 21.4931 8.20786V5.22605C21.4902 5.17686 21.4977 5.12762 21.5152 5.08155C21.5326 5.03549 21.5596 4.99366 21.5943 4.95882C21.629 4.92397 21.6707 4.89691 21.7166 4.87941C21.7625 4.86191 21.8116 4.85436 21.8606 4.85728H28.78C28.9776 4.85672 29.1669 4.77773 29.3065 4.63756C29.4462 4.49739 29.5249 4.30743 29.5255 4.1092V0.748085C29.5249 0.549852 29.4462 0.359896 29.3065 0.219723C29.1669 0.0795505 28.9776 0.000556057 28.78 0H18.5952C18.0715 0.042167 17.5825 0.279813 17.2248 0.666031C16.8672 1.05225 16.6668 1.55898 16.6632 2.08621V19.545C16.6752 20.0945 16.8981 20.6182 17.2854 21.0068C17.6728 21.3955 18.1946 21.6191 18.7422 21.6312H28.8535C29.0511 21.6307 29.2403 21.5517 29.38 21.4115C29.5197 21.2713 29.5984 21.0814 29.599 20.8831V17.522C29.6725 17.4483 29.368 17.1533 28.927 17.1533" fill="#2C3543"/>
<path d="M41.7158 13.4234H39.1853C38.9649 13.4234 38.8179 13.2021 38.8179 12.9808L40.2353 5.81609C40.2353 5.77696 40.2508 5.73945 40.2784 5.71178C40.306 5.68412 40.3433 5.66858 40.3823 5.66858C40.4213 5.66858 40.4587 5.68412 40.4863 5.71178C40.5138 5.73945 40.5293 5.77696 40.5293 5.81609L41.9468 12.9808C42.0938 13.1916 41.8628 13.4234 41.7158 13.4234ZM48.4882 21.0306L43.4273 1.8544C43.317 1.42488 43.0671 1.04452 42.7172 0.773531C42.3673 0.502542 41.9373 0.3564 41.4953 0.358232H39.3428C38.9008 0.3564 38.4709 0.502542 38.1209 0.773531C37.771 1.04452 37.5211 1.42488 37.4109 1.8544L32.35 21.1044C32.203 21.5469 32.5705 22 33.022 22H36.4449C36.5984 21.9962 36.7467 21.943 36.8677 21.8481C36.9887 21.7532 37.0761 21.6218 37.1169 21.4732L37.9359 18.3439C38.0094 18.1226 38.1564 17.9751 38.3769 17.9751H42.3878C42.6083 17.9751 42.7553 18.1226 42.8288 18.3439L43.7213 21.4732C43.7625 21.6215 43.85 21.7527 43.9709 21.8475C44.0918 21.9423 44.2399 21.9957 44.3933 22H47.8162C48.2677 21.9262 48.6352 21.4837 48.4882 21.0306" fill="#2C3543"/>
</svg>
