<svg width="65" height="65" viewBox="0 0 65 65" fill="none" xmlns="http://www.w3.org/2000/svg">
<path d="M24.355 22.476H55.2441C56.5061 22.476 57.7165 21.9767 58.6089 21.088C59.5013 20.1994 60.0027 18.994 60.0027 17.7373C60.0027 16.4805 59.5013 15.2752 58.6089 14.3865C57.7165 13.4978 56.5061 12.9985 55.2441 12.9985H24.355C23.093 12.9985 21.8826 13.4978 20.9902 14.3865C20.0978 15.2752 19.5964 16.4805 19.5964 17.7373C19.5964 18.994 20.0978 20.1994 20.9902 21.088C21.8826 21.9767 23.093 22.476 24.355 22.476V22.476ZM24.355 14.946H55.2441C55.9779 14.9617 56.6763 15.263 57.1896 15.7854C57.703 16.3078 57.9905 17.0096 57.9905 17.7405C57.9905 18.4714 57.703 19.1732 57.1896 19.6956C56.6763 20.218 55.9779 20.5193 55.2441 20.535H24.355C23.6212 20.5193 22.9228 20.218 22.4094 19.6956C21.8961 19.1732 21.6086 18.4714 21.6086 17.7405C21.6086 17.0096 21.8961 16.3078 22.4094 15.7854C22.9228 15.263 23.6212 14.9617 24.355 14.946V14.946Z" fill="#0F3384"/>
<path d="M15.4375 14.0634C15.347 13.973 15.2395 13.9013 15.1212 13.8524C15.0029 13.8035 14.876 13.7783 14.7478 13.7783C14.6197 13.7783 14.4928 13.8035 14.3745 13.8524C14.2561 13.9013 14.1486 13.973 14.0582 14.0634L8.74552 19.3526L5.66613 16.2874C5.57555 16.197 5.46795 16.1252 5.34949 16.0763C5.23104 16.0274 5.10405 16.0022 4.97581 16.0022C4.84757 16.0022 4.72058 16.0274 4.60213 16.0763C4.48367 16.1252 4.37607 16.197 4.28549 16.2874C4.1949 16.3775 4.12304 16.4846 4.07402 16.6024C4.02499 16.7203 3.99976 16.8466 3.99976 16.9741C3.99976 17.1017 4.02499 17.228 4.07402 17.3458C4.12304 17.4637 4.1949 17.5708 4.28549 17.6609L8.05585 21.4143C8.14641 21.5045 8.25392 21.576 8.37226 21.6249C8.49059 21.6737 8.61743 21.6988 8.74552 21.6988C8.8736 21.6988 9.00044 21.6737 9.11877 21.6249C9.23711 21.576 9.34463 21.5045 9.43518 21.4143L15.4323 15.4422C15.524 15.3522 15.5969 15.2451 15.6469 15.127C15.6968 15.0089 15.7228 14.882 15.7233 14.7539C15.7237 14.6257 15.6987 14.4987 15.6497 14.3802C15.6007 14.2617 15.5285 14.154 15.4375 14.0634V14.0634Z" fill="#0F3384"/>
<path d="M24.355 36.7382H55.2441C56.5061 36.7382 57.7165 36.2389 58.6089 35.3502C59.5013 34.4616 60.0027 33.2563 60.0027 31.9995C60.0027 30.7427 59.5013 29.5374 58.6089 28.6487C57.7165 27.76 56.5061 27.2607 55.2441 27.2607H24.355C23.093 27.2607 21.8826 27.76 20.9902 28.6487C20.0978 29.5374 19.5964 30.7427 19.5964 31.9995C19.5964 33.2563 20.0978 34.4616 20.9902 35.3502C21.8826 36.2389 23.093 36.7382 24.355 36.7382V36.7382ZM24.355 29.2082H55.2441C55.9619 29.2459 56.6378 29.5565 57.1324 30.0758C57.6271 30.5951 57.9029 31.2837 57.9029 31.9995C57.9029 32.7153 57.6271 33.4038 57.1324 33.9231C56.6378 34.4424 55.9619 34.753 55.2441 34.7908H24.355C23.6372 34.753 22.9613 34.4424 22.4667 33.9231C21.972 33.4038 21.6962 32.7153 21.6962 31.9995C21.6962 31.2837 21.972 30.5951 22.4667 30.0758C22.9613 29.5565 23.6372 29.2459 24.355 29.2082Z" fill="#0F3384"/>
<path d="M15.4376 28.3236C15.347 28.2334 15.2395 28.1618 15.1212 28.113C15.0028 28.0642 14.876 28.0391 14.7479 28.0391C14.6198 28.0391 14.493 28.0642 14.3747 28.113C14.2563 28.1618 14.1488 28.2334 14.0582 28.3236L8.74558 33.6141L5.66619 30.5476C5.48291 30.3656 5.23467 30.2634 4.97587 30.2634C4.71708 30.2634 4.46883 30.3656 4.28555 30.5476C4.10284 30.7301 4.00024 30.9773 4.00024 31.235C4.00024 31.4927 4.10284 31.7399 4.28555 31.9224L8.05591 35.6758C8.14647 35.766 8.25399 35.8375 8.37232 35.8864C8.49066 35.9352 8.61749 35.9603 8.74558 35.9603C8.87367 35.9603 9.0005 35.9352 9.11884 35.8864C9.23717 35.8375 9.34469 35.766 9.43525 35.6758L15.4324 29.7037C15.524 29.6135 15.5968 29.5063 15.6466 29.3881C15.6965 29.2698 15.7224 29.1429 15.7229 29.0147C15.7234 28.8865 15.6984 28.7594 15.6495 28.6408C15.6005 28.5222 15.5285 28.4144 15.4376 28.3236V28.3236Z" fill="#0F3384"/>
<path d="M24.355 50.9999H55.2441C56.5061 50.9999 57.7165 50.5007 58.6089 49.612C59.5013 48.7233 60.0027 47.518 60.0027 46.2612C60.0027 45.0044 59.5013 43.7991 58.6089 42.9104C57.7165 42.0217 56.5061 41.5225 55.2441 41.5225H24.355C23.093 41.5225 21.8826 42.0217 20.9902 42.9104C20.0978 43.7991 19.5964 45.0044 19.5964 46.2612C19.5964 47.518 20.0978 48.7233 20.9902 49.612C21.8826 50.5007 23.093 50.9999 24.355 50.9999V50.9999ZM24.355 43.4699H55.2441C55.6223 43.4536 56 43.5138 56.3543 43.6467C56.7086 43.7797 57.0322 43.9827 57.3056 44.2435C57.5791 44.5043 57.7967 44.8175 57.9453 45.1642C58.094 45.511 58.1706 45.8841 58.1706 46.2612C58.1706 46.6382 58.094 47.0114 57.9453 47.3581C57.7967 47.7049 57.5791 48.0181 57.3056 48.2789C57.0322 48.5397 56.7086 48.7427 56.3543 48.8756C56 49.0086 55.6223 49.0687 55.2441 49.0525H24.355C23.6325 49.0215 22.95 48.7138 22.4498 48.1937C21.9496 47.6737 21.6703 46.9813 21.6703 46.2612C21.6703 45.541 21.9496 44.8487 22.4498 44.3286C22.95 43.8086 23.6325 43.5009 24.355 43.4699V43.4699Z" fill="#0F3384"/>
<path d="M15.4376 42.5858C15.347 42.4956 15.2395 42.424 15.1212 42.3752C15.0028 42.3264 14.876 42.3013 14.7479 42.3013C14.6198 42.3013 14.493 42.3264 14.3747 42.3752C14.2563 42.424 14.1488 42.4956 14.0582 42.5858L8.74558 47.8763L5.66619 44.8098C5.48291 44.6278 5.23467 44.5256 4.97587 44.5256C4.71708 44.5256 4.46883 44.6278 4.28555 44.8098C4.10284 44.9923 4.00024 45.2395 4.00024 45.4972C4.00024 45.7549 4.10284 46.0021 4.28555 46.1846L8.05591 49.9419C8.14638 50.0322 8.25387 50.1039 8.37222 50.1528C8.49056 50.2018 8.61744 50.2269 8.74558 50.2269C8.87372 50.2269 9.00059 50.2018 9.11894 50.1528C9.23729 50.1039 9.34478 50.0322 9.43525 49.9419L15.4324 43.9698C15.5245 43.8796 15.5979 43.7721 15.6481 43.6535C15.6983 43.5349 15.7244 43.4076 15.7249 43.2789C15.7253 43.1502 15.7002 43.0227 15.6509 42.9037C15.6016 42.7847 15.5291 42.6767 15.4376 42.5858V42.5858Z" fill="#0F3384"/>
</svg>
