<svg width="126" height="32" viewBox="0 0 126 32" fill="none" xmlns="http://www.w3.org/2000/svg">
<path d="M0.541992 5.01172H5.17069V22.5592H13.7391V27.0068H0.541992V5.01172Z" fill="#2C3543"/>
<path d="M16.3229 12.3149H21.0531V27.0068H16.3229V12.3149ZM18.688 5.01172C20.2064 5.01172 21.4374 6.19863 21.4374 7.66276C21.4374 9.12689 20.2064 10.3138 18.688 10.3138C17.1695 10.3138 15.9386 9.12689 15.9386 7.66276C15.9386 6.96117 16.2276 6.28832 16.7421 5.79222C17.2566 5.29612 17.9545 5.01742 18.6821 5.01742" fill="#2C3543"/>
<path d="M39.0334 5.01172H43.6158V18.1544L48.811 12.089H54.43L48.4157 18.9871L54.304 27.0068H48.5417L43.6788 19.6347H43.6158V27.0068H39.0334V5.01172Z" fill="#2C3543"/>
<path d="M23.6368 11.988H28.0323V14.0404H28.0953C28.9914 12.4785 30.659 11.5462 32.4336 11.6149C37.0752 11.6149 37.9337 14.7226 37.9337 18.7691V27.0079H33.355V19.7021C33.355 17.9528 33.3264 15.7197 30.9741 15.7197C28.6218 15.7197 28.2269 17.6205 28.2269 19.5796V27.0079H23.6483L23.6368 11.988Z" fill="#2C3543"/>
<path d="M64.0871 17.6466C64.1261 16.1565 62.9251 14.9155 61.3993 14.8693H61.2603C59.5752 14.7655 58.1172 16.0027 57.9875 17.6466H64.0871ZM68.0144 24.106C66.4561 25.9541 64.129 27.0197 61.6774 27.0078C57.0433 27.0078 53.3303 23.9873 53.3303 19.3095C53.3303 14.6318 57.0433 11.6113 61.6774 11.6113C66.0102 11.6113 68.7269 14.6261 68.7269 19.3095V20.7236H57.9701C58.2557 22.3743 59.7314 23.5751 61.4457 23.5517C62.7861 23.5433 64.031 22.8727 64.7532 21.77L68.0144 24.106Z" fill="#2C3543"/>
<path d="M78.2622 15.5254C75.9206 15.5254 74.5098 17.0453 74.5098 19.2596C74.5098 21.4739 75.9147 22.9937 78.2622 22.9937C80.6096 22.9937 82.0087 21.4796 82.0087 19.2596C82.0087 17.0396 80.6037 15.5254 78.2622 15.5254ZM86.323 26.6425H82.0087V24.6957H81.9501C80.8545 26.1298 79.1334 26.9846 77.2963 27.0068C72.7946 27.0068 69.8267 23.8476 69.8267 19.3791C69.8267 15.2807 72.4492 11.5123 76.7577 11.5123C78.7012 11.5123 80.5101 12.0303 81.5755 13.4534H81.634V5.01172H86.3171L86.323 26.6425Z" fill="#2C3543"/>
<path d="M119.234 0.613643H93.003C92.4086 0.602962 91.8343 0.828882 91.4066 1.24168C90.9788 1.65449 90.7325 2.22034 90.722 2.81472V29.182C90.728 29.7799 90.9721 30.3507 91.4002 30.7681C91.8283 31.1855 92.4052 31.4151 93.003 31.4062H119.234C120.472 31.4062 121.484 30.4194 121.515 29.182V2.83183C121.481 1.59668 120.47 0.613281 119.234 0.613643ZM99.8459 26.8441H95.284V12.1608H99.8459V26.8441ZM97.565 10.1422C96.1005 10.1453 94.9108 8.9607 94.9076 7.49629C94.9045 6.03188 96.0891 4.84219 97.5536 4.83904C99.018 4.83589 100.208 6.02047 100.211 7.48489C100.212 8.18661 99.9351 8.8602 99.44 9.35746C98.9448 9.85472 98.2724 10.1349 97.5707 10.1364L97.565 10.1422ZM116.953 26.8441H112.391V19.7049C112.391 17.9942 112.357 15.8102 110.019 15.8102C107.681 15.8102 107.282 17.6691 107.282 19.5851V26.8441H102.72V12.1608H107.099V14.168H107.162C108.054 12.6382 109.715 11.7241 111.485 11.7901C116.104 11.7901 116.959 14.8351 116.959 18.7925L116.953 26.8441Z" fill="#2C3543"/>
<path d="M122.615 25.1362H123.049V27.0081H123.28V25.1362H123.715V24.8086H122.615V25.1362Z" fill="#2C3543"/>
<path d="M125.456 24.8086L124.818 26.4231L124.181 24.8086H123.715V27.0081H124.041V25.3312L124.71 27.0081H124.927L125.596 25.3312V27.0081H125.914V24.8086H125.456Z" fill="#2C3543"/>
</svg>
