<svg width="113" height="35" viewBox="0 0 113 35" fill="none" xmlns="http://www.w3.org/2000/svg">
<path d="M18.1763 31.7L16.5425 27.6L32.2681 28.4L31.5533 35L18.1763 31.7ZM21.9545 0L0 10.2L3.36977 25.5H7.86279L7.14799 14.5L7.76068 14.3L10.5178 25.5H15.1129L15.0108 12.1L15.6235 11.9L17.9721 25.5H22.9757L24.0989 9.4L24.8137 9.1L26.0391 25.5H32.4723L34.8209 3.1L21.9545 0ZM108.649 31.2L102.421 30.2V29.4L108.445 29.2L108.343 27.7H100.685L100.276 31.5L106.607 32.6V33.3L99.9698 33.6L99.7655 35H109.058L108.649 31.2ZM49.0148 30.6L48.9127 32L51.1592 32.1V33.5L46.3598 33.4L46.5641 29.3L53.0994 29.2L52.9972 27.7H44.5218L43.807 35H53.4057L53.2015 30.5L49.0148 30.6ZM89.7584 33.3V32L94.2514 31.9V30.5L89.6562 30.4V29.1L95.681 29V27.5H87.5118L87.3076 35H95.8852L95.7831 33.5L89.7584 33.3ZM83.223 35L82.4061 27.6H80.2617L77.0962 31.1L73.9307 27.6H71.7863L71.0715 35H73.6243L73.8285 30.2L77.0962 33.5L80.3638 30.2L80.5681 35H83.223ZM72.3989 0.5H67.2932L66.8848 23.4H73.0116L72.3989 0.5ZM93.2302 0.5H77.3004L76.6877 23.4H94.3535L93.2302 0.5ZM88.3288 18.4L82.7125 18.6L82.4061 5.1L88.3288 5.3V18.4ZM112.326 5.5L111.713 0.5H95.9873L96.1915 4.9L101.195 5.1L101.706 23.4H107.935L106.097 5.3L112.326 5.5ZM57.286 23.4H64.0256L59.6347 13.1L63.1065 11.2L60.7579 0.5H43.6027L42.9901 5.5L46.8704 5.4L45.0323 23.5H51.0571L51.2613 17.7L55.5501 15.4L57.286 23.4ZM51.5676 5.1L56.4691 5L57.0818 9.6L51.3634 12.2L51.5676 5.1ZM64.8425 35H67.3953L65.3531 27.6H59.2262L57.1839 35H59.7368L60.1452 33.1L64.3319 33.2L64.8425 35ZM60.5537 31.7L61.0643 29.3L63.515 29.2L64.0256 31.6L60.5537 31.7Z" fill="#2A3544"/>
</svg>
