<svg width="80" height="46" viewBox="0 0 80 46" fill="none" xmlns="http://www.w3.org/2000/svg">
<path d="M13.429 6.60294C13.429 6.60294 13.4702 6.71723 13.5363 6.91153C13.517 6.80295 13.4978 6.69151 13.4757 6.58008L13.429 6.60294Z" fill="#2A3544"/>
<path d="M13.429 6.60294C13.429 6.60294 13.4702 6.71723 13.5363 6.91153C13.517 6.80295 13.4978 6.69151 13.4757 6.58008L13.429 6.60294Z" fill="#2A3544"/>
<path d="M13.429 6.60294C13.429 6.60294 13.4702 6.71723 13.5363 6.91153C13.517 6.80295 13.4978 6.69151 13.4757 6.58008L13.429 6.60294Z" fill="#2A3544"/>
<path d="M67.0272 17.4004H55.3972C55.646 17.4987 55.8702 17.6545 56.0526 17.8559C56.2367 18.0585 56.3901 18.2889 56.5078 18.5392C56.6296 18.7956 56.7216 19.0661 56.782 19.345C56.8263 19.5511 56.8547 19.7606 56.867 19.9714V27.1632C56.8448 27.4035 56.7998 27.641 56.7327 27.8722C56.6589 28.1271 56.5577 28.3725 56.431 28.6039C56.3058 28.8315 56.1549 29.0428 55.9813 29.2331C55.812 29.4211 55.6148 29.5797 55.3972 29.7029H62.294C62.021 29.6303 61.7701 29.4873 61.5646 29.2872C61.3688 29.095 61.2073 28.8685 61.0874 28.6181C60.9619 28.3587 60.8741 28.0814 60.8269 27.7953C60.7755 27.5012 60.7498 27.203 60.7501 26.9041V24.1367C61.1423 24.1367 61.5125 24.1367 61.847 24.1737C62.1702 24.1931 62.4872 24.2742 62.7821 24.4129C63.0663 24.5528 63.3123 24.7642 63.4979 25.0279C63.7286 25.3788 63.8848 25.7767 63.9558 26.1952V20.5693C63.8093 20.9593 63.6158 21.3286 63.38 21.6682C63.2009 21.9078 62.9722 22.1024 62.7108 22.2377C62.4445 22.3709 62.1558 22.4493 61.8607 22.4683C61.5426 22.4939 61.1697 22.5082 60.7391 22.5082V19.14L62.8452 19.1542C63.1716 19.1542 63.5116 19.1542 63.8626 19.1998C64.209 19.2307 64.5521 19.2926 64.8882 19.3848C65.2208 19.4768 65.5413 19.6106 65.8425 19.7834C66.1473 19.9599 66.4172 20.1946 66.6378 20.4753C66.7189 20.5807 66.794 20.691 66.8627 20.8056C66.932 20.923 66.9837 21.0507 67.0162 21.1842L67.0272 17.4004Z" fill="#2A3544"/>
<path d="M68.1377 17.4004V22.0612C68.1958 21.5777 68.3745 21.1184 68.656 20.7287C68.9214 20.372 69.2534 20.0747 69.6322 19.8546C70.0165 19.6307 70.4348 19.4767 70.869 19.3991C71.3014 19.3184 71.7423 19.2983 72.1798 19.3393V27.3113C72.1635 27.5131 72.1267 27.7125 72.0701 27.9063C71.9881 28.1866 71.8641 28.4518 71.7027 28.6921C71.5454 28.9265 71.3539 29.134 71.135 29.3071C70.9137 29.4881 70.6616 29.6243 70.3919 29.7086H77.7659C77.4661 29.6537 77.1837 29.5238 76.9432 29.3299C76.708 29.1416 76.5081 28.91 76.3536 28.6466C76.1925 28.3775 76.0714 28.0848 75.9944 27.7782C75.916 27.4697 75.8763 27.152 75.8764 26.833V19.345H76.2412C76.5477 19.3516 76.8532 19.385 77.1544 19.4446C77.5423 19.5147 77.9195 19.6382 78.2759 19.8119C78.6679 20.0051 79.0171 20.2804 79.3016 20.6205C79.6332 21.0178 79.8525 21.5026 79.935 22.0213V17.4004H68.1377Z" fill="#2A3544"/>
<path d="M48.4531 29.0708C48.2768 29.2481 48.0751 29.396 47.8553 29.5093C47.6578 29.6061 47.5317 29.6716 47.4768 29.7029H55.4185C55.2881 29.672 55.1632 29.6202 55.0483 29.5491C54.9332 29.4796 54.8223 29.4025 54.7165 29.3185C54.4337 29.0989 54.1793 28.8425 53.9596 28.5555C53.7489 28.278 53.5652 27.9795 53.4112 27.6643C53.2459 27.3265 53.103 26.9774 52.9834 26.6194L52.4048 24.746L51.6287 22.2149L50.1259 17.4004H43.5444C43.7526 17.4573 43.9527 17.5425 44.1395 17.6538C44.3095 17.7647 44.4636 17.8998 44.5974 18.0552C44.7553 18.2416 44.8665 18.4656 44.921 18.7072C44.9677 18.9305 44.9677 19.1616 44.921 19.3848C44.8753 19.6094 44.8139 19.8301 44.7373 20.0454C44.5545 20.5787 44.4119 21.002 44.3095 21.3152C44.2793 21.4092 44.2464 21.4974 44.2135 21.5828L43.0234 24.951L42.7299 25.8051C42.5983 26.1867 42.4557 26.5796 42.2857 26.9895C42.1157 27.3995 41.9484 27.7839 41.7674 28.1426C41.6362 28.4251 41.4632 28.6845 41.2546 28.9114C41.098 29.0542 40.9341 29.1882 40.7637 29.3128C40.5937 29.4352 40.4593 29.5264 40.3633 29.5975C40.307 29.6296 40.253 29.6658 40.2015 29.7057H46.1222C45.6962 29.6049 45.3195 29.3482 45.0609 28.9825C44.8055 28.5978 44.6661 28.1429 44.6605 27.6757C44.6668 27.5305 44.6879 27.3864 44.7236 27.2458C44.7675 27.0607 44.8168 26.8728 44.8799 26.6764C44.943 26.4799 45.0033 26.3034 45.0691 26.1297C45.1349 25.956 45.1815 25.8222 45.209 25.7283H48.5381C48.5655 25.8108 48.6039 25.9276 48.6505 26.0756C48.6972 26.2237 48.7465 26.3746 48.7986 26.5283C48.8507 26.6821 48.8946 26.8301 48.9385 26.9753C48.9824 27.1205 49.0098 27.2259 49.029 27.297C49.1186 27.6438 49.0935 28.0118 48.9577 28.3419C48.837 28.6168 48.6656 28.8645 48.4531 29.0708V29.0708ZM45.5737 24.2734L46.7529 20.2874L47.9897 24.2734H45.5737Z" fill="#2A3544"/>
<path d="M36.6343 23.5644C36.9238 23.4201 37.1887 23.2278 37.4186 22.995L37.4927 22.9153C37.6013 22.7972 37.702 22.6717 37.7943 22.5395L37.83 22.4882C38.159 22.0099 38.5868 21.1871 38.458 20.2703C38.4377 19.9218 38.3559 19.5802 38.2166 19.2624C38.1305 19.0729 38.0297 18.891 37.915 18.7186C37.7327 18.4378 37.4918 18.2033 37.2102 18.0325C36.9195 17.8571 36.6079 17.7221 36.2833 17.631C35.9546 17.539 35.6188 17.4771 35.2796 17.4459C34.9369 17.4175 34.6215 17.4004 34.3308 17.4004H26.5948C26.8673 17.4686 27.1203 17.6034 27.3325 17.7935C27.5448 17.9837 27.7102 18.2237 27.8151 18.4937C27.9829 18.8958 28.0643 19.3311 28.0537 19.7692V20.5835V26.8871C28.0526 27.1639 28.0223 27.4399 27.9632 27.7099C27.9005 27.989 27.8085 28.2601 27.689 28.5185C27.574 28.7716 27.4223 29.0049 27.2392 29.2103C27.0579 29.4147 26.8411 29.5817 26.6003 29.7029H33.2723C33.1406 29.6516 32.9981 29.5833 32.8417 29.5036C32.6764 29.4115 32.5271 29.2912 32.4002 29.1477C32.2436 28.9658 32.1175 28.758 32.0273 28.5327C31.9065 28.213 31.8335 27.876 31.8106 27.5334C31.7637 26.971 31.7445 26.4065 31.753 25.8422C31.764 25.2727 31.7695 24.709 31.7695 24.151H32.8198C34.5776 28.6494 35.1891 29.7057 36.9332 29.7057H40.7862C39.4973 29.7057 37.8108 26.3176 36.6343 23.5644V23.5644ZM31.5529 22.4711V19.214C31.8984 19.214 32.2412 19.214 32.584 19.1884C32.8939 19.1708 33.2044 19.2073 33.5026 19.2966C33.7696 19.3799 34.0021 19.5532 34.1635 19.7891C34.3564 20.1253 34.4445 20.5151 34.4158 20.9052C34.4435 21.2706 34.3464 21.6345 34.1416 21.933C33.9633 22.1581 33.7201 22.3178 33.4478 22.3886C33.1449 22.4669 32.8328 22.5004 32.5209 22.4882C32.1836 22.4768 31.86 22.4711 31.5529 22.4711V22.4711Z" fill="#2A3544"/>
<path d="M28.7831 3.10907C28.2799 3.37076 27.8532 3.76751 27.5475 4.25814C27.2418 4.74878 27.0681 5.31543 27.0445 5.89927C26.6478 5.58833 26.1795 5.39079 25.6863 5.32635C25.1931 5.26191 24.6922 5.33281 24.2337 5.53199C24.2703 5.66801 24.3162 5.8012 24.3708 5.93059C24.5372 6.34394 24.787 6.71541 25.1035 7.01993C25.42 7.32445 25.7958 7.55493 26.2054 7.69581C25.7649 8.44745 25.1761 9.0937 24.4777 9.59201C24.1786 9.80259 23.8317 9.92823 23.4713 9.95644C23.0139 10.0098 22.5517 9.91544 22.1478 9.68616C21.7439 9.45688 21.418 9.10386 21.2144 8.67523C21.0474 9.01084 20.8049 9.29969 20.5075 9.51727C20.2101 9.73486 19.8665 9.87476 19.5059 9.92512C19.1155 9.97751 18.7187 9.9164 18.3597 9.7486C18.2225 9.66034 18.0854 9.56923 17.9565 9.46389C17.1718 8.8603 16.5387 8.06923 16.111 7.1577C15.9344 6.7816 15.793 6.3888 15.6887 5.98468H15.738C16.202 5.92502 16.6456 5.75164 17.0323 5.47887C17.419 5.2061 17.7377 4.84176 17.962 4.41591C18.0134 4.32363 18.0601 4.22859 18.1019 4.1312C18.0224 4.06571 17.9401 4.00592 17.8551 3.94898C17.5066 3.71938 17.1139 3.57162 16.7047 3.51605C16.2954 3.46048 15.8794 3.49843 15.4857 3.62725C15.3952 3.65573 15.3047 3.69274 15.2115 3.72975C15.2417 2.59089 14.4574 0.882613 13.4976 0.244854C13.3755 0.167765 13.2492 0.0983597 13.1191 0.0370131L13.0341 0L12.9765 0.0825673C12.9008 0.189218 12.8312 0.300452 12.7681 0.415682C12.2005 1.47197 12.3568 3.36532 12.8888 4.35043C12.7928 4.35043 12.6968 4.38175 12.6146 4.40452C12.2088 4.50522 11.8281 4.69371 11.4973 4.95767C11.1665 5.22162 10.8931 5.55509 10.6949 5.93628C10.6435 6.02856 10.5968 6.1236 10.5551 6.221C10.6347 6.28591 10.7181 6.34581 10.8046 6.40037C11.1955 6.65531 11.6405 6.80703 12.1008 6.84227C12.5612 6.87751 13.0228 6.79519 13.4455 6.60251L13.4921 6.57974C13.5772 6.99177 13.625 7.41119 13.6347 7.83248C13.6587 8.74868 13.499 9.66005 13.1658 10.5088C13.1658 10.5088 13.1658 10.5088 13.1658 10.4917C13.1658 10.4746 13.1466 10.5543 13.1383 10.5857C13.1054 10.6682 13.0725 10.7479 13.0369 10.8277C12.9491 11.0156 12.8559 11.2035 12.7626 11.3971C12.5199 11.7348 12.194 11.9984 11.8193 12.1601C11.4882 12.3031 11.1281 12.3582 10.7714 12.3204C10.4147 12.2826 10.0727 12.1532 9.77628 11.9437C9.78099 12.431 9.64718 12.9089 9.39158 13.3176C9.13598 13.7263 8.76996 14.0476 8.33932 14.2414C8.1399 14.3277 7.92914 14.3824 7.71407 14.4037C6.77424 14.3849 5.85396 14.1216 5.03759 13.6378C5.3328 13.2987 5.55807 12.9005 5.69955 12.4677C5.84103 12.0348 5.89573 11.5765 5.86028 11.1209C5.86028 10.9786 5.83012 10.7138 5.80544 10.5771C4.77982 10.7195 3.93245 11.716 3.50465 12.2598C2.937 11.7217 1.89492 10.7593 0.762357 10.8561C0.498253 10.9009 0.241588 10.9843 0 11.1038C1.2677 12.1504 2.47117 13.2781 3.60337 14.4805C4.40687 15.3347 5.18019 16.2258 5.91513 17.1455C6.94075 18.4295 8.69033 21.0204 8.69033 21.0204C8.90423 21.3507 9.78725 21.7778 10.3741 21.7123C10.4131 21.7051 10.4486 21.6842 10.4746 21.6531C10.5005 21.622 10.5154 21.5826 10.5167 21.5414C10.5167 21.4731 10.418 21.4333 10.3631 21.4048C10.1503 21.3203 9.96118 21.182 9.81276 21.0026C9.66433 20.8231 9.56132 20.6081 9.51302 20.377C9.18394 19.2381 12.2718 17.2053 16.7856 15.9497C21.2994 14.6941 24.9275 14.8478 25.1359 16.0152C25.1929 16.2478 25.1965 16.4911 25.1465 16.7255C25.0965 16.9599 24.9942 17.1788 24.8479 17.3647C24.8095 17.4188 24.7328 17.5099 24.7711 17.5668C24.7898 17.6027 24.8205 17.6303 24.8573 17.6444C24.8941 17.6586 24.9347 17.6583 24.9713 17.6437C25.5198 17.3875 26.1012 16.5533 26.145 16.1518C26.145 16.1518 26.6304 12.9402 26.9677 11.2747C27.209 10.0789 27.497 8.89446 27.8288 7.73283C28.3028 6.07907 28.8715 4.45616 29.5318 2.87276C29.2728 2.91476 29.0208 2.99431 28.7831 3.10907V3.10907Z" fill="#2A3544"/>
<path d="M12.8338 18.4528C15.266 17.3153 17.8409 16.5408 20.4821 16.1523C20.4821 16.1523 25.6074 16.7047 25.6074 23.2901C25.6074 29.8755 21.3048 33.6395 15.4884 33.6395C9.67194 33.6395 6.59235 30.8265 6.59235 27.8342C6.59235 24.8418 8.55857 24.3606 9.47176 24.3606C10.3849 24.3606 12.0385 25.266 12.0385 27.6121C12.0385 27.6121 10.3932 27.1708 10.3932 28.7282C10.3932 30.2855 12.3402 31.2593 15.0085 31.2593C17.6767 31.2593 21.4419 29.978 21.4419 24.2752C21.4419 18.1909 18.8696 17.9204 17.0844 17.9204V28.3552C17.0943 28.6047 17.1976 28.8403 17.3722 29.012C17.5468 29.1837 17.779 29.278 18.0195 29.2748C18.0195 29.2748 17.0789 30.1432 14.7507 30.1432C12.4225 30.1432 11.7616 29.3261 11.7616 29.3261C11.7616 29.3261 12.8585 29.3261 12.8585 28.2669C12.8585 27.2078 12.8338 18.4528 12.8338 18.4528V18.4528Z" fill="#2A3544"/>
<path d="M77.3467 40.2646C77.2762 40.0312 77.1844 39.8052 77.0725 39.5899C76.8844 39.2254 76.6202 38.9093 76.2992 38.6646C76.2608 38.6304 76.2224 38.6019 76.184 38.5734C76.0083 38.4416 75.8252 38.3209 75.6355 38.2119C74.311 37.4403 72.9536 37.4374 71.8649 37.1556C71.692 37.1117 71.5217 37.0575 71.3548 36.9933C71.2918 36.9677 71.2314 36.9392 71.1738 36.9107C70.942 36.7966 70.7269 36.649 70.5349 36.4723C70.3615 36.3081 70.2393 36.094 70.1839 35.8573C70.1533 35.7609 70.1425 35.659 70.1519 35.558C70.1614 35.4571 70.1909 35.3592 70.2387 35.2708C70.3787 35.0357 70.5657 34.8347 70.7872 34.6814C71.0218 34.519 71.2802 34.3969 71.5523 34.3198C71.8431 34.2355 72.1444 34.1962 72.4463 34.2031C72.7574 34.2085 73.0664 34.2573 73.3649 34.3483C73.7085 34.4436 74.0441 34.5674 74.3686 34.7184C74.603 34.8321 74.8224 34.9766 75.0213 35.1483C75.1175 35.2381 75.2091 35.3331 75.2955 35.433L75.6026 35.7434L75.9482 36.1192C76.0743 36.2587 76.2224 36.4239 76.4171 36.6203V32.1133C76.4171 32.1133 76.1045 32.9674 74.8513 32.9674C74.5016 32.9562 74.1528 32.9248 73.8064 32.8735C73.4499 32.8137 73.0907 32.7482 72.726 32.6827C72.3219 32.6131 71.9123 32.5845 71.5029 32.5973C70.9394 32.5961 70.3788 32.6795 69.8383 32.845C69.3188 32.9994 68.8308 33.2513 68.3986 33.5881C67.9764 33.9265 67.6309 34.357 67.3867 34.8494C67.1228 35.4118 66.993 36.0319 67.0083 36.6573C66.9835 37.196 67.0981 37.7318 67.3401 38.209C67.5119 38.5245 67.7272 38.8122 67.9791 39.0631L68.0037 39.0859L68.086 39.1628L68.2204 39.2824C69.1308 40.0454 70.4142 40.4212 71.9033 40.7885L71.9856 40.8084C72.1391 40.8455 72.29 40.8882 72.4435 40.9366C72.7296 41.0221 73.0055 41.1405 73.2662 41.2896C73.4783 41.4089 73.6648 41.5717 73.8147 41.7679C73.878 41.8499 73.9213 41.9466 73.9409 42.0497C73.9604 42.1528 73.9557 42.2593 73.9271 42.3601C73.8953 42.5317 73.8287 42.6943 73.7318 42.8371C73.6349 42.98 73.5098 43.0998 73.3649 43.1887C73.0745 43.3594 72.7495 43.4569 72.4161 43.4734C72.0563 43.4949 71.6955 43.4642 71.3439 43.3823C71.024 43.3114 70.7096 43.2163 70.4033 43.0975C69.7933 42.8511 69.2135 42.5309 68.6756 42.1438C68.315 41.873 67.974 41.5752 67.6555 41.2526C67.3155 40.8999 67.0164 40.5072 66.7642 40.0824V45.455C66.7642 45.455 67.2633 45.0507 68.5001 44.8855C68.6976 44.8491 68.8974 44.8281 69.0979 44.8229C69.4039 44.8202 69.7095 44.8459 70.0111 44.8998C70.3167 44.9565 70.6188 45.0316 70.9161 45.1247C71.2367 45.2141 71.5629 45.2807 71.8923 45.324C72.2209 45.3642 72.5514 45.3842 72.8823 45.3838C73.4429 45.3827 74.0015 45.3139 74.5469 45.1788C75.0851 45.048 75.5949 44.8133 76.0496 44.487C76.5021 44.1577 76.8771 43.7265 77.1466 43.2257C77.4432 42.6357 77.5833 41.9743 77.5524 41.3095C77.5178 40.955 77.4489 40.6049 77.3467 40.2646V40.2646Z" fill="#2A3544"/>
<path d="M51.3931 35.4335C51.3931 35.237 51.3931 35.0292 51.4232 34.8014C51.4404 34.5782 51.4771 34.3571 51.5329 34.1409C51.5874 33.9327 51.6657 33.7319 51.766 33.543C51.8646 33.3595 51.9958 33.1972 52.1527 33.0647C52.3109 32.9301 52.4998 32.8399 52.7012 32.8027H47.5456C47.8323 32.8204 48.1056 32.9343 48.3245 33.1273C48.5299 33.3159 48.6928 33.5492 48.8016 33.8106C48.9217 34.0925 49.0029 34.3906 49.0429 34.6961C49.083 34.9913 49.1041 35.2891 49.106 35.5872V41.0936L44.2741 32.8056H38.444C38.7295 32.8133 39.0033 32.9252 39.2173 33.1216C39.4165 33.3166 39.5703 33.5561 39.667 33.822C39.7717 34.1092 39.8426 34.4084 39.8782 34.7132C39.9126 35.0041 39.931 35.2969 39.933 35.5901C39.933 35.7135 39.933 35.8957 39.933 36.1367V41.9648C39.933 42.2239 39.933 42.4802 39.9111 42.7392C39.9111 42.9357 39.8892 43.135 39.87 43.34C39.851 43.5407 39.8134 43.739 39.7575 43.9322C39.7006 44.1188 39.6204 44.2968 39.5189 44.4618C39.4124 44.6286 39.2732 44.7702 39.1103 44.8774C39.0706 44.9044 39.0283 44.9273 38.9842 44.9458C38.927 44.972 38.8684 44.9948 38.8087 45.0141L38.6469 45.0767C38.6198 45.0905 38.5913 45.1011 38.5619 45.1081H43.605C43.4651 45.0255 43.3444 44.9515 43.2457 44.886C43.147 44.8205 43.051 44.7408 42.9523 44.6554C42.8633 44.5772 42.7807 44.4915 42.7055 44.3991C42.4857 44.1033 42.3414 43.7547 42.2859 43.3855C42.2218 43.0153 42.1888 42.64 42.1872 42.2638V36.8542L46.9396 45.1109H52.6984C52.497 45.0737 52.3082 44.9836 52.15 44.849C51.9931 44.7175 51.8619 44.5561 51.7633 44.3735C51.6629 44.1836 51.5847 43.9819 51.5302 43.7728C51.4744 43.5565 51.4377 43.3354 51.4205 43.1122C51.4013 42.8873 51.3903 42.6766 51.3903 42.4802V35.4335H51.3931Z" fill="#2A3544"/>
<path d="M35.9927 40.217V35.3398C36.0002 35.1193 36.0221 34.8995 36.0585 34.6821C36.1014 34.4079 36.1817 34.1413 36.2971 33.8906C36.4105 33.649 36.5679 33.4324 36.7605 33.2529C36.9783 33.0557 37.2306 32.9039 37.5037 32.8059H30.7905C31.0683 32.8907 31.3235 33.0407 31.5365 33.2443C31.7577 33.493 31.9317 33.7828 32.0493 34.0985C32.2214 34.5797 32.2998 35.0917 32.2796 35.6046V42.0591C32.2796 42.2641 32.2796 42.5118 32.2659 42.7993C32.2728 43.2049 32.1912 43.6069 32.0273 43.9752C31.9047 44.2416 31.7355 44.482 31.5282 44.6841C31.4934 44.7167 31.4568 44.7471 31.4185 44.7752C29.7732 44.0435 28.0565 42.2327 26.7868 40.0604C26.0382 38.782 25.1963 37.088 24.4915 35.6103C25.1524 34.7049 25.7859 33.8622 26.2959 33.2187C27.2802 32.1731 28.5359 31.4471 29.9103 31.1289H24.4257C24.4257 31.1289 24.9275 31.9147 24.2036 32.8742L20.5755 37.6802V33.7226L20.4603 33.7767C20.304 33.8479 20.1422 33.9134 19.9749 33.976C19.4753 34.1665 18.963 34.3187 18.442 34.4316C18.2638 34.4714 18.0773 34.5085 17.8935 34.5426C17.504 34.6211 17.1102 34.6753 16.7144 34.7049V41.9053L16.6897 42.4605C16.6897 42.6057 16.6623 42.7452 16.6403 42.9104C16.5957 43.2486 16.51 43.5796 16.3853 43.8955C16.2659 44.1923 16.0906 44.4614 15.8697 44.687C15.6296 44.9201 15.3241 45.0677 14.9977 45.1083H22.0262C21.7347 45.0432 21.474 44.8752 21.2885 44.6329C21.0862 44.3687 20.9336 44.0674 20.8388 43.7446C20.7258 43.3741 20.6505 42.9924 20.6139 42.6057C20.5702 42.1991 20.5464 41.7905 20.5426 41.3814C20.5426 41.3074 20.5426 41.2334 20.5426 41.1622C20.8168 40.7579 21.2556 40.1344 21.7711 39.397C22.0454 39.9066 22.3443 40.439 22.6514 40.9686C24.1048 43.4855 25.2621 45.1169 27.1076 45.1169H37.468C37.1913 44.9951 36.9392 44.8203 36.7249 44.6016C36.5055 44.3515 36.3317 44.0621 36.2121 43.7474C36.0654 43.3689 35.9882 42.9653 35.9845 42.5573V40.217H35.9927Z" fill="#2A3544"/>
<path d="M60.5202 39.003C60.6999 39.195 60.8259 39.4341 60.8849 39.6948C60.9502 39.9839 60.9779 40.2807 60.9671 40.5774V41.554C60.9671 41.7191 60.9671 41.9099 60.9809 42.1234C60.9909 42.3364 60.9639 42.5495 60.9013 42.7526C60.8332 42.9575 60.7046 43.1348 60.5339 43.2594C60.2871 43.4158 59.9995 43.4885 59.7112 43.4673C59.3416 43.4859 58.9764 43.3779 58.6718 43.1598C58.406 42.9531 58.19 42.685 58.0411 42.3768C57.8885 42.0592 57.7796 41.7209 57.7175 41.3718C57.3785 39.7847 57.3663 38.1411 57.6819 36.5487C57.751 36.1995 57.8693 35.8628 58.0329 35.5494C58.1903 35.2525 58.4084 34.9949 58.6718 34.7949C58.9603 34.5862 59.3021 34.4713 59.6536 34.4646C59.83 34.4546 60.007 34.468 60.1801 34.5045C60.3666 34.5386 60.5421 34.5785 60.7066 34.6184C61.5465 34.8169 62.344 35.1739 63.0595 35.6718C63.8822 36.2412 64.5266 36.842 64.8091 37.6933V32.1328C64.7355 32.3858 64.6119 32.62 64.4462 32.8205C64.2804 33.021 64.0762 33.1834 63.8466 33.2973C63.707 33.3473 63.564 33.3864 63.4188 33.414H63.3145H63.2624C62.9867 33.4105 62.7117 33.3848 62.4398 33.3372C62.1408 33.2896 61.847 33.2123 61.5622 33.1065C61.2688 32.9983 60.9918 32.9101 60.7258 32.8389C60.4625 32.765 60.1938 32.7135 59.9223 32.6852C59.6446 32.6532 59.3654 32.637 59.0859 32.6368C58.5187 32.6354 57.9533 32.7052 57.4022 32.8446C56.8724 32.9807 56.3638 33.1934 55.8912 33.4767C55.4216 33.7603 54.997 34.1175 54.6325 34.5358C54.3346 34.8799 54.0811 35.2627 53.8783 35.6747C53.2389 37.3327 53.0603 39.1438 53.3628 40.902C53.4392 41.2546 53.5428 41.6002 53.6727 41.9355C53.7385 42.1063 53.8098 42.2686 53.8866 42.4281C54.1742 43.0321 54.5719 43.5726 55.0575 44.0196C55.5382 44.4551 56.0975 44.787 56.7029 44.9962C57.3858 45.2258 58.1027 45.327 58.8199 45.2951C59.1447 45.2845 59.467 45.2329 59.7797 45.1414C60.1052 45.0503 60.4342 44.9478 60.767 44.8339C61.0988 44.7229 61.4361 44.6147 61.7706 44.5122C62.0925 44.4118 62.4249 44.3526 62.7606 44.3356C63.0822 44.3208 63.4038 44.3622 63.7122 44.4581C64.0492 44.5722 64.3555 44.7673 64.6062 45.0275V41.3234C64.6073 41.0509 64.6266 40.7788 64.6637 40.5091C64.702 40.2332 64.7711 39.9628 64.8694 39.7034C64.965 39.4556 65.1045 39.2286 65.2808 39.0343C65.4618 38.8351 65.6881 38.6863 65.9389 38.6015H59.6536C59.9756 38.6385 60.2785 38.7788 60.5202 39.003V39.003Z" fill="#2A3544"/>
</svg>
