<svg width="156" height="30" viewBox="0 0 156 30" fill="none" xmlns="http://www.w3.org/2000/svg">
<path d="M42.3995 10.3654C40.6878 10.3654 39.3037 10.8032 38.2573 11.714V11.5672C38.2573 11.0641 37.6457 10.3654 36.4821 10.3654C35.3122 10.3654 34.7002 11.0641 34.7002 11.5672V22.0477C34.7002 22.5542 35.3122 23.248 36.4821 23.248C37.6457 23.248 38.2573 22.5542 38.2573 22.0477V17.6684C38.2573 15.2179 39.8053 13.4727 41.8344 13.4727C43.8788 13.4727 44.1546 15.0371 44.1546 16.0971V22.0477C44.1546 22.5542 44.7597 23.248 45.9231 23.248C47.1099 23.248 47.7117 22.5542 47.7117 22.0477V15.8147C47.7117 13.4844 46.5649 10.3654 42.3995 10.3654Z" fill="#2A3544"/>
<path d="M107.984 18.4643V16.3364C107.984 13.56 106.363 11.3803 103.745 10.618C100.586 9.69516 95.6351 11.3368 94.9531 16.6306C94.4384 20.7911 97.2733 23.2682 100.326 23.5457C101.959 23.6896 104.299 23.0877 105.514 21.6517C105.701 21.9929 105.928 22.3324 106.209 22.6614C106.54 23.036 107.135 23.4756 108.132 23.0645C109.368 22.5663 109.288 21.5666 108.914 21.0551C108.332 20.2327 107.984 19.1562 107.984 18.4643V18.4643ZM101.255 20.2177C98.5769 20.2177 98.0053 18.2169 98.2497 16.7559C98.5989 14.4693 100.439 13.56 102.077 13.7287C103.882 13.9059 104.595 15.2465 104.595 16.6456C104.595 18.653 103.214 20.2177 101.255 20.2177Z" fill="#2A3544"/>
<path d="M57.3564 10.3781C50.8859 10.3781 48.0894 16.3304 51.1199 20.8519C52.8333 23.4044 57.0824 24.202 60.5659 23.0635C63.1067 22.2377 62.6119 19.8827 61.7125 19.5323C59.8771 21.4989 54.0502 21.681 53.4149 17.9418C55.9223 19.3962 60.4489 18.9782 61.9799 17.7396C64.8352 15.4386 63.3959 10.3781 57.3564 10.3781ZM60.0543 15.0382C59.6166 16.537 55.3121 16.4208 53.7308 15.2876C54.5215 13.4655 56.4672 13.1211 58.1654 13.4103C59.648 13.6551 60.3019 14.2227 60.0543 15.0382Z" fill="#2A3544"/>
<path d="M154.589 17.7476C157.446 15.4381 155.995 10.3807 149.957 10.3807C143.485 10.3807 140.69 16.33 143.736 20.8515C145.444 23.4039 149.68 24.2014 153.167 23.0646C155.717 22.2371 155.206 19.8821 154.327 19.5317C152.488 21.4985 146.658 21.6806 146.026 17.9412C148.533 19.3954 153.053 18.9777 154.589 17.7476V17.7476ZM146.344 15.287C147.129 13.4648 149.078 13.1205 150.776 13.4098C152.261 13.6437 152.909 14.2221 152.665 15.0378C152.231 16.5361 147.913 16.4235 146.344 15.287Z" fill="#2A3544"/>
<path d="M116.69 10.3661C116.056 10.3661 115.441 10.4763 114.871 10.6736C112.541 11.4725 110.88 13.7977 110.88 16.8433V22.0434C110.88 22.5467 111.483 23.252 112.658 23.252C113.835 23.252 114.437 22.5467 114.437 22.0434V17.5387C114.437 14.5083 115.761 13.0655 118.913 13.0288C118.913 13.0288 119.241 12.1965 118.763 11.3304C118.291 10.4731 117.639 10.3661 116.69 10.3661" fill="#2A3544"/>
<path d="M138.544 5.22564C137.371 5.22564 136.766 5.91594 136.766 6.41594V22.0433C136.766 22.5467 137.371 23.252 138.544 23.252C139.724 23.252 140.326 22.5467 140.326 22.0433V6.41594C140.326 5.91594 139.724 5.22564 138.544 5.22564Z" fill="#2A3544"/>
<path d="M129.033 10.4008C127.251 10.2503 125.847 10.7182 124.763 11.4639V6.41561C124.763 5.91596 124.162 5.22566 122.983 5.22566C121.805 5.22566 121.205 5.91596 121.205 6.41561V17.4947C121.205 20.1325 122.664 22.4993 125.544 23.3202C128.772 24.258 133.832 22.5814 134.516 17.1756C135.061 12.9316 132.138 10.6899 129.033 10.4008V10.4008ZM131.156 17.2223C130.651 19.7799 128.632 20.9266 126.8 20.4284C125.001 19.9504 124.596 18.526 124.596 17.0935C124.596 14.1168 126.967 12.8864 128.999 13.3861C130.771 13.8359 131.523 15.362 131.156 17.2223" fill="#2A3544"/>
<path d="M71.6217 10.3639H69.1376V8.3496C69.1376 7.84719 68.5325 7.15292 67.3657 7.15292C66.1887 7.15292 65.577 7.84719 65.577 8.3496V16.4649C65.577 17.6233 65.2929 22.2001 69.4618 23.1563C70.7992 23.3819 71.5782 23.1713 72.0494 22.2987C72.524 21.4329 72.1967 20.6189 72.1967 20.6189C69.4417 20.8614 69.1376 18.2369 69.1376 16.0956V13.3993H71.3073C72.5508 13.3993 73.3099 12.2259 73.3099 11.3051C73.3099 10.5694 72.8015 10.3639 71.6217 10.3639" fill="#2A3544"/>
<path d="M87.5214 10.3648C86.0018 10.3648 84.8066 10.851 83.9542 11.6619C83.0967 10.851 81.9067 10.3648 80.3972 10.3648C76.9388 10.3648 75.1921 12.852 75.1921 15.9729V22.1426C75.1921 22.6037 75.7537 23.2441 76.8203 23.2441C77.8998 23.2441 78.4499 22.6037 78.4499 22.1426V16.2502C78.4499 14.8863 78.8529 13.6893 80.3972 13.6893C81.9183 13.6893 82.3227 14.8863 82.3227 16.2502V22.1426C82.3227 22.4701 82.6136 22.8881 83.1753 23.0986C83.3924 23.1923 83.6469 23.2441 83.9542 23.2441C84.2618 23.2441 84.5176 23.1923 84.7299 23.0986C85.2882 22.8881 85.5856 22.4701 85.5856 22.1426V16.2502C85.5856 14.8863 85.9904 13.6893 87.5214 13.6893C89.0526 13.6893 89.4603 14.8863 89.4603 16.2502V22.1426C89.4603 22.6037 90.0038 23.2441 91.0903 23.2441C92.1549 23.2441 92.7098 22.6037 92.7098 22.1426V15.9729C92.7098 12.852 90.9614 10.3648 87.5214 10.3648" fill="#2A3544"/>
<path d="M28.4338 17.8437C28.93 18.1584 29.323 18.6194 28.8084 19.6558C28.303 20.6411 27.3836 21.685 26.2653 22.916L24.9569 16.7375C26.7578 17.1077 27.43 17.239 28.4338 17.8437" fill="#2A3544"/>
<path d="M28.3539 17.7743C28.8372 18.0764 29.2174 18.5239 28.7178 19.5246C28.2281 20.4693 27.1355 21.2059 25.9899 22.1055L25.0042 16.7061C26.7382 17.0669 27.3836 17.1913 28.3539 17.7743Z" fill="#2A3544"/>
<path d="M18.4449 0.72942C19.3579 0.221141 20.326 0.0536114 20.9749 2.01409C21.5664 3.90901 21.9535 6.34206 22.1749 9.52148L13.3727 5.03651C15.3753 2.38607 16.6409 1.77669 18.4449 0.72942Z" fill="#2A3544"/>
<path d="M19.5667 0.826423C19.913 2.12507 20.1549 2.99015 18.9549 3.77103C18.2046 4.25395 17.2 4.35177 16.1627 4.65957L21.1121 8.18164C21.7846 4.33435 20.4953 0.913724 19.5667 0.826423" fill="#2A3544"/>
<path d="M26.3826 9.25729C27.1356 9.54732 27.6218 10.1427 27.3573 11.651C27.0519 13.3941 26.3826 14.7994 24.8074 16.8828L21.4712 8.70967C23.9625 8.71709 24.8945 8.70967 26.3826 9.25729" fill="#2A3544"/>
<path d="M26.1415 9.86202C26.7852 10.1058 27.1945 10.5097 26.9719 11.9164C26.7088 13.4113 26.1357 14.6131 24.7828 16.3984L21.9254 9.39153C24.0568 9.39153 24.8587 9.38549 26.1415 9.86202" fill="#2A3544"/>
<path d="M25.5865 26.9668V26.9495H25.2414V26.9323H25.0516V26.915H24.9136V26.8978H24.7756V26.8805H24.672V26.8633H24.5858V26.846H24.4822V26.8288H24.396V26.8115H24.3097V26.7943H24.2234V26.777H24.1544V26.7598H24.0854V26.7425H24.0164V26.7253H23.9474V26.708H23.8784V26.6907H23.8094V26.6735H23.7404V26.6562H23.6886V26.639H23.6368V26.6217H23.5678V26.6045H23.5161V26.5872H23.4643V26.57H23.4125V26.5527H23.3608V26.5355H23.309V26.5182H23.2573V26.501H23.2055V26.4837H23.1537V26.4665H23.102V26.4492H23.0502V26.4319H23.0157V26.4147H22.964V26.3974H22.9122V26.3802H22.8777V26.3629H22.8259V26.3457H22.7914V26.3284H22.7397V26.3112H22.7052V26.2939H22.6534V26.2767H22.6189V26.2594H22.5671V26.2422H22.5326V26.2249H22.4981V26.2077H22.4464V26.1904H22.4119V26.1731H22.3774V26.1559H22.3428V26.1386H22.2911V26.1214H22.2566V26.1041H22.2221V26.0869H22.1876V26.0696H22.1531V26.0524H22.1186V26.0351H22.084V26.0179H22.0495V26.0006H21.9978V25.9834H21.9805V25.9661H21.946V25.9489H21.9115V25.9316H21.877V25.9144H21.8425V25.8971H21.808V25.8798H21.7735V25.8626H21.739V25.8453H21.7045V25.8281H21.67V25.8108H21.6355V25.7936H21.601V25.7763H21.5837V25.7591H21.5492V25.7418H21.5147V25.7246H21.4802V25.7073H21.4629V25.6901H21.4284V25.6728H21.3939V25.6556H21.3594V25.6383H21.3422V25.621H21.3077V25.6038H21.2731V25.5865H21.2386V25.5693H21.2214V25.552H21.1869V25.5348H21.1696V25.5175H21.1351V25.5003H21.1006V25.483H21.0834V25.4658H21.0489V25.4485H21.0144V25.4313H20.9971V25.414H20.9626V25.3968H20.9453V25.3795H20.9108V25.3622H20.8763V25.345H20.8591V25.3277H20.8246V25.3105H20.8073V25.2932H20.7728V25.276H20.7556V25.2587H20.721V25.2415H20.7038V25.2242H20.6693V25.207H20.652V25.1897H20.6175V25.1725H20.6003V25.1552H20.583V25.138H20.5485V25.1207H20.5313V25.1034H20.514V25.0862H20.5313V25.0689H20.5485V25.0517H20.5658V25.0344H20.583V25.0172H20.6003V24.9999H20.6175V24.9827H20.6348V24.9654H20.652V24.9482H20.6693V24.9309H20.6865V24.9137H20.7038V24.8964H20.721V24.8792H20.7383V24.8619H20.7556V24.8447H20.7728V24.8274H20.7901V24.8101H20.8073V24.7929H20.8246V24.7756H20.8418V24.7584H20.8591V24.7411H20.8763V24.7239H20.8936V24.7066H20.9108V24.6894H20.9281V24.6721H20.9453V24.6549H20.9626V24.6376H20.9798V24.6031H20.9971V24.5859H21.0144V24.5686H21.0316V24.5513H21.0489V24.5341H21.0661V24.5168H21.0834V24.4996H21.1006V24.4823H21.1179V24.4651H21.1351V24.4478H21.1524V24.4306H21.1696V24.4133H21.1869V24.3961H21.2041V24.3788H21.2214V24.3616H21.2386V24.3443H21.2559V24.3271H21.2731V24.3098H21.2904V24.2925H21.3077V24.2753H21.3249V24.258H21.3422V24.2408H21.3594V24.2235H21.3767V24.2063H21.3939V24.189H21.4112V24.1718H21.4284V24.1545H21.4457V24.1373H21.4629V24.12H21.4802V24.1028H21.4974V24.0855H21.5147V24.0683H21.5319V24.051H21.5492V24.0338H21.5665V24.0165H21.5837V23.9992H21.601V23.982H21.6182V23.9647H21.6355V23.9475H21.6527V23.9302H21.67V23.913H21.6872V23.8957H21.7045V23.8785H21.7217V23.8612H21.739V23.844H21.7562V23.8267H21.7735V23.7922H21.7907V23.775H21.808V23.7577H21.8253V23.7404H21.8425V23.7232H21.8598V23.7059H21.877V23.6887H21.8943V23.6714H21.9115V23.6542H21.9288V23.6369H21.946V23.6197H21.9633V23.6024H21.9805V23.5852H21.9978V23.5679H22.015V23.5507H22.0323V23.5334H22.0495V23.5162H22.0668V23.4989H22.084V23.4816H22.1013V23.4644H22.1186V23.4471H22.1358V23.4299H22.1531V23.4126H22.1703V23.3954H22.1876V23.3781H22.2048V23.3609H22.2221V23.3436H22.2393V23.3264H22.2566V23.3091H22.2738V23.2919H22.2911V23.2746H22.3083V23.2574H22.3256V23.2401H22.3428V23.2228H22.3601V23.2056H22.3774V23.1883H22.3946V23.1711H22.4119V23.1538H22.4291V23.1366H22.4464V23.1193H22.4636V23.1021H22.4809V23.0848H22.4981V23.0676H22.5154V23.0503H22.5326V23.0331H22.5499V23.0158H22.5671V22.9986H22.5844V22.9813H22.6016V22.9641H22.6189V22.9468H22.6362V22.9295H22.6534V22.9123H22.6707V22.895H22.6879V22.8778H22.7052V22.8605H22.7224V22.8433H22.7397V22.826H22.7569V22.8088H22.7742V22.7915H22.7914V22.7743H22.8087V22.757H22.8259V22.7398H22.8432V22.7225H22.8604V22.7053H22.8777V22.688H22.895V22.6707H22.9122V22.6535H22.9295V22.6362H22.9467V22.6017H22.964V22.5845H22.9812V22.5672H22.9985V22.55H23.0157V22.5327H23.033V22.5155H23.0502V22.4982H23.0675V22.481H23.0847V22.4637H23.102V22.4465H23.1192V22.4292H23.1365V22.4119H23.1537V22.3947H23.171V22.3774H23.1883V22.3602H23.2055V22.3429H23.2228V22.3257H23.24V22.3084H23.2573V22.2912H23.2745V22.2739H23.2918V22.2567H23.309V22.2394H23.3263V22.2222H23.3435V22.2049H23.3608V22.1877H23.378V22.1704H23.3953V22.1531H23.4125V22.1359H23.4298V22.1186H23.4471V22.1014H23.4643V22.0841H23.4816V22.0669H23.4988V22.0496H23.5161V22.0324H23.5333V22.0151H23.5506V21.9979H23.5678V21.9806H23.5851V21.9634H23.6023V21.9461H23.6196V21.9289H23.6368V21.9116H23.6541V21.8944H23.6713V21.8771H23.6886V21.8598H23.7059V21.8426H23.7231V21.8253H23.7404V21.8081H23.7576V21.7908H23.7749V21.7736H23.7921V21.7563H23.8094V21.7391H23.8266V21.7218H23.8439V21.7046H23.8611V21.6873H23.8784V21.6701H23.8956V21.6528H23.9129V21.6356H23.9301V21.6183H23.9474V21.601H23.9647V21.5838H23.9819V21.5665H23.9992V21.5493H24.0164V21.532H24.0337V21.5148H24.0509V21.4975H24.0682V21.4803H24.0854V21.463H24.1027V21.4458H24.1199V21.4285H24.1372V21.4113H24.1544V21.394H24.1717V21.3768H24.1889V21.3595H24.2062V21.3422H24.2234V21.325H24.2407V21.3077H24.258V21.2905H24.2752V21.2732H24.2925V21.256H24.3097V21.2387H24.327V21.2215H24.3442V21.2042H24.3615V21.187H24.3787V21.1697H24.396V21.1525H24.4132V21.1352H24.4305V21.118H24.4477V21.1007H24.465V21.0835H24.4822V21.0662H24.4995V21.0489H24.5168V21.0317H24.534V21.0144H24.5513V20.9972H24.5685V20.9799H24.5858V20.9627H24.603V20.9454H24.6203V20.9282H24.6375V20.9109H24.672V20.8937H24.6893V20.8764H24.7065V20.8592H24.7238V20.8419H24.741V20.8247H24.7583V20.8074H24.7756V20.7901H24.7928V20.7729H24.8101V20.7556H24.8273V20.7384H24.8446V20.7211H24.8618V20.7039H24.8791V20.6866H24.8963V20.6694H24.9136V20.6521H24.9308V20.6349H24.9481V20.6176H24.9653V20.6004H24.9826V20.5831H24.9998V20.5659H25.0171V20.5486H25.0343V20.5313H25.0516V20.5141H25.0689V20.4968H25.0861V20.4796H25.1034V20.4623H25.1206V20.4451H25.1379V20.4278H25.1551V20.4106H25.1724V20.3933H25.1896V20.3761H25.2069V20.3588H25.2241V20.3416H25.2414V20.3243H25.2586V20.3071H25.2759V20.2898H25.2931V20.2725H25.3277V20.2553H25.3449V20.238H25.3622V20.2208H25.3794V20.2035H25.3967V20.1863H25.4139V20.169H25.4312V20.1518H25.4484V20.1345H25.4657V20.1173H25.4829V20.1H25.5002V20.0828H25.5174V20.0655H25.5347V20.0483H25.5519V20.031H25.5692V20.0138H25.5865V19.9965H25.6037V19.9792H25.6382V19.962H25.6555V19.9447H25.6727V19.9275H25.69V19.9102H25.7072V19.893H25.7245V19.8757H25.7417V19.8585H25.759V19.8412H25.7762V19.824H25.7935V19.8067H25.828V19.7895H25.8453V19.7722H25.8625V19.755H25.8798V19.7377H25.897V19.7204H25.9143V19.7032H25.9488V19.6859H25.966V19.6687H25.9833V19.6514H26.0005V19.6342H26.035V19.6169H26.0523V19.5997H26.104V19.6687H26.0868V19.9275H26.0695V20.8592H26.0868V21.0489H26.104V21.2042H26.1213V21.325H26.1386V21.4285H26.1558V21.532H26.1731V21.601H26.1903V21.6873H26.2076V21.7736H26.2248V21.8253H26.2421V21.8944H26.2593V21.9461H26.2766V22.0151H26.2938V22.0669H26.3111V22.1186H26.3283V22.1704H26.3456V22.2049H26.3628V22.2567H26.3801V22.3084H26.3974V22.3602H26.4146V22.3947H26.4319V22.4292H26.4491V22.481H26.4664V22.5155H26.4836V22.55H26.5009V22.5845H26.5181V22.6362H26.5354V22.6707H26.5526V22.7053H26.5699V22.7398H26.5871V22.7743H26.6044V22.8088H26.6216V22.8433H26.6389V22.8605H26.6562V22.895H26.6734V22.9295H26.6907V22.9641H26.7079V22.9813H26.7252V23.0158H26.7424V23.0503H26.7597V23.0848H26.7769V23.1021H26.7942V23.1366H26.8114V23.1711H26.8287V23.1883H26.8459V23.2228H26.8632V23.2401H26.8804V23.2746H26.8977V23.3091H26.9149V23.3264H26.9322V23.3609H26.9495V23.3781H26.9667V23.4126H26.984V23.4299H27.0012V23.4644H27.0185V23.4816H27.0357V23.5162H27.053V23.5334H27.0702V23.5679H27.0875V23.5852H27.1047V23.6024H27.122V23.6369H27.1392V23.6542H27.1565V23.6887H27.1737V23.7059H27.191V23.7232H27.2083V23.7577H27.2255V23.775H27.2428V23.8095H27.26V23.8267H27.2773V23.844H27.2945V23.8785H27.3118V23.8957H27.329V23.913H27.3463V23.9475H27.3635V23.9647H27.3808V23.9992H27.398V24.0165H27.4153V24.0338H27.4325V24.0683H27.4498V24.0855H27.4671V24.1028H27.4843V24.1373H27.5016V24.1545H27.5188V24.1718H27.5361V24.2063H27.5533V24.2235H27.5706V24.2408H27.5878V24.2753H27.6051V24.2925H27.6223V24.3271H27.6396V24.3443H27.6568V24.3788H27.6741V24.3961H27.6913V24.4306H27.7086V24.4478H27.7259V24.4823H27.7431V24.5168H27.7604V24.5341H27.7776V24.5686H27.7949V24.6031H27.8121V24.6376H27.8294V24.6721H27.8466V24.7066H27.8639V24.7411H27.8811V24.7756H27.8984V24.8101H27.9156V24.8447H27.9329V24.8964H27.9501V24.9482H27.9674V24.9999H27.9846V25.0517H28.0019V25.1034H28.0192V25.1897H28.0364V25.276H28.0537V25.6728H28.0364V25.7591H28.0192V25.8281H28.0019V25.8798H27.9846V25.9144H27.9674V25.9661H27.9501V26.0006H27.9329V26.0351H27.9156V26.0696H27.8984V26.0869H27.8811V26.1214H27.8639V26.1386H27.8466V26.1731H27.8294V26.2077H27.8121V26.2249H27.7949V26.2422H27.7776V26.2594H27.7604V26.2767H27.7431V26.2939H27.7259V26.3112H27.7086V26.3284H27.6913V26.3457H27.6741V26.3629H27.6568V26.3802H27.6396V26.3974H27.6223V26.4147H27.5878V26.4319H27.5706V26.4492H27.5533V26.4665H27.5361V26.4837H27.5188V26.501H27.4843V26.5182H27.4671V26.5355H27.4325V26.5527H27.398V26.57H27.3808V26.5872H27.3463V26.6045H27.3118V26.6217H27.2945V26.639H27.2428V26.6562H27.2083V26.6735H27.1737V26.6907H27.1392V26.708H27.1047V26.7253H27.053V26.7425H27.0185V26.7598H26.9667V26.777H26.9149V26.7943H26.8632V26.8115H26.8114V26.8288H26.7424V26.846H26.6562V26.8633H26.5871V26.8805H26.5181V26.8978H26.3974V26.915H26.2938V26.9323H26.1386V26.9495H25.8625V26.9668" fill="#2A3544"/>
<path d="M26.0912 19.614C25.8776 21.97 26.6005 22.9466 27.5462 24.2173C28.7831 25.8816 27.5762 26.8787 25.9075 26.9406C24.5657 27.0014 22.4939 26.4782 20.5296 25.0934C20.5296 25.0934 26.1133 19.3507 26.0912 19.614Z" fill="#2A3544"/>
<path d="M9.43766 28.7949V28.7777H9.29963V28.7604H9.21336V28.7432H9.14435V28.7259H9.07534V28.7087H9.02358V28.6914H8.97182V28.6741H8.92006V28.6569H8.8683V28.6396H8.83379V28.6224H8.78203V28.6051H8.74753V28.5879H8.71302V28.5706H8.67851V28.5534H8.64401V28.5361H8.6095V28.5189H8.575V28.5016H8.54049V28.4844H8.50598V28.4671H8.47148V28.4499H8.45422V28.4326H8.41972V28.4154H8.38521V28.3981H8.36796V28.3808H8.33345V28.3636H8.29894V28.3463H8.28169V28.3291H8.26444V28.3118H8.22993V28.2946H8.21268V28.2773H8.17817V28.2601H8.16092V28.2428H8.14367V28.2256H8.10916V28.2083H8.09191V28.1911H8.07465V28.1738H8.0574V28.1566H8.02289V28.1393H8.00564V28.122H7.98839V28.1048H7.97113V28.0875H7.95388V28.0703H7.91937V28.053H7.90212V28.0358H7.88487V28.0185H7.86761V28.0013H7.85036V27.984H7.83311V27.9668H7.81585V27.9495H7.7986V27.9323H7.78135V27.915H7.76409V27.8978H7.74684V27.8805H7.72959V27.8632H7.71233V27.8287H7.69508V27.8115H7.67783V27.7942H7.66058V27.777H7.64332V27.7597H7.62607V27.7425H7.60882V27.708H7.59156V27.6907H7.57431V27.6735H7.55706V27.639H7.5398V27.6217H7.52255V27.6045H7.5053V27.5699H7.48804V27.5527H7.47079V27.5182H7.45354V27.4837H7.43628V27.4664H7.41903V27.4319H7.40178V27.3974H7.38452V27.3802H7.36727V27.3457H7.35002V27.3111H7.33276V27.2766H7.31551V27.2421H7.29826V27.2076H7.281V27.1731H7.26375V27.1386H7.2465V27.1041H7.22924V27.0696H7.21199V27.0351H7.19474V27.0006H7.17749V26.9661H7.16023V26.9143H7.14298V26.8798H7.12573V26.8281H7.10847V26.7935H7.09122V26.7418H7.07397V26.7073H7.05671V26.6555H7.03946V26.6038H7.02221V26.552H7.00495V26.5002H6.9877V26.4485H6.97045V26.3795H6.95319V26.3277H6.93594V26.2587H6.91869V26.2069H6.90143V26.1379H6.88418V26.0689H6.86693V25.9826H6.84967V25.9136H6.83242V25.8101H6.81517V25.7239H6.79791V25.6031H6.78066V25.4651H6.76341V25.2925H6.74615V24.6714H6.76341V24.4989H6.78066V24.3954H6.79791V24.2918H6.81517V24.2228H6.83242V24.1538H6.84967V24.0848H6.86693V24.033H6.88418V23.9985H6.90143V23.9468H6.91869V23.895H6.93594V23.8432H6.95319V23.8087H6.97045V23.7742H6.9877V23.7397H7.00495V23.7052H7.02221V23.6707H7.03946V23.6362H7.05671V23.6017H7.07397V23.5672H7.09122V23.5327H7.10847V23.4982H7.12573V23.4637H7.14298V23.4292H7.16023V23.3947H7.17749V23.3602H7.19474V23.3257H7.21199V23.2911H7.22924V23.2739H7.2465V23.2394H7.26375V23.2049H7.281V23.1704H7.29826V23.1359H7.31551V23.1014H7.33276V23.0669H7.35002V23.0323H7.36727V23.0151H7.38452V22.9806H7.40178V22.9633H7.41903V22.9288H7.43628V22.9116H7.45354V22.8771H7.47079V22.8598H7.48804V22.8253H7.5053V22.8081H7.52255V22.7736H7.5398V22.7563H7.55706V22.7218H7.57431V22.7045H7.59156V22.67H7.60882V22.6528H7.62607V22.6183H7.64332V22.601H7.66058V22.5665H7.67783V22.5493H7.69508V22.5148H7.71233V22.4975H7.72959V22.4802H7.74684V22.463H7.76409V22.4457H7.78135V22.4285H7.7986V22.394H7.81585V22.3767H7.83311V22.3595H7.85036V22.3422H7.86761V22.325H7.88487V22.3077H7.90212V22.2732H7.91937V22.256H7.93663V22.2387H7.95388V22.2214H7.97113V22.2042H7.98839V22.1869H8.00564V22.1524H8.02289V22.1352H8.04015V22.1179H8.0574V22.1007H8.07465V22.0834H8.09191V22.0662H8.12641V22.0489H8.14367V22.0317H8.16092V22.0144H8.17817V21.9972H8.19542V21.9799H8.21268V21.9626H8.22993V21.9454H8.26444V21.9281H8.28169V21.9109H8.29894V21.8936H8.3162V21.8764H8.33345V21.8591H8.3507V21.8419H8.36796V21.8246H8.40246V21.8074H8.41972V21.7901H8.43697V21.7729H8.47148V21.7556H8.48873V21.7384H8.52324V21.7211H8.54049V21.7039H8.575V21.6866H8.59225V21.6693H8.62675V21.6521H8.66126V21.6348H8.67851V21.6176H8.71302V21.6003H8.73027V21.5831H8.76478V21.5658H8.79929V21.5486H8.81654V21.5313H8.8683V21.5141H8.90281V21.4968H8.93731V21.4796H8.98907V21.4623H9.02358V21.4451H9.07534V21.4278H9.10984V21.4105H9.14435V21.3933H9.19611V21.376H9.24787V21.3588H9.33414V21.3415H9.40315V21.3243H9.47216V21.307H9.54118V21.2898H9.64469V21.2725H9.81723V21.2553H10.1795V21.2725H10.3521V21.2898H10.4556V21.307H10.5419V21.3243H10.6454V21.3415H10.7144V21.3588H10.7662V21.376H10.8179V21.3933H10.8869V21.4105H10.9387V21.4278H10.9904V21.4451H11.0422V21.4623H11.0767V21.4796H11.1285V21.4968H11.163V21.5141H11.2147V21.5313H11.2492V21.5486H11.301V21.5658H11.3355V21.5831H11.37V21.6003H11.3873V21.6176H11.4218V21.6348H11.4563V21.6521H11.4908V21.6693H11.5253V21.6866H11.5598V21.7039H11.5943V21.7211H11.6288V21.7384H11.6461V21.7556H11.6806V21.7729H11.6978V21.7901H11.7323V21.8074H11.7668V21.8246H11.7841V21.8419H11.8186V21.8591H11.8359V21.8764H11.8704V21.8936H11.8876V21.9109H11.9221V21.9281H11.9394V21.9454H11.9566V21.9626H11.9911V21.9799H12.0084V21.9972H12.0256V22.0144H12.0601V22.0317H12.0774V22.0489H12.0947V22.0662H12.1292V22.0834H12.1464V22.1007H12.1637V22.1179H12.1809V22.1352H12.1982V22.1524H12.2154V22.1697H12.2327V22.1869H12.2672V22.2042H12.2844V22.2214H12.3017V22.2387H12.3189V22.256H12.3362V22.2732H12.3534V22.2905H12.3707V22.3077H12.388V22.325H12.4052V22.3422H12.4225V22.3595H12.4397V22.3767H12.457V22.394H12.4742V22.4112H12.4915V22.4285H12.5087V22.4457H12.526V22.463H12.5432V22.4802H12.5605V22.4975H12.5777V22.5148H12.595V22.532H12.6122V22.5665H12.6295V22.5838H12.6468V22.601H12.664V22.6183H12.6813V22.6528H12.6985V22.67H12.7158V22.6873H12.733V22.7045H12.7503V22.739H12.7675V22.7563H12.7848V22.7908H12.802V22.8081H12.8193V22.8426H12.8365V22.8598H12.8538V22.8771H12.871V22.9116H12.8883V22.9288H12.9056V22.9633H12.9228V22.9978H12.9401V23.0323H12.9573V23.0669H12.9746V23.1014H12.9918V23.1359H13.0091V23.1704H13.0263V23.2221H13.0436V23.2739H13.0608V23.3084H13.0781V23.3774H13.0953V23.4809H13.1126V23.7225H13.0953V23.7742H13.0781V23.826H13.0608V23.8432H13.0436V23.8605H13.0263V23.8778H12.9918V23.895H12.9746V23.9123H12.9401V23.9295H12.9228V23.9468H12.8883V23.964H12.8538V23.9813H12.8365V23.9985H12.802V24.0158H12.7848V24.033H12.7675V24.0503H12.733V24.0675H12.7158V24.0848H12.6813V24.102H12.664V24.1193H12.6295V24.1366H12.6122V24.1538H12.595V24.1711H12.5605V24.1883H12.5432V24.2056H12.5087V24.2228H12.4915V24.2401H12.4742V24.2573H12.457V24.2746H12.4225V24.2918H12.4052V24.3091H12.388V24.3263H12.3534V24.3436H12.3362V24.3608H12.3189V24.3781H12.3017V24.3954H12.2672V24.4126H12.2499V24.4299H12.2327V24.4471H12.2154V24.4644H12.1982V24.4816H12.1809V24.4989H12.1464V24.5161H12.1292V24.5334H12.1119V24.5506H12.0947V24.5679H12.0774V24.5851H12.0601V24.6024H12.0429V24.6196H12.0256V24.6369H12.0084V24.6542H11.9911V24.6714H11.9566V24.6887H11.9394V24.7232H11.9221V24.7404H11.9049V24.7577H11.8876V24.7749H11.8704V24.7922H11.8531V24.8094H11.8359V24.8267H11.8186V24.8439H11.8013V24.8612H11.7841V24.8784H11.7668V24.8957H11.7496V24.9302H11.7323V24.9475H11.7151V24.9647H11.6978V24.982H11.6806V25.0165H11.6633V25.0337H11.6461V25.051H11.6288V25.0855H11.6116V25.1027H11.5943V25.1372H11.5771V25.1545H11.5598V25.189H11.5425V25.2235H11.5253V25.258H11.508V25.2925H11.4908V25.327H11.4735V25.3615H11.4563V25.4133H11.439V25.4651H11.4218V25.5341H11.4045V26.0172H11.4218V26.1552H11.439V26.2242H11.4563V26.3105H11.4735V26.3622H11.4908V26.4312H11.508V26.483H11.5253V26.5348H11.5425V26.5865H11.5598V26.6383H11.5771V26.69H11.5943V26.7418H11.6116V26.8108H11.6288V26.8626H11.6461V26.9316H11.6633V27.0006H11.6806V27.3629H11.6633V27.4492H11.6461V27.4837H11.6288V27.5354H11.6116V27.5872H11.5943V27.6217H11.5771V27.639H11.5598V27.6735H11.5425V27.708H11.5253V27.7425H11.508V27.7597H11.4908V27.777H11.4735V27.8115H11.4563V27.8287H11.439V27.8632H11.4218V27.8805H11.4045V27.8978H11.3873V27.915H11.37V27.9495H11.3528V27.9668H11.3355V27.984H11.3183V28.0013H11.301V28.0185H11.2837V28.0358H11.2665V28.053H11.2492V28.0703H11.232V28.0875H11.2147V28.1048H11.1975V28.1393H11.163V28.1566H11.1457V28.1738H11.1285V28.1911H11.1112V28.2083H11.094V28.2256H11.0767V28.2428H11.0595V28.2601H11.0422V28.2773H11.0077V28.2946H10.9904V28.3118H10.9732V28.3291H10.9559V28.3463H10.9214V28.3636H10.9042V28.3808H10.8697V28.3981H10.8524V28.4154H10.8352V28.4326H10.8007V28.4499H10.7834V28.4671H10.7489V28.4844H10.7316V28.5016H10.6971V28.5189H10.6799V28.5361H10.6454V28.5534H10.6109V28.5706H10.5764V28.5879H10.5419V28.6051H10.5074V28.6224H10.4728V28.6396H10.4383V28.6569H10.3866V28.6741H10.3348V28.6914H10.2831V28.7087H10.2313V28.7259H10.1795V28.7432H10.1278V28.7604H10.007V28.7777H9.90349V28.7949" fill="#2A3544"/>
<path d="M7.04853 23.6633C6.61398 24.4172 6.70024 25.5651 7.01147 26.5138C7.30235 26.3354 9.06999 27.5967 8.85022 27.9044C8.57342 28.1879 8.17027 28.1423 7.77857 27.894C8.4997 28.6472 9.97114 29.381 11.2355 28.0594C12.2023 27.0574 11.2762 26.7557 11.4005 25.5651C11.484 24.7604 13.0428 23.8388 13.0428 23.8388C13.6895 22.7586 9.2899 18.7211 7.04853 23.6633" fill="#2A3544"/>
<path d="M18.2539 29.998V29.9808H18.0469V29.9635H17.9606V29.9463H17.8571V29.929H17.7708V29.9118H17.6846V29.8945H17.6328V29.8773H17.5811V29.86H17.512V29.8428H17.4603V29.8255H17.3913V29.8083H17.3568V29.791H17.305V29.7738H17.2705V29.7565H17.2187V29.7392H17.1842V29.722H17.1325V29.7047H17.098V29.6875H17.0635V29.6702H17.029V29.653H16.9944V29.6357H16.9599V29.6185H16.9254V29.6012H16.8909V29.584H16.8564V29.5667H16.8392V29.5495H16.8047V29.5322H16.7702V29.515H16.7529V29.4977H16.7184V29.4805H16.7011V29.4632H16.6666V29.4459H16.6494V29.4287H16.6149V29.4114H16.5804V29.3942H16.5631V29.3769H16.5459V29.3597H16.5114V29.3424H16.4941V29.3252H16.4769V29.3079H16.4596V29.2907H16.4251V29.2734H16.4078V29.2562H16.3906V29.2389H16.3733V29.2217H16.3388V29.2044H16.3216V29.1871H16.3043V29.1699H16.2871V29.1526H16.2698V29.1354H16.2526V29.1181H16.2353V29.1009H16.2181V29.0836H16.2008V29.0664H16.1835V29.0491H16.1663V29.0319H16.149V29.0146H16.1318V28.9974H16.1145V28.9801H16.0973V28.9629H16.08V28.9456H16.0628V28.9283H16.0455V28.9111H16.0283V28.8938H16.011V28.8766H15.9938V28.8421H15.9765V28.8248H15.9593V28.8076H15.942V28.7903H15.9247V28.7558H15.9075V28.7386H15.8902V28.7213H15.873V28.6868H15.8557V28.6695H15.8385V28.635H15.8212V28.6178H15.804V28.5833H15.7867V28.566H15.7695V28.5315H15.7522V28.497H15.735V28.4798H15.7177V28.4453H15.7005V28.4108H15.6832V28.3762H15.6659V28.3417H15.6487V28.3072H15.6314V28.2727H15.6142V28.2382H15.5969V28.1692H15.5797V28.1174H15.5624V28.0657H15.5452V27.9967H15.5279V27.7034H15.5452V27.5653H15.5624V27.4963H15.5797V27.4273H15.5969V27.3756H15.6142V27.3065H15.6314V27.2375H15.6487V27.203H15.6659V27.1685H15.6832V27.134H15.7005V27.0823H15.7177V27.0477H15.735V27.0132H15.7522V26.9787H15.7695V26.9442H15.7867V26.9097H15.804V26.8925H15.8212V26.858H15.8385V26.8407H15.8557V26.8062H15.873V26.7889H15.8902V26.7544H15.9075V26.7199H15.9247V26.7027H15.942V26.6854H15.9593V26.6682H15.9765V26.6337H15.9938V26.6164H16.011V26.5992H16.0283V26.5819H16.0455V26.5647H16.0628V26.5302H16.08V26.5129H16.0973V26.4956H16.1145V26.4784H16.1318V26.4611H16.149V26.4439H16.1663V26.4266H16.1835V26.4094H16.2008V26.3921H16.2181V26.3749H16.2353V26.3576H16.2526V26.3404H16.2698V26.3231H16.2871V26.3059H16.3043V26.2886H16.3388V26.2714H16.3561V26.2541H16.3733V26.2368H16.3906V26.2196H16.4078V26.2023H16.4423V26.1851H16.4596V26.1678H16.4769V26.1506H16.5114V26.1333H16.5286V26.1161H16.5459V26.0988H16.5804V26.0816H16.5976V26.0643H16.6149V26.0471H16.6494V26.0298H16.6839V26.0126H16.7011V25.9953H16.7356V25.978H16.7529V25.9608H16.7874V25.9435H16.8219V25.9263H16.8392V25.909H16.8737V25.8918H16.8909V25.8745H16.9254V25.8573H16.9599V25.84H16.9944V25.8228H17.029V25.8055H17.0635V25.7883H17.098V25.771H17.1325V25.7538H17.167V25.7365H17.2015V25.7193H17.236V25.702H17.2878V25.6847H17.3223V25.6675H17.374V25.6502H17.4085V25.633H17.443V25.6157H17.4948V25.5985H17.5293V25.5812H17.5811V25.564H17.6328V25.5467H17.6846V25.5295H17.7363V25.5122H17.7881V25.495H17.8399V25.4777H17.8916V25.4605H17.9606V25.4432H18.0124V25.4259H18.0814V25.4087H18.1504V25.3914H18.2194V25.3742H18.2884V25.3569H18.3747V25.3397H18.461V25.3224H18.5472V25.3052H18.6508V25.2879H18.7715V25.2707H18.8923V25.2534H19.0648V25.2362H19.2546V25.2189H19.962V25.2362H20.1518V25.2534H20.2898V25.2707H20.4278V25.2879H20.5141V25.3052H20.6004V25.3224H20.6694V25.3397H20.7556V25.3569H20.8247V25.3742H20.8764V25.3914H20.9282V25.4087H20.9799V25.4259H21.0317V25.4432H21.0662V25.4605H21.118V25.4777H21.1525V25.495H21.187V25.5122H21.2215V25.5295H21.256V25.5467H21.2905V25.564H21.325V25.5812H21.3595V25.5985H21.394V25.6157H21.4285V25.633H21.4458V25.6502H21.4803V25.6675H21.4975V25.6847H21.5148V25.702H21.5493V25.7193H21.5665V25.7365H21.5838V25.7538H21.6183V25.771H21.6356V25.7883H21.6528V25.8055H21.6701V25.8228H21.6873V25.84H21.7046V25.8745H21.7218V25.8918H21.7391V25.909H21.7563V25.9263H21.7736V25.9435H21.7908V25.9608H21.8081V25.9953H21.8253V26.0126H21.8426V26.0471H21.8599V26.0816H21.8771V26.1161H21.8944V26.1506H21.9116V26.1851H21.9289V26.2541H21.9461V26.3231H21.9634V26.4439H21.9806V26.9787H21.9634V27.134H21.9461V27.2375H21.9289V27.3238H21.9116V27.4101H21.8944V27.4791H21.8771V27.5308H21.8599V27.5999H21.8426V27.6516H21.8253V27.7206H21.8081V27.7724H21.7908V27.8069H21.7736V27.8586H21.7563V27.8932H21.7391V27.9449H21.7218V27.9967H21.7046V28.0312H21.6873V28.0657H21.6701V28.1002H21.6528V28.1347H21.6356V28.1692H21.6183V28.2037H21.6011V28.2382H21.5838V28.2727H21.5665V28.3072H21.5493V28.3417H21.532V28.3762H21.5148V28.3935H21.4975V28.428H21.4803V28.4625H21.463V28.4798H21.4458V28.5143H21.4285V28.5315H21.4113V28.566H21.394V28.6005H21.3768V28.6178H21.3595V28.635H21.3423V28.6695H21.325V28.6868H21.3078V28.7041H21.2905V28.7386H21.2732V28.7558H21.256V28.7731H21.2387V28.8076H21.2215V28.8248H21.2042V28.8421H21.187V28.8593H21.1697V28.8766H21.1525V28.8938H21.1352V28.9283H21.118V28.9456H21.1007V28.9629H21.0835V28.9801H21.0662V28.9974H21.049V29.0146H21.0317V29.0319H21.0144V29.0491H20.9972V29.0664H20.9799V29.0836H20.9627V29.1009H20.9454V29.1181H20.9282V29.1354H20.9109V29.1526H20.8937V29.1699H20.8592V29.1871H20.8419V29.2044H20.8247V29.2217H20.8074V29.2389H20.7902V29.2562H20.7729V29.2734H20.7556V29.2907H20.7211V29.3079H20.7039V29.3252H20.6866V29.3424H20.6521V29.3597H20.6349V29.3769H20.6004V29.3942H20.5831V29.4114H20.5659V29.4287H20.5314V29.4459H20.5141V29.4632H20.4796V29.4805H20.4623V29.4977H20.4278V29.515H20.4106V29.5322H20.3761V29.5495H20.3416V29.5667H20.3071V29.584H20.2726V29.6012H20.2381V29.6185H20.2035V29.6357H20.169V29.653H20.1345V29.6702H20.1V29.6875H20.0655V29.7047H20.031V29.722H19.9793V29.7392H19.9447V29.7565H19.893V29.7738H19.8412V29.791H19.8067V29.8083H19.755V29.8255H19.7032V29.8428H19.6514V29.86H19.5824V29.8773H19.5134V29.8945H19.4444V29.9118H19.3754V29.929H19.2891V29.9463H19.1856V29.9635H19.0476V29.9808H18.8923V29.998" fill="#2A3544"/>
<path d="M15.5515 28.0267C15.5599 28.0679 15.5706 28.1106 15.5941 28.1481L15.596 28.166C15.6055 28.2086 15.6246 28.2532 15.6499 28.2997V28.3058C15.6694 28.3513 15.6987 28.4034 15.7241 28.4482V28.4554C16.0721 29.0731 16.8554 29.7793 18.0122 29.9538V29.9577C18.3934 30.0181 18.8183 30.0181 19.2829 29.93C21.254 29.5673 21.9843 27.8145 21.9824 26.7055C21.9824 26.5785 21.9681 26.4582 21.9487 26.3497V26.3462C21.9474 26.3064 21.9356 26.2749 21.9256 26.243C21.388 24.4692 15.5995 25.0158 15.5302 27.8929C15.5302 27.932 15.5418 27.9668 15.5515 28.0093V28.0267ZM18.1941 29.53C18.2647 28.1882 20.6518 27.1254 21.2313 27.3225C21.8996 27.9906 20.1654 30.1658 18.1856 29.6492C18.1856 29.6127 18.1856 29.5732 18.1941 29.53" fill="#2A3544"/>
<path d="M3.37882 21.7185C4.05689 20.6671 5.91666 18.8055 5.65968 17.4395C5.20618 15.0413 1.10503 17.2089 0.256863 19.1773C-0.854418 21.734 1.91128 24.1208 3.37882 21.7185Z" fill="#2A3544"/>
<path d="M5.58994 17.1737C5.61851 17.2539 5.64197 17.341 5.65969 17.435C5.91668 18.801 4.0569 20.6626 3.37884 21.7139C3.36859 21.7306 3.35815 21.7473 3.3479 21.7637C3.35841 21.7473 3.36886 21.7308 3.3789 21.7139C4.05697 20.6626 5.91668 18.801 5.65969 17.435C5.64197 17.341 5.61851 17.2539 5.58994 17.1737" fill="#2A3544"/>
<path d="M4.36758 16.3822C3.99312 16.3822 3.57029 16.483 3.14024 16.6559C1.63846 17.8309 1.34759 21.0248 3.15406 22.0254H3.15445C3.21551 21.9447 3.28568 21.8596 3.34788 21.7644C3.35813 21.7481 3.36857 21.7314 3.37882 21.7147C4.05688 20.6633 5.91666 18.8017 5.65967 17.4358C5.64195 17.3417 5.61849 17.2547 5.58992 17.1745C5.38988 16.6132 4.9343 16.3822 4.36758 16.3822" fill="#2A3544"/>
<path d="M4.01683 20.4229C5.81689 21.7948 7.93008 22.899 14.8785 21.7302C20.8403 20.7205 20.8668 14.678 20.8668 14.678C20.8668 14.678 21.2245 12.1069 19.7326 11.5781C18.5209 11.1338 17.7716 11.7437 15.1672 13.0355C12.1657 14.5268 7.45912 14.4092 5.28036 12.906C5.28036 12.906 6.15407 15.3144 5.16335 16.4082C5.02157 16.5571 4.44816 18.9837 4.21733 19.0582C3.73444 19.3048 3.60706 20.1267 4.01683 20.4229Z" fill="#2A3544"/>
<path d="M14.2512 20.877V20.8597H14.0442V20.8424H13.9234V20.8252H13.8026V20.8079H13.6991V20.7907H13.6129V20.7734H13.5266V20.7562H13.4403V20.7389H13.3541V20.7217H13.285V20.7044H13.216V20.6872H13.147V20.6699H13.078V20.6527H13.009V20.6354H12.94V20.6182H12.8882V20.6009H12.8192V20.5836H12.7502V20.5664H12.6984V20.5491H12.6294V20.5319H12.5777V20.5146H12.5259V20.4974H12.4569V20.4801H12.4051V20.4629H12.3361V20.4456H12.2844V20.4284H12.2326V20.4111H12.1636V20.3939H12.1118V20.3766H12.0601V20.3594H11.9911V20.3421H11.9393V20.3249H11.8875V20.3076H11.8185V20.2903H11.7668V20.2731H11.6977V20.2558H11.6287V20.2386H11.577V20.2213H11.508V20.2041H11.4389V20.1868H11.3699V20.1696H11.3182V20.1523H11.2492V20.1351H11.1974V20.1178H11.1284V20.1006H11.0766V20.0833H11.0249V20.0661H10.9559V20.0488H10.9041V20.0315H10.8523V20.0143H10.8006V19.997H10.7316V19.9798H10.6798V19.9625H10.628V19.9453H10.5763V19.928H10.5418V19.9108H10.49V19.8935H10.4383V19.8763H10.3865V19.859H10.3347V19.8418H10.283V19.8245H10.2312V19.8073H10.1967V19.79H10.145V19.7727H10.0932V19.7555H10.0414V19.7382H9.98968V19.721H9.93792V19.7037H9.90341V19.6865H9.85165V19.6692H9.81715V19.652H9.76539V19.6347H9.73088V19.6175H9.67912V19.6002H9.64461V19.583H9.59285V19.5657H9.54109V19.5485H9.50659V19.5312H9.45483V19.5139H9.42032V19.4967H9.36856V19.4794H9.33406V19.4622H9.2823V19.4449H9.24779V19.4277H9.19603V19.4104H9.16152V19.3932H9.12702V19.3759H9.07526V19.3587H9.04075V19.3414H8.98899V19.3242H8.95449V19.3069H8.91998V19.2897H8.86822V19.2724H8.83371V19.2552H8.78195V19.2379H8.74745V19.2206H8.71294V19.2034H8.66118V19.1861H8.62667V19.1689H8.59217V19.1516H8.54041V19.1344H8.5059V19.1171H8.4714V19.0999H8.41964V19.0826H8.38513V19.0654H8.33337V19.0481H8.29886V19.0309H8.2471V19.0136H8.2126V18.9964H8.16084V18.9791H8.10908V18.9618H8.05732V18.9446H8.02281V18.9273H7.97105V18.9101H7.91929V18.8928H7.86753V18.8756H7.83303V18.8583H7.78127V18.8411H7.72951V18.8238H7.67775V18.8066H7.62599V18.7893H7.57423V18.7721H7.52247V18.7548H7.48796V18.7376H7.4362V18.7203H7.38444V18.703H7.34994V18.6858H7.29818V18.6685H7.24642V18.6513H7.21191V18.634H7.16015V18.6168H7.12565V18.5995H7.07389V18.5823H7.03938V18.565H7.00487V18.5478H6.95311V18.5305H6.91861V18.5133H6.8841V18.496H6.84959V18.4788H6.81509V18.4615H6.78058V18.4443H6.74607V18.427H6.71157V18.4097H6.67706V18.3925H6.64256V18.3752H6.6253V18.358H6.5908V18.3407H6.55629V18.3235H6.53904V18.3062H6.50453V18.289H6.47002V18.2717H6.45277V18.2545H6.41826V18.2372H6.40101V18.22H6.3665V18.2027H6.34925V18.1855H6.31474V18.1682H6.29749V18.1509H6.28024V18.1337H6.24573V18.1164H6.22848V18.0992H6.21122V18.0819H6.19397V18.0647H6.15947V18.0474H6.14221V17.9612H6.15947V17.7714H6.17672V17.5643H6.19397V17.4953H6.34925V17.5126H6.78058V17.4953H6.93586V17.4781H7.02213V17.4608H7.12565V17.4436H7.1774V17.4263H7.24642V17.4091H7.31543V17.3918H7.36719V17.3746H7.4017V17.3573H7.45346V17.34H7.50522V17.3228H7.53972V17.3055H7.59148V17.2883H7.62599V17.271H7.67775V17.2538H7.71225V17.2365H7.74676V17.2193H7.78127V17.202H7.81577V17.1848H7.85028V17.1675H7.88479V17.1503H7.91929V17.133H7.9538V17.1158H7.98831V17.0985H8.02281V17.0812H8.04007V17.064H8.07457V17.0467H8.10908V17.0295H8.14358V17.0122H8.17809V16.995H8.2126V16.9777H8.22985V16.9605H8.26436V16.9432H8.29886V16.926H8.33337V16.9087H8.36788V16.8915H8.40238V16.8742H8.41964V16.857H8.45414V16.8397H8.48865V16.8224H8.52316V16.8052H8.55766V16.7879H8.59217V16.7707H8.62667V16.7534H8.66118V16.7362H8.69569V16.7189H8.73019V16.7017H8.7647V16.6844H8.79921V16.6672H8.83371V16.6499H8.86822V16.6327H8.90273V16.6154H8.93723V16.5982H8.98899V16.5809H9.0235V16.5637H9.07526V16.5464H9.10976V16.5291H9.16152V16.5119H9.21328V16.4946H9.24779V16.4774H9.29955V16.4601H9.36856V16.4429H9.43758V16.4256H9.50659V16.4084H9.61011V16.3911H9.76539V16.3739H10.0587V16.3911H10.1967V16.4084H10.3002V16.4256H10.3865V16.4429H10.4555V16.4601H10.5245V16.4774H10.5763V16.4946H10.6453V16.5119H10.6971V16.5291H10.7488V16.5464H10.8006V16.5637H10.8523V16.5809H10.8868V16.5982H10.9386V16.6154H10.9904V16.6327H11.0249V16.6499H11.0766V16.6672H11.1284V16.6844H11.1629V16.7017H11.2147V16.7189H11.2664V16.7362H11.3182V16.7534H11.3699V16.7707H11.4217V16.7879H11.4735V16.8052H11.5425V16.8224H11.5942V16.8397H11.6632V16.857H11.784V16.8742H11.9048V16.8915H12.1118V16.8742H12.2498V16.857H12.3189V16.8397H12.3879V16.8224H12.4396V16.8052H12.4914V16.7879H12.5432V16.7707H12.5949V16.7534H12.6467V16.7362H12.6984V16.7189H12.7329V16.7017H12.7847V16.6844H12.8192V16.6672H12.871V16.6499H12.9055V16.6327H12.9572V16.6154H12.9917V16.5982H13.0435V16.5809H13.078V16.5637H13.1298V16.5464H13.1815V16.5291H13.2333V16.5119H13.285V16.4946H13.3368V16.4774H13.4058V16.4601H13.4748V16.4429H13.5438V16.4256H13.6129V16.4084H13.7164V16.3911H13.8026V16.3739H13.9407V16.3566H14.1304V16.3394H14.3892V16.3221H14.9068V16.3394H15.1829V16.3566H15.3382V16.3739H15.4935V16.3911H15.6142V16.4084H15.7177V16.4256H15.8213V16.4429H15.9075V16.4601H16.011V16.4774H16.0801V16.4946H16.1491V16.5119H16.2353V16.5291H16.3044V16.5464H16.3734V16.5637H16.4424V16.5809H16.4941V16.5982H16.5632V16.6154H16.6149V16.6327H16.6667V16.6499H16.7357V16.6672H16.7874V16.6844H16.8565V16.7017H16.891V16.7189H16.9427V16.7362H16.9945V16.7534H17.0462V16.7707H17.098V16.7879H17.1325V16.8052H17.1843V16.8224H17.236V16.8397H17.2878V16.857H17.3223V16.8742H17.3741V16.8915H17.4086V16.9087H17.4431V16.926H17.4948V16.9432H17.5293V16.9605H17.5811V16.9777H17.6156V16.995H17.6674V17.0122H17.7019V17.0295H17.7364V17.0467H17.7709V17.064H17.8054V17.0812H17.8399V17.0985H17.8916V17.1158H17.9262V17.133H17.9607V17.1503H17.9952V17.1675H18.0297V17.1848H18.0642V17.202H18.0987V17.2193H18.1332V17.2365H18.1677V17.2538H18.2022V17.271H18.2367V17.2883H18.2712V17.3055H18.3057V17.3228H18.3402V17.34H18.3575V17.3573H18.392V17.3746H18.4265V17.3918H18.461V17.4091H18.4783V17.4263H18.5128V17.4436H18.5473V17.4608H18.5818V17.4781H18.6163V17.4953H18.6335V17.5126H18.668V17.5298H18.7026V17.5471H18.7198V17.5643H18.7543V17.5816H18.7888V17.5988H18.8061V17.6161H18.8406V17.6333H18.8578V17.6506H18.8923V17.6679H18.9268V17.6851H18.9441V17.7024H18.9786V17.7196H18.9959V17.7369H19.0304V17.7541H19.0476V17.7714H19.0821V17.7886H19.0994V17.8059H19.1339V17.8231H19.1511V17.8404H19.1856V17.8576H19.2029V17.8749H19.2374V17.8921H19.2547V17.9094H19.2892V17.9267H19.3064V17.9439H19.3237V17.9612H19.3582V17.9784H19.3754V17.9957H19.3927V18.0129H19.4272V18.0302H19.4444V18.0474H19.4789V18.0647H19.4962V18.0819H19.5135V18.0992H19.5307V18.1164H19.5652V18.1337H19.5825V18.1509H19.5997V18.1682H19.617V18.1855H19.6515V18.2027H19.6687V18.22H19.686V18.2372H19.7032V18.2545H19.7377V18.2717H19.755V18.289H19.7722V18.3062H19.7895V18.3235H19.8068V18.3407H19.824V18.358H19.8413V18.3752H19.8758V18.3925H19.893V18.4097H19.9103V18.427H19.9275V18.4443H19.9448V18.4615H19.962V18.4788H19.9793V18.496H19.9965V18.5133H19.9793V18.5305H19.9448V18.5478H19.9103V18.565H19.8758V18.5823H19.8413V18.5995H19.824V18.6168H19.7895V18.634H19.755V18.6513H19.7205V18.6685H19.686V18.6858H19.6515V18.703H19.617V18.7203H19.5825V18.7376H19.548V18.7548H19.5135V18.7721H19.4789V18.7893H19.4444V18.8066H19.4099V18.8238H19.3754V18.8411H19.3409V18.8583H19.3237V18.8756H19.2892V18.8928H19.2547V18.9101H19.2201V18.9273H19.1856V18.9446H19.1511V18.9618H19.1166V18.9791H19.0821V18.9964H19.0476V19.0136H19.0131V19.0309H18.9786V19.0481H18.9441V19.0654H18.9096V19.0826H18.8751V19.0999H18.8406V19.1171H18.8061V19.1344H18.7716V19.1516H18.7371V19.1689H18.7026V19.1861H18.668V19.2034H18.6335V19.2206H18.6163V19.2379H18.5818V19.2552H18.5473V19.2724H18.5128V19.2897H18.4783V19.3069H18.4438V19.3242H18.4092V19.3414H18.3747V19.3587H18.3402V19.3759H18.3057V19.3932H18.2712V19.4104H18.2367V19.4277H18.2022V19.4449H18.1677V19.4622H18.1332V19.4794H18.0987V19.4967H18.0642V19.5139H18.0297V19.5312H17.9952V19.5485H17.9607V19.5657H17.9262V19.583H17.8916V19.6002H17.8571V19.6175H17.8226V19.6347H17.7881V19.652H17.7536V19.6692H17.7191V19.6865H17.6846V19.7037H17.6501V19.721H17.6156V19.7382H17.5811V19.7555H17.5293V19.7727H17.4948V19.79H17.4603V19.8073H17.4258V19.8245H17.3913V19.8418H17.3568V19.859H17.3223V19.8763H17.2878V19.8935H17.2533V19.9108H17.2188V19.928H17.1843V19.9453H17.1498V19.9625H17.1153V19.9798H17.0807V19.997H17.0462V20.0143H17.0117V20.0315H16.96V20.0488H16.9255V20.0661H16.891V20.0833H16.8565V20.1006H16.822V20.1178H16.7874V20.1351H16.7529V20.1523H16.7184V20.1696H16.6667V20.1868H16.6322V20.2041H16.5977V20.2213H16.5632V20.2386H16.5286V20.2558H16.4941V20.2731H16.4596V20.2903H16.4079V20.3076H16.3734V20.3249H16.3389V20.3421H16.3044V20.3594H16.2698V20.3766H16.2181V20.3939H16.1836V20.4111H16.1491V20.4284H16.1146V20.4456H16.0628V20.4629H16.0283V20.4801H15.9938V20.4974H15.942V20.5146H15.9075V20.5319H15.873V20.5491H15.8213V20.5664H15.7868V20.5836H15.7523V20.6009H15.7005V20.6182H15.666V20.6354H15.6142V20.6527H15.5625V20.6699H15.528V20.6872H15.4762V20.7044H15.4417V20.7217H15.3899V20.7389H15.3382V20.7562H15.2864V20.7734H15.2347V20.7907H15.1656V20.8079H15.0966V20.8252H15.0104V20.8424H14.9068V20.8597H14.7516V20.877" fill="#2A3544"/>
<path d="M16.5976 18.0879V18.0706H16.4768V18.0534H16.425V18.0361H16.3733V18.0189H16.3215V18.0016H16.2698V17.9844H16.2353V17.9671H16.218V17.9499H16.1835V17.9326H16.1662V17.9154H16.1317V17.8981H16.0972V17.8809H16.08V17.8636H16.0627V17.8463H16.0455V17.8291H16.0282V17.8118H16.011V17.7946H15.9937V17.7773H15.9765V17.7601H15.9592V17.7428H15.942V17.7083H15.9247V17.6911H15.9074V17.6566H15.8902V17.6221H15.8729V17.6048H15.8557V17.5703H15.8384V17.553H15.8212V17.5013H15.8039V17.4495H15.7867V17.3978H15.7694V17.3633H15.7522V17.3115H15.7349V17.1907H15.7177V17.07H15.7004V16.7766H15.7177V16.6214H15.7349V16.5178H15.7522V16.4143H15.7694V16.3453H15.7867V16.2763H15.8039V16.2245H15.8212V16.1555H15.8384V16.1038H15.8557V16.052H15.8729V16.0175H15.8902V15.983H15.9074V15.9312H15.9247V15.8967H15.942V15.8622H15.9592V15.8277H15.9765V15.8105H15.9937V15.776H16.011V15.7415H16.0282V15.7242H16.0455V15.6897H16.0627V15.6724H16.08V15.6552H16.0972V15.6379H16.1145V15.6207H16.1317V15.6034H16.149V15.5689H16.1662V15.5517H16.1835V15.5344H16.218V15.5172H16.2353V15.4999H16.2525V15.4827H16.287V15.4654H16.3043V15.4481H16.3388V15.4309H16.3733V15.4136H16.4078V15.3964H16.4596V15.3791H16.4941V15.3619H16.5976V15.3446H16.7529V15.3619H16.8564V15.3791H16.8909V15.3964H16.9426V15.4136H16.9771V15.4309H17.0289V15.4481H17.0462V15.4654H17.0807V15.4827H17.0979V15.4999H17.1324V15.5172H17.1497V15.5344H17.1842V15.5517H17.2014V15.5689H17.2187V15.5862H17.2359V15.6034H17.2532V15.6207H17.2705V15.6379H17.2877V15.6552H17.305V15.6724H17.3222V15.6897H17.3395V15.7242H17.3567V15.7415H17.374V15.7587H17.3912V15.7932H17.4085V15.8105H17.4257V15.845H17.443V15.8622H17.4602V15.8795H17.4775V15.914H17.4947V15.9485H17.512V15.983H17.5292V16.0175H17.5465V16.052H17.5638V16.0865H17.581V16.121H17.5983V16.1728H17.6155V16.2245H17.6328V16.2763H17.65V16.3108H17.6673V16.3626H17.6845V16.4316H17.7018V16.5006H17.719V16.5696H17.7363V16.6731H17.7535V16.8802H17.7708V16.9319H17.7535V17.1217H17.7363V17.208H17.719V17.277H17.7018V17.346H17.6845V17.3978H17.6673V17.4323H17.65V17.4668H17.6328V17.5013H17.6155V17.5358H17.5983V17.5703H17.581V17.6048H17.5638V17.6221H17.5465V17.6566H17.5292V17.6738H17.512V17.6911H17.4947V17.7083H17.4775V17.7428H17.4602V17.7601H17.443V17.7773H17.4257V17.7946H17.4085V17.8118H17.3912V17.8291H17.374V17.8463H17.3395V17.8636H17.3222V17.8809H17.305V17.8981H17.2705V17.9154H17.2532V17.9326H17.2359V17.9499H17.1842V17.9671H17.1497V17.9844H17.1152V18.0016H17.0634V18.0189H17.0289V18.0361H16.9771V18.0534H16.8909V18.0706H16.7874V18.0879" fill="url(#paint0_linear_1116_1991)"/>
<path d="M8.48859 18.0137V17.9964H8.38507V17.9792H8.33332V17.9619H8.2643V17.9447H8.2298V17.9274H8.19529V17.9102H8.16078V17.8929H8.12628V17.8756H8.09177V17.8584H8.07452V17.8411H8.05726V17.8239H8.04001V17.8066H8.0055V17.7894H7.98825V17.7721H7.971V17.7549H7.95374V17.7376H7.93649V17.7204H7.91924V17.7031H7.90198V17.6686H7.88473V17.6514H7.86748V17.6168H7.85023V17.5996H7.83297V17.5823H7.81572V17.5306H7.79847V17.4961H7.78121V17.4616H7.76396V17.4098H7.74671V17.358H7.72945V17.2718H7.7122V17.1683H7.69495V16.8922H7.7122V16.7714H7.72945V16.6679H7.74671V16.6162H7.76396V16.5471H7.78121V16.4954H7.79847V16.4436H7.81572V16.3919H7.83297V16.3401H7.85023V16.3056H7.86748V16.2538H7.88473V16.2193H7.90198V16.1848H7.91924V16.1331H7.93649V16.0986H7.95374V16.0641H7.971V16.0468H7.98825V16.0123H8.0055V15.9778H8.02276V15.9605H8.04001V15.926H8.05726V15.9088H8.07452V15.8743H8.09177V15.857H8.10902V15.8398H8.12628V15.8053H8.14353V15.788H8.16078V15.7708H8.17804V15.7535H8.19529V15.7362H8.21254V15.719H8.2298V15.7017H8.24705V15.6845H8.2643V15.6672H8.28156V15.65H8.31606V15.6327H8.33332V15.6155H8.36782V15.5982H8.38507V15.581H8.41958V15.5637H8.45409V15.5465H8.50585V15.5292H8.54035V15.512H8.60937V15.4947H8.83366V15.512H8.91992V15.5292H8.95443V15.5465H8.98894V15.5637H9.0407V15.581H9.0752V15.5982H9.09246V15.6155H9.10971V15.6327H9.12696V15.65H9.16147V15.6672H9.17872V15.6845H9.19598V15.7017H9.21323V15.719H9.23048V15.7362H9.24774V15.7535H9.26499V15.7708H9.28224V15.788H9.2995V15.8225H9.31675V15.8398H9.334V15.857H9.35125V15.8915H9.36851V15.926H9.38576V15.9605H9.40301V15.9778H9.42027V16.0123H9.43752V16.0468H9.45477V16.0986H9.47203V16.1331H9.48928V16.1848H9.50653V16.2366H9.52379V16.2884H9.54104V16.3746H9.55829V16.4609H9.57555V16.5471H9.5928V16.7197H9.61005V17.013H9.5928V17.1338H9.57555V17.2028H9.55829V17.289H9.54104V17.3408H9.52379V17.3753H9.50653V17.4098H9.48928V17.4443H9.47203V17.4961H9.45477V17.5306H9.43752V17.5478H9.42027V17.5651H9.40301V17.5996H9.38576V17.6168H9.36851V17.6514H9.35125V17.6686H9.334V17.7031H9.2995V17.7204H9.28224V17.7376H9.26499V17.7549H9.24774V17.7721H9.23048V17.7894H9.21323V17.8066H9.19598V17.8239H9.17872V17.8411H9.14422V17.8584H9.10971V17.8756H9.09246V17.8929H9.05795V17.9102H9.02344V17.9274H8.98894V17.9447H8.93718V17.9619H8.86816V17.9792H8.79915V17.9964H8.66113V18.0137" fill="url(#paint1_linear_1116_1991)"/>
<path d="M14.717 28.0176V28.0003H14.3719V27.9831H14.0959V27.9658H13.9061V27.9486H13.7163V27.9313H13.561V27.9141H13.4402V27.8968H13.3022V27.8796H13.1814V27.8623H13.0779V27.845H12.9744V27.8278H12.8709V27.8105H12.7501V27.7933H12.6466V27.776H12.5431V27.7588H12.4395V27.7415H12.336V27.7243H12.2325V27.707H12.129V27.6898H12.0427V27.6725H11.9392V27.6553H11.8529V27.638H11.7494V27.6208H11.6632V27.6035H11.5596V27.5862H11.4734V27.569H11.3871V27.5517H11.3008V27.5345H11.2146V27.5172H11.1283V27.5H11.042V27.4827H10.973V27.4655H10.8868V27.4482H10.8177V27.431H10.7315V27.4137H10.6625V27.3965H10.5762V27.3792H10.5072V27.362H10.4382V27.3447H10.3692V27.3274H10.3001V27.3102H10.2311V27.2929H10.1621V27.2757H10.0931V27.2584H10.0241V27.2412H9.97234V27.2239H9.90332V27.2067H9.83431V27.1894H9.78255V27.1722H9.71354V27.1549H9.64452V27.1377H9.59276V27.1204H9.54101V27.1032H9.47199V27.0859H9.42023V27.0687H9.36847V27.0514H9.29946V27.0341H9.2477V27.0169H9.19594V26.9996H9.14418V26.9824H9.09242V26.9651H9.04066V26.9479H8.9889V26.9306H8.93714V26.9134H8.88538V26.8961H8.83362V26.8789H8.78186V26.8616H8.74736V26.8444H8.6956V26.8271H8.64384V26.8099H8.60933V26.7926H8.55757V26.7753H8.50581V26.7581H8.45405V26.7408H8.41955V26.7236H8.36779V26.7063H8.33328V26.6891H8.28152V26.6718H8.24701V26.6546H8.19525V26.6373H8.16075V26.6201H8.10899V26.6028H8.07448V26.5856H8.03998V26.5683H7.98822V26.5511H7.95371V26.5338H7.9192V26.5165H7.8847V26.4993H7.83294V26.482H7.79843V26.4648H7.76392V26.4475H7.72942V26.4303H7.67766V26.413H7.64315V26.3958H7.60865V26.3785H7.57414V26.3613H7.53963V26.344H7.50513V26.3268H7.47062V26.3095H7.43611V26.2923H7.40161V26.275H7.3671V26.2578H7.33259V26.2405H7.29809V26.2232H7.26358V26.206H7.22907V26.1887H7.19457V26.1715H7.16006V26.1542H7.12556V26.137H7.09105V26.1197H7.0738V26.1025H7.03929V26.0852H7.00478V26.068H6.97028V26.0507H6.95302V26.0335H6.91852V26.0162H6.88401V25.999H6.8495V25.9817H6.83225V25.9644H6.79774V25.9472H6.76324V25.9299H6.72873V25.9127H6.71148V25.8954H6.67697V25.8782H6.65972V25.8609H6.62521V25.8437H6.59071V25.8264H6.57345V25.8092H6.53895V25.7919H6.52169V25.7747H6.48719V25.7574H6.45268V25.7402H6.43543V25.7229H6.40092V25.7056H6.38367V25.6884H6.34916V25.6711H6.33191V25.6539H6.2974V25.6366H6.28015V25.6194H6.24564V25.6021H6.22839V25.5849H6.21114V25.5676H6.17663V25.5504H6.15938V25.5331H6.12487V25.5159H6.10762V25.4986H6.09036V25.4814H6.05586V25.4641H6.0386V25.4468H6.0041V25.4296H5.98684V25.4123H5.95234V25.3951H5.93508V25.3778H5.91783V25.3606H5.90058V25.3433H5.86607V25.3261H5.84882V25.3088H5.83156V25.2916H5.81431V25.2743H5.7798V25.2571H5.76255V25.2398H5.7453V25.2226H5.72805V25.2053H5.69354V25.1881H5.67629V25.1708H5.65903V25.1535H5.64178V25.1363H5.60727V25.119H5.59002V25.1018H5.57277V25.0845H5.55551V25.0673H5.53826V25.05H5.52101V25.0328H5.50375V25.0155H5.46925V24.9983H5.45199V24.981H5.43474V24.9638H5.41749V24.9465H5.40023V24.9293H5.38298V24.912H5.36573V24.8947H5.34847V24.8775H5.33122V24.8602H5.31397V24.843H5.27946V24.8257H5.26221V24.8085H5.24496V24.7912H5.2277V24.774H5.21045V24.7567H5.1932V24.7395H5.17594V24.7222H5.15869V24.705H5.14144V24.6877H5.12418V24.6705H5.10693V24.6532H5.08968V24.6359H5.07242V24.6187H5.05517V24.6014H5.03792V24.5842H5.02066V24.5669H5.00341V24.5497H4.98616V24.5324H4.9689V24.4979H4.95165V24.4807H4.9344V24.4634H4.91714V24.4462H4.89989V24.4289H4.88264V24.4117H4.86538V24.3944H4.84813V24.3772H4.83088V24.3599H4.81362V24.3254H4.79637V24.3081H4.77912V24.2909H4.76187V24.2736H4.74461V24.2564H4.72736V24.2391H4.71011V24.2046H4.69285V24.1874H4.6756V24.1701H4.65835V24.1529H4.64109V24.1356H4.62384V24.1184H4.60659V24.0838H4.58933V24.0666H4.57208V24.0493H4.55483V24.0321H4.53757V23.9976H4.52032V23.9803H4.50307V23.9458H4.48581V23.9286H4.46856V23.9113H4.45131V23.8768H4.43405V23.8596H4.4168V23.8423H4.39955V23.8078H4.38229V23.7905H4.36504V23.7733H4.34779V23.7388H4.33053V23.7215H4.31328V23.7043H4.29603V23.6698H4.27878V23.6525H4.26152V23.618H4.24427V23.6008H4.22702V23.5662H4.20976V23.5317H4.19251V23.5145H4.17526V23.48H4.158V23.4627H4.14075V23.4282H4.1235V23.411H4.10624V23.3765H4.08899V23.342H4.07174V23.3247H4.05448V23.2902H4.03723V23.2729H4.01998V23.2384H4.00272V23.2039H3.98547V23.1694H3.96822V23.1349H3.95096V23.1177H3.93371V23.0832H3.91646V23.0487H3.8992V23.0141H3.88195V22.9796H3.8647V22.9451H3.84744V22.9106H3.83019V22.8934H3.81294V22.8589H3.79569V22.8244H3.77843V22.7899H3.76118V22.7553H3.74393V22.7208H3.72667V22.6691H3.70942V22.6346H3.69217V22.6001H3.67491V22.5656H3.65766V22.5138H3.64041V22.4793H3.62315V22.4448H3.6059V22.4103H3.58865V22.3585H3.57139V22.324H3.55414V22.2895H3.53689V22.2378H3.51963V22.186H3.50238V22.1515H3.48513V22.0997H3.46787V22.048H3.45062V21.9962H3.43337V21.9617H3.41611V21.9099H3.39886V21.8582H3.38161V21.8064H3.36436V21.7719H3.3471V21.7029H3.32985V21.6339H3.3126V21.5821H3.29534V21.5131H3.27809V21.4614H3.26084V21.3923H3.24358V21.3406H3.22633V21.2716H3.20908V21.2198H3.19182V21.1335H3.17457V21.0473H3.15732V20.9783H3.14006V20.892H3.12281V20.8057H3.10556V20.7195H3.0883V20.6505H3.07105V20.5297H3.0538V20.4089H3.03654V20.2881H3.01929V20.1674H3.00204V20.0466H2.98478V19.8741H2.96753V19.667H2.95028V19.4427H2.93302V19.0114H2.91577V18.4593H2.93302V18.166H2.95028V17.9762H2.96753V17.8382H2.98478V17.7002H3.00204V17.5966H3.01929V17.4931H3.03654V17.3896H3.0538V17.3033H3.07105V17.2171H3.0883V17.1308H3.10556V17.0445H3.12281V16.9755H3.14006V16.9238H3.15732V16.8547H3.17457V16.7857H3.19182V16.7167H3.20908V16.665H3.22633V16.596H3.24358V16.5442H3.26084V16.4924H3.27809V16.4407H3.29534V16.3717H3.3126V16.3372H3.32985V16.2854H3.3471V16.2336H3.36436V16.1991H3.38161V16.1474H3.39886V16.0956H3.41611V16.0611H3.43337V16.0093H3.45062V15.9748H3.46787V15.9403H3.48513V15.9058H3.50238V15.8541H3.51963V15.8196H3.53689V15.7851H3.55414V15.7505H3.57139V15.6988H3.58865V15.6815H3.6059V15.647H3.62315V15.6125H3.64041V15.578H3.65766V15.5435H3.67491V15.509H3.69217V15.4745H3.70942V15.44H3.72667V15.4227H3.74393V15.3882H3.76118V15.3537H3.77843V15.3365H3.79569V15.302H3.81294V15.2847H3.83019V15.2502H3.84744V15.2329H3.8647V15.1984H3.88195V15.1812H3.8992V15.1467H3.91646V15.1122H3.93371V15.0949H3.95096V15.0777H3.96822V15.0432H3.98547V15.0259H4.00272V15.0087H4.01998V14.9914H4.03723V14.9569H4.05448V14.9396H4.07174V14.9224H4.08899V14.9051H4.10624V14.8706H4.1235V14.8534H4.14075V14.8361H4.158V14.8189H4.17526V14.8016H4.19251V14.7844H4.20976V14.7671H4.22702V14.7499H4.24427V14.7326H4.26152V14.7154H4.27878V14.6981H4.29603V14.6808H4.31328V14.6636H4.33053V14.6463H4.34779V14.6291H4.36504V14.6118H4.38229V14.5946H4.39955V14.5773H4.4168V14.5601H4.43405V14.5428H4.45131V14.5256H4.48581V14.5083H4.50307V14.4911H4.52032V14.4738H4.53757V14.4566H4.57208V14.4393H4.58933V14.422H4.60659V14.4048H4.62384V14.3875H4.65835V14.3703H4.6756V14.353H4.71011V14.3358H4.74461V14.3185H4.76187V14.3013H4.79637V14.284H4.83088V14.2668H4.84813V14.2495H4.88264V14.2323H4.91714V14.215H4.95165V14.1978H4.98616V14.1805H5.02066V14.1632H5.05517V14.146H5.10693V14.1287H5.14144V14.1115H5.17594V14.0942H5.2277V14.077H5.26221V14.0597H5.24496V14.0425H5.21045V14.0252H5.1932V14.008H5.17594V13.9907H5.14144V13.9735H5.12418V13.9562H5.10693V13.939H5.07242V13.9217H5.05517V13.9045H5.03792V13.8872H5.00341V13.8699H4.98616V13.8527H4.9689V13.8354H4.95165V13.8182H4.9344V13.8009H4.91714V13.7837H4.88264V13.7664H4.86538V13.7492H4.84813V13.7319H4.83088V13.7147H4.81362V13.6974H4.79637V13.6802H4.77912V13.6629H4.76187V13.6457H4.74461V13.6284H4.72736V13.6111H4.71011V13.5939H4.69285V13.5766H4.6756V13.5594H4.65835V13.5421H4.64109V13.5076H4.62384V13.4904H4.60659V13.4559H4.58933V13.4386H4.57208V13.4214H4.55483V13.3869H4.53757V13.3696H4.52032V13.3523H4.50307V13.3178H4.48581V13.2833H4.46856V13.2488H4.45131V13.2143H4.43405V13.1971H4.4168V13.1626H4.39955V13.1281H4.38229V13.0763H4.36504V13.0245H4.34779V12.9728H4.33053V12.921H4.31328V12.8175H4.29603V12.6967H4.27878V12.4897H4.29603V12.3517H4.31328V12.2481H4.33053V12.1446H4.34779V12.0411H4.36504V11.9721H4.38229V11.8858H4.39955V11.7996H4.4168V11.7133H4.43405V11.6615H4.45131V11.5925H4.46856V11.5235H4.48581V11.4545H4.50307V11.3855H4.52032V11.3337H4.53757V11.2647H4.55483V11.2129H4.57208V11.1612H4.58933V11.1094H4.60659V11.0404H4.62384V10.9887H4.64109V10.9542H4.65835V10.9024H4.6756V10.8506H4.69285V10.7989H4.71011V10.7471H4.72736V10.6954H4.74461V10.6608H4.76187V10.6091H4.77912V10.5746H4.79637V10.5228H4.81362V10.4883H4.83088V10.4366H4.84813V10.402H4.86538V10.3503H4.88264V10.3158H4.89989V10.2813H4.91714V10.2295H4.9344V10.195H4.95165V10.1605H4.9689V10.126H4.98616V10.0742H5.00341V10.0397H5.02066V10.0052H5.03792V9.97072H5.05517V9.93621H5.07242V9.9017H5.08968V9.8672H5.10693V9.83269H5.12418V9.79819H5.14144V9.76368H5.15869V9.72917H5.17594V9.69467H5.1932V9.66016H5.21045V9.62565H5.2277V9.59115H5.24496V9.55664H5.26221V9.52213H5.27946V9.48763H5.29671V9.45312H5.31397V9.43587H5.33122V9.40136H5.34847V9.36686H5.36573V9.33235H5.38298V9.29784H5.40023V9.26334H5.41749V9.24608H5.43474V9.21158H5.45199V9.17707H5.46925V9.15982H5.4865V9.12531H5.50375V9.0908H5.52101V9.07355H5.53826V9.03904H5.55551V9.00454H5.57277V8.98728H5.59002V8.95278H5.60727V8.91827H5.62453V8.90102H5.64178V8.86651H5.65903V8.84926H5.67629V8.81475H5.69354V8.7975H5.71079V8.76299H5.72805V8.74574H5.7453V8.71123H5.76255V8.69398H5.7798V8.65947H5.79706V8.62497H5.81431V8.60771H5.83156V8.57321H5.84882V8.55595H5.86607V8.5387H5.88332V8.50419H5.90058V8.48694H5.91783V8.45244H5.93508V8.43518H5.95234V8.41793H5.96959V8.38342H5.98684V8.36617H6.0041V8.33166H6.02135V8.31441H6.0386V8.2799H6.05586V8.26265H6.07311V8.2454H6.09036V8.21089H6.10762V8.19364H6.12487V8.17638H6.14212V8.14188H6.15938V8.12462H6.17663V8.10737H6.19388V8.09012H6.21114V8.05561H6.22839V8.03836H6.24564V8.0211H6.26289V7.9866H6.28015V7.96935H6.2974V7.95209H6.31465V7.91759H6.33191V7.90033H6.34916V7.88308H6.36641V7.86583H6.38367V7.84857H6.40092V7.81407H6.41817V7.79681H6.43543V7.77956H6.45268V7.76231H6.46993V7.74505H6.48719V7.71055H6.50444V7.69329H6.52169V7.67604H6.53895V7.65879H6.5562V7.64153H6.57345V7.60703H6.59071V7.58977H6.60796V7.57252H6.62521V7.55527H6.64247V7.53801H6.65972V7.52076H6.67697V7.50351H6.69423V7.48626H6.71148V7.45175H6.72873V7.4345H6.74598V7.41724H6.76324V7.39999H6.78049V7.38274H6.79774V7.36548H6.815V7.34823H6.83225V7.33098H6.8495V7.29647H6.86676V7.27922H6.88401V7.26196H6.90126V7.24471H6.91852V7.22746H6.93577V7.2102H6.95302V7.19295H6.97028V7.1757H6.98753V7.15844H7.00478V7.14119H7.02204V7.12394H7.03929V7.10668H7.05654V7.08943H7.0738V7.07218H7.09105V7.05492H7.1083V7.03767H7.12556V7.02042H7.14281V7.00317H7.16006V6.98591H7.17732V6.96866H7.19457V6.95141H7.21182V6.93415H7.22907V6.9169H7.24633V6.89965H7.26358V6.88239H7.28083V6.86514H7.29809V6.84789H7.31534V6.83063H7.34985V6.81338H7.3671V6.79613H7.38435V6.77887H7.40161V6.76162H7.41886V6.74437H7.43611V6.72711H7.45337V6.70986H7.47062V6.69261H7.48787V6.67535H7.50513V6.6581H7.52238V6.64085H7.53963V6.62359H7.57414V6.60634H7.59139V6.58909H7.60865V6.57183H7.6259V6.55458H7.64315V6.53733H7.6604V6.52008H7.69491V6.50282H7.71216V6.48557H7.72942V6.46832H7.74667V6.45106H7.76392V6.43381H7.78118V6.41656H7.79843V6.3993H7.83294V6.38205H7.85019V6.3648H7.86744V6.34754H7.90195V6.33029H7.9192V6.31304H7.93646V6.29578H7.95371V6.27853H7.98822V6.26128H8.00547V6.24402H8.02272V6.22677H8.03998V6.20952H8.07448V6.19226H8.09174V6.17501H8.10899V6.15776H8.12624V6.1405H8.16075V6.12325H8.178V6.106H8.19525V6.08874H8.22976V6.07149H8.24701V6.05424H8.28152V6.03699H8.29877V6.01973H8.31603V6.00248H8.35053V5.98523H8.36779V5.96797H8.38504V5.95072H8.41955V5.93347H8.4368V5.91621H8.45405V5.89896H8.48856V5.88171H8.50581V5.86445H8.54032V5.8472H8.55757V5.82995H8.59208V5.81269H8.60933V5.79544H8.64384V5.77819H8.66109V5.76093H8.6956V5.74368H8.71285V5.72643H8.74736V5.70917H8.76461V5.69192H8.79912V5.67467H8.81637V5.65741H8.85088V5.64016H8.88538V5.62291H8.90264V5.60565H8.93714V5.5884H8.97165V5.57115H8.9889V5.5539H9.02341V5.53664H9.05792V5.51939H9.07517V5.50214H9.10967V5.48488H9.14418V5.46763H9.16143V5.45038H9.19594V5.43312H9.23045V5.41587H9.26495V5.39862H9.29946V5.38136H9.31671V5.36411H9.35122V5.34686H9.38573V5.3296H9.42023V5.31235H9.45474V5.2951H9.48925V5.27784H9.52375V5.26059H9.54101V5.24334H9.57551V5.22608H9.61002V5.20883H9.64452V5.19158H9.69628V5.17432H9.73079V5.15707H9.7653V5.13982H9.7998V5.12256H9.83431V5.10531H9.86882V5.08806H9.90332V5.07081H9.93783V5.05355H9.97234V5.0363H10.0241V5.01905H10.0586V5.00179H10.0931V4.98454H10.1449V4.96729H10.1794V4.95003H10.2311V4.93278H10.2656V4.91553H10.3001V4.89827H10.3519V4.88102H10.3864V4.86377H10.4382V4.84651H10.4899V4.82926H10.5244V4.81201H10.5762V4.79475H10.628V4.7775H10.6797V4.76025H10.7142V4.74299H10.766V4.72574H10.8177V4.70849H10.8695V4.69123H10.9385V4.67398H10.9903V4.65673H11.042V4.63948H11.0938V4.62222H11.1628V4.60497H11.2146V4.58772H11.2836V4.57046H11.3526V4.55321H11.4216V4.53596H11.4906V4.5187H11.5596V4.50145H11.6286V4.4842H11.6977V4.46694H11.8012V4.44969H11.8874V4.43244H11.9737V4.41518H12.06V4.39793H12.1635V4.38068H12.2843V4.36342H12.4223V4.34617H12.5431V4.32892H12.7328V4.31166H12.9399V4.29441H13.2677V4.27716H13.9233V4.29441H14.3719V4.31166H14.6652V4.32892H14.8895V4.34617H15.0793V4.36342H15.2518V4.38068H15.4071V4.39793H15.5451V4.41518H15.6659V4.43244H15.7867V4.44969H15.9247V4.46694H16.0282V4.4842H16.1145V4.50145H16.218V4.5187H16.3215V4.53596H16.425V4.55321H16.5113V4.57046H16.5803V4.58772H16.6666V4.60497H16.7528V4.62222H16.8219V4.63948H16.9081V4.65673H16.9771V4.67398H17.0462V4.69123H17.1152V4.70849H17.1842V4.72574H17.2532V4.74299H17.3222V4.76025H17.3912V4.7775H17.4602V4.79475H17.512V4.81201H17.5637V4.82926H17.6328V4.84651H17.6845V4.86377H17.7535V4.88102H17.8053V4.89827H17.8571V4.91553H17.9261V4.93278H17.9778V4.95003H18.0123V4.96729H18.0641V4.98454H18.1159V5.00179H18.1676V5.01905H18.2194V5.0363H18.2711V5.05355H18.3229V5.07081H18.3747V5.08806H18.4264V5.10531H18.4609V5.12256H18.5127V5.13982H18.5472V5.15707H18.5989V5.17432H18.6334V5.19158H18.6852V5.20883H18.737V5.22608H18.7715V5.24334H18.8232V5.26059H18.8577V5.27784H18.9095V5.2951H18.944V5.31235H18.9785V5.3296H19.013V5.34686H19.0648V5.36411H19.0993V5.38136H19.1338V5.39862H19.1683V5.41587H19.2201V5.43312H19.2546V5.45038H19.2891V5.46763H19.3236V5.48488H19.3753V5.50214H19.4098V5.51939H19.4443V5.53664H19.4789V5.5539H19.5134V5.57115H19.5479V5.5884H19.5824V5.60565H19.6169V5.62291H19.6514V5.64016H19.6859V5.65741H19.7204V5.67467H19.7377V5.69192H19.7722V5.70917H19.8067V5.72643H19.8412V5.74368H19.8757V5.76093H19.9102V5.77819H19.9447V5.79544H19.9619V5.81269H19.9965V5.82995H20.031V5.8472H20.0655V5.86445H20.0827V5.88171H20.1172V5.89896H20.1517V5.91621H20.1862V5.93347H20.2207V5.95072H20.238V5.96797H20.2725V5.98523H20.307V6.00248H20.3243V6.01973H20.3588V6.03699H20.376V6.05424H20.4105V6.07149H20.445V6.08874H20.4623V6.106H20.4968V6.12325H20.514V6.1405H20.5486V6.15776H20.5831V6.17501H20.6003V6.19226H20.6348V6.20952H20.6521V6.22677H20.6866V6.24402H20.7211V6.26128H20.7383V6.27853H20.7556V6.29578H20.7901V6.31304H20.8074V6.33029H20.8419V6.34754H20.8591V6.3648H20.8936V6.38205H20.9109V6.3993H20.9281V6.41656H20.9626V6.43381H20.9799V6.45106H21.0144V6.46832H21.0316V6.48557H21.0662V6.50282H21.0834V6.52008H21.1007V6.53733H21.1352V6.55458H21.1524V6.57183H21.1869V6.58909H21.2042V6.60634H21.2214V6.62359H21.2387V6.64085H21.2732V6.6581H21.2904V6.67535H21.3077V6.69261H21.3249V6.70986H21.3595V6.72711H21.3767V6.74437H21.394V6.76162H21.4285V6.77887H21.4457V6.79613H21.463V6.81338H21.4802V6.83063H21.5147V6.84789H21.532V6.86514H21.5492V6.88239H21.5837V6.89965H21.601V6.9169H21.6183V6.93415H21.6355V6.95141H21.6528V6.96866H21.67V6.98591H21.6873V7.00317H21.7218V7.02042H21.739V7.03767H21.7563V7.05492H21.7735V7.07218H21.7908V7.08943H21.808V7.10668H21.8425V7.12394H21.8598V7.14119H21.8771V7.15844H21.8943V7.1757H21.9116V7.19295H21.9288V7.2102H21.9461V7.22746H21.9806V7.24471H21.9978V7.26196H22.0151V7.27922H22.0323V7.29647H22.0496V7.31372H22.0668V7.33098H22.0841V7.34823H22.1013V7.36548H22.1186V7.38274H22.1359V7.39999H22.1531V7.41724H22.1704V7.4345H22.1876V7.45175H22.2049V7.469H22.2221V7.48626H22.2394V7.50351H22.2566V7.52076H22.2739V7.53801H22.2911V7.55527H22.3084V7.57252H22.3256V7.58977H22.3429V7.60703H22.3601V7.62428H22.3774V7.64153H22.4119V7.67604H22.4292V7.69329H22.4464V7.71055H22.4637V7.7278H22.4809V7.74505H22.4982V7.76231H22.5154V7.77956H22.5327V7.79681H22.5499V7.81407H22.5672V7.83132H22.5844V7.84857H22.6017V7.86583H22.6189V7.88308H22.6362V7.91759H22.6534V7.93484H22.6707V7.95209H22.688V7.96935H22.7052V7.9866H22.7225V8.00385H22.7397V8.0211H22.757V8.03836H22.7742V8.05561H22.7915V8.07286H22.8087V8.10737H22.826V8.12462H22.8432V8.14188H22.8605V8.15913H22.8777V8.17638H22.895V8.21089H22.9122V8.22814H22.9295V8.2454H22.9468V8.26265H22.964V8.2799H22.9813V8.31441H22.9985V8.33166H23.0158V8.34892H23.033V8.36617H23.0503V8.38342H23.0675V8.41793H23.0848V8.43518H23.102V8.45244H23.1193V8.46969H23.1365V8.48694H23.1538V8.52145H23.171V8.5387H23.1883V8.55595H23.2055V8.57321H23.2228V8.60771H23.2401V8.62497H23.2573V8.64222H23.2746V8.67673H23.2918V8.69398H23.3091V8.72849H23.3263V8.74574H23.3436V8.76299H23.3608V8.7975H23.3781V8.81475H23.3953V8.83201H23.4126V8.86651H23.4298V8.88377H23.4471V8.90102H23.4643V8.93552H23.4816V8.95278H23.4989V8.97003H23.5161V9.00454H23.5334V9.02179H23.5506V9.0563H23.5679V9.07355H23.5851V9.10806H23.6024V9.12531H23.6196V9.15982H23.6369V9.17707H23.6541V9.21158H23.6714V9.22883H23.6886V9.26334H23.7059V9.28059H23.7231V9.3151H23.7404V9.33235H23.7577V9.36686H23.7749V9.38411H23.7922V9.41861H23.8094V9.43587H23.8267V9.47037H23.8439V9.48763H23.8612V9.52213H23.8784V9.53939H23.8957V9.57389H23.9129V9.6084H23.9302V9.62565H23.9474V9.66016H23.9647V9.69467H23.9819V9.71192H23.9992V9.74643H24.0165V9.78093H24.0337V9.79819H24.051V9.83269H24.0682V9.8672H24.0855V9.88445H24.1027V9.91896H24.12V9.95346H24.1372V9.97072H24.1545V10.0052H24.1717V10.0397H24.189V10.057H24.2062V10.0915H24.2235V10.126H24.2407V10.1605H24.258V10.195H24.2752V10.2295H24.2925V10.264H24.3098V10.2985H24.327V10.333H24.3443V10.3675H24.3615V10.3848H24.3788V10.4193H24.396V10.4538H24.4133V10.4883H24.4305V10.5228H24.4478V10.5573H24.465V10.5918H24.4823V10.6263H24.4995V10.6608H24.5168V10.6954H24.534V10.7299H24.5513V10.7644H24.5686V10.7989H24.5858V10.8334H24.6031V10.8851H24.6203V10.9196H24.6376V10.9542H24.6548V10.9887H24.6721V11.0232H24.6893V11.0577H24.7066V11.0922H24.7238V11.1439H24.7411V11.1784H24.7583V11.2129H24.7756V11.2475H24.7928V11.282H24.8101V11.3337H24.8274V11.3682H24.8446V11.42H24.8619V11.4545H24.8791V11.5063H24.8964V11.5408H24.9136V11.5925H24.9309V11.627H24.9481V11.6615H24.9654V11.7133H24.9826V11.7478H24.9999V11.7996H25.0171V11.8341H25.0344V11.8858H25.0516V11.9203H25.0689V11.9721H25.0861V12.0239H25.1034V12.0756H25.1207V12.1101H25.1379V12.1619H25.1552V12.2136H25.1724V12.2654H25.1897V12.3172H25.2069V12.3689H25.2242V12.4034H25.2414V12.4552H25.2587V12.5069H25.2759V12.5587H25.2932V12.6105H25.3104V12.6622H25.3277V12.714H25.3449V12.783H25.3622V12.8348H25.3795V12.8865H25.3967V12.9383H25.414V13.0073H25.4312V13.059H25.4485V13.1108H25.4657V13.1798H25.483V13.2316H25.5002V13.2833H25.5175V13.3523H25.5347V13.4041H25.552V13.4731H25.5692V13.5421H25.5865V13.6111H25.6037V13.6802H25.621V13.7492H25.6383V13.8182H25.6555V13.8872H25.6728V13.9562H25.69V14.008H25.7073V14.077H25.7245V14.1632H25.7418V14.2495H25.759V14.3185H25.7763V14.4048H25.7935V14.4911H25.8108V14.5601H25.828V14.6463H25.8453V14.7326H25.8625V14.8016H25.8798V14.8879H25.8971V14.9741H25.9143V15.0777H25.9316V15.1812H25.9488V15.2675H25.9661V15.371H25.9833V15.4572H26.0006V15.5608H26.0178V15.6815H26.0351V15.7851H26.0523V15.9058H26.0696V16.0266H26.0868V16.1819H26.1041V16.3372H26.1213V16.4752H26.1386V16.6305H26.1558V16.8547H26.1731V17.1135H26.1904V17.3896H26.2076V18.6663H26.1904V18.9424H26.1731V19.2012H26.1558V19.3737H26.1386V19.4945H26.1213V19.6153H26.1041V19.7533H26.0868V19.8741H26.0696V19.9948H26.0523V20.0984H26.0351V20.1846H26.0178V20.2709H26.0006V20.3399H25.9833V20.4262H25.9661V20.5124H25.9488V20.5987H25.9316V20.6677H25.9143V20.754H25.8971V20.823H25.8798V20.8747H25.8625V20.9438H25.8453V20.9955H25.828V21.0645H25.8108V21.1163H25.7935V21.1853H25.7763V21.2371H25.759V21.2888H25.7418V21.3578H25.7245V21.4096H25.7073V21.4786H25.69V21.5131H25.6728V21.5649H25.6555V21.6166H25.6383V21.6511H25.621V21.7029H25.6037V21.7547H25.5865V21.7892H25.5692V21.8409H25.552V21.8927H25.5347V21.9272H25.5175V21.979H25.5002V22.0307H25.483V22.0652H25.4657V22.117H25.4485V22.1515H25.4312V22.186H25.414V22.2378H25.3967V22.2723H25.3795V22.3068H25.3622V22.3413H25.3449V22.3758H25.3277V22.4103H25.3104V22.4448H25.2932V22.4966H25.2759V22.5311H25.2587V22.5656H25.2414V22.6001H25.2242V22.6346H25.2069V22.6691H25.1897V22.7036H25.1724V22.7381H25.1552V22.7726H25.1379V22.8071H25.1207V22.8416H25.1034V22.8761H25.0861V22.8934H25.0689V22.9279H25.0516V22.9624H25.0344V22.9969H25.0171V23.0141H24.9999V23.0487H24.9826V23.0832H24.9654V23.1177H24.9481V23.1349H24.9309V23.1694H24.9136V23.2039H24.8964V23.2384H24.8791V23.2729H24.8619V23.2902H24.8446V23.3247H24.8274V23.342H24.8101V23.3765H24.7928V23.3937H24.7756V23.4282H24.7583V23.4455H24.7411V23.48H24.7238V23.4972H24.7066V23.5317H24.6893V23.549H24.6721V23.5835H24.6548V23.6008H24.6376V23.6353H24.6203V23.6525H24.6031V23.687H24.5858V23.7043H24.5686V23.7388H24.5513V23.756H24.534V23.7905H24.5168V23.8078H24.4995V23.8423H24.4823V23.8596H24.465V23.8768H24.4478V23.9113H24.4305V23.9286H24.4133V23.9458H24.396V23.9631H24.3788V23.9976H24.3615V24.0148H24.3443V24.0321H24.327V24.0493H24.3098V24.0838H24.2925V24.1011H24.2752V24.1184H24.258V24.1529H24.2407V24.1701H24.2235V24.1874H24.2062V24.2046H24.189V24.2391H24.1717V24.2564H24.1545V24.2736H24.1372V24.2909H24.12V24.3254H24.1027V24.3426H24.0855V24.3599H24.0682V24.3772H24.051V24.3944H24.0337V24.4117H24.0165V24.4462H23.9992V24.4634H23.9819V24.4807H23.9647V24.4979H23.9474V24.5152H23.9302V24.5324H23.9129V24.5497H23.8957V24.5669H23.8784V24.5842H23.8612V24.6014H23.8439V24.6187H23.8267V24.6532H23.8094V24.6705H23.7922V24.6877H23.7749V24.705H23.7577V24.7222H23.7404V24.7395H23.7231V24.7567H23.7059V24.774H23.6886V24.7912H23.6714V24.8085H23.6541V24.8257H23.6369V24.843H23.6196V24.8602H23.6024V24.8775H23.5851V24.8947H23.5679V24.912H23.5506V24.9293H23.5334V24.9465H23.5161V24.9638H23.4989V24.981H23.4816V24.9983H23.4643V25.0155H23.4471V25.0328H23.4298V25.05H23.4126V25.0673H23.3953V25.0845H23.3608V25.1018H23.3436V25.119H23.3263V25.1363H23.3091V25.1535H23.2918V25.1708H23.2746V25.1881H23.2573V25.2053H23.2401V25.2226H23.2228V25.2398H23.2055V25.2571H23.1883V25.2743H23.171V25.2916H23.1365V25.3088H23.1193V25.3261H23.102V25.3433H23.0848V25.3606H23.0503V25.3778H23.033V25.3951H23.0158V25.4123H22.9985V25.4296H22.9813V25.4468H22.9468V25.4641H22.9295V25.4814H22.9122V25.4986H22.895V25.5159H22.8777V25.5331H22.8432V25.5504H22.826V25.5676H22.8087V25.5849H22.7915V25.6021H22.757V25.6194H22.7397V25.6366H22.7225V25.6539H22.7052V25.6711H22.6707V25.6884H22.6534V25.7056H22.6189V25.7229H22.6017V25.7402H22.5844V25.7574H22.5499V25.7747H22.5327V25.7919H22.5154V25.8092H22.4809V25.8264H22.4637V25.8437H22.4292V25.8609H22.4119V25.8782H22.3946V25.8954H22.3601V25.9127H22.3429V25.9299H22.3084V25.9472H22.2911V25.9644H22.2739V25.9817H22.2394V25.999H22.2221V26.0162H22.1876V26.0335H22.1704V26.0507H22.1359V26.068H22.1013V26.0852H22.0841V26.1025H22.0496V26.1197H22.0323V26.137H21.9978V26.1542H21.9806V26.1715H21.9461V26.1887H21.9116V26.206H21.8943V26.2232H21.8598V26.2405H21.8425V26.2578H21.808V26.275H21.7735V26.2923H21.7563V26.3095H21.7218V26.3268H21.7045V26.344H21.67V26.3613H21.6355V26.3785H21.601V26.3958H21.5665V26.413H21.5492V26.4303H21.5147V26.4475H21.4802V26.4648H21.4457V26.482H21.4112V26.4993H21.3767V26.5165H21.3595V26.5338H21.3249V26.5511H21.2904V26.5683H21.2559V26.5856H21.2214V26.6028H21.2042V26.6201H21.1697V26.6373H21.1352V26.6546H21.1007V26.6718H21.0489V26.6891H21.0144V26.7063H20.9799V26.7236H20.9454V26.7408H20.9109V26.7581H20.8764V26.7753H20.8419V26.7926H20.8074V26.8099H20.7728V26.8271H20.7383V26.8444H20.7038V26.8616H20.6521V26.8789H20.6176V26.8961H20.5831V26.9134H20.5486V26.9306H20.4968V26.9479H20.4623V26.9651H20.4105V26.9824H20.376V26.9996H20.3415V27.0169H20.2898V27.0341H20.2553V27.0514H20.2035V27.0687H20.169V27.0859H20.1345V27.1032H20.0827V27.1204H20.0482V27.1377H19.9965V27.1549H19.9447V27.1722H19.8929V27.1894H19.8584V27.2067H19.8067V27.2239H19.7549V27.2412H19.7031V27.2584H19.6514V27.2757H19.6169V27.2929H19.5651V27.3102H19.5134V27.3274H19.4616V27.3447H19.4098V27.362H19.3581V27.3792H19.2891V27.3965H19.2373V27.4137H19.1856V27.431H19.1165V27.4482H19.0648V27.4655H19.013V27.4827H18.944V27.5H18.8922V27.5172H18.8232V27.5345H18.7542V27.5517H18.6852V27.569H18.6162V27.5862H18.5644V27.6035H18.4954V27.6208H18.4264V27.638H18.3574V27.6553H18.2884V27.6725H18.2021V27.6898H18.1159V27.707H18.0296V27.7243H17.9433V27.7415H17.8571V27.7588H17.7708V27.776H17.6845V27.7933H17.581V27.8105H17.4775V27.8278H17.374V27.845H17.2704V27.8623H17.1497V27.8796H17.0289V27.8968H16.8909V27.9141H16.7356V27.9313H16.5976V27.9486H16.4078V27.9658H16.1835V27.9831H15.9592V28.0003H15.4934V28.0176H14.717ZM12.8709 17.7347V17.7519H13.8025V17.7347H14.1994V17.7174H14.4754V17.7002H14.6997V17.6829H14.8722V17.6657H15.0275V17.6484H15.1828V17.6311H15.3036V17.6139H15.4244V17.5966H15.5451V17.5794H15.6486V17.5621H15.7522V17.5449H15.8384V17.5276H15.9247V17.5104H16.011V17.4931H16.1145V17.4759H16.1835V17.4586H16.2525V17.4414H16.3215V17.4241H16.4078V17.4069H16.4768V17.3896H16.5458V17.3723H16.6148V17.3551H16.6666V17.3378H16.7356V17.3206H16.7874V17.3033H16.8564V17.2861H16.9081V17.2688H16.9771V17.2516H17.0289V17.2343H17.0807V17.2171H17.1324V17.1998H17.1842V17.1826H17.2359V17.1653H17.2877V17.1481H17.3395V17.1308H17.3912V17.1135H17.4257V17.0963H17.4775V17.079H17.512V17.0618H17.5637V17.0445H17.5983V17.0273H17.65V17.01H17.6845V16.9928H17.7363V16.9755H17.7708V16.9583H17.8225V16.941H17.8571V16.9238H17.8916V16.9065H17.9261V16.8893H17.9606V16.872H18.0123V16.8547H18.0468V16.8375H18.0813V16.8202H18.1159V16.803H18.1504V16.7857H18.1849V16.7685H18.2194V16.7512H18.2539V16.734H18.2884V16.7167H18.3229V16.6995H18.3574V16.6822H18.3919V16.665H18.4264V16.6477H18.4437V16.6305H18.4782V16.6132H18.5127V16.596H18.5299V16.5787H18.5644V16.5614H18.5989V16.5442H18.6334V16.5269H18.6507V16.5097H18.6852V16.4924H18.7197V16.4752H18.737V16.4579H18.7715V16.4407H18.7887V16.4234H18.8232V16.4062H18.8405V16.3889H18.875V16.3717H18.8922V16.3544H18.9268V16.3372H18.944V16.3199H18.9785V16.3026H18.9958V16.2854H19.0303V16.2681H19.0475V16.2509H19.0648V16.2336H19.0993V16.2164H19.1165V16.1991H19.1338V16.1819H19.1683V16.1646H19.1856V16.1474H19.2201V16.1301H19.2373V16.1129H19.2546V16.0956H19.2718V16.0784H19.2891V16.0611H19.3236V16.0438H19.3408V16.0266H19.3581V16.0093H19.3753V15.9921H19.4098V15.9748H19.4271V15.9576H19.4443V15.9403H19.4616V15.9231H19.4789V15.9058H19.4961V15.8886H19.5134V15.8713H19.5306V15.8541H19.5651V15.8368H19.5824V15.8196H19.5996V15.8023H19.6169V15.7851H19.6341V15.7678H19.6514V15.7505H19.6686V15.7333H19.6859V15.716H19.7031V15.6988H19.7204V15.6815H19.7377V15.6643H19.7549V15.647H19.7722V15.6298H19.7894V15.6125H19.8067V15.5953H19.8239V15.578H19.8412V15.5435H19.8584V15.5263H19.8757V15.509H19.8929V15.4917H19.9102V15.4745H19.9274V15.4572H19.9447V15.4227H19.9619V15.4055H19.9792V15.3882H19.9965V15.371H20.0137V15.3537H20.031V15.3192H20.0482V15.302H20.0655V15.2847H20.0827V15.2502H20.1V15.2329H20.1172V15.2157H20.1345V15.1812H20.1517V15.1639H20.169V15.1294H20.1862V15.1122H20.2035V15.0777H20.2207V15.0604H20.238V15.0259H20.2553V15.0087H20.2725V14.9741H20.2898V14.9396H20.307V14.9224H20.3243V14.8879H20.3415V14.8534H20.3588V14.8189H20.376V14.7844H20.3933V14.7499H20.4105V14.7154H20.4278V14.6808H20.445V14.6463H20.4623V14.6118H20.4795V14.5601H20.4968V14.5256H20.514V14.4738H20.5313V14.422H20.5486V14.3703H20.5658V14.3013H20.5831V14.2323H20.6003V14.1115H20.6176V13.9217H20.6003V13.8354H20.5831V13.7837H20.5658V13.7492H20.5486V13.7147H20.5313V13.6974H20.514V13.6802H20.4968V13.6629H20.4795V13.6457H20.445V13.6284H20.4105V13.6111H20.3243V13.5939H20.1V13.6111H20.0137V13.6284H19.9447V13.6457H19.8929V13.6629H19.8584V13.6802H19.8067V13.6974H19.7722V13.7147H19.7204V13.7319H19.6859V13.7492H19.6514V13.7664H19.6169V13.7837H19.5824V13.8009H19.5479V13.8182H19.5134V13.8354H19.4789V13.8527H19.4443V13.8699H19.3926V13.8872H19.3581V13.9045H19.3236V13.9217H19.2891V13.939H19.2546V13.9562H19.2201V13.9735H19.1856V13.9907H19.151V14.008H19.1165V14.0252H19.082V14.0425H19.0475V14.0597H19.013V14.077H18.9785V14.0942H18.944V14.1115H18.9095V14.1287H18.8577V14.146H18.8232V14.1632H18.7887V14.1805H18.7542V14.1978H18.7197V14.215H18.668V14.2323H18.6334V14.2495H18.5989V14.2668H18.5644V14.284H18.5127V14.3013H18.4782V14.3185H18.4264V14.3358H18.3919V14.353H18.3574V14.3703H18.3056V14.3875H18.2711V14.4048H18.2194V14.422H18.1849V14.4393H18.1331V14.4566H18.0986V14.4738H18.0468V14.4911H17.9951V14.5083H17.9606V14.5256H17.9088V14.5428H17.8571V14.5601H17.8225V14.5773H17.7708V14.5946H17.719V14.6118H17.6673V14.6291H17.6155V14.6463H17.5637V14.6636H17.512V14.6808H17.4602V14.6981H17.4085V14.7154H17.3567V14.7326H17.305V14.7499H17.2532V14.7671H17.2014V14.7844H17.1324V14.8016H17.0807V14.8189H17.0289V14.8361H16.9771V14.8534H16.9081V14.8706H16.8564V14.8879H16.7874V14.9051H16.7356V14.9224H16.6666V14.9396H16.6148V14.9569H16.5458V14.9741H16.494V14.9914H16.425V15.0087H16.356V15.0259H16.287V15.0432H16.218V15.0604H16.149V15.0777H16.08V15.0949H15.9937V15.1122H15.9247V15.1294H15.8384V15.1467H15.7522V15.1639H15.6659V15.1812H15.5969V15.1984H15.5106V15.2157H15.4244V15.2329H15.3553V15.2502H15.2691V15.2675H15.1483V15.2847H15.0448V15.302H14.924V15.3192H14.8205V15.3365H14.6997V15.3537H14.5962V15.371H14.4754V15.3882H14.3719V15.4055H14.2511V15.4227H14.1476V15.44H13.9751V15.4572H13.7853V15.4745H13.5955V15.4917H13.4057V15.509H13.2159V15.5263H13.0262V15.5435H12.7501V15.5608H12.3188V15.578H11.111V15.5608H10.7142V15.5435H10.4727V15.5263H10.2139V15.509H10.0068V15.4917H9.85156V15.4745H9.71354V15.4572H9.55826V15.44H9.40298V15.4227H9.26495V15.4055H9.16143V15.3882H9.05792V15.371H8.9544V15.3537H8.85088V15.3365H8.76461V15.3192H8.66109V15.302H8.55757V15.2847H8.47131V15.2675H8.38504V15.2502H8.31603V15.2329H8.24701V15.2157H8.16075V15.1984H8.09174V15.1812H8.02272V15.1639H7.95371V15.1467H7.86744V15.1294H7.79843V15.1122H7.72942V15.0949H7.67766V15.0777H7.6259V15.0604H7.57414V15.0432H7.50513V15.0259H7.45337V15.0087H7.40161V14.9914H7.34985V14.9741H7.28083V14.9569H7.22907V14.9396H7.17732V14.9224H7.1083V14.9051H7.0738V14.8879H7.02204V14.8706H6.98753V14.8534H6.93577V14.8361H6.90126V14.8189H6.8495V14.8016H6.815V14.7844H6.76324V14.7671H6.72873V14.7499H6.67697V14.7326H6.64247V14.7154H6.59071V14.6981H6.53895V14.6808H6.50444V14.6636H6.46993V14.6463H6.43543V14.6291H6.40092V14.6118H6.36641V14.5946H6.33191V14.5773H6.2974V14.5601H6.26289V14.5428H6.22839V14.5256H6.17663V14.5083H6.14212V14.4911H6.10762V14.4738H6.09036V14.4566H6.05586V14.4393H6.02135V14.422H5.98684V14.7671H6.0041V14.8534H6.02135V14.9396H6.0386V15.0259H6.05586V15.0777H6.07311V15.1122H6.09036V15.1639H6.10762V15.1984H6.12487V15.2502H6.14212V15.2847H6.15938V15.3365H6.17663V15.371H6.19388V15.3882H6.21114V15.4227H6.22839V15.4572H6.24564V15.4745H6.26289V15.509H6.28015V15.5435H6.2974V15.5608H6.31465V15.5953H6.33191V15.6125H6.34916V15.647H6.36641V15.6643H6.38367V15.6815H6.40092V15.716H6.41817V15.7333H6.43543V15.7505H6.45268V15.7678H6.46993V15.7851H6.48719V15.8023H6.50444V15.8368H6.52169V15.8541H6.53895V15.8713H6.5562V15.8886H6.57345V15.9058H6.59071V15.9231H6.60796V15.9576H6.64247V15.9748H6.65972V15.9921H6.67697V16.0093H6.69423V16.0266H6.71148V16.0438H6.72873V16.0611H6.74598V16.0784H6.76324V16.0956H6.79774V16.1129H6.815V16.1301H6.83225V16.1474H6.8495V16.1646H6.86676V16.1819H6.88401V16.1991H6.90126V16.2164H6.91852V16.2336H6.95302V16.2509H6.97028V16.2681H7.00478V16.2854H7.02204V16.3026H7.05654V16.3199H7.0738V16.3372H7.09105V16.3544H7.12556V16.3717H7.14281V16.3889H7.17732V16.4062H7.19457V16.4234H7.22907V16.4407H7.24633V16.4579H7.26358V16.4752H7.29809V16.4924H7.33259V16.5097H7.34985V16.5269H7.38435V16.5442H7.41886V16.5614H7.45337V16.5787H7.48787V16.596H7.50513V16.6132H7.53963V16.6305H7.57414V16.6477H7.60865V16.665H7.64315V16.6822H7.6604V16.6995H7.69491V16.7167H7.72942V16.734H7.76392V16.7512H7.79843V16.7685H7.83294V16.7857H7.8847V16.803H7.9192V16.8202H7.95371V16.8375H7.98822V16.8547H8.03998V16.872H8.07448V16.8893H8.10899V16.9065H8.14349V16.9238H8.19525V16.941H8.22976V16.9583H8.26427V16.9755H8.31603V16.9928H8.36779V17.01H8.41955V17.0273H8.47131V17.0445H8.50581V17.0618H8.55757V17.079H8.60933V17.0963H8.66109V17.1135H8.71285V17.1308H8.74736V17.1481H8.79912V17.1653H8.86813V17.1826H8.91989V17.1998H8.9889V17.2171H9.04066V17.2343H9.10967V17.2516H9.16143V17.2688H9.23045V17.2861H9.29946V17.3033H9.35122V17.3206H9.42023V17.3378H9.48925V17.3551H9.57551V17.3723H9.64452V17.3896H9.73079V17.4069H9.81706V17.4241H9.88607V17.4414H9.97234V17.4586H10.0586V17.4759H10.1276V17.4931H10.2484V17.5104H10.3519V17.5276H10.4554V17.5449H10.5762V17.5621H10.6797V17.5794H10.7832V17.5966H10.9213V17.6139H11.0765V17.6311H11.2491V17.6484H11.4044V17.6657H11.5769V17.6829H11.7839V17.7002H12.0772V17.7174H12.3705V17.7347" fill="#2A3544"/>
<path d="M26.0267 15.7417C24.957 8.79384 21.2443 5.80075 17.3085 4.75693C22.4699 6.58957 23.2734 14.2324 21.3583 18.2334C19.9453 21.0741 12.7688 26.7414 4.94742 24.4796C7.25086 26.956 10.9757 27.5055 13.1563 27.8549C18.5592 28.7124 27.615 26.0794 26.0267 15.7417Z" fill="#2A3544"/>
<path d="M15.4072 13.0742V13.057H15.2174V13.0397H15.0966V13.0225H15.0104V13.0052H14.9241V12.988H14.8551V12.9707H14.7861V12.9534H14.7343V12.9362H14.6826V12.9189H14.6308V12.9017H14.5618V12.8844H14.51V12.8672H14.4755V12.8499H14.4238V12.8327H14.3893V12.8154H14.3548V12.7982H14.303V12.7809H14.2685V12.7637H14.234V12.7464H14.1995V12.7292H14.165V12.7119H14.1305V12.6946H14.096V12.6774H14.0615V12.6601H14.0442V12.6429H14.0097V12.6256H13.9752V12.6084H13.9407V12.5911H13.9234V12.5739H13.8889V12.5566H13.8544V12.5394H13.8372V12.5221H13.8199V12.5049H13.7854V12.4876H13.7681V12.4704H13.7509V12.4531H13.7164V12.4358H13.6991V12.4186H13.6646V12.4013H13.6474V12.3841H13.6301V12.3668H13.5956V12.3496H13.5784V12.3323H13.5611V12.3151H13.5439V12.2978H13.5266V12.2806H13.5093V12.2633H13.4921V12.2461H13.4576V12.2288H13.4403V12.2116H13.4231V12.1943H13.4058V12.1771H13.3886V12.1598H13.3713V12.1425H13.3541V12.1253H13.3368V12.108H13.3196V12.0908H13.3023V12.0735H13.2851V12.0563H13.2678V12.039H13.2506V12.0218H13.2333V11.9873H13.216V11.97H13.1988V11.9528H13.1815V11.9355H13.1643V11.9183H13.147V11.901H13.1298V11.8837H13.1125V11.8492H13.0953V11.832H13.078V11.8147H13.0608V11.7802H13.0435V11.763H13.0263V11.7457H13.009V11.7112H12.9918V11.694H12.9745V11.6767H12.9572V11.6422H12.94V11.6249H12.9227V11.5904H12.9055V11.5732H12.8882V11.5387H12.871V11.5042H12.8537V11.4869H12.8365V11.4524H12.8192V11.4179H12.802V11.4007H12.7847V11.3662H12.7675V11.3316H12.7502V11.2971H12.733V11.2626H12.7157V11.2281H12.6984V11.1936H12.6812V11.1591H12.6639V11.1246H12.6467V11.0901H12.6294V11.0556H12.6122V11.0211H12.5949V10.9693H12.5777V10.9176H12.5604V10.8658H12.5432V10.8313H12.5259V10.7795H12.5087V10.7278H12.4914V10.676H12.4742V10.607H12.4569V10.538H12.4397V10.469H12.4224V10.4172H12.4051V10.331H12.3879V10.2274H12.3706V10.1239H12.3534V10.0204H12.3361V9.7616H12.3189V9.36478H12.3361V9.12323H12.3534V8.96795H12.3706V8.86443H12.3879V8.77817H12.4051V8.70916H12.4224V8.64014H12.4397V8.55388H12.4569V8.50212H12.4742V8.45036H12.4914V8.38134H12.5087V8.32958H12.5259V8.27783H12.5432V8.22607H12.5604V8.17431H12.5777V8.1398H12.5949V8.08804H12.6122V8.05353H12.6294V8.00177H12.6467V7.96727H12.6639V7.93276H12.6812V7.881H12.6984V7.84649H12.7157V7.81199H12.733V7.77748H12.7502V7.76023H12.7675V7.72572H12.7847V7.69122H12.802V7.65671H12.8192V7.6222H12.8365V7.5877H12.8537V7.55319H12.871V7.53594H12.8882V7.50143H12.9055V7.48418H12.9227V7.44967H12.94V7.41516H12.9572V7.39791H12.9745V7.3634H12.9918V7.34615H13.009V7.31165H13.0263V7.29439H13.0435V7.25989H13.0608V7.24263H13.078V7.22538H13.0953V7.19087H13.1125V7.17362H13.1298V7.15637H13.147V7.12186H13.1643V7.10461H13.1815V7.08735H13.1988V7.05285H13.216V7.03559H13.2333V7.01834H13.2506V7.00109H13.2678V6.98383H13.2851V6.96658H13.3023V6.94933H13.3196V6.91482H13.3368V6.89757H13.3541V6.88031H13.3713V6.86306H13.3886V6.84581H13.4058V6.82856H13.4231V6.8113H13.4403V6.79405H13.4576V6.7768H13.4748V6.75954H13.4921V6.74229H13.5093V6.72504H13.5266V6.70778H13.5439V6.69053H13.5611V6.67328H13.5784V6.65602H13.5956V6.63877H13.6129V6.62152H13.6301V6.60426H13.6474V6.58701H13.6646V6.56976H13.6991V6.5525H13.7164V6.53525H13.7336V6.518H13.7509V6.50074H13.7854V6.48349H13.8027V6.46624H13.8199V6.44898H13.8372V6.43173H13.8717V6.41448H13.8889V6.39722H13.9062V6.37997H13.9407V6.36272H13.9579V6.34547H13.9924V6.32821H14.0097V6.31096H14.0442V6.29371H14.0615V6.27645H14.0787V6.2592H14.1132V6.24195H14.1305V6.22469H14.165V6.20744H14.1995V6.19019H14.2167V6.17293H14.2512V6.15568H14.2857V6.13843H14.3203V6.12117H14.3548V6.10392H14.372V6.08667H14.4065V6.06941H14.441V6.05216H14.4755V6.03491H14.51V6.01765H14.5618V6.0004H14.5963V5.98315H14.6308V5.96589H14.6653V5.94864H14.7171V5.93139H14.7516V5.91413H14.8033V5.89688H14.8551V5.87963H14.9069V5.86238H14.9586V5.84512H15.0104V5.82787H15.0621V5.81062H15.1312V5.79336H15.2002V5.77611H15.2692V5.75886H15.3382V5.7416H15.459V5.72435H15.5797V5.7071H15.7178V5.68984H16.2526V5.7071H16.4424V5.72435H16.5632V5.7416H16.6322V5.75886H16.7184V5.77611H16.7875V5.79336H16.8565V5.81062H16.9082V5.82787H16.96V5.84512H17.0118V5.86238H17.0808V5.87963H17.1325V5.89688H17.167V5.91413H17.2188V5.93139H17.2533V5.94864H17.2878V5.96589H17.3223V5.98315H17.3741V6.0004H17.4086V6.01765H17.4431V6.03491H17.4776V6.05216H17.5121V6.06941H17.5466V6.08667H17.5639V6.10392H17.5984V6.12117H17.6329V6.13843H17.6674V6.15568H17.6846V6.17293H17.7191V6.19019H17.7536V6.20744H17.7709V6.22469H17.8054V6.24195H17.8227V6.2592H17.8399V6.27645H17.8744V6.29371H17.8917V6.31096H17.9262V6.32821H17.9434V6.34547H17.9607V6.36272H17.9952V6.37997H18.0124V6.39722H18.0297V6.41448H18.0642V6.43173H18.0815V6.44898H18.0987V6.46624H18.116V6.48349H18.1332V6.50074H18.1505V6.518H18.1677V6.53525H18.185V6.5525H18.2195V6.56976H18.2367V6.58701H18.254V6.60426H18.2712V6.62152H18.2885V6.63877H18.3057V6.65602H18.323V6.67328H18.3402V6.69053H18.3575V6.72504H18.3748V6.74229H18.392V6.75954H18.4093V6.7768H18.4265V6.79405H18.4438V6.8113H18.461V6.82856H18.4783V6.84581H18.4955V6.86306H18.5128V6.89757H18.53V6.91482H18.5473V6.93207H18.5645V6.96658H18.5818V6.98383H18.599V7.00109H18.6163V7.03559H18.6336V7.05285H18.6508V7.0701H18.6681V7.10461H18.6853V7.12186H18.7026V7.13911H18.7198V7.17362H18.7371V7.20813H18.7543V7.22538H18.7716V7.25989H18.7888V7.29439H18.8061V7.31165H18.8233V7.34615H18.8406V7.38066H18.8578V7.39791H18.8751V7.43242H18.8924V7.46692H18.9096V7.50143H18.9269V7.53594H18.9441V7.57044H18.9614V7.60495H18.9786V7.63946H18.9959V7.67396H19.0131V7.72572H19.0304V7.76023H19.0476V7.81199H19.0649V7.84649H19.0821V7.89825H19.0994V7.95001H19.1166V8.00177H19.1339V8.03628H19.1511V8.10529H19.1684V8.15705H19.1857V8.22607H19.2029V8.29508H19.2202V8.36409H19.2374V8.4331H19.2547V8.55388H19.2719V8.6574H19.2892V8.76092H19.3064V9.03697H19.3237V9.31302H19.3064V9.60632H19.2892V9.7616H19.2719V9.86512H19.2547V9.96864H19.2374V10.0377H19.2202V10.1067H19.2029V10.1757H19.1857V10.2447H19.1684V10.2965H19.1511V10.3482H19.1339V10.4H19.1166V10.469H19.0994V10.5207H19.0821V10.5725H19.0649V10.607H19.0476V10.6588H19.0304V10.6933H19.0131V10.7278H18.9959V10.7795H18.9786V10.814H18.9614V10.8486H18.9441V10.9003H18.9269V10.9348H18.9096V10.9693H18.8924V11.0038H18.8751V11.0211H18.8578V11.0556H18.8406V11.0901H18.8233V11.1246H18.8061V11.1591H18.7888V11.1936H18.7716V11.2109H18.7543V11.2454H18.7371V11.2799H18.7198V11.2971H18.7026V11.3316H18.6853V11.3489H18.6681V11.3834H18.6508V11.4007H18.6336V11.4352H18.6163V11.4524H18.599V11.4869H18.5818V11.5042H18.5645V11.5387H18.5473V11.5559H18.53V11.5732H18.5128V11.6077H18.4955V11.6249H18.4783V11.6422H18.461V11.6595H18.4438V11.694H18.4265V11.7112H18.4093V11.7285H18.392V11.7457H18.3748V11.7802H18.3575V11.7975H18.3402V11.8147H18.323V11.832H18.3057V11.8492H18.2885V11.8665H18.2712V11.8837H18.254V11.901H18.2367V11.9183H18.2195V11.9355H18.2022V11.9528H18.185V11.97H18.1677V11.9873H18.1505V12.0218H18.1332V12.039H18.116V12.0563H18.0987V12.0735H18.0815V12.0908H18.0642V12.108H18.0297V12.1253H18.0124V12.1425H17.9952V12.1598H17.9779V12.1771H17.9607V12.1943H17.9434V12.2116H17.9089V12.2288H17.8917V12.2461H17.8744V12.2633H17.8572V12.2806H17.8399V12.2978H17.8227V12.3151H17.7881V12.3323H17.7709V12.3496H17.7364V12.3668H17.7191V12.3841H17.7019V12.4013H17.6674V12.4186H17.6501V12.4358H17.6156V12.4531H17.5984V12.4704H17.5811V12.4876H17.5466V12.5049H17.5293V12.5221H17.4948V12.5394H17.4603V12.5566H17.4431V12.5739H17.4086V12.5911H17.3741V12.6084H17.3396V12.6256H17.3223V12.6429H17.2878V12.6601H17.2533V12.6774H17.2188V12.6946H17.1843V12.7119H17.1498V12.7292H17.1153V12.7464H17.0808V12.7637H17.0463V12.7809H16.9945V12.7982H16.96V12.8154H16.9255V12.8327H16.891V12.8499H16.8392V12.8672H16.7875V12.8844H16.7357V12.9017H16.6839V12.9189H16.6322V12.9362H16.5804V12.9534H16.5114V12.9707H16.4424V12.988H16.3561V13.0052H16.2871V13.0225H16.1836V13.0397H16.0456V13.057H15.9075V13.0742" fill="url(#paint2_radial_1116_1991)"/>
<path d="M16.2529 10.4357C16.2842 11.3797 15.583 12.1919 14.6971 12.2374C13.8047 12.2919 13.0523 11.5511 13.0209 10.5997C12.9956 9.64701 13.6862 8.83525 14.5732 8.79194C15.462 8.74743 16.2197 9.4781 16.2529 10.4357" fill="#2A3544"/>
<path d="M9.14421 12.8691V12.8519H8.95443V12.8346H8.86816V12.8174H8.78189V12.8001H8.69563V12.7829H8.60936V12.7656H8.5576V12.7484H8.50584V12.7311H8.45408V12.7139H8.38507V12.6966H8.33331V12.6794H8.2988V12.6621H8.2643V12.6448H8.21254V12.6276H8.17803V12.6103H8.14353V12.5931H8.09177V12.5758H8.05726V12.5586H8.02275V12.5413H7.98825V12.5241H7.95374V12.5068H7.93649V12.4896H7.90198V12.4723H7.86747V12.4551H7.83297V12.4378H7.79846V12.4206H7.78121V12.4033H7.7467V12.3861H7.72945V12.3688H7.69494V12.3515H7.67769V12.3343H7.64318V12.317H7.62593V12.2998H7.59142V12.2825H7.57417V12.2653H7.53966V12.248H7.52241V12.2308H7.50516V12.2135H7.47065V12.1963H7.4534V12.179H7.43614V12.1618H7.41889V12.1445H7.40164V12.1273H7.36713V12.11H7.34988V12.0927H7.33262V12.0755H7.31537V12.0582H7.29812V12.041H7.26361V12.0237H7.24636V12.0065H7.22911V11.9892H7.21185V11.972H7.1946V11.9547H7.17735V11.9375H7.16009V11.9202H7.14284V11.903H7.12559V11.8857H7.10833V11.8685H7.09108V11.8512H7.07383V11.8339H7.05657V11.8167H7.03932V11.7822H7.02207V11.7649H7.00481V11.7477H6.98756V11.7304H6.97031V11.6959H6.95305V11.6787H6.9358V11.6614H6.91855V11.6442H6.90129V11.6269H6.88404V11.5924H6.86679V11.5751H6.84953V11.5579H6.83228V11.5406H6.81503V11.5061H6.79777V11.4889H6.78052V11.4544H6.76327V11.4371H6.74602V11.4026H6.72876V11.3854H6.71151V11.3509H6.69426V11.3336H6.677V11.2991H6.65975V11.2818H6.6425V11.2473H6.62524V11.2128H6.60799V11.1956H6.59074V11.1611H6.57348V11.1266H6.55623V11.0921H6.53898V11.0576H6.52172V11.0403H6.50447V11.0058H6.48722V10.9713H6.46996V10.9195H6.45271V10.885H6.43546V10.8505H6.4182V10.816H6.40095V10.7642H6.3837V10.7297H6.36644V10.6952H6.34919V10.6435H6.33194V10.5917H6.31468V10.54H6.29743V10.4882H6.28018V10.4364H6.26293V10.3847H6.24567V10.3157H6.22842V10.2467H6.21117V10.1776H6.19391V10.1086H6.17666V10.0224H6.15941V9.93609H6.14215V9.81532H6.1249V9.6773H6.10765V9.47026H6.09039V8.83189H6.10765V8.69386H6.1249V8.55584H6.14215V8.43506H6.15941V8.36605H6.17666V8.27979H6.19391V8.21077H6.21117V8.12451H6.22842V8.07275H6.24567V8.02099H6.26293V7.96923H6.28018V7.91747H6.29743V7.86571H6.31468V7.81395H6.33194V7.76219H6.34919V7.71043H6.36644V7.67592H6.3837V7.64142H6.40095V7.60691H6.4182V7.55515H6.43546V7.52064H6.45271V7.48614H6.46996V7.45163H6.48722V7.41713H6.50447V7.38262H6.52172V7.34811H6.53898V7.31361H6.55623V7.29635H6.57348V7.26185H6.59074V7.22734H6.60799V7.19283H6.62524V7.17558H6.6425V7.14107H6.65975V7.10657H6.677V7.08931H6.69426V7.07206H6.71151V7.03755H6.72876V7.0203H6.74602V6.9858H6.76327V6.96854H6.78052V6.93404H6.79777V6.91678H6.81503V6.89953H6.83228V6.86502H6.84953V6.84777H6.86679V6.83052H6.88404V6.81326H6.90129V6.79601H6.91855V6.7615H6.9358V6.74425H6.95305V6.727H6.97031V6.70974H6.98756V6.69249H7.00481V6.67524H7.02207V6.65798H7.03932V6.62348H7.05657V6.60622H7.07383V6.58897H7.09108V6.57172H7.12559V6.55446H7.14284V6.53721H7.16009V6.51996H7.17735V6.50271H7.1946V6.48545H7.21185V6.4682H7.22911V6.45095H7.24636V6.43369H7.26361V6.41644H7.28086V6.39919H7.29812V6.38193H7.33262V6.36468H7.34988V6.34743H7.36713V6.33017H7.40164V6.31292H7.41889V6.29567H7.43614V6.27841H7.47065V6.26116H7.4879V6.24391H7.50516V6.22665H7.52241V6.2094H7.55692V6.19215H7.57417V6.17489H7.60868V6.15764H7.64318V6.14039H7.66044V6.12313H7.69494V6.10588H7.72945V6.08863H7.7467V6.07137H7.78121V6.05412H7.81571V6.03687H7.85022V6.01962H7.88473V6.00236H7.91923V5.98511H7.95374V5.96786H7.98825V5.9506H8.02275V5.93335H8.07451V5.9161H8.10902V5.89884H8.14353V5.88159H8.19529V5.86434H8.24704V5.84708H8.2988V5.82983H8.35056V5.81258H8.40232V5.79532H8.47134V5.77807H8.54035V5.76082H8.62662V5.74356H8.71288V5.72631H8.83365V5.70906H9.00619V5.6918H9.38576V5.70906H9.55829V5.72631H9.67906V5.74356H9.78258V5.76082H9.85159V5.77807H9.92061V5.79532H9.98962V5.81258H10.0414V5.82983H10.1104V5.84708H10.1622V5.86434H10.1967V5.88159H10.2484V5.89884H10.2829V5.9161H10.3347V5.93335H10.3864V5.9506H10.4209V5.96786H10.4555V5.98511H10.49V6.00236H10.5245V6.01962H10.559V6.03687H10.5935V6.05412H10.628V6.07137H10.6625V6.08863H10.6797V6.10588H10.7143V6.12313H10.7488V6.14039H10.766V6.15764H10.8005V6.17489H10.835V6.19215H10.8523V6.2094H10.8868V6.22665H10.904V6.24391H10.9385V6.26116H10.9558V6.27841H10.9903V6.29567H11.0076V6.31292H11.0248V6.33017H11.0593V6.34743H11.0766V6.36468H11.0938V6.38193H11.1283V6.39919H11.1456V6.41644H11.1628V6.43369H11.1801V6.45095H11.2146V6.4682H11.2319V6.48545H11.2491V6.50271H11.2664V6.51996H11.2836V6.53721H11.3009V6.55446H11.3181V6.57172H11.3354V6.58897H11.3526V6.60622H11.3871V6.62348H11.4044V6.64073H11.4216V6.65798H11.4389V6.67524H11.4561V6.69249H11.4734V6.70974H11.4906V6.74425H11.5079V6.7615H11.5252V6.77876H11.5424V6.79601H11.5597V6.81326H11.5769V6.83052H11.5942V6.84777H11.6114V6.86502H11.6287V6.88228H11.6459V6.89953H11.6632V6.93404H11.6804V6.95129H11.6977V6.96854H11.7149V6.9858H11.7322V7.0203H11.7494V7.03755H11.7667V7.05481H11.784V7.07206H11.8012V7.10657H11.8185V7.12382H11.8357V7.14107H11.853V7.17558H11.8702V7.19283H11.8875V7.22734H11.9047V7.24459H11.922V7.2791H11.9392V7.29635H11.9565V7.33086H11.9737V7.34811H11.991V7.38262H12.0082V7.39987H12.0255V7.43438H12.0428V7.46889H12.06V7.50339H12.0773V7.5379H12.0945V7.55515H12.1118V7.58966H12.129V7.62416H12.1463V7.65867H12.1635V7.69318H12.1808V7.72768H12.198V7.76219H12.2153V7.7967H12.2325V7.84846H12.2498V7.88296H12.267V7.91747H12.2843V7.95198H12.3015V8.00373H12.3188V8.03824H12.3361V8.09H12.3533V8.14176H12.3706V8.19352H12.3878V8.24528H12.4051V8.29704H12.4223V8.3488H12.4396V8.41781H12.4568V8.48682H12.4741V8.55584H12.4913V8.62485H12.5086V8.71112H12.5258V8.79738H12.5431V8.91815H12.5603V9.07343H12.5776V9.74631H12.5603V9.91884H12.5431V10.0396H12.5258V10.1259H12.5086V10.2121H12.4913V10.2984H12.4741V10.3502H12.4568V10.4192H12.4396V10.4709H12.4223V10.54H12.4051V10.5917H12.3878V10.6435H12.3706V10.678H12.3533V10.7297H12.3361V10.7815H12.3188V10.816H12.3015V10.8678H12.2843V10.9023H12.267V10.9368H12.2498V10.9713H12.2325V11.0058H12.2153V11.0403H12.198V11.0748H12.1808V11.1093H12.1635V11.1438H12.1463V11.1783H12.129V11.2128H12.1118V11.2473H12.0945V11.2646H12.0773V11.2991H12.06V11.3336H12.0428V11.3509H12.0255V11.3854H12.0082V11.4026H11.991V11.4371H11.9737V11.4716H11.9565V11.4889H11.9392V11.5061H11.922V11.5406H11.9047V11.5579H11.8875V11.5751H11.8702V11.6097H11.853V11.6269H11.8357V11.6442H11.8185V11.6787H11.8012V11.6959H11.784V11.7132H11.7667V11.7304H11.7494V11.7477H11.7322V11.7822H11.7149V11.7994H11.6977V11.8167H11.6804V11.8339H11.6632V11.8512H11.6459V11.8685H11.6287V11.8857H11.6114V11.903H11.5942V11.9202H11.5769V11.9375H11.5597V11.9547H11.5424V11.972H11.5252V11.9892H11.5079V12.0065H11.4906V12.0237H11.4734V12.041H11.4561V12.0582H11.4389V12.0755H11.4216V12.0927H11.4044V12.11H11.3871V12.1273H11.3526V12.1445H11.3354V12.1618H11.3181V12.179H11.3009V12.1963H11.2664V12.2135H11.2491V12.2308H11.2319V12.248H11.1973V12.2653H11.1801V12.2825H11.1628V12.2998H11.1283V12.317H11.1111V12.3343H11.0938V12.3515H11.0593V12.3688H11.0248V12.3861H11.0076V12.4033H10.9731V12.4206H10.9558V12.4378H10.9213V12.4551H10.8868V12.4723H10.8695V12.4896H10.835V12.5068H10.8005V12.5241H10.766V12.5413H10.7315V12.5586H10.697V12.5758H10.6625V12.5931H10.628V12.6103H10.5762V12.6276H10.5417V12.6448H10.5072V12.6621H10.4555V12.6794H10.4037V12.6966H10.3519V12.7139H10.3174V12.7311H10.2657V12.7484H10.1967V12.7656H10.1449V12.7829H10.0759V12.8001H10.0069V12.8174H9.92061V12.8346H9.79983V12.8519H9.64455V12.8691" fill="url(#paint3_radial_1116_1991)"/>
<path d="M14.9586 10.4785V10.4613H14.8723V10.444H14.8205V10.4268H14.7688V10.4095H14.7343V10.3922H14.6998V10.375H14.6825V10.3577H14.648V10.3405H14.6307V10.3232H14.6135V10.306H14.5962V10.2887H14.579V10.2715H14.5617V10.2542H14.5445V10.237H14.5272V10.2197H14.51V10.1852H14.4927V10.168H14.4755V10.1162H14.4582V10.0817H14.441V10.0127H14.4237V9.71937H14.441V9.66761H14.4582V9.61586H14.4755V9.58135H14.4927V9.54684H14.51V9.52959H14.5272V9.49508H14.5445V9.47783H14.5617V9.46058H14.579V9.44332H14.5962V9.42607H14.6135V9.40882H14.6307V9.39156H14.648V9.37431H14.6653V9.35706H14.6998V9.3398H14.717V9.32255H14.7515V9.3053H14.786V9.28804H14.8378V9.27079H14.8723V9.25354H14.9586V9.23628H15.2346V9.25354H15.3036V9.27079H15.3554V9.28804H15.3899V9.3053H15.4244V9.32255H15.4416V9.3398H15.4762V9.35706H15.4934V9.37431H15.5279V9.40882H15.5452V9.42607H15.5624V9.44332H15.5797V9.46058H15.5969V9.47783H15.6142V9.51234H15.6314V9.54684H15.6487V9.58135H15.6659V9.63311H15.6832V9.68487H15.7004V9.97817H15.6832V10.0472H15.6659V10.0817H15.6487V10.1162H15.6314V10.1507H15.6142V10.1852H15.5969V10.2025H15.5797V10.237H15.5624V10.2542H15.5452V10.2715H15.5279V10.2887H15.5107V10.306H15.4934V10.3232H15.4762V10.3405H15.4416V10.3577H15.4244V10.375H15.4071V10.3922H15.3726V10.4095H15.3381V10.4268H15.3036V10.444H15.2519V10.4613H15.1656V10.4785" fill="#2A3544"/>
<path d="M10.1794 10.4785V10.4613H10.1104V10.444H10.0586V10.4268H10.0068V10.4095H9.97234V10.3922H9.93784V10.375H9.90333V10.3577H9.88608V10.3405H9.86882V10.3232H9.85157V10.306H9.83432V10.2887H9.79981V10.2715H9.78256V10.237H9.7653V10.2197H9.74805V10.1852H9.7308V10.168H9.71354V10.1335H9.69629V10.0817H9.67904V10.0299H9.66178V9.8574H9.64453V9.84015H9.66178V9.71937H9.67904V9.65036H9.69629V9.5986H9.71354V9.58135H9.7308V9.54684H9.74805V9.51234H9.7653V9.49508H9.78256V9.46058H9.79981V9.44332H9.83432V9.42607H9.85157V9.40882H9.86882V9.39156H9.88608V9.37431H9.90333V9.35706H9.92058V9.3398H9.95509V9.32255H9.9896V9.3053H10.0241V9.28804H10.0759V9.27079H10.1104V9.25354H10.1966V9.23628H10.4727V9.25354H10.5417V9.27079H10.5935V9.28804H10.628V9.3053H10.6625V9.32255H10.6797V9.3398H10.7142V9.35706H10.7315V9.37431H10.766V9.40882H10.7832V9.42607H10.8005V9.44332H10.8177V9.46058H10.835V9.47783H10.8523V9.51234H10.8695V9.54684H10.8868V9.58135H10.904V9.63311H10.9213V9.71937H10.9385V9.96092H10.9213V10.0299H10.904V10.0817H10.8868V10.1162H10.8695V10.1507H10.8523V10.168H10.835V10.2025H10.8177V10.2197H10.8005V10.2542H10.7832V10.2715H10.766V10.2887H10.7487V10.306H10.7315V10.3232H10.7142V10.3405H10.6797V10.3577H10.6625V10.375H10.6452V10.3922H10.6107V10.4095H10.5762V10.4268H10.5244V10.444H10.4899V10.4613H10.4037V10.4785" fill="#2A3544"/>
<defs>
<linearGradient id="paint0_linear_1116_1991" x1="17.9174" y1="11.7996" x2="16.1411" y2="11.7141" gradientUnits="userSpaceOnUse">
<stop stop-color="white"/>
<stop offset="0.446524" stop-color="#ECE7EA"/>
<stop offset="0.613497" stop-color="#ECE7EA"/>
<stop offset="0.636752" stop-color="#ECE7EA"/>
<stop offset="1" stop-color="white"/>
</linearGradient>
<linearGradient id="paint1_linear_1116_1991" x1="10.4898" y1="12.3327" x2="8.88367" y2="12.0011" gradientUnits="userSpaceOnUse">
<stop stop-color="white"/>
<stop offset="0.446524" stop-color="#ECE7EA"/>
<stop offset="0.613497" stop-color="#ECE7EA"/>
<stop offset="0.636752" stop-color="#ECE7EA"/>
<stop offset="1" stop-color="white"/>
</linearGradient>
<radialGradient id="paint2_radial_1116_1991" cx="0" cy="0" r="1" gradientUnits="userSpaceOnUse" gradientTransform="translate(15.8197 9.38238) scale(3.65934 3.53199)">
<stop stop-color="white"/>
<stop offset="0.773006" stop-color="white"/>
<stop offset="0.788642" stop-color="white"/>
<stop offset="1" stop-color="#F1EEEC"/>
</radialGradient>
<radialGradient id="paint3_radial_1116_1991" cx="0" cy="0" r="1" gradientUnits="userSpaceOnUse" gradientTransform="translate(9.33621 9.2872) rotate(3.29836) scale(3.4848 3.36357)">
<stop stop-color="white"/>
<stop offset="0.773006" stop-color="white"/>
<stop offset="0.788642" stop-color="white"/>
<stop offset="1" stop-color="#F1EEEC"/>
</radialGradient>
</defs>
</svg>
