<svg width="142" height="35" viewBox="0 0 142 35" fill="none" xmlns="http://www.w3.org/2000/svg">
<path fill-rule="evenodd" clip-rule="evenodd" d="M56.0378 28.5593V10.246H61.8877C62.4281 10.246 62.7143 10.0552 62.7143 9.54652V7.67067C62.7143 7.06658 62.3963 6.90761 61.8877 6.90761H46.5319C46.0232 6.90761 45.737 7.06658 45.737 7.67067V9.54652C45.737 10.0552 46.0232 10.246 46.5319 10.246H52.3499V28.5593C52.3499 29.0998 52.636 29.4177 53.1447 29.4177H55.243C55.7199 29.4177 56.0378 29.1316 56.0378 28.5593ZM65.0622 28.5912V17.8448C65.0622 17.5268 65.1258 17.3361 65.1893 17.2088C65.2848 17.0499 65.5708 16.8592 65.7616 16.7637C66.3021 16.5412 67.3194 16.2868 68.4958 16.2868C68.8773 16.2868 69.5767 16.3504 69.9901 16.3504C70.3397 16.3504 70.6259 16.2232 70.6895 15.8736C70.7848 15.4284 70.8484 14.411 70.8484 13.9658C70.8484 13.5526 70.6576 13.2346 70.3397 13.171C69.9582 13.0757 69.5767 13.0438 69.0998 13.0438C67.3513 13.0438 65.698 13.7433 65.0622 14.5699L64.9986 14.0294C64.9667 13.5207 64.7442 13.3618 64.2356 13.3618H62.3916C61.8193 13.3618 61.5332 13.7115 61.5332 14.2839V28.5912C61.5332 29.0998 61.7876 29.4177 62.2644 29.4177H64.3309C64.8396 29.4177 65.0622 29.0998 65.0622 28.5912ZM82.6422 28.2414L82.6741 28.7183C82.7376 29.1951 82.8965 29.4177 83.5006 29.4177H85.3128C85.8851 29.4177 86.1394 29.068 86.1394 28.4957V14.2203C86.1394 13.6798 85.8851 13.3936 85.4081 13.3936H83.3735C82.8648 13.3936 82.6105 13.7433 82.6105 14.2203V24.7122C82.6105 25.2527 82.5786 25.4435 82.4515 25.6025C82.2926 25.825 81.9746 25.9522 81.7838 26.0157C81.2115 26.2702 80.1306 26.5245 78.6046 26.5245C77.0149 26.5245 76.3473 26.1748 76.093 25.4118C75.9658 25.0301 75.9022 24.2671 75.9022 23.663V14.2203C75.9022 13.7115 75.6796 13.3936 75.171 13.3936H73.1045C72.5322 13.3936 72.3732 13.7433 72.3732 14.2203V24.5533C72.3732 25.7297 72.4051 26.906 72.6912 27.7009C73.1681 28.9727 74.3761 29.7039 77.3965 29.7039C79.3676 29.7039 81.593 29.2588 82.6422 28.2414ZM92.4967 22.5503H101.971C102.289 22.5503 102.543 22.4867 102.702 22.3595C102.925 22.1688 103.02 21.7872 103.02 21.2785C103.02 16.3822 102.321 13.0121 96.439 13.0121C91.3839 13.0121 88.936 15.3966 88.936 21.4692C88.936 27.1922 90.7164 29.7675 96.3754 29.7675C98.2194 29.7675 100.731 29.4177 102.225 28.7183C102.607 28.5276 102.734 28.3686 102.734 27.9871C102.734 27.6691 102.48 26.747 102.321 26.2702C102.225 26.0157 102.066 25.825 101.78 25.825C101.526 25.825 101.176 25.9522 100.954 26.0157C99.9043 26.3019 98.4419 26.6198 96.6616 26.6198C93.9592 26.6198 92.5603 25.8886 92.4967 22.5503ZM92.5603 19.7842C92.6239 17.1135 93.4823 15.7781 96.3437 15.7781C99.1096 15.7781 99.6183 16.9545 99.6183 19.1483C99.6183 19.4026 99.6183 19.5934 99.5864 19.7842H92.5603ZM108.773 28.5593C109.377 29.1316 111.253 29.5132 112.588 29.5132C117.612 29.5132 120.091 28.0824 120.091 21.0242C120.091 15.174 118.12 13.0757 114.337 13.0757C112.207 13.0757 110.299 13.489 109.187 14.3474V6.4625C109.187 5.85841 109.059 5.57227 108.455 5.57227H106.421C105.944 5.57227 105.658 5.89021 105.658 6.4625V28.4957C105.658 29.2588 105.912 29.4496 106.516 29.4496H107.819C108.424 29.4496 108.71 29.386 108.741 28.9408L108.773 28.5593ZM109.187 25.9204V18.0355C109.187 17.7812 109.218 17.5268 109.282 17.3997C109.346 17.2088 109.504 17.0816 109.695 16.9545C110.49 16.4458 111.984 16.2868 113.065 16.2868C115.895 16.2868 116.531 17.5904 116.531 21.2468C116.531 25.2846 115.768 26.4927 112.143 26.4927C111.158 26.4927 109.695 26.2066 109.187 25.9204ZM126.417 28.5912V14.1884C126.417 13.7115 126.289 13.3936 125.718 13.3936H123.619C123.079 13.3936 122.887 13.7433 122.887 14.2203V28.5912C122.887 29.1634 123.142 29.4177 123.619 29.4177H125.686C126.162 29.4177 126.417 29.0998 126.417 28.5912ZM126.735 8.40193C126.735 6.81223 125.941 6.27173 124.668 6.27173C123.429 6.27173 122.602 6.90761 122.602 8.43373C122.602 10.0234 123.429 10.5321 124.668 10.5321C126.068 10.5321 126.735 9.89625 126.735 8.40193ZM133.791 28.5912V6.36712C133.791 5.85841 133.664 5.57227 133.092 5.57227H131.026C130.453 5.57227 130.263 5.89021 130.263 6.39891V28.5912C130.263 29.1634 130.517 29.4177 130.993 29.4177H133.061C133.537 29.4177 133.791 29.0998 133.791 28.5912ZM141.167 28.5912V6.36712C141.167 5.85841 141.04 5.57227 140.467 5.57227H138.401C137.828 5.57227 137.638 5.89021 137.638 6.39891V28.5912C137.638 29.1634 137.892 29.4177 138.369 29.4177H140.435C140.912 29.4177 141.167 29.0998 141.167 28.5912Z" fill="#2A3544"/>
<path fill-rule="evenodd" clip-rule="evenodd" d="M38.1646 17.5022C38.1646 6.72636 29.5099 0 19.36 0C18.4527 0 17.5654 0.0342336 16.6493 0.11264C16.0391 0.165647 15.9634 1.01596 16.5523 1.1783C20.2217 2.18764 23.1943 4.32889 25.2727 7.05985C27.6685 10.2082 28.4812 13.7619 28.518 17.2504C28.519 17.3907 28.6337 17.5033 28.7763 17.5033L30.6265 17.5022C31.0941 17.5022 31.3546 18.0378 31.0618 18.3989L26.5642 23.9525C26.3426 24.2275 25.9196 24.2275 25.6969 23.9525L21.1981 18.3967C20.9064 18.0356 21.1658 17.501 21.6323 17.501H23.8154C23.9602 17.501 24.0781 17.384 24.0771 17.2416C24.0347 13.7675 23.1608 11.2209 21.3072 9.06086C19.035 6.41163 15.7363 4.82141 12.0013 4.82141C7.77298 4.82141 0 7.63189 0 17.501C0 28.278 8.67697 35 18.8313 35C19.7252 35 20.6003 34.9679 21.502 34.8917C22.1199 34.8398 22.1968 33.9807 21.6 33.8151C17.9485 32.8013 14.9893 30.6644 12.9186 27.9434C10.5217 24.795 9.7101 21.2425 9.67336 17.754C9.67113 17.6126 9.55646 17.5 9.41507 17.5L7.56478 17.501C7.09721 17.501 6.8367 16.9655 7.12949 16.6043L11.6261 11.0508C11.8487 10.777 12.2706 10.777 12.4934 11.0508L16.9921 16.6066C17.2838 16.9678 17.0243 17.5022 16.5579 17.5022H14.3759C14.2311 17.5022 14.1132 17.6192 14.1142 17.7617C14.1554 21.2359 15.0305 23.7824 16.8841 25.9425C19.1563 28.5917 22.4539 30.1829 26.19 30.1829C30.69 30.1829 38.1646 27.1936 38.1646 17.5022Z" fill="#2A3544"/>
</svg>
