<svg width="53" height="53" viewBox="0 0 53 53" fill="none" xmlns="http://www.w3.org/2000/svg">
<path d="M26.5 0C11.8876 0 0 11.8876 0 26.5C0 41.1124 11.8876 53 26.5 53C41.1124 53 53 41.1124 53 26.5C52.9995 11.8876 41.1119 0 26.5 0ZM26.5 49.5678C13.7803 49.5678 3.43272 39.2197 3.43272 26.5C3.43272 13.7803 13.7808 3.43219 26.5 3.43219C39.2192 3.43219 49.5673 13.7803 49.5673 26.5C49.5673 39.2197 39.2192 49.5678 26.5 49.5678ZM35.5029 18.7705H35.7121V17.7573H36.0892V17.5783H35.1269V17.7573H35.5029V18.7705ZM36.4227 17.8497H36.4264L36.7567 18.7705H36.9272L37.2575 17.8497H37.2623V18.7705H37.4588V17.5789H37.1699L36.8502 18.5109H36.8449L36.5178 17.5789H36.2241V18.7705H36.4222V17.8497H36.4227ZM30.4043 17.5778H17.3675L15.3893 20.7567H28.4113L30.4043 17.5778ZM33.0686 17.6081L25.0986 30.2981H16.2587L18.2979 27.1165H23.5962L25.62 23.9366H13.3713L11.348 27.1165H14.2497L10.2238 33.4685H27.0257L33.2316 23.6812L35.4944 27.116H33.4541L31.5216 30.2975H37.5634L39.6616 33.4679H43.5159L33.0686 17.6081Z" fill="#2C3543"/>
</svg>
