<?xml version="1.0" encoding="utf-8"?>
<!-- Generator: Adobe Illustrator 25.4.1, SVG Export Plug-In . SVG Version: 6.00 Build 0)  -->
<svg version="1.1" id="Layer_1" xmlns="http://www.w3.org/2000/svg" xmlns:xlink="http://www.w3.org/1999/xlink" x="0px" y="0px"
	 viewBox="0 0 65 65" style="enable-background:new 0 0 65 65;" xml:space="preserve">
<style type="text/css">
	.st0{fill:#0F3384;stroke:#0F3384;stroke-width:0.5;}
</style>
<path class="st0" d="M7.3,26.9l-0.1,0.6l0.5-0.3C7.8,27,8,26.9,8.2,26.8c0.4-0.3,0.9-0.6,1.3-0.9c0.3-0.2,0.5-0.2,0.7-0.2
	s0.3,0.1,0.4,0.3c0.1,0.2,0.1,0.3,0.1,0.5s-0.2,0.3-0.4,0.5c-1.1,0.8-2.2,1.6-3.4,2.4c-0.4,0.3-0.6,0.3-0.7,0.3
	c-0.2,0-0.3-0.2-0.6-0.6c-0.8-1.3-1.5-2.6-2.3-3.9v-0.4c0.3-0.4,0.5-0.5,0.7-0.5c0.2,0,0.4,0.2,0.7,0.6c0.2,0.3,0.3,0.6,0.5,0.9
	c0.1,0.2,0.3,0.5,0.4,0.7L5.9,27L6,26.4c0.1-0.4,0.2-0.7,0.3-1c0.2-0.6,0.4-1.3,0.6-1.9c2.2-6.3,6.2-11.2,12-14.5
	c2.8-1.6,5.9-2.7,9.2-3.2l0,0c0.4-0.1,0.6,0,0.8,0c0,0.1,0.1,0.2,0.2,0.5c0,0.2,0,0.4-0.1,0.5S28.7,7,28.3,7.1l0,0
	c-0.4,0.1-0.8,0.2-1.2,0.3c-1.3,0.3-2.6,0.6-3.9,1.1c-5.4,2-9.6,5.5-12.6,10.4C9,21.1,8,23.7,7.3,26.4l0,0c0,0.1,0,0.2-0.1,0.3
	C7.3,26.8,7.3,26.8,7.3,26.9z"/>
<path class="st0" d="M60.5,38.5L60.5,38.5c0.2,0.3,0.2,0.5,0.2,0.7s-0.1,0.3-0.3,0.4c-0.2,0.1-0.3,0.1-0.5,0.1
	c-0.2-0.1-0.3-0.2-0.5-0.5c-0.2-0.4-0.4-0.7-0.7-1.1c-0.1-0.2-0.2-0.4-0.3-0.6L58.2,37L58,37.5c-0.1,0.3-0.2,0.6-0.2,0.9
	c-0.2,0.6-0.3,1.1-0.5,1.7l0,0c-2.6,7.9-7.8,13.4-15.5,16.6l0,0c-2,0.8-4,1.3-6.2,1.6l0,0l0,0c-0.1,0-0.2,0-0.3,0s-0.2,0-0.2-0.1
	c-0.1,0-0.1-0.1-0.2-0.2c0-0.1-0.1-0.2-0.1-0.2c0-0.2,0-0.3,0.1-0.4c0.1-0.1,0.2-0.2,0.4-0.3c0.4-0.1,0.8-0.2,1.2-0.2h0.1
	c0.4-0.1,0.9-0.2,1.3-0.3c6.5-1.6,11.5-5.3,15.3-10.8l0,0c0.8-1.2,1.6-2.8,2.3-4.4c0.6-1.6,1.1-3.1,1.3-4.3l0.1-0.6l-0.5,0.3
	c-0.2,0.1-0.4,0.3-0.5,0.4c-0.4,0.3-0.8,0.6-1.2,0.9c-0.3,0.2-0.5,0.2-0.6,0.2c-0.2,0-0.3-0.1-0.4-0.2l0,0c-0.1-0.2-0.2-0.3-0.1-0.5
	c0-0.2,0.2-0.3,0.5-0.5l0,0c1.1-0.8,2.2-1.6,3.4-2.4c0.3-0.2,0.6-0.3,0.7-0.3c0.2,0,0.3,0.2,0.5,0.5C59.2,36.2,59.9,37.3,60.5,38.5z
	"/>
<path class="st0" d="M25,59.1L25,59.1c-0.3,0.2-0.5,0.2-0.7,0.2S24,59.2,23.9,59s-0.1-0.3-0.1-0.5c0.1-0.2,0.2-0.3,0.5-0.5
	c0.4-0.2,0.7-0.4,1.1-0.7c0.2-0.1,0.4-0.2,0.6-0.3l0.5-0.3L26,56.6c-0.3-0.1-0.6-0.2-0.9-0.2c-0.6-0.2-1.1-0.3-1.7-0.5l0,0
	C15.5,53.2,10,48,6.8,40.4l0,0c-0.8-2-1.3-4-1.6-6.2l0,0l0,0c0-0.1,0-0.2,0-0.3s0-0.2,0.1-0.2c0-0.1,0.1-0.1,0.2-0.2
	c0.1,0,0.2-0.1,0.2-0.1c0.2,0,0.3,0,0.4,0.1s0.2,0.2,0.3,0.4c0.1,0.4,0.2,0.8,0.2,1.2v0.1c0.1,0.4,0.2,0.9,0.3,1.3
	C8.5,43,12.2,48,17.7,51.8l0,0c1.2,0.8,2.8,1.6,4.4,2.3c1.6,0.6,3.1,1.1,4.3,1.3l0.6,0.1L26.7,55c-0.1-0.2-0.3-0.4-0.4-0.5
	c-0.3-0.4-0.6-0.8-0.9-1.2c-0.2-0.3-0.2-0.5-0.2-0.6c0-0.2,0.1-0.3,0.2-0.4l0,0c0.2-0.1,0.3-0.2,0.5-0.1c0.2,0,0.3,0.2,0.5,0.5l0,0
	c0.8,1.1,1.6,2.2,2.4,3.4c0.2,0.3,0.3,0.6,0.3,0.7c0,0.2-0.2,0.3-0.5,0.5C27.4,57.8,26.2,58.5,25,59.1z"/>
<path class="st0" d="M28.1,25.1c-1.1,1.5-4.8,7-5.9,8.6c-0.1,0.2-0.2,0.5-0.2,0.7c0,0.5,0.4,0.8,1.1,0.8c2.6,0,5.2,0,7.8,0h0.6
	c-0.1,0.3-0.1,0.5-0.2,0.7c-1.4,4.1-2.8,8.2-4.2,12.3c-0.1,0.2-0.2,0.5-0.2,0.8c0.1,0.3,0.2,0.6,0.5,0.8c0.2,0.1,0.6,0,0.9-0.1
	c0.2-0.1,0.3-0.3,0.4-0.5c2.3-3.2,7.2-10.3,9.5-13.5c0.1-0.1,0.2-0.3,0.3-0.5c1-1.5,2.1-3,3.1-4.5c0.3-0.4,0.5-0.7,0.2-1.2
	C41.6,29,41.1,29,40.7,29c-2.5,0-4.9,0-7.4,0h-1c0.1-0.3,0.1-0.5,0.2-0.7c1.4-4.1,2.8-8.2,4.2-12.3c0.1-0.2,0.1-0.3,0.1-0.5
	c0.1-0.4,0-0.8-0.4-1s-0.8-0.1-1.1,0.3c-0.1,0.1-0.2,0.2-0.3,0.4l-5.1,7.4L28.2,25C28.3,24.8,28.2,25,28.1,25.1L28.1,25.1z M32,22.7
	l1.1-1.6h0.1c0,0.2-0.1,0.3-0.2,0.5c-0.8,2.4-1.7,4.9-2.5,7.3c-0.4,1.1-0.1,1.6,1.1,1.6c2.4,0,4.8,0,7.1,0h0.7c-0.7,1-1.4,2-2,2.9
	c-0.3,0.4-0.5,0.7-0.8,1.1c-1.1,1.6-4.6,6.5-5.5,7.9c-0.1,0.1-0.2,0.2-0.3,0.4c0-0.2,0-0.4,0.1-0.6c0.8-2.4,1.7-4.8,2.5-7.3
	c0.4-1.1,0.1-1.6-1.1-1.6c-2.4,0-4.8,0-7.1,0h-0.8c0.7-1,3.4-5,4.6-6.7c0.1-0.1,0.2-0.2,0.2-0.2C30.3,25.2,31.1,23.9,32,22.7
	L32,22.7z"/>
<path class="st0" d="M39,3.9L39,3.9c0.3-0.2,0.5-0.2,0.7-0.2S40,3.8,40.1,4c0.1,0.2,0.1,0.3,0.1,0.5C40.1,4.7,40,4.8,39.7,5
	c-0.4,0.2-0.7,0.4-1.1,0.7C38.4,5.8,38.2,5.9,38,6l-0.5,0.3L38,6.4c0.3,0.1,0.6,0.2,0.9,0.2C39.4,6.8,40,7,40.5,7.2l0,0
	c7.9,2.6,13.4,7.8,16.6,15.5l0,0c0.8,2,1.3,4,1.6,6.2l0,0l0,0c0,0.1,0,0.2,0,0.3c0,0.1,0,0.2-0.1,0.2c0,0.1-0.1,0.1-0.2,0.2
	c-0.1,0-0.2,0.1-0.2,0.1c-0.2,0-0.3,0-0.4-0.1c-0.1-0.1-0.2-0.2-0.3-0.4c-0.1-0.4-0.2-0.8-0.2-1.2v-0.1c-0.1-0.4-0.2-0.9-0.3-1.3
	C55.4,20,51.8,15,46.2,11.2l0,0C45,10.4,43.4,9.6,41.9,9c-1.6-0.6-3.1-1.1-4.3-1.3H37l0.3,0.5c0.1,0.2,0.3,0.4,0.4,0.5
	c0.3,0.4,0.6,0.8,0.9,1.2c0.2,0.3,0.2,0.5,0.2,0.6c0,0.2-0.1,0.3-0.2,0.4l0,0c-0.2,0.1-0.3,0.2-0.5,0.1c-0.2,0-0.3-0.2-0.5-0.5l0,0
	c-0.8-1.1-1.6-2.2-2.4-3.4c-0.2-0.3-0.3-0.6-0.3-0.7c0-0.2,0.2-0.3,0.5-0.5C36.6,5.3,37.8,4.6,39,3.9z"/>
</svg>
