<svg width="357" height="336" viewBox="0 0 357 336" fill="none" xmlns="http://www.w3.org/2000/svg">
<path d="M109.077 112.083C119.922 112.083 128.713 103.292 128.713 92.4472C128.713 81.6027 119.922 72.8115 109.077 72.8115C98.2329 72.8115 89.4418 81.6027 89.4418 92.4472C89.4418 103.292 98.2329 112.083 109.077 112.083Z" fill="#00D0B2"/>
<path d="M108.995 92.7276C107.693 92.7286 106.442 92.212 105.519 91.2916C104.597 90.3701 104.079 89.1205 104.078 87.8177C104.077 86.5138 104.595 85.2642 105.515 84.3416C106.437 83.4202 107.686 82.9014 108.99 82.9014C110.293 82.9014 111.543 83.418 112.465 84.3395C113.387 85.261 113.904 86.5117 113.904 87.8145C113.903 89.1163 113.385 90.3648 112.465 91.2862C111.546 92.2066 110.297 92.7254 108.995 92.7275L108.995 92.7276ZM118.085 101.8H99.9064C99.6997 101.8 99.5314 101.631 99.5314 101.425C99.5367 99.519 100.296 97.6929 101.645 96.3465C102.993 94.9989 104.819 94.2404 106.724 94.2362H111.267C113.174 94.2372 115.002 94.9947 116.35 96.3423C117.699 97.691 118.458 99.5181 118.46 101.425C118.46 101.524 118.42 101.62 118.35 101.69C118.28 101.76 118.184 101.8 118.085 101.8L118.085 101.8Z" fill="white"/>
<path d="M70.8331 114.907C77.1414 114.907 82.2552 109.793 82.2552 103.485C82.2552 97.1764 77.1414 92.0625 70.8331 92.0625C64.5248 92.0625 59.4109 97.1764 59.4109 103.485C59.4109 109.793 64.5248 114.907 70.8331 114.907Z" fill="#00D0B2"/>
<path d="M70.7855 103.649C70.0276 103.649 69.3001 103.349 68.7634 102.813C68.2268 102.277 67.9256 101.55 67.925 100.792C67.9244 100.034 68.2255 99.3071 68.7609 98.7704C69.297 98.2344 70.0239 97.9326 70.7824 97.9326C71.5402 97.9326 72.2671 98.2332 72.8038 98.7692C73.3398 99.3052 73.641 100.033 73.641 100.791C73.6403 101.548 73.3392 102.274 72.8038 102.81C72.269 103.346 71.5427 103.647 70.7854 103.649L70.7855 103.649ZM76.0727 108.926H65.4983C65.3781 108.926 65.2802 108.828 65.2802 108.708C65.2832 107.599 65.7251 106.537 66.5096 105.754C67.2935 104.97 68.3557 104.529 69.4643 104.526H72.1066C73.2159 104.527 74.2792 104.967 75.0639 105.751C75.8484 106.536 76.2896 107.599 76.2909 108.708C76.2909 108.766 76.2679 108.821 76.227 108.862C76.1862 108.903 76.1304 108.926 76.0727 108.926L76.0727 108.926Z" fill="white"/>
<path d="M103.174 54.8443C107.356 54.8443 110.746 51.4542 110.746 47.2722C110.746 43.0903 107.356 39.7002 103.174 39.7002C98.9921 39.7002 95.6019 43.0903 95.6019 47.2722C95.6019 51.4542 98.9921 54.8443 103.174 54.8443Z" fill="#E0E5EA"/>
<path d="M103.143 47.3801C102.64 47.3805 102.158 47.1813 101.802 46.8263C101.446 46.471 101.247 45.9891 101.246 45.4867C101.246 44.9839 101.445 44.502 101.8 44.1462C102.156 43.7909 102.638 43.5908 103.14 43.5908C103.643 43.5908 104.125 43.7901 104.481 44.1454C104.836 44.5008 105.036 44.983 105.036 45.4855C105.035 45.9875 104.835 46.4689 104.481 46.8242C104.126 47.1792 103.645 47.3792 103.142 47.3801L103.143 47.3801ZM106.648 50.8786H99.6375C99.5578 50.8786 99.4929 50.8137 99.4929 50.734C99.495 49.999 99.7879 49.2949 100.308 48.7757C100.828 48.256 101.532 47.9635 102.267 47.9618H104.018C104.754 47.9623 105.459 48.2543 105.979 48.774C106.499 49.2941 106.791 49.9987 106.792 50.734C106.792 50.7722 106.777 50.8092 106.75 50.8363C106.723 50.8634 106.686 50.8786 106.648 50.8786L106.648 50.8786Z" fill="white"/>
<path d="M54.6625 47.1441C58.8444 47.1441 62.2346 43.754 62.2346 39.5721C62.2346 35.3901 58.8444 32 54.6625 32C50.4806 32 47.0905 35.3901 47.0905 39.5721C47.0905 43.754 50.4806 47.1441 54.6625 47.1441Z" fill="#00D0B2"/>
<path d="M54.6309 39.6799C54.1285 39.6803 53.6462 39.4811 53.2905 39.1261C52.9347 38.7708 52.7351 38.2889 52.7347 37.7865C52.7342 37.2837 52.9339 36.8018 53.2888 36.446C53.6442 36.0907 54.1261 35.8906 54.6289 35.8906C55.1313 35.8906 55.6132 36.0899 55.9689 36.4452C56.3243 36.8006 56.5239 37.2829 56.5239 37.7853C56.5235 38.2873 56.3239 38.7687 55.9689 39.124C55.6144 39.479 55.1329 39.679 54.6309 39.6799L54.6309 39.6799ZM58.136 43.1784H51.1259C51.0462 43.1784 50.9813 43.1135 50.9813 43.0338C50.9834 42.2988 51.2763 41.5947 51.7964 41.0755C52.316 40.5558 53.0202 40.2633 53.7551 40.2616H55.5068C56.2421 40.2621 56.9471 40.5541 57.4672 41.0738C57.9873 41.5939 58.2798 42.2985 58.2806 43.0338C58.2806 43.072 58.2654 43.109 58.2383 43.1361C58.2112 43.1632 58.1742 43.1784 58.136 43.1784L58.136 43.1784Z" fill="white"/>
<path d="M57.8708 145.963C61.6982 145.963 64.801 142.86 64.801 139.033C64.801 135.205 61.6982 132.103 57.8708 132.103C54.0433 132.103 50.9406 135.205 50.9406 139.033C50.9406 142.86 54.0433 145.963 57.8708 145.963Z" fill="#00D0B2"/>
<path d="M57.8419 139.132C57.382 139.133 56.9406 138.95 56.615 138.625C56.2894 138.3 56.1067 137.859 56.1063 137.399C56.1059 136.939 56.2887 136.498 56.6135 136.172C56.9387 135.847 57.3798 135.664 57.84 135.664C58.2998 135.664 58.7408 135.846 59.0664 136.172C59.3916 136.497 59.5744 136.938 59.5744 137.398C59.574 137.858 59.3913 138.298 59.0664 138.623C58.7419 138.948 58.3013 139.131 57.8418 139.132L57.8419 139.132ZM61.0498 142.334H54.6339C54.561 142.334 54.5016 142.275 54.5016 142.202C54.5035 141.529 54.7715 140.885 55.2475 140.409C55.7232 139.934 56.3676 139.666 57.0403 139.665H58.6435C59.3165 139.665 59.9616 139.932 60.4377 140.408C60.9137 140.884 61.1814 141.529 61.1822 142.202C61.1822 142.237 61.1683 142.271 61.1434 142.295C61.1186 142.32 61.0848 142.334 61.0498 142.334L61.0498 142.334Z" fill="white"/>
<path d="M298.518 208.371C301.618 207.62 303.523 204.499 302.773 201.399C302.022 198.299 298.901 196.394 295.801 197.144C292.701 197.895 290.796 201.016 291.546 204.116C292.297 207.216 295.418 209.121 298.518 208.371Z" fill="#E64068"/>
<path d="M297.156 202.844C296.783 202.934 296.39 202.873 296.063 202.674C295.735 202.474 295.501 202.153 295.41 201.78C295.32 201.408 295.381 201.015 295.58 200.687C295.78 200.36 296.101 200.125 296.474 200.035C296.847 199.945 297.24 200.006 297.567 200.206C297.894 200.405 298.129 200.727 298.219 201.099C298.309 201.472 298.247 201.864 298.048 202.191C297.849 202.518 297.528 202.753 297.156 202.844L297.156 202.844ZM300.382 204.808L295.185 206.066C295.126 206.08 295.066 206.044 295.052 205.985C294.922 205.439 295.012 204.865 295.305 204.387C295.597 203.908 296.066 203.565 296.611 203.432L297.909 203.118C298.454 202.986 299.029 203.076 299.508 203.368C299.987 203.66 300.33 204.13 300.463 204.675C300.47 204.703 300.465 204.733 300.45 204.758C300.435 204.783 300.41 204.801 300.382 204.808L300.382 204.808Z" fill="white"/>
<path d="M128.585 72.5543C132.767 72.5543 136.157 69.1641 136.157 64.9822C136.157 60.8003 132.767 57.4102 128.585 57.4102C124.403 57.4102 121.013 60.8003 121.013 64.9822C121.013 69.1641 124.403 72.5543 128.585 72.5543Z" fill="#009C84"/>
<path d="M128.553 65.09C128.051 65.0905 127.569 64.8912 127.213 64.5363C126.857 64.1809 126.657 63.6991 126.657 63.1967C126.657 62.6938 126.856 62.2119 127.211 61.8562C127.567 61.5008 128.048 61.3008 128.551 61.3008C129.054 61.3008 129.536 61.5 129.891 61.8554C130.247 62.2107 130.446 62.693 130.446 63.1954C130.446 63.6974 130.246 64.1789 129.891 64.5342C129.537 64.8891 129.055 65.0892 128.553 65.09L128.553 65.09ZM132.058 68.5885H125.048C124.969 68.5885 124.904 68.5236 124.904 68.4439C124.906 67.709 125.199 67.0048 125.719 66.4856C126.238 65.9659 126.943 65.6734 127.677 65.6718H129.429C130.164 65.6722 130.869 65.9643 131.39 66.484C131.91 67.0041 132.202 67.7087 132.203 68.444C132.203 68.4822 132.188 68.5192 132.161 68.5463C132.134 68.5734 132.097 68.5886 132.058 68.5886L132.058 68.5885Z" fill="white"/>
<path d="M40.9302 122.093C44.7577 122.093 47.8604 118.99 47.8604 115.163C47.8604 111.335 44.7577 108.232 40.9302 108.232C37.1028 108.232 34 111.335 34 115.163C34 118.99 37.1028 122.093 40.9302 122.093Z" fill="#E0E5EA"/>
<path d="M40.9013 115.261C40.4415 115.261 40.0001 115.079 39.6745 114.754C39.3489 114.429 39.1661 113.988 39.1657 113.528C39.1654 113.068 39.3481 112.627 39.673 112.301C39.9982 111.976 40.4392 111.793 40.8994 111.793C41.3592 111.793 41.8003 111.975 42.1259 112.301C42.4511 112.626 42.6338 113.067 42.6338 113.527C42.6334 113.986 42.4507 114.427 42.1259 114.752C41.8014 115.077 41.3607 115.26 40.9012 115.261L40.9013 115.261ZM44.1092 118.463H37.6934C37.6204 118.463 37.561 118.404 37.561 118.331C37.5629 117.658 37.831 117.014 38.307 116.538C38.7826 116.063 39.4271 115.795 40.0997 115.793H41.7029C42.3759 115.794 43.0211 116.061 43.4972 116.537C43.9732 117.013 44.2409 117.658 44.2416 118.331C44.2416 118.366 44.2277 118.399 44.2029 118.424C44.1781 118.449 44.1442 118.463 44.1093 118.463L44.1092 118.463Z" fill="white"/>
<path d="M58.2558 78.2008C63.997 78.2008 68.6511 73.5467 68.6511 67.8055C68.6511 62.0643 63.997 57.4102 58.2558 57.4102C52.5146 57.4102 47.8605 62.0643 47.8605 67.8055C47.8605 73.5467 52.5146 78.2008 58.2558 78.2008Z" fill="#00D0B2"/>
<path d="M58.2126 67.9531C57.5228 67.9537 56.8607 67.6801 56.3723 67.1928C55.8839 66.705 55.6098 66.0435 55.6092 65.3537C55.6087 64.6634 55.8827 64.0019 56.37 63.5135C56.8579 63.0256 57.5194 62.751 58.2097 62.751C58.8995 62.751 59.561 63.0245 60.0494 63.5123C60.5372 64.0002 60.8113 64.6623 60.8113 65.352C60.8108 66.0412 60.5367 66.7022 60.0494 67.19C59.5627 67.6773 58.9017 67.9519 58.2125 67.9531L58.2126 67.9531ZM63.0244 72.756H53.4007C53.2913 72.756 53.2021 72.6669 53.2021 72.5575C53.205 71.5485 53.6071 70.5818 54.3211 69.869C55.0345 69.1556 56.0012 68.754 57.0102 68.7518H59.4149C60.4245 68.7523 61.3922 69.1533 62.1063 69.8668C62.8203 70.5808 63.2219 71.5481 63.223 72.5576C63.223 72.61 63.2022 72.6608 63.1649 72.698C63.1277 72.7352 63.0769 72.7561 63.0245 72.7561L63.0244 72.756Z" fill="white"/>
<path d="M225.138 284.024C230.293 282.727 233.421 277.496 232.123 272.341C230.826 267.186 225.595 264.059 220.44 265.356C215.285 266.653 212.157 271.884 213.455 277.039C214.752 282.194 219.983 285.322 225.138 284.024Z" fill="#E0E5EA"/>
<path d="M222.784 274.833C222.164 274.989 221.508 274.893 220.959 274.566C220.411 274.238 220.015 273.706 219.859 273.087C219.702 272.467 219.799 271.811 220.126 271.263C220.454 270.714 220.986 270.318 221.605 270.162C222.225 270.006 222.881 270.103 223.429 270.43C223.978 270.758 224.373 271.291 224.529 271.91C224.685 272.529 224.588 273.184 224.26 273.732C223.934 274.28 223.402 274.676 222.783 274.833L222.784 274.833ZM228.19 278.058L219.548 280.233C219.45 280.258 219.35 280.198 219.325 280.099C219.1 279.193 219.242 278.234 219.722 277.433C220.202 276.631 220.979 276.052 221.884 275.822L224.044 275.278C224.95 275.051 225.91 275.192 226.712 275.671C227.515 276.151 228.094 276.929 228.323 277.835C228.335 277.882 228.328 277.932 228.303 277.974C228.278 278.016 228.237 278.046 228.19 278.058L228.19 278.058Z" fill="white"/>
<path d="M146.167 61.5175C150.278 61.5175 153.611 58.1848 153.611 54.0737C153.611 49.9626 150.278 46.6299 146.167 46.6299C142.056 46.6299 138.723 49.9626 138.723 54.0737C138.723 58.1848 142.056 61.5175 146.167 61.5175Z" fill="#009C84"/>
<path d="M146.136 54.1792C145.642 54.1796 145.168 53.9837 144.819 53.6348C144.469 53.2855 144.273 52.8118 144.272 52.3179C144.272 51.8236 144.468 51.3498 144.817 51.0001C145.166 50.6508 145.64 50.4541 146.134 50.4541C146.628 50.4541 147.102 50.65 147.452 50.9993C147.801 51.3486 147.997 51.8228 147.997 52.3166C147.997 52.8102 147.801 53.2835 147.452 53.6328C147.103 53.9817 146.63 54.1784 146.136 54.1792L146.136 54.1792ZM149.582 57.6185H142.691C142.612 57.6185 142.548 57.5546 142.548 57.4763C142.55 56.7538 142.838 56.0616 143.35 55.5511C143.861 55.0403 144.553 54.7527 145.275 54.7511H146.997C147.72 54.7515 148.413 55.0386 148.925 55.5495C149.436 56.0608 149.723 56.7535 149.724 57.4763C149.724 57.5139 149.709 57.5502 149.683 57.5769C149.656 57.6036 149.62 57.6185 149.582 57.6185L149.582 57.6185Z" fill="white"/>
<path d="M75.9663 85.1315C83.4086 85.1315 89.4417 79.0984 89.4417 71.6561C89.4417 64.2138 83.4086 58.1807 75.9663 58.1807C68.524 58.1807 62.4908 64.2138 62.4908 71.6561C62.4908 79.0984 68.524 85.1315 75.9663 85.1315Z" fill="#009C84"/>
<path d="M75.9101 71.848C75.016 71.8487 74.1577 71.4941 73.5246 70.8625C72.8915 70.2301 72.5362 69.3725 72.5354 68.4784C72.5347 67.5836 72.89 66.726 73.5217 66.0929C74.1541 65.4605 75.0116 65.1045 75.9064 65.1045C76.8006 65.1045 77.6581 65.4591 78.2912 66.0915C78.9236 66.7238 79.2789 67.5821 79.2789 68.4762C79.2782 69.3696 78.9229 70.2265 78.2912 70.8588C77.6603 71.4904 76.8035 71.8465 75.91 71.8479L75.9101 71.848ZM82.1478 78.074H69.6725C69.5307 78.074 69.4152 77.9585 69.4152 77.8167C69.4188 76.5087 69.9401 75.2556 70.8656 74.3316C71.7905 73.4067 73.0436 72.8862 74.3515 72.8833H77.4688C78.7774 72.884 80.0319 73.4038 80.9576 74.3287C81.8832 75.2542 82.4037 76.5081 82.4052 77.8167C82.4052 77.8847 82.3781 77.9505 82.3299 77.9988C82.2816 78.047 82.2158 78.0741 82.1478 78.0741L82.1478 78.074Z" fill="white"/>
<path style="mix-blend-mode:screen" d="M165.96 128.495C165.132 128.506 164.31 128.351 163.543 128.04C162.775 127.729 162.078 127.269 161.49 126.685C160.903 126.101 160.438 125.406 160.123 124.64C159.807 123.874 159.647 123.053 159.653 122.225C159.62 121.377 159.759 120.531 160.062 119.738C160.364 118.946 160.824 118.222 161.413 117.612C162.003 117.002 162.709 116.517 163.49 116.187C164.272 115.857 165.112 115.689 165.96 115.692C167.656 115.714 169.275 116.403 170.467 117.61C171.659 118.818 172.327 120.447 172.327 122.144C172.316 123.829 171.642 125.441 170.449 126.63C169.257 127.819 167.643 128.49 165.96 128.495V128.495Z" fill="url(#paint0_radial_76_11)"/>
<path d="M211.659 100.612C212.627 100.37 231.184 94.6844 250.468 88.2731C250.468 88.2731 230.479 92.0633 213.09 95.8738C209.06 93.8577 205.03 92.3054 201.202 90.4102C187.621 83.5151 175.007 75.2086 166.202 65.4707L158.585 57.4062L151.21 65.4707C142.405 75.2086 129.791 83.6159 116.23 90.4102C99.5006 98.548 81.9335 104.835 63.8409 109.16L55.781 111.055V119.12C56.5064 162.325 63.8409 198.172 79.5778 227.991C84.2709 237.015 89.7671 245.598 95.9999 253.636C103.395 252.446 111.011 251.035 119.091 249.361C110.594 240.182 103.308 229.951 97.4104 218.918C84.3332 193.757 77.6636 163.354 76.233 127.023C93.1419 122.479 109.563 116.279 125.257 108.515C137.249 102.676 148.448 95.3319 158.585 86.6602C168.63 94.9774 179.572 102.145 191.207 108.031C197.393 105.894 204.043 103.293 211.659 100.672V100.612ZM153.83 301.236C138.625 292.998 124.546 282.834 111.938 270.994C88.3631 273.595 74.3389 269.563 74.3389 269.563C85.4298 269.773 96.5121 268.82 107.405 266.72V266.478C112.18 265.531 117.479 264.583 122.416 263.394C125.257 262.688 128.118 261.962 131.222 261.015C139.675 268.468 148.84 275.073 158.585 280.732C179.299 268.636 195.479 254.523 207.851 237.991C219.518 234.18 229.754 230.39 238.076 227.547L237.834 228.011C221.875 258.414 197.837 282.446 163.562 301.136L158.565 303.998L153.83 301.236ZM235.94 104.18C241.714 106.186 247.601 107.849 253.571 109.16L261.631 111.055L261.389 119.12C261.167 151.176 256.875 178.938 248.533 203.636C246.653 204.853 245.089 206.501 243.971 208.443C242.853 210.386 242.214 212.566 242.106 214.805L217.926 222.628C218.631 221.216 219.336 220.027 220.062 218.837C233.159 193.676 239.809 163.273 240.997 126.942C228.86 123.568 216.942 119.447 205.312 114.604C214.581 111.277 225.059 107.709 236 104.16L235.94 104.18Z" fill="#3088F4"/>
<path d="M165.96 132.668C163.16 132.668 160.474 131.555 158.494 129.574C156.514 127.593 155.401 124.906 155.401 122.104C155.401 119.302 156.514 116.615 158.494 114.634C160.474 112.652 163.16 111.539 165.96 111.539C168.76 111.539 171.446 112.652 173.426 114.634C175.406 116.615 176.518 119.302 176.518 122.104C176.518 124.906 175.406 127.593 173.426 129.574C171.446 131.555 168.76 132.668 165.96 132.668ZM190.019 119.846L180.971 122.93C180.714 126.758 179.027 130.348 176.246 132.989C173.465 135.63 169.793 137.127 165.96 137.184C161.995 137.184 158.192 135.608 155.388 132.803C152.584 129.997 151.009 126.192 151.009 122.225C151.009 118.257 152.584 114.452 155.388 111.647C158.192 108.841 161.995 107.265 165.96 107.265C166.607 107.226 167.256 107.308 167.874 107.507L158.585 101.096C149.73 107.718 140.287 113.515 130.375 118.414C116.739 125.151 102.59 130.793 88.0609 135.289C89.7333 162.104 94.9521 189.725 107.566 213.636C113.956 225.795 122.141 236.922 131.846 246.64C155.421 240.934 180.206 234.059 201.826 227.648C204.688 223.132 207.549 218.616 210.168 213.535C222.782 189.543 228.021 162.003 229.673 135.188C216.091 131.071 202.836 125.942 190.019 119.846ZM169.305 208.837H148.147L151.734 182.729C150.006 181.601 148.595 180.049 147.635 178.221C146.676 176.393 146.2 174.349 146.253 172.285C146.253 170.644 146.576 169.018 147.204 167.502C147.832 165.985 148.752 164.607 149.912 163.446C151.072 162.286 152.45 161.365 153.965 160.737C155.481 160.108 157.106 159.785 158.746 159.785C160.387 159.785 162.011 160.108 163.527 160.737C165.043 161.365 166.42 162.286 167.58 163.446C168.74 164.607 169.66 165.985 170.288 167.502C170.916 169.018 171.239 170.644 171.239 172.285C171.291 174.374 170.791 176.439 169.79 178.273C168.788 180.107 167.321 181.644 165.537 182.729L169.305 208.837ZM144.541 257.749C158.827 253.716 173.576 249.2 187.157 244.704C178.657 253.571 169.054 261.309 158.585 267.728C153.83 264.442 149.074 261.116 144.541 257.789V257.749Z" fill="#3088F4"/>
<g style="mix-blend-mode:multiply">
<path d="M207.851 115.571C217.624 112.244 228.001 108.696 239.285 105.369C244.282 106.78 249.359 108.212 253.571 109.159L261.631 111.055V111.297L219.034 119.845C215.447 118.655 211.639 117.244 207.831 115.571H207.851ZM157.154 134.24C156.544 133.751 155.99 133.197 155.502 132.587C161.204 146.115 184.054 144.926 186.915 127.607L199.287 124.038L192.477 121.034C188.185 122.466 184.135 123.877 180.81 125.067C180.412 127.035 179.601 128.897 178.432 130.53L181.757 129.341C180.616 132.067 178.699 134.397 176.245 136.043C173.791 137.688 170.908 138.575 167.955 138.595C163.965 138.6 160.127 137.07 157.235 134.321L157.154 134.24ZM83.6682 235.47C86.8776 241.218 90.5432 246.7 94.6297 251.861C102.924 251.87 111.203 251.155 119.373 249.724V249.724C115.311 245.351 111.497 240.754 107.949 235.954C99.8892 236.461 91.8016 236.299 83.7689 235.47H83.6682ZM121.509 235.006C124.849 239.312 128.514 243.357 132.471 247.103C146.439 243.648 160.063 238.924 173.173 232.99L204.567 223.131L208.858 216.014L201 218.615C175.036 226.675 148.322 232.079 121.268 234.744L121.509 235.006ZM250.77 197.002C247.799 197.336 244.956 198.4 242.495 200.099C240.035 201.798 238.032 204.079 236.665 206.74L223.81 211.014C222.621 213.393 221.674 215.53 220.485 217.909C226.187 216.014 232.131 214.099 237.854 211.861C238.32 208.597 239.745 205.546 241.948 203.094C244.151 200.642 247.032 198.901 250.226 198.091L250.71 196.901L250.77 197.002Z" fill="#414042"/>
</g>
<path d="M79.99 227.88C78.5533 225.408 77.284 222.749 76.0275 220.05C76.025 219.978 76.0073 219.906 75.9731 219.84L75.4895 218.892C75.3657 218.649 75.0703 218.55 74.8253 218.67C74.5803 218.789 74.4759 219.082 74.5906 219.33L74.5964 219.342C74.6911 219.546 74.7859 219.751 74.8807 219.955C65.6472 227.655 59.6404 233.708 56.3097 238.333C54.6261 240.671 53.6021 242.676 53.2082 244.37C52.8109 246.079 53.049 247.51 53.9424 248.608C53.9535 248.622 53.9653 248.635 53.9777 248.647C57.1556 251.806 63.4379 255.527 70.9687 255.999C71.2153 256.014 71.4362 255.848 71.4886 255.606C71.541 255.365 71.4093 255.121 71.1786 255.033C69.7044 254.469 68.813 253.719 68.3248 252.876C67.8369 252.033 67.7146 251.034 67.9017 249.898C68.2807 247.598 69.9067 244.884 71.9821 242.243C74.0441 239.619 76.4952 237.135 78.4362 235.303C79.4057 234.388 80.2455 233.638 80.8424 233.117C81.1409 232.857 81.3785 232.654 81.5412 232.516C81.5753 232.487 81.6061 232.461 81.6335 232.438C81.7764 232.421 81.9078 232.342 81.99 232.217C82.1021 232.047 82.1 231.826 81.9848 231.659C81.1905 230.502 80.5324 229.258 80.0237 227.95C80.0143 227.926 80.003 227.902 79.99 227.88Z" fill="#3088F4" stroke="#3088F4" stroke-linejoin="round"/>
<path d="M261.089 119.703L260.909 119.853V120.087C260.909 126.003 260.688 131.457 260.446 137.163L260.394 138.396L261.29 137.547C265.931 133.145 271.483 127.59 276.411 121.982C281.329 116.385 285.658 110.699 287.816 106.043C288.551 104.458 288.853 103.123 288.766 102.004C288.677 100.866 288.187 99.9858 287.417 99.3369C286.662 98.7003 285.659 98.3039 284.555 98.0639C283.448 97.8231 282.204 97.7324 280.934 97.7324V98.2324L280.494 97.9961C278.611 101.505 273.898 109.056 261.089 119.703Z" fill="#3088F4" stroke="#3088F4"/>
<path d="M257.137 226.458C259.213 226.427 261.234 225.783 262.946 224.608C264.658 223.434 265.987 221.78 266.764 219.854C267.542 217.928 267.736 215.815 267.32 213.78C266.904 211.745 265.898 209.877 264.427 208.411C262.956 206.945 261.086 205.945 259.051 205.537C257.015 205.128 254.904 205.33 252.982 206.115C251.06 206.901 249.412 208.236 248.245 209.954C247.077 211.672 246.442 213.696 246.418 215.773C246.407 217.183 246.677 218.58 247.212 219.884C247.748 221.188 248.538 222.372 249.536 223.367C250.534 224.362 251.72 225.148 253.025 225.679C254.331 226.209 255.728 226.474 257.137 226.458V226.458ZM75.6083 220.047C56.7884 235.712 51.4286 244.503 54.4108 248.273C73.2105 267.043 187.399 229.281 237.935 211.983C241.017 193.938 265.54 193.475 270.174 208.434C262.557 195.854 243.032 200.128 242.307 215.067C191.389 232.89 68.7977 275.148 50.4614 251.64C41.656 241.196 67.1253 220.309 73.553 215.067L75.709 220.067L75.6083 220.047Z" fill="#3088F4"/>
<path d="M259.986 138.184C269.255 129.393 283.15 115.006 287.402 105.833C292.157 95.3893 276.461 98.2321 271.282 99.4216C254.618 102.748 228.424 111.518 212.002 117.002C201.927 120.329 192.96 123.413 185.344 126.014C182.261 144.159 157.497 144.543 152.983 129.583C160.358 141.922 180.347 138.131 181.072 122.688C196.527 117.244 218.671 109.643 242.468 102.285C291.029 85.1879 298.887 93.2522 292.218 107.97C286.979 119.603 268.61 137.458 259.321 146.006L261.046 137.184L259.986 138.184Z" fill="#3088F4"/>
<rect x="141.854" y="159.303" width="30.3519" height="55.6451" fill="#3088F4"/>
<path d="M263.81 211.017C264.049 212.686 263.79 214.388 263.066 215.91C262.277 217.575 260.991 218.953 259.384 219.854C259.372 219.861 259.362 219.872 259.356 219.885C259.35 219.898 259.349 219.913 259.353 219.927C259.356 219.941 259.364 219.954 259.375 219.963C259.387 219.972 259.401 219.977 259.415 219.977C259.691 219.98 259.967 219.969 260.242 219.943C261.266 219.843 262.259 219.54 263.164 219.05C264.068 218.56 264.865 217.893 265.508 217.09C265.669 216.016 265.612 214.92 265.341 213.868C265.069 212.816 264.589 211.829 263.927 210.967C263.918 210.956 263.906 210.948 263.892 210.944C263.878 210.941 263.863 210.942 263.85 210.947C263.836 210.953 263.825 210.963 263.818 210.976C263.811 210.988 263.808 211.003 263.81 211.017V211.017Z" fill="white"/>
<path d="M264.938 219.124C264.943 219.11 264.944 219.095 264.94 219.081C264.936 219.067 264.927 219.055 264.916 219.046C264.904 219.038 264.89 219.033 264.875 219.033C264.861 219.033 264.846 219.038 264.835 219.047C263.542 220.069 261.985 220.701 260.346 220.872C258.433 221.072 256.509 220.634 254.871 219.626C254.859 219.618 254.844 219.615 254.829 219.616C254.814 219.618 254.801 219.624 254.79 219.635C254.779 219.645 254.772 219.659 254.77 219.673C254.768 219.688 254.771 219.703 254.779 219.716C254.98 220.067 255.21 220.402 255.465 220.716C256.699 222.24 258.448 223.26 260.382 223.585C261.403 223.187 262.333 222.586 263.116 221.82C263.899 221.053 264.518 220.136 264.938 219.124V219.124Z" fill="white"/>
<path d="M256.315 207.909C257.953 208.585 259.356 209.725 260.353 211.189C261.33 212.644 261.827 214.368 261.773 216.12C261.772 216.135 261.776 216.15 261.784 216.162C261.793 216.175 261.805 216.184 261.82 216.188C261.834 216.192 261.849 216.192 261.863 216.186C261.877 216.181 261.889 216.17 261.896 216.157C262.011 215.961 262.118 215.76 262.216 215.553C262.665 214.612 262.918 213.589 262.959 212.547C263 211.505 262.828 210.465 262.454 209.492C261.597 208.817 260.614 208.319 259.564 208.025C258.513 207.732 257.414 207.649 256.332 207.782C256.317 207.784 256.303 207.79 256.293 207.801C256.282 207.811 256.276 207.825 256.274 207.839C256.272 207.854 256.275 207.869 256.283 207.881C256.29 207.894 256.302 207.904 256.315 207.909V207.909Z" fill="white"/>
<path d="M258.36 223.993C256.949 223.416 255.706 222.495 254.742 221.314C254.456 220.961 254.199 220.586 253.972 220.193C253.176 218.798 252.795 217.205 252.877 215.601C252.877 215.586 252.873 215.572 252.865 215.56C252.856 215.548 252.844 215.539 252.83 215.535C252.816 215.531 252.801 215.531 252.788 215.536C252.774 215.541 252.763 215.551 252.755 215.563C252.596 215.828 252.453 216.103 252.329 216.386C251.524 218.304 251.478 220.456 252.198 222.407C253.058 223.085 254.044 223.585 255.099 223.879C256.154 224.173 257.256 224.255 258.343 224.12C258.357 224.118 258.371 224.112 258.382 224.102C258.393 224.091 258.399 224.078 258.401 224.063C258.403 224.048 258.4 224.033 258.393 224.021C258.385 224.008 258.374 223.998 258.36 223.993V223.993Z" fill="white"/>
<path d="M250.887 220.881C250.636 219.242 250.837 217.565 251.469 216.031C252.219 214.283 253.549 212.849 255.236 211.97C255.248 211.963 255.259 211.952 255.265 211.939C255.271 211.926 255.273 211.911 255.269 211.897C255.266 211.882 255.258 211.87 255.247 211.86C255.235 211.851 255.221 211.846 255.207 211.846C254.975 211.841 254.743 211.847 254.511 211.864C253.48 211.961 252.479 212.262 251.566 212.75C250.653 213.237 249.846 213.902 249.192 214.704C249.018 215.795 249.068 216.91 249.339 217.981C249.61 219.052 250.097 220.056 250.769 220.932C250.778 220.944 250.791 220.952 250.805 220.956C250.819 220.96 250.834 220.958 250.848 220.953C250.861 220.947 250.873 220.937 250.88 220.924C250.887 220.911 250.889 220.896 250.887 220.881V220.881Z" fill="white"/>
<path d="M259.729 212.125C259.741 212.133 259.756 212.136 259.77 212.135C259.785 212.134 259.799 212.127 259.809 212.117C259.82 212.107 259.827 212.094 259.83 212.08C259.832 212.065 259.829 212.05 259.822 212.037C259.711 211.834 259.59 211.635 259.459 211.444C258.863 210.598 258.104 209.88 257.227 209.331C256.35 208.782 255.372 208.413 254.351 208.245C253.318 208.636 252.375 209.234 251.581 210.002C250.787 210.77 250.158 211.692 249.732 212.711C249.726 212.725 249.725 212.74 249.729 212.754C249.733 212.768 249.742 212.781 249.753 212.79C249.765 212.798 249.779 212.803 249.794 212.803C249.809 212.802 249.823 212.797 249.834 212.788C251.131 211.754 252.686 211.093 254.33 210.877C256.22 210.658 258.127 211.099 259.729 212.125V212.125Z" fill="white"/>
<path d="M172.754 117.071C172.993 118.74 172.734 120.442 172.01 121.964C171.222 123.628 169.935 125.006 168.329 125.907C168.316 125.914 168.306 125.926 168.3 125.939C168.295 125.952 168.293 125.967 168.297 125.981C168.3 125.995 168.308 126.008 168.32 126.017C168.331 126.026 168.345 126.031 168.36 126.031C168.636 126.034 168.912 126.023 169.186 125.997C170.21 125.897 171.204 125.593 172.108 125.103C173.012 124.613 173.809 123.947 174.452 123.144C174.614 122.07 174.557 120.974 174.285 119.922C174.014 118.87 173.533 117.883 172.872 117.021C172.863 117.01 172.85 117.001 172.836 116.998C172.822 116.994 172.807 116.995 172.794 117.001C172.781 117.007 172.769 117.017 172.762 117.029C172.755 117.042 172.752 117.057 172.754 117.071V117.071Z" fill="white"/>
<path d="M173.882 125.178C173.887 125.164 173.888 125.149 173.884 125.135C173.88 125.121 173.872 125.109 173.86 125.1C173.848 125.091 173.834 125.087 173.819 125.087C173.805 125.087 173.791 125.092 173.779 125.101C172.486 126.122 170.929 126.755 169.29 126.926C167.378 127.126 165.453 126.688 163.816 125.68C163.803 125.672 163.788 125.669 163.774 125.67C163.759 125.672 163.745 125.678 163.734 125.688C163.723 125.699 163.717 125.712 163.715 125.727C163.713 125.742 163.716 125.757 163.723 125.77C163.925 126.121 164.154 126.455 164.409 126.77C165.644 128.294 167.392 129.314 169.327 129.638C170.347 129.24 171.277 128.64 172.06 127.873C172.843 127.107 173.463 126.19 173.882 125.178V125.178Z" fill="white"/>
<path d="M165.26 113.963C166.897 114.638 168.3 115.778 169.297 117.243C170.275 118.697 170.771 120.422 170.717 122.174C170.716 122.189 170.72 122.204 170.729 122.216C170.737 122.228 170.75 122.238 170.764 122.242C170.778 122.246 170.794 122.245 170.807 122.24C170.821 122.234 170.833 122.224 170.84 122.211C170.956 122.015 171.062 121.813 171.16 121.607C171.609 120.666 171.862 119.643 171.903 118.601C171.944 117.559 171.772 116.519 171.399 115.545C170.541 114.871 169.559 114.373 168.508 114.079C167.457 113.786 166.359 113.703 165.276 113.836C165.261 113.838 165.248 113.844 165.237 113.854C165.227 113.865 165.22 113.878 165.218 113.893C165.216 113.908 165.219 113.922 165.227 113.935C165.234 113.948 165.246 113.957 165.26 113.963V113.963Z" fill="white"/>
<path d="M167.304 130.046C165.894 129.469 164.65 128.549 163.686 127.368C163.4 127.015 163.143 126.64 162.916 126.247C162.12 124.852 161.74 123.258 161.821 121.654C161.822 121.64 161.817 121.626 161.809 121.614C161.8 121.602 161.788 121.593 161.775 121.589C161.761 121.585 161.746 121.585 161.732 121.59C161.719 121.595 161.707 121.604 161.699 121.617C161.54 121.882 161.398 122.157 161.273 122.439C160.468 124.358 160.422 126.51 161.143 128.461C162.003 129.139 162.989 129.639 164.043 129.933C165.098 130.227 166.2 130.309 167.287 130.173C167.302 130.172 167.316 130.166 167.326 130.155C167.337 130.145 167.344 130.131 167.346 130.117C167.348 130.102 167.345 130.087 167.337 130.074C167.33 130.061 167.318 130.052 167.304 130.046V130.046Z" fill="white"/>
<path d="M159.831 126.935C159.58 125.296 159.781 123.618 160.413 122.085C161.163 120.337 162.494 118.903 164.18 118.024C164.193 118.017 164.203 118.006 164.209 117.993C164.215 117.979 164.217 117.964 164.214 117.95C164.21 117.936 164.202 117.923 164.191 117.914C164.18 117.905 164.166 117.9 164.151 117.899C163.919 117.895 163.687 117.901 163.455 117.918C162.425 118.015 161.424 118.316 160.511 118.803C159.597 119.291 158.79 119.955 158.137 120.758C157.962 121.849 158.012 122.964 158.283 124.034C158.554 125.105 159.041 126.11 159.714 126.986C159.723 126.998 159.735 127.006 159.749 127.01C159.764 127.013 159.779 127.012 159.792 127.006C159.806 127 159.817 126.99 159.824 126.977C159.831 126.965 159.834 126.95 159.831 126.935V126.935Z" fill="white"/>
<path d="M168.673 118.178C168.685 118.186 168.7 118.19 168.715 118.189C168.729 118.187 168.743 118.181 168.754 118.171C168.764 118.161 168.771 118.148 168.774 118.133C168.776 118.119 168.774 118.104 168.767 118.091C168.655 117.888 168.535 117.689 168.404 117.497C167.807 116.652 167.048 115.934 166.171 115.385C165.294 114.836 164.316 114.466 163.295 114.299C162.262 114.69 161.32 115.288 160.525 116.056C159.731 116.824 159.102 117.746 158.676 118.765C158.671 118.779 158.67 118.794 158.673 118.808C158.677 118.822 158.686 118.835 158.698 118.843C158.709 118.852 158.724 118.857 158.738 118.856C158.753 118.856 158.767 118.851 158.779 118.841C160.075 117.807 161.63 117.147 163.274 116.931C165.164 116.712 167.071 117.153 168.673 118.178V118.178Z" fill="white"/>
<path d="M193.876 165.943C194.012 168.135 192.727 169.664 191.276 171.078C182.079 180.075 172.865 189.06 163.635 198.032C162.213 199.428 160.782 200.823 159.312 202.18C158.726 202.789 158.019 203.274 157.233 203.605C156.448 203.937 155.601 204.108 154.745 204.108C153.889 204.108 153.042 203.937 152.257 203.605C151.472 203.274 150.764 202.789 150.179 202.18C145.564 197.751 140.978 193.293 136.421 188.807C133.948 186.358 133.296 183.587 134.474 181.3C135.086 180.002 136.095 178.921 137.362 178.204C138.629 177.487 140.093 177.169 141.552 177.294C143.397 177.638 145.072 178.569 146.313 179.942C148.66 182.22 151.094 184.422 153.294 186.833C154.531 188.19 155.242 187.953 156.361 186.833C164.865 178.481 173.394 170.163 181.949 161.881C186.048 157.895 191.208 158.616 193.438 163.456C193.763 164.246 193.912 165.093 193.876 165.943V165.943Z" fill="white"/>
<path d="M259.47 194.473C264.785 194.341 268.986 189.926 268.855 184.612C268.723 179.298 264.309 175.096 258.994 175.228C253.68 175.359 249.479 179.774 249.61 185.088C249.741 190.402 254.156 194.604 259.47 194.473Z" fill="#FF7E64"/>
<path d="M259.196 184.988C258.557 185.004 257.938 184.766 257.475 184.326C257.012 183.886 256.743 183.28 256.726 182.641C256.71 182.002 256.949 181.384 257.389 180.92C257.829 180.458 258.435 180.188 259.074 180.172C259.712 180.157 260.331 180.395 260.794 180.835C261.257 181.275 261.526 181.882 261.542 182.521C261.557 183.158 261.318 183.777 260.878 184.239C260.439 184.701 259.834 184.971 259.196 184.988L259.196 184.988ZM263.76 189.323L254.852 189.544C254.75 189.546 254.666 189.466 254.663 189.364C254.643 188.43 254.993 187.526 255.637 186.85C256.282 186.174 257.167 185.78 258.101 185.754L260.327 185.699C261.261 185.677 262.166 186.026 262.844 186.67C263.521 187.314 263.915 188.201 263.939 189.135C263.94 189.184 263.922 189.231 263.888 189.266C263.855 189.302 263.808 189.322 263.76 189.323L263.76 189.323Z" fill="white"/>
<path d="M318.04 188.218C321.176 187.634 323.245 184.619 322.662 181.484C322.079 178.348 319.064 176.279 315.928 176.862C312.792 177.445 310.723 180.46 311.306 183.596C311.89 186.732 314.904 188.801 318.04 188.218Z" fill="#FF7E64"/>
<path d="M316.975 182.625C316.599 182.696 316.209 182.614 315.893 182.397C315.577 182.18 315.36 181.847 315.289 181.47C315.219 181.093 315.302 180.704 315.518 180.388C315.735 180.072 316.068 179.854 316.445 179.784C316.822 179.714 317.211 179.796 317.528 180.013C317.844 180.23 318.061 180.564 318.131 180.941C318.2 181.317 318.118 181.706 317.901 182.022C317.685 182.337 317.352 182.555 316.975 182.625L316.975 182.625ZM320.092 184.76L314.835 185.737C314.775 185.749 314.718 185.709 314.707 185.649C314.606 185.098 314.727 184.529 315.045 184.067C315.362 183.605 315.849 183.287 316.4 183.184L317.713 182.939C318.265 182.837 318.834 182.958 319.297 183.275C319.759 183.592 320.077 184.08 320.18 184.631C320.185 184.66 320.179 184.69 320.162 184.714C320.146 184.738 320.12 184.754 320.092 184.76L320.092 184.76Z" fill="white"/>
<path d="M227.25 192.127C236.372 191.504 243.262 183.603 242.638 174.481C242.014 165.359 234.114 158.47 224.992 159.093C215.87 159.717 208.98 167.618 209.604 176.74C210.228 185.862 218.128 192.751 227.25 192.127Z" fill="#FF7E64"/>
<path d="M226.068 175.851C224.973 175.927 223.891 175.564 223.062 174.843C222.233 174.121 221.725 173.1 221.65 172.004C221.574 170.907 221.937 169.826 222.659 168.997C223.381 168.169 224.402 167.661 225.499 167.586C226.595 167.511 227.676 167.874 228.505 168.596C229.333 169.318 229.84 170.34 229.915 171.436C229.989 172.531 229.625 173.611 228.904 174.439C228.184 175.266 227.163 175.774 226.068 175.851L226.068 175.851ZM234.236 182.96L218.945 184.005C218.771 184.017 218.619 183.885 218.608 183.711C218.502 182.108 219.036 180.528 220.093 179.318C221.15 178.107 222.642 177.364 224.245 177.251L228.066 176.99C229.67 176.881 231.251 177.413 232.463 178.469C233.675 179.526 234.418 181.019 234.53 182.623C234.535 182.706 234.508 182.789 234.453 182.852C234.397 182.916 234.319 182.954 234.236 182.96L234.236 182.96Z" fill="white"/>
<path d="M199.153 265.07C204.034 265.378 208.24 261.671 208.548 256.79C208.856 251.909 205.149 247.703 200.268 247.395C195.388 247.087 191.181 250.794 190.873 255.675C190.565 260.556 194.272 264.762 199.153 265.07Z" fill="#FF7E64"/>
<path d="M199.666 256.357C199.079 256.32 198.531 256.052 198.142 255.611C197.753 255.171 197.555 254.593 197.592 254.007C197.629 253.42 197.897 252.872 198.338 252.483C198.779 252.095 199.356 251.897 199.943 251.934C200.529 251.971 201.077 252.239 201.466 252.68C201.854 253.121 202.052 253.698 202.015 254.285C201.977 254.871 201.709 255.418 201.268 255.806C200.828 256.195 200.252 256.393 199.666 256.357L199.666 256.357ZM203.499 260.698L195.317 260.182C195.224 260.176 195.153 260.095 195.159 260.002C195.216 259.145 195.609 258.344 196.255 257.777C196.899 257.208 197.743 256.919 198.601 256.971L200.645 257.1C201.503 257.155 202.305 257.548 202.873 258.192C203.442 258.838 203.732 259.682 203.678 260.54C203.676 260.585 203.655 260.627 203.621 260.656C203.588 260.686 203.544 260.701 203.499 260.698L203.499 260.698Z" fill="white"/>
<path d="M236.943 258.086C243.274 257.306 247.775 251.542 246.995 245.21C246.216 238.879 240.451 234.378 234.12 235.158C227.789 235.937 223.288 241.702 224.067 248.033C224.847 254.364 230.611 258.865 236.943 258.086Z" fill="#E64068"/>
<path d="M235.504 246.791C234.743 246.885 233.976 246.673 233.371 246.202C232.766 245.731 232.374 245.038 232.28 244.278C232.185 243.517 232.398 242.75 232.869 242.145C233.341 241.541 234.033 241.148 234.794 241.054C235.555 240.961 236.322 241.173 236.926 241.644C237.531 242.116 237.923 242.809 238.016 243.57C238.109 244.33 237.897 245.096 237.426 245.7C236.955 246.303 236.264 246.696 235.504 246.791L235.504 246.791ZM241.462 251.434L230.849 252.741C230.729 252.756 230.618 252.67 230.603 252.549C230.47 251.436 230.782 250.315 231.472 249.432C232.162 248.548 233.174 247.974 234.286 247.835L236.938 247.508C238.051 247.372 239.173 247.683 240.058 248.373C240.942 249.063 241.516 250.075 241.654 251.188C241.661 251.246 241.645 251.305 241.609 251.351C241.573 251.397 241.52 251.427 241.462 251.434L241.462 251.434Z" fill="white"/>
<path d="M211.024 212.801C214.766 211.996 217.146 208.31 216.341 204.568C215.536 200.826 211.849 198.446 208.108 199.251C204.366 200.056 201.985 203.742 202.791 207.484C203.596 211.226 207.282 213.606 211.024 212.801Z" fill="#E64068"/>
<path d="M209.558 206.128C209.109 206.225 208.639 206.14 208.252 205.891C207.866 205.641 207.594 205.249 207.497 204.799C207.4 204.349 207.486 203.88 207.735 203.493C207.984 203.107 208.377 202.835 208.827 202.738C209.276 202.641 209.746 202.727 210.133 202.976C210.519 203.226 210.79 203.619 210.887 204.068C210.983 204.518 210.898 204.987 210.648 205.373C210.4 205.759 210.007 206.031 209.558 206.128L209.558 206.128ZM213.368 208.583L207.096 209.933C207.025 209.949 206.954 209.903 206.939 209.832C206.799 209.174 206.925 208.487 207.291 207.923C207.656 207.358 208.229 206.96 208.887 206.817L210.454 206.48C211.112 206.339 211.799 206.464 212.364 206.829C212.93 207.194 213.327 207.768 213.47 208.426C213.477 208.46 213.471 208.496 213.451 208.526C213.432 208.555 213.402 208.576 213.368 208.583L213.368 208.583Z" fill="white"/>
<path d="M286.089 186.644C290.483 185.845 293.397 181.636 292.598 177.243C291.799 172.849 287.59 169.936 283.197 170.734C278.803 171.533 275.889 175.742 276.688 180.136C277.487 184.529 281.696 187.443 286.089 186.644Z" fill="#E0E5EA"/>
<path d="M284.63 178.808C284.103 178.905 283.558 178.787 283.116 178.482C282.675 178.177 282.373 177.709 282.277 177.181C282.18 176.653 282.298 176.109 282.603 175.667C282.908 175.226 283.376 174.924 283.904 174.828C284.432 174.732 284.977 174.849 285.418 175.154C285.859 175.46 286.161 175.928 286.257 176.456C286.353 176.984 286.235 177.528 285.93 177.969C285.625 178.409 285.158 178.711 284.63 178.808L284.63 178.808ZM288.981 181.814L281.616 183.153C281.533 183.168 281.452 183.112 281.437 183.029C281.299 182.256 281.472 181.46 281.919 180.816C282.366 180.17 283.05 179.729 283.821 179.587L285.662 179.252C286.434 179.112 287.231 179.284 287.876 179.731C288.522 180.178 288.964 180.862 289.105 181.634C289.113 181.675 289.104 181.716 289.08 181.75C289.057 181.784 289.021 181.807 288.981 181.814L288.981 181.814Z" fill="white"/>
<path d="M244.051 174.092C249.783 173.78 254.177 168.879 253.865 163.147C253.552 157.414 248.652 153.02 242.919 153.333C237.186 153.645 232.793 158.546 233.105 164.278C233.418 170.011 238.318 174.405 244.051 174.092Z" fill="#E64068"/>
<path d="M243.45 163.862C242.761 163.9 242.085 163.663 241.571 163.203C241.057 162.743 240.747 162.097 240.709 161.408C240.671 160.719 240.908 160.044 241.368 159.529C241.829 159.016 242.474 158.705 243.164 158.668C243.852 158.63 244.528 158.867 245.042 159.328C245.556 159.789 245.866 160.435 245.903 161.123C245.94 161.812 245.702 162.487 245.242 163C244.783 163.513 244.138 163.823 243.45 163.862L243.45 163.862ZM248.516 168.396L238.906 168.92C238.797 168.926 238.703 168.842 238.697 168.732C238.645 167.725 238.994 166.738 239.668 165.987C240.342 165.236 241.285 164.782 242.293 164.725L244.694 164.594C245.702 164.54 246.69 164.887 247.442 165.561C248.194 166.235 248.647 167.179 248.703 168.187C248.706 168.239 248.688 168.291 248.653 168.33C248.618 168.37 248.568 168.393 248.516 168.396L248.516 168.396Z" fill="white"/>
<path d="M185.567 218.089C191.875 218.089 196.989 212.976 196.989 206.667C196.989 200.359 191.875 195.245 185.567 195.245C179.258 195.245 174.145 200.359 174.145 206.667C174.145 212.976 179.258 218.089 185.567 218.089Z" fill="#FF7E64"/>
<path d="M185.519 206.83C184.761 206.831 184.034 206.53 183.497 205.995C182.96 205.459 182.659 204.732 182.659 203.974C182.658 203.216 182.959 202.489 183.495 201.952C184.031 201.416 184.758 201.114 185.516 201.114C186.274 201.114 187.001 201.415 187.537 201.951C188.073 202.487 188.375 203.214 188.375 203.972C188.374 204.73 188.073 205.456 187.537 205.992C187.003 206.527 186.276 206.829 185.519 206.83L185.519 206.83ZM190.806 212.108H180.232C180.112 212.108 180.014 212.01 180.014 211.889C180.017 210.781 180.459 209.719 181.243 208.935C182.027 208.151 183.089 207.71 184.198 207.708H186.84C187.95 207.708 189.013 208.149 189.798 208.933C190.582 209.717 191.023 210.78 191.025 211.89C191.025 211.947 191.002 212.003 190.961 212.044C190.92 212.085 190.864 212.108 190.806 212.108L190.806 212.108Z" fill="white"/>
<defs>
<radialGradient id="paint0_radial_76_11" cx="0" cy="0" r="1" gradientUnits="userSpaceOnUse" gradientTransform="translate(159.693 117.164) scale(8.2815 8.28632)">
<stop stop-color="white"/>
<stop offset="0.17" stop-color="#BCBCBC"/>
<stop offset="0.33" stop-color="#838383"/>
<stop offset="0.49" stop-color="#545454"/>
<stop offset="0.64" stop-color="#2F2F2F"/>
<stop offset="0.78" stop-color="#151515"/>
<stop offset="0.9" stop-color="#060606"/>
<stop offset="1"/>
</radialGradient>
</defs>
</svg>
