<svg width="32" height="34" viewBox="0 0 32 34" fill="none" xmlns="http://www.w3.org/2000/svg">
<path fill-rule="evenodd" clip-rule="evenodd" d="M27.6631 6.75672L32 6.76143V23.9656L30.0381 26.5608H25.8734V26.3543C24.9059 26.6568 23.9699 26.8103 23.0885 26.8103C21.9078 26.8103 21.3238 26.6728 20.5525 26.3773C19.7436 26.0677 19.1041 25.5948 18.6076 24.9383L17.369 26.5646H15.9747C15.8979 26.9355 15.7285 27.3689 15.6259 27.5948C15.4716 27.9369 15.3789 28.127 15.2744 28.3044C14.5836 29.4752 14.4368 29.6903 13.6914 30.639C13.3507 31.0719 12.9459 31.5072 12.4909 31.8408C11.2485 32.7524 9.52707 33.1773 7.07343 33.1773C4.32337 33.1773 2.67672 32.7595 1.56851 31.7802C0.189642 30.5614 0 28.808 0 27.0946C0 25.9049 0.262147 24.9779 0.865432 24.1402C0.882981 24.114 1.24232 23.5987 1.50915 23.2161L1.51035 23.2144L1.51038 23.2144L1.51389 23.2093C1.66609 22.9911 1.7871 22.8176 1.79528 22.8056C1.74215 22.4875 1.71579 22.1397 1.71579 21.7515C1.71579 21.4419 1.77878 21.0734 2.08093 20.2969C1.72707 19.9966 1.41743 19.6404 1.15857 19.2381C0.516211 18.2381 0.190568 16.9411 0.190568 15.3844C0.190568 13.7633 0.55579 12.4296 1.27394 11.4014C1.29403 11.3712 2.17215 10.1134 2.66756 9.40376L2.99865 8.92943C3.2208 8.59158 3.47916 8.28472 3.77373 8.01086C4.86265 6.99815 6.39916 6.48429 8.34029 6.48429C8.81229 6.48429 9.19394 6.49322 9.58173 6.52615C10.1469 6.57364 11.1652 6.76564 11.1652 6.76564H13.1874L13.1892 2.45693L15.0269 0H19.3167V6.76143H23.0669V12.8362L27.6631 6.75672ZM14.1032 20.5824C14.6552 20.9824 15.0613 21.5434 15.3103 22.2493C15.5328 22.8846 15.6425 23.6658 15.6423 24.6375C15.6423 25.5264 15.5072 26.2784 15.2319 26.9359C14.9379 27.6342 14.4809 28.2154 13.8724 28.6615C12.7614 29.4775 11.1755 29.8573 8.88423 29.8573C6.32608 29.8573 4.82301 29.494 3.8588 28.6418C2.69552 27.6136 2.53552 26.0423 2.53552 24.4992C2.53552 22.5703 3.3543 21.6385 4.49408 20.744C4.47152 20.6837 4.44987 20.6216 4.43008 20.5571C4.30907 20.1675 4.25122 19.7091 4.25122 19.1557C4.25122 18.8846 4.33316 18.5086 4.73408 17.5509L4.74864 17.5163C4.75723 17.496 4.7658 17.4758 4.77358 17.4555C4.29728 17.1491 3.89686 16.7458 3.57872 16.2507C3.01257 15.3693 2.726 14.2046 2.726 12.7891C2.726 10.9213 3.24415 9.49217 4.26672 8.54109C5.21728 7.65739 6.58764 7.20888 8.33964 7.20888C9.05636 7.20888 9.77728 7.27288 10.486 7.38252C10.6432 7.40695 10.7971 7.44038 10.9458 7.48273H14.8451V10.2497H13.7792C13.7938 10.2888 13.8079 10.3283 13.8216 10.3683C13.9157 10.6394 14.1444 11.8079 14.1444 12.789C14.1444 14.7589 13.6367 16.1552 12.5915 17.0592C11.6235 17.8959 10.2381 18.2855 8.23059 18.2855C8.09745 18.2855 7.74966 18.2691 7.39438 18.2437C7.23867 18.6752 7.11674 19.0512 7.09089 19.1947C7.09089 19.3547 7.0951 19.4747 7.1031 19.5542C7.19724 19.581 7.38267 19.6187 7.72996 19.6455C8.27775 19.6883 9.07918 19.6944 9.86503 19.6944C11.673 19.6944 13.0863 19.8455 14.1032 20.5824ZM8.31261 10.0084C7.26697 10.0084 6.57661 10.1891 6.20204 10.5609C5.80954 10.9505 5.6199 11.6789 5.6199 12.789C5.6199 13.8846 5.80625 14.5961 6.18975 14.9632C6.56204 15.3204 7.2364 15.4869 8.31261 15.4869C9.52861 15.4869 10.2764 15.3175 10.667 14.9542C11.1658 14.4893 11.2228 13.496 11.2228 12.7891C11.2228 11.6498 11.042 10.9449 10.6543 10.5707C10.2617 10.1919 9.49611 10.0084 8.31261 10.0084ZM8.91168 27.0583C10.3879 27.0583 11.4289 26.8498 12.0068 26.4395C12.3394 26.2022 12.7211 25.7849 12.721 24.6376C12.721 23.1595 12.3695 22.9195 12.2359 22.8287C11.8293 22.5501 10.9724 22.4936 9.81097 22.4936C8.93796 22.4936 7.45939 22.4447 6.80482 22.4221C5.56996 23.3143 5.42882 23.6579 5.42882 24.471C5.42882 25.6207 5.56811 26.2098 5.91118 26.5082C6.33568 26.8781 7.31783 27.0583 8.91168 27.0583ZM28.4089 7.4858V19.7173C27.7481 20.074 26.3896 20.6909 24.8987 20.6909C23.3891 20.6909 23.0592 20.3135 22.8502 19.9267C22.5867 19.4373 22.342 18.5733 22.342 15.5851V7.4858H19.4756V15.6402C19.4756 18.266 19.6436 20.2853 20.4638 21.6058C20.902 22.3103 21.501 22.8011 22.2964 23.1051C22.9829 23.3677 23.8102 23.4905 24.8987 23.4905C26.2347 23.4905 27.4916 23.106 28.4089 22.7258V23.2407H31.2752V7.4858H28.4089ZM15.7251 21.4964V0.724614H18.5919V23.238H17.4662C16.5044 23.238 15.7251 22.4583 15.7251 21.4964Z" fill="#2A3544"/>
</svg>
