<svg width="1274" height="347" viewBox="0 0 1274 347" fill="none" xmlns="http://www.w3.org/2000/svg">
<rect width="1274" height="347" fill="white"/>
<path d="M211.563 209H222.411V206.84H214.803L219.099 202.568C220.755 200.912 222.099 199.112 222.099 197.024C222.099 193.712 219.483 191.888 216.867 191.888C214.683 191.888 212.643 192.968 211.563 195.2L213.435 196.304C214.155 194.792 215.355 194.048 216.891 194.048C218.451 194.048 219.867 195.08 219.867 197.048C219.867 198.464 218.811 199.808 217.491 201.128L211.563 207.176V209ZM236.35 203.72H234.31V198.968H232.078V203.72H225.91L231.934 192.2H229.534L223.51 203.72V205.808H232.078V209H234.31V205.808H236.35V203.72ZM239.015 211.4L248.615 189.8H247.367L237.767 211.4H239.015ZM249.967 192.2V194.312H258.079L252.007 209H254.335L260.455 194.192V192.2H249.967ZM169.04 225V227.064C168.08 225.6 166.544 224.688 164.528 224.688C161.12 224.688 158.408 227.448 158.408 230.928C158.408 234.432 161.12 237.192 164.528 237.192C166.544 237.192 168.08 236.256 169.04 234.792V236.496C169.04 238.752 167.528 240.168 165.032 240.168C162.68 240.168 161.672 239.28 161.12 238.152L159.296 239.184C160.28 241.08 162.296 242.112 164.984 242.112C168.104 242.112 171.104 240.24 171.104 236.496V225H169.04ZM164.768 235.2C162.344 235.2 160.496 233.352 160.496 230.928C160.496 228.528 162.344 226.68 164.768 226.68C167.192 226.68 169.04 228.528 169.04 230.928C169.04 233.352 167.192 235.2 164.768 235.2ZM174.268 237H176.356V219.48H174.268V237ZM185.181 237.312C188.685 237.312 191.517 234.552 191.517 231C191.517 227.448 188.685 224.688 185.181 224.688C181.677 224.688 178.869 227.448 178.869 231C178.869 234.552 181.677 237.312 185.181 237.312ZM185.181 235.272C182.805 235.272 180.957 233.424 180.957 231C180.957 228.576 182.805 226.728 185.181 226.728C187.581 226.728 189.429 228.576 189.429 231C189.429 233.424 187.581 235.272 185.181 235.272ZM200.603 224.688C198.563 224.688 197.027 225.6 196.067 227.064V220.2H193.979V237H196.067V234.936C197.027 236.4 198.563 237.312 200.603 237.312C203.939 237.312 206.675 234.552 206.675 231C206.675 227.448 203.939 224.688 200.603 224.688ZM200.339 235.296C197.915 235.296 196.067 233.448 196.067 231C196.067 228.552 197.915 226.704 200.339 226.704C202.739 226.704 204.587 228.552 204.587 231C204.587 233.448 202.739 235.296 200.339 235.296ZM219.102 225V227.064C218.142 225.6 216.606 224.688 214.566 224.688C211.23 224.688 208.494 227.448 208.494 231C208.494 234.552 211.23 237.312 214.566 237.312C216.606 237.312 218.142 236.4 219.102 234.936V237H221.19V225H219.102ZM214.83 235.296C212.43 235.296 210.582 233.448 210.582 231C210.582 228.552 212.43 226.704 214.83 226.704C217.254 226.704 219.102 228.552 219.102 231C219.102 233.448 217.254 235.296 214.83 235.296ZM224.354 237H226.442V219.48H224.354V237ZM237.427 228.24C237.427 227.16 238.483 226.632 239.563 226.632C240.619 226.632 241.675 227.088 242.131 228.168L243.883 227.184C243.115 225.624 241.531 224.688 239.563 224.688C237.139 224.688 235.315 226.152 235.315 228.264C235.315 232.608 242.035 231.144 242.035 233.712C242.035 234.888 240.931 235.344 239.659 235.344C238.171 235.344 237.067 234.624 236.683 233.472L234.883 234.504C235.579 236.16 237.259 237.312 239.659 237.312C242.227 237.312 244.147 235.944 244.147 233.712C244.147 229.296 237.427 230.808 237.427 228.24ZM254.782 225V231.36C254.782 234.192 253.222 235.32 251.302 235.32C249.454 235.32 248.326 234.216 248.326 232.248V225H246.238V232.368C246.238 235.44 248.086 237.312 250.894 237.312C252.574 237.312 253.894 236.688 254.782 235.272V237H256.87V225H254.782ZM266.673 224.688C264.633 224.688 263.097 225.6 262.137 227.064V225H260.049V241.8H262.137V234.936C263.097 236.4 264.633 237.312 266.673 237.312C270.009 237.312 272.745 234.552 272.745 231C272.745 227.448 270.009 224.688 266.673 224.688ZM266.409 235.296C263.985 235.296 262.137 233.448 262.137 231C262.137 228.552 263.985 226.704 266.409 226.704C268.809 226.704 270.657 228.552 270.657 231C270.657 233.448 268.809 235.296 266.409 235.296ZM281.86 224.688C279.82 224.688 278.284 225.6 277.324 227.064V225H275.236V241.8H277.324V234.936C278.284 236.4 279.82 237.312 281.86 237.312C285.196 237.312 287.932 234.552 287.932 231C287.932 227.448 285.196 224.688 281.86 224.688ZM281.596 235.296C279.172 235.296 277.324 233.448 277.324 231C277.324 228.552 279.172 226.704 281.596 226.704C283.996 226.704 285.844 228.552 285.844 231C285.844 233.448 283.996 235.296 281.596 235.296ZM296.064 237.312C299.568 237.312 302.4 234.552 302.4 231C302.4 227.448 299.568 224.688 296.064 224.688C292.56 224.688 289.752 227.448 289.752 231C289.752 234.552 292.56 237.312 296.064 237.312ZM296.064 235.272C293.688 235.272 291.84 233.424 291.84 231C291.84 228.576 293.688 226.728 296.064 226.728C298.464 226.728 300.312 228.576 300.312 231C300.312 233.424 298.464 235.272 296.064 235.272ZM306.949 227.016V225H304.861V237H306.949V230.64C306.949 227.808 308.893 226.896 310.693 226.968V224.784C309.181 224.784 307.717 225.336 306.949 227.016ZM319.546 227.016V225H316.354V221.64L314.266 222.264V225H311.89V227.016H314.266V233.52C314.266 236.52 315.946 237.48 319.546 237V235.128C317.41 235.224 316.354 235.344 316.354 233.52V227.016H319.546Z" fill="#2C3543"/>
<path d="M385.458 209H387.834L381.57 192.2H379.05L372.786 209H375.162L376.53 205.232H384.09L385.458 209ZM377.298 203.144L380.298 194.864L383.322 203.144H377.298ZM394.958 209.312C397.31 209.312 399.35 208.064 400.358 206.192L398.582 205.16C397.91 206.408 396.59 207.248 394.958 207.248C392.558 207.248 390.734 205.4 390.734 203C390.734 200.576 392.558 198.728 394.958 198.728C396.566 198.728 397.91 199.568 398.51 200.84L400.262 199.832C399.35 197.936 397.334 196.688 394.958 196.688C391.334 196.688 388.646 199.448 388.646 203C388.646 206.552 391.334 209.312 394.958 209.312ZM407.896 209.312C410.248 209.312 412.288 208.064 413.296 206.192L411.52 205.16C410.848 206.408 409.528 207.248 407.896 207.248C405.496 207.248 403.672 205.4 403.672 203C403.672 200.576 405.496 198.728 407.896 198.728C409.504 198.728 410.848 199.568 411.448 200.84L413.2 199.832C412.288 197.936 410.272 196.688 407.896 196.688C404.272 196.688 401.584 199.448 401.584 203C401.584 206.552 404.272 209.312 407.896 209.312ZM420.833 209.312C424.337 209.312 427.169 206.552 427.169 203C427.169 199.448 424.337 196.688 420.833 196.688C417.329 196.688 414.521 199.448 414.521 203C414.521 206.552 417.329 209.312 420.833 209.312ZM420.833 207.272C418.457 207.272 416.609 205.424 416.609 203C416.609 200.576 418.457 198.728 420.833 198.728C423.233 198.728 425.081 200.576 425.081 203C425.081 205.424 423.233 207.272 420.833 207.272ZM437.911 197V203.36C437.911 206.192 436.351 207.32 434.431 207.32C432.583 207.32 431.455 206.216 431.455 204.248V197H429.367V204.368C429.367 207.44 431.215 209.312 434.023 209.312C435.703 209.312 437.023 208.688 437.911 207.272V209H439.999V197H437.911ZM449.154 196.688C447.474 196.688 446.154 197.312 445.266 198.728V197H443.178V209H445.266V202.64C445.266 199.808 446.826 198.68 448.746 198.68C450.594 198.68 451.722 199.784 451.722 201.752V209H453.81V201.632C453.81 198.56 451.962 196.688 449.154 196.688ZM463.253 199.016V197H460.061V193.64L457.973 194.264V197H455.597V199.016H457.973V205.52C457.973 208.52 459.653 209.48 463.253 209V207.128C461.117 207.224 460.061 207.344 460.061 205.52V199.016H463.253ZM478.323 199.016V197H475.131V193.64L473.043 194.264V197H470.667V199.016H473.043V205.52C473.043 208.52 474.723 209.48 478.323 209V207.128C476.187 207.224 475.131 207.344 475.131 205.52V199.016H478.323ZM481.65 203.96H491.706C491.754 203.648 491.778 203.336 491.778 203.024C491.778 199.664 489.426 196.688 485.802 196.688C482.058 196.688 479.514 199.448 479.514 203C479.514 206.6 482.082 209.312 485.946 209.312C488.346 209.312 490.17 208.232 491.226 206.6L489.45 205.592C488.85 206.576 487.65 207.344 485.994 207.344C483.762 207.344 482.058 206.12 481.65 203.96ZM485.802 198.656C487.602 198.656 489.306 199.76 489.666 202.136H481.65C481.986 200.048 483.546 198.656 485.802 198.656ZM504.09 197V199.064C503.13 197.6 501.594 196.688 499.554 196.688C496.218 196.688 493.482 199.448 493.482 203C493.482 206.552 496.218 209.312 499.554 209.312C501.594 209.312 503.13 208.4 504.09 206.936V209H506.178V197H504.09ZM499.818 207.296C497.418 207.296 495.57 205.448 495.57 203C495.57 200.552 497.418 198.704 499.818 198.704C502.242 198.704 504.09 200.552 504.09 203C504.09 205.448 502.242 207.296 499.818 207.296ZM522.302 196.688C520.742 196.688 519.374 197.36 518.534 198.728C517.838 197.432 516.638 196.688 515.006 196.688C513.542 196.688 512.294 197.264 511.43 198.608V197H509.342V209H511.43V202.328C511.43 199.736 512.894 198.68 514.502 198.68C516.062 198.68 517.046 199.712 517.046 201.608V209H519.134V202.328C519.134 199.736 520.406 198.68 522.086 198.68C523.67 198.68 524.726 199.712 524.726 201.608V209H526.814V201.536C526.814 198.536 524.966 196.688 522.302 196.688ZM531.509 200.24C531.509 199.16 532.565 198.632 533.645 198.632C534.701 198.632 535.757 199.088 536.213 200.168L537.965 199.184C537.197 197.624 535.613 196.688 533.645 196.688C531.221 196.688 529.397 198.152 529.397 200.264C529.397 204.608 536.117 203.144 536.117 205.712C536.117 206.888 535.013 207.344 533.741 207.344C532.253 207.344 531.149 206.624 530.765 205.472L528.965 206.504C529.661 208.16 531.341 209.312 533.741 209.312C536.309 209.312 538.229 207.944 538.229 205.712C538.229 201.296 531.509 202.808 531.509 200.24ZM560.837 197L558.197 206.144L555.365 197H553.349L550.517 206.12L547.877 197H545.693L549.413 209H551.549L554.357 200.12L557.165 209H559.301L563.021 197H560.837ZM566.226 194.816C566.994 194.816 567.618 194.192 567.618 193.424C567.618 192.656 566.994 192.008 566.226 192.008C565.434 192.008 564.81 192.656 564.81 193.424C564.81 194.192 565.434 194.816 566.226 194.816ZM565.17 209H567.258V197H565.17V209ZM576.971 199.016V197H573.779V193.64L571.691 194.264V197H569.315V199.016H571.691V205.52C571.691 208.52 573.371 209.48 576.971 209V207.128C574.835 207.224 573.779 207.344 573.779 205.52V199.016H576.971ZM585.419 196.688C583.739 196.688 582.419 197.312 581.531 198.728V192.2H579.443V209H581.531V202.64C581.531 199.808 583.091 198.68 585.011 198.68C586.859 198.68 587.987 199.784 587.987 201.752V209H590.075V201.632C590.075 198.56 588.227 196.688 585.419 196.688ZM403.146 224.688C401.586 224.688 400.218 225.36 399.378 226.728C398.682 225.432 397.482 224.688 395.85 224.688C394.386 224.688 393.138 225.264 392.274 226.608V225H390.186V237H392.274V230.328C392.274 227.736 393.738 226.68 395.346 226.68C396.906 226.68 397.89 227.712 397.89 229.608V237H399.978V230.328C399.978 227.736 401.25 226.68 402.93 226.68C404.514 226.68 405.57 227.712 405.57 229.608V237H407.658V229.536C407.658 226.536 405.81 224.688 403.146 224.688ZM420.489 225V227.064C419.529 225.6 417.993 224.688 415.953 224.688C412.617 224.688 409.881 227.448 409.881 231C409.881 234.552 412.617 237.312 415.953 237.312C417.993 237.312 419.529 236.4 420.489 234.936V237H422.577V225H420.489ZM416.217 235.296C413.817 235.296 411.969 233.448 411.969 231C411.969 228.552 413.817 226.704 416.217 226.704C418.641 226.704 420.489 228.552 420.489 231C420.489 233.448 418.641 235.296 416.217 235.296ZM427.828 227.016V225H425.74V237H427.828V230.64C427.828 227.808 429.772 226.896 431.572 226.968V224.784C430.06 224.784 428.596 225.336 427.828 227.016ZM443.767 237L437.839 230.808L443.575 225H440.887L435.703 230.304V220.2H433.615V237H435.703V231.312L441.175 237H443.767ZM446.071 231.96H456.127C456.175 231.648 456.199 231.336 456.199 231.024C456.199 227.664 453.847 224.688 450.223 224.688C446.479 224.688 443.935 227.448 443.935 231C443.935 234.6 446.503 237.312 450.367 237.312C452.767 237.312 454.591 236.232 455.647 234.6L453.871 233.592C453.271 234.576 452.071 235.344 450.415 235.344C448.183 235.344 446.479 234.12 446.071 231.96ZM450.223 226.656C452.023 226.656 453.727 227.76 454.087 230.136H446.071C446.407 228.048 447.967 226.656 450.223 226.656ZM464.776 227.016V225H461.584V221.64L459.496 222.264V225H457.12V227.016H459.496V233.52C459.496 236.52 461.176 237.48 464.776 237V235.128C462.64 235.224 461.584 235.344 461.584 233.52V227.016H464.776ZM487.07 236.304L484.838 233.928C485.486 232.848 485.918 231.6 486.134 230.352L484.214 229.248C484.046 230.424 483.758 231.456 483.35 232.296L478.766 227.4C477.926 226.512 477.278 225.696 477.278 224.544C477.278 223.032 478.526 222.048 480.038 222.048C481.478 222.048 482.654 222.936 483.134 224.4L485.006 223.32C484.19 221.136 482.198 219.888 479.99 219.888C477.374 219.888 475.046 221.688 475.046 224.568C475.046 225.888 475.502 226.824 476.126 227.616C474.062 228.648 473.054 230.472 473.054 232.464C473.054 235.464 475.382 237.312 478.694 237.312C480.758 237.312 482.342 236.64 483.494 235.56L485.198 237.384L487.07 236.304ZM478.742 235.2C476.558 235.2 475.286 234.096 475.286 232.32C475.286 231.168 475.862 229.848 477.518 229.152L482.054 234.024C481.19 234.792 480.086 235.2 478.742 235.2ZM503.609 225L499.841 234.768L496.073 225H493.817L498.617 237H501.065L505.865 225H503.609ZM508.626 231.96H518.682C518.73 231.648 518.754 231.336 518.754 231.024C518.754 227.664 516.402 224.688 512.778 224.688C509.034 224.688 506.49 227.448 506.49 231C506.49 234.6 509.058 237.312 512.922 237.312C515.322 237.312 517.146 236.232 518.202 234.6L516.426 233.592C515.826 234.576 514.626 235.344 512.97 235.344C510.738 235.344 509.034 234.12 508.626 231.96ZM512.778 226.656C514.578 226.656 516.282 227.76 516.642 230.136H508.626C508.962 228.048 510.522 226.656 512.778 226.656ZM523.242 227.016V225H521.154V237H523.242V230.64C523.242 227.808 525.186 226.896 526.986 226.968V224.784C525.474 224.784 524.01 225.336 523.242 227.016ZM535.839 227.016V225H532.647V221.64L530.559 222.264V225H528.183V227.016H530.559V233.52C530.559 236.52 532.239 237.48 535.839 237V235.128C533.703 235.224 532.647 235.344 532.647 233.52V227.016H535.839ZM539.367 222.816C540.135 222.816 540.759 222.192 540.759 221.424C540.759 220.656 540.135 220.008 539.367 220.008C538.575 220.008 537.951 220.656 537.951 221.424C537.951 222.192 538.575 222.816 539.367 222.816ZM538.311 237H540.399V225H538.311V237ZM549.224 237.312C551.576 237.312 553.616 236.064 554.624 234.192L552.848 233.16C552.176 234.408 550.856 235.248 549.224 235.248C546.824 235.248 545 233.4 545 231C545 228.576 546.824 226.728 549.224 226.728C550.832 226.728 552.176 227.568 552.776 228.84L554.528 227.832C553.616 225.936 551.6 224.688 549.224 224.688C545.6 224.688 542.912 227.448 542.912 231C542.912 234.552 545.6 237.312 549.224 237.312ZM566.458 225V227.064C565.498 225.6 563.962 224.688 561.922 224.688C558.586 224.688 555.85 227.448 555.85 231C555.85 234.552 558.586 237.312 561.922 237.312C563.962 237.312 565.498 236.4 566.458 234.936V237H568.546V225H566.458ZM562.186 235.296C559.786 235.296 557.938 233.448 557.938 231C557.938 228.552 559.786 226.704 562.186 226.704C564.61 226.704 566.458 228.552 566.458 231C566.458 233.448 564.61 235.296 562.186 235.296ZM571.709 237H573.797V219.48H571.709V237ZM434.036 259.96H444.092C444.14 259.648 444.164 259.336 444.164 259.024C444.164 255.664 441.812 252.688 438.188 252.688C434.444 252.688 431.9 255.448 431.9 259C431.9 262.6 434.468 265.312 438.332 265.312C440.732 265.312 442.556 264.232 443.612 262.6L441.836 261.592C441.236 262.576 440.036 263.344 438.38 263.344C436.148 263.344 434.444 262.12 434.036 259.96ZM438.188 254.656C439.988 254.656 441.692 255.76 442.052 258.136H434.036C434.372 256.048 435.932 254.656 438.188 254.656ZM456.418 265L451.834 258.808L456.154 253H453.706L450.61 257.176L447.514 253H445.042L449.386 258.832L444.778 265H447.226L450.61 260.464L453.97 265H456.418ZM464.978 252.688C462.938 252.688 461.402 253.6 460.442 255.064V253H458.354V269.8H460.442V262.936C461.402 264.4 462.938 265.312 464.978 265.312C468.314 265.312 471.05 262.552 471.05 259C471.05 255.448 468.314 252.688 464.978 252.688ZM464.714 263.296C462.29 263.296 460.442 261.448 460.442 259C460.442 256.552 462.29 254.704 464.714 254.704C467.114 254.704 468.962 256.552 468.962 259C468.962 261.448 467.114 263.296 464.714 263.296ZM475.005 259.96H485.061C485.109 259.648 485.133 259.336 485.133 259.024C485.133 255.664 482.781 252.688 479.157 252.688C475.413 252.688 472.869 255.448 472.869 259C472.869 262.6 475.437 265.312 479.301 265.312C481.701 265.312 483.525 264.232 484.581 262.6L482.805 261.592C482.205 262.576 481.005 263.344 479.349 263.344C477.117 263.344 475.413 262.12 475.005 259.96ZM479.157 254.656C480.957 254.656 482.661 255.76 483.021 258.136H475.005C475.341 256.048 476.901 254.656 479.157 254.656ZM489.621 255.016V253H487.533V265H489.621V258.64C489.621 255.808 491.565 254.896 493.365 254.968V252.784C491.853 252.784 490.389 253.336 489.621 255.016ZM502.217 255.016V253H499.025V249.64L496.937 250.264V253H494.561V255.016H496.937V261.52C496.937 264.52 498.617 265.48 502.217 265V263.128C500.081 263.224 499.025 263.344 499.025 261.52V255.016H502.217ZM505.745 250.816C506.513 250.816 507.137 250.192 507.137 249.424C507.137 248.656 506.513 248.008 505.745 248.008C504.953 248.008 504.329 248.656 504.329 249.424C504.329 250.192 504.953 250.816 505.745 250.816ZM504.689 265H506.777V253H504.689V265ZM511.739 256.24C511.739 255.16 512.795 254.632 513.875 254.632C514.931 254.632 515.987 255.088 516.443 256.168L518.195 255.184C517.427 253.624 515.843 252.688 513.875 252.688C511.451 252.688 509.627 254.152 509.627 256.264C509.627 260.608 516.347 259.144 516.347 261.712C516.347 262.888 515.243 263.344 513.971 263.344C512.483 263.344 511.379 262.624 510.995 261.472L509.195 262.504C509.891 264.16 511.571 265.312 513.971 265.312C516.539 265.312 518.459 263.944 518.459 261.712C518.459 257.296 511.739 258.808 511.739 256.24ZM522.068 259.96H532.124C532.172 259.648 532.196 259.336 532.196 259.024C532.196 255.664 529.844 252.688 526.22 252.688C522.476 252.688 519.932 255.448 519.932 259C519.932 262.6 522.5 265.312 526.364 265.312C528.764 265.312 530.588 264.232 531.644 262.6L529.868 261.592C529.268 262.576 528.068 263.344 526.412 263.344C524.18 263.344 522.476 262.12 522.068 259.96ZM526.22 254.656C528.02 254.656 529.724 255.76 530.084 258.136H522.068C522.404 256.048 523.964 254.656 526.22 254.656Z" fill="#2C3543"/>
<path d="M659.668 192.2H653.116V209H659.668C664.3 209 667.636 205.256 667.636 200.6C667.636 195.944 664.3 192.2 659.668 192.2ZM659.668 206.888H655.348V194.312H659.668C663.124 194.312 665.5 197.048 665.5 200.6C665.5 204.152 663.124 206.888 659.668 206.888ZM671.591 203.96H681.647C681.695 203.648 681.719 203.336 681.719 203.024C681.719 199.664 679.367 196.688 675.743 196.688C671.999 196.688 669.455 199.448 669.455 203C669.455 206.6 672.023 209.312 675.887 209.312C678.287 209.312 680.111 208.232 681.167 206.6L679.391 205.592C678.791 206.576 677.591 207.344 675.935 207.344C673.703 207.344 671.999 206.12 671.591 203.96ZM675.743 198.656C677.543 198.656 679.247 199.76 679.607 202.136H671.591C671.927 200.048 673.487 198.656 675.743 198.656ZM694.032 192.2V199.064C693.072 197.6 691.536 196.688 689.496 196.688C686.16 196.688 683.424 199.448 683.424 203C683.424 206.552 686.16 209.312 689.496 209.312C691.536 209.312 693.072 208.4 694.032 206.936V209H696.12V192.2H694.032ZM689.76 207.296C687.36 207.296 685.512 205.448 685.512 203C685.512 200.552 687.36 198.704 689.76 198.704C692.184 198.704 694.032 200.552 694.032 203C694.032 205.448 692.184 207.296 689.76 207.296ZM700.339 194.816C701.107 194.816 701.731 194.192 701.731 193.424C701.731 192.656 701.107 192.008 700.339 192.008C699.547 192.008 698.923 192.656 698.923 193.424C698.923 194.192 699.547 194.816 700.339 194.816ZM699.283 209H701.371V197H699.283V209ZM710.197 209.312C712.549 209.312 714.589 208.064 715.597 206.192L713.821 205.16C713.149 206.408 711.829 207.248 710.197 207.248C707.797 207.248 705.973 205.4 705.973 203C705.973 200.576 707.797 198.728 710.197 198.728C711.805 198.728 713.149 199.568 713.749 200.84L715.501 199.832C714.589 197.936 712.573 196.688 710.197 196.688C706.573 196.688 703.885 199.448 703.885 203C703.885 206.552 706.573 209.312 710.197 209.312ZM727.43 197V199.064C726.47 197.6 724.934 196.688 722.894 196.688C719.558 196.688 716.822 199.448 716.822 203C716.822 206.552 719.558 209.312 722.894 209.312C724.934 209.312 726.47 208.4 727.43 206.936V209H729.518V197H727.43ZM723.158 207.296C720.758 207.296 718.91 205.448 718.91 203C718.91 200.552 720.758 198.704 723.158 198.704C725.582 198.704 727.43 200.552 727.43 203C727.43 205.448 725.582 207.296 723.158 207.296ZM739.21 199.016V197H736.018V193.64L733.93 194.264V197H731.554V199.016H733.93V205.52C733.93 208.52 735.61 209.48 739.21 209V207.128C737.074 207.224 736.018 207.344 736.018 205.52V199.016H739.21ZM742.536 203.96H752.592C752.64 203.648 752.664 203.336 752.664 203.024C752.664 199.664 750.312 196.688 746.688 196.688C742.944 196.688 740.4 199.448 740.4 203C740.4 206.6 742.968 209.312 746.832 209.312C749.232 209.312 751.056 208.232 752.112 206.6L750.336 205.592C749.736 206.576 748.536 207.344 746.88 207.344C744.648 207.344 742.944 206.12 742.536 203.96ZM746.688 198.656C748.488 198.656 750.192 199.76 750.552 202.136H742.536C742.872 200.048 744.432 198.656 746.688 198.656ZM764.977 192.2V199.064C764.017 197.6 762.481 196.688 760.441 196.688C757.105 196.688 754.369 199.448 754.369 203C754.369 206.552 757.105 209.312 760.441 209.312C762.481 209.312 764.017 208.4 764.977 206.936V209H767.065V192.2H764.977ZM760.705 207.296C758.305 207.296 756.457 205.448 756.457 203C756.457 200.552 758.305 198.704 760.705 198.704C763.129 198.704 764.977 200.552 764.977 203C764.977 205.448 763.129 207.296 760.705 207.296ZM792.957 200.6C792.957 195.752 789.045 191.888 784.245 191.888C779.445 191.888 775.557 195.752 775.557 200.6C775.557 205.424 779.445 209.312 784.245 209.312C785.997 209.312 787.629 208.784 788.997 207.896L790.893 209.816L792.429 208.424L790.581 206.576C792.045 205.016 792.957 202.928 792.957 200.6ZM784.245 207.128C780.645 207.128 777.765 204.272 777.765 200.6C777.765 196.904 780.645 194.048 784.245 194.048C787.845 194.048 790.725 196.904 790.725 200.6C790.725 202.328 790.101 203.864 789.045 205.016L785.589 201.56L784.053 202.928L787.413 206.312C786.477 206.84 785.397 207.128 784.245 207.128ZM806.212 209H808.588L802.324 192.2H799.804L793.54 209H795.916L797.284 205.232H804.844L806.212 209ZM798.052 203.144L801.052 194.864L804.076 203.144H798.052ZM822.882 199.016V197H819.69V193.64L817.602 194.264V197H815.226V199.016H817.602V205.52C817.602 208.52 819.282 209.48 822.882 209V207.128C820.746 207.224 819.69 207.344 819.69 205.52V199.016H822.882ZM826.208 203.96H836.264C836.312 203.648 836.336 203.336 836.336 203.024C836.336 199.664 833.984 196.688 830.36 196.688C826.616 196.688 824.072 199.448 824.072 203C824.072 206.6 826.64 209.312 830.504 209.312C832.904 209.312 834.728 208.232 835.784 206.6L834.008 205.592C833.408 206.576 832.208 207.344 830.552 207.344C828.32 207.344 826.616 206.12 826.208 203.96ZM830.36 198.656C832.16 198.656 833.864 199.76 834.224 202.136H826.208C826.544 200.048 828.104 198.656 830.36 198.656ZM848.649 197V199.064C847.689 197.6 846.153 196.688 844.113 196.688C840.777 196.688 838.041 199.448 838.041 203C838.041 206.552 840.777 209.312 844.113 209.312C846.153 209.312 847.689 208.4 848.649 206.936V209H850.737V197H848.649ZM844.377 207.296C841.977 207.296 840.129 205.448 840.129 203C840.129 200.552 841.977 198.704 844.377 198.704C846.801 198.704 848.649 200.552 848.649 203C848.649 205.448 846.801 207.296 844.377 207.296ZM866.86 196.688C865.3 196.688 863.932 197.36 863.092 198.728C862.396 197.432 861.196 196.688 859.564 196.688C858.1 196.688 856.852 197.264 855.988 198.608V197H853.9V209H855.988V202.328C855.988 199.736 857.452 198.68 859.06 198.68C860.62 198.68 861.604 199.712 861.604 201.608V209H863.692V202.328C863.692 199.736 864.964 198.68 866.644 198.68C868.228 198.68 869.284 199.712 869.284 201.608V209H871.372V201.536C871.372 198.536 869.524 196.688 866.86 196.688ZM689.135 227.016V225H685.943V221.64L683.855 222.264V225H681.479V227.016H683.855V233.52C683.855 236.52 685.535 237.48 689.135 237V235.128C686.999 235.224 685.943 235.344 685.943 233.52V227.016H689.135ZM696.638 237.312C700.142 237.312 702.974 234.552 702.974 231C702.974 227.448 700.142 224.688 696.638 224.688C693.134 224.688 690.326 227.448 690.326 231C690.326 234.552 693.134 237.312 696.638 237.312ZM696.638 235.272C694.262 235.272 692.414 233.424 692.414 231C692.414 228.576 694.262 226.728 696.638 226.728C699.038 226.728 700.886 228.576 700.886 231C700.886 233.424 699.038 235.272 696.638 235.272ZM712.9 231.96H722.956C723.004 231.648 723.028 231.336 723.028 231.024C723.028 227.664 720.676 224.688 717.052 224.688C713.308 224.688 710.764 227.448 710.764 231C710.764 234.6 713.332 237.312 717.196 237.312C719.596 237.312 721.42 236.232 722.476 234.6L720.7 233.592C720.1 234.576 718.9 235.344 717.244 235.344C715.012 235.344 713.308 234.12 712.9 231.96ZM717.052 226.656C718.852 226.656 720.556 227.76 720.916 230.136H712.9C713.236 228.048 714.796 226.656 717.052 226.656ZM731.404 224.688C729.724 224.688 728.404 225.312 727.516 226.728V225H725.428V237H727.516V230.64C727.516 227.808 729.076 226.68 730.996 226.68C732.844 226.68 733.972 227.784 733.972 229.752V237H736.06V229.632C736.06 226.56 734.212 224.688 731.404 224.688ZM740.775 228.24C740.775 227.16 741.831 226.632 742.911 226.632C743.967 226.632 745.023 227.088 745.479 228.168L747.231 227.184C746.463 225.624 744.879 224.688 742.911 224.688C740.487 224.688 738.663 226.152 738.663 228.264C738.663 232.608 745.383 231.144 745.383 233.712C745.383 234.888 744.279 235.344 743.007 235.344C741.519 235.344 740.415 234.624 740.031 233.472L738.231 234.504C738.927 236.16 740.607 237.312 743.007 237.312C745.575 237.312 747.495 235.944 747.495 233.712C747.495 229.296 740.775 230.808 740.775 228.24ZM758.13 225V231.36C758.13 234.192 756.57 235.32 754.65 235.32C752.802 235.32 751.674 234.216 751.674 232.248V225H749.586V232.368C749.586 235.44 751.434 237.312 754.242 237.312C755.922 237.312 757.242 236.688 758.13 235.272V237H760.218V225H758.13ZM765.485 227.016V225H763.396V237H765.485V230.64C765.485 227.808 767.429 226.896 769.229 226.968V224.784C767.717 224.784 766.253 225.336 765.485 227.016ZM772.079 231.96H782.135C782.183 231.648 782.207 231.336 782.207 231.024C782.207 227.664 779.855 224.688 776.231 224.688C772.487 224.688 769.943 227.448 769.943 231C769.943 234.6 772.511 237.312 776.375 237.312C778.775 237.312 780.599 236.232 781.655 234.6L779.879 233.592C779.279 234.576 778.079 235.344 776.423 235.344C774.191 235.344 772.487 234.12 772.079 231.96ZM776.231 226.656C778.031 226.656 779.735 227.76 780.095 230.136H772.079C772.415 228.048 773.975 226.656 776.231 226.656ZM800.543 220.2V227.064C799.583 225.6 798.047 224.688 796.007 224.688C792.671 224.688 789.935 227.448 789.935 231C789.935 234.552 792.671 237.312 796.007 237.312C798.047 237.312 799.583 236.4 800.543 234.936V237H802.631V220.2H800.543ZM796.271 235.296C793.871 235.296 792.023 233.448 792.023 231C792.023 228.552 793.871 226.704 796.271 226.704C798.695 226.704 800.543 228.552 800.543 231C800.543 233.448 798.695 235.296 796.271 235.296ZM815.731 225V227.064C814.771 225.6 813.235 224.688 811.195 224.688C807.859 224.688 805.123 227.448 805.123 231C805.123 234.552 807.859 237.312 811.195 237.312C813.235 237.312 814.771 236.4 815.731 234.936V237H817.819V225H815.731ZM811.459 235.296C809.059 235.296 807.211 233.448 807.211 231C807.211 228.552 809.059 226.704 811.459 226.704C813.883 226.704 815.731 228.552 815.731 231C815.731 233.448 813.883 235.296 811.459 235.296ZM827.51 227.016V225H824.318V221.64L822.23 222.264V225H819.854V227.016H822.23V233.52C822.23 236.52 823.91 237.48 827.51 237V235.128C825.374 235.224 824.318 235.344 824.318 233.52V227.016H827.51ZM839.309 225V227.064C838.349 225.6 836.813 224.688 834.773 224.688C831.437 224.688 828.701 227.448 828.701 231C828.701 234.552 831.437 237.312 834.773 237.312C836.813 237.312 838.349 236.4 839.309 234.936V237H841.397V225H839.309ZM835.037 235.296C832.637 235.296 830.789 233.448 830.789 231C830.789 228.552 832.637 226.704 835.037 226.704C837.461 226.704 839.309 228.552 839.309 231C839.309 233.448 837.461 235.296 835.037 235.296ZM722.18 253V255.064C721.22 253.6 719.684 252.688 717.644 252.688C714.308 252.688 711.572 255.448 711.572 259C711.572 262.552 714.308 265.312 717.644 265.312C719.684 265.312 721.22 264.4 722.18 262.936V265H724.268V253H722.18ZM717.908 263.296C715.508 263.296 713.66 261.448 713.66 259C713.66 256.552 715.508 254.704 717.908 254.704C720.332 254.704 722.18 256.552 722.18 259C722.18 261.448 720.332 263.296 717.908 263.296ZM733.072 265.312C735.424 265.312 737.464 264.064 738.472 262.192L736.696 261.16C736.024 262.408 734.704 263.248 733.072 263.248C730.672 263.248 728.848 261.4 728.848 259C728.848 256.576 730.672 254.728 733.072 254.728C734.68 254.728 736.024 255.568 736.624 256.84L738.376 255.832C737.464 253.936 735.448 252.688 733.072 252.688C729.448 252.688 726.76 255.448 726.76 259C726.76 262.552 729.448 265.312 733.072 265.312ZM746.009 265.312C748.361 265.312 750.401 264.064 751.409 262.192L749.633 261.16C748.961 262.408 747.641 263.248 746.009 263.248C743.609 263.248 741.785 261.4 741.785 259C741.785 256.576 743.609 254.728 746.009 254.728C747.617 254.728 748.961 255.568 749.561 256.84L751.313 255.832C750.401 253.936 748.385 252.688 746.009 252.688C742.385 252.688 739.697 255.448 739.697 259C739.697 262.552 742.385 265.312 746.009 265.312ZM761.774 253V259.36C761.774 262.192 760.214 263.32 758.294 263.32C756.446 263.32 755.318 262.216 755.318 260.248V253H753.23V260.368C753.23 263.44 755.078 265.312 757.886 265.312C759.566 265.312 760.886 264.688 761.774 263.272V265H763.862V253H761.774ZM769.129 255.016V253H767.041V265H769.129V258.64C769.129 255.808 771.073 254.896 772.873 254.968V252.784C771.361 252.784 769.897 253.336 769.129 255.016ZM784.196 253V255.064C783.236 253.6 781.7 252.688 779.66 252.688C776.324 252.688 773.588 255.448 773.588 259C773.588 262.552 776.324 265.312 779.66 265.312C781.7 265.312 783.236 264.4 784.196 262.936V265H786.284V253H784.196ZM779.924 263.296C777.524 263.296 775.676 261.448 775.676 259C775.676 256.552 777.524 254.704 779.924 254.704C782.348 254.704 784.196 256.552 784.196 259C784.196 261.448 782.348 263.296 779.924 263.296ZM795.087 265.312C797.439 265.312 799.479 264.064 800.487 262.192L798.711 261.16C798.039 262.408 796.719 263.248 795.087 263.248C792.687 263.248 790.863 261.4 790.863 259C790.863 256.576 792.687 254.728 795.087 254.728C796.695 254.728 798.039 255.568 798.639 256.84L800.391 255.832C799.479 253.936 797.463 252.688 795.087 252.688C791.463 252.688 788.775 255.448 788.775 259C788.775 262.552 791.463 265.312 795.087 265.312ZM810.948 253L807.492 262.408L803.412 253H801.18L806.412 264.952L806.196 265.408C805.572 266.992 804.564 267.976 802.956 267.856V269.8C805.404 269.968 807.276 268.432 808.284 265.744L813.18 253H810.948Z" fill="#2C3543"/>
<path d="M963.319 209.312C968.191 209.312 972.031 205.424 972.031 200.6C972.031 195.752 968.191 191.888 963.319 191.888C958.447 191.888 954.631 195.752 954.631 200.6C954.631 205.424 958.447 209.312 963.319 209.312ZM963.319 207.128C959.647 207.128 956.839 204.272 956.839 200.6C956.839 196.904 959.647 194.048 963.319 194.048C966.991 194.048 969.799 196.904 969.799 200.6C969.799 204.272 966.991 207.128 963.319 207.128ZM980.474 196.688C978.794 196.688 977.474 197.312 976.586 198.728V197H974.498V209H976.586V202.64C976.586 199.808 978.146 198.68 980.066 198.68C981.914 198.68 983.042 199.784 983.042 201.752V209H985.13V201.632C985.13 198.56 983.282 196.688 980.474 196.688ZM988.261 202.64H997.021V200.624H988.261V202.64ZM1010.33 192.2V199.064C1009.37 197.6 1007.84 196.688 1005.8 196.688C1002.46 196.688 999.725 199.448 999.725 203C999.725 206.552 1002.46 209.312 1005.8 209.312C1007.84 209.312 1009.37 208.4 1010.33 206.936V209H1012.42V192.2H1010.33ZM1006.06 207.296C1003.66 207.296 1001.81 205.448 1001.81 203C1001.81 200.552 1003.66 198.704 1006.06 198.704C1008.48 198.704 1010.33 200.552 1010.33 203C1010.33 205.448 1008.48 207.296 1006.06 207.296ZM1017.05 203.96H1027.1C1027.15 203.648 1027.18 203.336 1027.18 203.024C1027.18 199.664 1024.82 196.688 1021.2 196.688C1017.46 196.688 1014.91 199.448 1014.91 203C1014.91 206.6 1017.48 209.312 1021.34 209.312C1023.74 209.312 1025.57 208.232 1026.62 206.6L1024.85 205.592C1024.25 206.576 1023.05 207.344 1021.39 207.344C1019.16 207.344 1017.46 206.12 1017.05 203.96ZM1021.2 198.656C1023 198.656 1024.7 199.76 1025.06 202.136H1017.05C1017.38 200.048 1018.94 198.656 1021.2 198.656ZM1042.54 196.688C1040.98 196.688 1039.61 197.36 1038.77 198.728C1038.07 197.432 1036.87 196.688 1035.24 196.688C1033.78 196.688 1032.53 197.264 1031.66 198.608V197H1029.58V209H1031.66V202.328C1031.66 199.736 1033.13 198.68 1034.74 198.68C1036.3 198.68 1037.28 199.712 1037.28 201.608V209H1039.37V202.328C1039.37 199.736 1040.64 198.68 1042.32 198.68C1043.9 198.68 1044.96 199.712 1044.96 201.608V209H1047.05V201.536C1047.05 198.536 1045.2 196.688 1042.54 196.688ZM1059.88 197V199.064C1058.92 197.6 1057.38 196.688 1055.34 196.688C1052.01 196.688 1049.27 199.448 1049.27 203C1049.27 206.552 1052.01 209.312 1055.34 209.312C1057.38 209.312 1058.92 208.4 1059.88 206.936V209H1061.97V197H1059.88ZM1055.61 207.296C1053.21 207.296 1051.36 205.448 1051.36 203C1051.36 200.552 1053.21 198.704 1055.61 198.704C1058.03 198.704 1059.88 200.552 1059.88 203C1059.88 205.448 1058.03 207.296 1055.61 207.296ZM1071.11 196.688C1069.43 196.688 1068.11 197.312 1067.22 198.728V197H1065.13V209H1067.22V202.64C1067.22 199.808 1068.78 198.68 1070.7 198.68C1072.55 198.68 1073.67 199.784 1073.67 201.752V209H1075.76V201.632C1075.76 198.56 1073.91 196.688 1071.11 196.688ZM1088.61 192.2V199.064C1087.65 197.6 1086.12 196.688 1084.08 196.688C1080.74 196.688 1078.01 199.448 1078.01 203C1078.01 206.552 1080.74 209.312 1084.08 209.312C1086.12 209.312 1087.65 208.4 1088.61 206.936V209H1090.7V192.2H1088.61ZM1084.34 207.296C1081.94 207.296 1080.09 205.448 1080.09 203C1080.09 200.552 1081.94 198.704 1084.34 198.704C1086.77 198.704 1088.61 200.552 1088.61 203C1088.61 205.448 1086.77 207.296 1084.34 207.296ZM965.124 222.816C965.892 222.816 966.516 222.192 966.516 221.424C966.516 220.656 965.892 220.008 965.124 220.008C964.332 220.008 963.708 220.656 963.708 221.424C963.708 222.192 964.332 222.816 965.124 222.816ZM964.068 237H966.156V225H964.068V237ZM975.318 224.688C973.638 224.688 972.318 225.312 971.43 226.728V225H969.342V237H971.43V230.64C971.43 227.808 972.99 226.68 974.91 226.68C976.758 226.68 977.886 227.784 977.886 229.752V237H979.974V229.632C979.974 226.56 978.126 224.688 975.318 224.688ZM989.417 227.016V225H986.225V221.64L984.137 222.264V225H981.761V227.016H984.137V233.52C984.137 236.52 985.817 237.48 989.417 237V235.128C987.281 235.224 986.225 235.344 986.225 233.52V227.016H989.417ZM992.743 231.96H1002.8C1002.85 231.648 1002.87 231.336 1002.87 231.024C1002.87 227.664 1000.52 224.688 996.895 224.688C993.151 224.688 990.607 227.448 990.607 231C990.607 234.6 993.175 237.312 997.039 237.312C999.439 237.312 1001.26 236.232 1002.32 234.6L1000.54 233.592C999.943 234.576 998.743 235.344 997.087 235.344C994.855 235.344 993.151 234.12 992.743 231.96ZM996.895 226.656C998.695 226.656 1000.4 227.76 1000.76 230.136H992.743C993.079 228.048 994.639 226.656 996.895 226.656ZM1015.21 225V227.064C1014.25 225.6 1012.71 224.688 1010.7 224.688C1007.29 224.688 1004.58 227.448 1004.58 230.928C1004.58 234.432 1007.29 237.192 1010.7 237.192C1012.71 237.192 1014.25 236.256 1015.21 234.792V236.496C1015.21 238.752 1013.7 240.168 1011.2 240.168C1008.85 240.168 1007.84 239.28 1007.29 238.152L1005.46 239.184C1006.45 241.08 1008.46 242.112 1011.15 242.112C1014.27 242.112 1017.27 240.24 1017.27 236.496V225H1015.21ZM1010.94 235.2C1008.51 235.2 1006.66 233.352 1006.66 230.928C1006.66 228.528 1008.51 226.68 1010.94 226.68C1013.36 226.68 1015.21 228.528 1015.21 230.928C1015.21 233.352 1013.36 235.2 1010.94 235.2ZM1022.52 227.016V225H1020.44V237H1022.52V230.64C1022.52 227.808 1024.47 226.896 1026.27 226.968V224.784C1024.76 224.784 1023.29 225.336 1022.52 227.016ZM1037.59 225V227.064C1036.63 225.6 1035.09 224.688 1033.05 224.688C1029.72 224.688 1026.98 227.448 1026.98 231C1026.98 234.552 1029.72 237.312 1033.05 237.312C1035.09 237.312 1036.63 236.4 1037.59 234.936V237H1039.68V225H1037.59ZM1033.32 235.296C1030.92 235.296 1029.07 233.448 1029.07 231C1029.07 228.552 1030.92 226.704 1033.32 226.704C1035.74 226.704 1037.59 228.552 1037.59 231C1037.59 233.448 1035.74 235.296 1033.32 235.296ZM1049.37 227.016V225H1046.18V221.64L1044.09 222.264V225H1041.71V227.016H1044.09V233.52C1044.09 236.52 1045.77 237.48 1049.37 237V235.128C1047.23 235.224 1046.18 235.344 1046.18 233.52V227.016H1049.37ZM1052.9 222.816C1053.67 222.816 1054.29 222.192 1054.29 221.424C1054.29 220.656 1053.67 220.008 1052.9 220.008C1052.11 220.008 1051.48 220.656 1051.48 221.424C1051.48 222.192 1052.11 222.816 1052.9 222.816ZM1051.84 237H1053.93V225H1051.84V237ZM1062.76 237.312C1066.26 237.312 1069.09 234.552 1069.09 231C1069.09 227.448 1066.26 224.688 1062.76 224.688C1059.25 224.688 1056.44 227.448 1056.44 231C1056.44 234.552 1059.25 237.312 1062.76 237.312ZM1062.76 235.272C1060.38 235.272 1058.53 233.424 1058.53 231C1058.53 228.576 1060.38 226.728 1062.76 226.728C1065.16 226.728 1067 228.576 1067 231C1067 233.424 1065.16 235.272 1062.76 235.272ZM1077.53 224.688C1075.85 224.688 1074.53 225.312 1073.64 226.728V225H1071.55V237H1073.64V230.64C1073.64 227.808 1075.2 226.68 1077.12 226.68C1078.97 226.68 1080.1 227.784 1080.1 229.752V237H1082.18V229.632C1082.18 226.56 1080.34 224.688 1077.53 224.688ZM992.028 253V255.064C991.068 253.6 989.532 252.688 987.492 252.688C984.156 252.688 981.42 255.448 981.42 259C981.42 262.552 984.156 265.312 987.492 265.312C989.532 265.312 991.068 264.4 992.028 262.936V265H994.116V253H992.028ZM987.756 263.296C985.356 263.296 983.508 261.448 983.508 259C983.508 256.552 985.356 254.704 987.756 254.704C990.18 254.704 992.028 256.552 992.028 259C992.028 261.448 990.18 263.296 987.756 263.296ZM1003.9 252.688C1001.86 252.688 1000.33 253.6 999.367 255.064V248.2H997.279V265H999.367V262.936C1000.33 264.4 1001.86 265.312 1003.9 265.312C1007.24 265.312 1009.98 262.552 1009.98 259C1009.98 255.448 1007.24 252.688 1003.9 252.688ZM1003.64 263.296C1001.22 263.296 999.367 261.448 999.367 259C999.367 256.552 1001.22 254.704 1003.64 254.704C1006.04 254.704 1007.89 256.552 1007.89 259C1007.89 261.448 1006.04 263.296 1003.64 263.296ZM1013.52 250.816C1014.29 250.816 1014.91 250.192 1014.91 249.424C1014.91 248.656 1014.29 248.008 1013.52 248.008C1012.73 248.008 1012.11 248.656 1012.11 249.424C1012.11 250.192 1012.73 250.816 1013.52 250.816ZM1012.47 265H1014.55V253H1012.47V265ZM1017.74 265H1019.83V247.48H1017.74V265ZM1024.07 250.816C1024.84 250.816 1025.46 250.192 1025.46 249.424C1025.46 248.656 1024.84 248.008 1024.07 248.008C1023.28 248.008 1022.65 248.656 1022.65 249.424C1022.65 250.192 1023.28 250.816 1024.07 250.816ZM1023.01 265H1025.1V253H1023.01V265ZM1034.82 255.016V253H1031.62V249.64L1029.54 250.264V253H1027.16V255.016H1029.54V261.52C1029.54 264.52 1031.22 265.48 1034.82 265V263.128C1032.68 263.224 1031.62 263.344 1031.62 261.52V255.016H1034.82ZM1038.34 250.816C1039.11 250.816 1039.74 250.192 1039.74 249.424C1039.74 248.656 1039.11 248.008 1038.34 248.008C1037.55 248.008 1036.93 248.656 1036.93 249.424C1036.93 250.192 1037.55 250.816 1038.34 250.816ZM1037.29 265H1039.38V253H1037.29V265ZM1044.02 259.96H1054.08C1054.13 259.648 1054.15 259.336 1054.15 259.024C1054.15 255.664 1051.8 252.688 1048.18 252.688C1044.43 252.688 1041.89 255.448 1041.89 259C1041.89 262.6 1044.46 265.312 1048.32 265.312C1050.72 265.312 1052.54 264.232 1053.6 262.6L1051.82 261.592C1051.22 262.576 1050.02 263.344 1048.37 263.344C1046.14 263.344 1044.43 262.12 1044.02 259.96ZM1048.18 254.656C1049.98 254.656 1051.68 255.76 1052.04 258.136H1044.02C1044.36 256.048 1045.92 254.656 1048.18 254.656ZM1057.88 256.24C1057.88 255.16 1058.94 254.632 1060.02 254.632C1061.08 254.632 1062.13 255.088 1062.59 256.168L1064.34 255.184C1063.57 253.624 1061.99 252.688 1060.02 252.688C1057.6 252.688 1055.77 254.152 1055.77 256.264C1055.77 260.608 1062.49 259.144 1062.49 261.712C1062.49 262.888 1061.39 263.344 1060.12 263.344C1058.63 263.344 1057.52 262.624 1057.14 261.472L1055.34 262.504C1056.04 264.16 1057.72 265.312 1060.12 265.312C1062.68 265.312 1064.6 263.944 1064.6 261.712C1064.6 257.296 1057.88 258.808 1057.88 256.24Z" fill="#2C3543"/>
<g clip-path="url(#clip0_26_31)">
<path d="M239.5 96.5332C235.946 96.5332 232.473 97.5869 229.518 99.5611C226.564 101.535 224.261 104.341 222.901 107.624C221.541 110.907 221.185 114.52 221.878 118.005C222.572 121.49 224.283 124.692 226.796 127.204C229.308 129.717 232.51 131.428 235.995 132.121C239.48 132.815 243.092 132.459 246.375 131.099C249.658 129.739 252.464 127.436 254.439 124.482C256.413 121.527 257.467 118.053 257.467 114.5C257.461 109.736 255.567 105.169 252.199 101.801C248.83 98.4328 244.263 96.5383 239.5 96.5332ZM254.834 113.217H247.147C247.032 111.351 246.705 109.504 246.17 107.713C248.02 106.947 249.724 105.871 251.21 104.53C253.301 106.973 254.569 110.012 254.834 113.217ZM249.398 102.717C248.184 103.785 246.806 104.649 245.317 105.276C244.489 103.203 243.454 101.22 242.227 99.3549C244.87 99.8298 247.342 100.989 249.398 102.717ZM234.413 113.217C234.53 111.615 234.824 110.031 235.289 108.494C238.054 109.194 240.949 109.194 243.714 108.494C244.178 110.031 244.472 111.615 244.588 113.217H234.413ZM244.585 115.783C244.433 117.801 244.008 119.789 243.323 121.693C240.804 121.121 238.189 121.121 235.671 121.693C234.988 119.788 234.564 117.801 234.411 115.783H244.585ZM239.5 99.9372C240.843 101.844 241.967 103.895 242.853 106.052C240.646 106.553 238.355 106.553 236.149 106.052C237.036 103.896 238.16 101.845 239.5 99.9372ZM236.773 99.3533C235.544 101.218 234.506 103.202 233.675 105.274C232.185 104.646 230.806 103.779 229.594 102.708C231.654 100.979 234.133 99.8225 236.781 99.3533H236.773ZM227.789 104.53C229.278 105.871 230.984 106.948 232.836 107.713C232.301 109.504 231.973 111.351 231.858 113.217H224.164C224.431 110.012 225.699 106.973 227.789 104.53ZM224.166 115.783H231.853C231.999 118.052 232.454 120.29 233.205 122.436C231.479 123.093 229.867 124.019 228.431 125.18C225.966 122.635 224.458 119.315 224.166 115.783ZM230.412 126.905C231.552 126.036 232.81 125.337 234.15 124.829C234.894 126.503 235.774 128.112 236.781 129.642C234.476 129.229 232.298 128.292 230.412 126.905ZM239.5 129.062C238.401 127.502 237.446 125.845 236.648 124.112C238.531 123.752 240.466 123.752 242.349 124.112C241.551 125.845 240.597 127.502 239.5 129.062ZM242.227 129.645C243.234 128.115 244.114 126.506 244.858 124.832C246.197 125.341 247.456 126.04 248.596 126.908C246.71 128.296 244.531 129.232 242.227 129.645ZM250.569 125.18C249.132 124.019 247.521 123.093 245.795 122.436C246.546 120.29 247.001 118.052 247.147 115.783H254.834C254.541 119.315 253.034 122.635 250.569 125.18Z" fill="#0F3384"/>
<path d="M270.3 106.8C270.297 105.654 269.911 104.542 269.204 103.641C268.496 102.739 267.507 102.101 266.394 101.827C265.808 87.4922 253.982 76 239.5 76C225.018 76 213.2 87.4922 212.606 101.827C211.493 102.101 210.504 102.739 209.796 103.641C209.089 104.542 208.703 105.654 208.7 106.8C206.658 106.8 204.699 107.611 203.255 109.055C201.811 110.499 201 112.458 201 114.5C201 116.542 201.811 118.501 203.255 119.945C204.699 121.389 206.658 122.2 208.7 122.2C208.7 123.561 209.241 124.867 210.204 125.83C211.166 126.792 212.472 127.333 213.833 127.333C215.195 127.333 216.5 126.792 217.463 125.83C218.426 124.867 218.967 123.561 218.967 122.2V106.8C218.962 105.675 218.588 104.583 217.902 103.692C217.217 102.8 216.257 102.159 215.171 101.866C215.744 88.9264 226.421 78.5667 239.5 78.5667C252.579 78.5667 263.256 88.9264 263.829 101.866C262.743 102.159 261.783 102.8 261.098 103.692C260.412 104.583 260.038 105.675 260.033 106.8V122.2C260.038 123.335 260.418 124.436 261.114 125.331C261.811 126.227 262.785 126.867 263.883 127.15V142.733C263.883 143.754 263.478 144.734 262.756 145.456C262.034 146.178 261.054 146.583 260.033 146.583H247.017C246.733 145.485 246.094 144.511 245.198 143.814C244.303 143.118 243.201 142.738 242.067 142.733H236.933C235.572 142.733 234.266 143.274 233.304 144.237C232.341 145.2 231.8 146.505 231.8 147.867C231.8 149.228 232.341 150.534 233.304 151.496C234.266 152.459 235.572 153 236.933 153H242.067C243.201 152.996 244.303 152.615 245.198 151.919C246.094 151.222 246.733 150.249 247.017 149.15H260.033C261.735 149.15 263.367 148.474 264.571 147.271C265.774 146.067 266.45 144.435 266.45 142.733V127.15C267.549 126.867 268.522 126.227 269.219 125.331C269.915 124.436 270.296 123.335 270.3 122.2C272.342 122.2 274.301 121.389 275.745 119.945C277.189 118.501 278 116.542 278 114.5C278 112.458 277.189 110.499 275.745 109.055C274.301 107.611 272.342 106.8 270.3 106.8ZM208.7 119.633C207.339 119.633 206.033 119.092 205.07 118.13C204.107 117.167 203.567 115.861 203.567 114.5C203.567 113.139 204.107 111.833 205.07 110.87C206.033 109.907 207.339 109.367 208.7 109.367V119.633ZM216.4 106.8V122.2C216.4 122.881 216.13 123.534 215.648 124.015C215.167 124.496 214.514 124.767 213.833 124.767C213.153 124.767 212.5 124.496 212.018 124.015C211.537 123.534 211.267 122.881 211.267 122.2V106.8C211.267 106.119 211.537 105.466 212.018 104.985C212.5 104.504 213.153 104.233 213.833 104.233C214.514 104.233 215.167 104.504 215.648 104.985C216.13 105.466 216.4 106.119 216.4 106.8ZM242.067 150.433H236.933C236.253 150.433 235.6 150.163 235.118 149.682C234.637 149.2 234.367 148.547 234.367 147.867C234.367 147.186 234.637 146.533 235.118 146.052C235.6 145.57 236.253 145.3 236.933 145.3H242.067C242.747 145.3 243.4 145.57 243.882 146.052C244.363 146.533 244.633 147.186 244.633 147.867C244.633 148.547 244.363 149.2 243.882 149.682C243.4 150.163 242.747 150.433 242.067 150.433ZM267.733 108.083V122.2C267.733 122.881 267.463 123.534 266.982 124.015C266.5 124.496 265.847 124.767 265.167 124.767C264.486 124.767 263.833 124.496 263.352 124.015C262.87 123.534 262.6 122.881 262.6 122.2V106.8C262.6 106.119 262.87 105.466 263.352 104.985C263.833 104.504 264.486 104.233 265.167 104.233C265.847 104.233 266.5 104.504 266.982 104.985C267.463 105.466 267.733 106.119 267.733 106.8V108.083ZM270.3 119.633V109.367C271.661 109.367 272.967 109.907 273.93 110.87C274.893 111.833 275.433 113.139 275.433 114.5C275.433 115.861 274.893 117.167 273.93 118.13C272.967 119.092 271.661 119.633 270.3 119.633Z" fill="#0F3384"/>
</g>
<g clip-path="url(#clip1_26_31)">
<path d="M499.14 120.807C499.137 122.756 499.895 124.629 501.251 126.027C502.607 127.424 504.455 128.237 506.401 128.291C510.648 128.406 514.087 124.746 514.087 120.54V120.215C514.766 118.821 515.132 117.295 515.16 115.744C515.16 111.383 511.887 108.674 506.617 108.674C501.346 108.674 498.071 111.383 498.071 115.744C498.096 117.3 498.463 118.832 499.143 120.232L499.14 120.807ZM511.682 120.54C511.682 123.424 509.324 125.963 506.473 125.884C505.153 125.849 503.899 125.298 502.979 124.349C502.06 123.401 501.547 122.129 501.552 120.807V119.068C501.552 118.6 501.738 118.152 502.068 117.821C502.399 117.49 502.846 117.304 503.314 117.304H509.925C510.392 117.304 510.84 117.49 511.17 117.821C511.5 118.152 511.686 118.6 511.687 119.068L511.682 120.54ZM506.614 111.082C508.452 111.082 512.751 111.543 512.751 115.744C512.751 115.833 512.741 115.923 512.736 116.012C511.973 115.298 510.969 114.899 509.925 114.896H503.309C502.266 114.898 501.262 115.295 500.499 116.006C500.499 115.919 500.475 115.83 500.475 115.744C500.475 111.537 504.765 111.082 506.614 111.082Z" fill="#0F3384"/>
<path d="M506.283 129.291C501.36 129.291 497.027 131.256 494.355 134.238C490.985 132.136 486.857 130.986 482.5 130.986C478.043 130.986 473.946 132.213 470.68 134.239C467.709 130.892 463.208 129.291 458.716 129.291C450.596 129.291 444 134.574 444 141.067V141.741C444.001 141.955 444.058 142.164 444.165 142.348C444.273 142.532 444.427 142.684 444.613 142.789C450.191 145.956 456.958 147.001 463.269 146.01C463.269 146.111 463.251 146.211 463.251 146.317V147.219C463.251 147.432 463.308 147.641 463.415 147.825C463.523 148.009 463.678 148.161 463.864 148.265C475.071 154.63 490.102 154.542 501.152 148.265C501.337 148.161 501.492 148.009 501.599 147.825C501.707 147.641 501.764 147.432 501.765 147.219V146.317C501.765 146.22 501.748 146.125 501.746 146.029C508.084 146.996 514.824 145.963 520.401 142.795C520.587 142.691 520.741 142.538 520.849 142.354C520.957 142.17 521.013 141.961 521.014 141.748V141.073C521.014 133.998 513.713 129.297 506.296 129.297L506.283 129.291ZM446.405 141.036C446.434 135.888 451.945 131.708 458.716 131.708C462.42 131.708 466.212 132.969 468.711 135.646C466.107 137.775 464.282 140.501 463.579 143.539C457.74 144.579 451.513 143.729 446.405 141.036ZM499.353 146.503C489.241 151.954 475.782 151.955 465.658 146.503V146.311C465.658 139.189 473.215 133.396 482.511 133.396C487.072 133.396 491.342 134.776 494.535 137.279C497.645 139.706 499.358 142.913 499.358 146.311L499.353 146.503ZM501.432 143.516C500.75 140.542 498.981 137.815 496.292 135.623C498.527 133.251 502.171 131.701 506.289 131.701C512.232 131.701 518.57 135.313 518.601 141.028C513.709 143.613 507.567 144.625 501.426 143.516H501.432Z" fill="#0F3384"/>
<path d="M451.575 120.807C451.572 122.756 452.329 124.629 453.686 126.027C455.042 127.424 456.89 128.237 458.835 128.291C463.092 128.407 466.52 124.738 466.52 120.54V120.194C467.198 118.807 467.564 117.289 467.593 115.745C467.593 111.385 464.319 108.676 459.048 108.676C453.778 108.676 450.504 111.385 450.504 115.745C450.53 117.301 450.896 118.833 451.576 120.232V120.809L451.575 120.807ZM464.115 120.54C464.115 123.402 461.78 125.962 458.906 125.884C457.586 125.849 456.332 125.298 455.412 124.349C454.493 123.4 453.98 122.129 453.985 120.807V119.068C453.985 118.6 454.171 118.152 454.501 117.821C454.832 117.49 455.28 117.304 455.747 117.304H462.353C462.82 117.304 463.268 117.49 463.599 117.821C463.929 118.152 464.115 118.6 464.115 119.068V120.54ZM459.045 111.082C460.884 111.082 465.184 111.543 465.184 115.744C465.184 115.833 465.174 115.923 465.171 116.012C464.406 115.297 463.4 114.898 462.353 114.896H455.742C454.698 114.9 453.693 115.299 452.931 116.014C452.931 115.923 452.914 115.833 452.914 115.744C452.908 111.536 457.201 111.082 459.045 111.082Z" fill="#0F3384"/>
<path d="M473.363 119.255C473.359 121.753 474.33 124.154 476.068 125.946C477.807 127.738 480.176 128.779 482.67 128.848C488.114 129.001 492.522 124.288 492.522 118.899V118.427C493.429 116.529 493.949 114.462 493.949 112.494C493.949 106.917 489.73 103.453 482.94 103.453C476.15 103.453 471.929 106.91 471.929 112.488C471.929 114.451 472.453 116.511 473.36 118.404V119.255H473.363ZM490.115 118.899C490.115 122.984 486.773 126.553 482.735 126.44C480.867 126.388 479.094 125.607 477.793 124.265C476.492 122.923 475.766 121.125 475.77 119.255V116.927C475.77 116.194 476.06 115.492 476.577 114.974C477.095 114.457 477.796 114.166 478.527 114.166H487.357C488.088 114.166 488.79 114.457 489.307 114.974C489.824 115.492 490.115 116.194 490.115 116.927V118.893V118.899ZM482.94 105.861C485.528 105.861 491.544 106.509 491.544 112.494C491.542 112.934 491.508 113.374 491.445 113.81C490.967 113.176 490.349 112.662 489.64 112.307C488.931 111.952 488.15 111.766 487.357 111.764H478.526C477.735 111.766 476.955 111.951 476.247 112.305C475.539 112.659 474.922 113.172 474.444 113.804C474.378 113.37 474.342 112.932 474.337 112.494C474.337 106.502 480.355 105.855 482.94 105.855V105.861Z" fill="#0F3384"/>
<path d="M474.035 86.878C475.959 86.8796 477.803 87.6452 479.164 89.0069C480.524 90.3685 481.289 92.2149 481.291 94.1408C481.291 94.4618 481.419 94.7696 481.645 94.9966C481.872 95.2235 482.18 95.351 482.5 95.351C482.821 95.351 483.128 95.2235 483.355 94.9966C483.582 94.7696 483.709 94.4618 483.709 94.1408C483.711 92.2151 484.477 90.3689 485.837 89.0073C487.197 87.6458 489.041 86.88 490.965 86.878C491.277 86.8668 491.572 86.735 491.789 86.5103C492.005 86.2855 492.126 85.9854 492.126 85.6731C492.126 85.3608 492.005 85.0607 491.789 84.8359C491.572 84.6112 491.277 84.4794 490.965 84.4683C489.041 84.4662 487.197 83.7002 485.836 82.3383C484.476 80.9764 483.711 79.1299 483.709 77.2039C483.709 76.8829 483.582 76.5751 483.355 76.3481C483.128 76.1212 482.821 75.9937 482.5 75.9937C482.18 75.9937 481.872 76.1212 481.645 76.3481C481.419 76.5751 481.291 76.8829 481.291 77.2039C481.291 79.1305 480.527 80.9782 479.166 82.3406C477.805 83.7029 475.96 84.4683 474.035 84.4683C473.724 84.4794 473.428 84.6112 473.212 84.8359C472.995 85.0607 472.874 85.3608 472.874 85.6731C472.874 85.9854 472.995 86.2855 473.212 86.5103C473.428 86.735 473.724 86.8668 474.035 86.878ZM482.5 81.8699C483.384 83.4688 484.699 84.7865 486.295 85.6723C484.698 86.5599 483.383 87.8791 482.5 89.4794C481.617 87.8805 480.302 86.5624 478.707 85.6754C480.301 84.7858 481.615 83.4676 482.5 81.8699Z" fill="#0F3384"/>
<path d="M453.531 98.6273C454.588 98.6273 455.601 99.0474 456.348 99.7954C457.095 100.543 457.515 101.558 457.515 102.615C457.526 102.928 457.658 103.225 457.883 103.442C458.108 103.659 458.409 103.781 458.721 103.781C459.034 103.781 459.335 103.659 459.56 103.442C459.785 103.225 459.917 102.928 459.928 102.615C459.928 102.092 460.031 101.573 460.231 101.089C460.431 100.605 460.725 100.166 461.095 99.7954C461.464 99.425 461.904 99.1313 462.387 98.9309C462.87 98.7304 463.388 98.6273 463.911 98.6273C464.23 98.6273 464.536 98.5004 464.762 98.2746C464.987 98.0488 465.114 97.7425 465.114 97.4232C465.114 97.1039 464.987 96.7976 464.762 96.5718C464.536 96.346 464.23 96.2191 463.911 96.2191C462.855 96.2191 461.842 95.7989 461.095 95.051C460.347 94.3031 459.928 93.2888 459.928 92.2311C459.917 91.9182 459.785 91.6218 459.56 91.4044C459.335 91.1869 459.034 91.0654 458.721 91.0654C458.409 91.0654 458.108 91.1869 457.883 91.4044C457.658 91.6218 457.526 91.9182 457.515 92.2311C457.515 93.2888 457.095 94.3031 456.348 95.051C455.601 95.7989 454.588 96.2191 453.531 96.2191C453.373 96.2191 453.217 96.2503 453.071 96.3108C452.925 96.3713 452.793 96.46 452.681 96.5718C452.569 96.6836 452.481 96.8163 452.42 96.9624C452.36 97.1085 452.329 97.2651 452.329 97.4232C452.329 97.5813 452.36 97.7379 452.42 97.884C452.481 98.0301 452.569 98.1628 452.681 98.2746C452.793 98.3864 452.925 98.4751 453.071 98.5356C453.217 98.5961 453.373 98.6273 453.531 98.6273ZM458.719 95.9645C459.123 96.5258 459.615 97.0183 460.176 97.4232C459.614 97.8291 459.121 98.3226 458.716 98.885C458.313 98.3229 457.821 97.8298 457.26 97.4247C457.821 97.0181 458.313 96.5253 458.719 95.9645Z" fill="#0F3384"/>
<path d="M501.098 98.6273C502.155 98.6273 503.168 99.0474 503.915 99.7954C504.662 100.543 505.082 101.558 505.082 102.615C505.093 102.928 505.225 103.225 505.45 103.442C505.675 103.659 505.975 103.781 506.288 103.781C506.601 103.781 506.901 103.659 507.127 103.442C507.352 103.225 507.484 102.928 507.495 102.615C507.495 101.558 507.914 100.543 508.661 99.7954C509.408 99.0474 510.422 98.6273 511.478 98.6273C511.636 98.6273 511.792 98.5961 511.938 98.5356C512.084 98.4751 512.217 98.3864 512.329 98.2746C512.44 98.1628 512.529 98.0301 512.589 97.884C512.65 97.7379 512.681 97.5813 512.681 97.4232C512.681 97.2651 512.65 97.1085 512.589 96.9624C512.529 96.8163 512.44 96.6836 512.329 96.5718C512.217 96.46 512.084 96.3713 511.938 96.3108C511.792 96.2503 511.636 96.2191 511.478 96.2191C510.422 96.2191 509.408 95.7989 508.661 95.051C507.914 94.3031 507.495 93.2888 507.495 92.2311C507.484 91.9182 507.352 91.6218 507.127 91.4044C506.901 91.1869 506.601 91.0654 506.288 91.0654C505.975 91.0654 505.675 91.1869 505.45 91.4044C505.225 91.6218 505.093 91.9182 505.082 92.2311C505.082 93.2888 504.662 94.3031 503.915 95.051C503.168 95.7989 502.155 96.2191 501.098 96.2191C500.94 96.2191 500.784 96.2503 500.638 96.3108C500.492 96.3713 500.359 96.46 500.248 96.5718C500.136 96.6836 500.047 96.8163 499.987 96.9624C499.927 97.1085 499.896 97.2651 499.896 97.4232C499.896 97.5813 499.927 97.7379 499.987 97.884C500.047 98.0301 500.136 98.1628 500.248 98.2746C500.359 98.3864 500.492 98.4751 500.638 98.5356C500.784 98.5961 500.94 98.6273 501.098 98.6273ZM506.286 95.9645C506.691 96.5255 507.183 97.0179 507.743 97.4232C507.18 97.8283 506.687 98.3219 506.283 98.885C505.879 98.3232 505.388 97.8302 504.827 97.4247C505.388 97.0189 505.881 96.526 506.286 95.9645Z" fill="#0F3384"/>
</g>
<g clip-path="url(#clip2_26_31)">
<path d="M764.432 122.383C762.878 122.39 761.331 122.152 759.852 121.676C757.939 121.061 756.168 120.075 754.638 118.775C753.187 117.5 751.976 115.975 751.062 114.274C750.182 112.558 749.639 110.689 749.461 108.769C749.274 106.773 749.502 104.759 750.131 102.855C750.747 100.945 751.734 99.1758 753.036 97.6478C754.313 96.1986 755.839 94.9893 757.543 94.077C759.261 93.198 761.132 92.6551 763.054 92.4776C765.053 92.2903 767.069 92.5182 768.976 93.1471C769.14 93.1984 769.292 93.2814 769.423 93.3914C769.555 93.5014 769.664 93.6363 769.743 93.7882C769.823 93.9402 769.872 94.1064 769.887 94.2772C769.902 94.448 769.884 94.6201 769.832 94.7837C769.781 94.9474 769.698 95.0993 769.588 95.2308C769.478 95.3624 769.343 95.471 769.19 95.5504C769.038 95.6299 768.872 95.6786 768.701 95.6938C768.53 95.7091 768.358 95.6905 768.194 95.6392C766.623 95.1227 764.962 94.9328 763.315 95.0813C760.096 95.3788 757.119 96.9123 755.01 99.3588C753.941 100.615 753.13 102.07 752.625 103.641C752.12 105.211 751.931 106.865 752.068 108.509C752.216 110.106 752.671 111.659 753.409 113.084C754.131 114.507 755.131 115.772 756.351 116.803C757.609 117.872 759.066 118.681 760.638 119.185C762.21 119.69 763.867 119.879 765.512 119.742C768.731 119.444 771.708 117.911 773.817 115.464C774.887 114.208 775.697 112.753 776.202 111.182C776.707 109.612 776.896 107.958 776.759 106.314C776.73 105.969 776.839 105.626 777.062 105.361C777.286 105.096 777.605 104.93 777.951 104.901C778.297 104.871 778.64 104.98 778.905 105.203C779.171 105.426 779.337 105.746 779.366 106.091C779.554 108.088 779.326 110.101 778.696 112.005C778.08 113.915 777.093 115.684 775.791 117.213C774.524 118.672 772.996 119.883 771.285 120.783C769.564 121.657 767.695 122.2 765.773 122.383C765.326 122.345 764.879 122.383 764.432 122.383Z" fill="#0F3384"/>
<path d="M764.432 138.823C761.713 138.823 759.591 136.666 757.766 134.769C756.574 133.541 755.42 132.351 754.302 131.905C753.111 131.421 751.323 131.421 749.61 131.421C746.891 131.458 744.061 131.458 742.199 129.636C740.337 127.776 740.374 124.986 740.411 122.234C740.411 120.523 740.448 118.737 739.927 117.547C739.48 116.431 738.288 115.278 737.059 114.088C735.16 112.228 733 110.145 733 107.393C733 104.678 735.16 102.557 737.059 100.735C738.288 99.5447 739.48 98.3916 739.927 97.2758C740.411 96.0855 740.411 94.3001 740.411 92.5891C740.374 89.8739 740.374 87.047 742.199 85.1873C744.061 83.3275 746.854 83.3647 749.61 83.4019C751.323 83.4019 753.111 83.4391 754.302 82.9183C755.42 82.472 756.574 81.2817 757.766 80.0543C759.628 78.1573 761.713 76 764.469 76C767.188 76 769.311 78.1573 771.136 80.0543C772.327 81.2817 773.482 82.472 774.599 82.9183C775.791 83.4019 777.578 83.4019 779.292 83.4019C782.01 83.3647 784.841 83.3647 786.703 85.1873C788.565 87.047 788.528 89.8367 788.49 92.5891C788.49 94.3001 788.453 96.0855 788.974 97.2758C789.421 98.3916 790.613 99.5447 791.842 100.735C793.741 102.595 795.901 104.678 795.901 107.43C795.901 110.145 793.741 112.265 791.842 114.088C790.613 115.278 789.421 116.431 788.974 117.547C788.49 118.737 788.49 120.523 788.49 122.234C788.528 124.949 788.528 127.776 786.703 129.636C784.841 131.495 782.047 131.458 779.292 131.421C777.578 131.421 775.791 131.384 774.599 131.905C773.482 132.351 772.327 133.541 771.136 134.769C769.274 136.628 767.151 138.823 764.432 138.823ZM750.504 128.78C752.18 128.78 753.855 128.855 755.271 129.45C756.872 130.119 758.287 131.533 759.591 132.909C761.155 134.508 762.793 136.182 764.395 136.182C766.033 136.182 767.635 134.508 769.199 132.909C770.54 131.533 771.918 130.119 773.519 129.45C775.195 128.743 777.243 128.78 779.217 128.78C781.526 128.817 783.686 128.817 784.766 127.739C785.846 126.66 785.809 124.503 785.809 122.197C785.809 120.225 785.772 118.18 786.479 116.506C787.15 114.906 788.565 113.493 789.943 112.191C791.544 110.629 793.22 108.992 793.22 107.393C793.22 105.756 791.544 104.157 789.943 102.595C788.565 101.256 787.15 99.8794 786.479 98.28C785.772 96.6062 785.809 94.5605 785.809 92.5891C785.846 90.283 785.846 88.1257 784.766 87.047C783.686 85.9684 781.526 86.0056 779.217 86.0056C777.243 86.0056 775.195 86.0427 773.519 85.336C771.918 84.6665 770.503 83.2531 769.199 81.8769C767.635 80.2775 766.033 78.6037 764.395 78.6037C762.756 78.6037 761.155 80.2775 759.591 81.8769C758.25 83.2531 756.872 84.6665 755.271 85.336C753.595 86.0427 751.546 86.0056 749.573 86.0056C747.264 85.9684 745.104 85.9684 744.024 87.047C742.944 88.1257 742.981 90.283 742.981 92.5891C742.981 94.5605 743.018 96.6062 742.31 98.28C741.64 99.8794 740.225 101.293 738.847 102.595C737.246 104.157 735.57 105.756 735.57 107.393C735.57 109.029 737.246 110.629 738.847 112.191C740.225 113.53 741.64 114.906 742.31 116.506C743.018 118.18 742.981 120.225 742.981 122.197C742.944 124.503 742.944 126.66 744.024 127.739C745.104 128.817 747.264 128.78 749.573 128.78H750.504Z" fill="#0F3384"/>
<path d="M778.212 152.994C777.941 152.99 777.674 152.927 777.43 152.808L764.618 146.039L751.807 152.808C751.553 152.94 751.27 153.006 750.983 152.999C750.697 152.993 750.417 152.914 750.169 152.771C749.916 152.623 749.707 152.411 749.563 152.156C749.419 151.902 749.345 151.613 749.349 151.321V136.889C749.349 136.543 749.487 136.212 749.731 135.968C749.976 135.724 750.307 135.587 750.653 135.587C750.998 135.587 751.33 135.724 751.574 135.968C751.819 136.212 751.956 136.543 751.956 136.889V149.758L764.618 143.063L777.281 149.758V136.889C777.281 136.543 777.418 136.212 777.662 135.968C777.907 135.724 778.238 135.587 778.584 135.587C778.93 135.587 779.261 135.724 779.506 135.968C779.75 136.212 779.888 136.543 779.888 136.889V151.321C779.887 151.612 779.811 151.899 779.668 152.153C779.524 152.407 779.318 152.62 779.068 152.771C778.807 152.919 778.512 152.995 778.212 152.994Z" fill="#0F3384"/>
<path d="M764.171 112.563L756.351 104.752C756.229 104.633 756.132 104.491 756.065 104.334C755.999 104.177 755.964 104.009 755.963 103.838C755.963 103.668 755.995 103.499 756.06 103.341C756.125 103.184 756.221 103.041 756.341 102.92C756.462 102.8 756.605 102.705 756.763 102.64C756.921 102.575 757.09 102.542 757.26 102.543C757.431 102.544 757.6 102.578 757.757 102.645C757.914 102.711 758.056 102.808 758.175 102.93L764.134 108.881L778.286 94.7838C778.407 94.6601 778.552 94.5618 778.712 94.4947C778.872 94.4276 779.044 94.3931 779.217 94.3931C779.39 94.3931 779.562 94.4276 779.722 94.4947C779.882 94.5618 780.027 94.6601 780.148 94.7838C780.272 94.9014 780.37 95.0428 780.437 95.1994C780.504 95.3561 780.539 95.5247 780.539 95.6951C780.539 95.8655 780.504 96.0341 780.437 96.1908C780.37 96.3474 780.272 96.4888 780.148 96.6064L764.171 112.563Z" fill="#0F3384"/>
</g>
<g clip-path="url(#clip3_26_31)">
<path d="M1019.63 115.997L1025 110.631C1025.21 110.419 1025.33 110.131 1025.33 109.831C1025.33 109.531 1025.21 109.244 1025 109.031L1022.14 106.172C1022.73 105.096 1023.2 103.96 1023.55 102.783H1027.58C1027.88 102.783 1028.17 102.664 1028.39 102.451C1028.6 102.239 1028.72 101.951 1028.72 101.65V94.0644C1028.72 93.7638 1028.6 93.4755 1028.39 93.263C1028.17 93.0504 1027.88 92.931 1027.58 92.931H1023.55C1023.21 91.7537 1022.73 90.6171 1022.14 89.5406L1025 86.6861C1025.21 86.4736 1025.33 86.1857 1025.33 85.8855C1025.33 85.5853 1025.21 85.2973 1025 85.0848L1019.63 79.7191C1019.42 79.507 1019.13 79.3879 1018.83 79.3879C1018.53 79.3879 1018.24 79.507 1018.03 79.7191L1015.18 82.5736C1014.1 81.9832 1012.96 81.5104 1011.79 81.1633V77.1334C1011.79 76.8328 1011.67 76.5445 1011.45 76.332C1011.24 76.1194 1010.95 76 1010.65 76H1003.07C1002.76 76 1002.48 76.1194 1002.26 76.332C1002.05 76.5445 1001.93 76.8328 1001.93 77.1334V81.1714C1000.76 81.5179 999.621 81.989 998.545 82.5768L995.687 79.7191C995.474 79.507 995.186 79.3879 994.886 79.3879C994.586 79.3879 994.298 79.507 994.085 79.7191L988.719 85.0832C988.614 85.1885 988.531 85.3134 988.474 85.4509C988.417 85.5884 988.387 85.7358 988.387 85.8847C988.387 86.0335 988.417 86.1809 988.474 86.3184C988.531 86.4559 988.614 86.5809 988.719 86.6861L991.576 89.5439C990.988 90.6196 990.517 91.7551 990.17 92.931H986.133C985.833 92.931 985.545 93.0504 985.332 93.263C985.119 93.4755 985 93.7638 985 94.0644V101.65C985 101.951 985.119 102.239 985.332 102.451C985.545 102.664 985.833 102.783 986.133 102.783H990.165C990.512 103.962 990.985 105.099 991.576 106.175L988.719 109.03C988.507 109.242 988.388 109.53 988.388 109.83C988.388 110.131 988.507 110.419 988.719 110.631L994.082 115.997C994.187 116.102 994.312 116.186 994.45 116.243C994.587 116.3 994.735 116.329 994.884 116.329C995.033 116.329 995.18 116.3 995.317 116.243C995.455 116.186 995.58 116.102 995.685 115.997L998.54 113.142C999.62 113.733 1000.76 114.205 1001.94 114.553V118.583C1001.94 118.883 1002.06 119.171 1002.27 119.384C1002.48 119.597 1002.77 119.716 1003.07 119.716H1010.66C1010.96 119.716 1011.25 119.597 1011.46 119.384C1011.67 119.171 1011.79 118.883 1011.79 118.583V114.545C1012.97 114.198 1014.11 113.727 1015.18 113.139L1018.04 115.997C1018.14 116.102 1018.27 116.186 1018.41 116.243C1018.54 116.3 1018.69 116.329 1018.84 116.329C1018.99 116.329 1019.14 116.3 1019.27 116.243C1019.41 116.186 1019.54 116.102 1019.64 115.997H1019.63ZM1016.16 110.921C1015.98 110.741 1015.75 110.627 1015.49 110.598C1015.24 110.568 1014.98 110.625 1014.77 110.759C1013.41 111.591 1011.94 112.203 1010.39 112.572C1010.15 112.632 1009.93 112.773 1009.77 112.972C1009.61 113.172 1009.52 113.419 1009.52 113.673V117.449H1004.2V113.688C1004.2 113.433 1004.11 113.186 1003.95 112.986C1003.8 112.787 1003.58 112.646 1003.33 112.587C1001.78 112.217 1000.31 111.602 998.956 110.766C998.739 110.631 998.483 110.574 998.229 110.603C997.976 110.633 997.739 110.747 997.559 110.927L994.885 113.591L991.125 109.83L993.794 107.16C993.974 106.979 994.088 106.743 994.117 106.49C994.147 106.237 994.09 105.981 993.956 105.764C993.121 104.413 992.507 102.937 992.137 101.392C992.079 101.145 991.938 100.924 991.738 100.766C991.538 100.608 991.291 100.522 991.036 100.521H987.267V95.1978H991.041C991.296 95.1975 991.543 95.1116 991.743 94.9539C991.942 94.7962 992.083 94.5758 992.142 94.3283C992.512 92.7844 993.124 91.3089 993.956 89.9567C994.09 89.7398 994.147 89.484 994.117 89.2308C994.088 88.9775 993.974 88.7416 993.794 88.5611L991.125 85.8847L994.885 82.1251L997.557 84.795C997.737 84.9746 997.973 85.0883 998.226 85.1177C998.479 85.1471 998.734 85.0904 998.951 84.9569C1000.3 84.1252 1001.78 83.5131 1003.32 83.1435C1003.57 83.0843 1003.79 82.9434 1003.95 82.7437C1004.11 82.544 1004.19 82.297 1004.19 82.0425V78.2668H1009.51V82.0344C1009.51 82.2893 1009.6 82.5367 1009.76 82.7365C1009.92 82.9362 1010.14 83.0768 1010.38 83.1354C1011.93 83.5049 1013.41 84.1193 1014.76 84.9553C1014.97 85.0892 1015.23 85.1461 1015.48 85.1167C1015.74 85.0873 1015.97 84.9734 1016.15 84.7934L1018.82 82.1251L1022.59 85.8847L1019.92 88.553C1019.74 88.7336 1019.63 88.9698 1019.6 89.2234C1019.57 89.4771 1019.63 89.7331 1019.76 89.9503C1020.6 91.3007 1021.21 92.7767 1021.58 94.3218C1021.64 94.5696 1021.78 94.7903 1021.98 94.9484C1022.18 95.1064 1022.43 95.1926 1022.68 95.1929H1026.45V100.512H1022.67C1022.42 100.512 1022.17 100.598 1021.97 100.756C1021.77 100.914 1021.63 101.135 1021.57 101.383C1021.2 102.927 1020.59 104.402 1019.76 105.754C1019.63 105.971 1019.57 106.227 1019.6 106.48C1019.63 106.734 1019.74 106.97 1019.92 107.15L1022.59 109.822L1018.83 113.591L1016.16 110.921Z" fill="#0F3384"/>
<path d="M1006.86 88.0464C1004.92 88.0461 1003.02 88.6212 1001.41 89.6992C999.794 90.7771 998.536 92.3094 997.793 94.1023C997.05 95.8951 996.855 97.868 997.234 99.7714C997.612 101.675 998.547 103.423 999.919 104.796C1001.29 106.168 1003.04 107.103 1004.94 107.481C1006.85 107.86 1008.82 107.666 1010.61 106.923C1012.41 106.181 1013.94 104.923 1015.02 103.309C1016.09 101.696 1016.67 99.7988 1016.67 97.8582C1016.67 95.2562 1015.64 92.7608 1013.8 90.9208C1011.96 89.0807 1009.46 88.0468 1006.86 88.0464ZM1006.86 105.403C1005.37 105.404 1003.91 104.961 1002.67 104.132C1001.43 103.304 1000.46 102.125 999.887 100.747C999.316 99.368 999.166 97.8509 999.457 96.3872C999.748 94.9235 1000.47 93.579 1001.52 92.5236C1002.58 91.4683 1003.92 90.7495 1005.39 90.4582C1006.85 90.167 1008.37 90.3163 1009.75 90.8873C1011.12 91.4583 1012.3 92.4254 1013.13 93.6662C1013.96 94.907 1014.4 96.3658 1014.4 97.8582C1014.4 98.8489 1014.21 99.83 1013.83 100.745C1013.45 101.661 1012.89 102.493 1012.19 103.193C1011.49 103.894 1010.66 104.45 1009.75 104.829C1008.83 105.208 1007.85 105.403 1006.86 105.403Z" fill="#0F3384"/>
<path d="M1060.87 126.212H1056.84C1056.49 125.031 1056.02 123.891 1055.43 122.812L1058.28 119.957C1058.49 119.745 1058.61 119.457 1058.61 119.157C1058.61 118.856 1058.49 118.569 1058.28 118.356L1052.92 112.992C1052.81 112.887 1052.69 112.803 1052.55 112.746C1052.41 112.689 1052.26 112.66 1052.11 112.66C1051.97 112.66 1051.82 112.689 1051.68 112.746C1051.54 112.803 1051.42 112.887 1051.31 112.992L1048.46 115.845C1047.38 115.255 1046.25 114.783 1045.07 114.435V110.413C1045.07 110.112 1044.95 109.824 1044.74 109.611C1044.52 109.399 1044.24 109.279 1043.93 109.279H1036.35C1036.05 109.279 1035.76 109.399 1035.55 109.611C1035.33 109.824 1035.21 110.112 1035.21 110.413V114.451C1034.04 114.797 1032.9 115.268 1031.83 115.856L1028.97 113C1028.76 112.788 1028.47 112.669 1028.17 112.669C1027.87 112.669 1027.58 112.788 1027.37 113L1022 118.364C1021.79 118.577 1021.67 118.865 1021.67 119.165C1021.67 119.465 1021.79 119.753 1022 119.965L1024.86 122.823C1024.27 123.899 1023.8 125.036 1023.46 126.212H1019.41C1019.11 126.212 1018.83 126.331 1018.61 126.544C1018.4 126.756 1018.28 127.045 1018.28 127.345V134.931C1018.28 135.231 1018.4 135.52 1018.61 135.732C1018.83 135.945 1019.11 136.064 1019.41 136.064H1023.45C1023.79 137.242 1024.27 138.378 1024.86 139.455L1022 142.309C1021.9 142.414 1021.81 142.539 1021.76 142.677C1021.7 142.814 1021.67 142.962 1021.67 143.111C1021.67 143.259 1021.7 143.407 1021.76 143.544C1021.81 143.682 1021.9 143.807 1022 143.912L1027.37 149.276C1027.58 149.488 1027.87 149.607 1028.17 149.607C1028.47 149.607 1028.76 149.488 1028.97 149.276L1031.82 146.427C1032.9 147.017 1034.04 147.489 1035.22 147.835V151.867C1035.22 152.167 1035.34 152.456 1035.55 152.668C1035.77 152.881 1036.05 153 1036.35 153H1043.93C1044.24 153 1044.52 152.881 1044.74 152.668C1044.95 152.456 1045.07 152.167 1045.07 151.867V147.829C1046.24 147.482 1047.38 147.011 1048.46 146.423L1051.31 149.279C1051.53 149.491 1051.81 149.611 1052.11 149.611C1052.41 149.611 1052.7 149.491 1052.91 149.279L1058.28 143.917C1058.39 143.812 1058.47 143.687 1058.53 143.549C1058.58 143.412 1058.61 143.264 1058.61 143.115C1058.61 142.967 1058.58 142.819 1058.53 142.682C1058.47 142.544 1058.39 142.419 1058.28 142.314L1055.42 139.456C1056.01 138.38 1056.48 137.244 1056.83 136.067H1060.87C1061.17 136.067 1061.46 135.948 1061.67 135.735C1061.88 135.523 1062 135.235 1062 134.934V127.345C1062 127.045 1061.88 126.756 1061.67 126.544C1061.46 126.331 1061.17 126.212 1060.87 126.212ZM1059.73 133.797H1055.96C1055.7 133.798 1055.46 133.884 1055.26 134.041C1055.06 134.199 1054.92 134.419 1054.86 134.667C1054.49 136.211 1053.88 137.686 1053.04 139.039C1052.91 139.255 1052.85 139.511 1052.88 139.764C1052.91 140.017 1053.03 140.252 1053.21 140.433L1055.88 143.104L1052.12 146.88L1049.45 144.208C1049.27 144.028 1049.03 143.914 1048.78 143.885C1048.52 143.856 1048.27 143.913 1048.05 144.046C1046.7 144.878 1045.22 145.49 1043.68 145.86C1043.43 145.919 1043.21 146.06 1043.05 146.26C1042.9 146.459 1042.81 146.706 1042.81 146.961V150.735H1037.48V146.958C1037.48 146.703 1037.4 146.456 1037.24 146.256C1037.08 146.056 1036.86 145.916 1036.61 145.857C1035.07 145.487 1033.59 144.873 1032.24 144.037C1032.02 143.903 1031.77 143.846 1031.51 143.875C1031.26 143.905 1031.02 144.019 1030.84 144.199L1028.17 146.867L1024.41 143.111L1027.08 140.442C1027.26 140.262 1027.37 140.025 1027.4 139.772C1027.43 139.518 1027.37 139.262 1027.24 139.045C1026.4 137.694 1025.79 136.218 1025.42 134.673C1025.36 134.426 1025.22 134.205 1025.02 134.047C1024.82 133.889 1024.57 133.803 1024.32 133.802H1020.55V128.479H1024.32C1024.58 128.478 1024.83 128.392 1025.03 128.234C1025.23 128.076 1025.37 127.855 1025.43 127.608C1025.79 126.064 1026.41 124.588 1027.24 123.236C1027.37 123.019 1027.43 122.763 1027.4 122.51C1027.37 122.257 1027.26 122.021 1027.08 121.84L1024.41 119.169L1028.17 115.409L1030.84 118.081C1031.02 118.261 1031.26 118.375 1031.51 118.404C1031.76 118.433 1032.02 118.377 1032.24 118.243C1033.59 117.411 1035.07 116.799 1036.61 116.429C1036.86 116.37 1037.08 116.229 1037.23 116.029C1037.39 115.83 1037.48 115.583 1037.48 115.328V111.549H1042.8V115.319C1042.8 115.573 1042.89 115.82 1043.05 116.02C1043.2 116.22 1043.42 116.361 1043.67 116.42C1045.22 116.789 1046.69 117.403 1048.04 118.238C1048.26 118.372 1048.52 118.429 1048.77 118.4C1049.02 118.37 1049.26 118.256 1049.44 118.076L1052.11 115.404L1055.88 119.166L1053.21 121.834C1053.03 122.014 1052.92 122.251 1052.89 122.504C1052.86 122.758 1052.92 123.014 1053.05 123.231C1053.89 124.582 1054.5 126.058 1054.87 127.603C1054.93 127.851 1055.07 128.071 1055.27 128.229C1055.47 128.387 1055.72 128.473 1055.97 128.474H1059.74L1059.73 133.797Z" fill="#0F3384"/>
<path d="M1040.14 121.327C1038.2 121.327 1036.3 121.903 1034.69 122.981C1033.08 124.059 1031.82 125.592 1031.07 127.385C1030.33 129.177 1030.14 131.15 1030.52 133.054C1030.9 134.957 1031.83 136.705 1033.2 138.078C1034.58 139.45 1036.32 140.384 1038.23 140.762C1040.13 141.141 1042.1 140.946 1043.9 140.203C1045.69 139.461 1047.22 138.203 1048.3 136.589C1049.38 134.975 1049.95 133.078 1049.95 131.137C1049.95 129.849 1049.7 128.573 1049.21 127.383C1048.71 126.192 1047.99 125.111 1047.08 124.2C1046.17 123.289 1045.09 122.566 1043.9 122.073C1042.7 121.581 1041.43 121.327 1040.14 121.327ZM1040.14 138.684C1038.65 138.684 1037.19 138.242 1035.95 137.412C1034.71 136.583 1033.74 135.405 1033.17 134.026C1032.6 132.648 1032.45 131.131 1032.74 129.667C1033.03 128.203 1033.75 126.859 1034.81 125.804C1035.86 124.749 1037.2 124.03 1038.67 123.739C1040.13 123.448 1041.65 123.597 1043.03 124.168C1044.41 124.739 1045.59 125.706 1046.41 126.947C1047.24 128.188 1047.69 129.647 1047.69 131.139C1047.69 132.13 1047.49 133.111 1047.11 134.026C1046.73 134.942 1046.18 135.773 1045.48 136.474C1044.78 137.175 1043.94 137.731 1043.03 138.11C1042.11 138.489 1041.13 138.684 1040.14 138.684Z" fill="#0F3384"/>
<path d="M1031.73 86.5564C1038.32 88.495 1044.01 92.7007 1047.79 98.4294C1046.88 99.2504 1046.31 100.376 1046.18 101.593C1046.05 102.809 1046.37 104.032 1047.08 105.027C1047.79 106.022 1048.84 106.721 1050.04 106.991C1051.23 107.261 1052.48 107.082 1053.55 106.489C1054.62 105.897 1055.44 104.931 1055.84 103.776C1056.25 102.622 1056.21 101.359 1055.75 100.227C1055.28 99.0959 1054.41 98.1754 1053.31 97.6409C1052.21 97.1064 1050.95 96.9952 1049.78 97.3284C1045.7 91.0792 1039.53 86.4886 1032.37 84.382C1032.23 84.3344 1032.08 84.3157 1031.93 84.3269C1031.78 84.3381 1031.63 84.3791 1031.5 84.4475C1031.37 84.5158 1031.25 84.6101 1031.15 84.725C1031.05 84.8398 1030.98 84.9728 1030.93 85.1162C1030.89 85.2597 1030.87 85.4107 1030.89 85.5605C1030.9 85.7103 1030.94 85.8558 1031.01 85.9887C1031.08 86.1215 1031.18 86.239 1031.3 86.3342C1031.41 86.4295 1031.55 86.5006 1031.69 86.5435L1031.73 86.5564H1031.73ZM1053.81 102.111C1053.81 102.646 1053.65 103.168 1053.36 103.613C1053.06 104.057 1052.64 104.403 1052.14 104.608C1051.65 104.812 1051.11 104.866 1050.58 104.762C1050.06 104.657 1049.58 104.4 1049.2 104.022C1048.82 103.644 1048.56 103.163 1048.46 102.638C1048.35 102.114 1048.41 101.571 1048.61 101.077C1048.82 100.583 1049.16 100.161 1049.61 99.8644C1050.05 99.5674 1050.57 99.4089 1051.11 99.4089C1051.83 99.4098 1052.51 99.6948 1053.02 100.201C1053.53 100.708 1053.81 101.395 1053.81 102.111Z" fill="#0F3384"/>
<path d="M1015.27 142.438C1008.68 140.5 1002.99 136.294 999.212 130.565C1000.12 129.746 1000.7 128.622 1000.83 127.405C1000.97 126.189 1000.65 124.965 999.938 123.968C999.228 122.971 998.176 122.27 996.983 121.998C995.79 121.726 994.538 121.902 993.466 122.493C992.395 123.084 991.578 124.048 991.171 125.202C990.764 126.357 990.796 127.62 991.26 128.752C991.725 129.885 992.589 130.807 993.69 131.343C994.79 131.879 996.049 131.992 997.227 131.66C1001.3 137.911 1007.47 142.504 1014.63 144.613C1014.73 144.644 1014.84 144.66 1014.95 144.658C1015.22 144.658 1015.49 144.56 1015.69 144.382C1015.9 144.204 1016.03 143.958 1016.07 143.688C1016.11 143.419 1016.05 143.144 1015.91 142.915C1015.76 142.685 1015.54 142.516 1015.27 142.438H1015.27ZM993.189 126.884C993.189 126.349 993.348 125.827 993.645 125.383C993.942 124.938 994.364 124.592 994.858 124.388C995.352 124.184 995.895 124.131 996.419 124.235C996.943 124.339 997.425 124.597 997.802 124.975C998.18 125.353 998.438 125.834 998.542 126.359C998.646 126.883 998.592 127.426 998.388 127.92C998.183 128.413 997.837 128.835 997.392 129.132C996.948 129.429 996.425 129.587 995.891 129.587C995.536 129.587 995.184 129.517 994.856 129.382C994.528 129.246 994.23 129.046 993.979 128.795C993.729 128.544 993.529 128.246 993.394 127.918C993.258 127.59 993.188 127.239 993.189 126.884Z" fill="#0F3384"/>
</g>
<defs>
<clipPath id="clip0_26_31">
<rect width="77" height="77" fill="white" transform="translate(201 76)"/>
</clipPath>
<clipPath id="clip1_26_31">
<rect width="77" height="77" fill="white" transform="translate(444 76)"/>
</clipPath>
<clipPath id="clip2_26_31">
<rect width="62.9014" height="77" fill="white" transform="translate(733 76)"/>
</clipPath>
<clipPath id="clip3_26_31">
<rect width="77" height="77" fill="white" transform="translate(985 76)"/>
</clipPath>
</defs>
</svg>
