<svg width="65" height="65" viewBox="0 0 65 65" fill="none" xmlns="http://www.w3.org/2000/svg">
<path d="M55.9665 45.9999H24.6001C24.3602 44.8708 23.7211 43.8559 22.791 43.127C21.8609 42.3981 20.6969 42 19.496 42C18.2951 42 17.131 42.3981 16.2009 43.127C15.2708 43.8559 14.6317 44.8708 14.3918 45.9999H8.03351C6.65489 45.9999 6.65611 48.0001 8.03351 48.0001H14.3918C14.6317 49.1292 15.2708 50.1441 16.2009 50.873C17.131 51.6019 18.2951 52 19.496 52C20.6969 52 21.8609 51.6019 22.791 50.873C23.7211 50.1441 24.3602 49.1292 24.6001 48.0001H55.9665C57.3451 48.0001 57.3439 45.9999 55.9665 45.9999ZM19.496 49.999C18.8777 49.999 18.2733 49.8231 17.7592 49.4935C17.2452 49.1639 16.8445 48.6954 16.6079 48.1473C16.3713 47.5992 16.3094 46.9961 16.43 46.4142C16.5506 45.8324 16.8484 45.2979 17.2855 44.8784C17.7227 44.4589 18.2797 44.1732 18.8861 44.0575C19.4925 43.9417 20.121 44.0011 20.6922 44.2281C21.2634 44.4552 21.7516 44.8396 22.0951 45.3329C22.4386 45.8262 22.622 46.4062 22.622 46.9994C22.621 47.7947 22.2913 48.5571 21.7053 49.1194C21.1193 49.6818 20.3247 49.9981 19.496 49.999V49.999Z" fill="#0F3384"/>
<path d="M55.9665 31.0004H49.6082C49.3683 29.8712 48.7292 28.8562 47.7991 28.1272C46.869 27.3982 45.7049 27 44.504 27C43.3031 27 42.1391 27.3982 41.209 28.1272C40.2789 28.8562 39.6398 29.8712 39.3999 31.0004H8.03351C6.65489 31.0004 6.65611 32.9996 8.03351 32.9996H39.3999C39.6398 34.1288 40.2789 35.1438 41.209 35.8728C42.1391 36.6018 43.3031 37 44.504 37C45.7049 37 46.869 36.6018 47.7991 35.8728C48.7292 35.1438 49.3683 34.1288 49.6082 32.9996H55.9665C57.3451 32.9996 57.3439 31.0004 55.9665 31.0004ZM44.504 35C43.8858 35 43.2814 34.824 42.7673 34.4944C42.2533 34.1647 41.8526 33.6962 41.616 33.148C41.3794 32.5999 41.3175 31.9967 41.4381 31.4147C41.5587 30.8328 41.8564 30.2983 42.2936 29.8787C42.7308 29.4592 43.2878 29.1734 43.8942 29.0577C44.5006 28.9419 45.1291 29.0013 45.7003 29.2284C46.2715 29.4555 46.7597 29.84 47.1032 30.3333C47.4467 30.8267 47.6301 31.4067 47.6301 32C47.6288 32.7953 47.299 33.5576 46.713 34.1199C46.1271 34.6822 45.3327 34.9987 44.504 35V35Z" fill="#0F3384"/>
<path d="M8.03351 17.0006H24.8126C25.0531 18.1298 25.6924 19.1445 26.6223 19.8732C27.5523 20.602 28.7158 21 29.9162 21C31.1166 21 32.2801 20.602 33.2101 19.8732C34.14 19.1445 34.7793 18.1298 35.0198 17.0006H55.9665C57.3451 17.0006 57.3439 14.9994 55.9665 14.9994H35.0198C34.7793 13.8702 34.14 12.8555 33.2101 12.1268C32.2801 11.398 31.1166 11 29.9162 11C28.7158 11 27.5523 11.398 26.6223 12.1268C25.6924 12.8555 25.0531 13.8702 24.8126 14.9994H8.03351C6.65489 14.9994 6.65611 17.0006 8.03351 17.0006ZM29.9156 12.9993C30.5339 12.9993 31.1382 13.1753 31.6523 13.5051C32.1664 13.8349 32.567 14.3036 32.8036 14.852C33.0402 15.4004 33.1022 16.0039 32.9815 16.5861C32.8609 17.1683 32.5632 17.7031 32.126 18.1228C31.6888 18.5426 31.1318 18.8284 30.5254 18.9442C29.9191 19.06 29.2905 19.0006 28.7193 18.7734C28.1481 18.5463 27.6599 18.1616 27.3164 17.668C26.9729 17.1745 26.7896 16.5942 26.7896 16.0006C26.7902 15.2048 27.1198 14.4417 27.7059 13.879C28.292 13.3163 29.0867 12.9999 29.9156 12.9993V12.9993Z" fill="#0F3384"/>
</svg>
