<svg width="66" height="65" viewBox="0 0 66 65" fill="none" xmlns="http://www.w3.org/2000/svg">
<g clip-path="url(#clip0_6_1374)">
<path d="M32.9524 60.9998H16.1823C14.6617 60.9998 13.2846 60.5864 12.1411 59.5427C11.7221 59.1825 11.3873 58.7339 11.1607 58.229C10.934 57.7241 10.8211 57.1752 10.8298 56.6215C10.8419 55.3641 10.8298 54.1067 10.8298 52.851C10.8298 50.3571 12.0858 48.7245 14.525 48.1618C15.0768 48.0351 15.1876 47.8145 15.1858 47.3022C15.1685 41.8627 15.1305 36.4215 15.1858 30.9768C15.2516 24.5405 18.0662 19.6325 23.5899 16.3483C25.835 15.0267 28.38 14.305 30.982 14.2521C33.8087 14.1652 36.6355 14.101 39.3826 14.9989C46.2678 17.2566 50.7761 23.4724 50.8297 30.8796C50.8608 35.0842 50.8383 39.2889 50.8297 43.4935C50.8409 43.7524 50.8058 44.0112 50.7259 44.2577C50.6442 44.4576 50.501 44.6262 50.3173 44.7389C50.1336 44.8516 49.9189 44.9025 49.7044 44.8843C49.4899 44.8661 49.2867 44.7797 49.1245 44.6376C48.9622 44.4956 48.8493 44.3053 48.8022 44.0944C48.7635 43.837 48.7507 43.5763 48.7641 43.3164C48.7641 39.1986 48.7763 35.0807 48.7641 30.963C48.7347 24.2435 44.6019 18.6808 38.3118 16.8555C35.8397 16.1382 33.307 16.1955 30.7917 16.3587C23.7802 16.8138 18.3759 21.8833 17.3829 28.8632C17.2914 29.5727 17.2492 30.2876 17.2566 31.0029C17.2462 36.3989 17.2566 41.795 17.2393 47.191C17.2393 47.7676 17.3604 48.0021 17.9814 47.9621C18.8464 47.9065 19.7114 47.9361 20.5764 47.9621C21.2943 47.976 21.7423 48.3911 21.7406 48.992C21.7389 49.5929 21.2822 50.0219 20.5712 50.034C19.1474 50.0514 17.7219 50.0132 16.2982 50.0531C15.697 50.0608 15.1005 50.1592 14.5285 50.3449C13.3434 50.7565 12.9144 51.4443 12.9127 52.6982C12.9109 53.9521 12.9438 55.1696 12.9023 56.4044C12.8694 57.377 13.3036 58.0578 14.134 58.4242C14.7343 58.7122 15.3861 58.8764 16.0508 58.907C27.3589 58.9348 38.6682 58.9348 49.9786 58.907C50.6705 58.907 51.4144 58.6326 52.0545 58.3304C52.7828 57.9831 53.1426 57.3353 53.1202 56.4773C53.089 55.2859 53.1202 54.0928 53.1202 52.9014C53.1202 51.2237 52.269 50.2754 50.5754 50.0914C50.167 50.0551 49.757 50.0407 49.3471 50.0479C41.9879 50.0479 34.6282 50.0479 27.2678 50.0479C26.2021 50.0479 25.7108 49.7249 25.6935 49.0233C25.6762 48.3216 26.1693 47.9673 27.2228 47.9673C34.6685 47.9673 42.1148 47.9673 49.5616 47.9673C50.9318 47.9673 52.2275 48.1879 53.3675 48.9972C54.5491 49.8395 55.2255 50.9545 55.1978 52.4551C55.1771 53.6708 55.1978 54.8865 55.1978 56.1022C55.1978 58.7229 53.7464 60.4579 51.1532 60.9008C50.643 60.9838 50.1269 61.0245 49.6101 61.0224C44.0512 61.0131 38.4986 61.0056 32.9524 60.9998Z" fill="#0F3384"/>
<path d="M20.7961 30.0896C21.0625 24.5685 25.6711 20.0356 31.1948 19.8724C32.1342 19.8429 32.6151 20.1815 32.6238 20.8762C32.6324 21.5709 32.1861 21.9044 31.2277 21.953C27.2765 22.1545 24.0225 24.8325 23.0969 28.6724C22.978 29.2406 22.9028 29.8172 22.872 30.397C22.8011 31.281 22.4396 31.7464 21.7856 31.7291C21.1317 31.7117 20.7736 31.2237 20.7961 30.3397C20.7961 30.2633 20.7961 30.1764 20.7961 30.0896Z" fill="#0F3384"/>
<path d="M53.9419 12.2534C53.7118 12.6181 53.5838 12.9238 53.3693 13.1444C52.1618 14.3821 50.9428 15.6088 49.7122 16.8245C49.1482 17.3855 48.5808 17.4254 48.1206 16.9669C47.6605 16.5084 47.6933 15.9249 48.2383 15.3657C49.4683 14.1187 50.7086 12.8821 51.9421 11.6404C52.3158 11.2635 52.7707 11.0829 53.224 11.3712C53.5163 11.5553 53.6893 11.9304 53.9419 12.2534Z" fill="#0F3384"/>
<path d="M18.3361 16.265C18.0783 16.5828 17.8984 16.9944 17.6009 17.116C17.3033 17.2375 16.7567 17.208 16.5421 17.0048C15.134 15.6745 13.7742 14.292 12.4266 12.894C12.0322 12.4841 12.1325 11.8658 12.5373 11.5046C12.9421 11.1433 13.5182 11.1207 13.987 11.5723C14.8243 12.3799 15.6356 13.2153 16.4591 14.0402C16.9002 14.4831 17.3587 14.9086 17.7756 15.3758C17.9815 15.5998 18.1112 15.8985 18.3361 16.265Z" fill="#0F3384"/>
<path d="M31.9716 6.86075C31.9716 5.97327 31.9629 5.0858 31.9716 4.19833C31.9802 3.44806 32.4058 2.98261 33.0372 2.99998C33.6686 3.01735 34.0354 3.47064 34.0388 4.19659C34.0469 5.97154 34.0469 7.74706 34.0388 9.52316C34.0388 10.2439 33.6288 10.6781 33.0009 10.6798C32.3729 10.6816 31.9785 10.2474 31.9629 9.5249C31.9612 8.63742 31.9716 7.74995 31.9716 6.86075Z" fill="#0F3384"/>
<path d="M7.82144 31.0915C8.68641 31.0915 9.55139 31.0915 10.4164 31.0915C11.1983 31.0915 11.6394 31.4684 11.6498 32.111C11.6602 32.7536 11.2208 33.1635 10.4527 33.1669C8.70775 33.175 6.96108 33.175 5.21267 33.1669C4.45842 33.1669 4.00171 32.7467 4.00171 32.1145C4.00171 31.4823 4.4688 31.0968 5.23862 31.0915C6.10014 31.0811 6.95646 31.0915 7.82144 31.0915Z" fill="#0F3384"/>
<path d="M58.163 31.0918C59.0453 31.0918 59.9275 31.0831 60.8098 31.0918C61.5139 31.1004 61.9775 31.5068 61.9948 32.1043C62.0121 32.7017 61.5329 33.1637 60.7925 33.1671C59.0499 33.1753 57.3072 33.1753 55.5646 33.1671C54.7982 33.1671 54.3536 32.7677 54.364 32.1251C54.3744 31.4825 54.8086 31.1022 55.575 31.0952C56.4469 31.0813 57.3067 31.0918 58.163 31.0918Z" fill="#0F3384"/>
</g>
<defs>
<clipPath id="clip0_6_1374">
<rect width="58" height="58" fill="white" transform="translate(4 3)"/>
</clipPath>
</defs>
</svg>
