<svg width="65" height="65" viewBox="0 0 65 65" fill="none" xmlns="http://www.w3.org/2000/svg">
<path d="M56.6952 44.3007C57.4128 41.8131 57.7714 39.2326 57.7607 36.6401C58.0489 32.7226 56.9737 28.8269 54.7234 25.6351C52.473 22.4433 49.1915 20.1588 45.4526 19.1819C45.8836 18.617 46.1217 17.9245 46.1309 17.2093V16.8146C46.1334 16.3819 46.0519 15.9532 45.8912 15.5526C45.7304 15.152 45.4934 14.7876 45.1939 14.4804C47.5523 9.12129 47.8756 6.09653 46.228 4.61702C44.5803 3.13751 40.0574 5.24159 38.119 6.5567C36.1484 5.24159 32.0454 2.87449 29.9778 4.61702C27.9102 6.35955 28.6527 9.05554 31.0434 14.4804C30.7381 14.7849 30.4959 15.1481 30.3296 15.5488C30.1632 15.9495 30.0766 16.3796 30.0748 16.8146V17.2093C30.0841 17.9245 30.3221 18.617 30.7531 19.1819C27.0142 20.1588 23.7319 22.4433 21.4816 25.6351C19.2312 28.8269 18.1561 32.7226 18.4442 36.6401C18.4442 37.5607 18.4442 38.4484 18.4442 39.3361H16.2153C16.0914 38.5581 15.6969 37.8513 15.1039 37.3444C14.511 36.8375 13.759 36.5641 12.9846 36.5742H5.23063C4.37382 36.5742 3.55234 36.9207 2.94647 37.5373C2.34061 38.1539 2 38.9901 2 39.862V56.6299C2 57.5019 2.34061 58.3381 2.94647 58.9547C3.55234 59.5712 4.37382 59.9177 5.23063 59.9177H12.9846C13.7314 59.9363 14.4613 59.6907 15.0503 59.2232C15.6393 58.7556 16.0511 58.0948 16.2153 57.3531C20.6455 59.5701 25.5255 60.6964 30.4621 60.6409C41.0902 60.2613 51.3543 56.6036 59.8935 50.1528C60.4471 49.7816 60.9195 49.2979 61.2808 48.7321C61.6422 48.1663 61.8844 47.5307 61.9931 46.8651C62.0252 46.3969 61.9453 45.9279 61.7596 45.4983C61.5739 45.0687 61.2876 44.6914 60.9267 44.3992C60.1514 43.6101 58.892 43.6431 56.6952 44.3007ZM14.1472 55.479V56.6299C14.1472 56.9002 14.0416 57.1594 13.8538 57.3505C13.666 57.5416 13.4119 57.6491 13.1463 57.6491H5.39232C5.12671 57.6491 4.87186 57.5416 4.68404 57.3505C4.49623 57.1594 4.39064 56.9002 4.39064 56.6299V39.862C4.39064 39.5917 4.49623 39.3326 4.68404 39.1414C4.87186 38.9503 5.12671 38.8428 5.39232 38.8428H13.1463C13.4119 38.8428 13.666 38.9503 13.8538 39.1414C14.0416 39.3326 14.1472 39.5917 14.1472 39.862V55.479ZM31.3991 6.45818C32.0129 5.93213 34.9524 7.14864 37.4399 8.95693C37.6376 9.08582 37.8677 9.15419 38.1025 9.15419C38.3372 9.15419 38.5673 9.08582 38.765 8.95693C41.2526 7.14864 44.1921 5.93213 44.8059 6.45818C44.8059 6.45818 45.8073 7.44442 43.1259 13.5597H33.0791C30.5592 7.44442 31.3668 6.49105 31.3991 6.45818ZM43.8697 16.8146V17.2093C43.8697 17.4796 43.7641 17.7388 43.5763 17.9299C43.3884 18.1211 43.1336 18.2285 42.868 18.2285H33.3378C33.0722 18.2285 32.8173 18.1211 32.6295 17.9299C32.4417 17.7388 32.3361 17.4796 32.3361 17.2093V16.8146C32.3361 16.5443 32.4417 16.2851 32.6295 16.094C32.8173 15.9028 33.0722 15.7954 33.3378 15.7954H42.868C43.1336 15.7954 43.3884 15.9028 43.5763 16.094C43.7641 16.2851 43.8697 16.5443 43.8697 16.8146ZM38.119 20.4971C43.3527 20.4971 55.5318 22.0752 55.5318 36.6401C55.5375 39.5702 55.0232 42.4772 54.0135 45.2212C53.1735 45.4842 52.301 45.8129 51.2995 46.2075L46.1956 48.0815C46.2659 47.414 46.1987 46.7389 45.9984 46.0993C45.7982 45.4596 45.469 44.8694 45.0322 44.3663C44.6316 43.9715 44.1549 43.6655 43.6323 43.4675C43.1096 43.2694 42.5525 43.1837 41.9956 43.2157C34.5329 43.2157 33.2725 42.5909 31.8187 41.7032C30.3649 40.8155 28.5884 39.7307 20.8672 39.4019C20.7383 38.4872 20.6734 37.5642 20.6732 36.6401C20.6732 22.0423 32.8531 20.4971 38.119 20.4971ZM58.7301 48.1802C35.5018 64.2575 19.3492 56.5312 16.4093 54.7558V41.6047H19.6399C27.4904 41.8677 29.0729 42.8211 30.4944 43.6431C31.9159 44.465 33.7251 45.5828 41.8986 45.4513C42.3828 45.4554 42.8505 45.6297 43.2229 45.9446C43.4415 46.2238 43.6008 46.5464 43.6898 46.8917C43.7788 47.2371 43.7961 47.5976 43.7403 47.9501C43.7355 48.114 43.6913 48.2743 43.6125 48.4174C43.5338 48.5605 43.4224 48.6822 43.2876 48.772C42.383 49.5611 39.4429 50.6461 30.171 49.4296C29.8757 49.3922 29.5779 49.4748 29.3421 49.6594C29.1062 49.844 28.9517 50.1159 28.9114 50.4159C28.8887 50.5654 28.8958 50.7179 28.9327 50.8644C28.9697 51.0109 29.0361 51.1483 29.1267 51.2682C29.2174 51.388 29.3307 51.4878 29.4604 51.5618C29.59 51.6357 29.733 51.6822 29.8808 51.6982C32.3318 52.0525 34.8035 52.2392 37.279 52.2571C39.2366 52.3288 41.1921 52.062 43.062 51.468C46.5511 50.3173 49.5231 49.2323 51.8169 48.1802C54.1848 47.0707 56.6981 46.3176 59.279 45.9446C59.6344 46.2734 59.6024 46.4706 59.6024 46.5364C59.6024 46.6021 59.1501 47.8843 58.7301 48.3446V48.1802Z" fill="#0F3384"/>
<path d="M9.49763 47.5718C9.21396 47.5718 8.94245 47.6871 8.74187 47.8922C8.54129 48.0973 8.42853 48.3754 8.42853 48.6655V54.1031C8.42853 54.3932 8.54129 54.6712 8.74187 54.8763C8.94245 55.0815 9.21396 55.1968 9.49763 55.1968C9.78129 55.1968 10.0535 55.0815 10.2541 54.8763C10.4547 54.6712 10.5675 54.3932 10.5675 54.1031V48.7593C10.5802 48.608 10.5618 48.4556 10.5138 48.3118C10.4657 48.1681 10.3891 48.0364 10.2884 47.9246C10.1878 47.8129 10.0657 47.7237 9.92959 47.663C9.79347 47.6022 9.64614 47.5712 9.49763 47.5718Z" fill="#0F3384"/>
<path d="M36.16 36.221C35.5733 36.0108 34.9639 35.8768 34.3459 35.8219C34.2007 35.8114 34.0548 35.8324 33.9178 35.884C33.7808 35.9355 33.6558 36.0163 33.5503 36.1211C33.4362 36.2086 33.3449 36.3242 33.2838 36.4577C33.2228 36.5911 33.1943 36.7382 33.2007 36.886C33.1972 37.062 33.2393 37.2356 33.3235 37.3881C33.4076 37.5405 33.5303 37.6659 33.6777 37.7508C34.9557 38.4768 36.3924 38.8436 37.8467 38.8152C37.855 39.1181 37.9759 39.4057 38.1839 39.6169C38.3919 39.828 38.6701 39.9463 38.96 39.9461C39.25 39.9463 39.529 39.828 39.7369 39.6169C39.9449 39.4057 40.0658 39.1181 40.0741 38.8152C41.1467 38.709 42.1758 38.32 43.0653 37.6844C43.6191 37.3465 44.0766 36.8598 44.3899 36.275C44.7033 35.6901 44.8612 35.0285 44.8475 34.3584C44.8997 33.6611 44.74 32.9642 44.3915 32.3671C44.043 31.77 43.5231 31.303 42.906 31.0323C42.2955 30.7199 41.6561 30.4745 40.9971 30.3005L40.0741 30.0343V26.2428L41.283 26.6086C41.6216 26.6448 41.963 26.6448 42.3016 26.6086C42.6044 26.6272 42.902 26.5195 43.129 26.3091C43.2403 26.206 43.327 26.0771 43.3822 25.9328C43.4375 25.7884 43.4601 25.6326 43.4475 25.4776C43.4464 25.3412 43.4098 25.2077 43.3426 25.0907C43.2755 24.9737 43.1799 24.8776 43.0653 24.8124C42.0993 24.2154 41.0046 23.8837 39.883 23.8479V23.6816C39.883 23.3729 39.7656 23.0767 39.5567 22.8584C39.3478 22.6401 39.0651 22.5176 38.7697 22.5176C38.4743 22.5176 38.1908 22.6401 37.9819 22.8584C37.773 23.0767 37.6556 23.3729 37.6556 23.6816V23.8812C36.6356 24.0236 35.6582 24.3984 34.7918 24.9788C34.2498 25.3252 33.8048 25.8152 33.5029 26.3995C33.2011 26.9837 33.0531 27.6413 33.0733 28.3049C33.0812 28.9231 33.2719 29.5235 33.6195 30.0238C33.9671 30.524 34.454 30.8995 35.014 31.0987C35.6228 31.3699 36.2508 31.5923 36.8919 31.7639L37.6556 31.9635V36.5202C37.1508 36.4578 36.6511 36.3579 36.16 36.221ZM40.0741 32.5955C41.2197 33.0279 41.7927 33.6266 41.7927 34.3584C41.8064 34.72 41.7204 35.0781 41.5456 35.3905C41.3708 35.7028 41.1142 35.9563 40.806 36.1211L40.0741 36.4536V32.5955ZM36.3193 28.0055C36.3192 27.7025 36.4027 27.4059 36.5609 27.152C36.7191 26.8981 36.9445 26.6978 37.2096 26.5753C37.4074 26.4528 37.6227 26.363 37.8467 26.3091V29.6352C36.8284 29.1474 36.3193 28.6042 36.3193 28.0055Z" fill="#0F3384"/>
</svg>
