<svg width="43" height="35" viewBox="0 0 43 35" fill="none" xmlns="http://www.w3.org/2000/svg">
<path d="M10.2027 3.33998L13.302 3.35437L13.3213 0.00411276L11.1139 0.00493531L10.2722 1.04423L9.30665 0H2.32161L0 2.44463L0.0101104 5.15206L2.00987 6.97895L9.05937 6.95962L9.06906 8.6512L3.13845 8.63187L3.11865 7.67483H0.0101104V11L2.27738 10.9712L3.07905 10.082L3.99994 11L11.8414 10.9712L14 8.73839L13.9899 6.1235L11.7475 3.97787L4.86775 4.01406L4.88629 2.4216L10.1732 2.45532L10.2027 3.33998Z" fill="#2C3643"/>
<path d="M21.266 0.0106884L15 0.0143882L15.0199 2.84065H16.1449L16.143 8.59429L18.4016 11L24.7086 10.9852L27.0086 8.57949L26.9809 2.84065H27.9863L28 0.0287764L22.9734 0L22.9598 2.84065L23.841 2.83325L23.8203 8.17374L20.2883 8.21732L20.3156 2.85503L21.2691 2.83325L21.266 0.0106884Z" fill="#2C3643"/>
<path d="M41.0511 0H29L29.0165 2.84437H30.2365L30.2214 8.17004L29.0165 8.21367L29.0312 11L35.9496 10.9564L35.9694 8.27665L34.7295 8.27171L34.7594 6.68982H41.2891L43 4.94862V1.8865L41.0511 0ZM38.5716 4.80825H34.7527V2.9411H38.5716V4.80825Z" fill="#2C3643"/>
<path d="M0 12.0145V14.8119L1.23866 14.8102L1.26612 20.2683L0.0147862 20.2608V23H12.7972L13.9924 21.7288L14 17.9445L10.5493 17.947L10.5447 20.2778L5.7193 20.2902V18.5272L7.74037 18.5255L7.73445 16.5505L5.72099 16.5493L5.7193 14.7958L10.5333 14.7974L10.5485 17.1138L13.9899 17.1237V13.3989L12.8082 12L0 12.0145Z" fill="#2C3643"/>
<path d="M27.991 20.6762L27.0054 20.6803V18.5153L25.541 17.3042L27.0191 16.1233L27.0329 13.8078L25.3063 12H15L15.0278 14.7844L16.1607 14.8258L16.1744 20.2631H15.0184L15.0141 22.9744L21.1477 22.9888L21.1387 20.2681H20.3189V18.3913H22.7505L22.7528 21.829L23.8579 23L28 22.9926L27.991 20.6762ZM22.6917 16.9747H20.3158V15.2107H22.6917V16.9747Z" fill="#2C3643"/>
<path d="M39.5134 13.0553L38.6695 12.0339L31.9351 12L29.0148 14.8302L29 20.2282L31.9203 23H40.5315L42.9899 20.6511V18.4189L39.5633 18.4338L39.5434 20.301L33.574 20.2427L33.6036 14.8836L39.4936 14.8351L39.5734 16.6345L43 16.644V12.0339L40.3481 12.0046L39.5134 13.0553Z" fill="#2C3643"/>
<path d="M24.7982 28.7031L27.9722 28.7324L28 33.7175L26.8961 35L15 34.9417L15.0274 32.3179L16.1869 32.3134L16.1626 26.8045L15.0035 26.7974V24.0025L21.4125 24L21.4012 26.7768L20.2992 26.7793L20.2855 32.2402L24.7708 32.2307L24.7982 28.7031Z" fill="#2C3643"/>
<path d="M0 24.0149V26.8119L1.23866 26.8102L1.26612 32.2683L0.0147862 32.2608V35H12.7972L13.9924 33.7288L14 29.9445L10.5493 29.947L10.5447 32.2778L5.7193 32.2902V30.5272L7.74037 30.5255L7.73445 28.5505L5.72099 28.5493L5.7193 26.7958L10.5333 26.7974L10.5485 29.1138L13.9899 29.1237V25.3989L12.8082 24L0 24.0149Z" fill="#2C3643"/>
<path d="M39.552 28.7031L42.9705 28.7324L43 33.7175L41.8112 35L29 34.9417L29.0299 32.3179L30.2782 32.3134L30.2521 26.8045L29.0038 26.7974V24.0025L35.9058 24L35.8936 26.7768L34.7068 26.7793L34.6921 32.2402L39.5224 32.2307L39.552 28.7031Z" fill="#2C3643"/>
</svg>
