<svg width="48" height="48" viewBox="0 0 48 48" fill="none" xmlns="http://www.w3.org/2000/svg">
<path d="M32.2053 27.2715C35.9658 20.2286 33.3095 11.4691 26.2651 7.70651C23.5293 6.24556 20.3963 5.70251 17.3284 6.15751C14.2604 6.61251 11.42 8.04145 9.22624 10.2335C3.58544 15.8861 3.59195 25.041 9.24577 30.6827C11.4385 32.8707 14.276 34.2969 17.3404 34.7515C20.4049 35.206 23.5343 34.6648 26.268 33.2075L34.8593 41.7934C35.6506 42.5612 36.7123 42.9869 37.8149 42.9787C38.9176 42.9704 39.9727 42.5288 40.7524 41.7493C41.5321 40.9697 41.9738 39.9148 41.9821 38.8124C41.9904 37.71 41.5645 36.6486 40.7966 35.8574L32.2053 27.2715ZM10.4535 29.4478C8.08408 27.0675 6.75235 23.847 6.74883 20.4888C6.7453 17.1306 8.07025 13.9073 10.4346 11.522C12.799 9.13678 16.011 7.78314 19.3698 7.75643C22.7286 7.72972 25.9617 9.03211 28.3637 11.3795L28.4447 11.4604C30.8412 13.8349 32.1962 17.0639 32.2114 20.4371C32.2267 23.8103 30.901 27.0514 28.5261 29.4475C27.3501 30.6338 25.952 31.577 24.4114 32.2232C22.8709 32.8694 21.2181 33.2058 19.5475 33.2134C16.1735 33.2286 12.9317 31.9032 10.5352 29.5288L10.4535 29.4478ZM39.5658 40.5665C39.1036 41.0276 38.4773 41.2866 37.8244 41.2866C37.1714 41.2866 36.5451 41.0276 36.0829 40.5665L27.7837 32.2691C29.1324 31.3126 30.3099 30.1353 31.2666 28.787L39.5658 37.0844C40.0254 37.5473 40.2833 38.1732 40.2833 38.8254C40.2833 39.4777 40.0254 40.1036 39.5658 40.5665V40.5665ZM26.4119 13.9939C23.2082 14.2347 21.1847 13.4075 20.228 11.4633C20.1564 11.318 20.0455 11.1956 19.9079 11.11C19.7703 11.0244 19.6115 10.9791 19.4495 10.9791C19.2874 10.9791 19.1286 11.0244 18.991 11.11C18.8534 11.1956 18.7426 11.318 18.671 11.4633C17.7142 13.4061 15.6915 14.2332 12.4878 13.9939C12.2715 13.9774 12.0569 14.0425 11.8863 14.1763C11.7156 14.3102 11.6012 14.503 11.5657 14.7169C11.0002 18.1072 11.5288 21.4006 13.0916 24.2449C14.4946 26.7922 16.6294 28.7855 19.1012 29.8571C19.2101 29.9042 19.3275 29.9285 19.4462 29.9285C19.5649 29.9285 19.6823 29.9042 19.7912 29.8571C22.263 28.7855 24.3971 26.7922 25.8001 24.2449C27.3665 21.4027 27.8973 18.1072 27.3296 14.7162C27.2941 14.5026 27.1799 14.3099 27.0096 14.1761C26.8392 14.0423 26.625 13.9771 26.409 13.9932L26.4119 13.9939ZM19.4491 28.1073C15.8101 26.3504 12.4704 21.8676 13.1705 15.7653C16.0169 15.8326 18.1221 15.0539 19.4491 13.4451C20.7241 14.9902 22.7143 15.7689 25.3922 15.7689C25.5028 15.7689 25.6149 15.7689 25.7277 15.7653C26.4278 21.8676 23.0881 26.3497 19.4491 28.1066V28.1073ZM23.1438 18.8114L19.7254 23.1684C19.6522 23.2617 19.5607 23.339 19.4564 23.3956C19.3522 23.4522 19.2375 23.4868 19.1193 23.4973C19.0933 23.4973 19.068 23.501 19.0427 23.501C18.8293 23.5011 18.6233 23.4226 18.4641 23.2804L15.8607 20.9552C15.689 20.8018 15.5853 20.5865 15.5725 20.3567C15.5596 20.1268 15.6385 19.9013 15.792 19.7297C15.9454 19.558 16.1608 19.4544 16.3906 19.4415C16.6205 19.4286 16.8461 19.5076 17.0178 19.661L18.9342 21.3702L21.7814 17.7406C21.9276 17.5727 22.1328 17.4674 22.3545 17.4465C22.5762 17.4256 22.7974 17.4907 22.9725 17.6283C23.1475 17.766 23.2629 17.9657 23.2948 18.186C23.3267 18.4064 23.2726 18.6305 23.1438 18.8121V18.8114Z" fill="#0F3384"/>
</svg>
