<svg width="108" height="108" viewBox="0 0 108 108" fill="none" xmlns="http://www.w3.org/2000/svg">
<path d="M54 108C83.8234 108 108 83.8234 108 54C108 24.1766 83.8234 0 54 0C24.1766 0 0 24.1766 0 54C0 83.8234 24.1766 108 54 108Z" fill="#777777"/>
<path d="M53.7749 54.7721C50.192 54.7751 46.7525 53.3542 44.2154 50.8229C41.6783 48.2888 40.2545 44.8522 40.2515 41.2694C40.2486 37.6835 41.6724 34.2469 44.2037 31.7099C46.7378 29.1757 50.1743 27.749 53.7602 27.749C57.3431 27.749 60.7797 29.1699 63.3167 31.7041C65.8508 34.2382 67.2746 37.6777 67.2746 41.2606C67.2717 44.8406 65.8479 48.2743 63.3167 50.8081C60.7883 53.3393 57.3548 54.7661 53.7744 54.772L53.7749 54.7721ZM78.7709 79.7216H28.7789C28.2106 79.7216 27.7477 79.2587 27.7477 78.6904C27.7623 73.4492 29.8512 68.4274 33.5602 64.7246C37.2662 61.0186 42.2879 58.9326 47.5289 58.9209H60.0209C65.2651 58.9238 70.2922 61.0068 74.0017 64.7129C77.7107 68.4219 79.7966 73.4467 79.8025 78.6907C79.8025 78.9631 79.6941 79.2268 79.5007 79.4202C79.3074 79.6135 79.0437 79.7219 78.7712 79.7219L78.7709 79.7216Z" fill="white"/>
</svg>
