<svg width="74" height="26" viewBox="0 0 74 26" fill="none" xmlns="http://www.w3.org/2000/svg">
<path d="M23.9825 24.462C23.154 24.4561 22.3428 24.3317 21.5603 24.0592C20.7433 23.7748 20.0012 23.3424 19.3568 22.75C19.2359 22.6434 19.1266 22.5308 19.0058 22.4183C18.9195 22.3354 18.908 22.3354 18.8217 22.4064C18.2348 22.8922 17.5962 23.3009 16.9173 23.6327C16.1809 23.9881 15.4042 24.225 14.5987 24.3494C14.0118 24.4383 13.4192 24.462 12.8266 24.4324C11.9694 24.385 11.1351 24.2013 10.3411 23.8459C9.73127 23.5675 9.17894 23.2002 8.67839 22.7441C7.8499 21.9918 7.21702 21.0914 6.80278 20.037C6.56113 19.4268 6.41154 18.787 6.37127 18.1295C6.34825 17.7267 6.33675 17.3298 6.34825 16.927C6.35401 16.6308 6.40004 16.3405 6.44031 16.0503C6.52086 15.4224 6.60716 14.7944 6.69346 14.1606C6.76826 13.6038 6.8488 13.041 6.9236 12.4842C7.00415 11.874 7.08469 11.2639 7.171 10.6597C7.21702 10.3102 7.26305 9.96659 7.30908 9.61709C7.30908 9.59932 7.31483 9.57563 7.31483 9.55786C7.32634 9.42161 7.31483 9.39791 7.19401 9.35052C6.9351 9.23797 6.6762 9.12542 6.4173 9.0188C4.84085 8.34941 3.26441 7.68003 1.69373 7.01065C1.44633 6.90402 1.18742 6.82109 0.968794 6.67299C0.353177 6.2761 0.0309845 5.68965 0.0022173 4.93734C-0.00928957 4.72408 0.025231 4.52268 0.0770119 4.32127C0.249615 3.62227 0.422218 2.92327 0.594821 2.22427C0.698383 1.81553 0.859479 1.43641 1.17016 1.14022C1.34852 0.974357 1.54989 0.855882 1.79154 0.844034C1.91236 0.83811 2.03893 0.861806 2.14825 0.909195C2.68907 1.12837 3.22989 1.3594 3.76496 1.59043C4.38058 1.85107 4.9962 2.11764 5.61181 2.37828C6.87757 2.92327 8.14908 3.46233 9.41483 4.00139C10.1743 4.32719 10.928 4.653 11.6874 4.96696C12.3376 5.23353 12.7518 5.71335 12.9589 6.4005C13.0453 6.68484 13.0453 6.96918 13.005 7.25944C12.8842 8.13023 12.7691 9.00102 12.654 9.87181C12.562 10.559 12.4642 11.2402 12.3721 11.9274C12.28 12.6204 12.188 13.3194 12.0902 14.0125C11.9981 14.7115 11.9061 15.4105 11.8025 16.1095C11.7392 16.536 11.745 16.9566 11.8946 17.3594C12.2052 18.1828 12.7748 18.716 13.6263 18.8818C14.3743 19.024 15.0705 18.8344 15.6918 18.3902C16.1003 18.0999 16.4455 17.7385 16.6987 17.2883C16.9001 16.927 17.0094 16.5419 17.0669 16.1391C17.182 15.3039 17.297 14.4686 17.4121 13.6334C17.4754 13.1832 17.5444 12.7271 17.5962 12.2769C17.6422 11.8918 17.8033 11.566 18.0507 11.2876C18.4362 10.8552 18.9138 10.6301 19.4949 10.6301C20.214 10.636 20.939 10.6301 21.6581 10.636C22.0149 10.6419 22.3255 10.7722 22.5844 11.021C22.9412 11.3646 23.0447 11.803 22.9872 12.2887C22.8894 13.0232 22.7973 13.7578 22.6995 14.4923C22.6362 14.9544 22.5729 15.4164 22.5096 15.8785C22.4809 16.0799 22.4521 16.2813 22.4406 16.4827C22.4118 17.1402 22.6075 17.7148 23.0447 18.1947C23.5798 18.7811 24.2414 18.9707 25.0066 18.9055C26.1343 18.8048 27.2217 17.857 27.5957 16.7789C27.6877 16.5064 27.728 16.228 27.7683 15.9436C27.8661 15.2269 27.9639 14.516 28.056 13.7993C28.148 13.1003 28.2401 12.4013 28.3321 11.7022C28.3954 11.2224 28.4645 10.7485 28.5277 10.2687C28.568 9.95475 28.6025 9.64079 28.6601 9.33275C28.7982 8.55082 29.4598 7.9229 30.2192 7.79258C30.3688 7.76889 30.5242 7.75704 30.6738 7.75704C31.2836 7.75112 31.8877 7.75112 32.4976 7.75704C32.7047 7.76296 32.9119 7.78666 33.1132 7.82812C33.3721 7.87551 33.608 7.99991 33.8094 8.18355C34.0453 8.3968 34.1201 8.66929 34.0798 8.98325C33.959 9.90143 33.8324 10.8137 33.7058 11.7319C33.585 12.6204 33.4699 13.5149 33.3491 14.4035C33.234 15.2269 33.1593 16.0562 32.9924 16.8737C32.8601 17.5253 32.6587 18.1591 32.3825 18.7693C32.0834 19.4446 31.7036 20.0666 31.2549 20.6471C31.0247 20.9433 30.7831 21.2335 30.5184 21.5001C29.7129 22.3235 28.8154 23.0284 27.7913 23.5497C26.9513 23.9762 26.0653 24.2547 25.139 24.3791C24.7535 24.4146 24.368 24.4324 23.9825 24.462Z" fill="#2C3643"/>
<path d="M62.764 9.62673C62.8867 9.52693 62.9744 9.4506 63.0679 9.38015C63.7457 8.85178 64.4879 8.42908 65.3001 8.15315C65.8728 7.95941 66.463 7.83612 67.0649 7.77741C67.5032 7.73632 67.9473 7.71283 68.3856 7.72457C69.2329 7.74806 70.0568 7.90657 70.834 8.26469C71.5528 8.59933 72.1605 9.069 72.6748 9.6737C73.3994 10.5132 73.785 11.4937 73.937 12.5798C74.0071 13.0788 74.0129 13.5837 73.9837 14.0886C73.9603 14.5172 73.8902 14.9399 73.8259 15.3626C73.7032 16.2021 73.5747 17.0357 73.4461 17.8694C73.3643 18.3919 73.2825 18.9144 73.2007 19.4369C73.0838 20.206 72.9611 20.981 72.8442 21.75C72.7858 22.1434 72.7215 22.5367 72.6631 22.9301C72.5462 23.6992 71.9385 24.3156 71.1788 24.4389C71.1204 24.4506 71.0561 24.4506 70.9976 24.4506C70.2906 24.4506 69.5835 24.4506 68.8764 24.4506C68.5959 24.4506 68.3271 24.3861 68.0817 24.2452C67.8363 24.1101 67.6434 23.9223 67.5908 23.6287C67.5791 23.57 67.5733 23.5054 67.585 23.4467C67.7194 22.5191 67.8538 21.5915 67.9882 20.6639C68.1109 19.7892 68.2395 18.9203 68.3622 18.0455C68.4674 17.3234 68.5726 16.6013 68.6777 15.8792C68.742 15.4271 68.7771 14.9692 68.7479 14.5113C68.7186 14.0534 68.6427 13.6013 68.4381 13.1786C68.1577 12.5974 67.696 12.2393 67.0824 12.0749C66.8428 12.0103 66.6033 11.9809 66.352 11.9751C65.9663 11.9751 65.5806 11.9868 65.2008 12.0807C64.6807 12.2099 64.2132 12.433 63.7691 12.7324C63.1088 13.1786 62.6062 13.7598 62.2673 14.4878C62.0336 14.9986 61.8816 15.5328 61.7998 16.0905C61.6187 17.341 61.4375 18.5915 61.2505 19.842C61.0986 20.8694 60.9525 21.8968 60.8006 22.9183C60.672 23.8048 59.9123 24.4624 59.0241 24.4624C58.3813 24.4624 57.7385 24.4624 57.0957 24.4624C56.8211 24.4624 56.5581 24.4154 56.3068 24.3039C56.1198 24.2217 55.9738 24.0984 55.851 23.9399C55.7108 23.7579 55.6874 23.5407 55.7225 23.3234C55.8861 22.1962 56.0556 21.069 56.2192 19.9477C56.377 18.8733 56.5289 17.7931 56.6867 16.7187C56.862 15.5152 57.0373 14.3175 57.2126 13.114C57.3879 11.9105 57.5632 10.7011 57.7385 9.49757C57.8729 8.57585 58.0132 7.65412 58.1476 6.7324C58.3054 5.6639 58.4573 4.58954 58.6092 3.51517C58.7086 2.84003 58.8021 2.15901 58.9131 1.48386C59.0241 0.761743 59.6435 0.145304 60.3623 0.0337574C60.4909 0.0161448 60.6194 0.00440314 60.7538 0.00440314C61.3674 -0.00146771 61.9751 -0.00146771 62.5887 0.00440314C62.8634 0.00440314 63.1263 0.05137 63.3776 0.168787C63.5821 0.262721 63.7633 0.386009 63.8801 0.585618C63.9678 0.73826 64.0029 0.896773 63.9736 1.07877C63.8217 2.12378 63.6698 3.17466 63.5237 4.21968C63.3484 5.43494 63.1731 6.65021 62.9978 7.86547C62.9218 8.39385 62.8458 8.92223 62.7699 9.45061C62.7699 9.49757 62.7699 9.54454 62.764 9.62673Z" fill="#2C3643"/>
<path d="M47.2186 25.3061C46.2881 25.2815 45.4412 25.1954 44.6002 24.9984C43.9202 24.8384 43.2522 24.6353 42.608 24.3522C41.7372 23.9768 40.9379 23.4783 40.1983 22.8752C39.8822 22.6167 39.8166 22.1428 40.0492 21.7859C40.2103 21.5397 40.3892 21.312 40.5622 21.0719C40.8664 20.6596 41.1705 20.2473 41.4688 19.8349C41.7789 19.4103 42.3217 19.2749 42.775 19.521C43.1508 19.7241 43.5265 19.9334 43.8963 20.1488C44.6956 20.6165 45.5366 20.9304 46.4432 21.0843C46.986 21.1766 47.5347 21.2012 48.0834 21.1766C48.5248 21.1581 48.9602 21.0719 49.3479 20.8319C49.5805 20.6965 49.7774 20.5181 49.8967 20.2719C50.0995 19.8595 50.0398 19.5087 49.7356 19.1826C49.4911 18.9241 49.1869 18.7641 48.8767 18.6102C48.2862 18.3271 47.6659 18.1548 47.0456 17.9702C46.4253 17.7855 45.805 17.607 45.2145 17.3301C44.5703 17.0347 43.9441 16.6962 43.3834 16.2408C42.7034 15.6869 42.2978 14.9607 42.1607 14.0744C42.0414 13.3051 42.1129 12.5482 42.3038 11.7973C42.5066 11.0034 42.8824 10.2957 43.3774 9.66177C43.7592 9.18173 44.2065 8.76939 44.6956 8.40628C45.6797 7.67392 46.7772 7.21234 47.9642 6.97232C48.3817 6.88616 48.8052 6.84308 49.2286 6.8C49.4732 6.77538 49.7177 6.78769 49.9623 6.76307C50.2844 6.7323 50.6064 6.75692 50.9285 6.77538C51.4832 6.80615 52.0379 6.90462 52.5747 7.05848C53.4277 7.30466 54.221 7.70469 54.9665 8.19704C55.3125 8.42475 55.551 8.73862 55.6524 9.15712C55.7777 9.66793 55.6942 10.1418 55.3721 10.5603C55.0441 10.9911 54.722 11.4158 54.3939 11.8404C54.3224 11.9327 54.2448 12.0127 54.1553 12.0866C53.8571 12.3389 53.5291 12.3758 53.1772 12.222C53.0579 12.1727 52.9445 12.1051 52.8372 12.0374C52.026 11.5019 51.1433 11.1388 50.1889 10.9973C49.8311 10.9419 49.4672 10.9173 49.1034 10.9419C48.7992 10.9665 48.489 10.985 48.1908 11.0465C47.9403 11.0957 47.6957 11.1819 47.4751 11.3173C47.2126 11.4773 47.0277 11.6927 46.9561 12.0127C46.8726 12.3882 46.9979 12.6836 47.3021 12.8867C47.5049 13.0159 47.7256 13.1205 47.9522 13.2128C48.5785 13.4713 49.2346 13.6498 49.8847 13.8467C50.5408 14.0437 51.191 14.2345 51.8351 14.4683C52.4674 14.696 53.0519 15.0222 53.6066 15.4099C53.8929 15.613 54.1374 15.8777 54.3343 16.1792C54.6265 16.6285 54.7876 17.127 54.8532 17.6563C54.883 17.8963 54.9069 18.1425 54.9009 18.3825C54.889 18.7948 54.8651 19.2072 54.7935 19.6134C54.6385 20.4811 54.3343 21.2873 53.8452 22.0197C53.3919 22.6967 52.8312 23.2567 52.1811 23.7368C51.2506 24.4199 50.2128 24.8569 49.0974 25.0907C48.6083 25.1954 48.1073 25.2569 47.6063 25.2692C47.4512 25.2815 47.2961 25.3 47.2186 25.3061Z" fill="#2C3643"/>
<path d="M35.4528 24.4563C35.1114 24.4563 34.77 24.4623 34.4287 24.4563C34.1265 24.4443 33.8411 24.3605 33.5892 24.1629C33.3374 23.9654 33.2199 23.708 33.2702 23.3607C33.3934 22.4867 33.5053 21.6126 33.6172 20.7385C33.7739 19.5292 33.9306 18.3199 34.0929 17.1106C34.1936 16.3503 34.2944 15.584 34.3951 14.8236C34.535 13.758 34.6693 12.6984 34.8092 11.6327C34.9211 10.7766 35.0331 9.9265 35.1506 9.0704C35.2513 8.32804 35.8669 7.69944 36.5664 7.61562C36.7008 7.59766 36.8351 7.59167 36.9694 7.59167C37.4954 7.59167 38.0271 7.59167 38.5531 7.59167C38.8162 7.59167 39.068 7.63957 39.3142 7.74134C39.5045 7.81917 39.6556 7.95088 39.7787 8.12449C39.8906 8.28015 39.9298 8.46574 39.9018 8.6633C39.7227 10.0043 39.5437 11.3454 39.3702 12.6924C39.2303 13.758 39.096 14.8177 38.9561 15.8833C38.8385 16.7933 38.7154 17.7033 38.5923 18.6132C38.4636 19.607 38.3349 20.5949 38.2062 21.5887C38.1446 22.0676 38.0886 22.5465 38.0103 23.0195C37.8872 23.7558 37.3108 24.3425 36.6168 24.4503C36.5497 24.4623 36.4825 24.4623 36.4153 24.4623C36.0964 24.4563 35.7718 24.4563 35.4528 24.4563Z" fill="#2C3643"/>
<path d="M42.4052 3.32539C42.3991 3.96357 42.2342 4.55796 41.9044 5.09604C41.599 5.59657 41.1898 5.97823 40.7073 6.28481C40.292 6.55385 39.8278 6.69776 39.3453 6.7353C38.6551 6.79161 38.0077 6.66647 37.458 6.19722C36.9694 5.78428 36.664 5.25246 36.603 4.60176C36.493 3.45678 36.89 2.50576 37.7084 1.73618C38.2581 1.22313 38.9055 0.910299 39.6568 0.853988C40.2431 0.810191 40.8111 0.891529 41.312 1.23565C41.9716 1.67987 42.338 2.30555 42.393 3.11892C42.3991 3.18774 42.3991 3.25657 42.4052 3.32539Z" fill="#2C3643"/>
</svg>
