<?xml version="1.0" standalone="no"?>
<!DOCTYPE svg PUBLIC "-//W3C//DTD SVG 20010904//EN"
 "http://www.w3.org/TR/2001/REC-SVG-20010904/DTD/svg10.dtd">
<svg version="1.0" xmlns="http://www.w3.org/2000/svg"
 width="310.000000pt" height="310.000000pt" viewBox="0 0 310.000000 310.000000"
 preserveAspectRatio="xMidYMid meet">
<metadata>
Created by potrace 1.11, written by Peter Selinger 2001-2013
</metadata>
<g transform="translate(0.000000,310.000000) scale(0.100000,-0.100000)"
fill="#000000" stroke="none">
<path d="M1411 3040 c-8 -4 -20 -6 -26 -4 -15 6 -28 -23 -15 -31 6 -4 15 -3
20 0 6 3 10 1 10 -4 0 -6 7 -11 15 -11 8 0 15 -5 15 -12 0 -6 3 -8 6 -5 4 3
16 1 28 -5 11 -7 24 -12 28 -13 4 0 13 -6 19 -12 7 -7 19 -13 26 -13 7 0 13
-5 13 -11 0 -5 5 -7 10 -4 6 3 13 -1 16 -9 3 -9 9 -14 14 -11 4 2 17 -5 28
-16 12 -11 22 -16 22 -12 0 4 4 3 8 -2 4 -6 24 -21 44 -35 21 -14 38 -29 38
-33 0 -5 4 -6 8 -3 5 3 16 -6 26 -20 11 -13 23 -24 28 -24 5 0 20 -11 34 -25
14 -14 29 -25 34 -25 6 0 9 -4 8 -8 -2 -5 21 -32 50 -60 29 -29 50 -52 47 -52
-4 0 7 -13 25 -30 18 -16 29 -30 24 -30 -4 0 1 -7 12 -15 10 -8 16 -15 12 -15
-5 0 0 -9 10 -19 32 -36 42 -50 42 -59 0 -5 7 -15 15 -22 8 -7 13 -15 10 -19
-2 -4 5 -13 15 -21 10 -8 16 -18 13 -22 -3 -5 3 -16 13 -23 11 -8 15 -15 10
-15 -5 0 -3 -7 4 -15 7 -8 9 -15 6 -15 -4 0 2 -10 13 -22 11 -11 18 -25 15
-29 -2 -4 0 -10 6 -14 6 -4 8 -11 5 -16 -4 -5 -1 -9 5 -9 7 0 10 -6 7 -14 -3
-8 1 -20 9 -27 8 -6 12 -14 9 -17 -3 -3 0 -11 5 -18 6 -6 10 -16 8 -20 -1 -5
3 -19 10 -32 7 -12 10 -27 7 -32 -3 -6 -1 -10 4 -10 6 0 10 -3 10 -7 -4 -24 2
-43 12 -37 8 5 8 1 0 -14 -7 -13 -7 -22 -1 -24 5 -2 11 -20 12 -40 2 -21 5
-38 8 -38 3 0 6 -8 7 -17 3 -47 10 -93 15 -98 3 -3 3 -21 1 -40 -2 -24 1 -35
9 -35 8 0 9 -3 3 -8 -13 -9 -18 -32 -7 -32 4 0 8 -9 8 -20 0 -11 -4 -20 -9
-20 -5 0 -4 -7 3 -15 8 -10 9 -15 2 -15 -6 0 -9 -6 -6 -14 11 -29 36 -8 70 60
20 38 37 78 40 89 2 11 8 21 14 23 6 2 8 8 4 13 -3 5 1 9 8 9 9 0 9 3 -2 10
-12 8 -12 10 -1 10 8 0 12 3 9 6 -4 3 0 17 7 31 8 15 12 30 9 35 -3 4 -1 8 4
8 5 0 9 6 10 13 1 19 10 72 13 75 1 1 3 7 4 12 1 6 4 11 5 13 2 2 9 51 11 90
1 15 6 27 11 27 5 0 4 8 -1 19 -6 10 -7 22 -3 26 8 8 10 265 2 265 -3 0 -5 12
-6 28 -2 60 -9 117 -16 122 -4 3 -8 22 -10 43 -1 20 -6 37 -11 37 -4 0 -5 5
-2 10 3 6 2 10 -4 10 -5 0 -8 8 -7 17 2 10 -6 33 -16 51 -10 19 -13 30 -7 26
7 -4 4 5 -7 19 -10 15 -25 27 -31 27 -7 0 -13 5 -13 11 0 5 -4 8 -9 5 -5 -3
-11 1 -15 9 -3 8 -12 15 -21 15 -8 0 -15 5 -15 11 0 5 -4 7 -10 4 -5 -3 -10 1
-10 10 0 9 -4 14 -9 10 -5 -3 -16 1 -24 9 -8 8 -17 12 -21 9 -3 -4 -6 -1 -6 6
0 7 -4 9 -10 6 -5 -3 -10 -2 -10 3 0 9 -120 67 -132 64 -5 -1 -8 3 -8 10 0 6
-3 9 -6 5 -3 -3 -21 3 -40 14 -23 13 -34 15 -34 6 0 -9 -2 -9 -9 1 -4 7 -18
14 -29 15 -12 1 -22 5 -22 10 0 5 -11 7 -25 5 -13 -3 -22 -1 -19 3 3 5 -3 9
-13 10 -10 0 -27 3 -38 5 -19 4 -32 7 -92 20 -16 3 -38 5 -51 5 -15 -1 -21 3
-16 11 5 7 3 8 -7 2 -18 -11 -39 -14 -39 -6 0 12 -135 10 -142 -2 -5 -8 -8 -7
-8 1 0 13 -54 12 -67 -1 -3 -3 -12 -1 -20 5 -10 9 -13 8 -13 -2 0 -10 -2 -11
-8 -2 -5 7 -13 9 -21 3z"/>
<path d="M970 2929 c0 -5 -5 -9 -12 -9 -16 0 -102 -41 -109 -53 -4 -5 -11 -7
-17 -3 -6 3 -14 1 -19 -6 -4 -7 -17 -20 -27 -28 -18 -13 -19 -13 -12 0 4 8 -1
5 -12 -7 -11 -12 -22 -19 -26 -16 -3 4 -6 1 -6 -6 0 -7 -4 -9 -10 -6 -5 3 -10
1 -10 -4 0 -6 -7 -11 -16 -11 -8 0 -13 -4 -10 -8 3 -5 -7 -15 -22 -23 -15 -8
-39 -27 -54 -42 -16 -15 -28 -24 -28 -20 0 4 -11 -4 -24 -19 -13 -16 -28 -28
-35 -28 -6 0 -11 -4 -11 -9 0 -5 -29 -38 -64 -74 -35 -36 -62 -68 -59 -70 2
-3 -7 -13 -20 -23 -13 -11 -24 -23 -25 -29 -1 -5 -9 -18 -17 -28 -8 -9 -15
-22 -15 -27 0 -6 -4 -10 -9 -10 -5 0 -11 -8 -15 -17 -9 -29 -44 -86 -58 -95
-10 -6 -10 -8 2 -8 12 -1 11 -3 -3 -11 -9 -6 -15 -14 -13 -18 3 -4 -3 -17 -13
-27 -9 -11 -16 -25 -14 -31 2 -6 -1 -14 -6 -18 -15 -9 -14 -26 2 -22 12 2 159
96 185 117 7 6 17 8 22 5 6 -3 10 1 10 9 0 10 6 13 15 10 8 -4 15 -1 15 5 0 6
6 10 13 8 6 -1 11 3 10 9 -1 7 6 10 17 7 11 -3 20 0 20 6 0 6 5 11 11 11 5 0
31 9 56 21 25 11 53 21 63 22 10 1 16 5 14 9 -5 7 19 12 54 11 6 -1 12 3 12 8
0 5 9 9 19 9 11 0 22 4 26 9 3 6 13 10 23 10 9 0 28 3 42 6 14 3 36 7 50 10
14 2 34 6 45 9 11 2 33 5 48 5 20 1 26 5 21 14 -5 8 -2 8 9 -2 12 -9 17 -10
17 -2 0 8 5 9 19 1 15 -7 23 -6 35 6 9 8 16 12 16 7 0 -5 11 -9 25 -9 14 0 25
4 25 9 0 5 6 4 14 -2 11 -9 16 -9 21 0 6 8 10 7 16 -2 5 -8 9 -9 9 -3 0 6 7
11 15 11 8 0 15 -3 15 -6 0 -3 24 -7 53 -7 50 -2 157 -11 167 -14 3 -1 10 -3
15 -5 6 -1 12 -3 15 -4 3 -2 14 -4 25 -6 11 -1 34 -6 50 -10 17 -3 39 -8 49
-9 11 -1 22 -8 24 -15 3 -9 7 -9 18 0 11 9 14 9 14 0 0 -7 5 -9 10 -6 6 3 10
1 10 -6 0 -7 3 -9 7 -6 3 4 17 0 31 -9 13 -9 22 -11 18 -6 -3 6 13 0 36 -12
24 -12 55 -26 71 -30 15 -3 27 -11 27 -17 0 -6 4 -8 9 -4 5 3 16 -2 24 -10 9
-8 23 -15 31 -15 9 0 16 -4 16 -8 0 -7 42 -32 54 -32 2 0 3 11 2 25 0 14 -4
25 -8 25 -3 0 -18 20 -32 45 -15 25 -32 45 -37 45 -6 0 -9 5 -7 11 4 11 -25
47 -109 136 -24 25 -43 50 -43 56 0 5 -3 7 -6 4 -4 -3 -19 7 -34 23 -16 17
-31 30 -34 30 -3 0 -20 14 -38 30 -17 17 -34 30 -38 30 -6 0 -20 10 -66 49 -7
5 -14 8 -17 5 -2 -2 -10 2 -17 11 -7 8 -19 15 -27 15 -7 0 -16 6 -19 14 -3 8
-12 12 -20 9 -8 -3 -14 0 -14 7 0 7 -7 10 -16 6 -8 -3 -12 -2 -9 4 6 9 -8 14
-27 11 -5 0 -8 4 -8 10 0 6 -7 9 -15 5 -8 -3 -15 -1 -15 4 0 6 -9 10 -20 10
-11 0 -20 5 -20 11 0 5 -4 8 -9 5 -5 -3 -14 1 -21 9 -7 8 -18 15 -24 15 -6 0
-4 -5 4 -10 19 -12 6 -13 -18 -1 -51 26 -71 33 -80 27 -6 -3 -12 -2 -14 4 -5
15 -158 34 -158 19z"/>
<path d="M2730 2450 c0 -6 -4 -9 -8 -6 -4 2 -8 -4 -8 -14 0 -10 4 -16 8 -14 5
3 7 -4 5 -16 -2 -12 -1 -42 3 -66 4 -26 3 -47 -4 -54 -6 -6 -6 -10 0 -10 5 0
9 -24 8 -52 -4 -142 -8 -185 -16 -202 -7 -14 -7 -16 2 -11 9 6 9 2 0 -15 -6
-12 -9 -28 -6 -36 3 -8 0 -14 -7 -14 -8 0 -6 -4 3 -10 12 -7 12 -10 1 -10 -7
0 -11 -6 -8 -14 3 -8 3 -17 -1 -20 -3 -4 -7 -12 -8 -19 -1 -7 -4 -21 -6 -32
-2 -11 -9 -30 -16 -42 -9 -17 -9 -22 1 -26 9 -4 9 -6 0 -6 -7 -1 -13 -10 -13
-21 0 -11 -5 -20 -11 -20 -5 0 -7 -4 -4 -10 3 -5 3 -16 -2 -22 -8 -14 -10 -19
-12 -44 0 -9 -6 -12 -13 -8 -6 4 -8 3 -5 -3 4 -6 0 -23 -8 -39 -7 -15 -12 -31
-10 -35 3 -4 -2 -10 -11 -13 -8 -3 -12 -10 -9 -16 3 -5 1 -10 -4 -10 -6 0 -10
-3 -9 -7 1 -5 -9 -28 -21 -53 -13 -25 -23 -47 -22 -49 2 -2 -4 -8 -13 -13 -9
-5 -16 -14 -16 -19 0 -12 -110 -162 -122 -167 -4 -2 -8 -10 -8 -18 0 -9 -4
-12 -10 -9 -5 3 -10 1 -10 -4 0 -21 -194 -204 -204 -194 -3 4 -6 1 -6 -5 0 -7
-26 -29 -57 -49 -32 -21 -59 -41 -61 -45 -2 -5 -10 -8 -18 -8 -8 0 -14 -5 -14
-11 0 -5 -4 -7 -10 -4 -5 3 -10 3 -10 -2 0 -4 -13 -14 -30 -21 -69 -31 -18
-41 147 -28 12 1 25 4 28 8 4 3 20 4 36 1 17 -2 29 0 29 7 0 6 4 9 8 6 4 -3
28 0 53 6 24 5 51 11 59 13 8 2 16 4 18 5 1 2 5 3 10 4 4 1 13 5 20 9 6 5 12
6 12 2 0 -3 14 1 30 10 17 9 30 13 30 9 0 -4 6 -1 13 5 8 6 17 8 20 4 4 -3 7
-1 7 5 0 7 4 12 9 12 5 0 22 5 38 12 15 6 31 11 36 10 4 -1 7 2 7 7 0 8 37 24
53 22 4 -1 7 3 7 8 0 5 11 12 25 15 16 4 23 11 19 18 -5 7 -2 9 9 5 9 -3 17
-3 19 1 4 9 75 62 83 62 4 0 12 6 20 12 31 30 54 46 58 41 3 -2 8 5 12 17 4
13 12 19 21 16 7 -3 13 -2 12 2 -4 10 59 72 73 72 7 0 9 3 6 6 -4 4 9 22 28
39 19 18 31 35 28 39 -4 3 -1 6 6 6 8 0 11 8 8 20 -3 11 -1 20 3 20 5 0 7 9 5
20 -2 11 0 22 5 25 6 3 6 15 0 29 -5 13 -6 27 -2 30 10 11 10 56 -1 56 -6 0
-6 5 0 13 13 16 12 47 -1 47 -7 0 -8 3 -1 8 13 9 14 45 1 54 -6 4 -5 13 3 22
8 9 9 16 4 16 -5 0 -9 15 -10 33 -2 47 -13 120 -21 132 -3 5 -7 19 -7 30 0 11
-6 30 -13 43 -7 12 -8 22 -3 22 9 0 -4 36 -30 84 -8 14 -8 16 3 10 10 -6 10
-4 -1 9 -7 9 -10 17 -5 17 5 0 2 6 -6 13 -9 7 -15 19 -15 27 0 8 -4 18 -9 22
-5 3 -11 14 -12 24 -4 25 -24 65 -49 93 -11 13 -13 20 -6 16 8 -5 4 7 -9 26
-13 19 -28 36 -32 37 -5 2 -6 7 -3 12 3 5 -2 16 -11 24 -8 9 -12 16 -7 16 4 0
0 5 -9 11 -10 5 -18 17 -18 25 0 8 -4 12 -10 9 -5 -3 -10 1 -10 9 0 8 -4 18
-10 21 -5 3 -10 1 -10 -5z"/>
<path d="M1055 2292 c-2 -2 -21 -5 -42 -6 -21 -1 -44 -6 -51 -10 -7 -4 -12 -2
-12 5 0 8 -4 9 -13 1 -7 -6 -28 -12 -45 -14 -18 -1 -32 -5 -32 -9 0 -3 -11 -5
-25 -4 -14 2 -25 -1 -25 -7 0 -6 -6 -8 -14 -5 -8 3 -17 3 -21 -1 -4 -4 -11 -8
-16 -8 -5 -1 -11 -3 -14 -4 -3 -1 -9 -4 -15 -5 -5 -1 -11 -3 -12 -5 -2 -1 -12
-3 -23 -5 -11 -2 -21 -9 -23 -15 -2 -5 -8 -8 -12 -5 -11 7 -90 -27 -90 -38 0
-4 -4 -6 -9 -2 -5 3 -12 1 -16 -5 -4 -6 -11 -8 -16 -5 -5 4 -9 1 -9 -5 0 -6
-5 -8 -10 -5 -6 3 -10 1 -10 -4 0 -6 -6 -11 -14 -11 -8 0 -17 -8 -20 -17 -6
-14 -9 -15 -15 -4 -7 10 -10 9 -14 -3 -4 -9 -13 -16 -21 -16 -8 0 -22 -10 -31
-22 -8 -13 -19 -23 -23 -22 -15 1 -62 -32 -62 -44 0 -7 -4 -11 -9 -8 -5 3 -55
-39 -111 -94 -56 -55 -98 -100 -94 -100 3 0 1 -6 -5 -13 -6 -8 -8 -17 -4 -20
3 -4 2 -7 -3 -7 -5 0 -9 -15 -9 -32 1 -18 -2 -42 -5 -53 -4 -11 -4 -30 1 -43
6 -15 5 -21 -1 -17 -13 8 -13 -1 1 -27 6 -11 7 -18 1 -14 -5 3 -9 -5 -9 -19 0
-14 4 -22 9 -19 6 4 5 -3 -1 -14 -8 -14 -8 -23 -1 -27 8 -5 8 -11 0 -20 -6 -7
-7 -16 -2 -19 4 -2 7 -19 6 -35 -1 -17 2 -34 7 -37 5 -3 6 -11 2 -17 -11 -18
-11 -47 0 -40 6 4 8 0 4 -10 -3 -9 -2 -19 2 -21 5 -3 7 -17 6 -31 -2 -14 0
-25 4 -25 4 0 7 -8 7 -17 2 -33 15 -87 24 -98 4 -5 9 -14 9 -20 4 -26 26 -91
34 -96 5 -3 9 -10 9 -15 1 -10 6 -29 16 -54 3 -8 6 -19 6 -23 1 -4 7 -12 15
-16 7 -5 10 -14 7 -20 -4 -6 -2 -11 3 -11 6 0 11 -7 11 -15 0 -8 5 -15 11 -15
5 0 7 -4 4 -10 -3 -5 -2 -10 4 -10 6 0 13 -11 17 -25 3 -14 10 -25 15 -25 5 0
9 -7 9 -15 0 -8 5 -15 10 -15 6 0 10 -7 10 -15 0 -8 5 -15 10 -15 6 0 10 -5
10 -10 0 -6 9 -20 20 -32 18 -19 20 -20 20 -4 0 10 5 14 11 10 8 -5 8 -1 0 14
-6 11 -12 54 -13 96 -2 42 -7 76 -13 76 -5 0 -4 4 4 9 9 6 10 11 2 15 -6 4 -8
13 -4 19 11 17 10 31 -2 40 -7 5 -7 9 0 15 6 4 11 27 11 52 1 47 10 127 18
170 3 14 7 42 10 63 4 21 10 46 15 55 5 9 7 25 6 35 -2 9 1 17 6 17 6 0 8 4 5
8 -3 5 1 20 9 35 9 18 10 27 3 27 -6 0 -3 9 7 20 10 11 15 20 10 20 -4 0 -2 7
5 15 7 8 9 15 6 15 -4 0 0 12 8 28 20 34 40 85 38 95 -1 4 3 7 9 7 5 0 7 5 4
10 -3 6 -2 10 4 10 6 0 13 11 17 25 3 14 10 25 16 25 5 0 6 5 3 10 -3 6 1 13
9 16 9 3 13 10 10 15 -3 5 -1 9 3 9 5 0 17 17 28 38 11 20 24 42 30 48 5 6 19
23 30 39 11 15 30 39 43 53 12 14 22 29 22 33 0 5 3 8 8 7 4 -2 8 0 10 5 3 11
41 47 47 45 2 -2 16 13 30 32 14 19 28 34 30 33 3 -2 5 0 4 3 -1 11 54 43 64
37 6 -3 7 -1 3 5 -3 6 7 19 24 28 16 10 30 22 30 26 0 4 7 8 15 8 8 0 15 4 15
9 0 7 52 38 127 75 26 13 42 42 18 32 -8 -3 -15 -2 -15 2 0 7 -88 10 -95 4z"/>
<path d="M710 1575 c-7 -8 -9 -15 -4 -15 4 0 -1 -7 -12 -15 -10 -8 -14 -15 -9
-15 6 0 4 -4 -3 -9 -7 -4 -14 -16 -16 -25 -1 -10 -9 -22 -17 -27 -8 -5 -10 -9
-5 -9 5 0 2 -7 -5 -17 -8 -9 -13 -18 -11 -20 3 -5 0 -18 -17 -58 -7 -16 -13
-38 -14 -47 -1 -10 -4 -18 -7 -18 -4 0 -7 -6 -8 -12 0 -7 -4 -26 -7 -43 -4
-16 -8 -36 -8 -42 0 -7 -4 -13 -8 -13 -4 0 -6 -9 -4 -20 2 -11 0 -20 -4 -20
-5 0 -7 -12 -5 -27 1 -15 -2 -33 -8 -40 -8 -10 -7 -13 3 -13 9 0 10 -3 4 -8
-6 -4 -11 -31 -10 -59 0 -29 -4 -53 -8 -53 -5 0 -6 -3 -3 -8 2 -4 6 -63 8
-130 2 -67 5 -122 9 -122 3 0 6 -19 8 -42 1 -23 7 -49 14 -57 10 -12 9 -13 -3
-6 -12 6 -13 5 -2 -6 6 -7 12 -20 12 -28 0 -43 47 -158 76 -188 18 -17 35 -29
38 -26 3 4 6 2 6 -4 0 -6 8 -14 18 -17 32 -12 62 -33 55 -39 -3 -4 1 -7 9 -7
8 0 27 -9 40 -20 14 -10 28 -17 30 -14 3 2 11 -2 18 -11 7 -8 21 -15 31 -15
11 0 19 -4 19 -10 0 -5 9 -10 20 -10 11 0 20 -5 20 -11 0 -5 4 -7 10 -4 5 3
10 1 10 -5 0 -6 3 -9 8 -7 4 3 24 -3 45 -13 20 -10 34 -14 31 -8 -4 5 4 3 17
-5 13 -8 40 -18 59 -22 19 -4 40 -11 45 -15 6 -4 20 -6 33 -5 12 1 22 -2 22
-6 0 -4 9 -6 20 -4 11 2 20 0 20 -5 0 -4 14 -7 31 -6 16 1 32 -1 34 -4 2 -4
14 -6 27 -5 13 1 31 -2 41 -7 12 -6 17 -5 17 4 0 8 3 9 8 3 11 -15 72 -17 72
-2 0 9 2 9 8 0 9 -14 124 -12 134 2 5 6 8 6 8 -2 0 -6 8 -10 18 -8 9 2 17 4
17 5 0 1 12 3 28 4 53 5 45 29 -15 43 -16 3 -28 9 -28 14 0 5 -9 9 -20 9 -11
0 -20 5 -20 11 0 5 -4 7 -10 4 -5 -3 -10 -1 -10 5 0 6 -4 9 -9 6 -5 -3 -14 1
-21 9 -7 8 -16 12 -21 9 -5 -3 -9 0 -9 6 0 6 -4 9 -9 6 -5 -3 -12 1 -15 10 -3
9 -13 14 -20 11 -8 -3 -17 1 -20 9 -3 8 -12 14 -21 14 -8 0 -15 5 -15 10 0 6
-7 10 -15 10 -8 0 -15 5 -15 10 0 6 -7 10 -15 10 -8 0 -15 5 -15 10 0 6 -7 10
-15 10 -9 0 -18 7 -21 15 -4 8 -11 15 -18 15 -6 0 -18 8 -27 17 -17 20 -135
124 -153 135 -6 4 -7 8 -3 8 4 0 -3 11 -17 24 -15 13 -26 29 -26 35 0 7 -5 9
-10 6 -5 -3 -10 -2 -10 2 0 5 -16 26 -35 48 -19 22 -37 48 -41 58 -3 9 -10 17
-15 17 -5 0 -9 6 -9 13 0 7 -9 23 -20 35 -12 12 -18 22 -15 22 4 0 -1 7 -9 16
-9 8 -16 22 -16 30 0 8 -4 14 -10 14 -5 0 -10 8 -10 18 0 9 -9 28 -20 42 -11
14 -20 31 -20 38 0 7 -4 20 -10 30 -15 25 -33 76 -32 85 1 4 -2 7 -8 7 -5 0
-7 6 -4 14 3 8 1 17 -5 20 -6 4 -8 13 -4 21 3 8 0 15 -7 15 -7 0 -10 8 -7 20
3 11 1 20 -5 20 -6 0 -8 6 -5 14 3 8 3 17 -1 20 -3 4 -7 12 -8 19 -8 46 -14
70 -18 75 -3 2 -1 13 5 23 7 15 6 21 -6 25 -8 3 -15 10 -15 16 0 5 5 6 11 2 8
-4 8 -1 1 12 -5 11 -9 40 -8 67 1 26 -1 47 -5 47 -9 0 -4 65 6 72 6 5 6 8 -2
8 -8 0 -11 11 -8 30 4 33 -6 38 -25 15z"/>
<path d="M2898 973 c-10 -2 -18 -8 -18 -11 0 -4 -16 -16 -35 -26 -19 -11 -35
-23 -35 -27 0 -4 -13 -12 -30 -18 -16 -5 -30 -15 -30 -21 0 -6 -4 -8 -10 -5
-5 3 -10 2 -10 -4 0 -6 -7 -7 -17 -4 -11 4 -14 3 -9 -5 4 -7 -3 -14 -19 -18
-14 -3 -25 -10 -25 -16 0 -5 -4 -7 -9 -3 -5 3 -12 1 -16 -5 -4 -6 -11 -8 -16
-5 -5 4 -9 1 -9 -4 0 -6 -7 -11 -15 -11 -8 0 -15 -5 -15 -11 0 -5 -4 -8 -8 -5
-5 3 -20 -1 -35 -9 -15 -8 -27 -11 -27 -8 0 3 -7 -1 -16 -8 -9 -7 -25 -14 -37
-16 -11 -2 -27 -9 -36 -16 -12 -10 -13 -9 -7 1 6 11 4 11 -10 3 -24 -12 -56
-24 -69 -26 -5 -1 -21 -5 -35 -10 -14 -5 -33 -8 -44 -6 -10 1 -16 -1 -13 -6 4
-5 -4 -9 -16 -8 -12 1 -25 -3 -29 -9 -5 -7 -8 -7 -8 2 0 7 -5 10 -10 7 -12 -8
-42 -13 -97 -19 -23 -2 -46 -7 -52 -10 -6 -4 -11 -2 -11 5 0 9 -3 9 -14 0 -11
-9 -15 -9 -18 0 -3 8 -9 9 -18 4 -19 -12 -101 -15 -94 -4 3 5 -6 5 -20 -1 -18
-7 -26 -6 -26 1 0 8 -4 8 -13 0 -8 -6 -17 -8 -21 -4 -3 4 -23 8 -44 10 -20 1
-48 6 -62 9 -14 4 -31 6 -38 5 -8 -1 -20 3 -28 10 -11 9 -14 9 -14 -1 0 -10
-3 -10 -15 0 -8 6 -19 9 -26 5 -6 -4 -14 -3 -18 3 -3 6 -18 12 -31 14 -14 2
-31 7 -37 11 -7 5 -17 5 -23 2 -5 -3 -10 -2 -10 4 0 6 -7 7 -17 4 -11 -4 -14
-3 -9 5 5 8 -3 12 -23 12 -17 0 -31 5 -31 11 0 5 -4 7 -10 4 -5 -3 -10 -1 -10
5 0 6 -6 10 -12 8 -7 -1 -27 6 -45 15 -18 9 -39 17 -47 17 -8 0 -16 4 -18 8
-1 5 -37 27 -79 50 -65 35 -76 38 -72 21 3 -10 10 -19 15 -19 5 0 7 -4 3 -10
-3 -5 3 -18 14 -29 11 -11 17 -22 14 -25 -3 -3 2 -8 11 -12 9 -3 14 -10 11
-14 -3 -5 6 -20 20 -34 14 -14 25 -30 25 -36 0 -5 5 -10 10 -10 6 0 15 -11 22
-25 6 -13 14 -22 18 -20 4 2 13 -7 20 -20 7 -14 21 -27 31 -30 10 -4 18 -9 16
-13 -1 -4 11 -19 26 -34 15 -15 27 -25 27 -22 0 2 13 -9 30 -26 16 -17 30 -28
30 -24 0 4 8 -3 19 -14 10 -12 23 -22 30 -22 6 0 11 -4 11 -10 0 -5 7 -10 16
-10 8 0 12 -4 9 -10 -3 -5 1 -10 9 -10 9 0 16 -5 16 -11 0 -5 5 -7 10 -4 6 3
10 1 10 -5 0 -6 5 -8 10 -5 6 3 10 2 10 -3 0 -5 21 -20 48 -33 26 -13 49 -27
50 -32 2 -4 8 -5 13 -1 5 3 9 0 9 -6 0 -7 7 -10 15 -6 8 3 15 1 15 -4 0 -6 4
-10 9 -10 5 0 30 -10 57 -22 27 -11 49 -19 50 -17 0 2 8 -2 17 -9 9 -8 21 -11
27 -7 5 3 10 2 10 -3 0 -5 6 -9 13 -10 6 0 23 -3 37 -7 14 -4 31 -7 38 -7 6
-1 12 -4 12 -7 0 -6 29 -12 73 -14 9 -1 17 -5 17 -9 0 -4 10 -4 23 1 28 12 50
18 61 19 5 0 12 4 15 9 8 11 63 37 74 35 4 -1 7 3 7 9 0 5 5 7 10 4 6 -3 10
-1 10 4 0 6 4 11 10 11 5 0 19 8 30 18 11 9 23 15 26 14 3 -2 19 9 35 24 16
15 29 24 29 18 0 -5 4 -4 8 2 4 6 33 30 65 54 32 24 63 52 68 62 6 11 13 17
17 14 3 -3 13 5 22 20 10 14 20 25 24 25 3 -1 6 1 7 4 0 2 22 27 49 55 28 27
47 50 42 50 -4 0 1 5 11 11 9 5 17 16 17 24 0 7 4 15 8 17 12 5 77 102 74 111
-1 4 3 7 8 7 6 0 10 7 10 15 0 8 5 15 10 15 6 0 10 6 10 14 0 8 7 22 16 30 8
9 12 16 9 16 -4 0 5 20 18 45 16 27 21 45 14 45 -7 0 -6 4 3 10 15 10 8 11
-22 3z"/>
</g>
</svg>
