<?xml version="1.0" encoding="UTF-8"?>
<svg width="411px" height="1607px" viewBox="0 0 411 1607" version="1.1" xmlns="http://www.w3.org/2000/svg" xmlns:xlink="http://www.w3.org/1999/xlink">
    <!-- Generator: Sketch 54.1 (76490) - https://sketchapp.com -->
    <title>Artboard</title>
    <desc>Created with Sketch.</desc>
    <defs>
        <linearGradient x1="13.7929023%" y1="46.8614173%" x2="53.4319838%" y2="49.7666719%" id="linearGradient-1">
            <stop stop-color="#A6F2CA" offset="0%"></stop>
            <stop stop-color="#9FF1C9" offset="20%"></stop>
            <stop stop-color="#8CEDC6" offset="48%"></stop>
            <stop stop-color="#6CE6C2" offset="82%"></stop>
            <stop stop-color="#58E2BF" offset="100%"></stop>
        </linearGradient>
        <linearGradient x1="0.00322123606%" y1="49.9982153%" x2="100.008354%" y2="49.9982153%" id="linearGradient-2">
            <stop stop-color="#00D0B2" offset="0%"></stop>
            <stop stop-color="#14D4B5" offset="19%"></stop>
            <stop stop-color="#2EDAB9" offset="50%"></stop>
            <stop stop-color="#3EDDBB" offset="78%"></stop>
            <stop stop-color="#44DEBC" offset="100%"></stop>
        </linearGradient>
    </defs>
    <g id="Artboard" stroke="none" stroke-width="1" fill="none" fill-rule="evenodd">
        <g id="Filler-green-swirls" transform="translate(16.000000, -1273.000000)" fill-rule="nonzero">
            <g id="Artwork_78" transform="translate(0.000000, 1187.000000)" fill="url(#linearGradient-1)">
                <path d="M2216.65,150.77 C2215.75,170.27 2214.05,189.57 2211.45,208.87 L2216.85,168.87 C2210.55,214.57 2199.15,259.27 2181.25,301.87 L2196.45,265.97 C2182.34241,299.300725 2164.1354,330.74309 2142.25,359.57 L2165.75,329.17 C2144.5478,356.600428 2119.95146,381.230371 2092.55,402.47 L2123,379 C2094.15969,401.000151 2062.68231,419.308766 2029.3,433.5 L2065.2,418.3 C2023.4,435.9 1979.4,447.3 1934.5,453.4 L1974.5,448 C1916.7,455.6 1858.3,454.5 1800.6,446.9 L1840.6,452.3 C1763,441.8 1687.4,419.6 1615.3,389.3 L1651.2,404.5 C1569.5,369.9 1492.4,325 1420.8,272.7 C1343.4,216.1 1262.2,164.7 1175.1,124.2 C1094.6,86.8 1011.2,54.4 923.9,37.4 C849,22.8 771.6,14.4 695.3,20.3 C627.7,25.5 559.8,36.7 495.6,59 C437.4,79.3 380.1,104.9 327.6,137.4 C248.8,186.2 175.6,247.7 115.1,318.1 C81.2,357.6 47.4,399.4 21.2,444.6 L20.4,446 C1.1,480.4 -5.3,523.7 5.3,561.9 C14.9,596.8 41.9,634.6 74.4,651.8 C109.3,670.2 151.6,679.5 190.3,667 C227.3,655 260.7,632.5 280.2,597.9 C288.2,583.7 297.5,570.2 307,557 C312.733333,549 318.6,541.1 324.6,533.3 L301.1,563.7 C332.539589,523.059063 367.690975,485.430342 406.1,451.3 C419.433333,439.433333 433.166667,428.066667 447.3,417.2 L416.9,440.7 C464.7,403.9 516.7,372.8 572.2,349.2 L536.2,364.4 C588.613979,342.290694 643.727241,327.226178 700.1,319.6 L660.1,325 C720,317.1 780.6,317.8 840.5,325.8 L800.5,320.4 C877.1,330.9 951.4,353.1 1022.6,383 L986.7,367.8 C1047.1,393.4 1105.2,424.3 1160.9,458.9 C1221.9,496.8 1278,541.6 1338.7,579.9 C1402.2,620 1469.1,651.8 1538.3,680.7 C1591.7,702.9 1646.9,720.8 1703.5,732.6 C1826.9,758.4 1954.7,763 2077.5,731.3 C2099.85543,725.513773 2121.77618,718.162299 2143.1,709.3 C2174.9,696.1 2206.5,683.1 2236.1,665.3 C2283.6,636.7 2329.2,600.5 2365.4,558.2 C2387.6,532.2 2409,504.7 2426.9,475.4 C2444.8,446.1 2459.4,411.7 2473,378.5 C2497.5,318.8 2507.7,255.8 2514.6,192 C2516.1,178.3 2517.1,164.6 2517.7,150.9 C2519.4,113.5 2499.7,70.6 2473.6,44.5 C2447.5,18.4 2404.6,-1.3 2367.1,0.4 C2329.6,2.1 2287.8,14.9 2260.7,44.5 C2233.6,74.1 2218.6,109.5 2216.6,150.9 L2216.65,150.77 Z" id="Artwork_78-2-2"></path>
            </g>
            <g id="Artwork_78-3" transform="translate(52.000000, 0.000000)" fill="url(#linearGradient-2)">
                <path d="M737.5,333.9 C758.15,342.1 778.3,351.09 798.12,361.04 L757.06,340.4 C803.92,364.12 847.82,393 887,428 L854,398.33 C884.65208,425.855404 911.751256,457.096551 934.67,491.33 L910.67,454.76 C932.344503,487.760682 949.743489,523.378538 962.45,560.76 L948.45,519.32 C961.441084,558.525109 969.480082,599.200494 972.38,640.4 L969.38,596.12 C972.83,647.64 968.79,699.24 958.71,749.83 L967.71,704.77 C954.46,769.77 931.63,832.27 902.06,891.58 L922.7,850.51 C882.63,930.16 830.7,1003.32 771.36,1069.71 L801.04,1036.71 C733.5,1111.83 656.58,1178.19 573.74,1235.89 C484.11,1298.23 398.68,1366.6 322.74,1445.35 C252.64,1518.15 186.84,1595.93 136.18,1683.61 C92.7,1758.87 55,1839.08 33,1923.41 C13.54,1998.11 0.43,2075.41 0.63,2152.74 C0.91,2222.92 7.23,2294.1 22.76,2362.67 C46.09,2465.59 85.16,2567.19 138.52,2658.42 C168.52,2709.56 200.95,2761.42 239.9,2806.42 L241.11,2807.8 C270.99,2841.33 315.23,2864.27 360.29,2867.02 C401.42,2869.62 452.12,2854.57 482.68,2825.95 C515.43,2795.2 541.12,2753.11 542.01,2706.81 C542.81,2662.53 531.01,2618.24 500.95,2584.42 C488.62,2570.54 477.54,2555.52 466.85,2540.42 C460.356667,2531.28667 454.023333,2522.04333 447.85,2512.69 L471.85,2549.26 C439.75262,2500.34815 412.271079,2448.55872 389.76,2394.56 C381.926667,2375.8 374.78,2356.8 368.32,2337.56 L382.32,2379 C360.42,2313.9 346.21,2246.39 341.38,2177.89 L344.38,2222.28 C340.014312,2157.67606 344.22425,2092.77846 356.9,2029.28 L347.9,2074.34 C361.6,2006.93 384.82,1941.95 415.64,1880.43 L395,1921.49 C434.7,1842.92 486.14,1771.16 544.72,1705.59 L515.05,1738.59 C565.05,1683.06 619.8,1631.97 677.7,1584.83 C741.11,1533.21 810.14,1489.42 873.87,1438.27 C940.58,1384.77 999.62,1324.54 1056.38,1260.75 C1100.07,1211.49 1139.81,1158.7 1173.49,1102.14 C1247.01,978.86 1299.34,842.98 1310.73,699.02 C1312.78976,672.810717 1313.00028,646.488876 1311.36,620.25 C1308.94,581.12 1306.66,542.25 1298.47,503.82 C1285.29,442.08 1263.22,379.57 1231.1,324.92 C1211.34,291.38 1189.66,258.15 1164.76,228.01 C1139.86,197.87 1108.23,169.42 1077.53,142.47 C1022.34,93.96 958.3,59.63 892.17,28.55 C877.97,21.85 863.6,15.7 849.07,9.97 C809.44,-5.72 755.95,-0.41 718.17,17.97 C680.39,36.35 643.29,75.28 631.22,116.28 C619.15,157.28 617.44,207.02 639.22,247.17 C661,287.32 693.59,316.59 737.42,334.09 L737.5,333.9 Z" id="Artwork_78-4-2"></path>
            </g>
        </g>
    </g>
</svg>