<svg width="627" height="202" viewBox="0 0 627 202" fill="none" xmlns="http://www.w3.org/2000/svg">
<g filter="url(#filter0_d_1116_855)">
<rect x="101.197" y="16.707" width="46.8755" height="46.8755" rx="3.50429" fill="white"/>
<rect x="151.2" y="16.707" width="122.008" height="46.8755" rx="3.50429" fill="white"/>
<rect x="277.103" y="16.707" width="46.8755" height="46.8755" rx="3.50429" fill="white"/>
<rect x="327.886" y="16.707" width="46.8755" height="46.8755" rx="3.50429" fill="white"/>
<rect x="378.667" y="16.707" width="46.8755" height="46.8755" rx="3.50429" fill="white"/>
<rect x="429.447" y="16.707" width="46.8755" height="46.8755" rx="3.50429" fill="white"/>
<rect x="480.231" y="16.707" width="46.8755" height="46.8755" rx="3.50429" fill="white"/>
<path d="M510.434 31.4568C508.998 29.8762 509.079 27.8242 509.079 27.8242H507.962C508.145 28.8533 508.709 30.476 510.434 31.4568Z" fill="#E02F54"/>
<path d="M500.754 39.092C498.964 39.092 497.512 40.5428 497.512 42.3338C497.512 43.6387 498.284 44.763 499.396 45.2775C498.97 44.7283 498.716 44.0406 498.716 43.2923C498.716 41.5026 500.166 40.0506 501.957 40.0506C502.305 40.0506 502.64 40.1062 502.954 40.2076V36.1532C502.629 36.1087 502.296 36.084 501.957 36.084C501.888 36.084 501.819 36.0852 501.751 36.0877V39.2491C501.437 39.1477 501.101 39.092 500.754 39.092Z" fill="#FF004F"/>
<path d="M513.38 33.0586V36.246C513.38 36.246 510.973 36.5898 507.928 34.5267C507.928 35.7549 507.928 36.9819 507.928 38.2101C507.928 40.706 508.253 43.301 507.097 45.6101C505.886 48.0294 503.473 49.5681 500.757 49.5681C499.334 49.5681 498.009 49.1562 496.891 48.4475C498.195 49.7326 499.985 50.5266 501.96 50.5266C504.676 50.5266 507.089 48.9892 508.3 46.5687C509.457 44.2595 509.131 41.6646 509.131 39.1686C509.131 37.9404 509.131 36.7135 509.131 35.4853C512.176 37.5484 514.582 37.2045 514.582 37.2045V33.2256C514.148 33.1959 513.748 33.139 513.38 33.0586Z" fill="#FF004F"/>
<path d="M513.378 33.058V32.2665C512.14 32.1811 511.181 31.8781 510.437 31.4551C511.073 32.1564 512.007 32.7637 513.378 33.058Z" fill="#2CB1BB"/>
<path d="M494.739 43.3057C494.739 39.3874 497.86 36.1988 501.752 36.0899V35.1982C501.427 35.1536 501.094 35.1289 500.755 35.1289C496.768 35.1289 493.536 38.3608 493.536 42.3484C493.536 44.9136 494.874 47.1659 496.89 48.4473C495.562 47.1375 494.739 45.3181 494.739 43.3057Z" fill="#00F7EF"/>
<path d="M501.955 46.5336C503.718 46.5336 505.036 45.1595 505.164 43.4601C505.328 41.2684 505.245 39.0692 505.245 36.8738C505.245 36.6697 505.245 27.8226 505.245 27.8226H507.959C507.858 27.2536 507.872 26.8652 507.872 26.8652H504.042C504.042 26.8652 504.042 35.7124 504.042 35.9165C504.042 38.1119 504.125 40.311 503.96 42.5027C503.833 44.2022 502.514 45.5763 500.752 45.5763C500.267 45.5763 499.807 45.4687 499.394 45.2782C499.986 46.0414 500.913 46.5336 501.955 46.5336Z" fill="#00F7EF"/>
<path d="M507.096 45.6094C508.252 43.3002 507.927 40.7053 507.927 38.2093C507.927 36.9811 507.927 35.7542 507.927 34.526C510.972 36.5891 513.379 36.2452 513.379 36.2452V33.0579C512.008 32.7622 511.073 32.155 510.438 31.4549C508.711 30.4741 508.147 28.8526 507.964 27.8223H505.25C505.25 27.8223 505.25 36.6695 505.25 36.8735C505.25 39.0689 505.333 41.2681 505.169 43.4598C505.041 45.1592 503.723 46.5333 501.96 46.5333C500.919 46.5333 499.992 46.0411 499.399 45.2779C498.287 44.7646 497.515 43.6403 497.515 42.3342C497.515 40.5445 498.966 39.0924 500.757 39.0924C501.104 39.0924 501.44 39.1481 501.754 39.2495V36.0894C497.863 36.1995 494.741 39.3881 494.741 43.3052C494.741 45.3175 495.565 47.1369 496.892 48.4455C498.009 49.1555 499.334 49.5661 500.757 49.5661C503.472 49.5673 505.885 48.0287 507.096 45.6094Z" fill="black"/>
<path d="M493.511 51.4961V52.5276H494.64V56.1368H495.819V52.5524H496.728L497.12 51.4961H493.511Z" fill="black"/>
<path d="M502.841 51.4941V52.5257H503.972V56.1348H505.151V52.5504H506.059L506.452 51.4941H502.841Z" fill="black"/>
<path d="M498.397 53.041H497.218V56.1356H498.397V53.041Z" fill="black"/>
<path d="M497.807 52.6716C498.132 52.6716 498.395 52.408 498.395 52.0829C498.395 51.7577 498.132 51.4941 497.807 51.4941C497.482 51.4941 497.218 51.7577 497.218 52.0829C497.218 52.408 497.482 52.6716 497.807 52.6716Z" fill="black"/>
<path d="M498.766 51.4934V56.1341C498.766 56.1341 499.907 56.097 499.944 56.1341C499.981 56.1712 499.944 55.0048 499.944 55.0048L500.338 54.6857L501.32 56.1353H502.573L501.001 53.9238L502.425 52.6709H501.024L499.993 53.6777V51.4922H498.766V51.4934Z" fill="black"/>
<path d="M510.798 51.4934V56.1341C510.798 56.1341 511.94 56.097 511.977 56.1341C512.014 56.1712 511.977 55.0048 511.977 55.0048L512.37 54.6857L513.352 56.1353H514.605L513.033 53.9238L514.458 52.6709H513.058L512.026 53.6777V51.4922H510.798V51.4934Z" fill="black"/>
<path d="M506.256 54.2597C506.256 53.2133 507.069 52.3574 508.098 52.2881C508.053 52.2857 508.009 52.2832 507.963 52.2832C506.871 52.2832 505.987 53.1688 505.987 54.2597C505.987 55.3506 506.872 56.2362 507.963 56.2362C508.009 56.2362 508.053 56.2337 508.098 56.2312C507.069 56.162 506.256 55.3061 506.256 54.2597Z" fill="#00F7EF"/>
<path d="M508.428 52.2793C508.395 52.2793 508.363 52.2805 508.331 52.2818C509.377 52.3325 510.209 53.197 510.209 54.2558C510.209 55.3145 509.377 56.1791 508.331 56.2298C508.363 56.231 508.396 56.2323 508.428 56.2323C509.52 56.2323 510.405 55.3467 510.405 54.2558C510.405 53.1649 509.52 52.2793 508.428 52.2793Z" fill="#FF004F"/>
<path d="M508.327 52.2818C508.294 52.2805 508.261 52.2793 508.229 52.2793C508.183 52.2793 508.139 52.2818 508.094 52.2842C507.065 52.3535 506.252 53.2094 506.252 54.2558C506.252 55.3022 507.065 56.1581 508.094 56.2273C508.139 56.2298 508.183 56.2323 508.229 56.2323C508.262 56.2323 508.294 56.231 508.327 56.2298C509.373 56.1791 510.205 55.3145 510.205 54.2558C510.205 53.197 509.372 52.3337 508.327 52.2818ZM507.358 54.257C507.358 53.8229 507.677 53.463 508.093 53.3986C508.137 53.3912 508.182 53.3875 508.228 53.3875C508.261 53.3875 508.293 53.39 508.325 53.3937C508.759 53.4419 509.097 53.8105 509.097 54.2583C509.097 54.706 508.759 55.0733 508.325 55.1228C508.293 55.1265 508.26 55.129 508.228 55.129C508.182 55.129 508.136 55.1241 508.093 55.1179C507.676 55.0498 507.358 54.6912 507.358 54.257Z" fill="black"/>
<path d="M125.019 54.1858C132.569 54.1858 138.691 48.0646 138.691 40.5138C138.691 32.963 132.569 26.8418 125.019 26.8418C117.468 26.8418 111.347 32.963 111.347 40.5138C111.347 48.0646 117.468 54.1858 125.019 54.1858Z" fill="#3C5A9A"/>
<path d="M129.563 31.0234H126.518C124.711 31.0234 122.702 31.7804 122.702 34.3892C122.71 35.2982 122.702 36.1688 122.702 37.1486H120.611V40.4618H122.766V49.9999H126.726V40.3988H129.34L129.576 37.1393H126.658C126.658 37.1393 126.665 35.6893 126.658 35.2682C126.658 34.2372 127.735 34.2963 127.8 34.2963C128.312 34.2963 129.309 34.2978 129.565 34.2963V31.0234H129.563Z" fill="white"/>
<path d="M305.036 33.1108C306.423 30.7079 305.6 27.6355 303.197 26.2482C300.794 24.8609 297.722 25.6842 296.335 28.087L286.646 44.8682C285.259 47.2711 286.082 50.3435 288.485 51.7308C290.888 53.1181 293.96 52.2948 295.347 49.892L305.036 33.1108Z" fill="#FFBB00"/>
<path d="M295.347 49.892C296.734 47.4892 295.911 44.4167 293.508 43.0294C291.105 41.6422 288.033 42.4654 286.645 44.8683C285.258 47.2711 286.081 50.3436 288.484 51.7308C290.887 53.1181 293.96 52.2948 295.347 49.892Z" fill="#00AC46"/>
<path d="M305.035 28.0867C303.647 25.6839 300.575 24.8606 298.172 26.2479C295.769 27.6352 294.946 30.7076 296.333 33.1105L306.022 49.8917C307.409 52.2945 310.482 53.1178 312.884 51.7305C315.287 50.3432 316.111 47.2708 314.723 44.8679L305.035 28.0867Z" fill="#1E8BDF"/>
<path d="M398.984 50.5589C409.307 50.5589 414.947 42.0459 414.947 34.6594C414.947 34.4175 414.947 34.1768 414.93 33.9371C416.029 33.1454 416.976 32.1652 417.729 31.0424C416.705 31.4943 415.619 31.7907 414.507 31.9216C415.678 31.2238 416.554 30.1262 416.974 28.833C415.872 29.4839 414.667 29.9426 413.411 30.1893C411.672 28.3475 408.909 27.8967 406.671 29.0897C404.433 30.2828 403.277 32.8229 403.851 35.2858C399.34 35.0606 395.137 32.9384 392.288 29.4474C390.799 32.0007 391.56 35.2671 394.025 36.9069C393.133 36.8806 392.259 36.6407 391.479 36.2075V36.2783C391.48 38.9383 393.362 41.2294 395.98 41.7561C395.154 41.9805 394.287 42.0133 393.447 41.852C394.182 44.1283 396.288 45.6877 398.688 45.7326C396.701 47.2877 394.247 48.1319 391.721 48.1294C391.274 48.1286 390.829 48.1016 390.385 48.0488C392.951 49.6887 395.936 50.5586 398.984 50.5545" fill="#2DAAE1"/>
<path d="M453.274 26.8652C446.157 26.8652 440.385 32.6358 440.385 39.7546C440.385 45.0328 443.559 49.567 448.101 51.5606C448.064 50.6606 448.094 49.5801 448.325 48.6011C448.573 47.5545 449.983 41.5772 449.983 41.5772C449.983 41.5772 449.572 40.7542 449.572 39.5375C449.572 37.6275 450.679 36.2013 452.058 36.2013C453.23 36.2013 453.797 37.0816 453.797 38.1367C453.797 39.3149 453.045 41.0784 452.658 42.7113C452.335 44.0783 453.344 45.1935 454.692 45.1935C457.134 45.1935 458.779 42.0573 458.779 38.3406C458.779 35.5154 456.877 33.4015 453.415 33.4015C449.505 33.4015 447.07 36.3178 447.07 39.5742C447.07 40.6969 447.401 41.4889 447.919 42.1024C448.158 42.3843 448.191 42.497 448.104 42.8212C448.042 43.0579 447.9 43.6292 447.842 43.8556C447.757 44.1816 447.492 44.2991 447.197 44.1779C445.396 43.4422 444.557 41.4701 444.557 39.2538C444.557 35.5925 447.645 31.2021 453.769 31.2021C458.69 31.2021 461.928 34.7629 461.928 38.5858C461.928 43.6423 459.117 47.4202 454.974 47.4202C453.583 47.4202 452.274 46.6676 451.825 45.8136C451.825 45.8136 451.077 48.7834 450.918 49.3565C450.645 50.3505 450.11 51.3436 449.621 52.1178C450.78 52.4598 452.004 52.6467 453.274 52.6467C460.391 52.6467 466.163 46.8762 466.163 39.7565C466.164 32.6358 460.392 26.8652 453.274 26.8652Z" fill="#CB2027"/>
<path d="M338.824 45.7077V45.7089C338.84 46.3164 338.845 46.9273 338.948 47.5311C339.056 48.1698 339.212 48.7927 339.508 49.3724C339.908 50.157 340.458 50.8196 341.152 51.3609C341.65 51.7495 342.195 52.0581 342.797 52.2527C343.676 52.5361 344.582 52.6447 345.502 52.6501C346.076 52.6537 346.649 52.668 347.223 52.6656C351.392 52.6481 355.561 52.6957 359.729 52.6399C360.283 52.6324 360.827 52.5649 361.37 52.4656C362.41 52.2752 363.33 51.8312 364.117 51.1292C365.034 50.3113 365.652 49.3104 365.932 48.1023C366.114 47.3127 366.16 46.5115 366.168 45.7076V45.5472C366.168 45.485 366.144 31.8871 366.142 31.7073C366.136 31.2136 366.1 30.7236 366.007 30.2378C365.894 29.6458 365.735 29.069 365.452 28.5334C365.153 27.9676 364.778 27.4588 364.314 27.0142C363.604 26.333 362.784 25.8513 361.83 25.5965C360.968 25.3664 360.088 25.3155 359.202 25.3163C359.201 25.3161 359.198 25.3071 359.197 25.3027H345.79C345.79 25.3073 345.79 25.3119 345.789 25.3163C345.287 25.3255 344.783 25.3217 344.283 25.3837C343.735 25.4518 343.193 25.5544 342.674 25.7459C341.857 26.0481 341.147 26.5187 340.541 27.1469C339.854 27.8587 339.37 28.6819 339.113 29.6405C338.884 30.4958 338.834 31.368 338.833 32.2465" fill="#FFFC00"/>
<path d="M352.616 48.3898C352.559 48.3898 352.505 48.3877 352.463 48.3858C352.431 48.3886 352.397 48.3898 352.363 48.3898C351.17 48.3898 350.372 47.8258 349.668 47.3277C349.164 46.9713 348.688 46.6348 348.13 46.5421C347.857 46.4967 347.584 46.4737 347.321 46.4737C346.847 46.4737 346.472 46.5472 346.199 46.6007C346.03 46.6335 345.885 46.6617 345.773 46.6617C345.655 46.6617 345.513 46.6357 345.453 46.4325C345.406 46.2722 345.372 46.117 345.339 45.9674C345.258 45.5938 345.199 45.3657 345.059 45.3441C343.562 45.1132 342.678 44.7731 342.502 44.3612C342.484 44.3179 342.473 44.2744 342.471 44.2313C342.464 44.1085 342.551 44.0008 342.672 43.9808C343.86 43.7851 344.917 43.157 345.813 42.1133C346.506 41.3054 346.847 40.5334 346.884 40.4481C346.885 40.4443 346.887 40.4403 346.889 40.4366C347.062 40.0863 347.096 39.7835 346.991 39.5371C346.799 39.0824 346.16 38.8798 345.738 38.7457C345.633 38.7125 345.533 38.681 345.454 38.6496C345.079 38.5017 344.464 38.1891 344.546 37.7577C344.605 37.4431 345.021 37.224 345.358 37.224C345.451 37.224 345.534 37.2404 345.604 37.2731C345.984 37.4512 346.325 37.5414 346.619 37.5414C346.985 37.5414 347.162 37.4022 347.204 37.3626C347.194 37.1676 347.181 36.9614 347.168 36.7663C347.168 36.7661 347.168 36.7638 347.168 36.7638C347.082 35.3985 346.975 33.6995 347.41 32.7252C348.711 29.8087 351.469 29.5819 352.283 29.5819C352.305 29.5819 352.638 29.5786 352.638 29.5786C352.653 29.5783 352.67 29.5781 352.687 29.5781C353.503 29.5781 356.267 29.8052 357.569 32.7234C358.003 33.6984 357.896 35.3988 357.81 36.7655L357.806 36.8309C357.794 37.0165 357.783 37.1921 357.774 37.3624C357.814 37.3994 357.976 37.527 358.305 37.54C358.585 37.5292 358.907 37.4394 359.262 37.2733C359.372 37.2219 359.493 37.2112 359.575 37.2112C359.7 37.2112 359.827 37.2354 359.932 37.2795L359.938 37.2817C360.239 37.3885 360.436 37.602 360.44 37.8263C360.444 38.0354 360.289 38.3479 359.525 38.6497C359.446 38.6807 359.346 38.7124 359.241 38.7458C358.818 38.8801 358.18 39.0825 357.987 39.537C357.882 39.7834 357.917 40.0861 358.09 40.4363C358.092 40.4401 358.093 40.444 358.095 40.448C358.148 40.5727 359.435 43.5074 362.307 43.9805C362.428 44.0007 362.515 44.1085 362.508 44.231C362.505 44.275 362.495 44.3191 362.476 44.3621C362.301 44.7717 361.417 45.1113 359.92 45.3425C359.78 45.3642 359.721 45.5913 359.64 45.963C359.606 46.1165 359.572 46.267 359.526 46.4251C359.482 46.5738 359.385 46.6465 359.23 46.6465H359.206C359.105 46.6465 358.961 46.6281 358.78 46.5927C358.464 46.5311 358.109 46.4738 357.658 46.4738C357.395 46.4738 357.122 46.4969 356.848 46.5423C356.291 46.635 355.816 46.9709 355.312 47.327C354.607 47.8257 353.809 48.3898 352.616 48.3898Z" fill="white"/>
<path d="M352.689 29.8204C353.458 29.8204 356.105 30.0269 357.352 32.8233C357.763 33.7441 357.658 35.4122 357.573 36.7521C357.56 36.9648 357.547 37.1709 357.536 37.3677L357.532 37.4523L357.588 37.5153C357.611 37.5406 357.824 37.7637 358.299 37.7821L358.307 37.7825L358.315 37.7823C358.629 37.7704 358.983 37.6728 359.367 37.4929C359.423 37.4665 359.498 37.4535 359.578 37.4535C359.669 37.4535 359.765 37.4706 359.845 37.5041L359.857 37.5089C360.058 37.5795 360.201 37.7125 360.203 37.8329C360.204 37.9009 360.153 38.1461 359.439 38.4281C359.369 38.4557 359.278 38.485 359.171 38.5185C358.707 38.666 358.005 38.8886 357.769 39.4452C357.636 39.7587 357.672 40.1287 357.877 40.5447C357.961 40.7413 359.287 43.728 362.271 44.2197C362.27 44.2338 362.266 44.2493 362.258 44.2675C362.208 44.3867 361.886 44.7982 359.886 45.1068C359.573 45.1548 359.497 45.5056 359.408 45.9135C359.376 46.0595 359.343 46.2069 359.298 46.3591C359.284 46.4051 359.282 46.4077 359.232 46.4077C359.226 46.4077 359.218 46.4077 359.209 46.4077C359.12 46.4077 358.986 46.3893 358.83 46.3587C358.545 46.3033 358.157 46.2354 357.661 46.2354C357.384 46.2354 357.098 46.2595 356.812 46.3073C356.2 46.4091 355.702 46.7612 355.175 47.1338C354.467 47.6341 353.735 48.1517 352.619 48.1517C352.57 48.1517 352.522 48.1501 352.475 48.1477L352.462 48.1472L352.45 48.1481C352.422 48.1505 352.395 48.1517 352.366 48.1517C351.25 48.1517 350.518 47.6342 349.81 47.1338C349.283 46.7612 348.785 46.4091 348.173 46.3073C347.887 46.2597 347.601 46.2354 347.324 46.2354C346.828 46.2354 346.439 46.3114 346.156 46.3668C346 46.3973 345.865 46.4235 345.776 46.4235C345.704 46.4235 345.702 46.4193 345.687 46.3669C345.642 46.2146 345.609 46.0637 345.577 45.9179C345.488 45.5096 345.412 45.1568 345.099 45.1088C343.099 44.7999 342.777 44.3877 342.726 44.2689C342.719 44.2502 342.715 44.2343 342.714 44.2201C345.698 43.7289 347.023 40.7421 347.108 40.5447C347.313 40.129 347.349 39.7591 347.216 39.4452C346.98 38.8889 346.278 38.666 345.814 38.5188C345.707 38.485 345.615 38.4557 345.546 38.4281C344.943 38.19 344.757 37.95 344.785 37.8047C344.817 37.637 345.107 37.4665 345.361 37.4665C345.418 37.4665 345.468 37.4757 345.505 37.493C345.917 37.6861 346.293 37.784 346.623 37.784C347.141 37.784 347.372 37.5427 347.397 37.5152L347.453 37.4523L347.449 37.3681C347.438 37.1714 347.425 36.9654 347.412 36.7532C347.327 35.4129 347.222 33.746 347.633 32.8251C348.875 30.039 351.509 29.8242 352.287 29.8242C352.306 29.8242 352.644 29.8208 352.644 29.8208C352.658 29.8206 352.673 29.8204 352.689 29.8204ZM352.689 29.3398H352.688C352.671 29.3398 352.654 29.3398 352.638 29.3401C352.512 29.3413 352.304 29.3434 352.285 29.3436C351.83 29.3436 350.919 29.4079 349.94 29.84C349.38 30.0869 348.877 30.4207 348.443 30.8322C347.927 31.3226 347.506 31.9271 347.193 32.6293C346.735 33.6575 346.843 35.3894 346.931 36.7811L346.931 36.7833C346.941 36.9323 346.95 37.088 346.959 37.2396C346.892 37.2705 346.783 37.3031 346.622 37.3031C346.364 37.3031 346.056 37.2204 345.708 37.0575C345.606 37.0098 345.489 36.9858 345.36 36.9858C345.153 36.9858 344.935 37.0467 344.746 37.158C344.508 37.2978 344.354 37.4955 344.312 37.7146C344.285 37.8596 344.286 38.1461 344.604 38.4366C344.779 38.5966 345.036 38.7441 345.368 38.8753C345.455 38.9096 345.559 38.9423 345.668 38.977C346.048 39.0978 346.623 39.2802 346.773 39.6332C346.849 39.8121 346.816 40.0476 346.676 40.3321C346.672 40.3399 346.669 40.3475 346.665 40.3555C346.63 40.4373 346.304 41.1778 345.633 41.9588C345.252 42.4029 344.832 42.7741 344.386 43.0623C343.842 43.4141 343.253 43.6442 342.635 43.7458C342.393 43.7856 342.22 44.0016 342.234 44.247C342.238 44.3177 342.254 44.3882 342.283 44.4564C342.283 44.4568 342.284 44.4573 342.284 44.4576C342.382 44.6869 342.609 44.8816 342.978 45.0534C343.43 45.263 344.105 45.4394 344.985 45.5774C345.029 45.6619 345.075 45.8744 345.107 46.0199C345.141 46.1745 345.176 46.3335 345.225 46.5024C345.279 46.6854 345.418 46.904 345.776 46.904C345.911 46.904 346.067 46.8735 346.247 46.8385C346.512 46.7867 346.873 46.716 347.324 46.716C347.574 46.716 347.833 46.738 348.094 46.7813C348.597 46.865 349.03 47.1712 349.532 47.5258C350.266 48.0446 351.096 48.632 352.366 48.632C352.4 48.632 352.435 48.6308 352.469 48.6284C352.511 48.6304 352.563 48.632 352.618 48.632C353.888 48.632 354.719 48.0444 355.452 47.526L355.453 47.5249C355.955 47.1708 356.388 46.865 356.89 46.7813C357.151 46.738 357.41 46.716 357.66 46.716C358.091 46.716 358.432 46.7709 358.737 46.8303C358.936 46.8694 359.09 46.8882 359.209 46.8882L359.22 46.8885H359.232C359.494 46.8885 359.686 46.7449 359.759 46.4938C359.808 46.3285 359.843 46.1732 359.877 46.016C359.907 45.8796 359.954 45.6611 359.999 45.5756C360.879 45.4374 361.554 45.2614 362.006 45.0518C362.374 44.8808 362.601 44.6863 362.7 44.458C362.729 44.3896 362.747 44.3186 362.75 44.2464C362.764 44.0015 362.591 43.7851 362.348 43.7453C359.605 43.2932 358.37 40.4748 358.319 40.355C358.315 40.3471 358.312 40.3393 358.308 40.3317C358.168 40.047 358.135 39.8118 358.211 39.6326C358.361 39.28 358.935 39.0975 359.316 38.9768C359.426 38.9422 359.529 38.9092 359.616 38.8751C359.99 38.7272 360.258 38.5669 360.434 38.3847C360.645 38.1676 360.686 37.9596 360.683 37.8235C360.677 37.4941 360.425 37.2014 360.025 37.0581C359.889 37.0022 359.735 36.9727 359.578 36.9727C359.471 36.9727 359.313 36.9874 359.163 37.0573C358.842 37.2075 358.555 37.2896 358.308 37.3013C358.177 37.2947 358.085 37.2662 358.025 37.239C358.032 37.1106 358.041 36.9786 358.049 36.841L358.053 36.782C358.141 35.3894 358.25 33.6562 357.791 32.6273C357.477 31.9226 357.055 31.3165 356.536 30.8251C356.101 30.4133 355.596 30.0796 355.034 29.8328C354.057 29.4039 353.145 29.3398 352.689 29.3398Z" fill="#020202"/>
<path d="M183.051 43.0595C183.181 44.2247 184.313 44.9893 185.863 44.9893C187.348 44.9893 188.413 44.2247 188.413 43.173C188.413 42.2581 187.772 41.7139 186.246 41.3366L184.724 40.9727C182.564 40.4484 181.559 39.4401 181.559 37.8007C181.559 35.7707 183.328 34.375 185.839 34.375C188.35 34.375 190.029 35.7573 190.093 37.8007H188.31C188.203 36.6254 187.231 35.9176 185.816 35.9176C184.4 35.9176 183.415 36.6354 183.415 37.6772C183.415 38.5086 184.036 39.0127 185.552 39.3733L186.847 39.7072C189.262 40.2782 190.263 41.2498 190.263 42.9693C190.263 45.1696 188.51 46.5486 185.722 46.5486C183.115 46.5486 181.355 45.213 181.238 43.0762L183.051 43.0595Z" fill="#1C1B1A"/>
<path d="M198.855 43.8255C198.618 45.3748 197.106 46.4432 195.179 46.4432C192.692 46.4432 191.143 44.7738 191.143 42.1027C191.143 39.4315 192.699 37.6953 195.103 37.6953C197.44 37.6953 198.949 39.318 198.949 41.9023V42.5133H192.919V42.6202C192.919 44.0693 193.834 45.0242 195.209 45.0242C196.188 45.0242 196.946 44.5601 197.183 43.8255H198.855ZM192.936 41.2813H197.183C197.149 39.9791 196.318 39.1143 195.106 39.1143C193.894 39.1143 193.026 39.9958 192.936 41.2813Z" fill="#1C1B1A"/>
<path d="M199.924 43.899C199.924 42.3898 201.073 41.5284 203.193 41.3981L205.467 41.2579V40.6068C205.467 39.6519 204.839 39.131 203.721 39.131C202.799 39.131 202.131 39.6018 201.994 40.3297H200.348C200.395 38.8038 201.831 37.6953 203.771 37.6953C205.858 37.6953 207.22 38.7871 207.22 40.4833V46.3364H205.53V44.9274H205.49C205.221 45.3999 204.828 45.7905 204.354 46.0575C203.88 46.3245 203.343 46.4578 202.799 46.4432C201.113 46.4432 199.924 45.4148 199.924 43.899ZM205.454 43.141V42.4733L203.423 42.6035C202.282 42.6769 201.687 43.101 201.687 43.8422C201.687 44.5834 202.305 45.0242 203.277 45.0242C204.529 45.0309 205.454 44.2429 205.454 43.141Z" fill="#1C1B1A"/>
<path d="M208.909 37.8025H210.598V39.2516H210.632C210.746 38.7987 211.012 38.3988 211.386 38.1186C211.76 37.8385 212.218 37.6951 212.685 37.7123C212.887 37.7114 213.089 37.7338 213.286 37.7791V39.4319C213.03 39.3591 212.764 39.3264 212.498 39.335C211.373 39.335 210.672 40.093 210.672 41.2983V46.3367H208.909V37.8025Z" fill="#1C1B1A"/>
<path d="M219.668 40.7443C219.511 39.8394 218.81 39.165 217.665 39.165C216.329 39.165 215.425 40.2969 215.425 42.0665C215.425 43.8929 216.329 44.9747 217.672 44.9747C218.757 44.9747 219.475 44.4371 219.675 43.4421H221.344C221.157 45.2518 219.715 46.4471 217.645 46.4471C215.208 46.4471 213.612 44.7777 213.612 42.0698C213.612 39.4187 215.208 37.6992 217.618 37.6992C219.812 37.6992 221.174 39.0782 221.321 40.7476L219.668 40.7443Z" fill="#1C1B1A"/>
<path d="M222.581 34.5723H224.333V39.2467H224.367C224.881 38.2284 225.759 37.7008 227.065 37.7008C228.948 37.7008 230.07 38.9562 230.07 40.8861V46.3352H228.3V41.2233C228.3 39.9779 227.672 39.22 226.444 39.22C225.138 39.22 224.357 40.1081 224.357 41.4604V46.3352H222.587L222.581 34.5723Z" fill="#1C1B1A"/>
<path d="M242.408 43.1566H237.924L236.839 46.3352H234.942L239.189 34.5723H241.179L245.427 46.3352H243.483L242.408 43.1566ZM238.401 41.6874H241.954L240.178 36.5289H240.131L238.401 41.6874Z" fill="#1C1B1A"/>
<path d="M245.691 42.0647C245.691 39.4304 247.144 37.7242 249.271 37.7242C249.813 37.6974 250.352 37.825 250.825 38.0921C251.297 38.3593 251.685 38.755 251.942 39.2334H251.975V34.5723H253.745V46.3352H252.032V44.8828H252.002C251.744 45.3758 251.351 45.7847 250.868 46.061C250.385 46.3374 249.833 46.4696 249.277 46.442C247.144 46.442 245.691 44.7058 245.691 42.0647ZM247.501 42.0647C247.501 43.8177 248.389 44.9328 249.751 44.9328C251.114 44.9328 251.985 43.7909 251.985 42.0714C251.985 40.3519 251.097 39.2033 249.751 39.2033C248.406 39.2033 247.501 40.3285 247.501 42.0647V42.0647Z" fill="#1C1B1A"/>
<path d="M258.557 37.7051C260.447 37.7051 261.799 38.7535 261.849 40.256H260.18C260.113 39.5047 259.472 39.0406 258.511 39.0406C257.549 39.0406 256.938 39.488 256.938 40.1425C256.938 40.6533 257.352 40.9972 258.243 41.2076L259.669 41.5415C261.389 41.9488 262.04 42.5765 262.04 43.8386C262.04 45.3712 260.591 46.4329 258.504 46.4329C256.481 46.4329 255.118 45.3979 254.988 43.8486H256.734C256.871 44.6667 257.512 45.1074 258.574 45.1074C259.636 45.1074 260.267 44.6834 260.267 43.9989C260.267 43.478 259.933 43.1942 259.055 42.9739L257.539 42.5932C256 42.2193 255.225 41.4279 255.225 40.256C255.202 38.7301 256.567 37.7051 258.557 37.7051Z" fill="#1C1B1A"/>
<path d="M172.396 33.2575C172.977 32.5565 173.262 31.6573 173.191 30.75C172.294 30.8367 171.465 31.2661 170.877 31.9487C170.587 32.276 170.366 32.6577 170.225 33.0716C170.085 33.4856 170.028 33.9233 170.059 34.3593C170.947 34.4361 171.832 33.9153 172.396 33.2575" fill="#1C1B1A"/>
<path d="M173.182 34.5325C171.893 34.4557 170.798 35.2637 170.177 35.2637C169.556 35.2637 168.618 34.5692 167.6 34.5959C166.94 34.6141 166.296 34.8041 165.732 35.1473C165.168 35.4904 164.704 35.9748 164.384 36.5525C162.992 38.9365 164.01 42.4757 165.359 44.419C166.027 45.3806 166.798 46.439 167.837 46.4023C168.818 46.3622 169.202 45.7745 170.394 45.7745C171.586 45.7745 171.933 46.4089 172.972 46.3889C174.01 46.3689 174.721 45.4273 175.376 44.4657C175.84 43.7842 176.203 43.0384 176.451 42.252C175.832 41.982 175.305 41.5383 174.934 40.9747C174.562 40.4111 174.362 39.7518 174.357 39.0767C174.337 37.0934 175.97 36.1485 176.047 36.0918C175.721 35.6294 175.294 35.2484 174.797 34.9785C174.3 34.7086 173.747 34.5571 173.182 34.5358" fill="#1C1B1A"/>
<rect x="101.968" y="118.27" width="87.5008" height="46.8755" rx="3.50429" fill="white"/>
<rect x="193.374" y="118.27" width="123.618" height="46.8755" rx="3.50429" fill="white"/>
<rect x="320.897" y="118.27" width="118.864" height="46.8755" rx="3.50429" fill="white"/>
<rect x="443.669" y="118.27" width="82.032" height="46.8755" rx="3.50429" fill="white"/>
<path fill-rule="evenodd" clip-rule="evenodd" d="M473.47 130.75L464.485 133.081L463.155 135.352L460.457 135.332L453.881 141.699L460.458 148.066L463.155 148.045L464.487 150.316L473.47 152.647L475.877 143.952L474.509 141.699L475.877 139.447L473.47 130.75ZM463.372 135.718L470.245 134.008L466.3 140.624H458.409L463.372 135.718ZM463.372 147.68L458.409 142.774H466.3L470.245 149.39L463.372 147.68ZM472.168 148.314L468.221 141.699L472.168 135.082L474.074 141.699L472.168 148.314ZM493.849 137.201C492.648 137.201 491.843 137.696 491.242 138.635H491.191V137.44H489.09V146.199H491.242V141.23C491.242 140.035 491.997 139.216 493.026 139.216C494.003 139.216 494.731 139.793 494.731 140.821V146.199H496.884V140.48C496.884 138.567 495.667 137.201 493.849 137.201ZM485.815 142.49C485.815 143.651 485.146 144.47 484.048 144.47C483.054 144.47 482.428 143.907 482.428 142.882V137.436H480.276V143.275C480.276 145.187 481.373 146.434 483.329 146.434C484.563 146.434 485.249 145.973 485.85 145.171H485.901V146.195H487.97V137.436H485.815V142.49ZM498.013 146.199H500.166V137.44H498.013L498.013 146.199ZM498.013 136.469H500.166V134.709H498.013L498.013 136.469ZM512.332 137.44L511.053 141.384C510.778 142.187 510.539 143.296 510.539 143.296H510.484C510.484 143.296 510.192 142.187 509.918 141.384L508.474 137.441H506.172L508.539 143.672C509.036 145.004 509.208 145.567 509.208 146.045C509.208 146.762 508.831 147.24 507.905 147.24H507.081V149.067H508.453C510.237 149.067 510.856 148.367 511.525 146.421L514.627 137.44H512.332ZM504.177 143.621V138.977H505.549V137.44H504.177V134.709H502.038V137.44H500.821V138.977H502.038V144.116C502.038 145.773 503.291 146.216 504.423 146.216C505.349 146.216 505.6 146.182 505.6 146.182V144.488C505.6 144.488 505.343 144.492 505.052 144.492C504.536 144.492 504.177 144.269 504.177 143.621Z" fill="black"/>
<path opacity="0.6" d="M141.973 138.031L145.303 147.18H145.307H146.965H146.97L143.64 138.031H141.973Z" fill="#24CDC8"/>
<path d="M148.63 138.031L145.3 147.18H145.304H146.963H146.967L150.297 138.031H148.63Z" fill="#24CDC8"/>
<path d="M166.373 146.02C164.72 146.02 164.362 145.906 164.362 145.689C164.362 145.517 164.511 145.467 165.146 145.467C165.146 145.467 165.712 145.471 166.115 145.471C167.705 145.471 168.652 144.352 168.652 142.839V142.834V142.83C168.652 142.349 168.539 141.937 168.339 141.593H169.273V140.396H165.947H165.943H165.929C164.453 140.406 163.243 141.257 163.243 142.83V142.834V142.839C163.243 143.509 163.46 144.919 164.629 144.919C164.063 144.919 163.229 145 163.112 145.703C162.98 146.5 163.551 146.917 164.693 147.18H163.619C163.619 147.18 162.989 147.411 162.989 148.276C162.989 149.821 164.403 150.275 166.133 150.275C167.61 150.275 169.332 149.803 169.332 148.059C169.327 146.6 168.231 146.02 166.373 146.02ZM164.72 142.54C164.72 141.964 165.186 141.498 165.762 141.498H166.133C166.826 141.498 167.175 141.964 167.175 142.54V143.043C167.175 143.917 166.709 144.239 166.133 144.239H165.762C165.186 144.239 164.72 143.827 164.72 143.043V142.54ZM166.07 149.015C165.445 149.015 164.403 148.879 164.403 148.1C164.403 147.438 165.001 147.284 165.001 147.284H166.246C166.912 147.284 167.827 147.284 167.827 148.1C167.823 149.015 166.704 149.015 166.07 149.015Z" fill="#24CDC8"/>
<path d="M171.698 138.031H170.104V145.227C170.104 146.663 170.733 147.18 171.993 147.18H172.858V145.752H171.698V138.031Z" fill="#24CDC8"/>
<path d="M174.733 144.221H175.004H179.045V143.518C179.045 143.07 178.986 142.648 178.864 142.259C178.742 141.864 178.561 141.516 178.325 141.221C178.085 140.922 177.777 140.686 177.41 140.514C177.043 140.342 176.613 140.256 176.128 140.256C175.657 140.256 175.235 140.346 174.873 140.528C174.511 140.704 174.198 140.954 173.94 141.266C173.686 141.579 173.491 141.96 173.364 142.399C173.238 142.83 173.174 143.305 173.174 143.808C173.174 144.32 173.233 144.792 173.351 145.218C173.469 145.648 173.654 146.029 173.899 146.341C174.148 146.658 174.461 146.908 174.832 147.089C175.204 147.266 175.639 147.361 176.128 147.361C176.49 147.361 176.839 147.306 177.165 147.198C177.491 147.089 177.79 146.93 178.053 146.731C178.32 146.527 178.538 146.278 178.706 145.992C178.873 145.702 178.973 145.367 178.995 144.996H177.51C177.469 145.376 177.328 145.643 177.084 145.816C176.821 145.997 176.549 146.06 176.336 146.083C176.155 146.101 175.779 146.06 175.611 146.006C175.444 145.952 175.29 145.866 175.158 145.752C175.027 145.643 174.923 145.508 174.846 145.353C174.769 145.199 174.733 145.014 174.733 144.81V144.47V144.221V144.221ZM174.737 142.657C174.737 142.005 175.267 141.475 175.919 141.475H176.336C177.125 141.475 177.519 142.005 177.519 142.657V143.033H174.737V142.657V142.657Z" fill="#24CDC8"/>
<path d="M152.233 147.347C153.343 147.347 154.181 146.559 154.181 145.38V147.179H155.635V140.555H154.045V144.986C154.045 145.557 153.583 146.019 153.008 146.019H152.623C152.052 146.019 151.585 145.557 151.585 144.986V140.555H149.995V144.977C149.99 146.35 150.82 147.347 152.233 147.347Z" fill="#24CDC8"/>
<path d="M160.063 140.387C158.953 140.387 158.115 141.171 158.115 142.353V140.554H156.66V147.179H158.25V142.752C158.25 142.181 158.713 141.714 159.288 141.714H159.673C160.244 141.714 160.71 142.177 160.71 142.752V147.179H162.3V142.757C162.305 141.384 161.476 140.387 160.063 140.387Z" fill="#24CDC8"/>
<path d="M124.159 148.25C123.656 148.25 123.248 148.658 123.248 149.161C123.248 149.664 123.656 150.072 124.159 150.072C124.662 150.072 125.069 149.664 125.069 149.161C125.074 148.658 124.666 148.25 124.159 148.25Z" fill="#24CDC8"/>
<path d="M126.576 140.981L126.327 140.732C126.286 140.691 126.218 140.691 126.173 140.732L125.154 141.751C125.113 141.792 125.045 141.792 125 141.751L123.98 140.732C123.935 140.691 123.867 140.691 123.826 140.732L123.577 140.981C123.536 141.022 123.536 141.094 123.577 141.135L124.597 142.155C124.637 142.195 124.637 142.263 124.597 142.309L123.577 143.328C123.536 143.369 123.536 143.437 123.577 143.482L123.826 143.731C123.867 143.772 123.935 143.772 123.98 143.731L125 142.712C125.04 142.671 125.108 142.671 125.154 142.712L126.173 143.731C126.214 143.772 126.282 143.772 126.327 143.731L126.576 143.482C126.617 143.441 126.617 143.373 126.576 143.328L125.557 142.309C125.516 142.268 125.516 142.2 125.557 142.155L126.576 141.135C126.617 141.09 126.617 141.022 126.576 140.981Z" fill="#24CDC8"/>
<path d="M117.082 131.049C117.024 131.049 116.974 130.999 116.974 130.94V128.525C116.974 128.466 116.924 128.416 116.865 128.416H116.38C116.321 128.416 116.272 128.466 116.272 128.525V130.94C116.272 130.999 116.222 131.049 116.163 131.049H113.748C113.689 131.049 113.64 131.099 113.64 131.157V131.642C113.64 131.701 113.689 131.751 113.748 131.751H116.163C116.222 131.751 116.272 131.796 116.272 131.86V134.275C116.272 134.334 116.321 134.384 116.38 134.384H116.865C116.924 134.384 116.974 134.334 116.974 134.275V131.86C116.974 131.801 117.024 131.751 117.082 131.751H119.497C119.556 131.751 119.606 131.701 119.606 131.642V131.157C119.606 131.099 119.556 131.049 119.497 131.049H117.082Z" fill="#24CDC8"/>
<path d="M121.244 134.197C119.586 134.197 118.24 135.543 118.24 137.201C118.24 138.86 119.586 140.206 121.244 140.206C122.902 140.206 124.247 138.86 124.247 137.201C124.247 135.543 122.902 134.197 121.244 134.197Z" fill="#24CDC8"/>
<path d="M120.873 146.968H122.998C123.057 146.968 123.107 146.918 123.107 146.859V144.734C123.107 144.675 123.057 144.625 122.998 144.625H120.873C120.814 144.625 120.764 144.675 120.764 144.734V146.859C120.764 146.918 120.814 146.968 120.873 146.968Z" fill="#24CDC8"/>
<path d="M124.776 153.446L132.685 131.764H137.052L129.134 153.446H124.776Z" fill="#24CDC8"/>
<path fill-rule="evenodd" clip-rule="evenodd" d="M423.681 141.051C423.486 141.263 423.355 141.552 423.285 141.915L425.604 141.918C425.552 141.546 425.427 141.255 425.23 141.047C425.135 140.946 425.02 140.865 424.891 140.811C424.763 140.757 424.625 140.731 424.486 140.734C424.143 140.734 423.874 140.84 423.681 141.052V141.051ZM423.015 145.85C422.584 145.687 422.19 145.439 421.856 145.121C421.53 144.808 421.275 144.429 421.106 144.009C420.927 143.561 420.838 143.082 420.845 142.6C420.845 142.097 420.934 141.633 421.11 141.204C421.279 140.786 421.531 140.407 421.85 140.088C422.167 139.772 422.545 139.526 422.984 139.35C423.446 139.168 423.939 139.078 424.435 139.085C424.962 139.085 425.43 139.166 425.839 139.327C426.234 139.479 426.597 139.702 426.912 139.985C427.331 140.367 427.644 140.85 427.82 141.389C428.012 141.952 428.1 142.562 428.082 143.22L423.282 143.214C423.352 143.603 423.495 143.907 423.71 144.123C423.924 144.34 424.221 144.449 424.599 144.45C425.038 144.45 425.351 144.286 425.536 143.957L427.948 143.96C427.869 144.28 427.717 144.578 427.505 144.83C427.281 145.107 427.001 145.349 426.667 145.557C426.359 145.755 426.032 145.898 425.684 145.983C425.302 146.073 424.91 146.117 424.518 146.112C423.964 146.111 423.463 146.024 423.015 145.85V145.85ZM415.652 145.859C415.219 145.693 414.823 145.444 414.486 145.124C414.161 144.81 413.905 144.431 413.737 144.012C413.559 143.568 413.47 143.094 413.475 142.615C413.476 142.114 413.565 141.648 413.741 141.22C413.911 140.8 414.168 140.42 414.494 140.104C414.83 139.782 415.227 139.531 415.662 139.365C416.114 139.188 416.618 139.1 417.172 139.101C417.612 139.096 418.05 139.163 418.47 139.298C418.86 139.428 419.199 139.61 419.484 139.844C419.769 140.078 419.999 140.358 420.175 140.683C420.35 141.008 420.46 141.366 420.503 141.755L418.104 141.752C418.034 141.449 417.925 141.217 417.775 141.057C417.626 140.896 417.415 140.816 417.142 140.816C416.756 140.816 416.47 140.974 416.285 141.295C416.1 141.615 416.007 142.057 416.006 142.619C416.006 143.173 416.101 143.608 416.294 143.925C416.488 144.241 416.778 144.4 417.164 144.401C417.471 144.401 417.702 144.303 417.857 144.109C418.011 143.914 418.106 143.626 418.141 143.245L420.54 143.249C420.54 143.656 420.458 144.034 420.295 144.385C420.132 144.736 419.903 145.04 419.609 145.3C419.295 145.57 418.932 145.777 418.54 145.909C418.096 146.06 417.63 146.134 417.162 146.128C416.608 146.127 416.105 146.038 415.652 145.859V145.859ZM410.776 140.287C411.05 139.872 411.351 139.577 411.68 139.406C412.011 139.232 412.39 139.146 412.821 139.147C413.005 139.147 413.142 139.169 413.23 139.213L413.227 141.304H413.174C412.436 141.181 411.865 141.278 411.46 141.594C411.055 141.909 410.852 142.443 410.851 143.197L410.848 145.911L408.355 145.908L408.365 139.284L410.738 139.287L410.737 140.287H410.776V140.287ZM405.088 145.046H405.049C404.815 145.373 404.51 145.644 404.157 145.838C403.819 146.019 403.417 146.109 402.951 146.108C402.547 146.108 402.195 146.044 401.896 145.918C401.611 145.802 401.357 145.622 401.152 145.392C400.949 145.156 400.797 144.882 400.705 144.585C400.601 144.249 400.55 143.898 400.555 143.546L400.561 139.273L403.052 139.276L403.048 142.965C403.046 143.667 403.345 144.018 403.942 144.019C404.268 144.019 404.52 143.915 404.701 143.708C404.881 143.5 404.972 143.215 404.972 142.851L404.978 139.279L407.469 139.282L407.46 145.906L405.087 145.903L405.088 145.046V145.046ZM397.167 143.95C397.361 143.609 397.458 143.157 397.458 142.594C397.459 142.031 397.363 141.578 397.17 141.236C396.977 140.893 396.688 140.722 396.301 140.722C395.915 140.722 395.629 140.892 395.443 141.233C395.259 141.575 395.165 142.027 395.164 142.591C395.164 143.153 395.256 143.606 395.439 143.949C395.624 144.29 395.91 144.462 396.296 144.463C396.682 144.463 396.973 144.292 397.167 143.95V143.95ZM394.798 145.83C394.366 145.665 393.972 145.415 393.639 145.095C393.317 144.78 393.064 144.402 392.896 143.984C392.718 143.54 392.629 143.065 392.634 142.587C392.634 142.085 392.723 141.619 392.899 141.191C393.069 140.772 393.324 140.392 393.646 140.075C393.967 139.76 394.354 139.513 394.807 139.336C395.259 139.16 395.767 139.072 396.33 139.072C396.892 139.072 397.4 139.162 397.852 139.341C398.305 139.519 398.689 139.767 399.004 140.083C399.32 140.399 399.564 140.772 399.734 141.201C399.905 141.63 399.991 142.095 399.99 142.597C399.994 143.075 399.906 143.549 399.731 143.993C399.567 144.41 399.317 144.788 398.998 145.102C398.667 145.423 398.274 145.672 397.843 145.835C397.39 146.012 396.883 146.1 396.32 146.099C395.757 146.099 395.25 146.009 394.798 145.83V145.83ZM386.44 145.903C385.952 145.788 385.488 145.587 385.07 145.311C384.689 145.056 384.373 144.715 384.148 144.316C383.924 143.917 383.809 143.449 383.801 142.913L386.623 142.916C386.665 143.289 386.826 143.564 387.102 143.742C387.379 143.92 387.745 144.009 388.202 144.01C388.335 144.01 388.473 143.997 388.618 143.972C388.753 143.949 388.885 143.905 389.007 143.842C389.122 143.782 389.216 143.701 389.291 143.602C389.365 143.503 389.403 143.384 389.403 143.245C389.407 143.118 389.365 142.993 389.285 142.894C389.191 142.787 389.074 142.703 388.943 142.647C388.794 142.577 388.607 142.512 388.383 142.452C388.158 142.39 387.902 142.325 387.612 142.255C387.216 142.159 386.812 142.046 386.4 141.917C386.004 141.794 385.625 141.621 385.273 141.402C384.94 141.194 384.657 140.917 384.443 140.589C384.229 140.259 384.122 139.848 384.122 139.354C384.123 138.826 384.227 138.376 384.434 138.004C384.641 137.632 384.92 137.33 385.272 137.096C385.651 136.851 386.072 136.678 386.513 136.584C387.006 136.475 387.51 136.421 388.015 136.425C388.498 136.425 388.967 136.477 389.42 136.581C389.848 136.676 390.256 136.846 390.625 137.084C390.976 137.314 391.257 137.608 391.467 137.968C391.677 138.328 391.787 138.759 391.795 139.261L389.066 139.257C389.03 139.019 388.906 138.803 388.717 138.652C388.529 138.501 388.246 138.425 387.868 138.424C387.56 138.424 387.312 138.484 387.123 138.604C386.934 138.725 386.839 138.881 386.839 139.072C386.839 139.211 386.886 139.323 386.983 139.41C387.08 139.497 387.222 139.573 387.411 139.638C387.6 139.703 387.833 139.764 388.11 139.821C388.386 139.877 388.7 139.95 389.051 140.036C389.447 140.132 389.834 140.247 390.211 140.382C390.589 140.517 390.927 140.697 391.226 140.923C391.525 141.148 391.764 141.428 391.944 141.761C392.123 142.095 392.213 142.508 392.212 143.002C392.212 143.513 392.103 143.961 391.887 144.346C391.671 144.731 391.379 145.053 391.009 145.312C390.639 145.572 390.209 145.768 389.716 145.901C389.204 146.037 388.676 146.105 388.146 146.101C387.572 146.105 386.999 146.038 386.44 145.903V145.903ZM378.809 140.152C379.081 139.789 379.392 139.512 379.739 139.323C380.087 139.132 380.498 139.037 380.972 139.039C381.755 139.039 382.343 139.274 382.738 139.742C383.133 140.21 383.33 140.825 383.328 141.588L383.322 145.874L380.831 145.87L380.836 142.181C380.836 141.834 380.762 141.558 380.613 141.349C380.463 141.142 380.227 141.037 379.901 141.037C379.585 141.037 379.337 141.155 379.156 141.393C378.976 141.631 378.886 141.931 378.885 142.295L378.88 145.868L376.388 145.863L376.398 139.24L378.771 139.243L378.769 140.152H378.809V140.152ZM372.95 143.917C373.145 143.576 373.242 143.123 373.242 142.561C373.243 141.997 373.148 141.544 372.954 141.203C372.761 140.861 372.471 140.689 372.085 140.688C371.699 140.688 371.412 140.858 371.227 141.2C371.043 141.542 370.95 141.994 370.949 142.557C370.948 143.12 371.04 143.573 371.223 143.915C371.408 144.257 371.693 144.428 372.08 144.429C372.466 144.429 372.757 144.259 372.95 143.917ZM370.581 145.797C370.15 145.632 369.756 145.382 369.423 145.061C369.101 144.747 368.847 144.368 368.679 143.95C368.502 143.506 368.413 143.032 368.418 142.554C368.418 142.052 368.507 141.586 368.683 141.158C368.853 140.739 369.107 140.359 369.43 140.042C369.751 139.726 370.137 139.48 370.59 139.303C371.043 139.126 371.551 139.038 372.113 139.039C372.676 139.039 373.184 139.129 373.636 139.308C374.088 139.486 374.473 139.733 374.789 140.049C375.106 140.368 375.354 140.748 375.518 141.167C375.692 141.612 375.779 142.086 375.774 142.564C375.778 143.041 375.69 143.515 375.514 143.96C375.351 144.377 375.101 144.755 374.782 145.069C374.464 145.38 374.08 145.624 373.627 145.802C373.174 145.978 372.666 146.066 372.104 146.066C371.541 146.065 371.034 145.976 370.581 145.797V145.797ZM365.718 140.225C365.991 139.81 366.293 139.515 366.622 139.344C366.952 139.17 367.332 139.084 367.763 139.085C367.948 139.085 368.085 139.107 368.172 139.151L368.169 141.242H368.117C367.378 141.119 366.807 141.216 366.402 141.531C365.997 141.846 365.794 142.381 365.793 143.135L365.79 145.849L363.297 145.845L363.307 139.222L365.68 139.225L365.679 140.225H365.718V140.225ZM362.411 139.22L362.402 145.844L359.91 145.841L359.919 139.217L362.411 139.22V139.22ZM362.415 136.558L362.412 138.415L359.921 138.412L359.923 136.555L362.415 136.558V136.558ZM346.492 147.725C343.769 147.721 342.466 146.273 342.469 144.446V143.893L345.521 143.898V144.138C345.52 144.735 345.83 145.144 346.423 145.145C346.97 145.146 347.239 144.895 347.24 144.469C347.241 143.262 342.573 143.459 342.578 140.077C342.58 138.255 343.741 136.667 346.628 136.67C349.221 136.675 350.508 138.125 350.505 139.947V140.541L347.453 140.537V140.197C347.454 139.707 347.201 139.216 346.624 139.216C346.164 139.216 345.899 139.47 345.898 139.878C345.896 141.213 350.561 140.877 350.557 144.256C350.554 146.08 349.339 147.728 346.492 147.725V147.725ZM341.946 138.891L338.942 138.887L338.946 136.515L341.95 136.519L341.946 138.891ZM341.946 141.531C341.946 142.528 341.609 143.089 340.869 143.292C341.643 143.601 341.943 144.152 341.941 145.327L341.94 147.053L338.915 147.028L338.919 144.774C338.919 144.324 338.421 144.269 338.009 144.129L338.012 142.514C338.423 142.38 338.922 142.251 338.923 141.895L338.926 139.511L341.95 139.515L341.947 141.531H341.946ZM344.368 129.961C337.857 129.961 332.579 135.218 332.579 141.704C332.579 148.19 337.857 153.448 344.368 153.448C350.878 153.448 356.156 148.19 356.156 141.704C356.156 135.218 350.878 129.961 344.368 129.961H344.368Z" fill="#4000A1"/>
<path d="M239.659 146.874L238.882 144.58H234.595C234.477 144.935 234.352 145.321 234.223 145.736L233.869 146.874H231.79L235.629 136.242H237.859L241.598 146.874H239.659V146.874ZM236.732 138.554C236.474 139.277 236.223 139.975 235.987 140.655C235.751 141.334 235.49 142.054 235.211 142.82H238.267L236.732 138.554Z" fill="#0599C5"/>
<path d="M247.837 136.277H243.925V146.898H245.733V143.281H247.837C249.98 143.281 251.022 142.379 251.022 140.522V139.019C251.022 137.172 249.98 136.277 247.837 136.277ZM245.733 137.949H247.794C249.018 137.949 249.215 138.271 249.215 139.036V140.525C249.215 141.277 249.011 141.613 247.794 141.613H245.733V137.949Z" fill="#0599C5"/>
<path d="M257.021 136.277H253.109V146.898H254.917V143.281H257.021C259.164 143.281 260.206 142.379 260.206 140.522V139.019C260.206 137.172 259.164 136.277 257.021 136.277ZM254.917 137.949H256.978C258.202 137.949 258.399 138.271 258.399 139.036V140.525C258.399 141.277 258.195 141.613 256.978 141.613H254.917V137.949Z" fill="#0599C5"/>
<path d="M265.558 145.837H270.464V146.899H264.488V136.289H265.558V145.837V145.837Z" fill="#0599C5"/>
<path d="M279.856 143.811C279.856 145.579 278.757 147.032 276.016 147.032C273.275 147.032 272.176 145.582 272.176 143.811V139.316C272.176 137.549 273.275 136.096 276.016 136.096C278.757 136.096 279.856 137.545 279.856 139.316V143.811ZM273.171 143.825C273.171 145.35 274.102 146.205 276.055 146.205C278.009 146.205 278.936 145.35 278.936 143.825V139.302C278.936 137.778 278.006 136.922 276.055 136.922C274.102 136.922 273.171 137.778 273.171 139.302V143.825Z" fill="#0599C5"/>
<path d="M281.483 136.289H282.546L285.978 145.837L289.417 136.289H290.505L286.69 146.903H285.28L281.483 136.289Z" fill="#0599C5"/>
<path d="M293.802 146.903H292.732V136.289H293.802V146.903Z" fill="#0599C5"/>
<path d="M298.929 137.567V146.903H297.923V136.289H299.501L304.121 145.371V136.289H305.127V146.903H303.849L298.929 137.567Z" fill="#0599C5"/>
<path d="M223.777 145.498C222.449 145.498 221.369 146.579 221.369 147.906C221.369 149.234 222.449 150.315 223.777 150.315C225.105 150.315 226.185 149.234 226.185 147.906C226.185 146.582 225.105 145.498 223.777 145.498ZM225.201 147.91C225.201 148.697 224.561 149.334 223.777 149.334C222.99 149.334 222.353 148.694 222.353 147.91C222.353 147.123 222.993 146.486 223.777 146.486C224.561 146.486 225.201 147.123 225.201 147.91Z" fill="#0599C5"/>
<path d="M207.461 145.498C206.134 145.498 205.053 146.579 205.053 147.906C205.053 149.234 206.134 150.315 207.461 150.315C208.789 150.315 209.87 149.234 209.87 147.906C209.87 146.582 208.789 145.498 207.461 145.498ZM208.886 147.91C208.886 148.697 208.245 149.334 207.461 149.334C206.674 149.334 206.037 148.694 206.037 147.91C206.037 147.123 206.678 146.486 207.461 146.486C208.245 146.486 208.886 147.123 208.886 147.91Z" fill="#0599C5"/>
<path d="M215.615 132.301C214.288 132.301 213.207 133.382 213.207 134.709C213.207 136.037 214.288 137.118 215.615 137.118C216.943 137.118 218.024 136.037 218.024 134.709C218.024 133.382 216.943 132.301 215.615 132.301ZM217.04 134.713C217.04 135.5 216.399 136.137 215.615 136.137C214.828 136.137 214.191 135.496 214.191 134.713C214.191 133.925 214.832 133.288 215.615 133.288C216.403 133.285 217.04 133.925 217.04 134.713Z" fill="#0599C5"/>
<path d="M222.886 145.769L217.565 136.189L217.515 136.096L217.447 136.178C217.265 136.407 217.039 136.59 216.785 136.729L216.721 136.765L216.756 136.829L221.466 145.31C219.823 144.942 217.78 144.741 215.686 144.741C213.378 144.741 211.328 144.938 209.739 145.307L214.448 136.829L214.484 136.765L214.42 136.729C214.162 136.593 213.94 136.407 213.758 136.178L213.69 136.096L213.639 136.189L208.322 145.769L208.279 145.844L208.358 145.872C208.619 145.962 208.859 146.287 209.07 146.474L209.105 146.506L209.148 146.484L209.166 146.481C210.863 146.012 213.121 145.761 215.69 145.761C218.002 145.761 220.245 146.015 222.013 146.477L222.049 146.545L222.117 146.491L222.131 146.481C222.346 146.291 222.586 145.965 222.847 145.876L222.926 145.847L222.886 145.769Z" fill="#0599C5"/>
<rect x="115.86" y="67.4883" width="74.2195" height="46.8755" rx="3.50429" fill="white"/>
<mask id="mask0_1116_855" style="mask-type:alpha" maskUnits="userSpaceOnUse" x="52" y="52" width="105" height="78">
<rect x="52.3682" y="52.709" width="104.354" height="76.4283" fill="url(#paint0_linear_1116_855)"/>
</mask>
<g mask="url(#mask0_1116_855)">
<rect x="37.9622" y="67.4902" width="74.2195" height="46.8755" rx="3.50429" fill="white"/>
</g>
<mask id="mask1_1116_855" style="mask-type:alpha" maskUnits="userSpaceOnUse" x="37" y="2" width="106" height="77">
<rect x="37.671" y="2" width="104.354" height="76.4283" fill="url(#paint1_linear_1116_855)"/>
</mask>
<g mask="url(#mask1_1116_855)">
<rect x="23.2643" y="16.7812" width="74.2195" height="46.8755" rx="3.50429" fill="white"/>
</g>
<mask id="mask2_1116_855" style="mask-type:alpha" maskUnits="userSpaceOnUse" x="38" y="103" width="105" height="77">
<rect x="38.4059" y="103.414" width="104.354" height="76.4283" fill="url(#paint2_linear_1116_855)"/>
</mask>
<g mask="url(#mask2_1116_855)">
<rect x="23.9991" y="118.193" width="74.2195" height="46.8755" rx="3.50429" fill="white"/>
</g>
<mask id="mask3_1116_855" style="mask-type:alpha" maskUnits="userSpaceOnUse" x="484" y="103" width="105" height="77">
<rect x="588.836" y="179.842" width="104.354" height="76.4283" transform="rotate(-180 588.836 179.842)" fill="url(#paint3_linear_1116_855)"/>
</mask>
<g mask="url(#mask3_1116_855)">
<rect x="528.867" y="118.193" width="74.2195" height="46.8755" rx="3.50429" fill="white"/>
</g>
<mask id="mask4_1116_855" style="mask-type:alpha" maskUnits="userSpaceOnUse" x="471" y="52" width="105" height="78">
<rect x="575.609" y="129.137" width="104.354" height="76.4283" transform="rotate(-180 575.609 129.137)" fill="url(#paint4_linear_1116_855)"/>
</mask>
<g mask="url(#mask4_1116_855)">
<rect x="515.64" y="67.4883" width="74.2195" height="46.8755" rx="3.50429" fill="white"/>
</g>
<mask id="mask5_1116_855" style="mask-type:alpha" maskUnits="userSpaceOnUse" x="485" y="2" width="106" height="77">
<rect x="590.307" y="78.4277" width="104.354" height="76.4283" transform="rotate(-180 590.307 78.4277)" fill="url(#paint5_linear_1116_855)"/>
</mask>
<g mask="url(#mask5_1116_855)">
<rect x="530.338" y="16.7793" width="74.2195" height="46.8755" rx="3.50429" fill="white"/>
</g>
<rect x="193.984" y="67.6387" width="105.507" height="46.8755" rx="3.50429" fill="white"/>
<rect x="303.4" y="67.4883" width="110.976" height="46.8755" rx="3.50429" fill="white"/>
<rect x="418.227" y="67.6387" width="93.9301" height="46.8755" rx="3.50429" fill="white"/>
<path d="M178.587 86.5505C177.945 86.5442 177.301 86.5622 176.659 86.5433C176.339 86.5343 176.173 86.664 176.052 86.9521C175.635 87.947 175.198 88.9348 174.766 89.9234C174.397 90.7671 174.024 91.609 173.653 92.4509C173.541 92.0484 173.504 91.6648 173.485 91.2803C173.415 89.8433 173.347 88.4062 173.288 86.9683C173.276 86.6685 173.159 86.5379 172.851 86.5451C172.238 86.5577 171.625 86.564 171.013 86.5424C170.642 86.5289 170.515 86.6369 170.561 87.0304C170.886 89.7379 171.185 92.449 171.512 95.1557C171.55 95.4663 171.493 95.704 171.323 95.9507C170.518 97.1212 169.311 97.4913 168.005 97.5129C165.12 97.5597 162.234 97.5282 159.348 97.5345C159.03 97.5354 158.926 97.4391 158.993 97.1041C159.189 96.1344 159.353 95.1584 159.533 94.1859C159.972 91.8134 160.403 89.439 160.86 87.0691C160.941 86.6487 160.821 86.5262 160.421 86.5424C159.928 86.5622 159.434 86.5469 158.941 86.5469C158.231 86.5469 158.238 86.5487 158.113 87.2276C157.511 90.5006 156.901 93.7717 156.306 97.0456C156.24 97.404 156.099 97.5489 155.718 97.5408C154.748 97.5201 153.775 97.4886 152.816 97.7101C150.632 98.2152 149.067 99.384 148.554 101.686C148.045 103.967 149.059 105.733 151.277 106.444C151.376 106.476 151.472 106.518 151.57 106.555C152.317 106.555 153.065 106.555 153.813 106.555C153.968 106.503 154.123 106.446 154.28 106.4C155.864 105.936 156.922 104.886 157.613 103.413C158.04 102.503 158.184 101.522 158.354 100.549C158.43 100.121 158.607 99.9944 159.035 99.9971C161.98 100.015 164.926 99.9881 167.871 100.012C170.729 100.035 172.83 98.814 174.202 96.2956C174.855 95.0971 175.445 93.8672 176.057 92.6489C177.001 90.7743 177.933 88.8934 178.865 87.0133C179.068 86.6054 179.037 86.5541 178.587 86.5505ZM155.6 100.822C155.44 101.794 155.243 102.74 154.458 103.44C153.849 103.984 153.139 104.138 152.37 103.985C151.592 103.83 151.116 103.017 151.259 102.182C151.456 101.034 152.302 100.253 153.535 100.102C153.993 100.047 154.457 100.026 154.918 99.989C155.745 100.007 155.733 100.005 155.6 100.822Z" fill="#EC2525"/>
<path d="M139.677 83.9563C142.967 83.9707 146.257 83.9644 149.547 83.9644C153.3 83.9644 157.053 83.9572 160.807 83.9743C161.263 83.9761 161.489 83.8555 161.55 83.381C161.632 82.7579 161.773 82.142 161.889 81.5234C151.659 81.5234 141.429 81.5234 131.199 81.5234C130.649 81.6576 130.087 81.7386 129.548 81.9241C127.229 82.7237 126.471 84.6938 126.856 86.8295C127.184 88.651 129.222 90.0394 131.062 89.8315C131.292 89.8053 131.363 89.6856 131.398 89.4884C131.461 89.1192 131.533 88.751 131.603 88.3827C131.77 87.5075 131.77 87.5075 130.893 87.3373C129.844 87.1329 129.344 86.3964 129.586 85.4267C129.81 84.5254 130.501 84.2012 131.305 84.077C132.82 83.842 134.35 84.0085 135.873 83.9671C136.243 83.9572 136.132 84.2219 136.099 84.4092C135.915 85.442 135.721 86.4739 135.529 87.5048C135.098 89.8188 134.673 92.1329 134.231 94.4451C134.157 94.8368 134.239 94.9926 134.665 94.9728C135.291 94.943 135.921 94.9457 136.548 94.9719C136.936 94.9881 137.096 94.8575 137.168 94.4622C137.769 91.1433 138.401 87.8308 138.998 84.511C139.076 84.0707 139.257 83.9545 139.677 83.9563Z" fill="#EC2525"/>
<path d="M149.508 97.653C149.793 97.6566 149.947 97.5513 149.996 97.2532C150.099 96.6176 150.249 95.9882 150.336 95.3507C150.392 94.9374 150.524 94.8177 150.966 94.8978C152.332 95.1454 153.546 94.787 154.552 93.811C155.741 92.6594 156.185 91.198 156.25 89.5881C156.25 89.4233 156.258 89.2577 156.249 89.0929C156.16 87.5748 155.278 86.5754 153.847 86.4205C153.091 86.3386 152.402 86.5709 151.794 87.0373C151.679 87.1255 151.58 87.2948 151.408 87.0463C150.768 86.1243 149.155 86.2638 148.632 87.2723C148.575 87.3812 148.508 87.4938 148.613 87.6018C149.035 88.0385 148.892 88.559 148.803 89.0497C148.317 91.7482 147.818 94.4449 147.305 97.1389C147.232 97.527 147.328 97.6638 147.716 97.6539C148.312 97.6395 148.911 97.6449 149.508 97.653ZM150.949 92.1381C151.108 91.271 151.263 90.4039 151.425 89.5377C151.535 88.956 151.877 88.676 152.48 88.6598C153.031 88.6454 153.417 88.9344 153.529 89.4963C153.724 90.4696 153.477 91.3718 152.974 92.193C152.652 92.7197 152.24 92.8701 151.555 92.871C150.835 92.8719 150.818 92.8503 150.949 92.1381Z" fill="#EC2525"/>
<path d="M163.123 94.9173C164.931 95.7816 167.307 95.1234 168.438 93.4712C169.199 92.361 169.547 91.1077 169.575 89.7832C169.597 88.8026 169.331 87.8842 168.573 87.1756C167.345 86.0294 164.736 86.0816 163.334 87.298C161.983 88.4713 161.548 90.047 161.411 91.5525C161.417 93.1192 161.803 94.2861 163.123 94.9173ZM164.764 89.4221C164.955 89.0016 165.25 88.6703 165.761 88.6216C166.336 88.5667 166.675 88.8377 166.723 89.4158C166.736 89.5788 166.724 89.7444 166.724 89.9092C166.715 90.6484 166.583 91.3643 166.295 92.0477C166.171 92.3421 166.001 92.6059 165.749 92.8022C165.444 93.0399 165.102 93.0957 164.739 92.9535C164.386 92.8148 164.264 92.5177 164.241 92.1692C164.181 91.2094 164.369 90.291 164.764 89.4221Z" fill="#EC2525"/>
<path d="M146.343 92.489C146.645 90.7467 146.971 89.0081 147.306 87.2712C147.366 86.9596 147.266 86.8273 146.986 86.7535C146.364 86.5896 145.735 86.4905 145.09 86.4356C142.232 86.1907 140.343 87.7457 139.544 89.6879C139.092 90.7846 138.836 91.9164 139.08 93.1121C139.424 94.7977 140.944 95.5675 142.507 94.8661C142.968 94.659 143.293 94.2898 143.698 93.9351C143.83 94.6104 144.173 95.0543 144.844 95.1119C145.5 95.1686 146.042 94.9102 146.439 94.3754C146.532 94.2493 146.686 94.0935 146.537 93.9369C146.117 93.4957 146.258 92.977 146.343 92.489ZM144.416 89.1116C144.227 90.0813 144.055 91.0538 143.868 92.0244C143.756 92.6061 143.39 92.8744 142.748 92.8654C142.201 92.8582 141.823 92.5385 141.727 91.9866C141.697 91.811 141.699 91.6291 141.696 91.5805C141.697 90.8062 141.866 90.2038 142.155 89.6374C142.543 88.8766 143.311 88.5137 144.139 88.6632C144.418 88.7118 144.465 88.8604 144.416 89.1116Z" fill="#EC2525"/>
<path d="M180.288 87.2897V87.2807C180.375 87.2546 180.437 87.1933 180.437 87.1141C180.437 87.0439 180.407 86.9871 180.367 86.9565C180.315 86.9259 180.253 86.9043 180.118 86.9043C179.999 86.9043 179.908 86.9133 179.842 86.9259V87.6453H180.008V87.3554H180.087C180.179 87.3554 180.223 87.3905 180.236 87.4698C180.258 87.5535 180.271 87.6192 180.293 87.6453H180.472C180.455 87.6192 180.442 87.5751 180.42 87.4652C180.398 87.3689 180.358 87.3167 180.288 87.2897ZM180.092 87.2374H180.013V87.0313C180.03 87.0268 180.061 87.0223 180.104 87.0223C180.209 87.0223 180.258 87.0664 180.258 87.1321C180.258 87.2068 180.184 87.2374 180.092 87.2374Z" fill="#EC2525"/>
<path d="M180.123 86.5488C179.712 86.5488 179.385 86.8694 179.385 87.2683C179.385 87.6761 179.712 87.9967 180.123 87.9967C180.539 87.9967 180.858 87.6761 180.858 87.2683C180.858 86.8694 180.539 86.5488 180.123 86.5488ZM180.128 87.8427C179.804 87.8427 179.568 87.5879 179.568 87.2683C179.568 86.9522 179.804 86.6938 180.123 86.6938C180.443 86.6938 180.674 86.9531 180.674 87.2728C180.674 87.5888 180.443 87.8427 180.128 87.8427Z" fill="#EC2525"/>
<path d="M230.585 90.4054H227.779C227.635 90.4054 227.507 90.4965 227.461 90.6333L225.431 96.6136H225.376L223.25 90.6285C223.202 90.4942 223.076 90.4054 222.934 90.4054H220.18C219.994 90.4054 219.844 90.5553 219.844 90.7412V97.8202C217.627 97.8202 212.031 97.8202 211.991 97.8202C209.738 97.8202 207.904 95.9863 207.904 93.7326C207.904 91.4789 209.738 89.645 211.991 89.645C212.041 89.645 213.367 89.5886 213.367 89.5886C213.522 89.5802 213.629 89.4315 213.589 89.2827L213.305 88.2285C213.181 87.7715 213.12 87.3013 213.12 86.8311C213.12 83.877 215.524 81.4733 218.478 81.4733C219.767 81.4733 221.012 81.9375 221.985 82.7807C222.948 83.6155 223.584 84.7645 223.774 86.0167L223.915 86.9391C223.935 87.077 224.068 87.1694 224.205 87.1406L225.036 86.9679C225.273 86.9187 225.514 86.8923 225.754 86.9043C226.811 86.9583 227.934 87.5988 228.13 88.7754C228.149 88.8929 228.251 88.9781 228.369 88.9781L230.227 88.9769C230.369 88.9769 230.482 88.8557 230.47 88.7142C230.251 86.0335 228.032 84.7561 225.943 84.6506C225.84 84.6458 225.752 84.5786 225.72 84.4803C225.293 83.1609 224.517 81.9891 223.46 81.0739C222.078 79.8745 220.309 79.2148 218.477 79.2148C214.279 79.2148 210.863 82.6308 210.863 86.8287C210.863 86.9751 210.868 87.1214 210.876 87.2677C210.883 87.3877 210.804 87.498 210.686 87.522C207.785 88.1325 205.648 90.7268 205.648 93.7314C205.648 97.2301 208.494 100.075 211.991 100.075C212.043 100.075 218.095 100.075 220.097 100.075C220.123 100.082 220.151 100.086 220.179 100.086H221.705C221.893 100.086 222.043 99.9336 222.041 99.7476L221.99 93.2348H222.031L224.399 99.8628C224.447 99.9959 224.573 100.086 224.716 100.086H225.885C226.026 100.086 226.152 99.9983 226.201 99.8652L228.637 93.2336H228.678L228.626 99.7464C228.625 99.9336 228.776 100.085 228.962 100.085H230.585C230.771 100.085 230.921 99.9348 230.921 99.7488V90.7412C230.922 90.5553 230.771 90.4054 230.585 90.4054Z" fill="#2B80F1"/>
<path d="M242.128 91.5119C241.658 91.0741 241.1 90.737 240.452 90.4996C239.805 90.2621 239.103 90.1445 238.346 90.1445C237.589 90.1445 236.89 90.2633 236.247 90.4996C235.604 90.737 235.048 91.0741 234.579 91.5119C234.109 91.9497 233.743 92.481 233.478 93.1047C233.213 93.7296 233.081 94.4288 233.081 95.2037C233.081 95.9701 233.213 96.6694 233.478 97.3026C233.742 97.9359 234.109 98.4793 234.579 98.9303C235.048 99.3812 235.604 99.7303 236.247 99.9761C236.89 100.222 237.589 100.346 238.346 100.346C239.103 100.346 239.805 100.222 240.452 99.9761C241.1 99.7303 241.658 99.3812 242.128 98.9303C242.597 98.4793 242.964 97.9371 243.229 97.3026C243.493 96.6694 243.626 95.9689 243.626 95.2037C243.626 94.4288 243.494 93.7296 243.229 93.1047C242.964 92.481 242.597 91.9497 242.128 91.5119ZM240.918 96.4151C240.781 96.7845 240.589 97.1011 240.343 97.365C240.097 97.6301 239.805 97.8364 239.468 97.9875C239.131 98.1374 238.756 98.213 238.346 98.213C237.936 98.213 237.562 98.1374 237.225 97.9875C236.888 97.8376 236.597 97.6301 236.356 97.365C236.115 97.1011 235.926 96.7833 235.789 96.4151C235.652 96.0457 235.584 95.6427 235.584 95.2049C235.584 94.7851 235.65 94.3941 235.782 94.0282C235.914 93.6636 236.103 93.3518 236.349 93.0915C236.595 92.8312 236.886 92.6261 237.225 92.4762C237.562 92.3263 237.936 92.2507 238.346 92.2507C238.756 92.2507 239.133 92.3263 239.475 92.4762C239.817 92.6261 240.108 92.8312 240.35 93.0915C240.591 93.3518 240.781 93.6636 240.918 94.0282C241.054 94.3929 241.123 94.7851 241.123 95.2049C241.123 95.6415 241.054 96.0457 240.918 96.4151Z" fill="#2B80F1"/>
<path d="M262.881 91.5119C262.41 91.0741 261.853 90.737 261.205 90.4996C260.557 90.2621 259.856 90.1445 259.099 90.1445C258.342 90.1445 257.643 90.2633 257 90.4996C256.357 90.737 255.8 91.0741 255.331 91.5119C254.861 91.9497 254.495 92.481 254.23 93.1047C253.965 93.7296 253.833 94.4288 253.833 95.2037C253.833 95.9701 253.965 96.6694 254.23 97.3026C254.494 97.9359 254.861 98.4793 255.331 98.9303C255.8 99.3812 256.357 99.7303 257 99.9761C257.643 100.222 258.342 100.346 259.099 100.346C259.856 100.346 260.557 100.222 261.205 99.9761C261.853 99.7303 262.41 99.3812 262.881 98.9303C263.35 98.4793 263.717 97.9371 263.982 97.3026C264.246 96.6694 264.379 95.9689 264.379 95.2037C264.379 94.4288 264.247 93.7296 263.982 93.1047C263.718 92.481 263.351 91.9497 262.881 91.5119ZM261.67 96.4151C261.534 96.7845 261.342 97.1011 261.096 97.365C260.85 97.6301 260.557 97.8364 260.22 97.9875C259.883 98.1374 259.509 98.213 259.099 98.213C258.689 98.213 258.314 98.1374 257.977 97.9875C257.64 97.8376 257.35 97.6301 257.109 97.365C256.868 97.1011 256.678 96.7833 256.542 96.4151C256.405 96.0457 256.337 95.6427 256.337 95.2049C256.337 94.7851 256.403 94.3941 256.534 94.0282C256.666 93.6636 256.856 93.3518 257.102 93.0915C257.348 92.8312 257.639 92.6261 257.977 92.4762C258.314 92.3263 258.689 92.2507 259.099 92.2507C259.509 92.2507 259.886 92.3263 260.227 92.4762C260.569 92.6261 260.861 92.8312 261.103 93.0915C261.344 93.3518 261.534 93.6636 261.67 94.0282C261.807 94.3929 261.875 94.7851 261.875 95.2049C261.875 95.6415 261.807 96.0457 261.67 96.4151Z" fill="#2B80F1"/>
<path d="M273.992 97.4581C273.858 97.331 273.648 97.3394 273.52 97.4725C273.346 97.65 273.139 97.8012 272.901 97.9271C272.554 98.1094 272.149 98.2006 271.683 98.2006C271.281 98.2006 270.913 98.1274 270.575 97.9823C270.238 97.8359 269.948 97.6332 269.707 97.3742C269.464 97.1139 269.276 96.802 269.139 96.4374C269.003 96.0728 268.934 95.671 268.934 95.2344C268.934 94.8062 269.003 94.4116 269.139 94.0518C269.276 93.692 269.468 93.3801 269.714 93.115C269.96 92.8512 270.254 92.6437 270.595 92.4925C270.937 92.3426 271.314 92.2671 271.724 92.2671C272.098 92.2671 272.463 92.3402 272.818 92.4853C273.065 92.5861 273.278 92.7252 273.458 92.9003C273.592 93.0299 273.801 93.0323 273.933 92.9015L275.031 91.8041C275.166 91.6685 275.16 91.4479 275.019 91.3171C274.648 90.9741 274.194 90.7054 273.659 90.5087C272.998 90.2676 272.325 90.1465 271.641 90.1465C270.902 90.1465 270.214 90.2652 269.576 90.5015C268.938 90.739 268.381 91.0784 267.908 91.5198C267.434 91.9624 267.062 92.4973 266.793 93.127C266.525 93.7567 266.39 94.4584 266.39 95.2332C266.39 95.99 266.522 96.6833 266.787 97.3118C267.051 97.9403 267.417 98.4812 267.881 98.9322C268.347 99.3832 268.896 99.7322 269.529 99.9781C270.162 100.224 270.853 100.348 271.601 100.348C272.421 100.348 273.145 100.204 273.775 99.9169C274.291 99.6818 274.738 99.3772 275.12 99.0042C275.258 98.8698 275.258 98.6491 275.117 98.5172L273.992 97.4581Z" fill="#2B80F1"/>
<path d="M286.997 93.1047C286.732 92.4798 286.366 91.9497 285.896 91.5119C285.426 91.0741 284.868 90.737 284.22 90.4996C283.573 90.2621 282.871 90.1445 282.114 90.1445C281.357 90.1445 280.658 90.2633 280.015 90.4996C279.372 90.737 278.816 91.0741 278.347 91.5119C277.877 91.9497 277.511 92.481 277.246 93.1047C276.981 93.7296 276.849 94.4288 276.849 95.2037C276.849 95.9701 276.981 96.6694 277.246 97.3026C277.51 97.9359 277.877 98.4793 278.347 98.9303C278.816 99.3812 279.372 99.7303 280.015 99.9761C280.658 100.222 281.357 100.346 282.114 100.346C282.871 100.346 283.573 100.222 284.22 99.9761C284.868 99.7303 285.426 99.3812 285.896 98.9303C286.365 98.4793 286.732 97.9371 286.997 97.3026C287.261 96.6694 287.394 95.9689 287.394 95.2037C287.394 94.43 287.262 93.7296 286.997 93.1047ZM284.686 96.4151C284.549 96.7845 284.357 97.1011 284.111 97.365C283.865 97.6301 283.573 97.8364 283.236 97.9875C282.898 98.1374 282.524 98.213 282.114 98.213C281.704 98.213 281.33 98.1374 280.993 97.9875C280.656 97.8376 280.365 97.6301 280.124 97.365C279.883 97.1011 279.694 96.7833 279.557 96.4151C279.42 96.0457 279.352 95.6427 279.352 95.2049C279.352 94.7851 279.418 94.3941 279.55 94.0282C279.682 93.6636 279.871 93.3518 280.117 93.0915C280.363 92.8312 280.654 92.6261 280.993 92.4762C281.33 92.3263 281.704 92.2507 282.114 92.2507C282.524 92.2507 282.901 92.3263 283.243 92.4762C283.585 92.6261 283.876 92.8312 284.118 93.0915C284.359 93.3518 284.549 93.6636 284.686 94.0282C284.822 94.3929 284.891 94.7851 284.891 95.2049C284.891 95.6415 284.822 96.0457 284.686 96.4151Z" fill="#2B80F1"/>
<path d="M252.258 98.1627H248.568C248.383 98.1627 248.232 98.0127 248.232 97.8268V90.8534C248.232 90.6687 248.082 90.5176 247.896 90.5176H246.214C246.03 90.5176 245.878 90.6675 245.878 90.8534V99.8646C245.878 100.049 246.028 100.2 246.214 100.2H252.257C252.442 100.2 252.593 100.051 252.593 99.8646V98.4973C252.593 98.3126 252.443 98.1627 252.258 98.1627Z" fill="#2B80F1"/>
<mask id="mask6_1116_855" style="mask-type:alpha" maskUnits="userSpaceOnUse" x="389" y="88" width="14" height="9">
<path d="M389.429 88.6055H402.657V96.2594H389.429V88.6055Z" fill="white"/>
</mask>
<g mask="url(#mask6_1116_855)">
<path fill-rule="evenodd" clip-rule="evenodd" d="M389.429 96.2594H401.816C401.816 96.2594 405.697 82.8446 396.784 91.5342C393.714 94.5285 389.429 96.2594 389.429 96.2594Z" fill="#94C132"/>
</g>
<mask id="mask7_1116_855" style="mask-type:alpha" maskUnits="userSpaceOnUse" x="389" y="83" width="12" height="13">
<path d="M389.796 83.0918H400.279V95.0232H389.796V83.0918Z" fill="white"/>
</mask>
<g mask="url(#mask7_1116_855)">
<path fill-rule="evenodd" clip-rule="evenodd" d="M389.796 95.0232C389.796 95.0232 392.769 93.5213 395.549 91.088C397.989 88.9525 400.279 85.8468 400.279 85.8468L399.525 83.0918L397.116 84.712C397.116 84.712 396.067 87.4053 394.324 89.8612C392.415 92.55 389.796 95.0232 389.796 95.0232Z" fill="#94C132"/>
</g>
<path fill-rule="evenodd" clip-rule="evenodd" d="M315.081 91.5093C315.081 88.5847 317.282 86.6113 320.135 86.6113C322.208 86.6113 323.415 87.7329 324.082 88.9255L322.35 89.7773C321.952 89.0107 321.101 88.4001 320.135 88.4001C318.403 88.4001 317.154 89.7204 317.154 91.5093C317.154 93.2981 318.403 94.6186 320.135 94.6186C321.101 94.6186 321.952 94.0079 322.35 93.2413L324.082 94.0789C323.415 95.2574 322.208 96.4072 320.135 96.4072C317.282 96.4072 315.081 94.4196 315.081 91.5093Z" fill="#191814"/>
<path fill-rule="evenodd" clip-rule="evenodd" d="M329.887 96.2369V92.0632C329.887 91.1118 329.39 90.8139 328.624 90.8139C327.914 90.8139 327.36 91.2112 327.062 91.6088V96.2369H325.245V86.7676H327.062V90.2601C327.502 89.749 328.34 89.2097 329.461 89.2097C330.966 89.2097 331.69 90.0331 331.69 91.3676V96.2369H329.887Z" fill="#191814"/>
<path fill-rule="evenodd" clip-rule="evenodd" d="M337.596 94.5916V93.7396C337.299 93.3422 336.73 93.1293 336.148 93.1293C335.439 93.1293 334.856 93.5125 334.856 94.1657C334.856 94.8188 335.439 95.188 336.148 95.188C336.73 95.188 337.299 94.9891 337.596 94.5916ZM337.596 96.2382V95.5142C337.128 96.0822 336.319 96.4086 335.424 96.4086C334.331 96.4086 333.053 95.6704 333.053 94.1372C333.053 92.5189 334.331 91.9224 335.424 91.9224C336.347 91.9224 337.142 92.2205 337.596 92.7604V91.8943C337.596 91.1983 337 90.7443 336.092 90.7443C335.368 90.7443 334.686 91.0281 334.118 91.5534L333.408 90.2898C334.246 89.5375 335.325 89.2109 336.404 89.2109C337.98 89.2109 339.414 89.8356 339.414 91.8089V96.2382H337.596Z" fill="#191814"/>
<path fill-rule="evenodd" clip-rule="evenodd" d="M341.189 96.2381V89.3811H342.992V90.3041C343.488 89.7078 343.992 89.2109 344.844 89.2109V90.9713C344.716 90.9429 344.56 90.9288 344.347 90.9288C343.751 90.9288 343.29 91.2695 342.992 91.7096V96.2381H341.189Z" fill="#191814"/>
<mask id="mask8_1116_855" style="mask-type:alpha" maskUnits="userSpaceOnUse" x="346" y="87" width="5" height="10">
<path d="M346.093 87.5059H350.664V96.4071H346.093V87.5059Z" fill="white"/>
</mask>
<g mask="url(#mask8_1116_855)">
<path fill-rule="evenodd" clip-rule="evenodd" d="M347.229 94.5189V90.9555H346.093V89.3796H347.229V87.5059H349.031V89.3796H350.423V90.9555H349.031V94.0364C349.031 94.4764 349.259 94.8029 349.656 94.8029C349.926 94.8029 350.182 94.7036 350.281 94.5899L350.664 95.967C350.394 96.2084 349.912 96.4071 349.159 96.4071C347.896 96.4071 347.229 95.7539 347.229 94.5189Z" fill="#191814"/>
</g>
<path fill-rule="evenodd" clip-rule="evenodd" d="M355.588 94.8031C356.624 94.8031 357.32 93.994 357.32 92.8016C357.32 91.6231 356.624 90.8139 355.588 90.8139C354.992 90.8139 354.339 91.1544 354.026 91.6088V94.0366C354.339 94.4767 354.992 94.8031 355.588 94.8031ZM352.223 96.2369V86.7676H354.026V90.2601C354.566 89.5504 355.333 89.2097 356.142 89.2097C357.888 89.2097 359.18 90.5724 359.18 92.8016C359.18 95.1011 357.874 96.4074 356.142 96.4074C355.318 96.4074 354.566 96.0383 354.026 95.3567V96.2369H352.223Z" fill="#191814"/>
<path fill-rule="evenodd" clip-rule="evenodd" d="M365.481 92.8029C365.481 91.7377 364.856 90.8152 363.721 90.8152C362.6 90.8152 361.975 91.7377 361.975 92.8029C361.975 93.8816 362.6 94.8044 363.721 94.8044C364.856 94.8044 365.481 93.8816 365.481 92.8029ZM360.101 92.8029C360.101 90.8575 361.464 89.2109 363.721 89.2109C365.993 89.2109 367.355 90.8575 367.355 92.8029C367.355 94.7478 365.993 96.4086 363.721 96.4086C361.464 96.4086 360.101 94.7478 360.101 92.8029Z" fill="#191814"/>
<path fill-rule="evenodd" clip-rule="evenodd" d="M373.645 92.8029C373.645 91.7377 373.021 90.8152 371.885 90.8152C370.764 90.8152 370.139 91.7377 370.139 92.8029C370.139 93.8816 370.764 94.8044 371.885 94.8044C373.021 94.8044 373.645 93.8816 373.645 92.8029ZM368.265 92.8029C368.265 90.8575 369.628 89.2109 371.885 89.2109C374.157 89.2109 375.52 90.8575 375.52 92.8029C375.52 94.7478 374.157 96.4086 371.885 96.4086C369.628 96.4086 368.265 94.7478 368.265 92.8029Z" fill="#191814"/>
<path fill-rule="evenodd" clip-rule="evenodd" d="M376.27 95.3439L377.05 94.0379C377.561 94.5204 378.569 94.9891 379.421 94.9891C380.202 94.9891 380.57 94.691 380.57 94.2648C380.57 93.1433 376.511 94.0664 376.511 91.3689C376.511 90.2188 377.504 89.2109 379.321 89.2109C380.471 89.2109 381.394 89.6085 382.076 90.148L381.352 91.4255C380.939 90.9997 380.159 90.6304 379.321 90.6304C378.668 90.6304 378.243 90.9145 378.243 91.2979C378.243 92.3058 382.317 91.454 382.317 94.2225C382.317 95.486 381.238 96.4086 379.335 96.4086C378.143 96.4086 376.993 96.0114 376.27 95.3439Z" fill="#191814"/>
<mask id="mask9_1116_855" style="mask-type:alpha" maskUnits="userSpaceOnUse" x="382" y="87" width="6" height="10">
<path d="M382.87 87.5059H387.441V96.4071H382.87V87.5059Z" fill="white"/>
</mask>
<g mask="url(#mask9_1116_855)">
<path fill-rule="evenodd" clip-rule="evenodd" d="M384.005 94.5189V90.9555H382.87V89.3796H384.005V87.5059H385.809V89.3796H387.2V90.9555H385.809V94.0364C385.809 94.4764 386.036 94.8029 386.433 94.8029C386.703 94.8029 386.958 94.7036 387.058 94.5899L387.441 95.967C387.171 96.2084 386.689 96.4071 385.936 96.4071C384.673 96.4071 384.005 95.7539 384.005 94.5189Z" fill="#191814"/>
</g>
<path d="M456.617 96.9529H458.803V91.735H463.458V89.7151H458.803V86.6292H463.906V84.6094H456.617V96.9529Z" fill="#00D691"/>
<path d="M472.261 87.9746L469.457 94.483L466.766 87.9746H464.467L468.28 97.0079L466.822 100.318H469.065L474.56 87.9746H472.261Z" fill="#00D691"/>
<path d="M481.681 94.3141C481.177 94.8191 480.616 95.0435 479.831 95.0435C479.102 95.0435 478.429 94.763 477.924 94.3141C477.42 93.8092 477.139 93.192 477.139 92.4626C477.139 91.7332 477.42 91.0599 477.924 90.6111C478.429 90.1061 479.102 89.8817 479.831 89.8817C480.56 89.8817 481.177 90.1622 481.681 90.6111C482.186 91.116 482.41 91.7332 482.41 92.4626C482.41 93.192 482.186 93.8092 481.681 94.3141ZM480.111 87.974C478.653 87.974 477.644 88.5912 477.364 89.4328V84.832H475.289V96.7267H477.364V95.4924C477.644 96.334 478.709 96.9512 480.111 96.9512C481.345 96.9512 482.354 96.5023 483.195 95.6607C484.036 94.763 484.429 93.7531 484.429 92.4626C484.429 91.1721 484.036 90.1061 483.195 89.2645C482.41 88.3668 481.345 87.974 480.111 87.974" fill="#00D691"/>
<path d="M487.626 91.5088C487.682 91.0039 487.962 90.555 488.411 90.1623C488.859 89.8256 489.42 89.6012 490.093 89.6012C490.71 89.6012 491.214 89.7695 491.607 90.1623C492.055 90.4989 492.28 90.9478 492.28 91.4527H487.626V91.5088ZM490.093 87.918C488.747 87.918 487.682 88.3107 486.841 89.1523C485.999 89.9939 485.551 91.06 485.551 92.4626V92.5188C485.551 93.8653 485.999 94.9314 486.841 95.7169C487.682 96.5024 488.803 96.9512 490.149 96.9512C491.607 96.9512 492.84 96.4462 493.794 95.4363L492.56 94.2581C491.887 94.9314 491.102 95.268 490.205 95.268C488.691 95.268 487.682 94.3703 487.569 93.0237H494.298C494.298 92.7993 494.354 92.5749 494.354 92.2943C494.354 91.06 493.962 90.05 493.121 89.2084C492.392 88.3107 491.326 87.918 490.093 87.918V87.918Z" fill="#00D691"/>
<mask id="mask10_1116_855" style="mask-type:alpha" maskUnits="userSpaceOnUse" x="495" y="87" width="7" height="10">
<path d="M495.733 87.9863H501.004V96.739H495.733V87.9863Z" fill="#00D691"/>
</mask>
<g mask="url(#mask10_1116_855)">
<path d="M500.387 87.9863C499.154 87.9863 498.201 88.5474 497.808 89.4451V88.1546H495.733V96.739H497.808V92.1944C497.808 90.7917 498.705 89.894 500.163 89.894C500.5 89.894 500.78 89.9501 501.004 90.0062V88.0424C500.836 87.9863 500.612 87.9863 500.387 87.9863Z" fill="#00D691"/>
</g>
<path d="M430.019 80.7402V100.041H434.392C434.392 94.1498 437.084 91.2884 442.242 91.2884H446.448V95.272H442.803C440.168 95.272 438.317 96.0575 438.43 100.041H451.214V80.7402H430.019ZM446.448 89.4929H434.841V85.5093H446.448V89.4929V89.4929Z" fill="#00D691"/>
</g>
<rect x="2.20496" y="67.4062" width="109.498" height="47.0328" rx="3.50429" fill="white"/>
<rect x="515.014" y="67.4062" width="109.498" height="47.0328" rx="3.50429" fill="white"/>
<rect y="118.113" width="97.74" height="47.0328" rx="3.50429" fill="white"/>
<rect x="529.26" y="118.113" width="97.74" height="47.0328" rx="3.50429" fill="white"/>
<rect x="8.08398" y="16.6992" width="88.9214" height="47.0328" rx="3.50429" fill="white"/>
<rect x="530.73" y="16.6992" width="88.9214" height="47.0328" rx="3.50429" fill="white"/>
<defs>
<filter id="filter0_d_1116_855" x="11.3888" y="0.937723" width="605.2" height="201.002" filterUnits="userSpaceOnUse" color-interpolation-filters="sRGB">
<feFlood flood-opacity="0" result="BackgroundImageFix"/>
<feColorMatrix in="SourceAlpha" type="matrix" values="0 0 0 0 0 0 0 0 0 0 0 0 0 0 0 0 0 0 127 0" result="hardAlpha"/>
<feOffset dy="10.5129"/>
<feGaussianBlur stdDeviation="13.1411"/>
<feColorMatrix type="matrix" values="0 0 0 0 0 0 0 0 0 0 0 0 0 0 0 0 0 0 0.1 0"/>
<feBlend mode="normal" in2="BackgroundImageFix" result="effect1_dropShadow_1116_855"/>
<feBlend mode="normal" in="SourceGraphic" in2="effect1_dropShadow_1116_855" result="shape"/>
</filter>
<linearGradient id="paint0_linear_1116_855" x1="141.29" y1="90.9231" x2="81.0288" y2="90.9231" gradientUnits="userSpaceOnUse">
<stop stop-color="#C4C4C4"/>
<stop offset="1" stop-color="#C4C4C4" stop-opacity="0"/>
</linearGradient>
<linearGradient id="paint1_linear_1116_855" x1="126.592" y1="40.2141" x2="66.3316" y2="40.2141" gradientUnits="userSpaceOnUse">
<stop stop-color="#C4C4C4"/>
<stop offset="1" stop-color="#C4C4C4" stop-opacity="0"/>
</linearGradient>
<linearGradient id="paint2_linear_1116_855" x1="127.327" y1="141.628" x2="67.0665" y2="141.628" gradientUnits="userSpaceOnUse">
<stop stop-color="#C4C4C4"/>
<stop offset="1" stop-color="#C4C4C4" stop-opacity="0"/>
</linearGradient>
<linearGradient id="paint3_linear_1116_855" x1="677.757" y1="218.056" x2="617.497" y2="218.056" gradientUnits="userSpaceOnUse">
<stop stop-color="#C4C4C4"/>
<stop offset="1" stop-color="#C4C4C4" stop-opacity="0"/>
</linearGradient>
<linearGradient id="paint4_linear_1116_855" x1="664.53" y1="167.351" x2="604.27" y2="167.351" gradientUnits="userSpaceOnUse">
<stop stop-color="#C4C4C4"/>
<stop offset="1" stop-color="#C4C4C4" stop-opacity="0"/>
</linearGradient>
<linearGradient id="paint5_linear_1116_855" x1="679.228" y1="116.642" x2="618.967" y2="116.642" gradientUnits="userSpaceOnUse">
<stop stop-color="#C4C4C4"/>
<stop offset="1" stop-color="#C4C4C4" stop-opacity="0"/>
</linearGradient>
</defs>
</svg>
