<svg width="65" height="65" viewBox="0 0 65 65" fill="none" xmlns="http://www.w3.org/2000/svg">
<rect width="65" height="65" fill="white"/>
<path d="M32.4805 32.3514C31.6448 32.3518 30.8279 32.1043 30.133 31.6403C29.438 31.1763 28.8963 30.5166 28.5763 29.7447C28.2563 28.9728 28.1724 28.1233 28.3352 27.3037C28.4981 26.4841 28.9003 25.7312 29.491 25.1403C30.0818 24.5493 30.8345 24.1468 31.6541 23.9836C32.4736 23.8205 33.3231 23.9041 34.0951 24.2238C34.8671 24.5435 35.527 25.0849 35.9913 25.7797C36.4556 26.4744 36.7034 27.2913 36.7034 28.1269C36.7021 29.2466 36.2568 30.3202 35.4652 31.1121C34.6735 31.904 33.6002 32.3497 32.4805 32.3514ZM32.4805 25.1287C31.887 25.1284 31.3068 25.3041 30.8132 25.6336C30.3197 25.9631 29.9349 26.4316 29.7077 26.9798C29.4804 27.528 29.4209 28.1313 29.5366 28.7134C29.6523 29.2954 29.938 29.8301 30.3576 30.2497C30.7773 30.6693 31.3119 30.9551 31.894 31.0708C32.476 31.1865 33.0793 31.1269 33.6275 30.8997C34.1758 30.6724 34.6442 30.2877 34.9737 29.7941C35.3032 29.3005 35.4789 28.7203 35.4786 28.1269C35.4782 27.3316 35.1623 26.5689 34.6002 26.0062C34.0381 25.4435 33.2758 25.1268 32.4805 25.1255V25.1287Z" fill="#0F3384"/>
<path d="M32.4805 9.44909C31.6448 9.44942 30.8279 9.20193 30.133 8.73792C29.438 8.27392 28.8963 7.61425 28.5763 6.84234C28.2563 6.07044 28.1724 5.22097 28.3352 4.40138C28.4981 3.58179 28.9003 2.8289 29.491 2.23792C30.0818 1.64694 30.8345 1.24443 31.6541 1.08129C32.4736 0.918157 33.3231 1.00172 34.0951 1.32142C34.8671 1.64112 35.527 2.18259 35.9913 2.87735C36.4556 3.5721 36.7034 4.38894 36.7034 5.22455C36.7021 6.34429 36.2568 7.41782 35.4652 8.20974C34.6735 9.00167 33.6002 9.44737 32.4805 9.44909ZM32.4805 2.22474C31.8871 2.22442 31.3069 2.40008 30.8134 2.72951C30.3199 3.05893 29.9351 3.52733 29.7078 4.07544C29.4805 4.62355 29.4209 5.22677 29.5365 5.80878C29.652 6.39079 29.9376 6.92546 30.3571 7.34515C30.7765 7.76484 31.311 8.05071 31.893 8.16659C32.4749 8.28247 33.0782 8.22316 33.6264 7.99616C34.1747 7.76916 34.6433 7.38467 34.973 6.89132C35.3026 6.39797 35.4786 5.81792 35.4786 5.22455C35.4773 4.42978 35.161 3.66794 34.599 3.10595C34.0371 2.54397 33.2752 2.22767 32.4805 2.22638V2.22474Z" fill="#0F3384"/>
<path d="M18.2196 9.44909C17.3843 9.44812 16.5679 9.19949 15.8738 8.73463C15.1797 8.26977 14.639 7.60955 14.32 6.83744C14.0011 6.06532 13.9182 5.21598 14.0819 4.39678C14.2456 3.57757 14.6485 2.82529 15.2397 2.23504C15.8308 1.64478 16.5837 1.24304 17.4032 1.08062C18.2226 0.918195 19.0719 1.00237 19.8435 1.32251C20.6151 1.64265 21.2745 2.18438 21.7383 2.87921C22.202 3.57404 22.4494 4.39078 22.4491 5.22618C22.4478 6.3469 22.0016 7.42125 21.2085 8.2131C20.4154 9.00496 19.3404 9.44952 18.2196 9.44909V9.44909ZM18.2196 2.22474C17.6263 2.22474 17.0464 2.40068 16.553 2.7303C16.0597 3.05992 15.6752 3.52843 15.4482 4.07657C15.2211 4.62471 15.1617 5.22787 15.2775 5.80978C15.3932 6.39168 15.6789 6.9262 16.0985 7.34573C16.518 7.76526 17.0525 8.05096 17.6344 8.16671C18.2163 8.28245 18.8195 8.22305 19.3676 7.996C19.9158 7.76895 20.3843 7.38446 20.7139 6.89115C21.0435 6.39783 21.2195 5.81785 21.2195 5.22454C21.2186 4.42936 20.9022 3.66702 20.3398 3.1049C19.7773 2.54277 19.0148 2.22681 18.2196 2.22637V2.22474Z" fill="#0F3384"/>
<path d="M46.9276 9.44909C46.092 9.44909 45.2752 9.20133 44.5805 8.73713C43.8858 8.27293 43.3443 7.61315 43.0246 6.84121C42.7048 6.06928 42.6212 5.21986 42.7842 4.40038C42.9472 3.5809 43.3495 2.82816 43.9403 2.23734C44.5312 1.64653 45.2839 1.24418 46.1034 1.08118C46.9229 0.91817 47.7723 1.00183 48.5442 1.32158C49.3162 1.64132 49.9759 2.18279 50.4401 2.87752C50.9043 3.57224 51.1521 4.38901 51.1521 5.22455C51.1512 6.3447 50.7059 7.41873 49.9138 8.2108C49.1217 9.00287 48.0477 9.44823 46.9276 9.44909V9.44909ZM46.9276 2.22474C46.3342 2.22474 45.7543 2.40068 45.2609 2.7303C44.7676 3.05993 44.3831 3.52843 44.1561 4.07657C43.929 4.62472 43.8696 5.22788 43.9854 5.80978C44.1011 6.39169 44.3868 6.9262 44.8064 7.34573C45.2259 7.76526 45.7604 8.05096 46.3423 8.16671C46.9242 8.28246 47.5274 8.22305 48.0755 7.99601C48.6237 7.76896 49.0922 7.38447 49.4218 6.89115C49.7514 6.39783 49.9274 5.81785 49.9274 5.22455C49.9261 4.4295 49.6095 3.66741 49.0472 3.10538C48.4849 2.54334 47.7226 2.22724 46.9276 2.22638V2.22474Z" fill="#0F3384"/>
<path d="M39.7034 20.9022C38.8678 20.9022 38.051 20.6544 37.3562 20.1901C36.6615 19.7259 36.12 19.066 35.8003 18.294C35.4806 17.5219 35.397 16.6724 35.5602 15.8529C35.7233 15.0334 36.1258 14.2806 36.7168 13.6899C37.3078 13.0991 38.0607 12.6969 38.8803 12.5341C39.6999 12.3713 40.5493 12.4552 41.3212 12.7752C42.0931 13.0952 42.7528 13.6369 43.2168 14.3318C43.6808 15.0268 43.9283 15.8437 43.928 16.6793C43.9262 17.799 43.4806 18.8724 42.6886 19.664C41.8967 20.4556 40.8232 20.9009 39.7034 20.9022ZM39.7034 13.6795C39.1099 13.6785 38.5295 13.8536 38.0355 14.1827C37.5415 14.5117 37.1563 14.9799 36.9285 15.5279C36.7007 16.076 36.6406 16.6793 36.7558 17.2615C36.871 17.8438 37.1563 18.3787 37.5756 18.7988C37.995 19.2188 38.5295 19.505 39.1115 19.6211C39.6935 19.7373 40.2969 19.6781 40.8454 19.4512C41.3938 19.2243 41.8626 18.8398 42.1924 18.3464C42.5223 17.853 42.6983 17.2728 42.6983 16.6793C42.697 15.885 42.3812 15.1234 41.82 14.5613C41.2588 13.9991 40.4978 13.6821 39.7034 13.6795V13.6795Z" fill="#0F3384"/>
<path d="M25.4422 20.9022C24.6066 20.9022 23.7898 20.6544 23.095 20.1901C22.4002 19.7259 21.8588 19.066 21.5391 18.294C21.2194 17.5219 21.1358 16.6724 21.2989 15.8529C21.4621 15.0334 21.8646 14.2806 22.4556 13.6899C23.0465 13.0991 23.7994 12.6969 24.619 12.5341C25.4386 12.3713 26.2881 12.4552 27.06 12.7752C27.8319 13.0952 28.4916 13.6369 28.9556 14.3318C29.4196 15.0268 29.6671 15.8437 29.6667 16.6793C29.6654 17.7992 29.2199 18.8728 28.4279 19.6645C27.6358 20.4562 26.5621 20.9014 25.4422 20.9022V20.9022ZM25.4422 13.6795C24.8489 13.6795 24.2689 13.8554 23.7756 14.1851C23.2823 14.5147 22.8978 14.9832 22.6707 15.5313C22.4437 16.0795 22.3843 16.6826 22.5 17.2645C22.6158 17.8464 22.9015 18.381 23.321 18.8005C23.7405 19.22 24.2751 19.5057 24.857 19.6215C25.4389 19.7372 26.042 19.6778 26.5902 19.4508C27.1383 19.2237 27.6068 18.8392 27.9364 18.3459C28.2661 17.8526 28.442 17.2726 28.442 16.6793C28.4411 15.884 28.1248 15.1215 27.5624 14.5591C27 13.9967 26.2375 13.6804 25.4422 13.6795V13.6795Z" fill="#0F3384"/>
<path d="M32.1015 63.2996C25.4905 63.2996 20.3116 61.4658 20.3116 59.1262V40.0551C20.3116 37.7154 25.4905 35.8809 32.1015 35.8809C38.7125 35.8809 43.8914 37.7154 43.8914 40.0551V59.1262C43.8914 61.4651 38.7125 63.2996 32.1015 63.2996ZM32.1015 36.4445C25.3879 36.4445 20.8779 38.3107 20.8779 40.0521V59.1262C20.8779 60.8691 25.3879 62.7337 32.1015 62.7337C38.8152 62.7337 43.3252 60.8668 43.3252 59.1262V40.0551C43.3252 38.3107 38.8152 36.4445 32.1015 36.4445Z" fill="#0F3384"/>
<path fill-rule="evenodd" clip-rule="evenodd" d="M23.6054 36.7463C25.7761 35.9777 28.7671 35.5156 32.1016 35.5156C35.436 35.5156 38.4271 35.9777 40.5977 36.7463C41.6815 37.1301 42.5808 37.5973 43.216 38.1378C43.8507 38.6779 44.2572 39.324 44.2572 40.0556V59.1267C44.2572 59.8581 43.8507 60.5042 43.216 61.0441C42.5807 61.5845 41.6815 62.0516 40.5977 62.4353C38.4271 63.2039 35.436 63.6659 32.1016 63.6659C28.7671 63.6659 25.7761 63.204 23.6054 62.4356C22.5217 62.0519 21.6224 61.5848 20.9872 61.0444C20.3524 60.5044 19.9459 59.8583 19.9459 59.1267V40.0556C19.9459 39.324 20.3524 38.6779 20.9872 38.1378C21.6224 37.5973 22.5216 37.1301 23.6054 36.7463ZM21.9152 39.0405C21.4226 39.4324 21.2436 39.7816 21.2436 40.0526V59.1267C21.2436 59.3982 21.4227 59.7476 21.9152 60.1394C22.3991 60.5245 23.1309 60.9042 24.0923 61.2386C26.0113 61.906 28.7748 62.3685 32.1016 62.3685C35.4283 62.3685 38.1918 61.9055 40.1108 61.2378C41.0722 60.9033 41.804 60.5234 42.288 60.1385C42.7806 59.7466 42.9595 59.3975 42.9595 59.1267V40.0556C42.9595 39.7836 42.7802 39.4338 42.2878 39.0417C41.8039 38.6563 41.0721 38.2762 40.1108 37.9416C38.1918 37.2736 35.4283 36.8108 32.1016 36.8108C28.7749 36.8108 26.0113 37.2736 24.0923 37.9413C23.1309 38.2757 22.3991 38.6555 21.9152 39.0405Z" fill="#0F3384"/>
<path d="M32.1015 44.2287C25.4905 44.2287 20.3116 42.3949 20.3116 40.0553C20.3116 39.9805 20.3415 39.9088 20.3946 39.856C20.4477 39.8031 20.5197 39.7734 20.5947 39.7734C20.6698 39.7734 20.7418 39.8031 20.7949 39.856C20.848 39.9088 20.8779 39.9805 20.8779 40.0553C20.8779 41.7982 25.3879 43.6628 32.1015 43.6628C38.8152 43.6628 43.3252 41.7959 43.3252 40.0553C43.3252 39.9805 43.355 39.9088 43.4081 39.856C43.4612 39.8031 43.5332 39.7734 43.6083 39.7734C43.6834 39.7734 43.7554 39.8031 43.8085 39.856C43.8616 39.9088 43.8914 39.9805 43.8914 40.0553C43.8914 42.3949 38.7125 44.2287 32.1015 44.2287Z" fill="#0F3384"/>
<path fill-rule="evenodd" clip-rule="evenodd" d="M20.1365 39.5973C20.2584 39.476 20.4232 39.4082 20.5948 39.4082C20.7663 39.4082 20.9312 39.476 21.053 39.5973C21.1749 39.7186 21.2436 39.8835 21.2436 40.0558C21.2436 40.3273 21.4227 40.6767 21.9152 41.0686C22.3991 41.4536 23.1309 41.8333 24.0923 42.1677C26.0113 42.8351 28.7748 43.2976 32.1016 43.2976C35.4283 43.2976 38.1918 42.8346 40.1108 42.1669C41.0722 41.8324 41.804 41.4525 42.288 41.0676C42.7806 40.6757 42.9595 40.3266 42.9595 40.0558C42.9595 39.8835 43.0283 39.7186 43.1501 39.5973C43.2719 39.476 43.4368 39.4082 43.6084 39.4082C43.7799 39.4082 43.9448 39.476 44.0666 39.5973C44.1885 39.7186 44.2572 39.8835 44.2572 40.0558C44.2572 40.7874 43.8507 41.4335 43.216 41.9735C42.5807 42.5139 41.6815 42.981 40.5977 43.3647C38.4271 44.1331 35.436 44.595 32.1016 44.595C28.7671 44.595 25.7761 44.1331 23.6054 43.3647C22.5217 42.981 21.6224 42.5139 20.9872 41.9735C20.3524 41.4335 19.9459 40.7874 19.9459 40.0558C19.9459 39.8835 20.0147 39.7186 20.1365 39.5973Z" fill="#0F3384"/>
<path d="M32.1015 50.5862C25.4905 50.5862 20.3116 48.7523 20.3116 46.4127C20.3116 46.3379 20.3415 46.2663 20.3946 46.2134C20.4477 46.1606 20.5197 46.1309 20.5947 46.1309C20.6698 46.1309 20.7418 46.1606 20.7949 46.2134C20.848 46.2663 20.8779 46.3379 20.8779 46.4127C20.8779 48.1556 25.3879 50.0202 32.1015 50.0202C38.8152 50.0202 43.3252 48.1533 43.3252 46.4127C43.3252 46.3379 43.355 46.2663 43.4081 46.2134C43.4612 46.1606 43.5332 46.1309 43.6083 46.1309C43.6834 46.1309 43.7554 46.1606 43.8085 46.2134C43.8616 46.2663 43.8914 46.3379 43.8914 46.4127C43.8914 48.7523 38.7125 50.5862 32.1015 50.5862Z" fill="#0F3384"/>
<path fill-rule="evenodd" clip-rule="evenodd" d="M20.1365 45.9547C20.2584 45.8335 20.4232 45.7656 20.5948 45.7656C20.7663 45.7656 20.9312 45.8335 21.053 45.9547C21.1749 46.076 21.2436 46.2409 21.2436 46.4132C21.2436 46.6847 21.4227 47.0341 21.9152 47.426C22.3991 47.811 23.1309 48.1908 24.0923 48.5251C26.0113 49.1926 28.7748 49.655 32.1016 49.655C35.4283 49.655 38.1918 49.192 40.1108 48.5243C41.0722 48.1898 41.804 47.81 42.288 47.425C42.7806 47.0331 42.9595 46.684 42.9595 46.4132C42.9595 46.2409 43.0283 46.076 43.1501 45.9547C43.2719 45.8335 43.4368 45.7656 43.6084 45.7656C43.7799 45.7656 43.9448 45.8335 44.0666 45.9547C44.1885 46.076 44.2572 46.2409 44.2572 46.4132C44.2572 47.1448 43.8507 47.7909 43.216 48.3309C42.5807 48.8714 41.6815 49.3384 40.5977 49.7221C38.4271 50.4906 35.436 50.9525 32.1016 50.9525C28.7671 50.9525 25.7761 50.4906 23.6054 49.7221C22.5217 49.3384 21.6224 48.8714 20.9872 48.3309C20.3524 47.7909 19.9459 47.1448 19.9459 46.4132C19.9459 46.2409 20.0147 46.076 20.1365 45.9547Z" fill="#0F3384"/>
<path d="M32.1015 56.9443C25.4905 56.9443 20.3116 55.1105 20.3116 52.7701C20.3116 52.6954 20.3415 52.6237 20.3946 52.5708C20.4477 52.518 20.5197 52.4883 20.5947 52.4883C20.6698 52.4883 20.7418 52.518 20.7949 52.5708C20.848 52.6237 20.8779 52.6954 20.8779 52.7701C20.8779 54.5138 25.3879 56.3777 32.1015 56.3777C38.8152 56.3777 43.3252 54.5108 43.3252 52.7701C43.3252 52.6954 43.355 52.6237 43.4081 52.5708C43.4612 52.518 43.5332 52.4883 43.6083 52.4883C43.6834 52.4883 43.7554 52.518 43.8085 52.5708C43.8616 52.6237 43.8914 52.6954 43.8914 52.7701C43.8914 55.1105 38.7125 56.9443 32.1015 56.9443Z" fill="#0F3384"/>
<path fill-rule="evenodd" clip-rule="evenodd" d="M20.1365 52.3102C20.2584 52.1889 20.4232 52.1211 20.5948 52.1211C20.7663 52.1211 20.9312 52.1889 21.053 52.3102C21.1749 52.4315 21.2436 52.5964 21.2436 52.7687C21.2436 53.0404 21.4228 53.3899 21.9152 53.7818C22.3991 54.1668 23.1309 54.5466 24.0922 54.8809C26.0113 55.5482 28.7748 56.0105 32.1016 56.0105C35.4283 56.0105 38.1918 55.5475 40.1108 54.8798C41.0722 54.5453 41.804 54.1654 42.288 53.7805C42.7806 53.3886 42.9595 53.0395 42.9595 52.7687C42.9595 52.5964 43.0283 52.4315 43.1501 52.3102C43.2719 52.1889 43.4368 52.1211 43.6084 52.1211C43.7799 52.1211 43.9448 52.1889 44.0666 52.3102C44.1885 52.4315 44.2572 52.5964 44.2572 52.7687C44.2572 53.5004 43.8508 54.1467 43.216 54.6868C42.5808 55.2274 41.6815 55.6945 40.5977 56.0782C38.4271 56.8468 35.436 57.3087 32.1016 57.3087C28.7671 57.3087 25.7761 56.8468 23.6054 56.0782C22.5216 55.6945 21.6224 55.2274 20.9871 54.6868C20.3524 54.1467 19.9459 53.5004 19.9459 52.7687C19.9459 52.5964 20.0147 52.4315 20.1365 52.3102Z" fill="#0F3384"/>
</svg>
