<svg width="111" height="35" viewBox="0 0 111 35" fill="none" xmlns="http://www.w3.org/2000/svg">
<path d="M58.5009 8.77983C58.5009 10.0391 57.4953 11.0535 56.247 11.0535C54.9986 11.0535 53.9931 10.0391 53.9931 8.77983C53.9931 7.52058 54.964 6.50617 56.247 6.50617C57.53 6.54115 58.5009 7.55555 58.5009 8.77983ZM49.2078 13.3621C49.2078 13.572 49.2078 13.9218 49.2078 13.9218C49.2078 13.9218 48.1328 12.5226 45.8442 12.5226C42.0646 12.5226 39.1171 15.4259 39.1171 19.4486C39.1171 23.4362 42.0299 26.3745 45.8442 26.3745C48.1675 26.3745 49.2078 24.9403 49.2078 24.9403V25.535C49.2078 25.8148 49.4158 26.0247 49.6933 26.0247H52.502V12.8724C52.502 12.8724 49.936 12.8724 49.6933 12.8724C49.4158 12.8724 49.2078 13.1173 49.2078 13.3621ZM49.2078 21.7922C48.6877 22.5617 47.6474 23.2263 46.3991 23.2263C44.1798 23.2263 42.4807 21.8272 42.4807 19.4486C42.4807 17.07 44.1798 15.6708 46.3991 15.6708C47.6127 15.6708 48.7223 16.3704 49.2078 17.1049V21.7922ZM54.5825 12.8724H57.9114V26.0247H54.5825V12.8724ZM104.308 12.5226C102.019 12.5226 100.944 13.9218 100.944 13.9218V6.54115H97.6152V26.0247C97.6152 26.0247 100.181 26.0247 100.424 26.0247C100.701 26.0247 100.909 25.7798 100.909 25.535V24.9403C100.909 24.9403 101.984 26.3745 104.273 26.3745C108.053 26.3745 111 23.4362 111 19.4486C111 15.4609 108.053 12.5226 104.308 12.5226ZM103.753 23.1914C102.47 23.1914 101.464 22.5267 100.944 21.7572V17.07C101.464 16.3704 102.574 15.6358 103.753 15.6358C105.972 15.6358 107.671 17.035 107.671 19.4136C107.671 21.7922 105.972 23.1914 103.753 23.1914ZM95.8814 18.2243V26.0597H92.5525V18.6091C92.5525 16.4403 91.859 15.5658 89.9865 15.5658C88.9809 15.5658 87.9406 16.0905 87.2818 16.8601V26.0247H83.9529V12.8724H86.5883C86.8657 12.8724 87.0737 13.1173 87.0737 13.3621V13.9218C88.0446 12.9074 89.3276 12.5226 90.6107 12.5226C92.067 12.5226 93.2807 12.9424 94.2516 13.7819C95.4306 14.7613 95.8814 16.0206 95.8814 18.2243ZM75.8735 12.5226C73.5849 12.5226 72.5099 13.9218 72.5099 13.9218V6.54115H69.181V26.0247C69.181 26.0247 71.747 26.0247 71.9898 26.0247C72.2672 26.0247 72.4752 25.7798 72.4752 25.535V24.9403C72.4752 24.9403 73.5502 26.3745 75.8388 26.3745C79.6184 26.3745 82.5659 23.4362 82.5659 19.4486C82.6006 15.4609 79.6531 12.5226 75.8735 12.5226ZM75.3186 23.1914C74.0356 23.1914 73.03 22.5267 72.5099 21.7572V17.07C73.03 16.3704 74.1397 15.6358 75.3186 15.6358C77.5379 15.6358 79.237 17.035 79.237 19.4136C79.237 21.7922 77.5379 23.1914 75.3186 23.1914ZM66.3029 12.5226C67.3085 12.5226 67.8287 12.6975 67.8287 12.6975V15.8107C67.8287 15.8107 65.0546 14.8663 63.3208 16.8601V26.0597H59.992V12.8724C59.992 12.8724 62.558 12.8724 62.8007 12.8724C63.0781 12.8724 63.2862 13.1173 63.2862 13.3621V13.9218C63.9103 13.1872 65.2627 12.5226 66.3029 12.5226ZM31.7312 24.8354C31.5578 24.4156 31.3845 23.9609 31.2111 23.5761C30.9337 22.9465 30.6563 22.3518 30.4135 21.7922L30.3789 21.7572C27.9862 16.5103 25.4202 11.1934 22.7155 5.9465L22.6115 5.73662C22.3341 5.21193 22.0567 4.65226 21.7793 4.09259C21.4325 3.46296 21.0858 2.79835 20.5309 2.16872C19.4213 0.769547 17.8262 0 16.1271 0C14.3933 0 12.8329 0.769547 11.6886 2.09877C11.1685 2.72839 10.7871 3.393 10.4403 4.02263C10.1629 4.5823 9.88548 5.14197 9.60808 5.66667L9.50405 5.87654C6.83401 11.1235 4.23333 16.4403 1.8407 21.6872L1.80603 21.7572C1.5633 22.3169 1.28589 22.9115 1.00849 23.5412C0.835108 23.9259 0.661729 24.3457 0.48835 24.8004C0.0375654 26.0946 -0.101138 27.3189 0.0722412 28.5782C0.453675 31.2016 2.18746 33.4053 4.58009 34.3848C5.48166 34.7695 6.41791 34.9444 7.38883 34.9444C7.66623 34.9444 8.01299 34.9095 8.2904 34.8745C9.4347 34.7346 10.6137 34.3498 11.758 33.6852C13.1797 32.8807 14.532 31.7263 16.0578 30.0473C17.5835 31.7263 18.9705 32.8807 20.3576 33.6852C21.5019 34.3498 22.6808 34.7346 23.8251 34.8745C24.1025 34.9095 24.4493 34.9444 24.7267 34.9444C25.6976 34.9444 26.6686 34.7695 27.5354 34.3848C29.9627 33.4053 31.6619 31.1667 32.0433 28.5782C32.3207 27.3539 32.182 26.1296 31.7312 24.8354ZM16.0924 26.6543C14.22 24.2757 13.0063 22.037 12.5902 20.1481C12.4168 19.3436 12.3821 18.644 12.4862 18.0144C12.5555 17.4547 12.7636 16.965 13.041 16.5453C13.6998 15.6008 14.8094 15.0062 16.0924 15.0062C17.3754 15.0062 18.5197 15.5658 19.1439 16.5453C19.4213 16.965 19.6294 17.4547 19.6987 18.0144C19.8028 18.644 19.7681 19.3786 19.5947 20.1481C19.1786 22.0021 17.9649 24.2407 16.0924 26.6543ZM29.9281 28.2984C29.6853 30.1173 28.4717 31.6914 26.7726 32.3909C25.9404 32.7407 25.0388 32.8457 24.1372 32.7407C23.2703 32.6358 22.4034 32.356 21.5019 31.8313C20.2535 31.1317 19.0052 30.0473 17.5488 28.4383C19.8374 25.6049 21.2245 23.0165 21.7446 20.7078C21.9873 19.6235 22.022 18.644 21.918 17.7346C21.7793 16.8601 21.4672 16.0556 20.9817 15.356C19.9068 13.7819 18.1036 12.8724 16.0924 12.8724C14.0812 12.8724 12.2781 13.8169 11.2032 15.356C10.7177 16.0556 10.4056 16.8601 10.2669 17.7346C10.1282 18.644 10.1629 19.6584 10.4403 20.7078C10.9604 23.0165 12.3821 25.6399 14.6361 28.4732C13.2144 30.0823 11.9314 31.1667 10.683 31.8663C9.78145 32.3909 8.91456 32.6708 8.04767 32.7757C7.11142 32.8807 6.20985 32.7407 5.41231 32.4259C3.7132 31.7263 2.49954 30.1523 2.25681 28.3333C2.15279 27.4588 2.22214 26.5844 2.5689 25.6049C2.67292 25.2551 2.8463 24.9053 3.01968 24.4856C3.26241 23.9259 3.53982 23.3313 3.81722 22.7366L3.8519 22.6667C6.24453 17.4547 8.81053 12.1379 11.4806 6.9609L11.5846 6.75103C11.862 6.22634 12.1394 5.66667 12.4168 5.14197C12.6942 4.5823 13.0063 4.05761 13.3877 3.60288C14.1159 2.76337 15.0868 2.30864 16.1618 2.30864C17.2367 2.30864 18.2077 2.76337 18.9359 3.60288C19.3173 4.05761 19.6294 4.5823 19.9068 5.14197C20.1842 5.66667 20.4616 6.22634 20.739 6.75103L20.843 6.9609C23.4784 12.1728 26.0444 17.4897 28.437 22.7016V22.7366C28.7144 23.2963 28.9572 23.9259 29.2346 24.4856C29.4079 24.9053 29.5813 25.2551 29.6853 25.6049C29.9627 26.5144 30.0668 27.3889 29.9281 28.2984Z" fill="#2C3543"/>
</svg>
