<svg width="65" height="65" viewBox="0 0 65 65" fill="none" xmlns="http://www.w3.org/2000/svg">
<rect width="65" height="65" fill="white"/>
<path d="M52.6847 39.3993C51.5906 39.3991 50.5127 39.1363 49.5413 38.6329C48.57 38.1296 47.7336 37.4004 47.1026 36.5067C46.4716 35.613 46.0644 34.5809 45.9151 33.4971C45.7658 32.4133 45.8789 31.3095 46.2449 30.2785C46.6637 29.0973 47.3991 28.054 48.3707 27.2625C49.3424 26.471 50.5129 25.9618 51.7544 25.7907C52.9958 25.6195 54.2605 25.7928 55.4101 26.2918C56.5597 26.7907 57.55 27.5961 58.2728 28.6199C58.9957 29.6436 59.4232 30.8464 59.5087 32.0967C59.5941 33.347 59.3343 34.5967 58.7575 35.7093C58.1807 36.8219 57.3092 37.7545 56.2382 38.4053C55.1672 39.0561 53.9379 39.3999 52.6847 39.3993V39.3993ZM47.4481 30.6988C47.081 31.7363 47.0298 32.8594 47.3009 33.9261C47.5721 34.9928 48.1534 35.9551 48.9714 36.6914C49.7894 37.4277 50.8074 37.905 51.8966 38.0628C52.9858 38.2207 54.0973 38.052 55.0907 37.5782C56.0841 37.1044 56.9147 36.3466 57.4774 35.4008C58.0402 34.455 58.3099 33.3636 58.2525 32.2645C58.195 31.1654 57.813 30.108 57.1546 29.226C56.4963 28.344 55.5913 27.6771 54.5539 27.3094C53.1621 26.818 51.6322 26.8989 50.3 27.5344C48.9678 28.1698 47.9421 29.3079 47.4481 30.6988Z" fill="#0F3384"/>
<path d="M33.7202 58.73H27.5397C27.3711 58.73 27.2095 58.663 27.0903 58.5438C26.9711 58.4246 26.9042 58.263 26.9042 58.0945C26.9042 57.9259 26.9711 57.7643 27.0903 57.6451C27.2095 57.5259 27.3711 57.4589 27.5397 57.4589H33.7202C34.2631 57.458 34.7836 57.2418 35.1674 56.8577C35.5511 56.4737 35.7669 55.953 35.7674 55.4101V9.71467C35.7669 9.17186 35.5511 8.65142 35.1673 8.2676C34.7834 7.88377 34.263 7.66794 33.7202 7.6675H27.538C27.3694 7.6675 27.2078 7.60054 27.0886 7.48136C26.9694 7.36218 26.9025 7.20054 26.9025 7.03199C26.9025 6.86344 26.9694 6.7018 27.0886 6.58262C27.2078 6.46344 27.3694 6.39648 27.538 6.39648H33.7202C34.5999 6.39738 35.4434 6.74726 36.0655 7.36935C36.6876 7.99144 37.0375 8.83491 37.0384 9.71467V55.4101C37.0375 56.29 36.6876 57.1336 36.0656 57.756C35.4436 58.3783 34.6001 58.7286 33.7202 58.73V58.73Z" fill="#0F3384"/>
<path d="M14.4999 7.29585e-05C14.0917 0.00627177 13.7654 0.339636 13.771 0.744632V1.71922C13.6967 1.73162 13.6224 1.73506 13.5481 1.75091C11.9147 2.09735 10.6428 3.32611 10.6428 4.85931C10.6428 6.38974 11.9118 7.61717 13.5412 7.96559C14.5076 8.21424 15.1018 8.11023 15.7904 8.34992C16.7311 8.79073 17.0726 9.51737 16.8359 10.2151C16.5971 10.9204 15.6675 11.5492 14.5145 11.5492C13.5899 11.5492 12.786 11.1387 12.4041 10.618L12.4048 10.6187C12.2889 10.461 12.1154 10.3549 11.921 10.3246C11.7273 10.2936 11.5287 10.3411 11.3698 10.4554C11.2108 10.5698 11.1039 10.7427 11.0733 10.9355C11.0428 11.1277 11.09 11.3247 11.2059 11.4824C11.7884 12.2779 12.72 12.7883 13.7718 12.9543V13.9571L13.7711 13.9578C13.7683 14.1541 13.8454 14.3435 13.9842 14.484C14.1238 14.6239 14.3133 14.7024 14.5118 14.7024C14.7104 14.7024 14.8999 14.6239 15.0394 14.484C15.1783 14.3435 15.2553 14.1541 15.2526 13.9578V12.9564C16.6326 12.7394 17.8197 11.926 18.2403 10.6848C18.7346 9.226 17.8801 7.67901 16.3889 6.99858V6.99789C16.3708 6.98963 16.3528 6.98205 16.334 6.97516C15.283 6.59358 14.5798 6.7217 13.894 6.54056C13.8822 6.53712 13.8704 6.53436 13.8579 6.53161C12.7541 6.29812 12.1238 5.56596 12.1238 4.8586C12.1238 4.15125 12.7541 3.42116 13.8579 3.18697C14.9617 2.95348 16.1293 3.37569 16.6242 4.05344L16.6249 4.05413C16.8651 4.38267 17.3282 4.45636 17.6593 4.21805C17.9911 3.97974 18.0654 3.52034 17.8252 3.19111C17.2254 2.36941 16.2848 1.86731 15.2524 1.70751V0.744631C15.2552 0.546267 15.1767 0.354798 15.0351 0.214974C14.8935 0.0744653 14.7005 -0.00267953 14.4999 7.11088e-05L14.4999 7.29585e-05Z" fill="#0F3384"/>
<path d="M21.4762 38.6602H7.54761C7.11478 38.6602 6.7738 38.9585 6.7738 39.3372C6.7738 39.716 7.11478 40.0143 7.54761 40.0143H21.4762C21.909 40.0143 22.25 39.716 22.25 39.3372C22.25 38.9585 21.909 38.6602 21.4762 38.6602Z" fill="#0F3384"/>
<path d="M17.3291 32.6242L15.3628 34.0171V27.0844C15.3628 26.6515 15.131 26.3105 14.6982 26.3105C14.2653 26.3105 14.0009 26.6515 14.0009 27.0844V33.987L12.0672 32.6256C11.9439 32.5325 11.7577 32.4709 11.6029 32.4709C11.3551 32.4709 11.1386 32.5942 10.9839 32.7804C10.736 33.1214 10.7977 33.6159 11.1386 33.8637L14.2654 36.1537C14.5435 36.3701 14.9159 36.3701 15.194 36.1537L18.2892 33.8637C18.6302 33.6159 18.6919 33.1214 18.444 32.7804C18.1333 32.4394 17.6689 32.3763 17.3291 32.6242Z" fill="#0F3384"/>
<path d="M21.2975 54.673C21.1838 54.5262 21.0048 54.4445 20.8098 54.4445H12.1285C11.7709 54.4445 11.4947 54.7388 11.4947 55.0816C11.4947 55.425 11.7875 55.7187 12.1285 55.7187H20.0295L19.3145 59.69C19.1684 60.4905 18.4692 61.0791 17.6564 61.0791H11.4789L9.77134 52.3685C9.70657 52.0742 9.44621 51.8457 9.13759 51.8457H6.63375C6.27623 51.8457 6 52.14 6 52.4828C6 52.8262 6.29275 53.1199 6.63375 53.1199H8.61689L10.2915 61.6503C9.93397 62.0097 9.70599 62.5 9.70599 63.0394C9.70599 64.1183 10.5836 65.0005 11.6568 65.0005C12.73 65.0005 13.6076 64.1183 13.6076 63.0394C13.6076 62.7943 13.5587 62.5817 13.4939 62.3691H15.9813C15.9 62.5817 15.8677 62.8102 15.8677 63.0394C15.8677 64.1183 16.7453 65.0005 17.8185 65.0005C18.8916 65.0005 19.7692 64.1183 19.7692 63.0394C19.7692 62.5817 19.6232 62.1731 19.3628 61.8463C19.9966 61.4052 20.4684 60.7349 20.6145 59.9178L21.4762 55.1785C21.4603 55.0164 21.4114 54.8198 21.2977 54.6729L21.2975 54.673ZM12.3234 63.0567C12.3234 63.4327 12.0148 63.727 11.6566 63.727C11.2991 63.727 10.9898 63.4168 10.9898 63.0567C10.9898 62.6973 11.2984 62.3864 11.6566 62.3864C12.0148 62.3864 12.3234 62.6807 12.3234 63.0567ZM17.8023 63.7264C17.4283 63.7264 17.1356 63.4161 17.1356 63.0561C17.1356 62.6967 17.4442 62.3858 17.8023 62.3858C18.1598 62.3858 18.4691 62.696 18.4691 63.0561C18.4685 63.4161 18.1599 63.7264 17.8023 63.7264Z" fill="#0F3384"/>
<path d="M45.7201 33.1968H26.0042C25.8356 33.1968 25.674 33.1298 25.5548 33.0107C25.4356 32.8915 25.3687 32.7298 25.3687 32.5613C25.3687 32.3927 25.4356 32.2311 25.5548 32.1119C25.674 31.9927 25.8356 31.9258 26.0042 31.9258H45.7201C45.8886 31.9258 46.0503 31.9927 46.1695 32.1119C46.2886 32.2311 46.3556 32.3927 46.3556 32.5613C46.3556 32.7298 46.2886 32.8915 46.1695 33.0107C46.0503 33.1298 45.8886 33.1968 45.7201 33.1968Z" fill="#0F3384"/>
</svg>
