<svg width="103" height="33" viewBox="0 0 103 33" fill="none" xmlns="http://www.w3.org/2000/svg">
<g clip-path="url(#clip0_1106_1644)">
<path d="M15.5497 32.84C13.4308 31.2721 11.4442 29.5329 9.6097 27.64C6.33485 24.4098 3.68981 20.5982 1.8097 16.4C0.595682 13.6794 -0.0182325 10.7292 0.00970127 7.75004C0.00970127 6.50004 0.00970127 5.25004 0.00970127 3.99004C0.00970127 3.29004 0.00970066 3.29004 0.649701 3.57004C1.8686 4.2591 3.17798 4.77409 4.5397 5.10004C6.4032 5.48749 8.339 5.3273 10.1135 4.63881C11.8879 3.95032 13.4252 2.76296 14.5397 1.22004C14.8097 0.890039 15.0697 0.550039 15.3197 0.220039C15.5697 -0.109961 15.6997 -0.089961 15.9297 0.220039C16.3297 0.770039 16.7397 1.32004 17.1797 1.84004C18.6034 3.51358 20.5425 4.66708 22.6926 5.11955C24.8427 5.57202 27.0822 5.29784 29.0597 4.34004L30.7497 3.51004C31.0197 3.38004 31.1997 3.40004 31.2097 3.76004C31.3197 8.03004 31.2697 12.27 29.4697 16.3C28.0105 19.5621 26.0836 22.5939 23.7497 25.3C21.428 28.0572 18.786 30.528 15.8797 32.66L15.6797 32.85L15.5497 32.84ZM1.6997 7.84003C1.67545 10.8567 2.36054 13.8368 3.6997 16.54C4.95077 19.1995 6.57369 21.6675 8.5197 23.87C8.2497 22.02 7.8897 20.21 7.5197 18.39C7.1197 15.9634 6.6897 13.55 6.2297 11.15C6.20372 10.9864 6.13157 10.8337 6.02174 10.7097C5.91191 10.5857 5.76896 10.4956 5.6097 10.45C4.90254 10.1582 4.23143 9.78576 3.6097 9.34003C2.9197 8.90003 2.3697 8.42003 1.6997 7.84003ZM22.6297 23.84C22.7949 23.7405 22.9406 23.6117 23.0597 23.46C24.0983 22.1653 25.0536 20.8059 25.9197 19.39C27.0919 17.4827 28.0224 15.437 28.6897 13.3C29.1385 11.6887 29.4298 10.0376 29.5597 8.37004C29.5597 8.23004 29.5597 8.07004 29.4397 7.99004C29.3197 7.91004 29.1897 8.09004 29.0997 8.18004C28.1752 9.07148 27.0981 9.78956 25.9197 10.3C25.6279 10.405 25.3727 10.5921 25.1846 10.8387C24.9966 11.0852 24.8838 11.3809 24.8597 11.69C24.8597 11.95 24.7797 12.22 24.7297 12.48C24.5497 13.48 24.3597 14.48 24.1997 15.48C24.1197 15.98 23.9297 16.48 23.8597 16.94C23.6697 18.27 23.3297 19.57 23.1997 20.94C22.9513 21.9112 22.7609 22.8963 22.6297 23.89V23.84ZM21.2197 22.75C21.2668 22.6879 21.307 22.6208 21.3397 22.55C21.6797 20.73 22.0097 18.91 22.3397 17.1C22.6697 15.29 23.0097 13.53 23.3397 11.75C23.3997 11.44 23.3397 11.31 23.0097 11.37C22.1134 11.4715 21.2117 11.5183 20.3097 11.51C19.8374 11.544 19.3637 11.4657 18.9274 11.2814C18.4912 11.0972 18.1047 10.8123 17.7997 10.45C17.5297 10.16 17.4397 10.25 17.3197 10.52C17.0897 11.04 16.8697 11.52 16.6197 12.08C16.5611 12.1874 16.5303 12.3077 16.5303 12.43C16.5303 12.5524 16.5611 12.6727 16.6197 12.78C17.2864 14.1734 17.9264 15.5634 18.5397 16.95L21.2197 22.75ZM9.9197 22.81C11.4697 19.42 12.9197 16.14 14.4597 12.87C14.5407 12.7339 14.5835 12.5784 14.5835 12.42C14.5835 12.2616 14.5407 12.1062 14.4597 11.97C14.1999 11.5232 13.9791 11.0548 13.7997 10.57C13.6597 10.2 13.5597 10.23 13.2997 10.48C13.0403 10.7781 12.7231 11.0204 12.3673 11.1923C12.0114 11.3642 11.6244 11.4621 11.2297 11.48C10.2755 11.5249 9.31922 11.4948 8.3697 11.39C7.8197 11.3 7.7297 11.39 7.8197 11.96C7.92637 12.66 8.04637 13.36 8.1797 14.06C8.4397 15.42 8.6897 16.78 8.9797 18.14C9.2697 19.5 9.5097 21.2 9.9197 22.81ZM12.4397 23.68L12.2297 23.74C11.2297 24.04 10.8197 24.93 10.3497 25.74C10.2497 25.92 10.4097 26.04 10.5197 26.15C11.9623 27.6923 13.5165 29.1262 15.1697 30.44C15.2176 30.4969 15.2773 30.5425 15.3446 30.5738C15.412 30.6052 15.4854 30.6214 15.5597 30.6214C15.634 30.6214 15.7074 30.6052 15.7748 30.5738C15.8421 30.5425 15.9018 30.4969 15.9497 30.44C17.3906 29.317 18.7538 28.0975 20.0297 26.79C21.1097 25.7 21.0297 26.08 20.1897 24.79C19.4897 23.7 19.0397 23.52 17.8097 23.93C16.5258 24.4038 15.1236 24.4529 13.8097 24.07C13.3697 23.92 12.9197 23.81 12.4597 23.68H12.4397ZM12.0597 22.05C12.9377 22.1002 13.8035 22.2788 14.6297 22.58C15.1294 22.778 15.6789 22.813 16.1997 22.68C17.0824 22.3816 17.9941 22.1771 18.9197 22.07C19.2697 22.07 19.0697 21.84 18.9997 21.69C18.2197 20 17.4297 18.31 16.6497 16.61C16.3297 15.92 16.0197 15.22 15.6497 14.41L12.0597 22.05ZM29.1697 6.05004C29.0297 6.05004 28.9697 6.05004 28.9297 6.05004C26.2759 7.15197 23.2993 7.18779 20.6197 6.15004C20.4963 6.09778 20.3637 6.07085 20.2297 6.07085C20.0957 6.07085 19.9631 6.09778 19.8397 6.15004C19.4245 6.34774 19.0759 6.66194 18.8362 7.05434C18.5964 7.44675 18.4761 7.90041 18.4897 8.36004C18.4857 8.72031 18.6058 9.07098 18.8298 9.3532C19.0537 9.63543 19.368 9.83204 19.7197 9.91004C20.9033 10.125 22.1202 10.0704 23.2797 9.75004C24.7978 9.40082 26.2189 8.71759 27.4397 7.75004C28.1337 7.31393 28.7297 6.73845 29.1897 6.06004L29.1697 6.05004ZM2.0397 6.05004C2.0397 6.33004 2.1997 6.42004 2.3197 6.54004C3.17056 7.37105 4.12912 8.08408 5.1697 8.66004C6.90935 9.59853 8.86361 10.0673 10.8397 10.02C11.2355 10.0487 11.6287 9.93709 11.9505 9.7049C12.2723 9.4727 12.5021 9.13467 12.5997 8.75004C12.6665 8.45616 12.6744 8.15195 12.6229 7.855C12.5714 7.55806 12.4616 7.27426 12.2997 7.02004C12.2352 6.83927 12.1339 6.67383 12.0023 6.53413C11.8706 6.39444 11.7115 6.28352 11.5349 6.20836C11.3583 6.13321 11.168 6.09544 10.9761 6.09745C10.7841 6.09946 10.5947 6.1412 10.4197 6.22004C8.17229 7.04545 5.72027 7.13302 3.4197 6.47004C2.9197 6.34004 2.5097 6.20004 2.0597 6.06004L2.0397 6.05004ZM15.6097 10.38C15.9697 9.58004 16.2697 8.84004 16.6097 8.13004C16.9746 7.12656 17.4979 6.18801 18.1597 5.35004C18.4097 5.11004 18.1597 5.05004 18.0297 4.97004C17.2063 4.39088 16.4514 3.71989 15.7797 2.97004C15.6197 2.79004 15.5097 2.71004 15.3197 2.97004C14.6678 3.77697 13.8954 4.47854 13.0297 5.05004C12.7597 5.22004 12.8497 5.30004 13.0297 5.48004C13.3849 5.85921 13.6845 6.28679 13.9197 6.75004C14.4297 7.91004 14.9197 9.13004 15.6297 10.39L15.6097 10.38Z" fill="black"/>
<path d="M77.9203 16.2C78.2646 16.3552 78.5986 16.5322 78.9203 16.73C79.4915 17.11 79.9365 17.6516 80.1983 18.2858C80.4602 18.9199 80.527 19.6177 80.3903 20.29C80.3493 20.9569 80.1199 21.5985 79.7287 22.1402C79.3374 22.6819 78.8005 23.1014 78.1803 23.35C77.2637 23.7276 76.2817 23.9213 75.2903 23.92C73.6603 23.92 72.0203 23.92 70.3903 23.92C69.9703 23.92 69.8203 23.77 69.8203 23.35C69.8203 18.8633 69.8203 14.37 69.8203 9.86999C69.8203 9.48999 69.9703 9.30999 70.3503 9.27999C72.274 9.05999 74.2166 9.05999 76.1403 9.27999C76.4776 9.33428 76.8114 9.40774 77.1403 9.49999C77.7997 9.61695 78.4043 9.94233 78.865 10.4283C79.3258 10.9143 79.6186 11.5353 79.7003 12.2C79.843 12.8895 79.7787 13.6058 79.5153 14.2588C79.252 14.9118 78.8014 15.4724 78.2203 15.87C78.0903 15.97 77.9203 16.01 77.9203 16.2ZM74.2403 21.66C74.6686 21.6602 75.0963 21.6302 75.5203 21.57C75.7703 21.5646 76.0164 21.5072 76.2429 21.4014C76.4695 21.2957 76.6715 21.1439 76.8361 20.9557C77.0008 20.7676 77.1244 20.5472 77.1992 20.3086C77.2739 20.07 77.2981 19.8185 77.2703 19.57C77.2994 19.3187 77.2764 19.0642 77.2027 18.8222C77.129 18.5802 77.0062 18.3561 76.842 18.1637C76.6777 17.9713 76.4756 17.8149 76.2482 17.7041C76.0208 17.5934 75.773 17.5307 75.5203 17.52C74.8574 17.4334 74.1886 17.4 73.5203 17.42C73.1503 17.42 73.0003 17.55 73.0103 17.92C73.0103 18.76 73.0103 19.6 73.0103 20.44C72.9203 21.81 72.7503 21.64 74.2003 21.66H74.2403ZM72.9203 13.34V13.93C72.9203 15.53 72.6303 15.29 74.3703 15.29C74.6494 15.2964 74.9269 15.2466 75.1863 15.1435C75.4457 15.0405 75.6818 14.8862 75.8803 14.69C76.1632 14.3997 76.3613 14.0374 76.4529 13.6426C76.5446 13.2477 76.5264 12.8352 76.4003 12.45C76.2603 11.75 75.6203 11.57 75.0103 11.45C74.4803 11.3768 73.9447 11.3534 73.4103 11.38C73.0303 11.38 72.9103 11.55 72.9203 11.91C72.9303 12.27 72.9203 12.85 72.9203 13.34Z" fill="black"/>
<path d="M45.2303 16.2001C46.077 16.4428 46.817 16.9643 47.3303 17.6801C47.6225 18.167 47.8076 18.7105 47.8735 19.2745C47.9393 19.8385 47.8843 20.4101 47.7122 20.9512C47.54 21.4923 47.2546 21.9905 46.8749 22.4127C46.4953 22.835 46.0301 23.1716 45.5103 23.4001C44.584 23.7395 43.6067 23.9188 42.6203 23.9301C41.0403 23.9301 39.4603 23.9301 37.8803 23.9301C37.4503 23.9301 37.2803 23.7901 37.2803 23.3401C37.2803 18.8701 37.2803 14.4001 37.2803 9.9301C37.2803 9.5801 37.3503 9.3301 37.7603 9.3001C39.6478 9.09007 41.5528 9.09007 43.4403 9.3001C43.777 9.35257 44.1108 9.42267 44.4403 9.5101C45.163 9.62957 45.8235 9.99192 46.3125 10.5373C46.8016 11.0828 47.09 11.7786 47.1303 12.5101C47.2417 13.2143 47.1335 13.9358 46.8204 14.5763C46.5073 15.2169 46.0044 15.7454 45.3803 16.0901C45.3284 16.1241 45.2783 16.1608 45.2303 16.2001V16.2001ZM40.4203 19.5101C40.4203 20.0601 40.4203 20.6201 40.4203 21.1701C40.4203 21.4601 40.5003 21.6601 40.8403 21.6501C41.5751 21.6867 42.3118 21.6532 43.0403 21.5501C43.2839 21.5355 43.5219 21.4712 43.7397 21.3612C43.9576 21.2513 44.1506 21.0979 44.307 20.9106C44.4634 20.7233 44.5799 20.506 44.6492 20.272C44.7186 20.0381 44.7393 19.7924 44.7103 19.5501C44.7496 19.0676 44.5993 18.5887 44.2912 18.2152C43.9831 17.8418 43.5415 17.6032 43.0603 17.5501C42.3162 17.4352 41.5624 17.395 40.8103 17.4301C40.5003 17.4301 40.4203 17.6101 40.4203 17.8801V19.5101ZM40.4203 13.3401V13.9901C40.4203 15.5101 40.1903 15.2801 41.7703 15.3001C42.1209 15.317 42.4703 15.2474 42.7877 15.0974C43.1051 14.9475 43.3807 14.7217 43.5903 14.4401C43.7679 14.2242 43.8951 13.9714 43.9627 13.7002C44.0302 13.4289 44.0365 13.146 43.9809 12.8721C43.9254 12.5981 43.8094 12.34 43.6415 12.1165C43.4736 11.893 43.2579 11.7097 43.0103 11.5801C42.2771 11.3493 41.5025 11.2811 40.7403 11.3801C40.4403 11.3801 40.4203 11.6201 40.4203 11.8401V13.3401Z" fill="black"/>
<path d="M91.9995 19.2999C91.9995 20.6399 91.9995 21.9899 91.9995 23.2999C91.9995 23.7599 91.8395 23.9499 91.3695 23.9199C90.8995 23.8899 90.4795 23.9199 90.0295 23.9199C89.8323 23.9554 89.6289 23.9125 89.4628 23.8005C89.2966 23.6885 89.1806 23.516 89.1395 23.3199C89.0695 23.0199 88.9595 23.0399 88.7395 23.2099C88.1708 23.6519 87.5052 23.9522 86.7975 24.0861C86.0898 24.22 85.3604 24.1836 84.6695 23.9799C84.1609 23.8629 83.6989 23.5967 83.3425 23.2155C82.9862 22.8342 82.7519 22.3552 82.6695 21.8399C82.5742 21.4401 82.5239 21.0309 82.5195 20.6199C82.5195 18.4399 82.5195 16.2599 82.5195 14.0699C82.5195 13.6399 82.6595 13.4299 83.1095 13.4599C83.4095 13.4599 83.7195 13.4599 84.0195 13.4599C84.2366 13.4564 84.4519 13.4983 84.6519 13.5829C84.8518 13.6675 85.0318 13.7928 85.1806 13.9509C85.3293 14.1091 85.4433 14.2965 85.5155 14.5012C85.5876 14.7059 85.6163 14.9235 85.5995 15.1399C85.5995 16.4799 85.5995 17.8199 85.5995 19.1399C85.5995 19.3599 85.5995 19.5699 85.5995 19.7899C85.6795 20.3699 85.5495 21.0999 86.2495 21.3699C86.6101 21.5114 86.9989 21.5661 87.3846 21.5297C87.7702 21.4932 88.1419 21.3665 88.4695 21.1599C88.6301 21.0525 88.7562 20.901 88.8325 20.7235C88.9088 20.546 88.9321 20.3503 88.8995 20.1599C88.8995 18.1599 88.8995 16.1599 88.8995 14.1599C88.8995 13.4099 88.8995 13.3699 89.6895 13.3599H90.1695C90.4175 13.3422 90.6663 13.3778 90.8993 13.4644C91.1324 13.551 91.3441 13.6865 91.5203 13.8618C91.6966 14.0371 91.8332 14.2481 91.9211 14.4806C92.0089 14.7132 92.0459 14.9618 92.0295 15.2099C92.0095 16.6499 91.9995 17.9799 91.9995 19.2999Z" fill="black"/>
<path d="M55.79 19.3399C54.89 19.3399 54 19.3399 53.1 19.3399C52.73 19.3399 52.64 19.4599 52.71 19.8199C53.11 21.8899 54.82 22.3399 56.65 21.8199C57.062 21.6813 57.4378 21.4524 57.75 21.1499C58.01 20.9099 58.22 20.9599 58.39 21.2599L58.45 21.3499C59.33 22.6499 59.08 23.4299 57.61 23.9799C56.0317 24.5794 54.2884 24.5794 52.71 23.9799C51.8046 23.6569 51.019 23.0657 50.4581 22.285C49.8971 21.5043 49.5873 20.5711 49.57 19.6099C49.3569 18.2382 49.5955 16.8342 50.25 15.6099C51.78 12.9199 56 12.3699 58.04 14.6099C58.518 15.216 58.8555 15.9205 59.0284 16.6727C59.2013 17.4249 59.2053 18.206 59.04 18.9599C59.04 19.2999 58.75 19.2799 58.52 19.2799L55.79 19.3399ZM54.44 17.5699H55.92C56.09 17.5699 56.28 17.5699 56.34 17.3399C56.3541 16.9571 56.2579 16.5783 56.0629 16.2486C55.8679 15.9189 55.5823 15.6521 55.24 15.4799C54.9605 15.3777 54.6608 15.3427 54.3651 15.3775C54.0695 15.4124 53.7862 15.5162 53.5381 15.6807C53.2899 15.8451 53.0839 16.0656 52.9366 16.3243C52.7893 16.583 52.7048 16.8726 52.69 17.1699C52.69 17.4499 52.74 17.5699 53.02 17.5699H54.44Z" fill="black"/>
<path d="M64.3604 18.47C64.3604 19.07 64.3604 19.68 64.3604 20.29C64.3604 21.74 65.3604 22.29 66.5904 21.53C67.3604 21.1 67.3604 21.1 67.7604 21.92C67.8538 22.0531 67.9173 22.2047 67.9468 22.3645C67.9762 22.5244 67.9708 22.6887 67.9309 22.8463C67.8911 23.0039 67.8177 23.151 67.7158 23.2776C67.6138 23.4042 67.4858 23.5074 67.3404 23.58C65.8904 24.58 63.3404 24.51 62.2104 23.41C61.9059 23.1036 61.6679 22.7376 61.5114 22.3349C61.3548 21.9323 61.283 21.5017 61.3004 21.07C61.3004 17.65 61.3004 14.24 61.3004 10.82C61.3004 10.43 61.4704 10.26 61.8504 10.26C62.2304 10.26 62.4904 10.26 62.8504 10.26C63.0622 10.2625 63.2714 10.3075 63.4655 10.3925C63.6595 10.4774 63.8345 10.6005 63.9801 10.7544C64.1256 10.9084 64.2387 11.09 64.3126 11.2885C64.3866 11.487 64.4198 11.6984 64.4104 11.91C64.4104 12.28 64.4104 12.66 64.4104 13.03C64.4104 13.4 64.5404 13.48 64.8604 13.48C65.5704 13.48 66.2904 13.48 67.0104 13.48C67.4204 13.48 67.6004 13.64 67.5904 14.05C67.5804 14.46 67.5904 14.98 67.5904 15.44C67.5904 15.9 67.4204 15.94 67.0504 15.93C66.3504 15.93 65.6504 15.93 64.9604 15.93C64.5704 15.93 64.4004 16.05 64.4204 16.46C64.3804 17.11 64.3604 17.75 64.3604 18.47Z" fill="black"/>
<path d="M102.92 16.8299V23.3699C102.92 24.0199 102.84 24.0999 102.18 24.1399C101.97 24.1399 101.75 24.1399 101.54 24.1399C101.295 24.1529 101.051 24.1126 100.823 24.0218C100.596 23.931 100.391 23.7919 100.222 23.614C100.054 23.4362 99.9264 23.2238 99.8482 22.9918C99.77 22.7597 99.7432 22.5134 99.7696 22.2699C99.7696 21.0799 99.7696 19.8799 99.7696 18.6799V9.23989C99.7696 8.46989 99.7696 8.43989 100.59 8.41989C101.41 8.39989 102.36 8.4999 102.78 9.4999C102.891 9.80014 102.939 10.1202 102.92 10.4399V16.8299Z" fill="black"/>
<path d="M94.3297 15.7501V9.15012C94.3297 8.47012 94.3297 8.44011 95.0597 8.43011C95.3461 8.41001 95.6334 8.41001 95.9197 8.43011C96.1234 8.43774 96.3234 8.48597 96.5082 8.57197C96.6929 8.65796 96.8586 8.78 96.9955 8.9309C97.1325 9.0818 97.2379 9.25853 97.3055 9.45073C97.3732 9.64292 97.4019 9.84671 97.3897 10.0501C97.3897 14.5435 97.3897 19.0368 97.3897 23.5301C97.4034 23.5998 97.4011 23.6716 97.383 23.7402C97.3649 23.8088 97.3315 23.8725 97.2854 23.9264C97.2392 23.9802 97.1814 24.023 97.1163 24.0513C97.0513 24.0797 96.9807 24.0929 96.9098 24.0901C96.3945 24.164 95.8693 24.1265 95.3697 23.9801C95.0326 23.8696 94.7439 23.646 94.5526 23.3471C94.3613 23.0483 94.279 22.6926 94.3197 22.3401C94.3197 20.1601 94.3297 17.9601 94.3297 15.7501Z" fill="black"/>
<path d="M18.5096 26.42C18.2782 26.4004 18.0608 26.3008 17.8947 26.1384C17.7287 25.976 17.6243 25.7609 17.5996 25.53C17.6189 25.317 17.711 25.1172 17.8603 24.9642C18.0097 24.8112 18.2072 24.7144 18.4196 24.69C18.6668 24.6885 18.9058 24.7786 19.0905 24.9429C19.2752 25.1073 19.3924 25.3342 19.4196 25.58C19.4092 25.8116 19.3078 26.0298 19.1374 26.1871C18.967 26.3444 18.7414 26.4281 18.5096 26.42V26.42Z" fill="black"/>
<path d="M12.6898 24.6899C12.92 24.6997 13.1382 24.7956 13.3011 24.9586C13.4641 25.1215 13.56 25.3397 13.5698 25.5699C13.5461 25.7931 13.4434 26.0005 13.2802 26.1546C13.1169 26.3087 12.904 26.3992 12.6798 26.4099C12.5639 26.4167 12.4478 26.4001 12.3384 26.3613C12.229 26.3225 12.1284 26.2622 12.0427 26.1839C11.9569 26.1056 11.8877 26.0109 11.8392 25.9055C11.7906 25.8001 11.7636 25.686 11.7598 25.5699C11.7676 25.3303 11.8697 25.1035 12.0438 24.9387C12.218 24.7739 12.4501 24.6845 12.6898 24.6899V24.6899Z" fill="black"/>
</g>
<defs>
<clipPath id="clip0_1106_1644">
<rect width="102.88" height="32.83" fill="white"/>
</clipPath>
</defs>
</svg>
