<svg width="68" height="36" viewBox="0 0 68 36" fill="none" xmlns="http://www.w3.org/2000/svg">
<g clip-path="url(#clip0_548_2328)">
<path d="M0.0869141 33.228H1.87369V33.7099H0.772901V34.2299H1.81167V34.7202H0.772901V35.3075H1.91531V35.8041H0.0869141V33.2288V33.228ZM63.2328 33.228H65.1912V33.7426H64.5547V35.803H63.869V33.7426H63.2322V33.228H63.2328ZM57.412 33.228H58.2679L59.013 34.772C59.0385 34.824 59.0674 34.8965 59.1022 34.9899C59.137 35.0833 59.1729 35.1956 59.2142 35.3293C59.1939 35.2136 59.178 35.0971 59.1664 34.9798C59.1563 34.8828 59.1511 34.7853 59.1506 34.6878V33.2291H59.7699V35.8047H58.9172L58.1434 34.204C58.105 34.1261 58.0716 34.0459 58.0433 33.9638C58.0117 33.8711 57.984 33.7769 57.9617 33.6818C57.9859 33.8355 58.0041 33.9766 58.0161 34.1049C58.028 34.2332 58.0332 34.3473 58.0332 34.4454V35.8044H57.4139V33.2294L57.412 33.228ZM52.4289 33.228H54.216V33.7099H53.1146V34.2299H54.1553V34.7202H53.1157V35.3075H54.2581V35.8041H52.4303V33.2288L52.4289 33.228ZM46.224 33.228H47.2193L47.6664 34.7758C47.6853 34.8438 47.6995 34.9131 47.7089 34.9831C47.7203 35.0596 47.7282 35.1424 47.7336 35.2304C47.7418 35.1351 47.7527 35.0474 47.7644 34.9667C47.775 34.8974 47.7894 34.8286 47.8076 34.7608L48.2556 33.228H49.2348V35.8033H48.6217V34.0744C48.6217 33.9926 48.6242 33.9074 48.629 33.8186C48.6339 33.7298 48.6399 33.6366 48.6494 33.5361C48.6339 33.6134 48.6168 33.6875 48.5997 33.7584C48.5825 33.8292 48.5638 33.8946 48.5453 33.9589L47.9942 35.8033H47.4097L46.8708 33.9885C46.8507 33.9195 46.8326 33.8499 46.8164 33.7796C46.7993 33.7031 46.783 33.6219 46.768 33.5361C46.7764 33.6579 46.783 33.7682 46.7881 33.8651C46.7933 33.9621 46.7955 34.0357 46.7955 34.0853V35.8033H46.2243L46.224 33.228ZM40.66 33.228H41.5159L42.261 34.772C42.2863 34.824 42.3154 34.8965 42.3502 34.9899C42.385 35.0833 42.4209 35.1956 42.4625 35.3293C42.4418 35.2136 42.4258 35.0971 42.4144 34.9798C42.4043 34.8828 42.3991 34.7853 42.3989 34.6878V33.2291H43.0179V35.8047H42.1655L41.3914 34.204C41.3532 34.126 41.3198 34.0458 41.2913 33.9638C41.2614 33.8777 41.2339 33.7834 41.2097 33.6818C41.2339 33.8355 41.2516 33.9768 41.2641 34.1049C41.2766 34.2329 41.2815 34.3478 41.2815 34.4454V35.8044H40.6624V33.2294L40.66 33.228ZM36.6387 33.228H37.3244V35.8033H36.6384L36.6387 33.228ZM32.3169 33.8025L31.9839 34.7684H32.64L32.3169 33.8025ZM31.9165 33.228H32.7436L33.7171 35.8033H32.9846L32.8018 35.2585H31.8118L31.6214 35.8033H30.9414L31.9165 33.228V33.228ZM26.2931 33.228H28.2515V33.7426H27.6148V35.803H26.9299V33.7426H26.2929L26.2931 33.228ZM21.9612 33.6805V34.3405H22.2022C22.3505 34.3405 22.4617 34.3133 22.5357 34.2604C22.6097 34.2076 22.647 34.1242 22.647 34.0177C22.647 33.9025 22.6053 33.8169 22.5227 33.7625C22.44 33.708 22.3094 33.6807 22.1312 33.6807L21.9612 33.6805ZM21.2897 33.228H22.3119C22.6524 33.228 22.9048 33.2833 23.0691 33.3939C23.2334 33.5045 23.3158 33.6726 23.3164 33.8984C23.3164 34.0654 23.2731 34.2021 23.1861 34.31C23.099 34.4179 22.9736 34.4892 22.8099 34.526C22.9444 34.575 23.0532 34.7155 23.1363 34.9474V34.9496L23.4439 35.803H22.7283L22.5023 35.0978C22.4658 34.985 22.4163 34.9071 22.354 34.8621C22.2917 34.8172 22.1933 34.7973 22.0605 34.7973H21.9612V35.803H21.2897V33.228V33.228ZM16.1867 33.228H17.9729V33.7099H16.8718V34.2299H17.9109V34.7202H16.8718V35.3075H18.0142V35.8041H16.1864V33.2288L16.1867 33.228ZM11.0254 33.228H12.9838V33.7426H12.3487V35.803H11.6619V33.7426H11.0252V33.228H11.0254ZM5.19047 33.228H6.04646L6.79147 34.772C6.81677 34.824 6.84587 34.8965 6.88041 34.9899C6.91496 35.0833 6.95141 35.1956 6.99275 35.3293C6.97244 35.2136 6.95639 35.0971 6.94461 34.9798C6.93454 34.8828 6.92937 34.7853 6.9291 34.6878V33.2291H7.5479V35.8047H6.69545L5.92161 34.204C5.88324 34.1261 5.84981 34.0459 5.82151 33.9638C5.78996 33.8711 5.76222 33.7769 5.73855 33.6818C5.76285 33.8355 5.78099 33.9765 5.79295 34.1049C5.80492 34.2333 5.81072 34.3468 5.81036 34.4454V35.8044H5.1902V33.2294L5.19047 33.228Z" fill="#2C3543" stroke="#2C3543" stroke-width="0.0767572" stroke-miterlimit="29.33"/>
<path d="M30.6395 18.5697C30.4869 18.6819 30.6256 19.0816 30.5231 19.2406C30.4725 19.3199 30.2922 19.1617 30.2418 19.2406C30.1915 19.3196 30.2563 19.4463 30.2791 19.5471C30.2927 19.6078 30.2914 19.6588 30.2418 19.6833C29.9786 19.8151 29.5904 19.5024 29.3578 19.6833C29.1296 19.8612 29.385 20.2047 29.193 20.4204C28.8799 20.7696 28.2097 20.9742 27.898 21.3243C27.5276 21.7408 27.5607 22.166 27.1348 22.5256C26.8016 22.8067 26.235 22.8364 25.8311 23.0004C25.363 23.191 25.1394 23.5422 24.653 23.6792C24.5062 23.7209 24.3266 23.4634 24.3718 23.3172C24.736 22.1344 25.2096 20.9453 25.6031 19.7716C25.8556 19.0184 25.9736 18.5436 26.2467 17.7975C26.5288 17.0246 26.8973 16.0712 27.3581 15.3902C27.4487 15.2559 27.7514 15.3436 27.7998 15.1889C27.9203 14.8051 27.6951 14.3701 27.7998 13.9819C27.8776 13.6942 28.1806 13.4186 28.4298 13.2576C28.5987 13.1486 28.8682 13.3003 28.9428 13.1135C29.1169 12.6776 28.9545 12.2159 29.0638 11.7591C29.1378 11.4515 29.3489 11.2633 29.483 10.9767C29.6611 10.5967 29.6481 10.2666 29.8447 9.89558C30.0047 9.59376 30.3411 9.17126 30.4382 8.84329C30.5712 8.39328 30.4624 8.17236 30.5054 7.70491C30.5171 7.57906 30.701 7.50906 30.7062 7.38293C30.7684 5.86891 30.8487 4.34945 30.7606 2.83652C30.7532 2.71312 30.4769 2.7183 30.4793 2.59463C30.4888 2.13154 30.5449 1.7243 30.5193 1.30752C30.5144 1.2258 30.5427 1.15961 30.4614 1.15579C29.2031 1.10295 27.9614 1.13182 26.7026 1.14653C25.6714 1.15852 24.6375 1.07571 23.6088 1.14653C23.4532 1.15743 23.314 1.18412 23.2071 1.29799C23.1048 1.40695 23.0542 1.64067 23.0599 1.79022C23.0871 2.46278 23.0466 3.19473 23.0599 4.00322C23.0624 4.15305 23.3572 4.06343 23.4081 4.20453C23.5495 4.59734 23.5607 5.03563 23.5286 5.45187C23.5183 5.58562 23.3559 5.7654 23.3589 5.89915C23.4236 6.36469 23.4837 6.69402 23.5686 7.14158C23.6175 7.31483 23.766 7.45022 23.8096 7.62455C23.8615 7.83294 23.6717 8.25435 23.8855 8.26824C23.9565 8.27287 24.2048 8.31428 24.3318 8.26824C24.495 8.20886 24.2714 7.90867 24.3318 7.7455C24.3742 7.62918 24.5935 7.62592 24.6131 7.50415C24.7191 6.84139 24.5345 6.06505 24.6403 5.40229C24.6724 5.20044 24.788 4.98687 24.9618 4.87927C25.1097 4.78747 25.3774 5.01684 25.4843 4.87927C25.6322 4.68859 25.4867 4.46876 25.5781 4.24485C25.7132 3.9217 25.9191 3.6331 26.1806 3.4004C26.4178 3.18928 26.6552 2.93731 26.9694 2.90381C27.675 2.83053 28.5198 2.89645 29.474 2.85532C29.5638 2.85123 29.5877 2.98934 29.5945 3.07896C29.6285 3.52025 29.7087 4.11954 29.5945 4.40638C29.4291 4.82316 29.0548 5.28815 28.6751 5.72073C28.4151 6.01656 28.1523 6.27806 27.9519 6.57498C27.7114 6.92911 28.0707 7.41508 27.9475 7.82804C27.8219 8.24836 27.4775 8.69564 27.2109 9.04459C26.9933 9.33062 26.6705 9.4769 26.4654 9.77273C26.2094 10.1424 26.0601 10.5066 25.8985 10.9258C25.7678 11.2774 25.6735 11.6415 25.617 12.0124C25.5697 12.3039 25.709 12.6335 25.577 12.8977C25.4805 13.0911 25.2626 13.0555 25.122 13.2194C24.9272 13.4472 24.813 13.7392 24.7202 14.0241C24.6114 14.3616 24.6014 14.5616 24.4297 14.8724C24.2372 15.2211 23.8509 15.5578 23.6757 15.9151C23.4853 16.3052 23.463 16.7792 23.3673 17.2028C23.2751 17.6114 23.1978 17.9985 23.1132 18.4098C23.0099 18.9132 22.9019 19.4248 22.9125 19.9388C22.9158 20.0952 23.0809 20.2025 23.1535 20.3412C23.2147 20.458 23.3559 20.5781 23.3143 20.7032C23.2571 20.8742 22.9378 20.8868 22.9125 21.0652C22.8853 21.2496 22.9332 21.4193 23.0684 21.5482C23.1856 21.6593 23.4258 21.6108 23.5101 21.7492C23.6009 21.8982 23.5846 22.1148 23.5101 22.2722C23.4481 22.4035 23.2308 22.3717 23.2022 22.5138C23.0869 23.0932 23.2294 23.5054 23.1266 24.0867C23.1018 24.2264 22.7803 24.2278 22.8051 24.3681C22.8396 24.5642 22.8524 24.871 23.0499 24.8966C23.6211 24.9709 24.4069 24.7424 24.9743 24.8478C25.1987 24.8892 25.2109 25.2719 25.4163 25.3708C25.5852 25.3678 25.845 25.3738 26.0593 25.3708C26.2225 25.2847 26.1798 24.9821 26.3405 24.8881C26.5383 24.7723 26.8084 24.7282 27.0233 24.8064C27.1394 24.8492 26.9814 25.154 27.1049 25.1687C28.1064 25.1308 29.0007 25.2403 29.9481 25.1687C30.1385 25.1376 29.9446 24.866 30.0996 24.7535C30.2756 24.6252 30.7127 24.8492 30.7423 24.6329C30.8963 23.516 30.6561 22.2679 30.7608 21.1461C30.7946 20.7865 31.1389 20.5741 31.2159 20.2199C31.2415 20.1025 31.3821 20.1001 31.3935 19.9846C31.4324 19.5814 31.4251 19.093 31.3233 18.6961C31.1876 18.5569 30.775 18.5065 30.6395 18.5697Z" fill="#2C3543"/>
<path d="M41.3085 22.8451C40.8597 22.7272 40.4631 22.923 40.0062 22.8451C39.8732 22.8222 39.8468 22.513 39.7195 22.558C39.5084 22.6326 39.488 22.9552 39.3115 23.0911C38.9617 23.3578 38.4683 23.5476 38.0763 23.7465C37.3904 24.0941 36.6891 24.2641 36.0785 24.7301C35.8786 24.8824 36.1435 25.3635 35.9153 25.4675C35.4181 25.6942 34.7068 25.6065 34.2784 25.5492C33.9232 25.1376 34.5746 24.6378 34.6236 24.0933C34.8325 23.5384 35.2492 23.0399 35.3936 22.4646C35.5443 21.8688 35.355 21.1538 35.4649 20.549C35.5503 20.0797 35.9651 19.7092 36.038 19.2377C36.2012 18.184 35.8506 17.0857 36.0714 16.041C36.1495 15.6714 36.6625 15.5286 36.808 15.1805C36.9236 14.9032 36.7313 14.5692 36.808 14.2786C36.8602 14.0805 37.1091 13.9789 37.1763 13.7869C37.3319 13.3388 37.417 12.8476 37.5516 12.3935C37.6093 12.2001 37.8209 12.0615 37.8386 11.8607C37.9183 10.9345 37.7159 9.99448 37.8386 9.07376C37.8838 8.73434 38.134 8.50171 38.2227 8.1721C38.3832 7.57281 38.2624 6.91278 38.4675 6.32793C38.5287 6.15523 38.8918 6.25275 38.9587 6.08277C39.0947 5.73927 38.87 5.32167 38.9998 4.97627C39.0912 4.7311 39.5675 4.68697 39.6616 4.44344C39.8144 4.04683 39.6572 3.57175 39.8022 3.17296C39.8876 2.93733 40.1471 2.79159 40.263 2.56877C40.4822 2.14763 40.7993 1.69054 40.7662 1.21656C40.7501 0.982017 40.4455 0.89512 40.2113 0.877959C38.638 0.834919 37.0561 0.893758 35.4785 0.90193C34.5809 0.906288 33.3397 0.900296 32.5574 0.908468C32.0931 0.913099 31.968 0.843091 31.959 1.31517C31.9375 2.66084 32.1056 4.05963 31.9832 5.46795C31.9735 5.59653 31.6884 5.54967 31.6568 5.6728C31.5943 5.91224 31.7267 6.16313 31.7384 6.41047C31.7537 6.72428 31.6598 7.04898 31.7384 7.35326C31.7768 7.50281 31.9112 7.5562 32.0648 7.5562C32.2185 7.5562 32.274 7.45241 32.3912 7.35326C32.6146 7.1653 33.0797 7.08957 33.1936 6.82016C33.482 6.13916 33.306 5.35082 33.5369 4.64829C33.6914 4.17812 33.6944 3.83108 34.0899 3.53307C34.3847 3.31134 34.7808 3.32114 35.1948 3.34947C35.3882 3.42575 35.3876 3.74555 35.5826 3.8161C35.9678 3.9553 36.5548 3.50828 36.8107 3.82836C36.7411 4.16532 36.7563 4.69705 36.6005 5.09885C36.4373 5.5159 36.0771 5.85041 35.8693 6.24648C35.5174 6.91687 35.2709 7.38785 35.0653 8.11708C34.9614 8.48618 35.0751 9.07457 34.969 9.44313C34.858 9.82913 34.4049 10.0471 34.2735 10.4265C34.1617 10.7493 34.3839 11.1282 34.2735 11.4513C34.1919 11.6886 33.8878 11.6826 33.8484 11.9304C33.8163 12.1326 34.045 12.281 34.11 12.4753C34.1617 12.6311 34.1236 12.8119 34.0689 12.9669C33.8894 13.4742 33.7915 13.3186 33.5921 13.8179C33.2731 14.6166 32.7302 15.9359 32.6205 16.789C32.4796 17.8879 32.5253 19.0827 32.6774 20.1799C32.7193 20.4823 32.9616 20.6991 33.0152 20.9998C33.1017 21.4839 33.0721 21.9868 33.0152 22.4752C33.0019 22.5918 32.8993 22.646 32.8819 22.7623C32.815 23.2079 32.9469 23.6765 32.8411 24.1145C32.8186 24.2077 32.5835 24.0235 32.5544 24.1145C32.4636 24.4011 32.6815 24.744 32.5544 25.0164C32.4614 25.2161 32.1889 25.1714 32.0529 25.3433C31.9593 25.4615 31.931 25.6669 32.0118 25.7936C32.0703 25.8862 32.1396 25.7457 32.1788 25.8481C32.2441 26.0183 32.1549 26.2278 32.0559 26.3812C31.9898 26.4833 31.7458 26.3703 31.7295 26.4915C31.6933 26.9993 31.597 27.5356 31.7349 28.2106C31.9052 28.5065 32.4269 28.4182 32.759 28.3354C32.9975 28.2757 33.183 28.0693 33.4262 28.0325C34.1141 27.9281 34.9024 28.0622 35.5843 27.9254C35.9629 27.85 35.9944 27.5402 36.3706 27.4536C36.694 27.3795 37.2437 27.3975 37.5484 27.5283C37.6604 27.5762 37.5908 27.7919 37.7116 27.8028C38.8934 27.7993 39.9847 27.7127 41.166 27.7669C41.3395 27.7489 41.438 27.5667 41.4576 27.3929C41.5512 26.5648 41.5278 25.7233 41.4576 24.8928C41.444 24.7342 41.3028 24.6378 41.2653 24.4842C41.218 24.2853 41.1875 24.0589 41.2653 23.8699C41.3034 23.7778 41.4984 23.8715 41.5522 23.7882C41.6415 23.6487 41.5691 23.4752 41.5269 23.3142C41.4823 23.1338 41.4878 22.892 41.3085 22.8451Z" fill="#2C3543"/>
<path d="M30.1726 29.4239C29.9743 28.3945 30.5708 26.4452 30.0208 26.4275C29.056 26.322 27.3935 26.3874 26.0942 26.3945C24.72 26.4018 23.4558 26.2891 22.0941 26.4724C21.7794 26.5146 21.6015 26.8401 21.2953 26.923C20.776 27.0627 20.1972 27.0455 19.6681 26.9502C19.2669 26.8777 18.9675 26.6097 18.5614 26.6481C18.2244 26.68 18.0859 27.1384 17.7587 27.2259C17.181 27.3776 16.4713 27.4212 15.8979 27.2531C15.7252 27.203 15.9377 26.8739 15.8531 26.7146C15.7987 26.6143 15.531 26.6936 15.5392 26.58C15.5533 26.3771 15.8637 26.2869 15.8977 26.0864C15.988 25.5552 15.8182 25.0033 15.8977 24.4708C15.9137 24.364 16.1514 24.398 16.1667 24.2913C16.2173 23.9344 16.0157 23.5689 16.0769 23.2139C16.0987 23.0872 16.3282 23.102 16.3905 22.9897C16.4871 22.8151 16.4827 22.653 16.4294 22.4607C16.3919 22.3245 16.2733 22.3883 16.2072 22.264C16.1373 22.1322 16.1895 21.8958 16.2755 21.7737C16.3949 21.6043 16.7713 21.4741 16.7586 21.2676C16.7314 20.8377 16.6699 20.6315 16.7001 20.1951C16.7112 20.0369 16.3924 19.8873 16.369 19.7304C16.328 19.4556 16.3601 19.1622 16.3552 18.8928C16.3514 18.6836 16.2866 18.4937 16.3903 18.3038C16.483 18.1341 16.5956 17.8487 16.6049 17.6209C16.6707 16.0219 16.8247 14.4107 16.6555 12.8187C16.625 12.5333 16.174 12.4314 16.1449 12.1456C15.9744 10.4638 15.9994 8.76128 16.1 7.07402C16.1079 6.94027 16.3582 7.02417 16.3903 6.89423C16.4773 6.52903 16.4618 6.14682 16.3454 5.78991C16.2953 5.64444 16.0873 5.71227 16.0103 5.57907C15.9045 5.39629 15.8642 5.16828 15.9205 4.96453C15.9529 4.84848 16.1827 4.90487 16.1925 4.78501C16.2246 4.42871 16.1678 4.0735 16.1729 3.72264C16.1786 3.32493 16.2379 2.93267 16.1028 2.55131C15.9959 2.24894 15.815 2.1536 15.6055 1.93976C15.4423 1.77332 15.2672 1.47667 15.0615 1.33584C14.9206 1.2405 14.6416 1.37698 14.4868 1.30642C14.2553 1.20128 14.242 0.887194 13.9937 0.832441C13.4244 0.707136 12.8513 0.96156 12.2733 0.881201C12.1413 0.862678 12.1435 0.612339 12.0257 0.549414C11.881 0.472324 11.6768 0.449715 11.5465 0.549414C11.3765 0.679351 11.2543 1.00133 11.3593 1.18738C11.5225 1.47749 11.8087 1.62568 12.0208 1.82263C12.2466 2.03211 12.4016 2.28789 12.6707 2.51807C12.7754 2.60742 13.0289 2.5415 13.1148 2.64883C13.2391 2.80464 13.1964 2.96018 13.2903 3.13643C13.3406 3.23177 13.5215 3.33419 13.5457 3.43907C13.6194 3.75996 13.6273 4.10782 13.5457 4.42653C13.5008 4.60114 13.3115 4.70574 13.2416 4.87164C13.1836 5.00947 13.1238 5.14404 13.1872 5.28024C13.2546 5.42407 13.4565 5.39846 13.491 5.55264C13.5998 6.03398 13.5255 6.56408 13.5359 7.03343C13.543 7.34179 12.8793 7.34996 12.8736 7.65805C12.8662 8.05957 12.9165 8.56897 12.9225 9.11514C12.928 9.63624 13.2217 9.46762 13.2321 9.58803C13.3341 10.8705 13.1589 12.083 13.2593 13.3657C13.2682 13.479 13.4973 13.4796 13.5459 13.5836C13.649 13.8016 13.6295 14.0691 13.5661 14.3017C13.5269 14.4463 13.2941 14.4226 13.2772 14.5714C13.1828 15.4491 13.4448 16.3453 13.3221 17.2194C13.2987 17.3848 13.0466 17.2957 12.9685 17.4439C12.8578 17.6561 12.9603 17.7449 12.9783 17.9838C12.9903 18.1396 12.9427 18.4561 12.9628 18.6103C12.9878 18.8034 13.0308 19.0118 12.9628 19.1938C12.9274 19.2875 12.7019 19.2831 12.6938 19.3845C12.65 19.9225 12.6859 20.4523 12.6766 20.9805C12.6679 21.4762 12.6222 22.0129 12.7074 22.5125C12.7536 22.7849 13.1698 22.7805 13.3213 23.0099C13.3958 23.1221 13.3876 23.2973 13.3213 23.4139C13.2514 23.5362 12.9992 23.5018 12.9628 23.6383C12.8812 23.942 13.0457 24.1673 12.9669 24.4713C12.9244 24.6348 12.6998 24.5691 12.6715 24.8799C12.6284 25.3683 12.6355 25.8599 12.6927 26.3468C12.7539 26.8916 12.8523 26.5103 13.0077 26.6917C13.0757 26.7712 13.0604 26.9153 13.0077 27.0058C12.9432 27.1166 12.7242 27.1052 12.694 27.2302C12.5956 27.6372 12.8102 28.109 12.5812 28.4596C12.1914 29.0551 11.3498 29.1262 10.922 29.696C10.8132 29.8426 11.0881 30.1896 11.2628 30.2408C11.423 30.288 11.6942 30.1572 11.8612 30.1534C12.4022 30.1417 12.9973 30.3206 13.5076 30.1414C14.1898 29.9014 14.1876 29.3209 14.8429 29.0131C15.1943 28.8497 15.8612 28.8916 16.2341 28.9995C16.4977 29.076 16.5355 29.2212 16.9509 29.2446C18.8894 29.3506 20.7453 29.1469 22.6817 29.2888C22.8721 29.3027 22.8971 29.6669 23.085 29.693C23.9135 29.8077 24.7505 29.599 25.5812 29.699C25.8924 29.7358 26.2364 30.0286 26.5416 30.1027C26.7453 30.1517 26.9752 29.978 27.1691 30.0575C27.3459 30.13 27.3367 30.4985 27.5276 30.5064C28.4987 30.5476 29.4044 30.4792 30.2996 30.483C30.775 30.4849 30.704 30.3168 30.521 29.9861C30.407 29.7731 30.2158 29.6481 30.1726 29.4239Z" fill="#2C3543"/>
<path d="M11.0975 21.7283C11.129 21.4578 11.4848 21.2987 11.5036 21.0266C11.5134 20.3047 11.4837 19.5422 11.4783 18.7825C11.4731 18.0693 11.4938 17.3584 11.4359 16.6872C11.3883 16.3764 10.8973 16.3655 10.8445 16.0555C10.68 15.0876 11.1048 14.0702 10.9123 13.1081C10.8375 12.7351 10.2089 12.6995 10.0998 12.3361C9.97794 11.9275 10.3821 11.5044 10.164 11.1424C9.93687 10.7659 8.82792 11.0814 8.93454 10.6521C9.03763 10.2361 9.4761 9.89779 9.72335 9.53304C10.1504 8.90025 10.5451 8.3026 10.8764 7.6619C11.1182 7.19446 11.2814 6.70386 11.2874 6.16042C11.2944 5.51182 11.1494 4.55324 11.0771 3.70879C11.0183 3.02042 10.6857 2.61155 10.2219 2.11496C9.93279 1.80496 9.3809 1.84255 9.00336 1.66222C8.7281 1.52956 8.62854 0.995923 8.32635 0.966231C6.43948 0.77909 4.49113 0.968682 2.59746 1.05204C2.35457 1.06293 2.20306 1.20567 1.96316 1.24708C1.51707 1.32471 0.759552 1.11632 0.353454 1.3179C0.106477 1.44021 -0.0817473 2.00627 0.0354851 2.26178C0.334686 2.921 0.983409 3.23126 1.49967 3.7254C1.58426 3.80712 1.87204 3.66738 1.92372 3.77416C2.01456 3.96239 1.99172 4.20756 1.92372 4.40587C1.86932 4.56168 1.59568 4.59192 1.58508 4.75645C1.63376 6.60879 1.56468 8.46985 1.52659 10.3216C1.51082 11.0844 1.74637 10.6455 1.90903 11.0255C2.00967 11.2604 1.98437 11.5521 1.90903 11.7975C1.70911 12.4491 1.65661 12.4431 1.67864 13.162C1.6936 13.6455 1.63594 14.5028 1.82743 14.7221C1.95962 14.9506 1.83559 15.2383 1.83532 15.4229C1.83532 15.8956 1.77792 15.9176 1.62805 16.1873C1.62805 16.7487 1.48906 21.1786 1.62452 22.5122C1.85 23.3777 1.78228 25.95 1.55652 27.8917C1.32178 28.3518 1.44119 28.9167 1.24426 29.1608C1.12893 29.3038 0.933633 29.422 0.742416 29.5122C0.611583 29.5735 0.320814 29.5702 0.212014 29.6577C0.0308611 29.8034 0.126334 30.0507 0.636608 30.1559H0.63824C1.49123 30.331 2.85559 30.1145 3.55627 30.1793C4.24633 30.243 3.79318 30.37 4.39947 29.8816C4.49984 29.7868 4.70112 29.7925 4.80557 29.8816C4.98536 30.0338 4.91437 30.2256 5.14421 30.255C5.43607 30.2929 5.46218 30.0605 5.73908 29.9576C6.03828 29.8451 6.55127 29.9894 6.79335 29.7737C6.98375 29.7568 7.3806 29.2289 8.00022 28.7658C8.42454 28.4493 9.09475 28.0698 9.63223 27.9001C9.95863 27.5068 9.90042 26.5907 10.1025 25.9625C10.3353 25.2382 10.9327 24.713 11.0999 23.9691C11.2607 23.2627 11.0137 22.4485 11.0975 21.7283ZM5.59165 4.38516C5.5824 4.05528 5.84788 4.07599 6.16285 4.01415C6.47892 4.0324 7.0833 3.99481 7.1475 4.15961C7.21169 4.32442 7.20434 4.56495 7.75841 4.50312C8.31248 4.44128 8.15281 4.82101 7.92161 5.04792C7.69041 5.27483 7.82614 5.43991 7.96976 5.60471C8.11337 5.76952 8.08481 6.18194 7.9499 6.32631C7.81499 6.47068 7.96812 6.98634 8.04265 7.52271C8.11718 8.05907 7.89958 8.1002 7.89958 8.1002C7.69159 8.15443 7.48061 8.19645 7.26772 8.22605C7.02129 8.26255 6.72372 8.75015 6.52353 9.14051C6.36821 9.44233 6.30892 9.56437 6.20229 9.6085C6.09567 9.65263 5.94226 9.61803 5.59872 9.6085C5.59872 9.6085 5.55683 6.6393 5.55248 6.47314C5.54813 6.30697 5.6009 4.71613 5.59165 4.38516ZM8.13268 20.5989C8.25808 21.062 8.24638 21.3714 8.13024 21.8372L7.71652 23.4948C7.70102 23.9127 7.66212 24.3308 7.63329 24.7479C7.58841 25.385 7.50355 25.4016 7.06209 25.8571C6.66007 26.2706 6.14272 26.625 5.75512 26.9946C5.32618 27.1581 4.99352 27.1742 4.56403 27.3379L5.03786 26.4253L4.90186 23.4079L5.30795 22.8462V19.8075C5.30795 19.3469 5.24376 18.8866 5.24376 18.4259C4.76858 18.0323 4.99597 18.0383 5.37976 17.5839C5.37976 17.1394 5.48693 16.7809 5.48693 16.3363L5.35093 15.2135L5.55411 14.652C5.55411 14.0893 5.61831 13.6338 5.61831 13.0721C5.61831 12.5436 5.63354 12.3666 5.7301 12.3995C5.82666 12.4325 6.00428 12.6763 6.3285 12.9887L7.06943 13.7014C7.52531 14.1399 7.96921 14.18 7.78425 14.8986C7.61153 15.5711 8.10793 15.7575 7.95371 16.424C7.83566 16.934 7.68171 17.2453 7.71516 17.5616C7.73584 17.7509 7.82396 17.9429 8.02987 18.1786C8.22027 18.3965 8.28283 18.3834 8.16913 18.652C7.99342 19.0691 7.84273 19.3118 7.82587 19.5621C7.80329 19.8833 7.97819 20.0315 8.13268 20.5989Z" fill="#2C3543"/>
<path d="M16.9508 1.93077C17.226 2.10429 17.461 2.30287 17.7768 2.30941C18.162 2.31758 18.4685 2.44561 18.6026 2.83024L18.706 7.45919C18.7177 8.59702 18.7525 9.7354 18.7639 10.8732C18.7754 12.0111 18.7639 13.1492 18.7751 14.287L18.8439 18.2989C18.8439 18.2989 18.7751 18.8002 18.6717 18.9162C18.5684 19.0322 18.6029 20.0347 18.6029 20.0347C18.9837 20.3673 18.9021 20.321 18.6375 20.7677L18.5686 23.7369L18.2931 24.2771C18.2931 24.2771 17.3019 24.8592 17.3019 25.3602C17.3019 25.3602 17.4417 25.975 17.7858 25.7434C18.1299 25.5119 18.2694 25.1649 18.6135 25.1649C18.9576 25.1649 20.3921 24.8949 20.7351 25.1649C21.0781 25.4348 21.1138 25.2033 21.2859 25.2033C21.4581 25.2033 21.9632 25.2932 21.9632 25.2932C22.403 25.2471 22.3135 24.5468 21.9956 24.3417C21.5367 23.9818 20.9187 23.7505 20.4601 23.3902L20.3225 22.3485L20.7009 21.8086V20.0728L20.4944 19.6097L20.4269 18.2989L20.2548 18.0671V17.5659C20.3693 17.3989 20.6018 17.2317 20.7172 17.0644C20.7514 16.7427 20.5978 16.5161 20.6323 16.1946C20.5507 15.7833 20.542 15.2772 20.462 14.8658V13.3614C20.7947 13.2622 20.8755 13.1143 20.8991 12.965C20.9296 12.7724 20.8355 12.5461 20.7359 12.0884C20.6902 9.68391 20.6679 7.18516 20.622 4.78038C20.805 4.49299 21.0248 4.34453 21.03 4.13151C21.0338 3.96562 20.8559 3.82751 20.6337 3.64119V3.13915C20.6337 3.13915 21.0123 2.3677 21.3218 2.3677C21.6314 2.3677 21.8386 2.13589 21.8386 1.90462C22.1212 1.3421 21.5288 1.28735 21.5288 1.28735C20.8733 1.27373 20.131 1.30724 19.4915 1.29362C18.9277 1.28163 18.4647 1.22225 17.9158 1.20972C17.6748 1.22297 17.4339 1.23596 17.1931 1.24867C16.5996 1.42873 16.7239 1.75098 16.9508 1.93077Z" fill="#2C3543"/>
<path d="M57.2895 22.4392C57.1453 22.2725 56.7205 22.4428 56.6639 22.2303C56.5858 21.9391 57.0058 21.6967 57.0112 21.3946C56.8965 20.5812 56.7912 19.8525 56.7776 19.0519C56.7621 18.1064 56.56 18.5823 56.2466 18.2118C56.0576 17.9879 55.9986 17.7901 55.9689 17.4984C55.8814 16.6441 56.0051 15.6986 55.8746 14.8498C55.8116 14.4636 55.6434 14.1022 55.3885 13.8057C55.2976 13.7005 55.1309 13.8572 55.0683 13.7327C54.9644 13.524 55.2843 13.381 55.1625 13.1827C54.8788 12.7212 54.2853 12.3696 53.8354 12.0691C53.6994 11.9792 53.4627 12.1841 53.3485 12.0691C53.2342 11.9542 53.237 11.6017 53.3485 11.4845C54.1501 11.3682 54.5624 10.9904 54.9533 10.5377C55.4842 9.92448 55.744 9.24074 56.0103 8.4742C56.133 8.12008 55.9757 7.70793 56.0168 7.3361C56.0932 6.64855 56.452 6.02366 56.3331 5.34211C56.1591 4.35083 55.6708 3.46253 55.1091 2.62734C54.7977 2.16425 54.3141 1.75292 53.8092 1.51375C53.3887 1.31408 53.0365 1.48134 52.5896 1.35031C52.0728 1.19858 51.6577 0.909017 51.13 0.8006C50.719 0.716155 50.2868 0.888042 49.8788 0.793518C49.6237 0.734679 49.5821 0.447293 49.3226 0.40725C49.1442 0.38001 48.9614 0.638793 48.781 0.65432C47.5345 0.760012 46.5112 0.518118 45.2706 0.68156C45.0854 0.705804 45.1381 0.912558 45.2915 1.0188C45.5211 1.17788 45.8695 1.10052 46.1258 1.20948C46.5854 1.40888 46.9388 1.67665 47.2793 2.04467C47.5614 2.34867 47.6762 2.68727 47.9321 3.15825C48.0374 3.35166 48.3401 2.98064 48.5577 2.94959C48.8327 2.91036 49.0237 2.90274 49.1972 3.12011C49.3531 3.31515 49.0305 3.57476 48.8466 3.7431C48.4742 4.08251 48.221 4.26285 47.8919 4.48812C47.6669 4.64258 47.2684 4.78123 47.1014 5.08305C46.7304 5.75207 47.1702 6.5129 47.3133 7.265C47.3655 7.53931 47.4254 7.80763 47.4874 8.07949C47.6895 8.96398 47.6215 9.70001 47.7444 10.5989C47.7844 10.8893 47.9892 11.1438 48.0224 11.4344C48.0608 11.7806 47.9988 12.0361 48.0496 12.3807C48.0708 12.5276 48.1911 12.6831 48.2302 12.8261C48.4032 13.4627 48.5566 14.262 48.5776 14.9214C48.6486 17.0778 48.5207 19.1905 48.6295 21.3461C48.6393 21.5417 48.9334 21.6185 48.9739 21.8122C49.0362 22.1118 48.8379 22.4534 48.7375 22.7411C48.326 23.9211 47.8437 24.8034 47.5897 25.8072C47.4809 26.2346 47.8103 26.4092 48.1995 26.6607C48.6358 26.9472 49.0565 27.257 49.4597 27.5887C50.1753 28.1758 50.6622 29.2479 51.1276 30.3035C51.3675 30.0483 51.1983 28.8598 51.3327 28.1458C51.3615 27.993 51.5258 27.8829 51.5413 27.7279C51.5957 27.1741 51.6101 26.6111 51.5413 26.0578C51.5141 25.8516 51.3164 25.7013 51.263 25.501C51.2214 25.3439 51.2312 25.1725 51.263 25.0137C51.3019 24.8195 51.4534 24.6541 51.4717 24.4566C51.5242 23.8789 51.5584 23.2902 51.4717 22.7168C51.4388 22.4989 51.1077 22.3782 51.1241 22.16C51.1382 21.9794 51.5277 21.9925 51.5413 21.8122C51.5791 21.2946 51.4001 20.7953 51.3365 20.2807C51.1921 19.1238 51.108 17.9601 50.9886 16.8005C50.9459 16.3826 50.7792 15.9618 50.8496 15.5474C51.0672 14.9825 51.2658 14.4033 51.4752 13.9465C51.5772 13.8122 51.7121 14.0745 51.8158 14.2077C52.1544 14.6409 52.6046 15.177 52.7017 15.7182C52.8211 16.3818 52.4618 16.9691 52.5385 17.6389C52.5605 17.8345 52.8613 17.7997 52.931 17.9835C53.2631 18.8631 53.5326 19.7724 53.6958 20.6983C53.8816 21.7533 53.9406 22.8293 53.9735 23.9004C53.9877 24.3657 53.9678 24.8451 53.8345 25.2921C53.6441 25.9301 53.2489 26.4387 53.0528 27.0551C52.8472 27.6999 52.7808 27.8922 53.4627 27.8919C53.7323 27.8919 54.047 27.9023 54.2551 28.0066C54.8129 28.2855 55.0439 28.9298 55.5724 29.2597C55.6866 29.331 55.8362 29.4299 55.994 29.5179C56.7447 29.939 56.8274 29.6481 56.9835 28.9897C57.1899 28.118 57.2422 27.3343 57.3757 26.4757C57.444 26.0399 57.4301 25.5937 57.4489 25.1532C57.4761 24.5267 57.5229 23.9001 57.4908 23.2736C57.4796 22.9813 57.4813 22.661 57.2895 22.4392ZM53.1915 8.86537C53.1458 9.16502 52.928 9.39983 52.8001 9.65752C52.7134 9.83295 52.7474 10.238 52.5219 10.4728C52.1917 10.8158 51.7442 11.1538 51.4137 11.1538C50.7313 11.1538 50.7035 11.0672 50.6576 10.5673C50.6209 10.1786 50.7065 9.27861 50.7065 8.81035C50.7065 8.23449 50.6627 7.58453 50.6608 6.99505C50.6589 6.4418 50.6986 5.95038 50.6967 5.40149C50.6967 4.97545 50.6519 4.53416 50.651 4.12719C50.651 3.62406 50.6421 3.57067 51.2222 3.70061C51.5394 3.77143 51.739 3.94577 52.0075 4.33912C52.1536 4.55459 52.4971 4.8368 52.7816 5.15143C53.1994 5.6107 53.5625 6.12472 53.5625 6.47122C53.5625 6.71393 53.4676 7.81853 53.3667 7.91496C53.1094 8.16312 53.2497 8.48074 53.1915 8.86537V8.86537Z" fill="#2C3543"/>
<path d="M67.3115 1.18604C67.3582 1.12316 67.3825 1.04644 67.3806 0.968115C67.3833 0.911944 67.3712 0.856055 67.3455 0.806047C67.3198 0.756039 67.2815 0.713669 67.2343 0.683181C67.1369 0.617986 66.9955 0.585388 66.81 0.585388H66.2769V1.88884H66.6862V1.38871H66.7259L66.956 1.88802H67.4018L67.1176 1.3206C67.1944 1.29641 67.262 1.2495 67.3115 1.18604V1.18604ZM66.9122 1.11031C66.872 1.13982 66.8225 1.15402 66.7727 1.15035H66.6865V0.841175H66.749C66.8225 0.841175 66.8758 0.853433 66.9098 0.877949C66.9271 0.891501 66.9408 0.909148 66.9496 0.929307C66.9585 0.949467 66.9622 0.971507 66.9604 0.993448C66.9616 1.0153 66.958 1.03715 66.9496 1.05738C66.9413 1.07761 66.9285 1.0957 66.9122 1.11031V1.11031Z" fill="#2C3543"/>
<path d="M67.91 0.800605C67.8508 0.655241 67.7634 0.523041 67.653 0.411613C67.5416 0.29898 67.4086 0.210033 67.2621 0.150106C67.1135 0.0900289 66.9545 0.0595861 66.7943 0.0604854C66.6366 0.0593685 66.4802 0.0893584 66.334 0.148744C66.1908 0.206873 66.0611 0.294159 65.9532 0.405076C65.8396 0.51886 65.7491 0.653648 65.6867 0.801967C65.6254 0.948614 65.5941 1.10609 65.5947 1.26505C65.5942 1.42191 65.6252 1.57727 65.6859 1.72187C65.747 1.86809 65.8368 2.00055 65.95 2.11141C66.0615 2.22496 66.1944 2.31539 66.3408 2.37755C66.4856 2.43822 66.641 2.46929 66.7979 2.46892C66.9548 2.46854 67.11 2.43673 67.2545 2.37537C67.4031 2.31198 67.5386 2.22145 67.6541 2.10841C67.7657 2.00059 67.8538 1.87073 67.9127 1.72705C67.9723 1.58 68.0023 1.42264 68.0011 1.26396C68.001 1.10506 67.9701 0.947683 67.91 0.800605V0.800605ZM67.684 1.63225C67.6372 1.74656 67.5674 1.84997 67.4789 1.93598C67.3884 2.02674 67.281 2.09891 67.1628 2.14846C67.0473 2.19691 66.9232 2.22186 66.7979 2.22186C66.6726 2.22186 66.5486 2.19691 66.433 2.14846C66.1991 2.0485 66.013 1.86175 65.9135 1.62735C65.8652 1.51214 65.8406 1.38837 65.8412 1.26342C65.8412 1.13804 65.8663 1.01394 65.9149 0.898398C65.964 0.780385 66.0357 0.673134 66.126 0.582682C66.2118 0.493902 66.3151 0.423878 66.4292 0.377018C66.5464 0.330025 66.6716 0.306428 66.7978 0.307555C66.9235 0.306655 67.0482 0.330823 67.1645 0.378652C67.2809 0.427626 67.3866 0.499188 67.4754 0.58922C67.5642 0.677292 67.6343 0.782463 67.6815 0.898398C67.7296 1.01461 67.7541 1.13925 67.7536 1.26505V1.26505C67.7548 1.39085 67.7311 1.51564 67.684 1.63225V1.63225Z" fill="#2C3543"/>
<path d="M66.1542 8.24865C66.0486 7.37696 66.211 6.47803 66.0554 5.61505C65.9972 5.29416 65.7535 5.04627 65.6439 4.74336C65.5038 4.35491 65.4807 3.91771 65.2595 3.5614C65.1031 3.30861 64.7566 3.14 64.5466 2.9297C63.8343 2.21628 63.995 2.51647 63.0955 2.33695C62.91 2.2999 62.7963 2.08525 62.6143 2.03131C62.2928 1.93488 61.7836 1.79024 61.4972 1.71887C61.2505 1.65703 61.0974 1.83791 60.8509 1.77607C60.7451 1.74883 59.8345 1.48869 59.7814 1.4639C59.4866 1.32606 59.3949 1.08907 59.1126 0.92563C58.9059 0.806045 58.1383 0.40534 57.9541 0.34759C57.7131 0.272407 57.5595 0.390902 57.3239 0.299647C57.2263 0.261783 57.032 0.0833589 56.9287 0.0675595C56.6059 0.016596 56.2792 -0.00537447 55.9525 0.00191029C55.7028 0.00926518 55.4792 0.026699 55.6147 0.225009C55.8399 0.554617 56.0382 0.731951 56.3357 0.952325C56.5683 1.12448 56.8487 1.43121 57.1 1.61999C57.3848 1.83355 57.6329 1.93652 57.7311 2.26831C57.8671 2.7254 57.801 3.2604 57.7569 3.79376C57.7507 3.86786 57.5992 4.03893 57.5975 4.11411C57.5826 4.75753 57.637 5.01168 57.6642 5.65047C57.6696 5.79103 57.3862 5.78667 57.3748 5.92832C57.3081 6.7616 57.3593 7.51833 57.3704 8.35516C57.3805 9.14131 57.3478 10.0081 57.3748 10.7932C57.3789 10.9264 57.4893 11.0174 57.4893 11.1503C57.4893 11.5069 57.5312 11.7695 57.5325 12.0765C57.5325 12.4249 57.4964 12.8166 57.5342 13.2192C57.5469 13.3554 57.6563 13.3826 57.68 13.5164C57.7267 14.2344 57.6449 14.9773 57.7121 15.7032C57.7216 15.8081 57.9808 15.9345 57.9985 16.0386C58.0888 16.5673 57.9392 17.1778 58.088 17.6931C58.1717 17.9827 58.3904 18.2867 58.5566 18.5934C58.7576 18.9639 58.9524 19.2279 58.979 19.5907C59.0334 20.3194 58.8653 20.4896 58.8379 21.1998C58.8052 22.0478 58.5498 22.9375 58.5781 23.8189C58.5887 24.1491 58.8738 24.5395 59.0296 24.8301C59.1191 24.9971 59.1362 25.3327 59.2524 25.5569C59.3612 25.7674 59.575 25.7391 59.5108 25.9047C59.4616 26.0306 59.3294 26.1646 59.1757 26.2316C58.8819 26.3618 58.5096 26.3828 58.4856 26.5476C58.4173 26.8059 58.605 26.9467 58.7187 27.2172C58.806 27.4239 58.8784 27.7571 58.8311 28.0766C58.7987 28.2945 58.6592 28.5165 58.6314 28.6533C58.5591 29.0134 58.3817 29.1921 58.1987 29.3749C58.0735 29.4999 57.885 29.547 57.9607 29.7868C58.0189 29.9734 58.1815 29.8802 58.3877 29.8843C58.7323 29.8935 59.1058 29.8126 59.4246 29.7503C59.5823 29.7195 59.5287 29.604 59.6762 29.5405C59.881 29.4528 60.1435 29.4452 60.3448 29.5405C60.4769 29.6034 60.4419 29.6413 60.5553 29.7345C60.6355 29.7998 60.7821 29.7949 60.8673 29.7345C61.0141 29.629 60.9062 29.6279 61.0675 29.5438C61.3362 29.404 61.6659 29.44 61.9585 29.3654C62.4231 29.2466 62.8561 29.1907 63.2603 28.9314C63.6768 28.6639 64.1101 28.1981 64.2885 27.7358C64.5605 27.0349 64.6029 26.1265 64.6484 25.504C64.6728 25.3904 64.8442 25.2561 64.8556 25.1404C64.9209 24.4594 64.8336 23.7642 64.935 23.0873C64.9718 22.8421 65.1769 22.7078 65.2087 22.4624C65.3001 21.7541 65.2266 21.1134 65.1962 20.4C65.1526 19.3878 65.1317 18.6022 65.1613 17.5891C65.2563 17.0584 65.2049 16.3886 65.4094 15.9002C65.4875 15.7139 65.7298 15.6518 65.8362 15.479C65.9812 15.2429 66.1354 14.9533 66.1544 14.676C66.195 14.0971 66.0239 13.5093 66.1095 12.9351C66.161 12.5932 66.4501 12.4535 66.4917 12.11C66.616 11.0909 66.5975 10.083 66.4884 9.06232C66.4596 8.79563 66.1865 8.51479 66.1542 8.24865ZM63.8476 12.7752C63.6648 13.1081 63.5927 13.3649 63.5614 13.6469C63.4749 14.4368 63.2508 14.3134 63.0234 14.9116C62.9614 15.0737 62.9753 15.2758 62.969 15.661L62.9089 19.7874C62.8961 20.6662 62.731 21.0854 62.3763 21.8969C62.168 22.2848 62.0586 22.5348 62.0586 22.975C62.0586 23.4967 61.9523 23.7378 61.7453 24.2128C61.6184 24.502 61.4921 24.7914 61.3667 25.0813C61.2173 25.4245 61.08 25.5473 60.9807 25.5016C60.8814 25.4558 60.8197 25.2406 60.8213 24.9075L60.8485 19.8702L60.9059 14.515C60.8836 14.1315 60.898 14.0465 60.6467 13.7624C60.623 13.1841 60.5107 12.9228 60.329 12.3731C60.0986 11.9392 60.1247 11.6226 60.1193 11.1266L60.0755 7.40474C60.067 6.64365 60.2387 6.90407 60.9527 6.8662C61.4004 6.84223 61.488 6.81826 61.8867 7.03237C62.2988 7.25383 62.3848 7.39984 62.6366 7.79945L63.0261 8.17619C63.5552 8.68776 63.8049 9.4099 64.0211 10.0866C64.0562 10.8223 64.2137 12.1091 63.8476 12.7752Z" fill="#2C3543"/>
<path d="M47.3733 16.2862C47.366 16.071 47.2025 15.6485 47.1614 15.3524C47.0956 14.871 47.0428 14.4052 47.0309 13.9029C47.0178 13.3538 47.1168 12.8362 47.0216 12.2957C46.9631 11.9621 46.6085 11.6275 46.532 11.2971C46.4684 11.0209 46.6971 10.7251 46.621 10.4508C46.5774 10.296 46.3952 10.3347 46.3413 10.1835C46.2154 9.83213 46.0734 9.49598 45.9956 9.1296C45.8896 8.62784 45.8564 8.09311 45.7187 7.59979C45.5632 7.04299 45.298 6.51017 45.1127 5.96319C44.9637 5.52298 44.89 5.06725 44.7844 4.61506C44.7072 4.28246 44.844 3.827 44.7175 3.50992C44.4746 2.90192 44.0375 2.54589 43.784 1.94197C43.6401 1.59874 43.7549 1.17924 43.6279 0.828111C43.5629 0.649415 43.3325 0.518116 43.1426 0.525471C42.8837 0.535823 42.6285 0.639064 42.517 0.872786C42.3609 1.19368 42.6201 1.61754 42.4721 1.94197C42.2888 2.34376 41.8087 2.33368 41.6227 2.73384C41.4916 3.0166 41.7116 3.49657 41.6091 3.7905C41.4731 4.18494 41.2144 4.4952 41.0229 4.86595C40.8918 5.11955 40.8347 5.43799 40.6965 5.68833C40.5877 5.88719 40.4185 6.03074 40.381 6.25411C40.3394 6.50663 40.5216 6.71257 40.4474 6.95773C40.393 7.1367 40.2891 7.21897 40.1735 7.33256C39.9806 7.52161 39.8237 7.8632 39.745 8.16502C39.5954 8.73979 39.7236 9.44532 39.5797 10.0231C39.5187 10.2682 39.1235 10.3181 39.046 10.5578C38.9315 10.9106 39.1486 11.3151 39.046 11.6717C38.9478 12.0116 38.5616 12.2729 38.4677 12.6139C38.3176 13.1587 38.3233 13.8147 38.4242 14.3712C38.4574 14.5545 38.7906 14.4559 38.8238 14.639C38.851 14.7891 38.4702 14.7158 38.4229 14.8615C38.3045 15.2293 38.49 15.6498 38.3788 16.0198C38.2893 16.3153 38.1092 16.2418 38.0505 16.5452C38.0078 16.767 38.1013 17.175 38.112 17.4009C38.1318 17.8351 38.0347 18.1551 38.0238 18.5896C38.0195 18.7732 38.1647 19.0718 38.0673 19.2273C37.8973 19.4997 37.4366 19.4896 37.2666 19.762C37.1088 20.0148 37.3161 20.479 37.1779 20.7427C36.9875 21.105 36.4555 21.0837 36.4226 21.4921C36.3905 21.8912 36.4177 22.5417 36.8219 22.5545C37.1738 22.5654 37.4991 22.3556 37.8166 22.1962C38.2969 21.9565 38.7623 21.716 39.2818 21.6057C39.7606 21.5041 40.27 21.68 40.7656 21.6572C40.9304 21.6495 41.0874 21.6553 41.228 21.5738C41.4608 21.4392 41.5272 21.3425 41.6001 21.0677C41.7067 20.6572 40.9873 20.5455 40.805 20.1625C40.6323 19.7999 40.8736 19.3859 40.8268 18.9865C40.811 18.8503 40.6511 18.7446 40.6511 18.6076C40.6511 18.4706 40.795 18.2355 40.9179 18.2954C41.756 18.704 42.8442 19.2104 43.5174 19.7645C43.84 20.0298 43.9551 20.2151 43.9472 20.6416C43.9379 20.9553 43.8734 21.2649 43.7568 21.5561C43.5969 21.9489 43.4304 22.5117 43.1725 22.8566C42.7966 23.36 42.427 23.7626 42.3875 24.382C42.3465 25.0216 43.289 25.2518 43.5843 25.8211C43.7475 26.1371 43.5895 26.7601 43.6782 27.105C43.8604 27.8154 44.1629 28.2559 44.2766 28.9796C44.3748 29.5983 44.2002 30.0289 44.2864 30.6489C44.3071 30.7968 44.6626 30.7279 44.7983 30.6669C44.9887 30.5808 45.0328 30.61 45.0956 30.4092C45.2068 30.0551 45.0632 29.659 45.1405 29.2962C45.1709 29.1507 45.3646 29.0821 45.4073 28.9396C45.4873 28.6672 45.3562 28.3675 45.4291 28.0932C45.496 27.841 45.6739 27.4632 45.7808 27.2215C45.9393 26.8674 46.0968 26.6495 46.1189 26.2681C46.1461 25.8255 46.0003 25.4689 46.1189 25.114C46.1733 24.9546 46.485 24.8298 46.5541 24.6781C46.6688 24.4297 46.6705 24.1428 46.7319 23.8762C46.8484 23.3706 47.0007 23.1025 47.1818 22.6171C47.2297 22.4885 47.3926 22.4188 47.3994 22.2823C47.4579 21.111 47.4579 19.8579 47.4443 18.6839C47.437 17.8776 47.4011 17.0881 47.3733 16.2862ZM44.52 15.3502C44.5182 15.976 44.5014 16.6014 44.4694 17.2262C44.4607 17.4044 43.9907 17.4169 43.8596 17.317C43.6058 17.1233 43.4454 16.8985 43.1132 16.8185C42.9748 16.7855 42.9816 16.5659 42.8505 16.5221C42.5592 16.4251 42.1917 16.4009 41.8873 16.4009C41.6888 16.4009 41.4021 16.4711 41.2046 16.4464C41.1682 16.4417 41.2046 16.3646 41.2046 16.3254C41.2003 15.9323 41.1907 15.5458 41.1916 15.1587C41.1916 14.8179 41.2008 14.4777 41.2275 14.1312C41.2449 13.9065 41.4502 13.7357 41.4763 13.5118C41.5207 13.1424 41.2938 12.6992 41.3972 12.344C41.4391 12.1996 41.8052 12.344 41.8868 12.2233C41.914 12.1832 41.9684 11.9525 42.0614 11.755C42.1158 11.6365 42.2322 11.5306 42.2322 11.4851C42.2322 11.4192 42.2276 10.9498 42.2771 10.5436C42.3059 10.3077 42.3421 10.1078 42.378 10.1078C42.4139 10.1078 42.4496 10.3018 42.5744 10.4644C42.718 10.6518 42.7667 10.8373 42.8924 11.0351C42.9666 11.1519 43.0463 11.2895 43.169 11.3372C43.3246 11.3979 43.5117 11.3124 43.6668 11.375C43.7829 11.4219 43.8115 11.6041 43.9156 11.6771C43.9864 11.7264 44.1482 11.6327 44.1645 11.7226C44.2382 12.1271 44.1746 12.6684 44.2385 13.0748C44.2543 13.1721 44.4692 13.1268 44.4741 13.2257C44.5067 13.9329 44.522 14.641 44.52 15.3502Z" fill="#2C3543"/>
</g>
<defs>
<clipPath id="clip0_548_2328">
<rect width="68" height="36" fill="white"/>
</clipPath>
</defs>
</svg>
