<svg width="65" height="65" viewBox="0 0 65 65" fill="none" xmlns="http://www.w3.org/2000/svg">
<g clip-path="url(#clip0_1102_636)">
<rect width="65" height="65" fill="white"/>
<path d="M33 63.9395C25.6711 63.9395 6 43.7717 6 34.0401V10.5377C6.00349 9.62973 6.30422 8.74733 6.85714 8.02269C7.41007 7.29804 8.18541 6.77018 9.06702 6.51817L31.8464 0.0999761C32.6002 -0.114055 33.3998 -0.114055 34.1536 0.0999761L56.9313 6.51817C57.8132 6.76988 58.589 7.29762 59.1422 8.02229C59.6954 8.74696 59.9964 9.62952 60 10.5377V34.0401C60 43.7717 40.3289 63.9395 33 63.9395ZM33 1.15989C32.7213 1.16009 32.444 1.1985 32.176 1.27404L9.40487 7.69386C8.7814 7.87246 8.23315 8.24604 7.84218 8.75869C7.45122 9.27134 7.23856 9.89547 7.23604 10.5377V34.0401C7.23604 38.0841 11.2474 44.8887 17.7044 51.7977C23.7099 58.2257 30.0005 62.723 33 62.723C35.9995 62.723 42.2901 58.2322 48.2956 51.7977C54.7526 44.8887 58.764 38.0841 58.764 34.0401V10.5377C58.7616 9.8952 58.5488 9.27077 58.1575 8.75805C57.7662 8.24533 57.2174 7.87193 56.5935 7.69386L33.824 1.28382C33.5564 1.2053 33.2791 1.16413 33 1.16152V1.15989Z" fill="#0F3384"/>
<path d="M32.4092 40.7845C32.0092 40.7842 31.6139 40.6995 31.2496 40.5362C30.8853 40.3728 30.5603 40.1345 30.2964 39.8371L23.4405 32.103C22.9497 31.5484 22.7014 30.8237 22.7502 30.088C22.799 29.3524 23.141 28.666 23.7009 28.1797C24.2637 27.6974 24.9946 27.4517 25.7379 27.4948C26.1063 27.5173 26.4665 27.612 26.7976 27.7735C27.1286 27.9351 27.4239 28.1602 27.6661 28.4357L32.0367 33.3635L40.8225 19.5243C41.2189 18.8998 41.8499 18.4567 42.5765 18.2925C43.3031 18.1283 44.0659 18.2564 44.6971 18.6486C45.3282 19.0409 45.776 19.6651 45.942 20.3841C46.108 21.103 45.9785 21.8578 45.5821 22.4823L34.7906 39.4817C34.5568 39.8478 34.2402 40.1551 33.8658 40.3795C33.4915 40.6039 33.0696 40.7392 32.6333 40.7747C32.5575 40.7813 32.4834 40.7845 32.4092 40.7845ZM25.5517 28.7178C25.1523 28.7186 24.7682 28.8694 24.4769 29.1397C24.1857 29.41 24.009 29.7797 23.9827 30.174C23.9691 30.3783 23.9963 30.5832 24.0628 30.7771C24.1292 30.971 24.2336 31.15 24.37 31.304L31.2275 39.0381C31.3752 39.2044 31.5569 39.3376 31.7607 39.429C31.9644 39.5204 32.1855 39.5678 32.4092 39.5681H32.5361C32.7803 39.5487 33.0166 39.4733 33.2262 39.3479C33.4359 39.2225 33.6132 39.0506 33.7441 38.8457L44.5355 21.83C44.748 21.4804 44.8135 21.0622 44.7179 20.6654C44.6224 20.2685 44.3733 19.9245 44.0243 19.7072C43.6753 19.49 43.2541 19.4167 42.8512 19.5033C42.4482 19.5898 42.0956 19.8292 41.869 20.17L32.6399 34.7071C32.589 34.7877 32.5196 34.8553 32.4375 34.9046C32.3554 34.9539 32.2627 34.9834 32.1669 34.9909C32.0705 34.9998 31.9733 34.9856 31.8835 34.9495C31.7937 34.9135 31.714 34.8567 31.6511 34.7838L26.735 29.2396C26.5993 29.0854 26.434 28.9595 26.2487 28.869C26.0633 28.7786 25.8617 28.7256 25.6555 28.7129L25.5517 28.7178Z" fill="#0F3384"/>
</g>
<defs>
<clipPath id="clip0_1102_636">
<rect width="65" height="65" fill="white"/>
</clipPath>
</defs>
</svg>
