<svg width="65" height="65" viewBox="0 0 65 65" fill="none" xmlns="http://www.w3.org/2000/svg">
<rect width="65" height="65" fill="white"/>
<path d="M24.0387 4.573C35.4376 4.573 44.5032 12.6606 44.5032 22.4645C44.5032 32.2684 35.4376 40.356 24.0387 40.356C22.4481 40.356 20.9022 40.1812 19.4022 39.8768C18.9943 39.7933 18.5712 39.9134 18.2681 40.1988L18.0857 40.3735C18.0588 40.3982 18.033 40.424 18.0083 40.4509C17.7247 40.7688 14.5833 44.1899 6.55197 44.1899C5.76419 44.1899 5.49301 44.0309 5.01813 43.9204C6.88539 42.6083 9.35635 40.4862 10.2217 36.7218C10.2244 36.7077 10.2269 36.6936 10.2292 36.6794L10.2567 36.5346C10.3459 36.0805 10.1825 35.6136 9.82949 35.3141C5.9532 32.0365 3.57422 27.4996 3.57422 22.4645C3.57422 12.6606 12.6398 4.573 24.0387 4.573Z" stroke="#0F3384" stroke-width="1.5"/>
<path d="M13.8063 17.8441H34.2708C34.5616 17.84 34.8257 17.989 34.9688 18.234C35.1119 18.479 35.1119 18.782 34.9688 19.027C34.8257 19.272 34.5616 19.421 34.2778 19.417L13.8063 19.417C13.5155 19.421 13.2514 19.272 13.1083 19.027C12.9652 18.782 12.9652 18.479 13.1083 18.234C13.2514 17.989 13.5155 17.84 13.8063 17.8441Z" fill="#0F3384"/>
<path d="M13.7993 25.512L25.3176 25.5121C25.6084 25.508 25.8725 25.6571 26.0156 25.902C26.1587 26.147 26.1587 26.45 26.0156 26.695C25.8725 26.94 25.6084 27.089 25.3245 27.085L13.8063 27.085C13.5155 27.089 13.2514 26.94 13.1083 26.695C12.9652 26.45 12.9652 26.147 13.1083 25.902C13.2514 25.6571 13.5155 25.508 13.7993 25.512Z" fill="#0F3384"/>
<path d="M49.7858 18.8479L50.0438 18.9684C57.273 22.4207 61.9179 29.1114 61.9179 36.5222C61.9179 41.7641 59.6628 46.67 55.5264 50.4257L55.2919 50.6387L55.389 50.9402C55.9634 52.7218 57.2214 54.3478 58.9077 55.7982C59.2956 56.1318 59.6752 56.4309 60.0298 56.6917L60.4422 56.986C60.8404 57.2612 61.1927 57.4789 61.4699 57.632C61.6801 57.7464 61.8244 57.9481 61.8653 58.1823C61.9076 58.4209 61.8412 58.6619 61.6853 58.8395C61.4772 59.0786 61.0944 59.3706 60.507 59.6398C59.5858 60.062 58.3873 60.312 56.874 60.312C50.8829 60.312 46.8228 58.6376 44.385 56.3929L44.0154 56.04L43.768 56.0838C42.2886 56.3458 40.818 56.4781 39.3873 56.4781L38.9524 56.4744C30.9935 56.339 23.8154 52.4945 19.8922 46.4973L19.7266 46.2386L19.8103 46.1855C19.9659 46.0824 20.1125 45.9821 20.2497 45.8848L20.4664 45.7265L21.3263 45.811L21.1934 45.6113C24.9077 51.3121 31.8004 54.9052 39.3873 54.9052C40.9297 54.9052 42.5241 54.7406 44.1241 54.4162C44.175 54.4061 44.2267 54.401 44.2785 54.401C44.4813 54.401 44.6754 54.4769 44.8197 54.6134L45.0023 54.7859C45.1985 55.0051 45.4932 55.2849 45.904 55.6075C46.5086 56.0824 47.2327 56.5391 48.0854 56.954C50.3978 58.0791 53.3085 58.7391 56.874 58.7391C57.5021 58.7391 58.0649 58.6883 58.571 58.5934L59.6572 58.3897L58.7788 57.7196C56.2164 55.7649 54.3104 53.3853 53.6863 50.6695L53.6515 50.4971C53.5967 50.2187 53.6972 49.9301 53.914 49.7472C58.0558 46.2478 60.3437 41.5476 60.3437 36.5222L60.3398 36.1659C60.2017 29.8821 56.4171 24.1935 50.4435 20.927L50.0052 20.6941L50.0278 20.9722C49.9828 20.3357 49.92 19.7359 49.8361 19.1634L49.7858 18.8479Z" fill="#0F3384"/>
</svg>
