<svg width="195" height="37" viewBox="0 0 195 37" fill="none" xmlns="http://www.w3.org/2000/svg">
<g clip-path="url(#clip0_548_2341)">
<path d="M191.145 28.7814V6.60715H195V28.8136H191.145V28.7814Z" fill="#2C3543"/>
<path d="M182.828 28.7814V6.60715H186.684V28.8136H182.828V28.7814Z" fill="#2C3543"/>
<path d="M179.579 20.7883C179.579 26.1385 176.934 29.0069 172.059 29.0069C167.184 29.0069 164.539 26.1385 164.539 20.7883C164.539 15.4381 167.184 12.5697 172.059 12.5697C176.934 12.5697 179.579 15.4381 179.579 20.7883ZM175.914 20.7883C175.914 16.4695 174.48 15.6637 172.25 15.6637C170.02 15.6637 168.586 16.4695 168.586 20.7883C168.586 25.1071 170.02 25.9129 172.25 25.9129C174.289 25.9129 175.914 25.1071 175.914 20.7883Z" fill="#2C3543"/>
<path d="M162.914 12.5697V15.8572C160.875 15.8572 158.454 15.8572 158.454 16.8885V28.8136H154.598V14.6324C154.789 12.1507 162.914 12.5697 162.914 12.5697Z" fill="#2C3543"/>
<path d="M139.75 35.1629C142.618 27.9756 142.395 28.588 142.618 27.9756L136.914 12.7631H140.993L144.657 23.8502L148.098 12.7631H152.177L146.091 29.2003L143.86 35.1629H139.75Z" fill="#2C3543"/>
<path d="M134.684 19.1446V28.8136H130.829V18.919C130.829 17.4686 130.414 16.0505 126.973 16.0505C126.078 16.0771 125.189 16.2179 124.329 16.4695V28.8136H120.473V6.60715H124.329V12.9887C125.354 12.5448 126.464 12.3357 127.579 12.3763C132.23 12.5697 134.684 15.0192 134.684 19.1446Z" fill="#2C3543"/>
<path d="M113.368 25.7195C114.763 25.6681 116.141 25.385 117.446 24.8815V28.169C115.96 28.774 114.363 29.0488 112.762 28.9747C107.887 28.9747 105.243 26.1063 105.243 20.7561C105.243 15.4059 107.887 12.3441 112.762 12.3441C114.355 12.3977 115.932 12.6799 117.446 13.1821V16.4695C116.144 15.9611 114.763 15.6883 113.368 15.6638C110.723 15.6638 109.098 16.4695 109.098 20.595C109.098 24.8815 110.723 25.7195 113.368 25.7195Z" fill="#2C3543"/>
<path d="M102.789 18.7256V28.7814H99.1249V18.7256C99.1249 17.2753 99.1249 15.8572 95.8749 15.8572C94.8553 15.8572 92.8161 16.0505 92.8161 16.6629V28.7814H89.1519V15.4382C89.1519 12.7631 92.4019 12.3441 96.4484 12.3441C100.559 12.5697 102.789 14.2134 102.789 18.7256Z" fill="#2C3543"/>
<path d="M85.5196 12.7631V21.5941C85.5196 26.3319 83.8946 29.2003 78.4142 29.2003C72.9338 29.2003 71.5 26.3319 71.5 21.5941V12.7631H75.1642V22.0131C75.1642 24.6882 76.1838 25.4939 78.4142 25.4939C80.6446 25.4939 81.6642 24.6882 81.6642 22.0131V12.7631H85.5196Z" fill="#2C3543"/>
<path d="M68.4732 12.5697V15.8572C66.4339 15.8572 64.0124 15.8572 64.0124 16.8885V28.8136H60.157V14.6324C60.3482 12.1507 68.4732 12.5697 68.4732 12.5697Z" fill="#2C3543"/>
<path d="M52.6054 25.7195C53.931 25.6869 55.2389 25.4027 56.4608 24.8815V28.169C54.9746 28.774 53.3772 29.0488 51.7769 28.9747C46.9019 28.9747 44.2573 26.1063 44.2573 20.7561C44.2573 15.4059 46.9019 12.3441 51.7769 12.3441C53.3695 12.3977 54.9466 12.6799 56.4608 13.1821V16.4695C55.2306 15.9801 53.9266 15.7076 52.6054 15.6638C49.9608 15.6638 48.3358 16.4695 48.3358 20.595C48.1446 24.8815 49.9926 25.7195 52.6054 25.7195Z" fill="#2C3543"/>
<path d="M4.49266 20.7883C4.5019 16.5928 6.11468 12.5634 8.99359 9.54306C11.8725 6.52274 15.7945 4.74551 19.9392 4.58314C24.0838 4.42077 28.1299 5.88586 31.2312 8.6719C34.3324 11.4579 36.2484 15.3491 36.5784 19.5313V18.5C36.5784 14.841 35.5058 11.2642 33.4962 8.22193C31.4865 5.17962 28.6301 2.80843 25.2882 1.40821C21.9463 0.00798536 18.2689 -0.358377 14.7212 0.35545C11.1734 1.06928 7.91459 2.83123 5.3568 5.4185C2.799 8.00577 1.05712 11.3022 0.35143 14.8908C-0.354263 18.4795 0.00792439 22.1992 1.39219 25.5796C2.77646 28.9601 5.12063 31.8494 8.12828 33.8822C11.1359 35.915 14.672 37 18.2892 37H19.5C15.4375 36.7128 11.6326 34.882 8.84909 31.8751C6.06554 28.8682 4.50929 24.9077 4.49266 20.7883V20.7883Z" fill="#2C3543"/>
<path d="M29.25 21.5941C27.8695 21.5999 26.5313 21.1132 25.4707 20.2194C24.4101 19.3256 23.6951 18.0821 23.4515 16.7076C23.2079 15.3332 23.4513 13.9159 24.1389 12.7051C24.8266 11.4943 25.9143 10.5676 27.2108 10.088C25.3977 9.11102 23.3703 8.6122 21.3162 8.63765C18.7828 8.63765 16.3064 9.39753 14.2 10.8212C12.0936 12.2449 10.4518 14.2684 9.48234 16.6359C8.51287 19.0034 8.25922 21.6085 8.75345 24.1218C9.24768 26.6351 10.4676 28.9437 12.2589 30.7557C14.0503 32.5677 16.3326 33.8017 18.8173 34.3016C21.3019 34.8015 23.8774 34.5449 26.2179 33.5643C28.5584 32.5836 30.5588 30.923 31.9663 28.7923C33.3737 26.6616 34.125 24.1566 34.125 21.5941V21.5941C34.1565 20.7622 34.0923 19.9293 33.9338 19.1124C33.4461 19.9141 32.7535 20.5678 31.9292 21.0045C31.1048 21.4413 30.1792 21.645 29.25 21.5941V21.5941Z" fill="#2C3543"/>
</g>
<defs>
<clipPath id="clip0_548_2341">
<rect width="195" height="37" fill="white"/>
</clipPath>
</defs>
</svg>
