<svg width="65" height="65" viewBox="0 0 65 65" fill="none" xmlns="http://www.w3.org/2000/svg">
<rect width="65" height="65" fill="white"/>
<path d="M56.6952 44.3007C57.4128 41.8131 57.7714 39.2326 57.7608 36.6401C58.0489 32.7226 56.9737 28.8269 54.7234 25.6351C52.473 22.4433 49.1915 20.1588 45.4526 19.1819C45.8836 18.617 46.1217 17.9245 46.1309 17.2093V16.8146C46.1334 16.3819 46.0519 15.9532 45.8912 15.5526C45.7304 15.152 45.4934 14.7876 45.1939 14.4804C47.5523 9.12129 47.8756 6.09653 46.228 4.61702C44.5803 3.13751 40.0574 5.24159 38.119 6.5567C36.1484 5.24159 32.0454 2.87449 29.9778 4.61702C27.9102 6.35955 28.6527 9.05554 31.0434 14.4804C30.7381 14.7849 30.4959 15.1481 30.3296 15.5488C30.1632 15.9495 30.0766 16.3796 30.0748 16.8146V17.2093C30.0841 17.9245 30.3221 18.617 30.7531 19.1819C27.0142 20.1588 23.7319 22.4433 21.4816 25.6351C19.2312 28.8269 18.1561 32.7226 18.4442 36.6401C18.4442 37.5607 18.4442 38.4484 18.4442 39.3361H16.2153C16.0914 38.5581 15.6969 37.8513 15.1039 37.3444C14.511 36.8375 13.759 36.5641 12.9846 36.5743H5.23063C4.37382 36.5743 3.55234 36.9207 2.94647 37.5373C2.34061 38.1539 2 38.9901 2 39.862V56.6299C2 57.5019 2.34061 58.3381 2.94647 58.9547C3.55234 59.5712 4.37382 59.9177 5.23063 59.9177H12.9846C13.7314 59.9363 14.4613 59.6907 15.0503 59.2232C15.6393 58.7556 16.0511 58.0948 16.2153 57.3531C20.6455 59.5701 25.5255 60.6964 30.4621 60.6409C41.0902 60.2613 51.3543 56.6036 59.8935 50.1528C60.4471 49.7816 60.9195 49.2979 61.2808 48.7321C61.6422 48.1663 61.8844 47.5307 61.9931 46.8651C62.0252 46.3969 61.9453 45.9279 61.7596 45.4983C61.5739 45.0687 61.2876 44.6914 60.9267 44.3992C60.1514 43.6101 58.892 43.6431 56.6952 44.3007ZM14.1472 55.479V56.6299C14.1472 56.9002 14.0416 57.1594 13.8538 57.3505C13.666 57.5416 13.4119 57.6491 13.1463 57.6491H5.39232C5.12671 57.6491 4.87186 57.5416 4.68404 57.3505C4.49623 57.1594 4.39064 56.9002 4.39064 56.6299V39.862C4.39064 39.5917 4.49623 39.3326 4.68404 39.1414C4.87186 38.9503 5.12671 38.8428 5.39232 38.8428H13.1463C13.4119 38.8428 13.666 38.9503 13.8538 39.1414C14.0416 39.3326 14.1472 39.5917 14.1472 39.862V55.479ZM31.3991 6.45818C32.0129 5.93213 34.9524 7.14864 37.4399 8.95693C37.6376 9.08582 37.8677 9.15419 38.1025 9.15419C38.3372 9.15419 38.5673 9.08582 38.765 8.95693C41.2526 7.14864 44.1921 5.93213 44.8059 6.45818C44.8059 6.45818 45.8073 7.44442 43.1259 13.5597H33.0791C30.5592 7.44442 31.3668 6.49105 31.3991 6.45818ZM43.8697 16.8146V17.2093C43.8697 17.4796 43.7641 17.7388 43.5763 17.9299C43.3884 18.1211 43.1336 18.2285 42.868 18.2285H33.3378C33.0722 18.2285 32.8173 18.1211 32.6295 17.9299C32.4417 17.7388 32.3361 17.4796 32.3361 17.2093V16.8146C32.3361 16.5443 32.4417 16.2851 32.6295 16.094C32.8173 15.9028 33.0722 15.7954 33.3378 15.7954H42.868C43.1336 15.7954 43.3884 15.9028 43.5763 16.094C43.7641 16.2851 43.8697 16.5443 43.8697 16.8146ZM38.119 20.4971C43.3527 20.4971 55.5318 22.0752 55.5318 36.6401C55.5375 39.5702 55.0232 42.4772 54.0135 45.2212C53.1735 45.4842 52.301 45.8129 51.2995 46.2075L46.1956 48.0815C46.2659 47.414 46.1987 46.7389 45.9984 46.0993C45.7982 45.4596 45.469 44.8694 45.0322 44.3663C44.6316 43.9715 44.1549 43.6655 43.6323 43.4675C43.1096 43.2694 42.5525 43.1837 41.9956 43.2157C34.5329 43.2157 33.2725 42.5909 31.8187 41.7032C30.3649 40.8155 28.5884 39.7307 20.8672 39.4019C20.7383 38.4872 20.6734 37.5642 20.6732 36.6401C20.6732 22.0423 32.8531 20.4971 38.119 20.4971ZM58.7301 48.1802C35.5018 64.2575 19.3492 56.5312 16.4093 54.7558V41.6047H19.6399C27.4904 41.8677 29.0729 42.8211 30.4944 43.6431C31.9159 44.465 33.7251 45.5828 41.8986 45.4513C42.3828 45.4554 42.8505 45.6297 43.2229 45.9446C43.4415 46.2238 43.6008 46.5464 43.6898 46.8917C43.7788 47.2371 43.7961 47.5976 43.7403 47.9501C43.7355 48.114 43.6913 48.2743 43.6125 48.4174C43.5338 48.5605 43.4224 48.6822 43.2876 48.772C42.383 49.5611 39.4429 50.6461 30.171 49.4296C29.8757 49.3922 29.5779 49.4748 29.3421 49.6594C29.1062 49.844 28.9517 50.1159 28.9114 50.4159C28.8887 50.5654 28.8958 50.7179 28.9327 50.8644C28.9697 51.0109 29.0361 51.1483 29.1267 51.2682C29.2173 51.388 29.3307 51.4878 29.4604 51.5618C29.59 51.6357 29.733 51.6822 29.8808 51.6982C32.3318 52.0525 34.8035 52.2392 37.279 52.2571C39.2366 52.3288 41.1921 52.062 43.062 51.468C46.5511 50.3173 49.5231 49.2323 51.8169 48.1802C54.1848 47.0707 56.6981 46.3176 59.279 45.9446C59.6344 46.2734 59.6024 46.4706 59.6024 46.5364C59.6024 46.6021 59.1501 47.8843 58.7301 48.3446V48.1802Z" fill="#0F3384"/>
<path d="M9.49769 47.5715C9.21403 47.5715 8.94251 47.6869 8.74193 47.892C8.54135 48.0971 8.42859 48.3751 8.42859 48.6652V54.1029C8.42859 54.3929 8.54135 54.671 8.74193 54.8761C8.94251 55.0812 9.21403 55.1965 9.49769 55.1965C9.78135 55.1965 10.0536 55.0812 10.2542 54.8761C10.4548 54.671 10.5675 54.3929 10.5675 54.1029V48.7591C10.5803 48.6077 10.5618 48.4553 10.5138 48.3116C10.4658 48.1679 10.3891 48.0361 10.2885 47.9244C10.1879 47.8127 10.0658 47.7234 9.92965 47.6627C9.79353 47.602 9.6462 47.571 9.49769 47.5715V47.5715Z" fill="#0F3384"/>
<path d="M36.1599 36.2212C35.5732 36.011 34.9638 35.877 34.3458 35.8221C34.2006 35.8116 34.0547 35.8327 33.9177 35.8842C33.7808 35.9358 33.6558 36.0165 33.5503 36.1213C33.4361 36.2088 33.3448 36.3245 33.2838 36.4579C33.2227 36.5914 33.1942 36.7385 33.2006 36.8863C33.1972 37.0622 33.2393 37.2359 33.3234 37.3883C33.4075 37.5407 33.5302 37.6662 33.6777 37.7511C34.9557 38.4771 36.3923 38.8438 37.8466 38.8154V38.8154C37.8549 39.1184 37.9758 39.4059 38.1838 39.6171C38.3918 39.8283 38.67 39.9465 38.96 39.9464C39.2499 39.9465 39.5289 39.8283 39.7369 39.6171C39.9449 39.4059 40.0658 39.1184 40.0741 38.8154C41.1467 38.7092 42.1757 38.3202 43.0652 37.6847C43.619 37.3467 44.0765 36.86 44.3899 36.2752C44.7032 35.6904 44.8612 35.0287 44.8475 34.3586C44.8996 33.6613 44.7399 32.9644 44.3914 32.3673C44.0429 31.7702 43.523 31.3032 42.9059 31.0326C42.2955 30.7201 41.656 30.4748 40.997 30.3007L40.0741 30.0346V26.243L41.2829 26.6088C41.6215 26.6451 41.9629 26.6451 42.3015 26.6088C42.6043 26.6275 42.9019 26.5197 43.1289 26.3094C43.2403 26.2063 43.3269 26.0774 43.3822 25.933C43.4374 25.7886 43.4601 25.6328 43.4474 25.4779C43.4463 25.3415 43.4097 25.2079 43.3426 25.0909C43.2754 24.974 43.1798 24.8778 43.0652 24.8126C42.0993 24.2157 41.0046 23.8839 39.8829 23.8481V23.6819C39.8829 23.3731 39.7655 23.077 39.5566 22.8587C39.3478 22.6404 39.065 22.5178 38.7696 22.5178C38.4742 22.5178 38.1907 22.6404 37.9818 22.8587C37.7729 23.077 37.6555 23.3731 37.6555 23.6819V23.8814C36.6355 24.0239 35.6581 24.3986 34.7918 24.9791C34.2498 25.3254 33.8047 25.8155 33.5029 26.3997C33.201 26.984 33.053 27.6415 33.0732 28.3052C33.0811 28.9234 33.2718 29.5237 33.6194 30.024C33.967 30.5243 34.454 30.8998 35.014 31.0989C35.6228 31.3701 36.2507 31.5925 36.8918 31.7642L37.6555 31.9637V36.5204C37.1508 36.4581 36.651 36.3581 36.1599 36.2212V36.2212ZM40.0741 32.5957C41.2197 33.0281 41.7926 33.6269 41.7926 34.3586C41.8063 34.7202 41.7204 35.0783 41.5455 35.3907C41.3707 35.7031 41.1142 35.9565 40.8059 36.1213L40.0741 36.4539V32.5957ZM36.3192 28.0057C36.3191 27.7027 36.4026 27.4062 36.5608 27.1523C36.719 26.8984 36.9444 26.698 37.2096 26.5755C37.4073 26.453 37.6226 26.3632 37.8466 26.3094V29.6355C36.8283 29.1476 36.3192 28.6044 36.3192 28.0057V28.0057Z" fill="#0F3384"/>
</svg>
