<svg width="628" height="400" viewBox="0 0 628 400" fill="none" xmlns="http://www.w3.org/2000/svg">
<path d="M589.39 225.756C589.139 225.756 588.926 225.544 588.926 225.293V220.693C588.926 220.442 589.139 220.229 589.39 220.229C589.641 220.229 589.854 220.442 589.854 220.693V225.312C589.854 225.563 589.641 225.756 589.39 225.756ZM589.39 216.577C589.139 216.577 588.926 216.364 588.926 216.113V211.513C588.926 211.262 589.139 211.049 589.39 211.049C589.641 211.049 589.854 211.262 589.854 211.513V216.113C589.854 216.364 589.641 216.577 589.39 216.577ZM589.39 207.377C589.139 207.377 588.926 207.165 588.926 206.913V202.314C588.926 202.063 589.139 201.85 589.39 201.85C589.641 201.85 589.854 202.063 589.854 202.314V206.913C589.854 207.184 589.641 207.377 589.39 207.377ZM589.39 198.197C589.139 198.197 588.926 197.985 588.926 197.733V193.134C588.926 192.883 589.139 192.67 589.39 192.67C589.641 192.67 589.854 192.883 589.854 193.134V197.733C589.854 197.985 589.641 198.197 589.39 198.197ZM589.39 188.998C589.139 188.998 588.926 188.785 588.926 188.534V183.954C588.926 183.703 589.139 183.49 589.39 183.49C589.641 183.49 589.854 183.703 589.854 183.954V188.554C589.854 188.805 589.641 188.998 589.39 188.998ZM589.39 179.818C589.139 179.818 588.926 179.605 588.926 179.354V174.755C588.926 174.503 589.139 174.291 589.39 174.291C589.641 174.291 589.854 174.503 589.854 174.755V179.354C589.854 179.605 589.641 179.818 589.39 179.818Z" fill="#4C4FEE"/>
<path d="M133.259 183.152C133.259 182.901 133.472 182.688 133.723 182.688L138.323 182.688C138.574 182.688 138.787 182.901 138.787 183.152C138.787 183.403 138.574 183.616 138.323 183.616L133.704 183.616C133.453 183.616 133.259 183.403 133.259 183.152ZM142.439 183.152C142.439 182.901 142.652 182.688 142.903 182.688L147.503 182.688C147.754 182.688 147.967 182.901 147.967 183.152C147.967 183.403 147.754 183.616 147.503 183.616L142.903 183.616C142.652 183.616 142.439 183.403 142.439 183.152ZM151.639 183.152C151.639 182.901 151.851 182.688 152.102 182.688L156.702 182.688C156.953 182.688 157.166 182.901 157.166 183.152C157.166 183.403 156.953 183.616 156.702 183.616L152.102 183.616C151.832 183.616 151.639 183.403 151.639 183.152ZM160.819 183.152C160.819 182.901 161.031 182.688 161.282 182.688L165.882 182.688C166.133 182.688 166.346 182.901 166.346 183.152C166.346 183.403 166.133 183.616 165.882 183.616L161.282 183.616C161.031 183.616 160.819 183.403 160.819 183.152ZM170.018 183.152C170.018 182.901 170.23 182.688 170.482 182.688L175.062 182.688C175.313 182.688 175.526 182.901 175.526 183.152C175.526 183.403 175.313 183.616 175.062 183.616L170.462 183.616C170.211 183.616 170.018 183.403 170.018 183.152ZM179.198 183.152C179.198 182.901 179.41 182.688 179.662 182.688L184.261 182.688C184.513 182.688 184.725 182.901 184.725 183.152C184.725 183.403 184.513 183.616 184.261 183.616L179.662 183.616C179.41 183.616 179.198 183.403 179.198 183.152Z" fill="#4C4FEE"/>
<path d="M64.3209 176.646H86.162C87.1983 176.646 88.022 177.469 88.022 178.506C88.022 179.542 87.1983 180.366 86.162 180.366H64.3209C63.2846 180.366 62.4609 179.542 62.4609 178.506C62.4875 177.496 63.3112 176.646 64.3209 176.646Z" fill="white"/>
<rect x="456.332" y="102.547" width="106.348" height="195.778" rx="17.7247" fill="white"/>
<rect x="458.749" y="103.732" width="103.126" height="15.3077" fill="#F0EFF3"/>
<rect x="467.612" y="129.514" width="83.7896" height="111.988" fill="#F0EFF3"/>
<path d="M386.486 96.3098H430.661C432.168 96.3098 433.424 97.5467 433.424 99.0735V106.959C433.424 108.466 432.187 109.722 430.661 109.722H386.486C384.959 109.722 383.722 108.485 383.722 106.959V99.0735C383.722 97.566 384.978 96.3098 386.486 96.3098Z" fill="#4C4FEE"/>
<path d="M386.486 115.817H430.661C432.168 115.817 433.424 117.054 433.424 118.581V126.466C433.424 127.974 432.187 129.23 430.661 129.23H386.486C384.959 129.23 383.722 127.993 383.722 126.466V118.581C383.722 117.074 384.978 115.817 386.486 115.817Z" fill="#4C4FEE"/>
<path d="M544.414 166.346C539.473 164.604 521.79 156.022 515.735 154.296C514.858 162.097 509.2 168.162 509.2 168.162C509.2 168.162 503.542 162.097 502.665 154.296C496.609 156.022 478.923 164.604 473.983 166.346L473.251 166.602L475.216 178.153L486.159 176.357V214.335H532.238V176.357L543.181 178.153L545.149 166.602L544.414 166.346Z" fill="#4955EF"/>
<path d="M244.317 252.344C244.066 252.344 243.854 252.131 243.854 251.88V250.952C243.854 250.701 244.066 250.488 244.317 250.488C244.569 250.488 244.781 250.701 244.781 250.952V251.88C244.781 252.131 244.569 252.344 244.317 252.344ZM244.317 246.816C244.066 246.816 243.854 246.604 243.854 246.352V241.753C243.854 241.502 244.066 241.289 244.317 241.289C244.569 241.289 244.781 241.502 244.781 241.753V246.352C244.781 246.604 244.569 246.816 244.317 246.816ZM244.317 237.617C244.066 237.617 243.854 237.404 243.854 237.153V232.554C243.854 232.302 244.066 232.09 244.317 232.09C244.569 232.09 244.781 232.302 244.781 232.554V237.172C244.781 237.424 244.569 237.617 244.317 237.617ZM244.317 228.437C244.066 228.437 243.854 228.224 243.854 227.973V223.374C243.854 223.122 244.066 222.91 244.317 222.91C244.569 222.91 244.781 223.122 244.781 223.374V227.973C244.781 228.224 244.569 228.437 244.317 228.437ZM244.317 219.238C244.066 219.238 243.854 219.025 243.854 218.774V214.174C243.854 213.923 244.066 213.71 244.317 213.71C244.569 213.71 244.781 213.923 244.781 214.174V218.774C244.781 219.044 244.569 219.238 244.317 219.238ZM244.317 210.058C244.066 210.058 243.854 209.845 243.854 209.594V204.994C243.854 204.743 244.066 204.531 244.317 204.531C244.569 204.531 244.781 204.743 244.781 204.994V209.594C244.781 209.845 244.569 210.058 244.317 210.058ZM244.317 200.859C244.066 200.859 243.854 200.646 243.854 200.395V195.814C243.854 195.563 244.066 195.351 244.317 195.351C244.569 195.351 244.781 195.563 244.781 195.814V200.414C244.781 200.665 244.569 200.859 244.317 200.859ZM244.317 191.679C244.066 191.679 243.854 191.466 243.854 191.215V186.615C243.854 186.364 244.066 186.151 244.317 186.151C244.569 186.151 244.781 186.364 244.781 186.615V191.215C244.781 191.466 244.569 191.679 244.317 191.679ZM244.317 182.479C244.066 182.479 243.854 182.267 243.854 182.016V177.416C243.854 177.165 244.066 176.952 244.317 176.952C244.569 176.952 244.781 177.165 244.781 177.416V182.016C244.781 182.267 244.569 182.479 244.317 182.479ZM244.317 173.299C244.066 173.299 243.854 173.087 243.854 172.836V168.236C243.854 167.985 244.066 167.772 244.317 167.772C244.569 167.772 244.781 167.985 244.781 168.236V172.836C244.781 173.087 244.569 173.299 244.317 173.299ZM244.317 164.1C244.066 164.1 243.854 163.888 243.854 163.636V159.037C243.854 158.785 244.066 158.573 244.317 158.573C244.569 158.573 244.781 158.785 244.781 159.037V163.636C244.781 163.888 244.569 164.1 244.317 164.1ZM244.317 154.901C244.066 154.901 243.854 154.688 243.854 154.437V149.837C243.854 149.586 244.066 149.374 244.317 149.374C244.569 149.374 244.781 149.586 244.781 149.837V154.456C244.781 154.708 244.569 154.901 244.317 154.901ZM244.317 145.721C244.066 145.721 243.854 145.508 243.854 145.257V140.657C243.854 140.406 244.066 140.194 244.317 140.194C244.569 140.194 244.781 140.406 244.781 140.657V145.257C244.781 145.508 244.569 145.721 244.317 145.721ZM244.317 136.522C244.066 136.522 243.854 136.309 243.854 136.058V131.458C243.854 131.207 244.066 130.994 244.317 130.994C244.569 130.994 244.781 131.207 244.781 131.458V136.058C244.781 136.328 244.569 136.522 244.317 136.522ZM244.317 127.342C244.066 127.342 243.854 127.129 243.854 126.878V122.278C243.854 122.027 244.066 121.814 244.317 121.814C244.569 121.814 244.781 122.027 244.781 122.278V126.878C244.781 127.129 244.569 127.342 244.317 127.342ZM244.317 118.142C244.066 118.142 243.854 117.93 243.854 117.679V113.098C243.854 112.847 244.066 112.634 244.317 112.634C244.569 112.634 244.781 112.847 244.781 113.098V117.698C244.781 117.949 244.569 118.142 244.317 118.142ZM244.317 108.962C244.066 108.962 243.854 108.75 243.854 108.499V103.899C243.854 103.648 244.066 103.435 244.317 103.435C244.569 103.435 244.781 103.648 244.781 103.899V108.499C244.781 108.75 244.569 108.962 244.317 108.962ZM244.317 99.7632C244.066 99.7632 243.854 99.5506 243.854 99.2994V94.7191C243.854 94.4678 244.066 94.2552 244.317 94.2552C244.569 94.2552 244.781 94.4678 244.781 94.7191V99.3187C244.781 99.5506 244.569 99.7632 244.317 99.7632ZM496.034 97.1542C495.783 97.1542 495.57 96.9416 495.57 96.6903V94.7577C495.57 93.9074 495.473 93.057 495.261 92.226C495.203 91.9747 495.357 91.7235 495.589 91.6655C495.841 91.6075 496.092 91.7622 496.15 91.9941C496.362 92.8831 496.478 93.8107 496.478 94.7384V96.671C496.498 96.9416 496.285 97.1542 496.034 97.1542ZM245.013 90.6606C244.955 90.6606 244.897 90.6412 244.839 90.6219C244.607 90.5253 244.491 90.2547 244.588 90.0228C245.168 88.5347 246.114 87.1819 247.293 86.0996C247.486 85.9256 247.776 85.945 247.95 86.1189C248.124 86.3122 248.105 86.6021 247.931 86.776C246.849 87.7616 245.998 88.9985 245.477 90.3513C245.361 90.5446 245.187 90.6606 245.013 90.6606ZM493.734 88.4767C493.599 88.4767 493.464 88.4187 493.367 88.3028C492.459 87.1432 491.319 86.1769 490.024 85.4811C489.792 85.3652 489.715 85.0753 489.831 84.8627C489.947 84.6308 490.237 84.5535 490.449 84.6694C491.84 85.4232 493.097 86.4668 494.082 87.723C494.237 87.9162 494.198 88.2061 494.005 88.3607C493.927 88.4381 493.831 88.4767 493.734 88.4767ZM251.564 84.6694C251.371 84.6694 251.177 84.5342 251.119 84.3409C251.042 84.0897 251.177 83.8384 251.429 83.7611C252.395 83.4712 253.4 83.3359 254.424 83.3359H256.105C256.356 83.3359 256.569 83.5485 256.569 83.7998C256.569 84.051 256.356 84.2636 256.105 84.2636H254.424C253.496 84.2636 252.569 84.3989 251.68 84.6501C251.641 84.6694 251.602 84.6694 251.564 84.6694ZM485.85 84.2829C485.831 84.2829 485.831 84.2829 485.811 84.2829C485.56 84.2636 485.328 84.2636 485.077 84.2636H481.251C481 84.2636 480.787 84.051 480.787 83.7998C480.787 83.5485 481 83.3359 481.251 83.3359H485.077C485.348 83.3359 485.618 83.3359 485.889 83.3553C486.14 83.3746 486.333 83.5872 486.314 83.8384C486.294 84.0897 486.101 84.2829 485.85 84.2829ZM476.671 84.2636H472.072C471.821 84.2636 471.608 84.051 471.608 83.7998C471.608 83.5485 471.821 83.3359 472.072 83.3359H476.671C476.922 83.3359 477.135 83.5485 477.135 83.7998C477.115 84.051 476.922 84.2636 476.671 84.2636ZM467.473 84.2636H462.874C462.622 84.2636 462.41 84.051 462.41 83.7998C462.41 83.5485 462.622 83.3359 462.874 83.3359H467.473C467.724 83.3359 467.936 83.5485 467.936 83.7998C467.936 84.051 467.724 84.2636 467.473 84.2636ZM458.294 84.2636H453.695C453.443 84.2636 453.231 84.051 453.231 83.7998C453.231 83.5485 453.443 83.3359 453.695 83.3359H458.294C458.545 83.3359 458.758 83.5485 458.758 83.7998C458.738 84.051 458.545 84.2636 458.294 84.2636ZM449.095 84.2636H444.496C444.245 84.2636 444.033 84.051 444.033 83.7998C444.033 83.5485 444.245 83.3359 444.496 83.3359H449.095C449.347 83.3359 449.559 83.5485 449.559 83.7998C449.559 84.051 449.347 84.2636 449.095 84.2636ZM439.897 84.2636H435.298C435.047 84.2636 434.834 84.051 434.834 83.7998C434.834 83.5485 435.047 83.3359 435.298 83.3359H439.897C440.148 83.3359 440.361 83.5485 440.361 83.7998C440.361 84.051 440.168 84.2636 439.897 84.2636ZM430.718 84.2636H426.119C425.868 84.2636 425.655 84.051 425.655 83.7998C425.655 83.5485 425.868 83.3359 426.119 83.3359H430.718C430.969 83.3359 431.182 83.5485 431.182 83.7998C431.182 84.051 430.969 84.2636 430.718 84.2636ZM421.52 84.2636H416.921C416.669 84.2636 416.457 84.051 416.457 83.7998C416.457 83.5485 416.669 83.3359 416.921 83.3359H421.52C421.771 83.3359 421.984 83.5485 421.984 83.7998C421.984 84.051 421.771 84.2636 421.52 84.2636ZM412.341 84.2636H407.742C407.491 84.2636 407.278 84.051 407.278 83.7998C407.278 83.5485 407.491 83.3359 407.742 83.3359H412.341C412.592 83.3359 412.805 83.5485 412.805 83.7998C412.805 84.051 412.592 84.2636 412.341 84.2636ZM403.143 84.2636H398.543C398.292 84.2636 398.08 84.051 398.08 83.7998C398.08 83.5485 398.292 83.3359 398.543 83.3359H403.143C403.394 83.3359 403.606 83.5485 403.606 83.7998C403.606 84.051 403.394 84.2636 403.143 84.2636ZM393.964 84.2636H389.364C389.113 84.2636 388.901 84.051 388.901 83.7998C388.901 83.5485 389.113 83.3359 389.364 83.3359H393.964C394.215 83.3359 394.427 83.5485 394.427 83.7998C394.408 84.051 394.215 84.2636 393.964 84.2636ZM384.765 84.2636H380.166C379.915 84.2636 379.702 84.051 379.702 83.7998C379.702 83.5485 379.915 83.3359 380.166 83.3359H384.765C385.017 83.3359 385.229 83.5485 385.229 83.7998C385.229 84.051 385.017 84.2636 384.765 84.2636ZM375.586 84.2636H370.987C370.736 84.2636 370.523 84.051 370.523 83.7998C370.523 83.5485 370.736 83.3359 370.987 83.3359H375.586C375.838 83.3359 376.05 83.5485 376.05 83.7998C376.031 84.051 375.838 84.2636 375.586 84.2636ZM366.388 84.2636H361.789C361.538 84.2636 361.325 84.051 361.325 83.7998C361.325 83.5485 361.538 83.3359 361.789 83.3359H366.388C366.639 83.3359 366.852 83.5485 366.852 83.7998C366.852 84.051 366.639 84.2636 366.388 84.2636ZM357.19 84.2636H352.591C352.339 84.2636 352.127 84.051 352.127 83.7998C352.127 83.5485 352.339 83.3359 352.591 83.3359H357.19C357.441 83.3359 357.654 83.5485 357.654 83.7998C357.654 84.051 357.46 84.2636 357.19 84.2636ZM348.011 84.2636H343.412C343.16 84.2636 342.948 84.051 342.948 83.7998C342.948 83.5485 343.16 83.3359 343.412 83.3359H348.011C348.262 83.3359 348.475 83.5485 348.475 83.7998C348.475 84.051 348.262 84.2636 348.011 84.2636ZM338.812 84.2636H334.213C333.962 84.2636 333.75 84.051 333.75 83.7998C333.75 83.5485 333.962 83.3359 334.213 83.3359H338.812C339.064 83.3359 339.276 83.5485 339.276 83.7998C339.276 84.051 339.064 84.2636 338.812 84.2636ZM329.633 84.2636H325.034C324.783 84.2636 324.571 84.051 324.571 83.7998C324.571 83.5485 324.783 83.3359 325.034 83.3359H329.633C329.885 83.3359 330.097 83.5485 330.097 83.7998C330.078 84.051 329.885 84.2636 329.633 84.2636ZM320.435 84.2636H315.836C315.585 84.2636 315.372 84.051 315.372 83.7998C315.372 83.5485 315.585 83.3359 315.836 83.3359H320.435C320.686 83.3359 320.899 83.5485 320.899 83.7998C320.899 84.051 320.686 84.2636 320.435 84.2636ZM311.256 84.2636H306.657C306.406 84.2636 306.193 84.051 306.193 83.7998C306.193 83.5485 306.406 83.3359 306.657 83.3359H311.256C311.507 83.3359 311.72 83.5485 311.72 83.7998C311.701 84.051 311.507 84.2636 311.256 84.2636ZM302.058 84.2636H297.459C297.208 84.2636 296.995 84.051 296.995 83.7998C296.995 83.5485 297.208 83.3359 297.459 83.3359H302.058C302.309 83.3359 302.522 83.5485 302.522 83.7998C302.522 84.051 302.309 84.2636 302.058 84.2636ZM292.86 84.2636H288.26C288.009 84.2636 287.797 84.051 287.797 83.7998C287.797 83.5485 288.009 83.3359 288.26 83.3359H292.86C293.111 83.3359 293.323 83.5485 293.323 83.7998C293.323 84.051 293.13 84.2636 292.86 84.2636ZM283.681 84.2636H279.081C278.83 84.2636 278.618 84.051 278.618 83.7998C278.618 83.5485 278.83 83.3359 279.081 83.3359H283.681C283.932 83.3359 284.144 83.5485 284.144 83.7998C284.144 84.051 283.932 84.2636 283.681 84.2636ZM274.482 84.2636H269.883C269.632 84.2636 269.419 84.051 269.419 83.7998C269.419 83.5485 269.632 83.3359 269.883 83.3359H274.482C274.734 83.3359 274.946 83.5485 274.946 83.7998C274.946 84.051 274.753 84.2636 274.482 84.2636ZM265.303 84.2636H260.704C260.453 84.2636 260.24 84.051 260.24 83.7998C260.24 83.5485 260.453 83.3359 260.704 83.3359H265.303C265.555 83.3359 265.767 83.5485 265.767 83.7998C265.767 84.051 265.555 84.2636 265.303 84.2636Z" fill="#4955EF"/>
<circle cx="92.17" cy="263.806" r="17.7247" fill="#E4E8ED"/>
<circle cx="347.567" cy="185.656" r="36.2551" fill="#E4E8ED"/>
<path d="M285.53 285.559H451.498" stroke="#FCD31D" stroke-width="0.805669" stroke-linecap="square" stroke-dasharray="4.83 4.83"/>
<path d="M284.725 275.085H450.692" stroke="#FF783F" stroke-width="0.805669" stroke-linecap="square" stroke-dasharray="4.83 4.83"/>
<path d="M217.593 183.783C217.341 183.783 217.129 183.57 217.129 183.319V178.719C217.129 178.468 217.341 178.255 217.593 178.255C217.844 178.255 218.056 178.468 218.056 178.719V183.319C218.037 183.589 217.844 183.783 217.593 183.783ZM217.593 174.603C217.341 174.603 217.129 174.39 217.129 174.139V169.539C217.129 169.288 217.341 169.075 217.593 169.075C217.844 169.075 218.056 169.288 218.056 169.539V174.139C218.037 174.39 217.844 174.603 217.593 174.603ZM217.593 165.403C217.341 165.403 217.129 165.191 217.129 164.94V160.34C217.129 160.089 217.341 159.876 217.593 159.876C217.844 159.876 218.056 160.089 218.056 160.34V164.94C218.037 165.21 217.844 165.403 217.593 165.403ZM217.593 156.223C217.341 156.223 217.129 156.011 217.129 155.76V151.16C217.129 150.909 217.341 150.696 217.593 150.696C217.844 150.696 218.056 150.909 218.056 151.16V155.76C218.037 156.011 217.844 156.223 217.593 156.223ZM217.593 147.024C217.341 147.024 217.129 146.812 217.129 146.56V141.961C217.129 141.71 217.341 141.497 217.593 141.497C217.844 141.497 218.056 141.71 218.056 141.961V146.56C218.037 146.831 217.844 147.024 217.593 147.024ZM217.593 137.844C217.341 137.844 217.129 137.632 217.129 137.38V132.781C217.129 132.53 217.341 132.317 217.593 132.317C217.844 132.317 218.056 132.53 218.056 132.781V137.38C218.037 137.632 217.844 137.844 217.593 137.844ZM217.593 128.645C217.341 128.645 217.129 128.432 217.129 128.181V123.582C217.129 123.33 217.341 123.118 217.593 123.118C217.844 123.118 218.056 123.33 218.056 123.582V128.181C218.037 128.432 217.844 128.645 217.593 128.645ZM217.593 119.465C217.341 119.465 217.129 119.252 217.129 119.001V114.402C217.129 114.15 217.341 113.938 217.593 113.938C217.844 113.938 218.056 114.15 218.056 114.402V119.001C218.037 119.252 217.844 119.465 217.593 119.465ZM217.883 110.285C217.844 110.285 217.805 110.285 217.767 110.266C217.515 110.208 217.361 109.957 217.419 109.705C217.786 108.159 218.52 106.69 219.544 105.434C219.699 105.241 219.989 105.202 220.182 105.376C220.375 105.531 220.414 105.821 220.24 106.014C219.313 107.154 218.636 108.488 218.308 109.918C218.269 110.15 218.076 110.285 217.883 110.285ZM223.487 103.405C223.313 103.405 223.158 103.308 223.061 103.134C222.945 102.903 223.042 102.632 223.274 102.516C224.723 101.84 226.269 101.492 227.873 101.492L227.912 102.419C226.405 102.419 224.975 102.729 223.66 103.366C223.622 103.386 223.564 103.405 223.487 103.405ZM384.167 102.419H379.568C379.317 102.419 379.104 102.207 379.104 101.956C379.104 101.704 379.317 101.492 379.568 101.492H384.167C384.418 101.492 384.631 101.704 384.631 101.956C384.631 102.207 384.418 102.419 384.167 102.419ZM374.969 102.419H370.37C370.118 102.419 369.906 102.207 369.906 101.956C369.906 101.704 370.118 101.492 370.37 101.492H374.969C375.22 101.492 375.432 101.704 375.432 101.956C375.432 102.207 375.22 102.419 374.969 102.419ZM365.79 102.419H361.191C360.939 102.419 360.727 102.207 360.727 101.956C360.727 101.704 360.939 101.492 361.191 101.492H365.79C366.041 101.492 366.254 101.704 366.254 101.956C366.234 102.207 366.041 102.419 365.79 102.419ZM356.591 102.419H351.992C351.741 102.419 351.528 102.207 351.528 101.956C351.528 101.704 351.741 101.492 351.992 101.492H356.591C356.843 101.492 357.055 101.704 357.055 101.956C357.055 102.207 356.843 102.419 356.591 102.419ZM347.412 102.419H342.813C342.562 102.419 342.35 102.207 342.35 101.956C342.35 101.704 342.562 101.492 342.813 101.492H347.412C347.664 101.492 347.876 101.704 347.876 101.956C347.857 102.207 347.664 102.419 347.412 102.419ZM338.214 102.419H333.615C333.364 102.419 333.151 102.207 333.151 101.956C333.151 101.704 333.364 101.492 333.615 101.492H338.214C338.465 101.492 338.678 101.704 338.678 101.956C338.678 102.207 338.465 102.419 338.214 102.419ZM329.016 102.419H324.417C324.165 102.419 323.953 102.207 323.953 101.956C323.953 101.704 324.165 101.492 324.417 101.492H329.016C329.267 101.492 329.48 101.704 329.48 101.956C329.48 102.207 329.286 102.419 329.016 102.419ZM319.837 102.419H315.238C314.987 102.419 314.774 102.207 314.774 101.956C314.774 101.704 314.987 101.492 315.238 101.492H319.837C320.088 101.492 320.301 101.704 320.301 101.956C320.301 102.207 320.088 102.419 319.837 102.419ZM310.639 102.419H306.039C305.788 102.419 305.576 102.207 305.576 101.956C305.576 101.704 305.788 101.492 306.039 101.492H310.639C310.89 101.492 311.102 101.704 311.102 101.956C311.102 102.207 310.909 102.419 310.639 102.419ZM301.46 102.419H296.86C296.609 102.419 296.397 102.207 296.397 101.956C296.397 101.704 296.609 101.492 296.86 101.492H301.46C301.711 101.492 301.923 101.704 301.923 101.956C301.923 102.207 301.711 102.419 301.46 102.419ZM292.261 102.419H287.662C287.411 102.419 287.198 102.207 287.198 101.956C287.198 101.704 287.411 101.492 287.662 101.492H292.261C292.512 101.492 292.725 101.704 292.725 101.956C292.725 102.207 292.512 102.419 292.261 102.419ZM283.082 102.419H278.483C278.232 102.419 278.019 102.207 278.019 101.956C278.019 101.704 278.232 101.492 278.483 101.492H283.082C283.334 101.492 283.546 101.704 283.546 101.956C283.527 102.207 283.334 102.419 283.082 102.419ZM273.884 102.419H269.285C269.034 102.419 268.821 102.207 268.821 101.956C268.821 101.704 269.034 101.492 269.285 101.492H273.884C274.135 101.492 274.348 101.704 274.348 101.956C274.348 102.207 274.135 102.419 273.884 102.419ZM264.705 102.419H260.106C259.855 102.419 259.642 102.207 259.642 101.956C259.642 101.704 259.855 101.492 260.106 101.492H264.705C264.956 101.492 265.169 101.704 265.169 101.956C265.149 102.207 264.956 102.419 264.705 102.419ZM255.507 102.419H250.908C250.656 102.419 250.444 102.207 250.444 101.956C250.444 101.704 250.656 101.492 250.908 101.492H255.507C255.758 101.492 255.97 101.704 255.97 101.956C255.97 102.207 255.758 102.419 255.507 102.419ZM246.308 102.419H241.709C241.458 102.419 241.245 102.207 241.245 101.956C241.245 101.704 241.458 101.492 241.709 101.492H246.308C246.56 101.492 246.772 101.704 246.772 101.956C246.772 102.207 246.579 102.419 246.308 102.419ZM237.129 102.419H232.53C232.279 102.419 232.066 102.207 232.066 101.956C232.066 101.704 232.279 101.492 232.53 101.492H237.129C237.381 101.492 237.593 101.704 237.593 101.956C237.593 102.207 237.381 102.419 237.129 102.419Z" fill="#E64068"/>
<path d="M588.531 169.732C588.28 169.732 588.068 169.52 588.068 169.268V164.669C588.068 164.418 588.28 164.205 588.531 164.205C588.783 164.205 588.995 164.418 588.995 164.669V169.268C588.995 169.52 588.783 169.732 588.531 169.732ZM588.531 160.533C588.28 160.533 588.068 160.32 588.068 160.069V155.47C588.068 155.218 588.28 155.006 588.531 155.006C588.783 155.006 588.995 155.218 588.995 155.47V160.069C588.995 160.34 588.783 160.533 588.531 160.533ZM588.531 151.353C588.28 151.353 588.068 151.141 588.068 150.889V146.29C588.068 146.038 588.28 145.826 588.531 145.826C588.783 145.826 588.995 146.038 588.995 146.29V150.889C588.995 151.141 588.783 151.353 588.531 151.353ZM588.531 142.154C588.28 142.154 588.068 141.941 588.068 141.69V137.09C588.068 136.839 588.28 136.627 588.531 136.627C588.783 136.627 588.995 136.839 588.995 137.09V141.69C588.995 141.941 588.783 142.154 588.531 142.154ZM588.454 132.974C588.222 132.974 588.029 132.8 587.99 132.568C587.797 131.099 587.275 129.727 586.444 128.51C586.309 128.297 586.367 128.007 586.56 127.872C586.773 127.736 587.063 127.794 587.198 127.988C588.087 129.321 588.686 130.848 588.899 132.433C588.937 132.684 588.763 132.916 588.512 132.955C588.493 132.974 588.473 132.974 588.454 132.974ZM583.507 125.591C583.43 125.591 583.353 125.572 583.275 125.533C582 124.799 580.589 124.354 579.121 124.258C578.869 124.238 578.676 124.026 578.695 123.775C578.715 123.523 578.927 123.33 579.179 123.349C580.802 123.465 582.328 123.929 583.739 124.741C583.952 124.876 584.029 125.147 583.913 125.379C583.816 125.514 583.662 125.591 583.507 125.591ZM574.56 124.238H569.961C569.71 124.238 569.497 124.026 569.497 123.775C569.497 123.523 569.71 123.311 569.961 123.311H574.56C574.811 123.311 575.024 123.523 575.024 123.775C575.024 124.026 574.811 124.238 574.56 124.238ZM565.362 124.238H560.763C560.511 124.238 560.299 124.026 560.299 123.775C560.299 123.523 560.511 123.311 560.763 123.311H565.362C565.613 123.311 565.826 123.523 565.826 123.775C565.826 124.026 565.613 124.238 565.362 124.238Z" fill="#4C4FEE"/>
<path d="M580.752 169.543H624.927C626.434 169.543 627.69 170.78 627.69 172.306V180.172C627.69 181.68 626.453 182.936 624.927 182.936H580.752C579.225 182.936 577.988 181.699 577.988 180.172V172.287C577.988 170.78 579.244 169.543 580.752 169.543Z" fill="#E64068"/>
<path d="M579.515 215.466H610.994C611.825 215.466 612.521 216.142 612.521 216.993V223.254C612.521 224.085 611.844 224.781 610.994 224.781H579.727C578.761 224.781 577.988 224.008 577.988 223.042V216.993C578.008 216.142 578.684 215.466 579.515 215.466Z" fill="#FFB400"/>
<path d="M579.515 228.87H610.994C611.825 228.87 612.521 229.546 612.521 230.396V236.658C612.521 237.489 611.844 238.185 610.994 238.185H579.727C578.761 238.185 577.988 237.412 577.988 236.446V230.396C578.008 229.565 578.684 228.87 579.515 228.87Z" fill="#4C4FEE"/>
<path d="M579.52 242.053H611.101C611.934 242.053 612.632 242.696 612.632 243.505V249.463C612.632 250.253 611.954 250.915 611.101 250.915H579.733C578.764 250.915 577.988 250.18 577.988 249.26V243.505C578.008 242.696 578.686 242.053 579.52 242.053Z" fill="#FFB400"/>
<path d="M86.9473 253.759C86.7121 253.021 86.5879 252.246 86.5879 251.452C86.5879 251.14 86.6069 250.828 86.6433 250.522C86.852 248.789 87.6411 247.184 88.9258 245.924L93.8174 241.129C95.3284 239.647 97.3356 238.83 99.4786 238.83C101.622 238.83 103.629 239.647 105.14 241.129C106.65 242.61 107.478 244.57 107.478 246.657C107.478 248.743 106.65 250.704 105.14 252.184L100.248 256.98C98.7373 258.462 96.7301 259.279 94.5871 259.279C93.7813 259.279 92.9944 259.159 92.2447 258.932L92.4997 258.682C93.1684 258.87 93.8681 258.972 94.5871 258.972C96.6255 258.972 98.5466 258.191 99.9928 256.775L99.993 256.774L104.885 251.979L104.885 251.979C106.33 250.56 107.132 248.669 107.132 246.657C107.132 244.644 106.332 242.752 104.884 241.334C103.438 239.917 101.517 239.137 99.4786 239.137C97.4402 239.137 95.5191 239.917 94.073 241.334L94.0727 241.334L89.1812 246.13L89.181 246.13C87.7353 247.549 86.9332 249.439 86.9332 251.452C86.9332 252.153 87.0355 252.836 87.2236 253.488L86.9473 253.759ZM93.4811 252.309L93.4812 252.309L93.4893 252.3C93.5193 252.27 93.5634 252.25 93.6132 252.248C93.6515 252.247 93.688 252.258 93.7179 252.276C93.7476 252.295 93.7683 252.32 93.7799 252.347C93.7913 252.374 93.794 252.402 93.7884 252.429C93.7828 252.456 93.7685 252.484 93.7446 252.506L93.7446 252.506L93.7364 252.514L81.9967 264.024L81.9908 264.029L81.9851 264.035C81.97 264.051 81.951 264.064 81.9288 264.073C81.9066 264.083 81.8821 264.088 81.8569 264.088C81.8317 264.089 81.807 264.084 81.7845 264.075C81.762 264.066 81.7427 264.053 81.7271 264.038C81.7116 264.022 81.7003 264.005 81.6929 263.988C81.6855 263.97 81.682 263.951 81.6822 263.933C81.6824 263.915 81.6863 263.897 81.694 263.879C81.7018 263.861 81.7136 263.844 81.7295 263.829L81.7355 263.824L81.7414 263.818L93.4811 252.309ZM70.3377 264.148L70.3379 264.148L75.2295 259.352C76.7405 257.871 78.7476 257.054 80.8907 257.054C81.6965 257.054 82.4834 257.173 83.2331 257.4L82.9781 257.65C82.3094 257.462 81.6097 257.36 80.8907 257.36C78.8523 257.36 76.9312 258.141 75.485 259.558L75.4848 259.558L70.5932 264.353L70.593 264.354C69.1474 265.772 68.3453 267.663 68.3453 269.676C68.3453 271.688 69.1461 273.58 70.5935 274.998C72.0396 276.415 73.9607 277.195 75.9991 277.195C78.0376 277.195 79.9587 276.415 81.4048 274.998L81.4051 274.998L86.2966 270.202L86.2968 270.202C87.7425 268.784 88.5446 266.893 88.5446 264.88C88.5446 264.179 88.4423 263.496 88.2542 262.844L88.5305 262.573C88.7657 263.312 88.8899 264.087 88.8899 264.88C88.8899 266.967 88.0624 268.927 86.552 270.408L81.6604 275.204C80.1494 276.685 78.1422 277.502 75.9991 277.502C73.8561 277.502 71.8489 276.685 70.3379 275.204C68.8274 273.723 68 271.762 68 269.676C68 269.506 68.005 269.339 68.0156 269.175L68.0156 269.174C68.1367 267.278 68.9477 265.51 70.3377 264.148Z" fill="#2C3543" stroke="#2C3543" stroke-width="1.61134"/>
<circle cx="150.581" cy="119.994" r="12.4879" fill="#E4E8ED"/>
<circle cx="414.84" cy="169.945" r="12.4879" fill="#E4E8ED"/>
<circle cx="328.231" cy="227.551" r="6.44535" fill="#E4E8ED"/>
<circle cx="101.838" cy="126.842" r="6.44535" fill="#E4E8ED"/>
<path d="M176.123 154.661C176.123 144.871 184.059 136.936 193.848 136.936H264.747C274.536 136.936 282.471 144.871 282.471 154.661V314.989C282.471 324.778 274.536 332.713 264.747 332.713H193.848C184.059 332.713 176.123 324.778 176.123 314.989V154.661Z" fill="white"/>
<path d="M374.094 187.106C375.674 186.08 377.441 185.349 379.336 184.976C379.935 184.858 380.539 184.777 381.14 184.731C384.542 184.477 387.917 185.386 390.81 187.369L401.337 194.586C404.741 196.919 407.059 200.453 407.865 204.548C408.671 208.642 407.865 212.791 405.599 216.24C403.334 219.689 399.888 222.016 395.888 222.804C391.888 223.591 387.816 222.743 384.414 220.41L373.886 213.193C370.483 210.86 368.164 207.326 367.358 203.232C366.978 201.302 366.969 199.358 367.296 197.479L369.11 198.725C368.964 200.081 369.012 201.469 369.284 202.853C369.983 206.402 371.998 209.475 374.957 211.505L374.957 211.505L385.484 218.722L385.484 218.722C388.445 220.751 392.001 221.496 395.495 220.808C398.989 220.12 401.999 218.085 403.969 215.083C405.938 212.083 406.638 208.476 405.94 204.927C405.241 201.377 403.226 198.304 400.267 196.274L400.267 196.274L389.739 189.057L389.739 189.057C386.778 187.029 383.222 186.284 379.728 186.972C378.375 187.238 377.103 187.717 375.933 188.365L374.094 187.106ZM380.778 197.994L380.778 197.994L380.788 198C381.004 198.144 381.161 198.37 381.221 198.633C381.267 198.836 381.251 199.048 381.178 199.239C381.105 199.429 380.977 199.59 380.816 199.701C380.654 199.812 380.463 199.87 380.269 199.868C380.074 199.866 379.881 199.805 379.717 199.689L379.717 199.688L379.708 199.682L354.442 182.362L354.436 182.357L354.429 182.353C354.318 182.28 354.221 182.185 354.145 182.072C354.068 181.959 354.014 181.832 353.986 181.697C353.959 181.562 353.957 181.424 353.983 181.29C354.008 181.156 354.059 181.03 354.132 180.919C354.205 180.808 354.298 180.714 354.406 180.642C354.514 180.57 354.634 180.521 354.761 180.497C354.887 180.474 355.017 180.476 355.143 180.504C355.27 180.533 355.391 180.587 355.5 180.664L355.506 180.669L355.513 180.674L380.778 197.994ZM350.807 159.946L350.807 159.946L361.334 167.162C364.738 169.496 367.056 173.029 367.862 177.124C368.242 179.054 368.251 180.998 367.925 182.877L366.11 181.631C366.256 180.275 366.209 178.887 365.937 177.503C365.238 173.954 363.223 170.881 360.264 168.851L360.264 168.85L349.736 161.634L349.736 161.634C346.775 159.605 343.219 158.86 339.725 159.548C336.232 160.236 333.221 162.271 331.251 165.272C329.282 168.273 328.582 171.88 329.281 175.429C329.98 178.979 331.995 182.052 334.954 184.082L334.954 184.082L345.481 191.299L345.481 191.299C348.442 193.327 351.998 194.072 355.492 193.384C356.846 193.118 358.117 192.639 359.288 191.991L361.127 193.25C359.546 194.276 357.78 195.007 355.885 195.38C351.885 196.168 347.813 195.319 344.411 192.987L333.883 185.77C330.48 183.437 328.161 179.903 327.355 175.808C326.549 171.714 327.356 167.565 329.621 164.116C331.886 160.667 335.332 158.34 339.333 157.552C339.655 157.489 339.977 157.435 340.298 157.393L340.298 157.393C343.981 156.909 347.677 157.799 350.807 159.946Z" fill="#2C3543" stroke="#2C3543" stroke-width="1.61134"/>
<rect x="467.612" y="264.612" width="84.5952" height="14.502" rx="2.41701" fill="#FFB400"/>
<path d="M550.569 97.8381H469.195C461.194 97.8381 454.721 104.332 454.721 112.352V286.037C454.721 290.559 456.788 294.598 460.016 297.246C462.508 299.314 465.716 300.551 469.214 300.551H550.588C554.066 300.551 557.274 299.314 559.786 297.246C563.013 294.598 565.081 290.559 565.081 286.037V112.371C565.062 104.351 558.569 97.8381 550.569 97.8381ZM559.767 284.413C559.767 290.037 555.226 294.579 549.622 294.579H470.141C467.011 294.579 464.19 293.149 462.334 290.907C460.866 289.148 459.996 286.868 459.996 284.413V113.976C459.996 108.352 464.537 103.81 470.141 103.81H549.622C555.226 103.81 559.767 108.352 559.767 113.976V284.413Z" fill="#2C3543"/>
<path d="M394.211 263.806H425.69C426.521 263.806 427.217 264.482 427.217 265.333V271.594C427.217 272.425 426.541 273.121 425.69 273.121H394.424C393.458 273.121 392.685 272.348 392.685 271.382V265.333C392.704 264.502 393.38 263.806 394.211 263.806Z" fill="#4C4FEE"/>
<path d="M394.211 281.258H425.69C426.521 281.258 427.217 281.934 427.217 282.784V289.046C427.217 289.877 426.541 290.573 425.69 290.573H394.424C393.458 290.573 392.685 289.8 392.685 288.833V282.784C392.704 281.934 393.38 281.258 394.211 281.258Z" fill="#E64068"/>
<path d="M394.211 298.69H425.69C426.521 298.69 427.217 299.366 427.217 300.216V306.478C427.217 307.309 426.541 308.005 425.69 308.005H394.424C393.458 308.005 392.685 307.232 392.685 306.266V300.216C392.704 299.366 393.38 298.69 394.211 298.69Z" fill="#4C4FEE"/>
<path d="M9.03897 153.429H132.701C136.168 153.429 138.999 155.126 138.999 157.197V202.836C138.999 204.906 136.168 206.603 132.701 206.603H9.03897C5.57229 206.603 2.74072 204.906 2.74072 202.836V157.197C2.76719 155.126 5.59876 153.429 9.03897 153.429Z" fill="#FFB400"/>
<path d="M119.348 187.772C118.886 187.757 118.808 188.437 119.261 188.531L120.096 188.717C120.538 190.862 121.02 192.999 121.486 195.14C121.525 195.315 121.678 195.44 121.855 195.44H128.487C128.998 195.447 128.998 194.665 128.487 194.673H122.159L121.992 193.906H128.822C128.999 193.906 129.153 193.781 129.191 193.605L130.027 189.772C130.08 189.532 129.9 189.305 129.659 189.305C126.77 189.305 123.88 189.305 120.991 189.304L120.786 188.315C120.755 188.167 120.642 188.052 120.497 188.019L119.423 187.78C119.399 187.774 119.374 187.771 119.349 187.771L119.348 187.772ZM123.427 195.696C122.876 195.696 122.42 196.159 122.42 196.719C122.42 197.279 122.876 197.741 123.427 197.741C123.979 197.741 124.434 197.279 124.434 196.719C124.434 196.159 123.979 195.696 123.427 195.696ZM126.952 195.696C126.4 195.696 125.945 196.159 125.945 196.719C125.945 197.279 126.4 197.741 126.952 197.741C127.504 197.741 127.959 197.279 127.959 196.719C127.959 196.159 127.504 195.696 126.952 195.696Z" fill="white"/>
<path d="M63.7467 170.046H128.751C129.467 170.046 130.036 170.782 130.036 171.708C130.036 172.634 129.467 173.37 128.751 173.37H63.7467C63.0303 173.37 62.4609 172.634 62.4609 171.708C62.4793 170.782 63.0487 170.046 63.7467 170.046Z" fill="white"/>
<rect x="10.3945" y="160.076" width="47.6352" height="39.8806" rx="2.41701" fill="#F0EFF3"/>
<path d="M48.8643 171.902C46.7245 171.195 39.0463 167.655 36.4268 166.964C36.1137 170.32 33.7289 172.971 33.7289 172.971C33.7289 172.971 31.2448 170.413 30.804 167.071C28.2125 167.862 20.6733 171.691 18.5622 172.48L18.2496 172.596L19.1895 177.539L23.8829 176.679L24.1937 192.984L44.0186 192.606L43.7078 176.301L48.4306 176.982L49.1828 172.006L48.8643 171.902Z" fill="#4955EF"/>
<path d="M66.2493 188.879C66.172 188.879 66.0996 188.915 66.0651 188.984L64.9864 191.089L62.6316 191.444C62.4787 191.469 62.403 191.691 62.5132 191.799L64.2102 193.457L63.8287 195.785C63.809 195.897 63.8994 196.022 64.0129 196.035C64.0556 196.04 64.0934 196.028 64.1313 196.009L66.2492 194.917L68.3671 196.009C68.5053 196.079 68.6944 195.938 68.6697 195.785L68.2882 193.457L69.9852 191.799C70.0954 191.691 70.0214 191.469 69.8668 191.444L67.512 191.089L66.4333 188.984C66.3988 188.915 66.3265 188.879 66.2493 188.879ZM74.6685 188.879C74.5912 188.879 74.5189 188.915 74.4843 188.984L73.4056 191.089L71.0508 191.444C70.8979 191.469 70.8223 191.691 70.9324 191.799L72.6294 193.457L72.2479 195.785C72.2282 195.897 72.3186 196.022 72.4321 196.035C72.4749 196.04 72.5127 196.028 72.5505 196.009L74.6684 194.917L76.7864 196.009C76.9245 196.079 77.1136 195.938 77.089 195.785L76.7075 193.457L78.4044 191.799C78.5146 191.691 78.4406 191.469 78.286 191.444L75.9313 191.089L74.8526 188.984C74.818 188.915 74.7458 188.879 74.6685 188.879ZM83.0877 188.879C83.0105 188.879 82.9381 188.915 82.9036 188.984L81.8249 191.089L79.4701 191.444C79.3172 191.469 79.2415 191.691 79.3517 191.799L81.0487 193.457L80.6672 195.785C80.6474 195.897 80.7379 196.022 80.8513 196.035C80.8941 196.04 80.9319 196.028 80.9697 196.009L83.0877 194.917L85.2056 196.009C85.3438 196.079 85.5329 195.938 85.5082 195.785L85.1267 193.457L86.8237 191.799C86.9339 191.691 86.8599 191.469 86.7053 191.444L84.3505 191.089L83.2718 188.984C83.2373 188.915 83.165 188.879 83.0877 188.879Z" fill="#E64068"/>
<path d="M94.4933 175.585H129.022C129.587 175.585 130.036 176.321 130.036 177.247C130.036 178.173 129.587 178.909 129.022 178.909H94.4933C93.9282 178.909 93.479 178.173 93.479 177.247C93.479 176.345 93.9282 175.585 94.4933 175.585Z" fill="white"/>
<path d="M64.3209 163.399H127.639C128.675 163.399 129.499 164.223 129.499 165.26C129.499 166.296 128.675 167.12 127.639 167.12H64.3209C63.2846 167.12 62.4609 166.296 62.4609 165.26C62.4609 164.25 63.2846 163.399 64.3209 163.399Z" fill="white"/>
<path d="M63.5152 175.787H85.3564C86.3926 175.787 87.2163 176.61 87.2163 177.647C87.2163 178.683 86.3926 179.507 85.3564 179.507H63.5152C62.479 179.507 61.6553 178.683 61.6553 177.647C61.6818 176.637 62.5055 175.787 63.5152 175.787Z" fill="white"/>
<path d="M468.15 244.471C467.511 244.451 467.404 245.385 468.03 245.514L469.184 245.769C469.794 248.716 470.46 251.652 471.105 254.592C471.158 254.834 471.37 255.005 471.615 255.004H480.779C481.485 255.015 481.485 253.941 480.779 253.951H472.034L471.803 252.897H481.242C481.486 252.897 481.698 252.726 481.751 252.485L482.907 247.218C482.979 246.889 482.731 246.577 482.398 246.577C478.405 246.577 474.413 246.577 470.42 246.575L470.137 245.217C470.095 245.014 469.939 244.855 469.738 244.811L468.254 244.483C468.22 244.475 468.185 244.47 468.151 244.47L468.15 244.471ZM473.787 255.357C473.024 255.357 472.395 255.992 472.395 256.761C472.395 257.531 473.024 258.166 473.787 258.166C474.549 258.166 475.178 257.531 475.178 256.761C475.178 255.992 474.549 255.357 473.787 255.357ZM478.657 255.357C477.895 255.357 477.266 255.992 477.266 256.761C477.266 257.531 477.895 258.166 478.657 258.166C479.42 258.166 480.049 257.531 480.049 256.761C480.049 255.992 479.42 255.357 478.657 255.357Z" fill="#00D0B2"/>
<rect x="486.142" y="246.887" width="65.2592" height="4.02835" rx="0.805669" fill="#00D0B2"/>
<rect x="486.142" y="253.332" width="65.2592" height="4.02835" rx="0.805669" fill="#00D0B2"/>
<rect x="187.239" y="134.899" width="83.7896" height="9.66803" fill="#F0EFF3"/>
<path d="M270.196 133.288H188.822C180.822 133.288 174.348 139.781 174.348 147.802V321.486C174.348 326.008 176.416 330.048 179.643 332.695C182.136 334.763 185.344 336 188.841 336H270.215C273.694 336 276.902 334.763 279.414 332.695C282.641 330.048 284.708 326.008 284.708 321.486V147.821C284.689 139.801 278.196 133.288 270.196 133.288ZM279.394 319.863C279.394 325.487 274.853 330.028 269.249 330.028H189.769C186.638 330.028 183.817 328.598 181.962 326.356C180.493 324.598 179.624 322.317 179.624 319.863V149.425C179.624 143.801 184.165 139.259 189.769 139.259H269.249C274.853 139.259 279.394 143.801 279.394 149.425V319.863Z" fill="#2C3543"/>
<path d="M190.912 245.276H267.355C269.374 245.276 271.028 245.512 271.028 245.799V247.975C271.028 248.262 269.374 248.498 267.355 248.498H191.477C189.136 248.498 187.239 248.228 187.239 247.894V245.805C187.239 245.512 188.894 245.276 190.912 245.276Z" fill="#F0EFF3"/>
<path d="M189.111 251.721H228.067C229.096 251.721 229.939 251.957 229.939 252.245V254.42C229.939 254.708 229.096 254.944 228.067 254.944H189.398C188.205 254.944 187.239 254.673 187.239 254.339V252.25C187.239 251.957 188.082 251.721 189.111 251.721Z" fill="#F0EFF3"/>
<rect x="187.239" y="194.518" width="83.7896" height="47.5345" fill="#F0EFF3"/>
<path d="M245.649 209.043C242.936 208.108 233.226 203.501 229.901 202.575C229.42 206.762 226.313 210.017 226.313 210.017C226.313 210.017 223.207 206.762 222.725 202.575C219.4 203.501 209.689 208.108 206.976 209.043L206.575 209.18L207.653 215.381L213.662 214.417V234.802H238.963V214.417L244.972 215.381L246.052 209.18L245.649 209.043Z" fill="#4955EF"/>
<path d="M190.912 283.948H267.355C269.374 283.948 271.028 284.184 271.028 284.471V286.647C271.028 286.934 269.374 287.17 267.355 287.17H191.477C189.136 287.17 187.239 286.9 187.239 286.566V284.477C187.239 284.184 188.894 283.948 190.912 283.948Z" fill="#E4E8ED"/>
<path d="M190.912 278.308H267.355C269.374 278.308 271.028 278.544 271.028 278.832V281.007C271.028 281.295 269.374 281.531 267.355 281.531H191.477C189.136 281.531 187.239 281.26 187.239 280.926V278.837C187.239 278.544 188.894 278.308 190.912 278.308Z" fill="#E4E8ED"/>
<rect x="200.935" y="262.195" width="70.0932" height="12.085" rx="2.41701" fill="#FFB400"/>
<circle cx="192.476" cy="268.237" r="5.23685" fill="#3A76F3"/>
<path d="M190.912 177.599H267.355C269.374 177.599 271.028 177.714 271.028 178.002V180.298C271.028 180.586 269.374 180.822 267.355 180.822H191.477C189.136 180.822 187.239 180.552 187.239 180.218V178.129C187.239 177.835 188.894 177.599 190.912 177.599Z" fill="#E4E8ED"/>
<path d="M190.912 171.96H267.355C269.374 171.96 271.028 172.075 271.028 172.363V174.659C271.028 174.946 269.374 175.182 267.355 175.182H191.477C189.136 175.182 187.239 174.912 187.239 174.578V172.489C187.239 172.196 188.894 171.96 190.912 171.96Z" fill="#E4E8ED"/>
<path d="M189.111 183.239H228.067C229.096 183.239 229.939 183.475 229.939 183.763V185.938C229.939 186.226 229.096 186.462 228.067 186.462H189.398C188.205 186.462 187.239 186.191 187.239 185.857V183.768C187.239 183.475 188.082 183.239 189.111 183.239Z" fill="#E4E8ED"/>
<rect x="200.935" y="155.041" width="70.0932" height="12.8907" rx="2.41701" fill="#00D0B2"/>
<circle cx="192.476" cy="160.277" r="5.23685" fill="#3A76F3"/>
<path d="M190.912 309.729H267.355C269.374 309.729 271.028 309.965 271.028 310.253V312.428C271.028 312.716 269.374 312.952 267.355 312.952H191.477C189.136 312.952 187.239 312.681 187.239 312.347V310.258C187.239 309.965 188.894 309.729 190.912 309.729Z" fill="#E4E8ED"/>
<path d="M189.111 316.174H228.067C229.096 316.174 229.939 316.41 229.939 316.698V318.873C229.939 319.161 229.096 319.397 228.067 319.397H189.398C188.205 319.397 187.239 319.127 187.239 318.793V316.704C187.239 316.41 188.082 316.174 189.111 316.174Z" fill="#E4E8ED"/>
<rect x="200.935" y="292.004" width="70.0932" height="12.8907" rx="2.41701" fill="#FF783F"/>
<circle cx="192.476" cy="298.853" r="5.23685" fill="#3A76F3"/>
</svg>
