<svg width="627" height="400" viewBox="0 0 627 400" fill="none" xmlns="http://www.w3.org/2000/svg">
<g clip-path="url(#clip0_1103_758)">
<rect width="627" height="400" fill="white"/>
<g filter="url(#filter0_d_1103_758)">
<path d="M1 133.422C1 127.453 5.83893 122.614 11.808 122.614H75.0351C81.0043 122.614 85.8432 127.453 85.8432 133.422V275.008C85.8432 280.977 81.0043 285.816 75.0351 285.816H11.808C5.83893 285.816 1 280.977 1 275.008V133.422Z" fill="#8B8F9E"/>
</g>
<path d="M7.48633 140.447H78.8194V265.28H7.48633V140.447Z" fill="white"/>
<rect x="13.7451" y="214.354" width="58.1038" height="19.798" rx="2" fill="#4C4FEE"/>
<rect x="13.7451" y="150.913" width="58.1038" height="6.60833" rx="3" fill="#E4E8ED"/>
<rect x="13.7451" y="161.487" width="58.1038" height="6.60833" rx="3" fill="#E4E8ED"/>
<rect x="13.7451" y="172.059" width="58.1038" height="6.60833" rx="3" fill="#E4E8ED"/>
<rect x="13.7451" y="182.633" width="58.1038" height="6.60833" rx="3" fill="#E4E8ED"/>
<rect x="13.7451" y="193.206" width="58.1038" height="6.60833" rx="3" fill="#E4E8ED"/>
<rect x="13.7451" y="203.78" width="58.1038" height="6.60833" rx="3" fill="#E4E8ED"/>
<rect x="13.7451" y="238.143" width="58.1038" height="6.60833" rx="3" fill="#E4E8ED"/>
<rect x="13.7451" y="248.717" width="58.1038" height="6.60833" rx="3" fill="#E4E8ED"/>
<path d="M48.5571 275.008C48.5571 277.992 46.1376 280.412 43.153 280.412C40.1685 280.412 37.749 277.992 37.749 275.008C37.749 272.023 40.1685 269.604 43.153 269.604C46.1376 269.604 48.5571 272.023 48.5571 275.008Z" fill="white"/>
<path d="M28.5625 131.802C28.5625 130.906 29.2883 130.18 30.1837 130.18H56.123C57.0184 130.18 57.7442 130.906 57.7442 131.802V131.802C57.7442 132.697 57.0184 133.423 56.123 133.423H30.1837C29.2883 133.423 28.5625 132.697 28.5625 131.802V131.802Z" fill="white"/>
<g filter="url(#filter1_d_1103_758)">
<path d="M540.776 64.1092C540.776 58.526 545.616 54 551.585 54H614.816C620.785 54 625.624 58.526 625.624 64.1092V196.539C625.624 202.123 620.785 206.649 614.816 206.649H551.585C545.616 206.649 540.776 202.123 540.776 196.539V64.1092Z" fill="#8B8F9E"/>
</g>
<path d="M547.264 70.6799H618.601V187.441H547.264V70.6799Z" fill="white"/>
<rect x="553.996" y="78.7233" width="58.1565" height="101.369" rx="3" fill="#E4E8ED"/>
<path d="M588.337 196.539C588.337 199.33 585.917 201.593 582.933 201.593C579.948 201.593 577.528 199.33 577.528 196.539C577.528 193.747 579.948 191.484 582.933 191.484C585.917 191.484 588.337 193.747 588.337 196.539Z" fill="white"/>
<path d="M568.34 62.5922C568.34 61.7547 569.066 61.0758 569.961 61.0758H595.902C596.797 61.0758 597.523 61.7547 597.523 62.5922V62.5922C597.523 63.4297 596.797 64.1086 595.902 64.1086H569.961C569.066 64.1086 568.34 63.4297 568.34 62.5922V62.5922Z" fill="white"/>
<g filter="url(#filter2_d_1103_758)">
<path d="M445.748 254.13H418.498C413.395 254.13 409.263 258.262 409.263 263.366V290.621C409.263 295.719 413.395 299.851 418.498 299.851H445.753C450.851 299.851 454.989 295.719 454.989 290.615V263.366C454.983 258.262 450.851 254.13 445.748 254.13Z" fill="url(#paint0_linear_1103_758)"/>
<path d="M431.93 264.634L432.856 263.033C433.427 262.033 434.702 261.696 435.702 262.268C436.702 262.839 437.039 264.114 436.468 265.114L427.547 280.556H433.999C436.091 280.556 437.262 283.013 436.353 284.716H417.437C416.282 284.716 415.356 283.791 415.356 282.636C415.356 281.482 416.282 280.556 417.437 280.556H422.74L429.53 268.789L427.409 265.108C426.838 264.108 427.175 262.845 428.175 262.262C429.175 261.69 430.438 262.028 431.021 263.028L431.93 264.634ZM423.906 286.86L421.906 290.329C421.334 291.329 420.06 291.666 419.06 291.095C418.06 290.523 417.722 289.249 418.294 288.248L419.78 285.677C421.46 285.157 422.826 285.557 423.906 286.86ZM441.131 280.567H446.543C447.698 280.567 448.624 281.493 448.624 282.648C448.624 283.802 447.698 284.728 446.543 284.728H443.537L445.566 288.248C446.138 289.249 445.8 290.512 444.8 291.095C443.8 291.666 442.537 291.329 441.954 290.329C438.537 284.402 435.971 279.967 434.268 277.013C432.524 274.006 433.77 270.989 434.999 269.966C436.365 272.309 438.405 275.847 441.131 280.567Z" fill="white"/>
</g>
<g filter="url(#filter3_d_1103_758)">
<path d="M467.236 255.942C466.736 256.478 466.443 257.302 466.443 258.373V296.642C466.443 297.712 466.736 298.537 467.236 299.073L467.365 299.196L488.612 277.76V277.507V277.255L467.365 255.819L467.236 255.942Z" fill="url(#paint1_linear_1103_758)"/>
<path d="M495.69 284.913L488.607 277.762V277.509V277.257L495.69 270.112L495.849 270.204L504.243 275.017C506.64 276.389 506.64 278.642 504.243 280.014L495.849 284.827L495.69 284.913Z" fill="url(#paint2_linear_1103_758)"/>
<path d="M495.853 284.821L488.612 277.509L467.236 299.075C468.029 299.918 469.329 300.022 470.799 299.179L495.853 284.821Z" fill="url(#paint3_linear_1103_758)"/>
<path d="M495.853 270.204L470.799 255.84C469.329 254.997 468.023 255.102 467.236 255.945L488.612 277.51L495.853 270.204Z" fill="url(#paint4_linear_1103_758)"/>
<path opacity="0.2" d="M495.692 284.661L470.796 298.933C469.405 299.733 468.161 299.678 467.362 298.951L467.233 299.081L467.362 299.204C468.161 299.93 469.405 299.985 470.796 299.185L495.85 284.821L495.692 284.661Z" fill="black"/>
<path opacity="0.12" d="M467.233 298.823C466.733 298.287 466.44 297.462 466.44 296.392V296.644C466.44 297.715 466.733 298.539 467.233 299.075L467.362 298.946L467.233 298.823Z" fill="black"/>
<path opacity="0.12" d="M504.249 279.756L495.696 284.661L495.855 284.821L504.249 280.008C505.445 279.319 506.049 278.414 506.049 277.509C505.945 278.328 505.335 279.134 504.249 279.756Z" fill="black"/>
<path opacity="0.25" d="M470.802 256.094L504.251 275.265C505.336 275.887 505.946 276.693 506.05 277.511C506.05 276.607 505.452 275.702 504.251 275.013L470.802 255.842C468.405 254.469 466.446 255.608 466.446 258.377V258.63C466.446 255.86 468.405 254.722 470.802 256.094Z" fill="white"/>
</g>
<path d="M522.316 130.561L511.306 119.552C510.676 118.922 509.599 119.368 509.599 120.259L509.599 142.277C509.599 143.168 510.676 143.615 511.306 142.985L522.316 131.975C522.706 131.585 522.706 130.952 522.316 130.561Z" fill="#8B8F9E"/>
<path d="M395.377 275.798L384.368 264.789C383.738 264.159 382.661 264.605 382.661 265.496L382.661 287.515C382.661 288.406 383.738 288.852 384.368 288.222L395.377 277.213C395.768 276.822 395.768 276.189 395.377 275.798Z" fill="#8B8F9E"/>
<path d="M580.742 224.71L569.733 235.72C569.103 236.35 569.549 237.427 570.44 237.427L592.458 237.427C593.349 237.427 593.796 236.35 593.166 235.72L582.156 224.71C581.766 224.32 581.133 224.32 580.742 224.71Z" fill="#8B8F9E"/>
<path d="M55.2834 225.254L53.3101 223.939L51.3368 225.912V237.752H50.0212L48.0479 240.383V243.014L53.3101 248.934L52.6523 251.565C52.8716 251.867 53.4417 252.552 53.9679 252.881C54.4941 253.21 61.642 253.018 65.1502 252.881L66.4657 250.908V248.276L67.7813 244.33V235.779L66.4657 234.463L63.8346 235.121V233.148L61.8613 232.49L59.8879 233.148L59.2301 231.832L57.2568 231.174H55.2834V227.639V225.254Z" fill="white"/>
<path d="M66.3057 233.437H66.1103C65.651 233.437 65.2163 233.549 64.8336 233.746C64.6094 232.428 63.4598 231.422 62.0806 231.422H61.8852C61.3698 231.422 60.8859 231.563 60.4704 231.808C60.074 230.748 59.0502 229.993 57.8541 229.993H57.6586C57.2144 229.993 56.7947 230.096 56.4216 230.282V225.993C56.4216 224.454 55.1695 223.2 53.6289 223.2H53.4335C51.8943 223.2 50.6409 224.452 50.6409 225.993V236.652L49.2876 237.679C48.2624 238.458 47.6118 239.591 47.4559 240.869C47.3015 242.148 47.661 243.403 48.4715 244.405L52.5941 249.502V251.553C52.5941 252.72 53.5441 253.67 54.7114 253.67H64.9511C66.1184 253.67 67.0684 252.72 67.0684 251.553V249.605C68.3793 247.97 69.0969 245.937 69.0969 243.847V236.231C69.0983 234.69 67.8462 233.437 66.3057 233.437L66.3057 233.437ZM67.5442 243.846C67.5442 245.663 66.8894 247.429 65.7016 248.818C65.5813 248.958 65.5143 249.138 65.5143 249.323V251.551C65.5143 251.862 65.2628 252.113 64.9525 252.113H54.7129C54.4039 252.113 54.151 251.862 54.151 251.551V249.226C54.151 249.049 54.0895 248.875 53.9774 248.737L49.6814 243.426C49.1387 242.755 48.8967 241.913 49.0006 241.056C49.1045 240.199 49.5406 239.439 50.2281 238.917L50.6409 238.604V241.203C50.6409 241.632 50.9895 241.98 51.4187 241.98C51.8479 241.98 52.1965 241.632 52.1965 241.203V237.046V237.029V225.993C52.1965 225.311 52.7515 224.756 53.4336 224.756H53.6291C54.3111 224.756 54.8661 225.311 54.8661 225.993V232.785L54.8702 238.435C54.8702 238.864 55.2188 239.211 55.648 239.211C56.0772 239.211 56.4258 238.862 56.4258 238.433L56.4217 232.785C56.4217 232.103 56.9767 231.548 57.6588 231.548H57.8542C58.5363 231.548 59.0913 232.103 59.0913 232.785V234.215L59.0954 238.435C59.0954 238.864 59.444 239.211 59.8732 239.211H59.8746C60.3038 239.211 60.6524 238.862 60.651 238.433L60.6469 234.213C60.6469 233.531 61.2019 232.976 61.884 232.976H62.0794C62.7615 232.976 63.3165 233.531 63.3165 234.213V236.003C63.3138 236.03 63.3083 236.059 63.3083 236.088L63.3124 238.434C63.3138 238.864 63.661 239.211 64.0902 239.211H64.0916C64.5208 239.21 64.868 238.861 64.868 238.432L64.8639 236.308C64.8666 236.282 64.8721 236.256 64.8721 236.228C64.8721 235.546 65.427 234.991 66.1092 234.991H66.3046C66.9867 234.991 67.5417 235.546 67.5417 236.228L67.5442 243.846Z" fill="#4C5363"/>
<path d="M48.4497 229.148C48.19 229.148 47.9357 229.018 47.7881 228.78C47.1374 227.734 46.793 226.527 46.793 225.289C46.793 221.643 49.7592 218.676 53.4074 218.676C57.0543 218.676 60.0217 221.643 60.0217 225.29C60.0217 226.238 59.8249 227.153 59.4381 228.012C59.2617 228.403 58.7997 228.576 58.4088 228.4C58.0178 228.224 57.8429 227.763 58.0206 227.371C58.3158 226.716 58.4662 226.016 58.4662 225.29C58.4648 222.5 56.1957 220.231 53.4072 220.231C50.6173 220.231 48.3483 222.5 48.3483 225.29C48.3483 226.238 48.6107 227.16 49.1083 227.96C49.3352 228.325 49.2231 228.805 48.8595 229.03C48.731 229.109 48.5889 229.148 48.4494 229.148L48.4497 229.148Z" fill="white"/>
<line x1="98.5615" y1="204.599" x2="144.736" y2="204.599" stroke="#8B8F9E" stroke-width="3" stroke-linecap="round" stroke-linejoin="round" stroke-dasharray="1 10"/>
<line x1="520.548" y1="276.644" x2="571.297" y2="276.644" stroke="#8B8F9E" stroke-width="3" stroke-linecap="round" stroke-linejoin="round" stroke-dasharray="1 10"/>
<path d="M144.521 276.429V131.192" stroke="#8B8F9E" stroke-width="3" stroke-linecap="round" stroke-linejoin="round" stroke-dasharray="1 10"/>
<path d="M581.945 277.001V234.688" stroke="#8B8F9E" stroke-width="3" stroke-linecap="round" stroke-linejoin="round" stroke-dasharray="1 10"/>
<line x1="155.741" y1="131.409" x2="499.25" y2="131.409" stroke="#8B8F9E" stroke-width="3" stroke-linecap="round" stroke-linejoin="round" stroke-dasharray="1 10"/>
<line x1="155.741" y1="276.644" x2="384.891" y2="276.644" stroke="#8B8F9E" stroke-width="3" stroke-linecap="round" stroke-linejoin="round" stroke-dasharray="1 10"/>
<path d="M9.05571 309.045V299.301H6.68848V311.309H13.6358V309.045H9.05571Z" fill="#4C5363"/>
<path d="M15.9756 301.703C16.7303 301.703 17.3479 301.085 17.3479 300.348C17.3479 299.61 16.7303 298.975 15.9756 298.975C15.238 298.975 14.6204 299.61 14.6204 300.348C14.6204 301.085 15.238 301.703 15.9756 301.703ZM14.8777 311.309H17.0906V302.732H14.8777V311.309Z" fill="#4C5363"/>
<path d="M23.8847 302.492C22.7354 302.492 21.8434 302.921 21.3288 303.693V302.732H19.1159V311.309H21.3288V306.677C21.3288 305.185 22.135 304.55 23.2157 304.55C24.2106 304.55 24.914 305.151 24.914 306.317V311.309H27.1268V306.043C27.1268 303.761 25.703 302.492 23.8847 302.492Z" fill="#4C5363"/>
<path d="M36.9242 311.309L33.3734 306.969L36.8213 302.732H34.1796L31.2291 306.506V299.301H29.0163V311.309H31.2291V307.415L34.3511 311.309H36.9242Z" fill="#4C5363"/>
<path d="M48.1153 311.549C50.3281 311.549 52.2665 310.434 53.2786 308.719L51.2373 307.535C50.6712 308.582 49.4876 309.233 48.1153 309.233C45.7652 309.233 44.2213 307.604 44.2213 305.305C44.2213 302.989 45.7652 301.36 48.1153 301.36C49.4876 301.36 50.6541 302.012 51.2373 303.075L53.2786 301.892C52.2494 300.176 50.311 299.061 48.1153 299.061C44.4787 299.061 41.8713 301.789 41.8713 305.305C41.8713 308.805 44.4787 311.549 48.1153 311.549Z" fill="#4C5363"/>
<path d="M54.7639 311.309H56.9767V298.787H54.7639V311.309Z" fill="#4C5363"/>
<path d="M60.1 301.703C60.8547 301.703 61.4723 301.085 61.4723 300.348C61.4723 299.61 60.8547 298.975 60.1 298.975C59.3623 298.975 58.7448 299.61 58.7448 300.348C58.7448 301.085 59.3623 301.703 60.1 301.703ZM59.0021 311.309H61.215V302.732H59.0021V311.309Z" fill="#4C5363"/>
<path d="M67.323 311.549C69.004 311.549 70.4621 310.657 71.1997 309.319L69.2785 308.221C68.9354 308.925 68.1978 309.353 67.3058 309.353C65.985 309.353 65.0072 308.376 65.0072 307.021C65.0072 305.648 65.985 304.67 67.3058 304.67C68.1807 304.67 68.9183 305.116 69.2613 305.82L71.1654 304.705C70.4621 303.384 69.004 302.492 67.323 302.492C64.7156 302.492 62.7943 304.465 62.7943 307.021C62.7943 309.576 64.7156 311.549 67.323 311.549Z" fill="#4C5363"/>
<path d="M80.278 311.309L76.7272 306.969L80.1751 302.732H77.5334L74.5829 306.506V299.301H72.3701V311.309H74.5829V307.415L77.705 311.309H80.278Z" fill="#4C5363"/>
<path d="M418.637 311.88H413.868V323.887H418.637C421.947 323.887 424.418 321.263 424.418 317.883C424.418 314.504 421.947 311.88 418.637 311.88ZM418.637 321.623H416.235V314.144H418.637C420.712 314.144 422.153 315.671 422.153 317.883C422.153 320.096 420.712 321.623 418.637 321.623Z" fill="#4C5363"/>
<path d="M430.076 324.127C432.598 324.127 434.622 322.155 434.622 319.599C434.622 317.043 432.598 315.07 430.076 315.07C427.555 315.07 425.548 317.043 425.548 319.599C425.548 322.155 427.555 324.127 430.076 324.127ZM430.076 321.966C428.773 321.966 427.761 320.988 427.761 319.599C427.761 318.209 428.773 317.232 430.076 317.232C431.397 317.232 432.409 318.209 432.409 319.599C432.409 320.988 431.397 321.966 430.076 321.966Z" fill="#4C5363"/>
<path d="M445.502 315.31L444.044 320.594L442.483 315.31H440.39L438.829 320.577L437.371 315.31H435.021L437.748 323.887H439.858L441.436 318.69L443.014 323.887H445.124L447.852 315.31H445.502Z" fill="#4C5363"/>
<path d="M453.813 315.07C452.664 315.07 451.772 315.499 451.257 316.271V315.31H449.044V323.887H451.257V319.256C451.257 317.763 452.064 317.129 453.144 317.129C454.139 317.129 454.842 317.729 454.842 318.896V323.887H457.055V318.621C457.055 316.34 455.632 315.07 453.813 315.07Z" fill="#4C5363"/>
<path d="M458.945 323.887H461.158V311.365H458.945V323.887Z" fill="#4C5363"/>
<path d="M467.266 324.127C469.787 324.127 471.811 322.155 471.811 319.599C471.811 317.043 469.787 315.07 467.266 315.07C464.744 315.07 462.737 317.043 462.737 319.599C462.737 322.155 464.744 324.127 467.266 324.127ZM467.266 321.966C465.962 321.966 464.95 320.988 464.95 319.599C464.95 318.209 465.962 317.232 467.266 317.232C468.586 317.232 469.599 318.209 469.599 319.599C469.599 320.988 468.586 321.966 467.266 321.966Z" fill="#4C5363"/>
<path d="M479.887 315.31V316.322C479.269 315.551 478.343 315.07 477.091 315.07C474.809 315.07 472.922 317.043 472.922 319.599C472.922 322.155 474.809 324.127 477.091 324.127C478.343 324.127 479.269 323.647 479.887 322.875V323.887H482.099V315.31H479.887ZM477.502 322.018C476.147 322.018 475.135 321.04 475.135 319.599C475.135 318.158 476.147 317.18 477.502 317.18C478.875 317.18 479.887 318.158 479.887 319.599C479.887 321.04 478.875 322.018 477.502 322.018Z" fill="#4C5363"/>
<path d="M490.607 311.88V316.322C489.99 315.533 489.081 315.07 487.828 315.07C485.53 315.07 483.643 317.043 483.643 319.599C483.643 322.155 485.53 324.127 487.828 324.127C489.081 324.127 489.99 323.664 490.607 322.875V323.887H492.82V311.88H490.607ZM488.24 322.018C486.868 322.018 485.856 321.04 485.856 319.599C485.856 318.158 486.868 317.18 488.24 317.18C489.595 317.18 490.607 318.158 490.607 319.599C490.607 321.04 489.595 322.018 488.24 322.018Z" fill="#4C5363"/>
<path d="M418.773 336.638V334.511C416.046 334.34 414.742 335.729 414.742 338.096V338.182H413.507V340.309H414.742V346.759H416.955V340.309H418.773V338.182H416.955V338.096C416.955 336.93 417.624 336.553 418.773 336.638Z" fill="#4C5363"/>
<path d="M422 339.657V338.182H419.787V346.759H422V342.659C422 340.858 423.458 340.344 424.608 340.481V338.011C423.527 338.011 422.446 338.491 422 339.657Z" fill="#4C5363"/>
<path d="M429.666 346.999C432.188 346.999 434.212 345.027 434.212 342.471C434.212 339.915 432.188 337.942 429.666 337.942C427.144 337.942 425.137 339.915 425.137 342.471C425.137 345.027 427.144 346.999 429.666 346.999ZM429.666 344.838C428.362 344.838 427.35 343.86 427.35 342.471C427.35 341.081 428.362 340.103 429.666 340.103C430.987 340.103 431.999 341.081 431.999 342.471C431.999 343.86 430.987 344.838 429.666 344.838Z" fill="#4C5363"/>
<path d="M445.255 337.942C444.088 337.942 443.231 338.405 442.699 339.177C442.218 338.388 441.429 337.942 440.366 337.942C439.268 337.942 438.462 338.371 437.981 339.091V338.182H435.769V346.759H437.981V341.939C437.981 340.652 438.65 340.001 439.594 340.001C440.52 340.001 441.035 340.618 441.035 341.63V346.759H443.248V341.939C443.248 340.652 443.865 340.001 444.843 340.001C445.769 340.001 446.284 340.618 446.284 341.63V346.759H448.497V341.476C448.497 339.332 447.21 337.942 445.255 337.942Z" fill="#4C5363"/>
<path d="M456.706 340.618C456.706 340.155 457.152 339.915 457.701 339.915C458.336 339.915 458.816 340.241 459.073 340.79L460.96 339.76C460.291 338.577 459.09 337.942 457.701 337.942C455.934 337.942 454.442 338.92 454.442 340.67C454.442 343.689 458.867 343.002 458.867 344.255C458.867 344.752 458.387 344.992 457.684 344.992C456.826 344.992 456.243 344.581 456.003 343.877L454.081 344.958C454.699 346.279 455.968 346.999 457.684 346.999C459.519 346.999 461.132 346.107 461.132 344.255C461.132 341.098 456.706 341.887 456.706 340.618Z" fill="#4C5363"/>
<path d="M467.21 340.309V338.182H465.271V335.781L463.058 336.45V338.182H461.566V340.309H463.058V343.877C463.058 346.193 464.105 347.102 467.21 346.759V344.752C465.94 344.821 465.271 344.804 465.271 343.877V340.309H467.21Z" fill="#4C5363"/>
<path d="M472.584 346.999C475.106 346.999 477.13 345.027 477.13 342.471C477.13 339.915 475.106 337.942 472.584 337.942C470.063 337.942 468.056 339.915 468.056 342.471C468.056 345.027 470.063 346.999 472.584 346.999ZM472.584 344.838C471.281 344.838 470.269 343.86 470.269 342.471C470.269 341.081 471.281 340.103 472.584 340.103C473.905 340.103 474.917 341.081 474.917 342.471C474.917 343.86 473.905 344.838 472.584 344.838Z" fill="#4C5363"/>
<path d="M480.9 339.657V338.182H478.687V346.759H480.9V342.659C480.9 340.858 482.358 340.344 483.507 340.481V338.011C482.426 338.011 481.346 338.491 480.9 339.657Z" fill="#4C5363"/>
<path d="M486.353 343.38H492.82C492.871 343.088 492.906 342.797 492.906 342.471C492.906 339.949 491.104 337.942 488.566 337.942C485.872 337.942 484.037 339.915 484.037 342.471C484.037 345.027 485.855 346.999 488.737 346.999C490.384 346.999 491.67 346.33 492.477 345.164L490.693 344.135C490.315 344.632 489.629 344.992 488.771 344.992C487.605 344.992 486.662 344.512 486.353 343.38ZM486.318 341.664C486.576 340.567 487.382 339.932 488.566 339.932C489.492 339.932 490.418 340.429 490.693 341.664H486.318Z" fill="#4C5363"/>
<path d="M576.474 122.616H578.704L575.047 112.209H572.504L568.862 122.616H571.077L571.702 120.743H575.849L576.474 122.616ZM572.356 118.825L573.783 114.573L575.21 118.825H572.356Z" fill="#4C5363"/>
<path d="M583.951 114.975C582.866 114.975 582.078 115.376 581.543 116.06V115.183H579.625V125.589H581.543V121.739C582.078 122.423 582.866 122.824 583.951 122.824C585.943 122.824 587.579 121.114 587.579 118.899C587.579 116.684 585.943 114.975 583.951 114.975ZM583.595 120.996C582.42 120.996 581.543 120.148 581.543 118.899C581.543 117.651 582.42 116.803 583.595 116.803C584.784 116.803 585.661 117.651 585.661 118.899C585.661 120.148 584.784 120.996 583.595 120.996Z" fill="#4C5363"/>
<path d="M593.258 114.975C592.172 114.975 591.384 115.376 590.849 116.06V115.183H588.931V125.589H590.849V121.739C591.384 122.423 592.172 122.824 593.258 122.824C595.25 122.824 596.885 121.114 596.885 118.899C596.885 116.684 595.25 114.975 593.258 114.975ZM592.901 120.996C591.726 120.996 590.849 120.148 590.849 118.899C590.849 117.651 591.726 116.803 592.901 116.803C594.09 116.803 594.967 117.651 594.967 118.899C594.967 120.148 594.09 120.996 592.901 120.996Z" fill="#4C5363"/>
<path d="M560.775 141.122C562.693 141.122 564.373 140.155 565.25 138.669L563.481 137.643C562.99 138.55 561.964 139.115 560.775 139.115C558.738 139.115 557.4 137.702 557.4 135.71C557.4 133.703 558.738 132.291 560.775 132.291C561.964 132.291 562.975 132.856 563.481 133.777L565.25 132.752C564.358 131.265 562.678 130.299 560.775 130.299C557.623 130.299 555.363 132.662 555.363 135.71C555.363 138.743 557.623 141.122 560.775 141.122Z" fill="#4C5363"/>
<path d="M570.003 141.122C572.188 141.122 573.942 139.412 573.942 137.197C573.942 134.982 572.188 133.272 570.003 133.272C567.817 133.272 566.078 134.982 566.078 137.197C566.078 139.412 567.817 141.122 570.003 141.122ZM570.003 139.248C568.873 139.248 567.996 138.401 567.996 137.197C567.996 135.993 568.873 135.145 570.003 135.145C571.147 135.145 572.024 135.993 572.024 137.197C572.024 138.401 571.147 139.248 570.003 139.248Z" fill="#4C5363"/>
<path d="M579.424 133.272C578.428 133.272 577.655 133.644 577.209 134.313V133.48H575.291V140.914H577.209V136.899C577.209 135.606 577.908 135.056 578.845 135.056C579.707 135.056 580.316 135.576 580.316 136.587V140.914H582.234V136.349C582.234 134.372 581 133.272 579.424 133.272Z" fill="#4C5363"/>
<path d="M588.124 135.324V133.48H586.444V131.399L584.526 131.979V133.48H583.232V135.324H584.526V138.416C584.526 140.423 585.433 141.211 588.124 140.914V139.174C587.023 139.234 586.444 139.219 586.444 138.416V135.324H588.124Z" fill="#4C5363"/>
<path d="M590.864 137.985H596.469C596.513 137.732 596.543 137.479 596.543 137.197C596.543 135.011 594.982 133.272 592.782 133.272C590.448 133.272 588.857 134.982 588.857 137.197C588.857 139.412 590.433 141.122 592.93 141.122C594.358 141.122 595.473 140.542 596.171 139.531L594.625 138.639C594.298 139.07 593.703 139.382 592.96 139.382C591.949 139.382 591.132 138.966 590.864 137.985ZM590.834 136.498C591.057 135.547 591.756 134.997 592.782 134.997C593.585 134.997 594.387 135.428 594.625 136.498H590.834Z" fill="#4C5363"/>
<path d="M602.015 133.272C601.019 133.272 600.246 133.644 599.8 134.313V133.48H597.882V140.914H599.8V136.899C599.8 135.606 600.498 135.056 601.435 135.056C602.297 135.056 602.907 135.576 602.907 136.587V140.914H604.825V136.349C604.825 134.372 603.591 133.272 602.015 133.272Z" fill="#4C5363"/>
<path d="M610.714 135.324V133.48H609.034V131.399L607.116 131.979V133.48H605.823V135.324H607.116V138.416C607.116 140.423 608.023 141.211 610.714 140.914V139.174C609.614 139.234 609.034 139.219 609.034 138.416V135.324H610.714Z" fill="#4C5363"/>
<path d="M299.163 114.609H301.736L297.516 102.601H294.583L290.38 114.609H292.936L293.656 112.448H298.442L299.163 114.609ZM294.411 110.235L296.058 105.329L297.705 110.235H294.411Z" fill="#4C5363"/>
<path d="M307.791 105.792C306.538 105.792 305.629 106.255 305.012 107.044V106.032H302.799V118.04H305.012V113.597C305.629 114.386 306.538 114.849 307.791 114.849C310.089 114.849 311.976 112.877 311.976 110.321C311.976 107.765 310.089 105.792 307.791 105.792ZM307.379 112.739C306.024 112.739 305.012 111.762 305.012 110.321C305.012 108.88 306.024 107.902 307.379 107.902C308.751 107.902 309.763 108.88 309.763 110.321C309.763 111.762 308.751 112.739 307.379 112.739Z" fill="#4C5363"/>
<path d="M318.528 105.792C317.276 105.792 316.367 106.255 315.75 107.044V106.032H313.537V118.04H315.75V113.597C316.367 114.386 317.276 114.849 318.528 114.849C320.827 114.849 322.714 112.877 322.714 110.321C322.714 107.765 320.827 105.792 318.528 105.792ZM318.117 112.739C316.762 112.739 315.75 111.762 315.75 110.321C315.75 108.88 316.762 107.902 318.117 107.902C319.489 107.902 320.501 108.88 320.501 110.321C320.501 111.762 319.489 112.739 318.117 112.739Z" fill="#4C5363"/>
<path d="M328.666 102.601V114.609H331.033V102.601H328.666Z" fill="#4C5363"/>
<path d="M337.922 105.792C336.773 105.792 335.881 106.221 335.366 106.993V106.032H333.153V114.609H335.366V109.978C335.366 108.485 336.172 107.851 337.253 107.851C338.248 107.851 338.951 108.451 338.951 109.617V114.609H341.164V109.343C341.164 107.061 339.74 105.792 337.922 105.792Z" fill="#4C5363"/>
<path d="M345.095 108.468C345.095 108.005 345.541 107.765 346.09 107.765C346.724 107.765 347.205 108.091 347.462 108.64L349.349 107.61C348.68 106.427 347.479 105.792 346.09 105.792C344.323 105.792 342.83 106.77 342.83 108.52C342.83 111.539 347.256 110.853 347.256 112.105C347.256 112.602 346.776 112.842 346.073 112.842C345.215 112.842 344.632 112.431 344.391 111.727L342.47 112.808C343.088 114.129 344.357 114.849 346.073 114.849C347.908 114.849 349.52 113.957 349.52 112.105C349.52 108.948 345.095 109.738 345.095 108.468Z" fill="#4C5363"/>
<path d="M355.598 108.159V106.032H353.66V103.631L351.447 104.3V106.032H349.955V108.159H351.447V111.727C351.447 114.043 352.493 114.952 355.598 114.609V112.602C354.329 112.671 353.66 112.654 353.66 111.727V108.159H355.598Z" fill="#4C5363"/>
<path d="M363.409 106.032V107.044C362.791 106.272 361.865 105.792 360.613 105.792C358.331 105.792 356.445 107.765 356.445 110.321C356.445 112.877 358.331 114.849 360.613 114.849C361.865 114.849 362.791 114.369 363.409 113.597V114.609H365.622V106.032H363.409ZM361.025 112.739C359.669 112.739 358.657 111.762 358.657 110.321C358.657 108.88 359.669 107.902 361.025 107.902C362.397 107.902 363.409 108.88 363.409 110.321C363.409 111.762 362.397 112.739 361.025 112.739Z" fill="#4C5363"/>
<path d="M367.628 114.609H369.841V102.087H367.628V114.609Z" fill="#4C5363"/>
<path d="M371.867 114.609H374.08V102.087H371.867V114.609Z" fill="#4C5363"/>
<path d="M377.975 111.23H384.442C384.493 110.938 384.527 110.647 384.527 110.321C384.527 107.799 382.726 105.792 380.188 105.792C377.494 105.792 375.659 107.765 375.659 110.321C375.659 112.877 377.477 114.849 380.359 114.849C382.006 114.849 383.292 114.18 384.099 113.014L382.315 111.985C381.937 112.482 381.251 112.842 380.393 112.842C379.227 112.842 378.283 112.362 377.975 111.23ZM377.94 109.515C378.198 108.417 379.004 107.782 380.188 107.782C381.114 107.782 382.04 108.279 382.315 109.515H377.94Z" fill="#4C5363"/>
<path d="M392.507 102.601V107.044C391.889 106.255 390.98 105.792 389.728 105.792C387.429 105.792 385.542 107.765 385.542 110.321C385.542 112.877 387.429 114.849 389.728 114.849C390.98 114.849 391.889 114.386 392.507 113.597V114.609H394.719V102.601H392.507ZM390.139 112.739C388.767 112.739 387.755 111.762 387.755 110.321C387.755 108.88 388.767 107.902 390.139 107.902C391.494 107.902 392.507 108.88 392.507 110.321C392.507 111.762 391.494 112.739 390.139 112.739Z" fill="#4C5363"/>
<path d="M270.888 97.4552C264.574 97.4552 259.452 102.577 259.452 108.891C259.452 115.205 264.574 120.327 270.888 120.327C277.202 120.327 282.324 115.205 282.324 108.891C282.324 102.577 277.202 97.4552 270.888 97.4552ZM277.973 106.131L269.272 114.808H268.576L263.28 109.487V108.791L265.368 106.703H266.064L268.923 109.562L275.164 103.322H275.86L277.948 105.409C277.973 105.684 277.973 105.858 277.973 106.131L277.973 106.131Z" fill="#00D0B2"/>
<path d="M203.328 307.003H205.901L201.681 294.995H198.748L194.545 307.003H197.101L197.821 304.842H202.607L203.328 307.003ZM198.576 302.629L200.223 297.723L201.87 302.629H198.576Z" fill="#4C5363"/>
<path d="M211.956 298.186C210.703 298.186 209.794 298.649 209.177 299.438V298.426H206.964V310.434H209.177V305.991C209.794 306.78 210.703 307.243 211.956 307.243C214.254 307.243 216.141 305.271 216.141 302.715C216.141 300.159 214.254 298.186 211.956 298.186ZM211.544 305.133C210.189 305.133 209.177 304.156 209.177 302.715C209.177 301.274 210.189 300.296 211.544 300.296C212.916 300.296 213.928 301.274 213.928 302.715C213.928 304.156 212.916 305.133 211.544 305.133Z" fill="#4C5363"/>
<path d="M222.694 298.186C221.441 298.186 220.532 298.649 219.915 299.438V298.426H217.702V310.434H219.915V305.991C220.532 306.78 221.441 307.243 222.694 307.243C224.992 307.243 226.879 305.271 226.879 302.715C226.879 300.159 224.992 298.186 222.694 298.186ZM222.282 305.133C220.927 305.133 219.915 304.156 219.915 302.715C219.915 301.274 220.927 300.296 222.282 300.296C223.654 300.296 224.666 301.274 224.666 302.715C224.666 304.156 223.654 305.133 222.282 305.133Z" fill="#4C5363"/>
<path d="M239.778 294.995V302.32L234.632 294.995H232.831V307.003H235.198V299.661L240.344 307.003H242.146V294.995H239.778Z" fill="#4C5363"/>
<path d="M248.353 307.243C250.874 307.243 252.899 305.271 252.899 302.715C252.899 300.159 250.874 298.186 248.353 298.186C245.831 298.186 243.824 300.159 243.824 302.715C243.824 305.271 245.831 307.243 248.353 307.243ZM248.353 305.082C247.049 305.082 246.037 304.104 246.037 302.715C246.037 301.325 247.049 300.347 248.353 300.347C249.674 300.347 250.686 301.325 250.686 302.715C250.686 304.104 249.674 305.082 248.353 305.082Z" fill="#4C5363"/>
<path d="M259.177 300.553V298.426H257.239V296.025L255.026 296.694V298.426H253.533V300.553H255.026V304.121C255.026 306.437 256.072 307.346 259.177 307.003V304.996C257.908 305.065 257.239 305.048 257.239 304.121V300.553H259.177Z" fill="#4C5363"/>
<path d="M265.263 294.995V307.003H267.63V294.995H265.263Z" fill="#4C5363"/>
<path d="M274.519 298.186C273.369 298.186 272.477 298.615 271.963 299.387V298.426H269.75V307.003H271.963V302.372C271.963 300.879 272.769 300.244 273.85 300.244C274.844 300.244 275.548 300.845 275.548 302.011V307.003H277.761V301.737C277.761 299.455 276.337 298.186 274.519 298.186Z" fill="#4C5363"/>
<path d="M281.691 300.862C281.691 300.399 282.137 300.159 282.686 300.159C283.321 300.159 283.801 300.485 284.059 301.034L285.946 300.004C285.277 298.821 284.076 298.186 282.686 298.186C280.919 298.186 279.427 299.164 279.427 300.913C279.427 303.933 283.853 303.246 283.853 304.499C283.853 304.996 283.372 305.236 282.669 305.236C281.811 305.236 281.228 304.825 280.988 304.121L279.067 305.202C279.684 306.523 280.954 307.243 282.669 307.243C284.505 307.243 286.117 306.351 286.117 304.499C286.117 301.342 281.691 302.131 281.691 300.862Z" fill="#4C5363"/>
<path d="M292.195 300.553V298.426H290.257V296.025L288.044 296.694V298.426H286.551V300.553H288.044V304.121C288.044 306.437 289.09 307.346 292.195 307.003V304.996C290.926 305.065 290.257 305.048 290.257 304.121V300.553H292.195Z" fill="#4C5363"/>
<path d="M300.006 298.426V299.438C299.388 298.666 298.462 298.186 297.21 298.186C294.928 298.186 293.041 300.159 293.041 302.715C293.041 305.271 294.928 307.243 297.21 307.243C298.462 307.243 299.388 306.763 300.006 305.991V307.003H302.218V298.426H300.006ZM297.621 305.133C296.266 305.133 295.254 304.156 295.254 302.715C295.254 301.274 296.266 300.296 297.621 300.296C298.994 300.296 300.006 301.274 300.006 302.715C300.006 304.156 298.994 305.133 297.621 305.133Z" fill="#4C5363"/>
<path d="M304.225 307.003H306.438V294.481H304.225V307.003Z" fill="#4C5363"/>
<path d="M308.463 307.003H310.676V294.481H308.463V307.003Z" fill="#4C5363"/>
<path d="M314.571 303.624H321.038C321.09 303.332 321.124 303.041 321.124 302.715C321.124 300.193 319.323 298.186 316.784 298.186C314.091 298.186 312.256 300.159 312.256 302.715C312.256 305.271 314.074 307.243 316.956 307.243C318.602 307.243 319.889 306.574 320.695 305.408L318.911 304.379C318.534 304.876 317.848 305.236 316.99 305.236C315.824 305.236 314.88 304.756 314.571 303.624ZM314.537 301.908C314.794 300.811 315.601 300.176 316.784 300.176C317.71 300.176 318.637 300.673 318.911 301.908H314.537Z" fill="#4C5363"/>
<path d="M329.103 294.995V299.438C328.486 298.649 327.576 298.186 326.324 298.186C324.026 298.186 322.139 300.159 322.139 302.715C322.139 305.271 324.026 307.243 326.324 307.243C327.576 307.243 328.486 306.78 329.103 305.991V307.003H331.316V294.995H329.103ZM326.736 305.133C325.364 305.133 324.352 304.156 324.352 302.715C324.352 301.274 325.364 300.296 326.736 300.296C328.091 300.296 329.103 301.274 329.103 302.715C329.103 304.156 328.091 305.133 326.736 305.133Z" fill="#4C5363"/>
<path fill-rule="evenodd" clip-rule="evenodd" d="M175.053 289.849C168.739 289.849 163.617 294.971 163.617 301.285C163.617 307.599 168.739 312.721 175.053 312.721C181.367 312.721 186.489 307.599 186.489 301.285C186.489 294.971 181.367 289.849 175.053 289.849ZM178.177 295.855L175.178 298.845L172.193 295.909L171.764 295.909L169.42 297.889V298.586L172.421 301.595L169.475 304.532V304.533C169.475 304.805 169.475 304.979 169.501 305.253L171.588 307.341H172.285L175.197 304.379L178.097 307.287H178.098C178.37 307.287 178.544 307.287 178.819 307.262L180.906 305.174V304.477L177.955 301.575L180.853 298.628L180.853 298.199L178.873 295.855H178.177Z" fill="#E64068"/>
</g>
<defs>
<filter id="filter0_d_1103_758" x="-29" y="104.614" width="144.843" height="223.202" filterUnits="userSpaceOnUse" color-interpolation-filters="sRGB">
<feFlood flood-opacity="0" result="BackgroundImageFix"/>
<feColorMatrix in="SourceAlpha" type="matrix" values="0 0 0 0 0 0 0 0 0 0 0 0 0 0 0 0 0 0 127 0" result="hardAlpha"/>
<feOffset dy="12"/>
<feGaussianBlur stdDeviation="15"/>
<feColorMatrix type="matrix" values="0 0 0 0 0 0 0 0 0 0 0 0 0 0 0 0 0 0 0.1 0"/>
<feBlend mode="normal" in2="BackgroundImageFix" result="effect1_dropShadow_1103_758"/>
<feBlend mode="normal" in="SourceGraphic" in2="effect1_dropShadow_1103_758" result="shape"/>
</filter>
<filter id="filter1_d_1103_758" x="510.776" y="36" width="144.848" height="212.649" filterUnits="userSpaceOnUse" color-interpolation-filters="sRGB">
<feFlood flood-opacity="0" result="BackgroundImageFix"/>
<feColorMatrix in="SourceAlpha" type="matrix" values="0 0 0 0 0 0 0 0 0 0 0 0 0 0 0 0 0 0 127 0" result="hardAlpha"/>
<feOffset dy="12"/>
<feGaussianBlur stdDeviation="15"/>
<feColorMatrix type="matrix" values="0 0 0 0 0 0 0 0 0 0 0 0 0 0 0 0 0 0 0.1 0"/>
<feBlend mode="normal" in2="BackgroundImageFix" result="effect1_dropShadow_1103_758"/>
<feBlend mode="normal" in="SourceGraphic" in2="effect1_dropShadow_1103_758" result="shape"/>
</filter>
<filter id="filter2_d_1103_758" x="399.263" y="250.13" width="65.7256" height="65.7206" filterUnits="userSpaceOnUse" color-interpolation-filters="sRGB">
<feFlood flood-opacity="0" result="BackgroundImageFix"/>
<feColorMatrix in="SourceAlpha" type="matrix" values="0 0 0 0 0 0 0 0 0 0 0 0 0 0 0 0 0 0 127 0" result="hardAlpha"/>
<feOffset dy="6"/>
<feGaussianBlur stdDeviation="5"/>
<feColorMatrix type="matrix" values="0 0 0 0 0 0 0 0 0 0 0 0 0 0 0 0 0 0 0.15 0"/>
<feBlend mode="normal" in2="BackgroundImageFix" result="effect1_dropShadow_1103_758"/>
<feBlend mode="normal" in="SourceGraphic" in2="effect1_dropShadow_1103_758" result="shape"/>
</filter>
<filter id="filter3_d_1103_758" x="456.44" y="251.258" width="59.6094" height="64.5095" filterUnits="userSpaceOnUse" color-interpolation-filters="sRGB">
<feFlood flood-opacity="0" result="BackgroundImageFix"/>
<feColorMatrix in="SourceAlpha" type="matrix" values="0 0 0 0 0 0 0 0 0 0 0 0 0 0 0 0 0 0 127 0" result="hardAlpha"/>
<feOffset dy="6"/>
<feGaussianBlur stdDeviation="5"/>
<feColorMatrix type="matrix" values="0 0 0 0 0 0 0 0 0 0 0 0 0 0 0 0 0 0 0.15 0"/>
<feBlend mode="normal" in2="BackgroundImageFix" result="effect1_dropShadow_1103_758"/>
<feBlend mode="normal" in="SourceGraphic" in2="effect1_dropShadow_1103_758" result="shape"/>
</filter>
<linearGradient id="paint0_linear_1103_758" x1="432.123" y1="254.13" x2="432.123" y2="299.851" gradientUnits="userSpaceOnUse">
<stop stop-color="#0ED4FC"/>
<stop offset="1" stop-color="#0C57EF"/>
</linearGradient>
<linearGradient id="paint1_linear_1103_758" x1="486.727" y1="257.97" x2="457.688" y2="286.755" gradientUnits="userSpaceOnUse">
<stop stop-color="#00A0FF"/>
<stop offset="0.00657445" stop-color="#00A1FF"/>
<stop offset="0.2601" stop-color="#00BEFF"/>
<stop offset="0.5122" stop-color="#00D2FF"/>
<stop offset="0.7604" stop-color="#00DFFF"/>
<stop offset="1" stop-color="#00E3FF"/>
</linearGradient>
<linearGradient id="paint2_linear_1103_758" x1="507.364" y1="277.512" x2="465.861" y2="277.512" gradientUnits="userSpaceOnUse">
<stop stop-color="#FFE000"/>
<stop offset="0.4087" stop-color="#FFBD00"/>
<stop offset="0.7754" stop-color="#FFA500"/>
<stop offset="1" stop-color="#FF9C00"/>
</linearGradient>
<linearGradient id="paint3_linear_1103_758" x1="491.919" y1="281.482" x2="452.54" y2="320.516" gradientUnits="userSpaceOnUse">
<stop stop-color="#FF3A44"/>
<stop offset="1" stop-color="#C31162"/>
</linearGradient>
<linearGradient id="paint4_linear_1103_758" x1="461.852" y1="243.206" x2="479.437" y2="260.637" gradientUnits="userSpaceOnUse">
<stop stop-color="#32A071"/>
<stop offset="0.0685" stop-color="#2DA771"/>
<stop offset="0.4762" stop-color="#15CF74"/>
<stop offset="0.8009" stop-color="#06E775"/>
<stop offset="1" stop-color="#00F076"/>
</linearGradient>
<clipPath id="clip0_1103_758">
<rect width="627" height="400" fill="white"/>
</clipPath>
</defs>
</svg>
