<svg width="95" height="21" viewBox="0 0 95 21" fill="none" xmlns="http://www.w3.org/2000/svg">
<path d="M89.8414 5.20005H83.3931H73.7275V0H95L89.8414 5.20005ZM78.2073 20.8002V10.3727L83.366 5.159V20.8002H78.2073ZM64.3605 10.3727L69.5191 5.159V20.8002H64.3605V10.3727ZM64.3605 0H69.5191V5.20005H64.3605V0ZM40.8074 10.4001C40.8074 4.65268 45.423 0 51.1246 0H60.1522V5.20005H51.1246C48.2738 5.20005 45.966 7.52639 45.966 10.4001C45.966 13.2738 48.2738 15.6002 51.1246 15.6002H58.2245L53.0659 10.4001H60.1522V20.8002H51.1246C45.4094 20.8002 40.8074 16.1475 40.8074 10.4001ZM32.0513 10.3727L37.2099 5.159V20.8002H32.0513V10.3727V10.3727ZM32.0513 0H37.2099V5.20005H32.0513V0V0ZM18.0687 20.8002H7.7515V10.4001L12.9101 5.33689V15.6002H18.0687C20.9196 15.6002 23.2274 13.2738 23.2274 10.4001C23.2274 7.52639 20.9196 5.20005 18.0687 5.20005H0L5.15862 0H18.0687C23.7704 0 28.386 4.65268 28.386 10.4001C28.386 16.1475 23.7704 20.8002 18.0687 20.8002Z" fill="#2C3543"/>
</svg>
