<svg width="93" height="21" viewBox="0 0 93 21" fill="none" xmlns="http://www.w3.org/2000/svg">
<path d="M87.95 5.05435H81.6375H72.1753V0H93L87.95 5.05435ZM76.5609 20.2174V10.0821L81.6109 5.01445V20.2174H76.5609ZM63.0056 10.0821L68.0556 5.01445V20.2174H63.0056V10.0821ZM63.0056 0H68.0556V5.05435H63.0056V0ZM39.9483 10.1087C39.9483 4.52231 44.4667 0 50.0483 0H58.8858V5.05435H50.0483C47.2575 5.05435 44.9983 7.3155 44.9983 10.1087C44.9983 12.9019 47.2575 15.163 50.0483 15.163H56.9987L51.9487 10.1087H58.8858V20.2174H50.0483C44.4534 20.2174 39.9483 15.6951 39.9483 10.1087ZM31.3765 10.0821L36.4266 5.01445V20.2174H31.3765V10.0821V10.0821ZM31.3765 0H36.4266V5.05435H31.3765V0V0ZM17.6883 20.2174H7.58831V10.1087L12.6383 5.18736V15.163H17.6883C20.4791 15.163 22.7384 12.9019 22.7384 10.1087C22.7384 7.3155 20.4791 5.05435 17.6883 5.05435H0L5.05001 0H17.6883C23.2699 0 27.7884 4.52231 27.7884 10.1087C27.7884 15.6951 23.2699 20.2174 17.6883 20.2174Z" fill="#2C3543"/>
</svg>
