<svg width="155" height="17" viewBox="0 0 155 17" fill="none" xmlns="http://www.w3.org/2000/svg">
<path d="M12.0389 14.2317H15.4962C18.5214 14.2317 21.0527 11.776 21.2379 8.69056C21.4231 5.79408 19.5709 3.14946 16.7927 2.45682C16.2371 2.33088 15.6814 2.26792 15.1258 2.26792C11.1128 2.26792 7.09987 2.26792 3.02516 2.26792C2.28431 2.33088 1.54345 2.01605 1.11128 1.38638C0.802594 0.945608 0.432166 0.567805 0 0.064068C0.370428 0.00110085 0.61738 0.00110085 0.864332 0.00110085C5.67989 0.00110085 10.4955 0.00110085 15.311 0.00110085C19.077 -0.0618663 22.3492 2.58275 23.2135 6.29781C24.3248 10.7055 21.67 15.1762 17.3484 16.3096C16.731 16.4355 16.1136 16.5615 15.4962 16.5615C14.385 16.5615 13.5824 16.3096 12.965 15.3651C12.718 14.9873 12.4093 14.6724 12.0389 14.2317Z" fill="#2C3643"/>
<path d="M43.8711 2.07025C45.7983 2.13035 47.7254 2.13035 49.5924 2.37076C51.8809 2.67127 54.35 4.77484 54.0489 8.50117C53.7478 11.2058 51.4593 13.3093 48.7492 13.4295C47.1232 13.4896 45.5574 13.4295 43.8711 13.4295V2.07025ZM45.9789 4.11372V11.5664C46.8823 11.5664 47.6652 11.6265 48.5083 11.5664C50.4957 11.4462 52.0013 9.70321 51.8809 7.71984C51.8809 5.73648 50.315 4.17382 48.3277 4.11372C47.605 4.05362 46.8221 4.11372 45.9789 4.11372Z" fill="#2C3643"/>
<path d="M79.6149 2.13362C82.8456 2.00688 85.5792 4.60495 85.7034 7.90006C85.7034 8.0268 85.7034 8.15353 85.7034 8.2169C85.7034 11.6387 83.0319 14.4269 79.6149 14.4903C76.1979 14.5536 73.5264 11.7655 73.4643 8.28027C73.3401 4.98516 75.8873 2.19699 79.1179 2.07025C79.3043 2.13362 79.4286 2.13362 79.6149 2.13362ZM83.4047 8.28027C83.4668 6.12577 81.7894 4.28811 79.6771 4.16138C79.6149 4.16138 79.6149 4.16138 79.5528 4.16138C77.6269 4.16138 75.763 5.61883 75.7009 8.28027C75.6388 10.4981 77.3162 12.3358 79.4907 12.3992H79.5528C81.6651 12.3992 83.4047 10.5615 83.3426 8.407C83.4047 8.407 83.4047 8.34363 83.4047 8.28027Z" fill="#2C3643"/>
<path d="M89.7842 2.07025C91.4012 2.07025 92.9605 2.07025 94.5199 2.07025C94.9241 2.07025 95.3284 2.13114 95.7326 2.19203C97.4075 2.55735 98.3892 3.59244 98.5625 5.23641C98.7935 6.81949 97.985 8.40257 96.5989 9.07234C96.4834 9.13322 96.3679 9.19411 96.1947 9.31589L98.9668 13.4563H96.5989L94.0578 9.68121H91.8055V13.4563H89.8419V2.07025H89.7842ZM91.8055 7.67192C92.7873 7.67192 93.6536 7.67192 94.5776 7.67192C94.8664 7.67192 95.1551 7.61103 95.4439 7.48926C96.1947 7.24571 96.6567 6.51505 96.5989 5.72351C96.5989 4.93197 96.0214 4.26221 95.3284 4.20132C94.1733 4.07955 93.0761 4.20132 91.8633 4.20132L91.8055 7.67192Z" fill="#2C3643"/>
<path d="M70.3943 8.31334C70.5192 11.6253 67.959 14.4277 64.7119 14.4913C64.587 14.4913 64.3997 14.4913 64.2748 14.4913C60.653 14.4913 58.1553 11.88 58.1553 8.31334C58.1553 4.10976 61.4024 2.00797 64.3997 2.07166C67.7092 2.00797 70.3943 4.74667 70.3943 8.05858C70.3943 8.12227 70.3943 8.24965 70.3943 8.31334ZM64.2124 4.17345C62.0893 4.17345 60.4033 5.95679 60.4033 8.12227C60.4033 8.18596 60.4033 8.24965 60.4033 8.31334C60.3408 10.4788 61.9644 12.3259 64.0875 12.3895C66.2106 12.4532 68.0215 10.7973 68.0839 8.6318C68.0839 8.50442 68.0839 8.31334 68.0839 8.18596C68.1464 6.02048 66.4604 4.17345 64.2748 4.10976C64.2748 4.17345 64.2748 4.17345 64.2124 4.17345Z" fill="#2C3643"/>
<path d="M104.068 13.4294V2.08856C106.114 2.20921 108.1 1.84726 110.086 2.32985C112.793 2.99342 114.538 5.52702 114.238 8.30191C114.057 11.1371 111.771 13.3691 108.942 13.4294C107.318 13.4898 105.753 13.4294 104.068 13.4294ZM106.114 11.6197C107.197 11.6197 108.28 11.5594 109.364 11.3784C110.868 11.0768 111.831 9.81001 112.011 8.18127C112.192 6.67317 111.409 5.16507 110.025 4.44119C108.762 3.83795 107.438 4.01892 106.054 4.07925L106.114 11.6197Z" fill="#2C3643"/>
<path d="M21.4248 16.5615L23.3989 14.2945C24.1391 14.2945 25.0028 14.2945 25.8048 14.2945C28.0873 14.2945 30.123 12.9091 30.9867 10.7051C31.9737 8.69004 31.6036 6.23416 30.123 4.53393C29.0126 3.08559 27.2236 2.26697 25.4346 2.32994H23.3989L21.4248 0.0629713C21.6716 0.0629713 21.9183 0 22.1034 0C23.769 0.0629713 25.4963 -0.125943 27.1002 0.188914C31.4802 1.07051 34.3796 5.35256 33.516 9.82352C33.2692 11.0829 32.7757 12.2164 32.0354 13.224C30.6165 15.302 28.2107 16.5615 25.7431 16.4985H21.4248V16.5615Z" fill="#2C3643"/>
<path d="M154.062 2.07025V13.4563H152.022V8.80391H146.92V13.4563H144.88V2.07025H146.86V6.66138H152.022V2.07025H154.062Z" fill="#2C3643"/>
<path d="M122.481 2.07025H124.427L129.575 13.4563H127.252L126.122 10.926H120.723L119.53 13.4563H117.332L122.481 2.07025ZM123.548 4.96193H123.36L121.602 8.87775H125.306L123.548 4.96193Z" fill="#2C3643"/>
<path d="M131.616 11.6527L132.811 10.3526C133.754 10.8253 134.76 11.1799 135.765 11.5345C136.394 11.6527 137.023 11.5936 137.589 11.4754C138.154 11.4163 138.594 10.8844 138.657 10.3526C138.657 9.8207 138.28 9.34793 137.777 9.22973C137.211 9.05244 136.708 8.93425 136.143 8.75696C135.388 8.57967 134.634 8.34329 133.942 8.0478C131.428 6.98407 131.742 3.97015 133.502 2.84731C134.382 2.25635 135.451 2.01996 136.583 2.07906C138.029 2.07906 139.475 2.61093 140.543 3.55647L139.475 4.91569C138.532 4.56111 137.526 4.26563 136.52 3.97015C136.017 3.91105 135.451 3.97015 135.011 4.20653C134.445 4.44292 134.194 5.09298 134.445 5.56575C134.571 5.80214 134.76 5.97943 135.011 6.09762C135.577 6.33401 136.206 6.57039 136.771 6.74768C137.526 6.98407 138.28 7.22045 139.035 7.45684C140.166 7.87051 140.858 8.93425 140.795 10.0571C140.858 11.239 140.166 12.3618 139.097 12.8937C137.526 13.662 135.891 13.5438 134.32 13.1301C133.251 12.8937 132.308 12.3618 131.616 11.6527Z" fill="#2C3643"/>
<path d="M18.3641 7.22943H17.3916C14.1093 7.22943 10.827 7.17546 7.6055 7.22943C6.57218 7.33736 5.53887 6.90564 4.93104 6.15014C4.68791 5.88032 4.44478 5.6105 4.08008 5.23275C4.38399 5.23275 4.56634 5.17879 4.68791 5.17879H15.021C16.419 5.12482 17.6955 5.77239 18.3033 6.85168C18.3033 6.95961 18.3033 7.06754 18.3641 7.22943Z" fill="#2C3643"/>
<path d="M8.16113 9.31592H18.364C18.0039 10.4741 16.9236 11.2848 15.6632 11.3427C13.9828 11.4006 12.3623 11.4006 10.6818 11.3427C10.3818 11.3427 10.0817 11.2269 9.84161 11.0531C9.18142 10.532 8.70129 9.9529 8.16113 9.31592Z" fill="#2C3643"/>
<path d="M24.4854 5.28342C26.1858 4.83487 28.2831 5.84411 28.5665 7.24584H24.9388L24.4854 5.28342Z" fill="#2C3643"/>
<path d="M24.4854 11.3087L24.9452 9.31592H28.5665C28.1641 10.7812 26.4397 11.6604 24.4854 11.3087Z" fill="#2C3643"/>
</svg>
