<svg width="65" height="65" viewBox="0 0 65 65" fill="none" xmlns="http://www.w3.org/2000/svg">
<rect width="65" height="65" fill="white"/>
<path d="M61.4015 34.7323C60.6192 34.7323 59.8953 34.7426 59.1693 34.7323C58.3161 34.7136 57.7737 34.2169 57.78 33.4905C57.7862 32.764 58.3265 32.2777 59.186 32.2611C59.9099 32.2487 60.6317 32.2611 61.4391 32.2611C61.1053 27.3829 59.3529 23.1919 56.1173 19.4417C55.5582 20.0336 55.0617 20.5903 54.5277 21.1098C53.9143 21.7059 53.1779 21.7307 52.6606 21.2195C52.1432 20.7083 52.1641 19.9777 52.7628 19.3692C53.2885 18.8394 53.8518 18.3468 54.4505 17.7921C50.6954 14.5469 46.448 12.8395 41.5289 12.4959C41.5289 13.272 41.5393 13.9881 41.5289 14.7042C41.5143 15.6004 41.0053 16.153 40.2459 16.1364C39.4865 16.1199 39.0505 15.5755 39.0359 14.7104C39.0234 13.9943 39.0359 13.2762 39.0359 12.5062C36.2796 12.6373 33.5777 13.315 31.0898 14.4993C29.9174 15.0478 29.2561 14.9609 28.8722 14.2013C28.4884 13.4417 28.8472 12.8229 29.9883 12.2744C38.6521 8.10823 49.2873 9.68116 56.3697 16.1778C65.9431 24.9552 66.6211 39.9354 57.7633 49.3999C52.525 54.988 45.9515 57.455 38.262 56.9314C35.2725 56.7104 32.3561 55.9073 29.6796 54.5678C28.8451 54.1539 28.5385 53.5185 28.8451 52.8376C29.181 52.1153 29.8757 51.9352 30.7623 52.3409C30.9521 52.4278 31.1378 52.521 31.3255 52.6079C33.7458 53.7266 36.361 54.371 39.0276 54.5057C39.0276 53.7627 39.0276 53.057 39.0276 52.3368C39.0401 51.422 39.5116 50.8694 40.2689 50.8632C41.0261 50.8569 41.5101 51.4158 41.5205 52.3223C41.531 53.0156 41.5205 53.7089 41.5205 54.3919C44.6685 54.5741 50.6725 52.701 54.3837 49.1764C53.8476 48.6693 53.2968 48.1747 52.7795 47.649C52.1703 47.0281 52.1265 46.3203 52.6293 45.7966C53.132 45.273 53.9081 45.2834 54.5506 45.9146C55.068 46.4217 55.552 46.9619 56.0443 47.4834C58.8585 45.0371 61.3994 38.9751 61.4015 34.7323Z" fill="#0F3384"/>
<path d="M36.1397 35.8565C36.0329 34.7786 35.7368 33.6767 35.8597 32.6331C36.2324 29.6394 39.3022 27.923 42.2794 28.9746C42.8837 29.1881 43.216 29.0834 43.633 28.6563C45.3875 26.8593 47.1762 25.0985 48.9448 23.3156C49.394 22.8623 49.8875 22.6387 50.4999 22.9127C51.3056 23.2874 51.4104 24.2524 50.6892 24.9797C48.9247 26.7673 47.1487 28.5421 45.3613 30.3042C44.9685 30.691 44.8376 30.967 45.0672 31.5694C45.7622 33.3825 45.5627 35.1715 44.1668 36.6059C42.6984 38.1168 40.8532 38.419 38.8893 37.7643C38.3232 37.5769 37.9466 37.591 37.6061 38.0705C37.5424 38.1487 37.4716 38.2208 37.3946 38.2861C36.7218 38.9368 36.0067 39.0053 35.481 38.4694C34.9553 37.9335 35.0358 37.2244 35.7086 36.5616C35.9528 36.344 36.2104 36.1421 36.4801 35.9572L36.1397 35.8565ZM40.5712 35.655C42.0518 35.6671 43.0066 34.7807 43.0126 33.3906C43.0186 32.0005 42.0941 31.1222 40.6719 31.1C39.1793 31.0758 38.2124 31.9441 38.1903 33.3261C38.1681 34.7081 39.1128 35.6409 40.5672 35.651L40.5712 35.655Z" fill="#0F3384"/>
<path d="M15.8976 34.5458H3.80346C3.56679 34.5577 3.32931 34.5518 3.0939 34.528C2.41391 34.4216 2 34.0703 2 33.4831C2 32.8958 2.40969 32.5428 3.08968 32.4363C3.32515 32.4132 3.56262 32.4079 3.79923 32.4204H27.9896C28.2263 32.4079 28.4637 32.4132 28.6992 32.4363C29.3792 32.541 29.791 32.8941 29.7931 33.4813C29.7952 34.0685 29.3707 34.4198 28.7013 34.528C28.4659 34.5517 28.2284 34.5577 27.9918 34.5458H15.8976Z" fill="#0F3384"/>
<path d="M20.1916 27.0625H11.1856C10.9554 27.0762 10.7242 27.0685 10.4959 27.0394C9.87819 26.9204 9.49316 26.5778 9.48287 26.0203C9.47257 25.4326 9.86172 25.0758 10.5124 24.955C10.717 24.9311 10.924 24.9251 11.1301 24.9373H29.2182C29.3459 24.9373 29.4756 24.9373 29.6033 24.9373C30.3301 24.9817 30.8386 25.4095 30.8613 25.9759C30.8839 26.5423 30.3404 27.0412 29.5765 27.0536C28.4749 27.0749 27.3713 27.0536 26.2677 27.0536L20.1916 27.0625Z" fill="#0F3384"/>
<path d="M20.1023 42.0184H11.3346C11.1288 42.0184 10.923 42.0273 10.7173 42.0184C9.98062 41.9721 9.48267 41.5522 9.48267 40.9704C9.48267 40.3886 9.96416 39.9473 10.6885 39.9028C10.8942 39.8886 11.1 39.9028 11.3058 39.9028H29.3062C30.2692 39.9117 30.8516 40.3032 30.8618 40.9526C30.8721 41.602 30.2898 42.0202 29.3392 42.0344H20.1023V42.0184Z" fill="#0F3384"/>
<path d="M24.8821 19.5846C22.7656 19.5846 20.6512 19.5846 18.5347 19.5846C17.5425 19.5846 16.9719 19.1888 16.9656 18.5227C16.9593 17.8565 17.532 17.4482 18.5137 17.4482C22.8251 17.4482 27.1357 17.4482 31.4457 17.4482C32.4588 17.4482 32.9958 17.8225 33 18.5101C33.0042 19.1978 32.4714 19.5846 31.4646 19.5846C29.2704 19.5882 27.0847 19.5846 24.8821 19.5846Z" fill="#0F3384"/>
<path d="M24.9703 49.5155H18.6229C17.5552 49.5155 16.9784 49.1443 16.9658 48.4644C16.9532 47.7845 17.5384 47.3794 18.583 47.3794H31.4351C32.4524 47.3794 32.9894 47.7488 32.9999 48.4305C33.0104 49.1122 32.4629 49.5138 31.3973 49.5155C29.2536 49.5179 27.1112 49.5179 24.9703 49.5155Z" fill="#0F3384"/>
</svg>
