<svg width="627" height="400" viewBox="0 0 627 400" fill="none" xmlns="http://www.w3.org/2000/svg">
<g clip-path="url(#clip0_1116_1660)">
<rect width="627" height="400" fill="white"/>
<path d="M-3 5.24945C-3 2.90255 -0.400441 1 2.80628 1H620.194C623.4 1 626 2.90254 626 5.24945V394.751C626 397.097 623.4 399 620.194 399H2.80628C-0.400442 399 -3 397.097 -3 394.751V5.24945Z" fill="white"/>
<path d="M18.7075 215.281H608.067V245.672H18.7075V215.281Z" fill="#E4E8ED"/>
<path d="M18.7075 247.844H608.067V377.004H18.7075V247.844Z" fill="#F7F7F7"/>
<path d="M55.9881 274.365V281.775L50.9181 274.365H50.1381V283.465H51.0481V276.055L56.1181 283.465H56.8981V274.365H55.9881ZM63.42 276.965V280.371C63.42 282.113 62.458 282.789 61.314 282.789C60.183 282.789 59.546 282.113 59.546 280.956V276.965H58.688V280.956C58.688 282.581 59.65 283.621 61.236 283.621C62.159 283.621 62.913 283.27 63.42 282.451V283.465H64.278V276.965H63.42ZM73.022 276.809C72.19 276.809 71.397 277.186 70.916 277.992C70.552 277.238 69.85 276.809 68.94 276.809C68.16 276.809 67.458 277.121 66.951 277.914V276.965H66.093V283.465H66.951V279.864C66.951 278.252 67.887 277.641 68.823 277.641C69.746 277.641 70.344 278.252 70.344 279.409V283.465H71.202V279.864C71.202 278.252 72.008 277.641 73.009 277.641C73.932 277.641 74.595 278.252 74.595 279.409V283.465H75.453V279.409C75.453 277.784 74.452 276.809 73.022 276.809ZM80.5966 276.809C79.4396 276.809 78.5166 277.368 77.9706 278.239V274.365H77.1126V283.465H77.9706V282.191C78.5166 283.062 79.4396 283.621 80.5966 283.621C82.4296 283.621 83.9506 282.139 83.9506 280.215C83.9506 278.291 82.4296 276.809 80.5966 276.809ZM80.5316 282.789C79.0886 282.789 77.9706 281.658 77.9706 280.215C77.9706 278.772 79.0886 277.641 80.5316 277.641C81.9746 277.641 83.0926 278.772 83.0926 280.215C83.0926 281.658 81.9746 282.789 80.5316 282.789ZM88.3802 276.809C86.3652 276.809 84.9872 278.304 84.9872 280.215C84.9872 282.178 86.3912 283.621 88.4452 283.621C89.7582 283.621 90.7592 283.01 91.3052 282.126L90.5512 281.684C90.2002 282.308 89.4852 282.789 88.4582 282.789C87.0802 282.789 86.0532 281.97 85.8712 280.644H91.5782C91.5912 280.514 91.6042 280.371 91.6042 280.241C91.6042 278.46 90.3692 276.809 88.3802 276.809ZM88.3802 277.641C89.4982 277.641 90.5382 278.382 90.7202 279.812H85.8712C86.0402 278.538 87.0152 277.641 88.3802 277.641ZM93.827 278.044V276.965H92.969V283.465H93.827V279.851C93.827 278.239 94.841 277.693 95.881 277.693V276.861C95.049 276.861 94.282 277.134 93.827 278.044ZM103.336 283.621C105.234 283.621 106.755 282.139 106.755 280.215C106.755 278.291 105.234 276.809 103.336 276.809C101.438 276.809 99.9169 278.291 99.9169 280.215C99.9169 282.139 101.438 283.621 103.336 283.621ZM103.336 282.789C101.893 282.789 100.775 281.658 100.775 280.215C100.775 278.772 101.893 277.641 103.336 277.641C104.779 277.641 105.897 278.772 105.897 280.215C105.897 281.658 104.779 282.789 103.336 282.789ZM111.187 275.041V274.209C109.432 274.079 108.457 275.015 108.457 276.705V276.965H107.352V277.797H108.457V283.465H109.315V277.797H111.187V276.965H109.315V276.705C109.315 275.457 109.926 274.937 111.187 275.041ZM116.209 278.044V276.965H115.351V283.465H116.209V279.851C116.209 278.239 117.223 277.693 118.263 277.693V276.861C117.431 276.861 116.664 277.134 116.209 278.044ZM122.048 276.809C120.033 276.809 118.655 278.304 118.655 280.215C118.655 282.178 120.059 283.621 122.113 283.621C123.426 283.621 124.427 283.01 124.973 282.126L124.219 281.684C123.868 282.308 123.153 282.789 122.126 282.789C120.748 282.789 119.721 281.97 119.539 280.644H125.246C125.259 280.514 125.272 280.371 125.272 280.241C125.272 278.46 124.037 276.809 122.048 276.809ZM122.048 277.641C123.166 277.641 124.206 278.382 124.388 279.812H119.539C119.708 278.538 120.683 277.641 122.048 277.641ZM131.063 276.965L128.788 282.568L126.513 276.965H125.603L128.268 283.465H129.308L131.973 276.965H131.063ZM135.759 276.809C133.744 276.809 132.366 278.304 132.366 280.215C132.366 282.178 133.77 283.621 135.824 283.621C137.137 283.621 138.138 283.01 138.684 282.126L137.93 281.684C137.579 282.308 136.864 282.789 135.837 282.789C134.459 282.789 133.432 281.97 133.25 280.644H138.957C138.97 280.514 138.983 280.371 138.983 280.241C138.983 278.46 137.748 276.809 135.759 276.809ZM135.759 277.641C136.877 277.641 137.917 278.382 138.099 279.812H133.25C133.419 278.538 134.394 277.641 135.759 277.641ZM143.39 276.809C142.467 276.809 141.713 277.16 141.206 277.979V276.965H140.348V283.465H141.206V280.059C141.206 278.317 142.168 277.641 143.312 277.641C144.443 277.641 145.08 278.317 145.08 279.474V283.465H145.938V279.474C145.938 277.849 144.976 276.809 143.39 276.809ZM152.173 276.965V280.371C152.173 282.113 151.211 282.789 150.067 282.789C148.936 282.789 148.299 282.113 148.299 280.956V276.965H147.441V280.956C147.441 282.581 148.403 283.621 149.989 283.621C150.912 283.621 151.666 283.27 152.173 282.451V283.465H153.031V276.965H152.173ZM157.849 276.809C155.834 276.809 154.456 278.304 154.456 280.215C154.456 282.178 155.86 283.621 157.914 283.621C159.227 283.621 160.228 283.01 160.774 282.126L160.02 281.684C159.669 282.308 158.954 282.789 157.927 282.789C156.549 282.789 155.522 281.97 155.34 280.644H161.047C161.06 280.514 161.073 280.371 161.073 280.241C161.073 278.46 159.838 276.809 157.849 276.809ZM157.849 277.641C158.967 277.641 160.007 278.382 160.189 279.812H155.34C155.509 278.538 156.484 277.641 157.849 277.641ZM169.172 276.809C168.015 276.809 167.092 277.368 166.546 278.239V274.365H165.688V283.465H166.546V282.191C167.092 283.062 168.015 283.621 169.172 283.621C171.005 283.621 172.526 282.139 172.526 280.215C172.526 278.291 171.005 276.809 169.172 276.809ZM169.107 282.789C167.664 282.789 166.546 281.658 166.546 280.215C166.546 278.772 167.664 277.641 169.107 277.641C170.55 277.641 171.668 278.772 171.668 280.215C171.668 281.658 170.55 282.789 169.107 282.789ZM178.528 276.965V280.371C178.528 282.113 177.566 282.789 176.422 282.789C175.291 282.789 174.654 282.113 174.654 280.956V276.965H173.796V280.956C173.796 282.581 174.758 283.621 176.344 283.621C177.267 283.621 178.021 283.27 178.528 282.451V283.465H179.386V276.965H178.528ZM184.23 283.621C185.504 283.621 186.609 282.958 187.142 281.931L186.427 281.515C186.011 282.269 185.218 282.789 184.23 282.789C182.787 282.789 181.669 281.658 181.669 280.215C181.669 278.772 182.787 277.641 184.23 277.641C185.205 277.641 186.024 278.148 186.375 278.915L187.077 278.512C186.609 277.485 185.517 276.809 184.23 276.809C182.267 276.809 180.811 278.291 180.811 280.215C180.811 282.139 182.267 283.621 184.23 283.621ZM193.626 283.465L190.142 280.085L193.496 276.965H192.326L189.232 279.838V274.365H188.374V283.465H189.232V280.332L192.482 283.465H193.626ZM197.154 276.809C195.139 276.809 193.761 278.304 193.761 280.215C193.761 282.178 195.165 283.621 197.219 283.621C198.532 283.621 199.533 283.01 200.079 282.126L199.325 281.684C198.974 282.308 198.259 282.789 197.232 282.789C195.854 282.789 194.827 281.97 194.645 280.644H200.352C200.365 280.514 200.378 280.371 200.378 280.241C200.378 278.46 199.143 276.809 197.154 276.809ZM197.154 277.641C198.272 277.641 199.312 278.382 199.494 279.812H194.645C194.814 278.538 195.789 277.641 197.154 277.641ZM204.997 277.797V276.965H203.125V275.145L202.267 275.405V276.965H200.902V277.797H202.267V281.736C202.267 283.296 203.242 283.725 204.997 283.465V282.711C203.736 282.763 203.125 282.854 203.125 281.736V277.797H204.997ZM206.709 278.668C206.709 277.966 207.398 277.641 208.074 277.641C208.698 277.641 209.361 277.888 209.634 278.551L210.349 278.135C209.972 277.329 209.14 276.809 208.074 276.809C206.774 276.809 205.851 277.628 205.851 278.668C205.851 281.06 209.647 280.137 209.647 281.749C209.647 282.516 208.919 282.789 208.152 282.789C207.281 282.789 206.605 282.36 206.371 281.697L205.643 282.126C205.968 282.958 206.852 283.621 208.152 283.621C209.543 283.621 210.505 282.854 210.505 281.749C210.505 279.357 206.709 280.28 206.709 278.668ZM212.395 278.265C212.798 278.265 213.11 277.953 213.11 277.55C213.11 277.147 212.798 276.835 212.395 276.835C211.992 276.835 211.68 277.147 211.68 277.55C211.68 277.953 211.992 278.265 212.395 278.265ZM212.395 283.595C212.798 283.595 213.11 283.283 213.11 282.88C213.11 282.477 212.798 282.165 212.395 282.165C211.992 282.165 211.68 282.477 211.68 282.88C211.68 283.283 211.992 283.595 212.395 283.595ZM55.7281 304.465H56.7681L54.5451 300.708C55.6761 300.383 56.5081 299.33 56.5081 298.095C56.5081 296.587 55.2861 295.365 53.7781 295.365H50.1381V304.465H51.0481V300.825H53.5961L55.7281 304.465ZM51.0481 296.223H53.7781C54.7791 296.223 55.5981 297.055 55.5981 298.095C55.5981 299.122 54.7791 299.967 53.7781 299.967H51.0481V296.223ZM60.6156 297.809C58.6006 297.809 57.2226 299.304 57.2226 301.215C57.2226 303.178 58.6266 304.621 60.6806 304.621C61.9936 304.621 62.9946 304.01 63.5406 303.126L62.7866 302.684C62.4356 303.308 61.7206 303.789 60.6936 303.789C59.3156 303.789 58.2886 302.97 58.1066 301.644H63.8136C63.8266 301.514 63.8396 301.371 63.8396 301.241C63.8396 299.46 62.6046 297.809 60.6156 297.809ZM60.6156 298.641C61.7336 298.641 62.7736 299.382 62.9556 300.812H58.1066C58.2756 299.538 59.2506 298.641 60.6156 298.641ZM69.6305 297.965L67.3555 303.568L65.0805 297.965H64.1705L66.8355 304.465H67.8755L70.5405 297.965H69.6305ZM74.3265 297.809C72.3115 297.809 70.9335 299.304 70.9335 301.215C70.9335 303.178 72.3375 304.621 74.3915 304.621C75.7045 304.621 76.7055 304.01 77.2515 303.126L76.4975 302.684C76.1465 303.308 75.4315 303.789 74.4045 303.789C73.0265 303.789 71.9995 302.97 71.8175 301.644H77.5245C77.5375 301.514 77.5505 301.371 77.5505 301.241C77.5505 299.46 76.3155 297.809 74.3265 297.809ZM74.3265 298.641C75.4445 298.641 76.4845 299.382 76.6665 300.812H71.8175C71.9865 299.538 72.9615 298.641 74.3265 298.641ZM81.9573 297.809C81.0343 297.809 80.2803 298.16 79.7733 298.979V297.965H78.9153V304.465H79.7733V301.059C79.7733 299.317 80.7353 298.641 81.8793 298.641C83.0103 298.641 83.6473 299.317 83.6473 300.474V304.465H84.5053V300.474C84.5053 298.849 83.5433 297.809 81.9573 297.809ZM90.7403 297.965V301.371C90.7403 303.113 89.7783 303.789 88.6343 303.789C87.5033 303.789 86.8663 303.113 86.8663 301.956V297.965H86.0083V301.956C86.0083 303.581 86.9703 304.621 88.5563 304.621C89.4793 304.621 90.2333 304.27 90.7403 303.451V304.465H91.5983V297.965H90.7403ZM96.4164 297.809C94.4014 297.809 93.0234 299.304 93.0234 301.215C93.0234 303.178 94.4274 304.621 96.4814 304.621C97.7944 304.621 98.7954 304.01 99.3414 303.126L98.5874 302.684C98.2364 303.308 97.5214 303.789 96.4944 303.789C95.1164 303.789 94.0894 302.97 93.9074 301.644H99.6144C99.6274 301.514 99.6404 301.371 99.6404 301.241C99.6404 299.46 98.4054 297.809 96.4164 297.809ZM96.4164 298.641C97.5344 298.641 98.5744 299.382 98.7564 300.812H93.9074C94.0764 299.538 95.0514 298.641 96.4164 298.641ZM107.739 297.809C106.582 297.809 105.659 298.368 105.113 299.239V295.365H104.255V304.465H105.113V303.191C105.659 304.062 106.582 304.621 107.739 304.621C109.572 304.621 111.093 303.139 111.093 301.215C111.093 299.291 109.572 297.809 107.739 297.809ZM107.674 303.789C106.231 303.789 105.113 302.658 105.113 301.215C105.113 299.772 106.231 298.641 107.674 298.641C109.117 298.641 110.235 299.772 110.235 301.215C110.235 302.658 109.117 303.789 107.674 303.789ZM117.096 297.965V301.371C117.096 303.113 116.134 303.789 114.99 303.789C113.859 303.789 113.222 303.113 113.222 301.956V297.965H112.364V301.956C112.364 303.581 113.326 304.621 114.912 304.621C115.835 304.621 116.589 304.27 117.096 303.451V304.465H117.954V297.965H117.096ZM122.798 304.621C124.072 304.621 125.177 303.958 125.71 302.931L124.995 302.515C124.579 303.269 123.786 303.789 122.798 303.789C121.355 303.789 120.237 302.658 120.237 301.215C120.237 299.772 121.355 298.641 122.798 298.641C123.773 298.641 124.592 299.148 124.943 299.915L125.645 299.512C125.177 298.485 124.085 297.809 122.798 297.809C120.835 297.809 119.379 299.291 119.379 301.215C119.379 303.139 120.835 304.621 122.798 304.621ZM132.194 304.465L128.71 301.085L132.064 297.965H130.894L127.8 300.838V295.365H126.942V304.465H127.8V301.332L131.05 304.465H132.194ZM135.721 297.809C133.706 297.809 132.328 299.304 132.328 301.215C132.328 303.178 133.732 304.621 135.786 304.621C137.099 304.621 138.1 304.01 138.646 303.126L137.892 302.684C137.541 303.308 136.826 303.789 135.799 303.789C134.421 303.789 133.394 302.97 133.212 301.644H138.919C138.932 301.514 138.945 301.371 138.945 301.241C138.945 299.46 137.71 297.809 135.721 297.809ZM135.721 298.641C136.839 298.641 137.879 299.382 138.061 300.812H133.212C133.381 299.538 134.356 298.641 135.721 298.641ZM143.564 298.797V297.965H141.692V296.145L140.834 296.405V297.965H139.469V298.797H140.834V302.736C140.834 304.296 141.809 304.725 143.564 304.465V303.711C142.303 303.763 141.692 303.854 141.692 302.736V298.797H143.564ZM152.82 297.965V301.371C152.82 303.113 151.858 303.789 150.714 303.789C149.583 303.789 148.946 303.113 148.946 301.956V297.965H148.088V301.956C148.088 303.581 149.05 304.621 150.636 304.621C151.559 304.621 152.313 304.27 152.82 303.451V304.465H153.678V297.965H152.82ZM158.535 297.809C157.612 297.809 156.858 298.16 156.351 298.979V297.965H155.493V304.465H156.351V301.059C156.351 299.317 157.313 298.641 158.457 298.641C159.588 298.641 160.225 299.317 160.225 300.474V304.465H161.083V300.474C161.083 298.849 160.121 297.809 158.535 297.809ZM163.171 296.587C163.522 296.587 163.795 296.301 163.795 295.963C163.795 295.625 163.522 295.339 163.171 295.339C162.82 295.339 162.547 295.625 162.547 295.963C162.547 296.301 162.82 296.587 163.171 296.587ZM162.742 304.465H163.6V297.965H162.742V304.465ZM168.866 298.797V297.965H166.994V296.145L166.136 296.405V297.965H164.771V298.797H166.136V302.736C166.136 304.296 167.111 304.725 168.866 304.465V303.711C167.605 303.763 166.994 303.854 166.994 302.736V298.797H168.866ZM170.881 299.265C171.284 299.265 171.596 298.953 171.596 298.55C171.596 298.147 171.284 297.835 170.881 297.835C170.478 297.835 170.166 298.147 170.166 298.55C170.166 298.953 170.478 299.265 170.881 299.265ZM170.881 304.595C171.284 304.595 171.596 304.283 171.596 303.88C171.596 303.477 171.284 303.165 170.881 303.165C170.478 303.165 170.166 303.477 170.166 303.88C170.166 304.283 170.478 304.595 170.881 304.595ZM51.0481 324.607V321.305H55.0781V320.447H51.0481V317.223H55.4031V316.365H50.1381V325.465H55.4681V324.607H51.0481ZM61.5816 318.965L59.3066 324.568L57.0316 318.965H56.1216L58.7866 325.465H59.8266L62.4916 318.965H61.5816ZM66.2777 318.809C64.2627 318.809 62.8847 320.304 62.8847 322.215C62.8847 324.178 64.2887 325.621 66.3427 325.621C67.6557 325.621 68.6567 325.01 69.2027 324.126L68.4487 323.684C68.0977 324.308 67.3827 324.789 66.3557 324.789C64.9777 324.789 63.9507 323.97 63.7687 322.644H69.4757C69.4887 322.514 69.5017 322.371 69.5017 322.241C69.5017 320.46 68.2667 318.809 66.2777 318.809ZM66.2777 319.641C67.3957 319.641 68.4357 320.382 68.6177 321.812H63.7687C63.9377 320.538 64.9127 319.641 66.2777 319.641ZM73.9085 318.809C72.9855 318.809 72.2315 319.16 71.7245 319.979V318.965H70.8665V325.465H71.7245V322.059C71.7245 320.317 72.6865 319.641 73.8305 319.641C74.9615 319.641 75.5985 320.317 75.5985 321.474V325.465H76.4565V321.474C76.4565 319.849 75.4945 318.809 73.9085 318.809ZM81.5605 319.797V318.965H79.6885V317.145L78.8305 317.405V318.965H77.4655V319.797H78.8305V323.736C78.8305 325.296 79.8055 325.725 81.5605 325.465V324.711C80.2995 324.763 79.6885 324.854 79.6885 323.736V319.797H81.5605ZM91.1285 318.965H87.6185V318.705C87.6185 317.457 88.2295 317.041 89.4905 317.041C89.8935 317.041 90.2835 317.067 90.7385 317.145V316.365C90.2705 316.261 89.8805 316.209 89.4905 316.209C87.7355 316.209 86.7605 317.015 86.7605 318.705V318.965H85.6555V319.797H86.7605V325.465H87.6185V319.797H90.2705V325.465H91.1285V318.965ZM92.9436 325.465H93.8016V315.975H92.9436V325.465ZM99.0673 319.797V318.965H97.1953V317.145L96.3373 317.405V318.965H94.9723V319.797H96.3373V323.736C96.3373 325.296 97.3123 325.725 99.0673 325.465V324.711C97.8063 324.763 97.1953 324.854 97.1953 323.736V319.797H99.0673ZM103.107 318.809C101.092 318.809 99.7138 320.304 99.7138 322.215C99.7138 324.178 101.118 325.621 103.172 325.621C104.485 325.621 105.486 325.01 106.032 324.126L105.278 323.684C104.927 324.308 104.212 324.789 103.185 324.789C101.807 324.789 100.78 323.97 100.598 322.644H106.305C106.318 322.514 106.331 322.371 106.331 322.241C106.331 320.46 105.096 318.809 103.107 318.809ZM103.107 319.641C104.225 319.641 105.265 320.382 105.447 321.812H100.598C100.767 320.538 101.742 319.641 103.107 319.641ZM108.554 320.044V318.965H107.696V325.465H108.554V321.851C108.554 320.239 109.568 319.693 110.608 319.693V318.861C109.776 318.861 109.009 319.134 108.554 320.044ZM112.368 320.265C112.771 320.265 113.083 319.953 113.083 319.55C113.083 319.147 112.771 318.835 112.368 318.835C111.965 318.835 111.653 319.147 111.653 319.55C111.653 319.953 111.965 320.265 112.368 320.265ZM112.368 325.595C112.771 325.595 113.083 325.283 113.083 324.88C113.083 324.477 112.771 324.165 112.368 324.165C111.965 324.165 111.653 324.477 111.653 324.88C111.653 325.283 111.965 325.595 112.368 325.595ZM53.3881 337.365H50.1381V346.465H51.0481V343.085H53.3881C55.0261 343.085 56.2481 341.85 56.2481 340.225C56.2481 338.587 55.0261 337.365 53.3881 337.365ZM53.3881 342.227H51.0481V338.223H53.3881C54.5191 338.223 55.3381 339.055 55.3381 340.225C55.3381 341.382 54.5191 342.227 53.3881 342.227ZM58.4071 341.044V339.965H57.5491V346.465H58.4071V342.851C58.4071 341.239 59.4211 340.693 60.4611 340.693V339.861C59.6291 339.861 58.8621 340.134 58.4071 341.044ZM64.2724 346.621C66.1704 346.621 67.6914 345.139 67.6914 343.215C67.6914 341.291 66.1704 339.809 64.2724 339.809C62.3744 339.809 60.8534 341.291 60.8534 343.215C60.8534 345.139 62.3744 346.621 64.2724 346.621ZM64.2724 345.789C62.8294 345.789 61.7114 344.658 61.7114 343.215C61.7114 341.772 62.8294 340.641 64.2724 340.641C65.7154 340.641 66.8334 341.772 66.8334 343.215C66.8334 344.658 65.7154 345.789 64.2724 345.789ZM74.7172 337.365V341.239C74.1712 340.368 73.2482 339.809 72.0912 339.809C70.2582 339.809 68.7372 341.291 68.7372 343.215C68.7372 345.139 70.2582 346.621 72.0912 346.621C73.2482 346.621 74.1712 346.062 74.7172 345.191V346.465H75.5752V337.365H74.7172ZM72.1562 345.789C70.7132 345.789 69.5952 344.658 69.5952 343.215C69.5952 341.772 70.7132 340.641 72.1562 340.641C73.5992 340.641 74.7172 341.772 74.7172 343.215C74.7172 344.658 73.5992 345.789 72.1562 345.789ZM81.9679 339.965V343.371C81.9679 345.113 81.0059 345.789 79.8619 345.789C78.7309 345.789 78.0939 345.113 78.0939 343.956V339.965H77.2359V343.956C77.2359 345.581 78.1979 346.621 79.7839 346.621C80.7069 346.621 81.4609 346.27 81.9679 345.451V346.465H82.8259V339.965H81.9679ZM87.6699 346.621C88.9439 346.621 90.0489 345.958 90.5819 344.931L89.8669 344.515C89.4509 345.269 88.6579 345.789 87.6699 345.789C86.2269 345.789 85.1089 344.658 85.1089 343.215C85.1089 341.772 86.2269 340.641 87.6699 340.641C88.6449 340.641 89.4639 341.148 89.8149 341.915L90.5169 341.512C90.0489 340.485 88.9569 339.809 87.6699 339.809C85.7069 339.809 84.2509 341.291 84.2509 343.215C84.2509 345.139 85.7069 346.621 87.6699 346.621ZM95.2587 340.797V339.965H93.3867V338.145L92.5287 338.405V339.965H91.1637V340.797H92.5287V344.736C92.5287 346.296 93.5037 346.725 95.2587 346.465V345.711C93.9977 345.763 93.3867 345.854 93.3867 344.736V340.797H95.2587ZM103.384 340.797V339.965H101.512V338.145L100.654 338.405V339.965H99.2887V340.797H100.654V344.736C100.654 346.296 101.629 346.725 103.384 346.465V345.711C102.123 345.763 101.512 345.854 101.512 344.736V340.797H103.384ZM109.621 339.965L107.515 345.412L105.071 339.965H104.161L107.073 346.504L106.904 346.907C106.553 347.752 105.968 348.35 105.123 348.259V349.065C106.293 349.156 107.255 348.311 107.749 347.063L110.531 339.965H109.621ZM115.052 339.809C113.895 339.809 112.972 340.368 112.426 341.239V339.965H111.568V349.065H112.426V345.191C112.972 346.062 113.895 346.621 115.052 346.621C116.885 346.621 118.406 345.139 118.406 343.215C118.406 341.291 116.885 339.809 115.052 339.809ZM114.987 345.789C113.544 345.789 112.426 344.658 112.426 343.215C112.426 341.772 113.544 340.641 114.987 340.641C116.43 340.641 117.548 341.772 117.548 343.215C117.548 344.658 116.43 345.789 114.987 345.789ZM122.835 339.809C120.82 339.809 119.442 341.304 119.442 343.215C119.442 345.178 120.846 346.621 122.9 346.621C124.213 346.621 125.214 346.01 125.76 345.126L125.006 344.684C124.655 345.308 123.94 345.789 122.913 345.789C121.535 345.789 120.508 344.97 120.326 343.644H126.033C126.046 343.514 126.059 343.371 126.059 343.241C126.059 341.46 124.824 339.809 122.835 339.809ZM122.835 340.641C123.953 340.641 124.993 341.382 125.175 342.812H120.326C120.495 341.538 121.47 340.641 122.835 340.641ZM135.562 339.965H132.052V339.705C132.052 338.457 132.663 338.041 133.924 338.041C134.327 338.041 134.717 338.067 135.172 338.145V337.365C134.704 337.261 134.314 337.209 133.924 337.209C132.169 337.209 131.194 338.015 131.194 339.705V339.965H130.089V340.797H131.194V346.465H132.052V340.797H134.704V346.465H135.562V339.965ZM137.377 346.465H138.235V336.975H137.377V346.465ZM143.501 340.797V339.965H141.629V338.145L140.771 338.405V339.965H139.406V340.797H140.771V344.736C140.771 346.296 141.746 346.725 143.501 346.465V345.711C142.24 345.763 141.629 345.854 141.629 344.736V340.797H143.501ZM147.54 339.809C145.525 339.809 144.147 341.304 144.147 343.215C144.147 345.178 145.551 346.621 147.605 346.621C148.918 346.621 149.919 346.01 150.465 345.126L149.711 344.684C149.36 345.308 148.645 345.789 147.618 345.789C146.24 345.789 145.213 344.97 145.031 343.644H150.738C150.751 343.514 150.764 343.371 150.764 343.241C150.764 341.46 149.529 339.809 147.54 339.809ZM147.54 340.641C148.658 340.641 149.698 341.382 149.88 342.812H145.031C145.2 341.538 146.175 340.641 147.54 340.641ZM152.987 341.044V339.965H152.129V346.465H152.987V342.851C152.987 341.239 154.001 340.693 155.041 340.693V339.861C154.209 339.861 153.442 340.134 152.987 341.044ZM156.802 341.265C157.205 341.265 157.517 340.953 157.517 340.55C157.517 340.147 157.205 339.835 156.802 339.835C156.399 339.835 156.087 340.147 156.087 340.55C156.087 340.953 156.399 341.265 156.802 341.265ZM156.802 346.595C157.205 346.595 157.517 346.283 157.517 345.88C157.517 345.477 157.205 345.165 156.802 345.165C156.399 345.165 156.087 345.477 156.087 345.88C156.087 346.283 156.399 346.595 156.802 346.595Z" fill="#4C5363"/>
<path d="M240.515 275.535L238.123 276.38L238.487 277.654L240.32 277.134V284.635H241.815V275.535H240.515ZM246.366 278.967H245.222L245.378 276.939H249.07V275.535H244L243.649 280.423H246.301C247.289 280.423 247.965 280.969 247.965 281.879C247.965 282.789 247.289 283.348 246.275 283.348C245.326 283.348 244.702 282.919 244.468 282.113L243.181 282.854C243.662 284.167 244.897 284.804 246.275 284.804C247.952 284.804 249.46 283.79 249.46 281.879C249.46 279.981 248.017 278.967 246.366 278.967Z" fill="#2C3543"/>
<path d="M199.115 303.848C199.115 302.119 197.789 301.625 196.554 301.157V298.583C197.087 298.7 197.477 299.025 197.711 299.61L198.972 298.882C198.504 297.816 197.607 297.244 196.554 297.101V295.944H195.709V297.088C194.357 297.218 193.174 298.102 193.174 299.636C193.174 301.3 194.448 301.859 195.709 302.327V305.031C194.864 304.94 194.331 304.485 194.045 303.757L192.758 304.498C193.213 305.681 194.266 306.409 195.709 306.5V307.644H196.554V306.487C198.036 306.305 199.115 305.356 199.115 303.848ZM194.669 299.636C194.669 299.051 195.072 298.661 195.709 298.557V300.819C194.981 300.481 194.669 300.182 194.669 299.636ZM196.554 305.018V302.652C197.217 302.951 197.62 303.25 197.62 303.861C197.62 304.42 197.269 304.875 196.554 305.018ZM202.064 297.244L199.672 298.089L200.036 299.363L201.869 298.843V306.344H203.364V297.244H202.064Z" fill="#2C3543"/>
<path d="M129.241 321.121V330.221H130.736V321.121H129.241ZM135.882 323.552C134.998 323.552 134.296 323.877 133.867 324.553V323.721H132.463V330.221H133.867V326.737C133.867 325.411 134.595 324.865 135.518 324.865C136.402 324.865 136.974 325.385 136.974 326.373V330.221H138.378V326.23C138.378 324.54 137.338 323.552 135.882 323.552ZM139.981 326.945H144.791V325.593H139.981V326.945ZM151.665 323.721V324.644C151.171 323.968 150.404 323.552 149.39 323.552C147.622 323.552 146.153 325.034 146.153 326.971C146.153 328.895 147.622 330.39 149.39 330.39C150.404 330.39 151.171 329.974 151.665 329.285V330.221H153.069V323.721H151.665ZM149.611 329.051C148.441 329.051 147.557 328.18 147.557 326.971C147.557 325.762 148.441 324.891 149.611 324.891C150.781 324.891 151.665 325.762 151.665 326.971C151.665 328.18 150.781 329.051 149.611 329.051ZM158.384 323.552C157.37 323.552 156.603 323.968 156.109 324.657V323.721H154.705V332.821H156.109V329.298C156.603 329.974 157.37 330.39 158.384 330.39C160.152 330.39 161.621 328.908 161.621 326.971C161.621 325.047 160.152 323.552 158.384 323.552ZM158.163 329.051C156.993 329.051 156.109 328.18 156.109 326.971C156.109 325.762 156.993 324.891 158.163 324.891C159.333 324.891 160.217 325.762 160.217 326.971C160.217 328.18 159.333 329.051 158.163 329.051ZM166.573 323.552C165.559 323.552 164.792 323.968 164.298 324.657V323.721H162.894V332.821H164.298V329.298C164.792 329.974 165.559 330.39 166.573 330.39C168.341 330.39 169.81 328.908 169.81 326.971C169.81 325.047 168.341 323.552 166.573 323.552ZM166.352 329.051C165.182 329.051 164.298 328.18 164.298 326.971C164.298 325.762 165.182 324.891 166.352 324.891C167.522 324.891 168.406 325.762 168.406 326.971C168.406 328.18 167.522 329.051 166.352 329.051ZM177.777 321.121H174.423V330.221H175.918V327.101H177.777C179.493 327.101 180.793 325.788 180.793 324.111C180.793 322.421 179.493 321.121 177.777 321.121ZM177.777 325.697H175.918V322.525H177.777C178.661 322.525 179.298 323.188 179.298 324.111C179.298 325.021 178.661 325.697 177.777 325.697ZM186.381 323.721V327.205C186.381 328.531 185.653 329.077 184.73 329.077C183.846 329.077 183.274 328.557 183.274 327.569V323.721H181.87V327.712C181.87 329.402 182.91 330.39 184.366 330.39C185.25 330.39 185.952 330.065 186.381 329.389V330.221H187.785V323.721H186.381ZM190.831 324.813V323.721H189.427V330.221H190.831V326.945C190.831 325.489 191.91 325.06 192.833 325.125V323.604C192.014 323.604 191.221 323.929 190.831 324.813ZM196.634 330.39C197.908 330.39 199.013 329.727 199.559 328.7L198.35 328.011C198.038 328.609 197.401 329.012 196.621 329.012C195.477 329.012 194.606 328.141 194.606 326.971C194.606 325.801 195.477 324.93 196.621 324.93C197.401 324.93 198.038 325.32 198.324 325.931L199.533 325.229C199.013 324.215 197.908 323.552 196.634 323.552C194.671 323.552 193.202 325.034 193.202 326.971C193.202 328.895 194.671 330.39 196.634 330.39ZM203.992 323.552C203.108 323.552 202.406 323.877 201.977 324.553V321.121H200.573V330.221H201.977V326.737C201.977 325.411 202.705 324.865 203.628 324.865C204.512 324.865 205.084 325.385 205.084 326.373V330.221H206.488V326.23C206.488 324.54 205.448 323.552 203.992 323.552ZM213.148 323.721V324.644C212.654 323.968 211.887 323.552 210.873 323.552C209.105 323.552 207.636 325.034 207.636 326.971C207.636 328.895 209.105 330.39 210.873 330.39C211.887 330.39 212.654 329.974 213.148 329.285V330.221H214.552V323.721H213.148ZM211.094 329.051C209.924 329.051 209.04 328.18 209.04 326.971C209.04 325.762 209.924 324.891 211.094 324.891C212.264 324.891 213.148 325.762 213.148 326.971C213.148 328.18 212.264 329.051 211.094 329.051ZM217.412 325.515C217.412 325.047 217.854 324.826 218.361 324.826C218.894 324.826 219.349 325.06 219.583 325.567L220.766 324.904C220.311 324.046 219.427 323.552 218.361 323.552C217.035 323.552 215.982 324.319 215.982 325.541C215.982 327.868 219.479 327.218 219.479 328.375C219.479 328.895 218.998 329.103 218.374 329.103C217.659 329.103 217.139 328.752 216.931 328.167L215.722 328.869C216.138 329.805 217.074 330.39 218.374 330.39C219.778 330.39 220.909 329.688 220.909 328.388C220.909 325.983 217.412 326.698 217.412 325.515ZM223.083 327.569H228.257C228.283 327.387 228.309 327.179 228.309 326.984C228.309 325.112 226.983 323.552 225.046 323.552C223.005 323.552 221.614 325.047 221.614 326.971C221.614 328.921 223.005 330.39 225.15 330.39C226.424 330.39 227.399 329.857 227.997 328.973L226.84 328.297C226.528 328.752 225.943 329.103 225.163 329.103C224.123 329.103 223.304 328.583 223.083 327.569ZM223.07 326.425C223.265 325.45 223.98 324.826 225.033 324.826C225.878 324.826 226.697 325.307 226.892 326.425H223.07Z" fill="#2C3543"/>
<path d="M184.011 353.016H185.623L182.334 343.916H180.54L177.238 353.016H178.863L179.5 351.183H183.374L184.011 353.016ZM179.994 349.779L181.437 345.671L182.88 349.779H179.994ZM186.51 353.016H187.914V343.526H186.51V353.016ZM189.544 353.016H190.948V343.526H189.544V353.016Z" fill="#2C3543"/>
<path d="M49.9381 225.221V233.621H51.3181V225.221H49.9381ZM58.4687 233.621H59.9567L56.9207 225.221H55.2647L52.2167 233.621H53.7167L54.3047 231.929H57.8807L58.4687 233.621ZM54.7607 230.633L56.0927 226.841L57.4247 230.633H54.7607ZM63.956 225.221H60.86V233.621H62.24V230.741H63.956C65.54 230.741 66.74 229.529 66.74 227.981C66.74 226.421 65.54 225.221 63.956 225.221ZM63.956 229.445H62.24V226.517H63.956C64.772 226.517 65.36 227.129 65.36 227.981C65.36 228.821 64.772 229.445 63.956 229.445Z" fill="#4C5363"/>
<path d="M88.1286 225.221H87.0846L84.2886 229.901L81.4926 225.221H80.4486V233.621H81.2886V226.493L84.2286 231.413H84.3486L87.2886 226.493V233.621H88.1286V225.221ZM92.7223 233.765C94.4743 233.765 95.8783 232.397 95.8783 230.621C95.8783 228.845 94.4743 227.477 92.7223 227.477C90.9703 227.477 89.5663 228.845 89.5663 230.621C89.5663 232.397 90.9703 233.765 92.7223 233.765ZM92.7223 232.997C91.3903 232.997 90.3583 231.953 90.3583 230.621C90.3583 229.289 91.3903 228.245 92.7223 228.245C94.0543 228.245 95.0863 229.289 95.0863 230.621C95.0863 231.953 94.0543 232.997 92.7223 232.997ZM102.364 225.221V228.797C101.86 227.993 101.008 227.477 99.9396 227.477C98.2476 227.477 96.8436 228.845 96.8436 230.621C96.8436 232.397 98.2476 233.765 99.9396 233.765C101.008 233.765 101.86 233.249 102.364 232.445V233.621H103.156V225.221H102.364ZM99.9996 232.997C98.6676 232.997 97.6356 231.953 97.6356 230.621C97.6356 229.289 98.6676 228.245 99.9996 228.245C101.332 228.245 102.364 229.289 102.364 230.621C102.364 231.953 101.332 232.997 99.9996 232.997ZM107.605 227.477C105.745 227.477 104.473 228.857 104.473 230.621C104.473 232.433 105.769 233.765 107.665 233.765C108.877 233.765 109.801 233.201 110.305 232.385L109.609 231.977C109.285 232.553 108.625 232.997 107.677 232.997C106.405 232.997 105.457 232.241 105.289 231.017H110.557C110.569 230.897 110.581 230.765 110.581 230.645C110.581 229.001 109.441 227.477 107.605 227.477ZM107.605 228.245C108.637 228.245 109.597 228.929 109.765 230.249H105.289C105.445 229.073 106.345 228.245 107.605 228.245ZM111.84 233.621H112.632V224.861H111.84V233.621ZM122.713 225.221H116.713V226.013H119.293V233.621H120.133V226.013H122.713V225.221ZM127.27 227.621L125.326 232.649L123.07 227.621H122.23L124.918 233.657L124.762 234.029C124.438 234.809 123.898 235.361 123.118 235.277V236.021C124.198 236.105 125.086 235.325 125.542 234.173L128.11 227.621H127.27ZM132.283 227.477C131.215 227.477 130.363 227.993 129.859 228.797V227.621H129.067V236.021H129.859V232.445C130.363 233.249 131.215 233.765 132.283 233.765C133.975 233.765 135.379 232.397 135.379 230.621C135.379 228.845 133.975 227.477 132.283 227.477ZM132.223 232.997C130.891 232.997 129.859 231.953 129.859 230.621C129.859 229.289 130.891 228.245 132.223 228.245C133.555 228.245 134.587 229.289 134.587 230.621C134.587 231.953 133.555 232.997 132.223 232.997ZM139.468 227.477C137.608 227.477 136.336 228.857 136.336 230.621C136.336 232.433 137.632 233.765 139.528 233.765C140.74 233.765 141.664 233.201 142.168 232.385L141.472 231.977C141.148 232.553 140.488 232.997 139.54 232.997C138.268 232.997 137.32 232.241 137.152 231.017H142.42C142.432 230.897 142.444 230.765 142.444 230.645C142.444 229.001 141.304 227.477 139.468 227.477ZM139.468 228.245C140.5 228.245 141.46 228.929 141.628 230.249H137.152C137.308 229.073 138.208 228.245 139.468 228.245ZM144.244 228.821C144.616 228.821 144.904 228.533 144.904 228.161C144.904 227.789 144.616 227.501 144.244 227.501C143.872 227.501 143.584 227.789 143.584 228.161C143.584 228.533 143.872 228.821 144.244 228.821ZM144.244 233.741C144.616 233.741 144.904 233.453 144.904 233.081C144.904 232.709 144.616 232.421 144.244 232.421C143.872 232.421 143.584 232.709 143.584 233.081C143.584 233.453 143.872 233.741 144.244 233.741Z" fill="#4C5363"/>
<path d="M160.008 233.621H161.52L159.612 230.357C160.596 229.961 161.28 229.001 161.28 227.921C161.28 226.421 160.08 225.221 158.58 225.221H155.22V233.621H156.6V230.561H158.232L160.008 233.621ZM156.6 226.517H158.58C159.312 226.517 159.9 227.129 159.9 227.921C159.9 228.701 159.312 229.325 158.58 229.325H156.6V226.517ZM163.199 231.173H167.975C167.999 231.005 168.023 230.813 168.023 230.633C168.023 228.905 166.799 227.465 165.011 227.465C163.127 227.465 161.843 228.845 161.843 230.621C161.843 232.421 163.127 233.777 165.107 233.777C166.283 233.777 167.183 233.285 167.735 232.469L166.667 231.845C166.379 232.265 165.839 232.589 165.119 232.589C164.159 232.589 163.403 232.109 163.199 231.173ZM163.187 230.117C163.367 229.217 164.027 228.641 164.999 228.641C165.779 228.641 166.535 229.085 166.715 230.117H163.187ZM172.997 227.621L171.329 232.181L169.649 227.621H168.233L170.573 233.621H172.073L174.413 227.621H172.997ZM176.019 231.173H180.795C180.819 231.005 180.843 230.813 180.843 230.633C180.843 228.905 179.619 227.465 177.831 227.465C175.947 227.465 174.663 228.845 174.663 230.621C174.663 232.421 175.947 233.777 177.927 233.777C179.103 233.777 180.003 233.285 180.555 232.469L179.487 231.845C179.199 232.265 178.659 232.589 177.939 232.589C176.979 232.589 176.223 232.109 176.019 231.173ZM176.007 230.117C176.187 229.217 176.847 228.641 177.819 228.641C178.599 228.641 179.355 229.085 179.535 230.117H176.007ZM185.139 227.465C184.323 227.465 183.675 227.765 183.279 228.389V227.621H181.983V233.621H183.279V230.405C183.279 229.181 183.951 228.677 184.803 228.677C185.619 228.677 186.147 229.157 186.147 230.069V233.621H187.443V229.937C187.443 228.377 186.483 227.465 185.139 227.465ZM192.883 227.621V230.837C192.883 232.061 192.211 232.565 191.359 232.565C190.543 232.565 190.015 232.085 190.015 231.173V227.621H188.719V231.305C188.719 232.865 189.679 233.777 191.023 233.777C191.839 233.777 192.487 233.477 192.883 232.853V233.621H194.179V227.621H192.883ZM196.714 231.173H201.49C201.514 231.005 201.538 230.813 201.538 230.633C201.538 228.905 200.314 227.465 198.526 227.465C196.642 227.465 195.358 228.845 195.358 230.621C195.358 232.421 196.642 233.777 198.622 233.777C199.798 233.777 200.698 233.285 201.25 232.469L200.182 231.845C199.894 232.265 199.354 232.589 198.634 232.589C197.674 232.589 196.918 232.109 196.714 231.173ZM196.702 230.117C196.882 229.217 197.542 228.641 198.514 228.641C199.294 228.641 200.05 229.085 200.23 230.117H196.702Z" fill="#2C3543"/>
<rect x="74.0618" y="220.705" width="1.08538" height="19.5368" fill="#8B8F9E"/>
<path d="M30.1316 228.82H34.4456H38.7596L34.4456 233.134L30.1316 228.82Z" fill="#4C5363"/>
<path d="M19 106H608V204H19V106Z" fill="#F7F7F7"/>
<path d="M472.264 136.169C474.253 136.169 475.709 134.947 475.709 132.984V126.9H474.214V132.893C474.214 133.959 473.603 134.713 472.264 134.713C470.925 134.713 470.314 133.959 470.314 132.893V126.9H468.819V132.984C468.819 134.947 470.262 136.169 472.264 136.169ZM478.522 131.294C478.522 130.826 478.964 130.605 479.471 130.605C480.004 130.605 480.459 130.839 480.693 131.346L481.876 130.683C481.421 129.825 480.537 129.331 479.471 129.331C478.145 129.331 477.092 130.098 477.092 131.32C477.092 133.647 480.589 132.997 480.589 134.154C480.589 134.674 480.108 134.882 479.484 134.882C478.769 134.882 478.249 134.531 478.041 133.946L476.832 134.648C477.248 135.584 478.184 136.169 479.484 136.169C480.888 136.169 482.019 135.467 482.019 134.167C482.019 131.762 478.522 132.477 478.522 131.294ZM483.879 128.525C484.373 128.525 484.776 128.109 484.776 127.628C484.776 127.134 484.373 126.731 483.879 126.731C483.385 126.731 482.982 127.134 482.982 127.628C482.982 128.109 483.385 128.525 483.879 128.525ZM483.177 136H484.581V129.5H483.177V136ZM489.631 129.331C488.747 129.331 488.045 129.656 487.616 130.332V129.5H486.212V136H487.616V132.516C487.616 131.19 488.344 130.644 489.267 130.644C490.151 130.644 490.723 131.164 490.723 132.152V136H492.127V132.009C492.127 130.319 491.087 129.331 489.631 129.331ZM498.812 129.5V130.462C498.318 129.76 497.551 129.331 496.55 129.331C494.717 129.331 493.274 130.826 493.274 132.685C493.274 134.544 494.717 136.039 496.55 136.039C497.551 136.039 498.318 135.61 498.812 134.908V135.701C498.812 136.832 498.084 137.495 496.875 137.495C495.744 137.495 495.263 137.053 494.977 136.494L493.768 137.196C494.314 138.236 495.419 138.769 496.849 138.769C498.552 138.769 500.19 137.794 500.19 135.701V129.5H498.812ZM496.745 134.726C495.562 134.726 494.678 133.855 494.678 132.685C494.678 131.515 495.562 130.644 496.745 130.644C497.928 130.644 498.812 131.515 498.812 132.685C498.812 133.855 497.928 134.726 496.745 134.726ZM508.197 136.169C510.095 136.169 511.421 135.155 511.421 133.491C511.421 131.684 509.9 131.216 508.392 130.735C507.066 130.319 506.559 130.02 506.559 129.318C506.559 128.629 507.118 128.187 507.989 128.187C509.003 128.187 509.575 128.733 509.9 129.461L511.161 128.733C510.589 127.524 509.484 126.731 507.989 126.731C506.455 126.731 505.064 127.68 505.064 129.357C505.064 131.073 506.442 131.593 507.859 132.022C509.211 132.438 509.926 132.711 509.926 133.517C509.926 134.18 509.419 134.713 508.236 134.713C507.001 134.713 506.299 134.102 505.974 133.179L504.687 133.933C505.168 135.285 506.403 136.169 508.197 136.169ZM512.631 136H514.035V126.51H512.631V136ZM518.733 136.169C520.644 136.169 522.165 134.674 522.165 132.75C522.165 130.813 520.644 129.331 518.733 129.331C516.835 129.331 515.301 130.813 515.301 132.75C515.301 134.674 516.835 136.169 518.733 136.169ZM518.733 134.804C517.589 134.804 516.705 133.933 516.705 132.75C516.705 131.567 517.589 130.696 518.733 130.696C519.877 130.696 520.761 131.567 520.761 132.75C520.761 133.933 519.877 134.804 518.733 134.804ZM526.934 130.852V129.5H525.322V127.68L523.918 128.096V129.5H522.722V130.852H523.918V133.972C523.918 135.662 524.776 136.26 526.934 136V134.739C525.868 134.791 525.322 134.804 525.322 133.972V130.852H526.934ZM529.227 131.294C529.227 130.826 529.669 130.605 530.176 130.605C530.709 130.605 531.164 130.839 531.398 131.346L532.581 130.683C532.126 129.825 531.242 129.331 530.176 129.331C528.85 129.331 527.797 130.098 527.797 131.32C527.797 133.647 531.294 132.997 531.294 134.154C531.294 134.674 530.813 134.882 530.189 134.882C529.474 134.882 528.954 134.531 528.746 133.946L527.537 134.648C527.953 135.584 528.889 136.169 530.189 136.169C531.593 136.169 532.724 135.467 532.724 134.167C532.724 131.762 529.227 132.477 529.227 131.294Z" fill="#4C5363"/>
<rect x="468" y="152" width="19" height="19" fill="#4C4FEE"/>
<rect x="489" y="152" width="19" height="19" fill="#4C4FEE"/>
<rect x="510" y="152" width="17" height="19" fill="#00D0B2"/>
<rect x="529" y="152" width="19" height="19" fill="#00D0B2"/>
<rect x="550" y="152" width="19" height="19" fill="#00D0B2"/>
<rect x="571" y="152" width="19" height="19" fill="#00D0B2"/>
<path d="M476.459 155.9H472.845V165H476.459C478.968 165 480.84 163.011 480.84 160.45C480.84 157.889 478.968 155.9 476.459 155.9ZM476.459 163.284H474.639V157.616H476.459C478.032 157.616 479.124 158.773 479.124 160.45C479.124 162.127 478.032 163.284 476.459 163.284Z" fill="white"/>
<path d="M497.459 155.9H493.845V165H497.459C499.968 165 501.84 163.011 501.84 160.45C501.84 157.889 499.968 155.9 497.459 155.9ZM497.459 163.284H495.639V157.616H497.459C499.032 157.616 500.124 158.773 500.124 160.45C500.124 162.127 499.032 163.284 497.459 163.284Z" fill="white"/>
<path d="M520.837 165H522.774L520.759 161.568C521.799 161.087 522.514 160.06 522.514 158.916C522.514 157.252 521.162 155.9 519.485 155.9H515.845V165H517.639V161.841H519.004L520.837 165ZM517.639 157.577H519.485C520.161 157.577 520.72 158.162 520.72 158.916C520.72 159.67 520.161 160.268 519.485 160.268H517.639V157.577Z" fill="white"/>
<path d="M541.837 165H543.774L541.759 161.568C542.799 161.087 543.514 160.06 543.514 158.916C543.514 157.252 542.162 155.9 540.485 155.9H536.845V165H538.639V161.841H540.004L541.837 165ZM538.639 157.577H540.485C541.161 157.577 541.72 158.162 541.72 158.916C541.72 159.67 541.161 160.268 540.485 160.268H538.639V157.577Z" fill="white"/>
<path d="M560.837 165H562.774L560.759 161.568C561.799 161.087 562.514 160.06 562.514 158.916C562.514 157.252 561.162 155.9 559.485 155.9H555.845V165H557.639V161.841H559.004L560.837 165ZM557.639 157.577H559.485C560.161 157.577 560.72 158.162 560.72 158.916C560.72 159.67 560.161 160.268 559.485 160.268H557.639V157.577Z" fill="white"/>
<path d="M581.837 165H583.774L581.759 161.568C582.799 161.087 583.514 160.06 583.514 158.916C583.514 157.252 582.162 155.9 580.485 155.9H576.845V165H578.639V161.841H580.004L581.837 165ZM578.639 157.577H580.485C581.161 157.577 581.72 158.162 581.72 158.916C581.72 159.67 581.161 160.268 580.485 160.268H578.639V157.577Z" fill="white"/>
<path d="M23.56 33.21C25.795 33.21 27.37 32.01 27.37 30.045C27.37 27.9 25.6 27.345 23.935 26.82C22.345 26.34 21.94 25.995 21.94 25.35C21.94 24.75 22.45 24.3 23.32 24.3C24.385 24.3 24.955 24.855 25.33 25.65L27.07 24.645C26.365 23.175 25.045 22.29 23.32 22.29C21.52 22.29 19.87 23.43 19.87 25.41C19.87 27.405 21.43 28.08 23.035 28.545C24.595 28.995 25.3 29.295 25.3 30.075C25.3 30.66 24.865 31.185 23.62 31.185C22.315 31.185 21.58 30.555 21.205 29.58L19.435 30.615C20.005 32.175 21.415 33.21 23.56 33.21ZM36.8519 33L32.8169 27.6L36.7019 22.5H34.3169L30.7169 27.135V22.5H28.6469V33H30.7169V28.08L34.4669 33H36.8519ZM44.8891 33H47.1391L43.4491 22.5H40.8841L37.2091 33H39.4441L40.0741 31.11H44.2591L44.8891 33ZM40.7341 29.175L42.1741 24.885L43.6141 29.175H40.7341ZM54.2336 22.5V28.905L49.7336 22.5H48.1586V33H50.2286V26.58L54.7286 33H56.3036V22.5H54.2336ZM66.9814 33.21C68.9164 33.21 70.6114 32.235 71.4964 30.735L69.7114 29.7C69.2164 30.615 68.1814 31.185 66.9814 31.185C64.9264 31.185 63.5764 29.76 63.5764 27.75C63.5764 25.725 64.9264 24.3 66.9814 24.3C68.1814 24.3 69.2014 24.87 69.7114 25.8L71.4964 24.765C70.5964 23.265 68.9014 22.29 66.9814 22.29C63.8014 22.29 61.5214 24.675 61.5214 27.75C61.5214 30.81 63.8014 33.21 66.9814 33.21ZM76.2919 33.21C78.4969 33.21 80.2669 31.485 80.2669 29.25C80.2669 27.015 78.4969 25.29 76.2919 25.29C74.0869 25.29 72.3319 27.015 72.3319 29.25C72.3319 31.485 74.0869 33.21 76.2919 33.21ZM76.2919 31.32C75.1519 31.32 74.2669 30.465 74.2669 29.25C74.2669 28.035 75.1519 27.18 76.2919 27.18C77.4469 27.18 78.3319 28.035 78.3319 29.25C78.3319 30.465 77.4469 31.32 76.2919 31.32ZM85.7982 25.29C84.7932 25.29 84.0132 25.665 83.5632 26.34V25.5H81.6282V33H83.5632V28.95C83.5632 27.645 84.2682 27.09 85.2132 27.09C86.0832 27.09 86.6982 27.615 86.6982 28.635V33H88.6332V28.395C88.6332 26.4 87.3882 25.29 85.7982 25.29ZM95.0886 25.5L93.2586 30.75L91.4436 25.5H89.3136L92.1636 33H94.3686L97.2186 25.5H95.0886ZM99.4936 30.045H105.149C105.194 29.79 105.224 29.535 105.224 29.25C105.224 27.045 103.649 25.29 101.429 25.29C99.0736 25.29 97.4686 27.015 97.4686 29.25C97.4686 31.485 99.0586 33.21 101.579 33.21C103.019 33.21 104.144 32.625 104.849 31.605L103.289 30.705C102.959 31.14 102.359 31.455 101.609 31.455C100.589 31.455 99.7636 31.035 99.4936 30.045ZM99.4636 28.545C99.6886 27.585 100.394 27.03 101.429 27.03C102.239 27.03 103.049 27.465 103.289 28.545H99.4636ZM108.509 26.79V25.5H106.574V33H108.509V29.415C108.509 27.84 109.784 27.39 110.789 27.51V25.35C109.844 25.35 108.899 25.77 108.509 26.79ZM113.472 27.63C113.472 27.225 113.862 27.015 114.342 27.015C114.897 27.015 115.317 27.3 115.542 27.78L117.192 26.88C116.607 25.845 115.557 25.29 114.342 25.29C112.797 25.29 111.492 26.145 111.492 27.675C111.492 30.315 115.362 29.715 115.362 30.81C115.362 31.245 114.942 31.455 114.327 31.455C113.577 31.455 113.067 31.095 112.857 30.48L111.177 31.425C111.717 32.58 112.827 33.21 114.327 33.21C115.932 33.21 117.342 32.43 117.342 30.81C117.342 28.05 113.472 28.74 113.472 27.63ZM119.546 24.6C120.206 24.6 120.746 24.06 120.746 23.415C120.746 22.77 120.206 22.215 119.546 22.215C118.901 22.215 118.361 22.77 118.361 23.415C118.361 24.06 118.901 24.6 119.546 24.6ZM118.586 33H120.521V25.5H118.586V33ZM125.862 33.21C128.067 33.21 129.837 31.485 129.837 29.25C129.837 27.015 128.067 25.29 125.862 25.29C123.657 25.29 121.902 27.015 121.902 29.25C121.902 31.485 123.657 33.21 125.862 33.21ZM125.862 31.32C124.722 31.32 123.837 30.465 123.837 29.25C123.837 28.035 124.722 27.18 125.862 27.18C127.017 27.18 127.902 28.035 127.902 29.25C127.902 30.465 127.017 31.32 125.862 31.32ZM135.368 25.29C134.363 25.29 133.583 25.665 133.133 26.34V25.5H131.198V33H133.133V28.95C133.133 27.645 133.838 27.09 134.783 27.09C135.653 27.09 136.268 27.615 136.268 28.635V33H138.203V28.395C138.203 26.4 136.958 25.29 135.368 25.29ZM148.676 33.21C150.611 33.21 152.306 32.235 153.191 30.735L151.406 29.7C150.911 30.615 149.876 31.185 148.676 31.185C146.621 31.185 145.271 29.76 145.271 27.75C145.271 25.725 146.621 24.3 148.676 24.3C149.876 24.3 150.896 24.87 151.406 25.8L153.191 24.765C152.291 23.265 150.596 22.29 148.676 22.29C145.496 22.29 143.216 24.675 143.216 27.75C143.216 30.81 145.496 33.21 148.676 33.21ZM157.986 33.21C160.191 33.21 161.961 31.485 161.961 29.25C161.961 27.015 160.191 25.29 157.986 25.29C155.781 25.29 154.026 27.015 154.026 29.25C154.026 31.485 155.781 33.21 157.986 33.21ZM157.986 31.32C156.846 31.32 155.961 30.465 155.961 29.25C155.961 28.035 156.846 27.18 157.986 27.18C159.141 27.18 160.026 28.035 160.026 29.25C160.026 30.465 159.141 31.32 157.986 31.32ZM167.493 25.29C166.488 25.29 165.708 25.665 165.258 26.34V25.5H163.323V33H165.258V28.95C165.258 27.645 165.963 27.09 166.908 27.09C167.778 27.09 168.393 27.615 168.393 28.635V33H170.328V28.395C170.328 26.4 169.083 25.29 167.493 25.29ZM178.565 25.5H174.425V25.425C174.425 24.405 175.01 24.15 176.015 24.15C176.555 24.15 177.14 24.195 177.77 24.27V22.5C177.155 22.365 176.585 22.29 176.015 22.29C173.63 22.29 172.49 23.355 172.49 25.425V25.5H171.41V27.36H172.49V33H174.425V27.36H176.63V33H178.565V25.5ZM186.074 25.5V26.43C185.549 25.725 184.739 25.29 183.674 25.29C181.544 25.29 179.939 27.03 179.939 29.13C179.939 31.245 181.544 32.97 183.674 32.97C184.739 32.97 185.549 32.535 186.074 31.83V32.64C186.074 33.825 185.324 34.485 184.109 34.485C182.954 34.485 182.459 34.02 182.144 33.435L180.494 34.38C181.154 35.595 182.444 36.21 184.049 36.21C186.029 36.21 187.964 35.1 187.964 32.64V25.5H186.074ZM183.974 31.185C182.759 31.185 181.874 30.33 181.874 29.13C181.874 27.945 182.759 27.09 183.974 27.09C185.189 27.09 186.074 27.945 186.074 29.13C186.074 30.33 185.189 31.185 183.974 31.185ZM194.669 25.5V29.55C194.669 30.855 193.964 31.41 193.019 31.41C192.149 31.41 191.534 30.885 191.534 29.865V25.5H189.599V30.105C189.599 32.1 190.844 33.21 192.434 33.21C193.439 33.21 194.219 32.835 194.669 32.16V33H196.604V25.5H194.669ZM200.311 26.79V25.5H198.376V33H200.311V29.415C200.311 27.84 201.586 27.39 202.591 27.51V25.35C201.646 25.35 200.701 25.77 200.311 26.79ZM209.145 25.5V26.385C208.605 25.71 207.795 25.29 206.7 25.29C204.705 25.29 203.055 27.015 203.055 29.25C203.055 31.485 204.705 33.21 206.7 33.21C207.795 33.21 208.605 32.79 209.145 32.115V33H211.08V25.5H209.145ZM207.06 31.365C205.875 31.365 204.99 30.51 204.99 29.25C204.99 27.99 205.875 27.135 207.06 27.135C208.26 27.135 209.145 27.99 209.145 29.25C209.145 30.51 208.26 31.365 207.06 31.365ZM217.124 27.36V25.5H215.429V23.4L213.494 23.985V25.5H212.189V27.36H213.494V30.48C213.494 32.505 214.409 33.3 217.124 33V31.245C216.014 31.305 215.429 31.29 215.429 30.48V27.36H217.124ZM219.449 24.6C220.109 24.6 220.649 24.06 220.649 23.415C220.649 22.77 220.109 22.215 219.449 22.215C218.804 22.215 218.264 22.77 218.264 23.415C218.264 24.06 218.804 24.6 219.449 24.6ZM218.489 33H220.424V25.5H218.489V33ZM225.765 33.21C227.97 33.21 229.74 31.485 229.74 29.25C229.74 27.015 227.97 25.29 225.765 25.29C223.56 25.29 221.805 27.015 221.805 29.25C221.805 31.485 223.56 33.21 225.765 33.21ZM225.765 31.32C224.625 31.32 223.74 30.465 223.74 29.25C223.74 28.035 224.625 27.18 225.765 27.18C226.92 27.18 227.805 28.035 227.805 29.25C227.805 30.465 226.92 31.32 225.765 31.32ZM235.271 25.29C234.266 25.29 233.486 25.665 233.036 26.34V25.5H231.101V33H233.036V28.95C233.036 27.645 233.741 27.09 234.686 27.09C235.556 27.09 236.171 27.615 236.171 28.635V33H238.106V28.395C238.106 26.4 236.861 25.29 235.271 25.29Z" fill="#4C5363"/>
<path d="M23.55 54.9H20.04V64H23.55C26.059 64 27.84 61.959 27.84 59.45C27.84 56.941 26.059 54.9 23.55 54.9ZM23.55 63.142H20.95V55.758H23.55C25.578 55.758 26.956 57.409 26.956 59.45C26.956 61.491 25.578 63.142 23.55 63.142ZM32.2694 57.344C30.2544 57.344 28.8764 58.839 28.8764 60.75C28.8764 62.713 30.2804 64.156 32.3344 64.156C33.6474 64.156 34.6484 63.545 35.1944 62.661L34.4404 62.219C34.0894 62.843 33.3744 63.324 32.3474 63.324C30.9694 63.324 29.9424 62.505 29.7604 61.179H35.4674C35.4804 61.049 35.4934 60.906 35.4934 60.776C35.4934 58.995 34.2584 57.344 32.2694 57.344ZM32.2694 58.176C33.3874 58.176 34.4274 58.917 34.6094 60.347H29.7604C29.9294 59.073 30.9044 58.176 32.2694 58.176ZM41.5558 57.5H38.0458V57.24C38.0458 55.992 38.6568 55.576 39.9178 55.576C40.3208 55.576 40.7108 55.602 41.1658 55.68V54.9C40.6978 54.796 40.3078 54.744 39.9178 54.744C38.1628 54.744 37.1878 55.55 37.1878 57.24V57.5H36.0828V58.332H37.1878V64H38.0458V58.332H40.6978V64H41.5558V57.5ZM46.4129 57.344C45.4899 57.344 44.7359 57.695 44.2289 58.514V57.5H43.3709V64H44.2289V60.594C44.2289 58.852 45.1909 58.176 46.3349 58.176C47.4659 58.176 48.1029 58.852 48.1029 60.009V64H48.9609V60.009C48.9609 58.384 47.9989 57.344 46.4129 57.344ZM53.623 57.344C51.608 57.344 50.23 58.839 50.23 60.75C50.23 62.713 51.634 64.156 53.688 64.156C55.001 64.156 56.002 63.545 56.548 62.661L55.794 62.219C55.443 62.843 54.728 63.324 53.701 63.324C52.323 63.324 51.296 62.505 51.114 61.179H56.821C56.834 61.049 56.847 60.906 56.847 60.776C56.847 58.995 55.612 57.344 53.623 57.344ZM53.623 58.176C54.741 58.176 55.781 58.917 55.963 60.347H51.114C51.283 59.073 52.258 58.176 53.623 58.176ZM64.9068 58.332V57.5H63.0348V55.68L62.1768 55.94V57.5H60.8118V58.332H62.1768V62.271C62.1768 63.831 63.1518 64.26 64.9068 64V63.246C63.6458 63.298 63.0348 63.389 63.0348 62.271V58.332H64.9068ZM69.3788 57.344C68.4558 57.344 67.7018 57.695 67.1948 58.514V54.9H66.3368V64H67.1948V60.594C67.1948 58.852 68.1568 58.176 69.3008 58.176C70.4318 58.176 71.0688 58.852 71.0688 60.009V64H71.9268V60.009C71.9268 58.384 70.9648 57.344 69.3788 57.344ZM76.5888 57.344C74.5738 57.344 73.1958 58.839 73.1958 60.75C73.1958 62.713 74.5998 64.156 76.6538 64.156C77.9668 64.156 78.9678 63.545 79.5138 62.661L78.7598 62.219C78.4088 62.843 77.6938 63.324 76.6668 63.324C75.2888 63.324 74.2618 62.505 74.0798 61.179H79.7868C79.7998 61.049 79.8128 60.906 79.8128 60.776C79.8128 58.995 78.5778 57.344 76.5888 57.344ZM76.5888 58.176C77.7068 58.176 78.7468 58.917 78.9288 60.347H74.0798C74.2488 59.073 75.2238 58.176 76.5888 58.176ZM89.0036 57.5V60.906C89.0036 62.648 88.0416 63.324 86.8976 63.324C85.7666 63.324 85.1296 62.648 85.1296 61.491V57.5H84.2716V61.491C84.2716 63.116 85.2336 64.156 86.8196 64.156C87.7426 64.156 88.4966 63.805 89.0036 62.986V64H89.8616V57.5H89.0036ZM92.3526 59.203C92.3526 58.501 93.0416 58.176 93.7176 58.176C94.3416 58.176 95.0046 58.423 95.2776 59.086L95.9926 58.67C95.6156 57.864 94.7836 57.344 93.7176 57.344C92.4176 57.344 91.4946 58.163 91.4946 59.203C91.4946 61.595 95.2906 60.672 95.2906 62.284C95.2906 63.051 94.5626 63.324 93.7956 63.324C92.9246 63.324 92.2486 62.895 92.0146 62.232L91.2866 62.661C91.6116 63.493 92.4956 64.156 93.7956 64.156C95.1866 64.156 96.1486 63.389 96.1486 62.284C96.1486 59.892 92.3526 60.815 92.3526 59.203ZM100.392 57.344C98.3775 57.344 96.9995 58.839 96.9995 60.75C96.9995 62.713 98.4035 64.156 100.457 64.156C101.77 64.156 102.771 63.545 103.317 62.661L102.563 62.219C102.212 62.843 101.497 63.324 100.47 63.324C99.0925 63.324 98.0655 62.505 97.8835 61.179H103.59C103.603 61.049 103.616 60.906 103.616 60.776C103.616 58.995 102.381 57.344 100.392 57.344ZM100.392 58.176C101.51 58.176 102.55 58.917 102.732 60.347H97.8835C98.0525 59.073 99.0275 58.176 100.392 58.176ZM105.839 58.579V57.5H104.981V64H105.839V60.386C105.839 58.774 106.853 58.228 107.893 58.228V57.396C107.061 57.396 106.294 57.669 105.839 58.579ZM111.02 54.9H109.98L109.46 57.825H110.24L111.02 54.9ZM112.348 59.203C112.348 58.501 113.037 58.176 113.713 58.176C114.337 58.176 115 58.423 115.273 59.086L115.988 58.67C115.611 57.864 114.779 57.344 113.713 57.344C112.413 57.344 111.49 58.163 111.49 59.203C111.49 61.595 115.286 60.672 115.286 62.284C115.286 63.051 114.558 63.324 113.791 63.324C112.92 63.324 112.244 62.895 112.01 62.232L111.282 62.661C111.607 63.493 112.491 64.156 113.791 64.156C115.182 64.156 116.144 63.389 116.144 62.284C116.144 59.892 112.348 60.815 112.348 59.203ZM124.309 57.344C123.152 57.344 122.229 57.903 121.683 58.774V57.5H120.825V66.6H121.683V62.726C122.229 63.597 123.152 64.156 124.309 64.156C126.142 64.156 127.663 62.674 127.663 60.75C127.663 58.826 126.142 57.344 124.309 57.344ZM124.244 63.324C122.801 63.324 121.683 62.193 121.683 60.75C121.683 59.307 122.801 58.176 124.244 58.176C125.687 58.176 126.805 59.307 126.805 60.75C126.805 62.193 125.687 63.324 124.244 63.324ZM132.119 64.156C134.017 64.156 135.538 62.674 135.538 60.75C135.538 58.826 134.017 57.344 132.119 57.344C130.221 57.344 128.7 58.826 128.7 60.75C128.7 62.674 130.221 64.156 132.119 64.156ZM132.119 63.324C130.676 63.324 129.558 62.193 129.558 60.75C129.558 59.307 130.676 58.176 132.119 58.176C133.562 58.176 134.68 59.307 134.68 60.75C134.68 62.193 133.562 63.324 132.119 63.324ZM137.523 59.203C137.523 58.501 138.212 58.176 138.888 58.176C139.512 58.176 140.175 58.423 140.448 59.086L141.163 58.67C140.786 57.864 139.954 57.344 138.888 57.344C137.588 57.344 136.665 58.163 136.665 59.203C136.665 61.595 140.461 60.672 140.461 62.284C140.461 63.051 139.733 63.324 138.966 63.324C138.095 63.324 137.419 62.895 137.185 62.232L136.457 62.661C136.782 63.493 137.666 64.156 138.966 64.156C140.357 64.156 141.319 63.389 141.319 62.284C141.319 59.892 137.523 60.815 137.523 59.203ZM145.941 58.332V57.5H144.069V55.68L143.211 55.94V57.5H141.846V58.332H143.211V62.271C143.211 63.831 144.186 64.26 145.941 64V63.246C144.68 63.298 144.069 63.389 144.069 62.271V58.332H145.941ZM147.374 60.399H152.054V59.567H147.374V60.399ZM154.427 56.122C154.778 56.122 155.051 55.836 155.051 55.498C155.051 55.16 154.778 54.874 154.427 54.874C154.076 54.874 153.803 55.16 153.803 55.498C153.803 55.836 154.076 56.122 154.427 56.122ZM153.998 64H154.856V57.5H153.998V64ZM159.719 57.344C158.796 57.344 158.042 57.695 157.535 58.514V57.5H156.677V64H157.535V60.594C157.535 58.852 158.497 58.176 159.641 58.176C160.772 58.176 161.409 58.852 161.409 60.009V64H162.267V60.009C162.267 58.384 161.305 57.344 159.719 57.344ZM164.602 59.203C164.602 58.501 165.291 58.176 165.967 58.176C166.591 58.176 167.254 58.423 167.527 59.086L168.242 58.67C167.865 57.864 167.033 57.344 165.967 57.344C164.667 57.344 163.744 58.163 163.744 59.203C163.744 61.595 167.54 60.672 167.54 62.284C167.54 63.051 166.812 63.324 166.045 63.324C165.174 63.324 164.498 62.895 164.264 62.232L163.536 62.661C163.861 63.493 164.745 64.156 166.045 64.156C167.436 64.156 168.398 63.389 168.398 62.284C168.398 59.892 164.602 60.815 164.602 59.203ZM173.02 58.332V57.5H171.148V55.68L170.29 55.94V57.5H168.925V58.332H170.29V62.271C170.29 63.831 171.265 64.26 173.02 64V63.246C171.759 63.298 171.148 63.389 171.148 62.271V58.332H173.02ZM179.646 57.5V58.774C179.1 57.903 178.177 57.344 177.02 57.344C175.187 57.344 173.666 58.826 173.666 60.75C173.666 62.674 175.187 64.156 177.02 64.156C178.177 64.156 179.1 63.597 179.646 62.726V64H180.504V57.5H179.646ZM177.085 63.324C175.642 63.324 174.524 62.193 174.524 60.75C174.524 59.307 175.642 58.176 177.085 58.176C178.528 58.176 179.646 59.307 179.646 60.75C179.646 62.193 178.528 63.324 177.085 63.324ZM182.321 64H183.179V54.51H182.321V64ZM185 64H185.858V54.51H185V64ZM196.519 57.5V58.774C195.973 57.903 195.05 57.344 193.893 57.344C192.06 57.344 190.539 58.826 190.539 60.75C190.539 62.674 192.06 64.156 193.893 64.156C195.05 64.156 195.973 63.597 196.519 62.726V64H197.377V57.5H196.519ZM193.958 63.324C192.515 63.324 191.397 62.193 191.397 60.75C191.397 59.307 192.515 58.176 193.958 58.176C195.401 58.176 196.519 59.307 196.519 60.75C196.519 62.193 195.401 63.324 193.958 63.324ZM202.222 64.156C203.496 64.156 204.601 63.493 205.134 62.466L204.419 62.05C204.003 62.804 203.21 63.324 202.222 63.324C200.779 63.324 199.661 62.193 199.661 60.75C199.661 59.307 200.779 58.176 202.222 58.176C203.197 58.176 204.016 58.683 204.367 59.45L205.069 59.047C204.601 58.02 203.509 57.344 202.222 57.344C200.259 57.344 198.803 58.826 198.803 60.75C198.803 62.674 200.259 64.156 202.222 64.156ZM209.811 58.332V57.5H207.939V55.68L207.081 55.94V57.5H205.716V58.332H207.081V62.271C207.081 63.831 208.056 64.26 209.811 64V63.246C208.55 63.298 207.939 63.389 207.939 62.271V58.332H209.811ZM211.67 56.122C212.021 56.122 212.294 55.836 212.294 55.498C212.294 55.16 212.021 54.874 211.67 54.874C211.319 54.874 211.046 55.16 211.046 55.498C211.046 55.836 211.319 56.122 211.67 56.122ZM211.241 64H212.099V57.5H211.241V64ZM218.6 57.5L216.325 63.103L214.05 57.5H213.14L215.805 64H216.845L219.51 57.5H218.6ZM220.976 56.122C221.327 56.122 221.6 55.836 221.6 55.498C221.6 55.16 221.327 54.874 220.976 54.874C220.625 54.874 220.352 55.16 220.352 55.498C220.352 55.836 220.625 56.122 220.976 56.122ZM220.547 64H221.405V57.5H220.547V64ZM226.67 58.332V57.5H224.798V55.68L223.94 55.94V57.5H222.575V58.332H223.94V62.271C223.94 63.831 224.915 64.26 226.67 64V63.246C225.409 63.298 224.798 63.389 224.798 62.271V58.332H226.67ZM232.907 57.5L230.801 62.947L228.357 57.5H227.447L230.359 64.039L230.19 64.442C229.839 65.287 229.254 65.885 228.409 65.794V66.6C229.579 66.691 230.541 65.846 231.035 64.598L233.817 57.5H232.907ZM245.033 57.344C244.201 57.344 243.408 57.721 242.927 58.527C242.563 57.773 241.861 57.344 240.951 57.344C240.171 57.344 239.469 57.656 238.962 58.449V57.5H238.104V64H238.962V60.399C238.962 58.787 239.898 58.176 240.834 58.176C241.757 58.176 242.355 58.787 242.355 59.944V64H243.213V60.399C243.213 58.787 244.019 58.176 245.02 58.176C245.943 58.176 246.606 58.787 246.606 59.944V64H247.464V59.944C247.464 58.319 246.463 57.344 245.033 57.344ZM252.127 57.344C250.112 57.344 248.734 58.839 248.734 60.75C248.734 62.713 250.138 64.156 252.192 64.156C253.505 64.156 254.506 63.545 255.052 62.661L254.298 62.219C253.947 62.843 253.232 63.324 252.205 63.324C250.827 63.324 249.8 62.505 249.618 61.179H255.325C255.338 61.049 255.351 60.906 255.351 60.776C255.351 58.995 254.116 57.344 252.127 57.344ZM252.127 58.176C253.245 58.176 254.285 58.917 254.467 60.347H249.618C249.787 59.073 250.762 58.176 252.127 58.176ZM262.306 57.5V58.774C261.76 57.903 260.837 57.344 259.68 57.344C257.847 57.344 256.326 58.826 256.326 60.75C256.326 62.674 257.847 64.156 259.68 64.156C260.837 64.156 261.76 63.597 262.306 62.726V64H263.164V57.5H262.306ZM259.745 63.324C258.302 63.324 257.184 62.193 257.184 60.75C257.184 59.307 258.302 58.176 259.745 58.176C261.188 58.176 262.306 59.307 262.306 60.75C262.306 62.193 261.188 63.324 259.745 63.324ZM265.656 59.203C265.656 58.501 266.345 58.176 267.021 58.176C267.645 58.176 268.308 58.423 268.581 59.086L269.296 58.67C268.919 57.864 268.087 57.344 267.021 57.344C265.721 57.344 264.798 58.163 264.798 59.203C264.798 61.595 268.594 60.672 268.594 62.284C268.594 63.051 267.866 63.324 267.099 63.324C266.228 63.324 265.552 62.895 265.318 62.232L264.59 62.661C264.915 63.493 265.799 64.156 267.099 64.156C268.49 64.156 269.452 63.389 269.452 62.284C269.452 59.892 265.656 60.815 265.656 59.203ZM275.396 57.5V60.906C275.396 62.648 274.434 63.324 273.29 63.324C272.159 63.324 271.522 62.648 271.522 61.491V57.5H270.664V61.491C270.664 63.116 271.626 64.156 273.212 64.156C274.135 64.156 274.889 63.805 275.396 62.986V64H276.254V57.5H275.396ZM278.927 58.579V57.5H278.069V64H278.927V60.386C278.927 58.774 279.941 58.228 280.981 58.228V57.396C280.149 57.396 279.382 57.669 278.927 58.579ZM284.767 57.344C282.752 57.344 281.374 58.839 281.374 60.75C281.374 62.713 282.778 64.156 284.832 64.156C286.145 64.156 287.146 63.545 287.692 62.661L286.938 62.219C286.587 62.843 285.872 63.324 284.845 63.324C283.467 63.324 282.44 62.505 282.258 61.179H287.965C287.978 61.049 287.991 60.906 287.991 60.776C287.991 58.995 286.756 57.344 284.767 57.344ZM284.767 58.176C285.885 58.176 286.925 58.917 287.107 60.347H282.258C282.427 59.073 283.402 58.176 284.767 58.176ZM296.284 57.344C295.452 57.344 294.659 57.721 294.178 58.527C293.814 57.773 293.112 57.344 292.202 57.344C291.422 57.344 290.72 57.656 290.213 58.449V57.5H289.355V64H290.213V60.399C290.213 58.787 291.149 58.176 292.085 58.176C293.008 58.176 293.606 58.787 293.606 59.944V64H294.464V60.399C294.464 58.787 295.27 58.176 296.271 58.176C297.194 58.176 297.857 58.787 297.857 59.944V64H298.715V59.944C298.715 58.319 297.714 57.344 296.284 57.344ZM303.378 57.344C301.363 57.344 299.985 58.839 299.985 60.75C299.985 62.713 301.389 64.156 303.443 64.156C304.756 64.156 305.757 63.545 306.303 62.661L305.549 62.219C305.198 62.843 304.483 63.324 303.456 63.324C302.078 63.324 301.051 62.505 300.869 61.179H306.576C306.589 61.049 306.602 60.906 306.602 60.776C306.602 58.995 305.367 57.344 303.378 57.344ZM303.378 58.176C304.496 58.176 305.536 58.917 305.718 60.347H300.869C301.038 59.073 302.013 58.176 303.378 58.176ZM311.009 57.344C310.086 57.344 309.332 57.695 308.825 58.514V57.5H307.967V64H308.825V60.594C308.825 58.852 309.787 58.176 310.931 58.176C312.062 58.176 312.699 58.852 312.699 60.009V64H313.557V60.009C313.557 58.384 312.595 57.344 311.009 57.344ZM318.661 58.332V57.5H316.789V55.68L315.931 55.94V57.5H314.566V58.332H315.931V62.271C315.931 63.831 316.906 64.26 318.661 64V63.246C317.4 63.298 316.789 63.389 316.789 62.271V58.332H318.661ZM326.786 58.332V57.5H324.914V55.68L324.056 55.94V57.5H322.691V58.332H324.056V62.271C324.056 63.831 325.031 64.26 326.786 64V63.246C325.525 63.298 324.914 63.389 324.914 62.271V58.332H326.786ZM328.645 56.122C328.996 56.122 329.269 55.836 329.269 55.498C329.269 55.16 328.996 54.874 328.645 54.874C328.294 54.874 328.021 55.16 328.021 55.498C328.021 55.836 328.294 56.122 328.645 56.122ZM328.216 64H329.074V57.5H328.216V64ZM337.823 57.344C336.991 57.344 336.198 57.721 335.717 58.527C335.353 57.773 334.651 57.344 333.741 57.344C332.961 57.344 332.259 57.656 331.752 58.449V57.5H330.894V64H331.752V60.399C331.752 58.787 332.688 58.176 333.624 58.176C334.547 58.176 335.145 58.787 335.145 59.944V64H336.003V60.399C336.003 58.787 336.809 58.176 337.81 58.176C338.733 58.176 339.396 58.787 339.396 59.944V64H340.254V59.944C340.254 58.319 339.253 57.344 337.823 57.344ZM344.917 57.344C342.902 57.344 341.524 58.839 341.524 60.75C341.524 62.713 342.928 64.156 344.982 64.156C346.295 64.156 347.296 63.545 347.842 62.661L347.088 62.219C346.737 62.843 346.022 63.324 344.995 63.324C343.617 63.324 342.59 62.505 342.408 61.179H348.115C348.128 61.049 348.141 60.906 348.141 60.776C348.141 58.995 346.906 57.344 344.917 57.344ZM344.917 58.176C346.035 58.176 347.075 58.917 347.257 60.347H342.408C342.577 59.073 343.552 58.176 344.917 58.176ZM356.24 57.344C355.083 57.344 354.16 57.903 353.614 58.774V54.9H352.756V64H353.614V62.726C354.16 63.597 355.083 64.156 356.24 64.156C358.073 64.156 359.594 62.674 359.594 60.75C359.594 58.826 358.073 57.344 356.24 57.344ZM356.175 63.324C354.732 63.324 353.614 62.193 353.614 60.75C353.614 59.307 354.732 58.176 356.175 58.176C357.618 58.176 358.736 59.307 358.736 60.75C358.736 62.193 357.618 63.324 356.175 63.324ZM365.446 57.5L363.34 62.947L360.896 57.5H359.986L362.898 64.039L362.729 64.442C362.378 65.287 361.793 65.885 360.948 65.794V66.6C362.118 66.691 363.08 65.846 363.574 64.598L366.356 57.5H365.446ZM376.233 54.9V58.774C375.687 57.903 374.764 57.344 373.607 57.344C371.774 57.344 370.253 58.826 370.253 60.75C370.253 62.674 371.774 64.156 373.607 64.156C374.764 64.156 375.687 63.597 376.233 62.726V64H377.091V54.9H376.233ZM373.672 63.324C372.229 63.324 371.111 62.193 371.111 60.75C371.111 59.307 372.229 58.176 373.672 58.176C375.115 58.176 376.233 59.307 376.233 60.75C376.233 62.193 375.115 63.324 373.672 63.324ZM381.911 57.344C379.896 57.344 378.518 58.839 378.518 60.75C378.518 62.713 379.922 64.156 381.976 64.156C383.289 64.156 384.29 63.545 384.836 62.661L384.082 62.219C383.731 62.843 383.016 63.324 381.989 63.324C380.611 63.324 379.584 62.505 379.402 61.179H385.109C385.122 61.049 385.135 60.906 385.135 60.776C385.135 58.995 383.9 57.344 381.911 57.344ZM381.911 58.176C383.029 58.176 384.069 58.917 384.251 60.347H379.402C379.571 59.073 380.546 58.176 381.911 58.176ZM386.5 64H387.358V54.51H386.5V64ZM394.769 57.5V58.774C394.223 57.903 393.3 57.344 392.143 57.344C390.31 57.344 388.789 58.826 388.789 60.75C388.789 62.674 390.31 64.156 392.143 64.156C393.3 64.156 394.223 63.597 394.769 62.726V64H395.627V57.5H394.769ZM392.208 63.324C390.765 63.324 389.647 62.193 389.647 60.75C389.647 59.307 390.765 58.176 392.208 58.176C393.651 58.176 394.769 59.307 394.769 60.75C394.769 62.193 393.651 63.324 392.208 63.324ZM402.123 57.5L400.017 62.947L397.573 57.5H396.663L399.575 64.039L399.406 64.442C399.055 65.287 398.47 65.885 397.625 65.794V66.6C398.795 66.691 399.757 65.846 400.251 64.598L403.033 57.5H402.123ZM404.499 56.122C404.85 56.122 405.123 55.836 405.123 55.498C405.123 55.16 404.85 54.874 404.499 54.874C404.148 54.874 403.875 55.16 403.875 55.498C403.875 55.836 404.148 56.122 404.499 56.122ZM404.07 64H404.928V57.5H404.07V64ZM409.791 57.344C408.868 57.344 408.114 57.695 407.607 58.514V57.5H406.749V64H407.607V60.594C407.607 58.852 408.569 58.176 409.713 58.176C410.844 58.176 411.481 58.852 411.481 60.009V64H412.339V60.009C412.339 58.384 411.377 57.344 409.791 57.344ZM419.588 57.5V58.774C419.042 57.903 418.119 57.344 416.962 57.344C415.129 57.344 413.608 58.826 413.608 60.75C413.608 62.674 415.129 64.156 416.962 64.156C418.119 64.156 419.042 63.597 419.588 62.726V63.74C419.588 65.066 418.691 65.924 417.183 65.924C415.779 65.924 415.181 65.404 414.856 64.741L414.102 65.17C414.609 66.184 415.688 66.756 417.183 66.756C418.86 66.756 420.446 65.716 420.446 63.74V57.5H419.588ZM417.027 63.324C415.584 63.324 414.466 62.193 414.466 60.75C414.466 59.307 415.584 58.176 417.027 58.176C418.47 58.176 419.588 59.307 419.588 60.75C419.588 62.193 418.47 63.324 417.027 63.324ZM428.958 58.332V57.5H427.086V55.68L426.228 55.94V57.5H424.863V58.332H426.228V62.271C426.228 63.831 427.203 64.26 428.958 64V63.246C427.697 63.298 427.086 63.389 427.086 62.271V58.332H428.958ZM433.43 57.344C432.507 57.344 431.753 57.695 431.246 58.514V54.9H430.388V64H431.246V60.594C431.246 58.852 432.208 58.176 433.352 58.176C434.483 58.176 435.12 58.852 435.12 60.009V64H435.978V60.009C435.978 58.384 435.016 57.344 433.43 57.344ZM440.64 57.344C438.625 57.344 437.247 58.839 437.247 60.75C437.247 62.713 438.651 64.156 440.705 64.156C442.018 64.156 443.019 63.545 443.565 62.661L442.811 62.219C442.46 62.843 441.745 63.324 440.718 63.324C439.34 63.324 438.313 62.505 438.131 61.179H443.838C443.851 61.049 443.864 60.906 443.864 60.776C443.864 58.995 442.629 57.344 440.64 57.344ZM440.64 58.176C441.758 58.176 442.798 58.917 442.98 60.347H438.131C438.3 59.073 439.275 58.176 440.64 58.176ZM451.468 64.156C453.288 64.156 454.536 63.168 454.536 61.608C454.536 59.918 453.054 59.45 451.403 58.904C450.168 58.501 449.388 58.189 449.388 57.201C449.388 56.2 450.181 55.628 451.273 55.628C452.469 55.628 453.171 56.317 453.509 57.136L454.276 56.707C453.808 55.628 452.768 54.744 451.273 54.744C449.765 54.744 448.478 55.641 448.478 57.24C448.478 58.917 449.908 59.307 451.39 59.801C452.729 60.243 453.626 60.581 453.626 61.634C453.626 62.609 452.859 63.272 451.481 63.272C450.051 63.272 449.193 62.57 448.868 61.478L448.088 61.933C448.556 63.311 449.791 64.156 451.468 64.156ZM462.405 64L457.907 59.32L462.275 54.9H461.079L456.945 59.06V54.9H456.035V64H456.945V59.593L461.209 64H462.405ZM469.761 64H470.723L467.226 54.9H466.29L462.793 64H463.755L464.6 61.764H468.916L469.761 64ZM464.925 60.906L466.758 56.031L468.591 60.906H464.925ZM477.225 54.9V58.774C476.679 57.903 475.756 57.344 474.599 57.344C472.766 57.344 471.245 58.826 471.245 60.75C471.245 62.674 472.766 64.156 474.599 64.156C475.756 64.156 476.679 63.597 477.225 62.726V64H478.083V54.9H477.225ZM474.664 63.324C473.221 63.324 472.103 62.193 472.103 60.75C472.103 59.307 473.221 58.176 474.664 58.176C476.107 58.176 477.225 59.307 477.225 60.75C477.225 62.193 476.107 63.324 474.664 63.324ZM485.879 54.9V62.31L480.809 54.9H480.029V64H480.939V56.59L486.009 64H486.789V54.9H485.879ZM491.738 57.344C489.723 57.344 488.345 58.839 488.345 60.75C488.345 62.713 489.749 64.156 491.803 64.156C493.116 64.156 494.117 63.545 494.663 62.661L493.909 62.219C493.558 62.843 492.843 63.324 491.816 63.324C490.438 63.324 489.411 62.505 489.229 61.179H494.936C494.949 61.049 494.962 60.906 494.962 60.776C494.962 58.995 493.727 57.344 491.738 57.344ZM491.738 58.176C492.856 58.176 493.896 58.917 494.078 60.347H489.229C489.398 59.073 490.373 58.176 491.738 58.176ZM499.582 58.332V57.5H497.71V55.68L496.852 55.94V57.5H495.487V58.332H496.852V62.271C496.852 63.831 497.827 64.26 499.582 64V63.246C498.321 63.298 497.71 63.389 497.71 62.271V58.332H499.582ZM508.838 57.5L507.239 62.895L505.536 57.5H504.678L502.975 62.895L501.376 57.5H500.492L502.494 64H503.43L505.107 58.761L506.784 64H507.72L509.722 57.5H508.838ZM513.791 64.156C515.689 64.156 517.21 62.674 517.21 60.75C517.21 58.826 515.689 57.344 513.791 57.344C511.893 57.344 510.372 58.826 510.372 60.75C510.372 62.674 511.893 64.156 513.791 64.156ZM513.791 63.324C512.348 63.324 511.23 62.193 511.23 60.75C511.23 59.307 512.348 58.176 513.791 58.176C515.234 58.176 516.352 59.307 516.352 60.75C516.352 62.193 515.234 63.324 513.791 63.324ZM519.503 58.579V57.5H518.645V64H519.503V60.386C519.503 58.774 520.517 58.228 521.557 58.228V57.396C520.725 57.396 519.958 57.669 519.503 58.579ZM527.985 64L524.501 60.62L527.855 57.5H526.685L523.591 60.373V54.9H522.733V64H523.591V60.867L526.841 64H527.985ZM23.394 75.344C22.237 75.344 21.314 75.903 20.768 76.774V75.5H19.91V84.6H20.768V80.726C21.314 81.597 22.237 82.156 23.394 82.156C25.227 82.156 26.748 80.674 26.748 78.75C26.748 76.826 25.227 75.344 23.394 75.344ZM23.329 81.324C21.886 81.324 20.768 80.193 20.768 78.75C20.768 77.307 21.886 76.176 23.329 76.176C24.772 76.176 25.89 77.307 25.89 78.75C25.89 80.193 24.772 81.324 23.329 81.324ZM31.2036 82.156C33.1016 82.156 34.6226 80.674 34.6226 78.75C34.6226 76.826 33.1016 75.344 31.2036 75.344C29.3056 75.344 27.7846 76.826 27.7846 78.75C27.7846 80.674 29.3056 82.156 31.2036 82.156ZM31.2036 81.324C29.7606 81.324 28.6426 80.193 28.6426 78.75C28.6426 77.307 29.7606 76.176 31.2036 76.176C32.6466 76.176 33.7646 77.307 33.7646 78.75C33.7646 80.193 32.6466 81.324 31.2036 81.324ZM36.6075 77.203C36.6075 76.501 37.2965 76.176 37.9725 76.176C38.5965 76.176 39.2595 76.423 39.5325 77.086L40.2475 76.67C39.8705 75.864 39.0385 75.344 37.9725 75.344C36.6725 75.344 35.7495 76.163 35.7495 77.203C35.7495 79.595 39.5455 78.672 39.5455 80.284C39.5455 81.051 38.8175 81.324 38.0505 81.324C37.1795 81.324 36.5035 80.895 36.2695 80.232L35.5415 80.661C35.8665 81.493 36.7505 82.156 38.0505 82.156C39.4415 82.156 40.4035 81.389 40.4035 80.284C40.4035 77.892 36.6075 78.815 36.6075 77.203ZM45.0259 76.332V75.5H43.1539V73.68L42.2959 73.94V75.5H40.9309V76.332H42.2959V80.271C42.2959 81.831 43.2709 82.26 45.0259 82V81.246C43.7649 81.298 43.1539 81.389 43.1539 80.271V76.332H45.0259ZM49.9399 75.344C48.7829 75.344 47.8599 75.903 47.3139 76.774V72.9H46.4559V82H47.3139V80.726C47.8599 81.597 48.7829 82.156 49.9399 82.156C51.7729 82.156 53.2939 80.674 53.2939 78.75C53.2939 76.826 51.7729 75.344 49.9399 75.344ZM49.8749 81.324C48.4319 81.324 47.3139 80.193 47.3139 78.75C47.3139 77.307 48.4319 76.176 49.8749 76.176C51.3179 76.176 52.4359 77.307 52.4359 78.75C52.4359 80.193 51.3179 81.324 49.8749 81.324ZM60.3105 75.5V76.774C59.7645 75.903 58.8415 75.344 57.6845 75.344C55.8515 75.344 54.3305 76.826 54.3305 78.75C54.3305 80.674 55.8515 82.156 57.6845 82.156C58.8415 82.156 59.7645 81.597 60.3105 80.726V82H61.1685V75.5H60.3105ZM57.7495 81.324C56.3065 81.324 55.1885 80.193 55.1885 78.75C55.1885 77.307 56.3065 76.176 57.7495 76.176C59.1925 76.176 60.3105 77.307 60.3105 78.75C60.3105 80.193 59.1925 81.324 57.7495 81.324ZM66.0142 82.156C67.2882 82.156 68.3932 81.493 68.9262 80.466L68.2112 80.05C67.7952 80.804 67.0022 81.324 66.0142 81.324C64.5712 81.324 63.4532 80.193 63.4532 78.75C63.4532 77.307 64.5712 76.176 66.0142 76.176C66.9892 76.176 67.8082 76.683 68.1592 77.45L68.8612 77.047C68.3932 76.02 67.3012 75.344 66.0142 75.344C64.0512 75.344 62.5952 76.826 62.5952 78.75C62.5952 80.674 64.0512 82.156 66.0142 82.156ZM75.41 82L71.926 78.62L75.28 75.5H74.11L71.016 78.373V72.9H70.158V82H71.016V78.867L74.266 82H75.41ZM77.1669 82.13C77.5699 82.13 77.8819 81.818 77.8819 81.415C77.8819 81.012 77.5699 80.7 77.1669 80.7C76.7639 80.7 76.4519 81.012 76.4519 81.415C76.4519 81.818 76.7639 82.13 77.1669 82.13ZM88.678 72.9H82.178V73.758H84.973V82H85.883V73.758H88.678V72.9ZM92.8905 75.344C91.9675 75.344 91.2135 75.695 90.7065 76.514V72.9H89.8485V82H90.7065V78.594C90.7065 76.852 91.6685 76.176 92.8125 76.176C93.9435 76.176 94.5805 76.852 94.5805 78.009V82H95.4385V78.009C95.4385 76.384 94.4765 75.344 92.8905 75.344ZM97.5265 74.122C97.8775 74.122 98.1505 73.836 98.1505 73.498C98.1505 73.16 97.8775 72.874 97.5265 72.874C97.1755 72.874 96.9025 73.16 96.9025 73.498C96.9025 73.836 97.1755 74.122 97.5265 74.122ZM97.0975 82H97.9555V75.5H97.0975V82ZM100.452 77.203C100.452 76.501 101.141 76.176 101.817 76.176C102.441 76.176 103.104 76.423 103.377 77.086L104.092 76.67C103.715 75.864 102.883 75.344 101.817 75.344C100.517 75.344 99.5942 76.163 99.5942 77.203C99.5942 79.595 103.39 78.672 103.39 80.284C103.39 81.051 102.662 81.324 101.895 81.324C101.024 81.324 100.348 80.895 100.114 80.232L99.3862 80.661C99.7112 81.493 100.595 82.156 101.895 82.156C103.286 82.156 104.248 81.389 104.248 80.284C104.248 77.892 100.452 78.815 100.452 77.203ZM109.606 77.203C109.606 76.501 110.295 76.176 110.971 76.176C111.595 76.176 112.258 76.423 112.531 77.086L113.246 76.67C112.869 75.864 112.037 75.344 110.971 75.344C109.671 75.344 108.748 76.163 108.748 77.203C108.748 79.595 112.544 78.672 112.544 80.284C112.544 81.051 111.816 81.324 111.049 81.324C110.178 81.324 109.502 80.895 109.268 80.232L108.54 80.661C108.865 81.493 109.749 82.156 111.049 82.156C112.44 82.156 113.402 81.389 113.402 80.284C113.402 77.892 109.606 78.815 109.606 77.203ZM117.645 75.344C115.63 75.344 114.252 76.839 114.252 78.75C114.252 80.713 115.656 82.156 117.71 82.156C119.023 82.156 120.024 81.545 120.57 80.661L119.816 80.219C119.465 80.843 118.75 81.324 117.723 81.324C116.345 81.324 115.318 80.505 115.136 79.179H120.843C120.856 79.049 120.869 78.906 120.869 78.776C120.869 76.995 119.634 75.344 117.645 75.344ZM117.645 76.176C118.763 76.176 119.803 76.917 119.985 78.347H115.136C115.305 77.073 116.28 76.176 117.645 76.176ZM125.489 76.332V75.5H123.617V73.68L122.759 73.94V75.5H121.394V76.332H122.759V80.271C122.759 81.831 123.734 82.26 125.489 82V81.246C124.228 81.298 123.617 81.389 123.617 80.271V76.332H125.489ZM129.97 76.332V75.5H128.098V73.68L127.24 73.94V75.5H125.875V76.332H127.24V80.271C127.24 81.831 128.215 82.26 129.97 82V81.246C128.709 81.298 128.098 81.389 128.098 80.271V76.332H129.97ZM131.829 74.122C132.18 74.122 132.453 73.836 132.453 73.498C132.453 73.16 132.18 72.874 131.829 72.874C131.478 72.874 131.205 73.16 131.205 73.498C131.205 73.836 131.478 74.122 131.829 74.122ZM131.4 82H132.258V75.5H131.4V82ZM137.121 75.344C136.198 75.344 135.444 75.695 134.937 76.514V75.5H134.079V82H134.937V78.594C134.937 76.852 135.899 76.176 137.043 76.176C138.174 76.176 138.811 76.852 138.811 78.009V82H139.669V78.009C139.669 76.384 138.707 75.344 137.121 75.344ZM146.918 75.5V76.774C146.372 75.903 145.449 75.344 144.292 75.344C142.459 75.344 140.938 76.826 140.938 78.75C140.938 80.674 142.459 82.156 144.292 82.156C145.449 82.156 146.372 81.597 146.918 80.726V81.74C146.918 83.066 146.021 83.924 144.513 83.924C143.109 83.924 142.511 83.404 142.186 82.741L141.432 83.17C141.939 84.184 143.018 84.756 144.513 84.756C146.19 84.756 147.776 83.716 147.776 81.74V75.5H146.918ZM144.357 81.324C142.914 81.324 141.796 80.193 141.796 78.75C141.796 77.307 142.914 76.176 144.357 76.176C145.8 76.176 146.918 77.307 146.918 78.75C146.918 80.193 145.8 81.324 144.357 81.324ZM153.519 77.203C153.519 76.501 154.208 76.176 154.884 76.176C155.508 76.176 156.171 76.423 156.444 77.086L157.159 76.67C156.782 75.864 155.95 75.344 154.884 75.344C153.584 75.344 152.661 76.163 152.661 77.203C152.661 79.595 156.457 78.672 156.457 80.284C156.457 81.051 155.729 81.324 154.962 81.324C154.091 81.324 153.415 80.895 153.181 80.232L152.453 80.661C152.778 81.493 153.662 82.156 154.962 82.156C156.353 82.156 157.315 81.389 157.315 80.284C157.315 77.892 153.519 78.815 153.519 77.203ZM161.559 75.344C159.544 75.344 158.166 76.839 158.166 78.75C158.166 80.713 159.57 82.156 161.624 82.156C162.937 82.156 163.938 81.545 164.484 80.661L163.73 80.219C163.379 80.843 162.664 81.324 161.637 81.324C160.259 81.324 159.232 80.505 159.05 79.179H164.757C164.77 79.049 164.783 78.906 164.783 78.776C164.783 76.995 163.548 75.344 161.559 75.344ZM161.559 76.176C162.677 76.176 163.717 76.917 163.899 78.347H159.05C159.219 77.073 160.194 76.176 161.559 76.176ZM169.402 76.332V75.5H167.53V73.68L166.672 73.94V75.5H165.307V76.332H166.672V80.271C166.672 81.831 167.647 82.26 169.402 82V81.246C168.141 81.298 167.53 81.389 167.53 80.271V76.332H169.402ZM171.114 77.203C171.114 76.501 171.803 76.176 172.479 76.176C173.103 76.176 173.766 76.423 174.039 77.086L174.754 76.67C174.377 75.864 173.545 75.344 172.479 75.344C171.179 75.344 170.256 76.163 170.256 77.203C170.256 79.595 174.052 78.672 174.052 80.284C174.052 81.051 173.324 81.324 172.557 81.324C171.686 81.324 171.01 80.895 170.776 80.232L170.048 80.661C170.373 81.493 171.257 82.156 172.557 82.156C173.948 82.156 174.91 81.389 174.91 80.284C174.91 77.892 171.114 78.815 171.114 77.203ZM183.037 76.332V75.5H181.165V73.68L180.307 73.94V75.5H178.942V76.332H180.307V80.271C180.307 81.831 181.282 82.26 183.037 82V81.246C181.776 81.298 181.165 81.389 181.165 80.271V76.332H183.037ZM187.509 75.344C186.586 75.344 185.832 75.695 185.325 76.514V72.9H184.467V82H185.325V78.594C185.325 76.852 186.287 76.176 187.431 76.176C188.562 76.176 189.199 76.852 189.199 78.009V82H190.057V78.009C190.057 76.384 189.095 75.344 187.509 75.344ZM194.719 75.344C192.704 75.344 191.326 76.839 191.326 78.75C191.326 80.713 192.73 82.156 194.784 82.156C196.097 82.156 197.098 81.545 197.644 80.661L196.89 80.219C196.539 80.843 195.824 81.324 194.797 81.324C193.419 81.324 192.392 80.505 192.21 79.179H197.917C197.93 79.049 197.943 78.906 197.943 78.776C197.943 76.995 196.708 75.344 194.719 75.344ZM194.719 76.176C195.837 76.176 196.877 76.917 197.059 78.347H192.21C192.379 77.073 193.354 76.176 194.719 76.176ZM209.486 75.344C208.654 75.344 207.861 75.721 207.38 76.527C207.016 75.773 206.314 75.344 205.404 75.344C204.624 75.344 203.922 75.656 203.415 76.449V75.5H202.557V82H203.415V78.399C203.415 76.787 204.351 76.176 205.287 76.176C206.21 76.176 206.808 76.787 206.808 77.944V82H207.666V78.399C207.666 76.787 208.472 76.176 209.473 76.176C210.396 76.176 211.059 76.787 211.059 77.944V82H211.917V77.944C211.917 76.319 210.916 75.344 209.486 75.344ZM219.167 75.5V76.774C218.621 75.903 217.698 75.344 216.541 75.344C214.708 75.344 213.187 76.826 213.187 78.75C213.187 80.674 214.708 82.156 216.541 82.156C217.698 82.156 218.621 81.597 219.167 80.726V82H220.025V75.5H219.167ZM216.606 81.324C215.163 81.324 214.045 80.193 214.045 78.75C214.045 77.307 215.163 76.176 216.606 76.176C218.049 76.176 219.167 77.307 219.167 78.75C219.167 80.193 218.049 81.324 216.606 81.324ZM227.302 82L224.767 78.633L227.133 75.5H226.106L224.247 77.957L222.388 75.5H221.361L223.74 78.633L221.192 82H222.219L224.247 79.322L226.275 82H227.302ZM234.748 82.156C236.022 82.156 237.127 81.493 237.66 80.466L236.945 80.05C236.529 80.804 235.736 81.324 234.748 81.324C233.305 81.324 232.187 80.193 232.187 78.75C232.187 77.307 233.305 76.176 234.748 76.176C235.723 76.176 236.542 76.683 236.893 77.45L237.595 77.047C237.127 76.02 236.035 75.344 234.748 75.344C232.785 75.344 231.329 76.826 231.329 78.75C231.329 80.674 232.785 82.156 234.748 82.156ZM241.857 82.156C243.755 82.156 245.276 80.674 245.276 78.75C245.276 76.826 243.755 75.344 241.857 75.344C239.959 75.344 238.438 76.826 238.438 78.75C238.438 80.674 239.959 82.156 241.857 82.156ZM241.857 81.324C240.414 81.324 239.296 80.193 239.296 78.75C239.296 77.307 240.414 76.176 241.857 76.176C243.3 76.176 244.418 77.307 244.418 78.75C244.418 80.193 243.3 81.324 241.857 81.324ZM249.754 75.344C248.831 75.344 248.077 75.695 247.57 76.514V72.9H246.712V82H247.57V78.594C247.57 76.852 248.532 76.176 249.676 76.176C250.807 76.176 251.444 76.852 251.444 78.009V82H252.302V78.009C252.302 76.384 251.34 75.344 249.754 75.344ZM256.99 82.156C258.888 82.156 260.409 80.674 260.409 78.75C260.409 76.826 258.888 75.344 256.99 75.344C255.092 75.344 253.571 76.826 253.571 78.75C253.571 80.674 255.092 82.156 256.99 82.156ZM256.99 81.324C255.547 81.324 254.429 80.193 254.429 78.75C254.429 77.307 255.547 76.176 256.99 76.176C258.433 76.176 259.551 77.307 259.551 78.75C259.551 80.193 258.433 81.324 256.99 81.324ZM262.703 76.579V75.5H261.845V82H262.703V78.386C262.703 76.774 263.717 76.228 264.757 76.228V75.396C263.925 75.396 263.158 75.669 262.703 76.579ZM269.504 76.332V75.5H267.632V73.68L266.774 73.94V75.5H265.409V76.332H266.774V80.271C266.774 81.831 267.749 82.26 269.504 82V81.246C268.243 81.298 267.632 81.389 267.632 80.271V76.332H269.504ZM279.774 75.5V76.774C279.228 75.903 278.305 75.344 277.148 75.344C275.315 75.344 273.794 76.826 273.794 78.75C273.794 80.674 275.315 82.156 277.148 82.156C278.305 82.156 279.228 81.597 279.774 80.726V82H280.632V75.5H279.774ZM277.213 81.324C275.77 81.324 274.652 80.193 274.652 78.75C274.652 77.307 275.77 76.176 277.213 76.176C278.656 76.176 279.774 77.307 279.774 78.75C279.774 80.193 278.656 81.324 277.213 81.324ZM285.491 75.344C284.568 75.344 283.814 75.695 283.307 76.514V75.5H282.449V82H283.307V78.594C283.307 76.852 284.269 76.176 285.413 76.176C286.544 76.176 287.181 76.852 287.181 78.009V82H288.039V78.009C288.039 76.384 287.077 75.344 285.491 75.344ZM295.288 72.9V76.774C294.742 75.903 293.819 75.344 292.662 75.344C290.829 75.344 289.308 76.826 289.308 78.75C289.308 80.674 290.829 82.156 292.662 82.156C293.819 82.156 294.742 81.597 295.288 80.726V82H296.146V72.9H295.288ZM292.727 81.324C291.284 81.324 290.166 80.193 290.166 78.75C290.166 77.307 291.284 76.176 292.727 76.176C294.17 76.176 295.288 77.307 295.288 78.75C295.288 80.193 294.17 81.324 292.727 81.324ZM302.071 76.579V75.5H301.213V82H302.071V78.386C302.071 76.774 303.085 76.228 304.125 76.228V75.396C303.293 75.396 302.526 75.669 302.071 76.579ZM307.91 75.344C305.895 75.344 304.517 76.839 304.517 78.75C304.517 80.713 305.921 82.156 307.975 82.156C309.288 82.156 310.289 81.545 310.835 80.661L310.081 80.219C309.73 80.843 309.015 81.324 307.988 81.324C306.61 81.324 305.583 80.505 305.401 79.179H311.108C311.121 79.049 311.134 78.906 311.134 78.776C311.134 76.995 309.899 75.344 307.91 75.344ZM307.91 76.176C309.028 76.176 310.068 76.917 310.25 78.347H305.401C305.57 77.073 306.545 76.176 307.91 76.176ZM315.753 76.332V75.5H313.881V73.68L313.023 73.94V75.5H311.658V76.332H313.023V80.271C313.023 81.831 313.998 82.26 315.753 82V81.246C314.492 81.298 313.881 81.389 313.881 80.271V76.332H315.753ZM319.793 75.344C317.778 75.344 316.4 76.839 316.4 78.75C316.4 80.713 317.804 82.156 319.858 82.156C321.171 82.156 322.172 81.545 322.718 80.661L321.964 80.219C321.613 80.843 320.898 81.324 319.871 81.324C318.493 81.324 317.466 80.505 317.284 79.179H322.991C323.004 79.049 323.017 78.906 323.017 78.776C323.017 76.995 321.782 75.344 319.793 75.344ZM319.793 76.176C320.911 76.176 321.951 76.917 322.133 78.347H317.284C317.453 77.073 318.428 76.176 319.793 76.176ZM327.424 75.344C326.501 75.344 325.747 75.695 325.24 76.514V75.5H324.382V82H325.24V78.594C325.24 76.852 326.202 76.176 327.346 76.176C328.477 76.176 329.114 76.852 329.114 78.009V82H329.972V78.009C329.972 76.384 329.01 75.344 327.424 75.344ZM335.076 76.332V75.5H333.204V73.68L332.346 73.94V75.5H330.981V76.332H332.346V80.271C332.346 81.831 333.321 82.26 335.076 82V81.246C333.815 81.298 333.204 81.389 333.204 80.271V76.332H335.076ZM336.935 74.122C337.286 74.122 337.559 73.836 337.559 73.498C337.559 73.16 337.286 72.874 336.935 72.874C336.584 72.874 336.311 73.16 336.311 73.498C336.311 73.836 336.584 74.122 336.935 74.122ZM336.506 82H337.364V75.5H336.506V82ZM342.213 82.156C344.111 82.156 345.632 80.674 345.632 78.75C345.632 76.826 344.111 75.344 342.213 75.344C340.315 75.344 338.794 76.826 338.794 78.75C338.794 80.674 340.315 82.156 342.213 82.156ZM342.213 81.324C340.77 81.324 339.652 80.193 339.652 78.75C339.652 77.307 340.77 76.176 342.213 76.176C343.656 76.176 344.774 77.307 344.774 78.75C344.774 80.193 343.656 81.324 342.213 81.324ZM350.11 75.344C349.187 75.344 348.433 75.695 347.926 76.514V75.5H347.068V82H347.926V78.594C347.926 76.852 348.888 76.176 350.032 76.176C351.163 76.176 351.8 76.852 351.8 78.009V82H352.658V78.009C352.658 76.384 351.696 75.344 350.11 75.344ZM361.051 75.344C359.894 75.344 358.971 75.903 358.425 76.774V75.5H357.567V84.6H358.425V80.726C358.971 81.597 359.894 82.156 361.051 82.156C362.884 82.156 364.405 80.674 364.405 78.75C364.405 76.826 362.884 75.344 361.051 75.344ZM360.986 81.324C359.543 81.324 358.425 80.193 358.425 78.75C358.425 77.307 359.543 76.176 360.986 76.176C362.429 76.176 363.547 77.307 363.547 78.75C363.547 80.193 362.429 81.324 360.986 81.324ZM368.835 75.344C366.82 75.344 365.442 76.839 365.442 78.75C365.442 80.713 366.846 82.156 368.9 82.156C370.213 82.156 371.214 81.545 371.76 80.661L371.006 80.219C370.655 80.843 369.94 81.324 368.913 81.324C367.535 81.324 366.508 80.505 366.326 79.179H372.033C372.046 79.049 372.059 78.906 372.059 78.776C372.059 76.995 370.824 75.344 368.835 75.344ZM368.835 76.176C369.953 76.176 370.993 76.917 371.175 78.347H366.326C366.495 77.073 367.47 76.176 368.835 76.176ZM374.282 76.579V75.5H373.424V82H374.282V78.386C374.282 76.774 375.296 76.228 376.336 76.228V75.396C375.504 75.396 374.737 75.669 374.282 76.579ZM377.941 74.122C378.292 74.122 378.565 73.836 378.565 73.498C378.565 73.16 378.292 72.874 377.941 72.874C377.59 72.874 377.317 73.16 377.317 73.498C377.317 73.836 377.59 74.122 377.941 74.122ZM377.512 82H378.37V75.5H377.512V82ZM383.219 82.156C385.117 82.156 386.638 80.674 386.638 78.75C386.638 76.826 385.117 75.344 383.219 75.344C381.321 75.344 379.8 76.826 379.8 78.75C379.8 80.674 381.321 82.156 383.219 82.156ZM383.219 81.324C381.776 81.324 380.658 80.193 380.658 78.75C380.658 77.307 381.776 76.176 383.219 76.176C384.662 76.176 385.78 77.307 385.78 78.75C385.78 80.193 384.662 81.324 383.219 81.324ZM393.664 72.9V76.774C393.118 75.903 392.195 75.344 391.038 75.344C389.205 75.344 387.684 76.826 387.684 78.75C387.684 80.674 389.205 82.156 391.038 82.156C392.195 82.156 393.118 81.597 393.664 80.726V82H394.522V72.9H393.664ZM391.103 81.324C389.66 81.324 388.542 80.193 388.542 78.75C388.542 77.307 389.66 76.176 391.103 76.176C392.546 76.176 393.664 77.307 393.664 78.75C393.664 80.193 392.546 81.324 391.103 81.324ZM397.015 77.203C397.015 76.501 397.704 76.176 398.38 76.176C399.004 76.176 399.667 76.423 399.94 77.086L400.655 76.67C400.278 75.864 399.446 75.344 398.38 75.344C397.08 75.344 396.157 76.163 396.157 77.203C396.157 79.595 399.953 78.672 399.953 80.284C399.953 81.051 399.225 81.324 398.458 81.324C397.587 81.324 396.911 80.895 396.677 80.232L395.949 80.661C396.274 81.493 397.158 82.156 398.458 82.156C399.849 82.156 400.811 81.389 400.811 80.284C400.811 77.892 397.015 78.815 397.015 77.203ZM402.7 82.13C403.103 82.13 403.415 81.818 403.415 81.415C403.415 81.012 403.103 80.7 402.7 80.7C402.297 80.7 401.985 81.012 401.985 81.415C401.985 81.818 402.297 82.13 402.7 82.13Z" fill="#4C5363"/>
<path d="M48.9497 126.841H47.3507L44.5947 131.391L41.8517 126.841H40.2397V135.941H41.7347V129.441L44.5037 134.03H44.6857L47.4547 129.454V135.941H48.9497V126.841ZM51.7781 133.289H56.9521C56.9781 133.107 57.0041 132.899 57.0041 132.704C57.0041 130.832 55.6781 129.272 53.7411 129.272C51.7001 129.272 50.3091 130.767 50.3091 132.691C50.3091 134.641 51.7001 136.11 53.8451 136.11C55.1191 136.11 56.0941 135.577 56.6921 134.693L55.5351 134.017C55.2231 134.472 54.6381 134.823 53.8581 134.823C52.8181 134.823 51.9991 134.303 51.7781 133.289ZM51.7651 132.145C51.9601 131.17 52.6751 130.546 53.7281 130.546C54.5731 130.546 55.3921 131.027 55.5871 132.145H51.7651ZM63.3494 129.441V130.364C62.8554 129.688 62.0884 129.272 61.0744 129.272C59.3064 129.272 57.8374 130.754 57.8374 132.691C57.8374 134.615 59.3064 136.11 61.0744 136.11C62.0884 136.11 62.8554 135.694 63.3494 135.005V135.941H64.7534V129.441H63.3494ZM61.2954 134.771C60.1254 134.771 59.2414 133.9 59.2414 132.691C59.2414 131.482 60.1254 130.611 61.2954 130.611C62.4654 130.611 63.3494 131.482 63.3494 132.691C63.3494 133.9 62.4654 134.771 61.2954 134.771ZM67.6128 131.235C67.6128 130.767 68.0548 130.546 68.5618 130.546C69.0948 130.546 69.5498 130.78 69.7838 131.287L70.9668 130.624C70.5118 129.766 69.6278 129.272 68.5618 129.272C67.2358 129.272 66.1828 130.039 66.1828 131.261C66.1828 133.588 69.6798 132.938 69.6798 134.095C69.6798 134.615 69.1988 134.823 68.5748 134.823C67.8598 134.823 67.3398 134.472 67.1318 133.887L65.9228 134.589C66.3388 135.525 67.2748 136.11 68.5748 136.11C69.9788 136.11 71.1098 135.408 71.1098 134.108C71.1098 131.703 67.6128 132.418 67.6128 131.235ZM76.6489 129.441V132.925C76.6489 134.251 75.9209 134.797 74.9979 134.797C74.1139 134.797 73.5419 134.277 73.5419 133.289V129.441H72.1379V133.432C72.1379 135.122 73.1779 136.11 74.6339 136.11C75.5179 136.11 76.2199 135.785 76.6489 135.109V135.941H78.0529V129.441H76.6489ZM81.0986 130.533V129.441H79.6946V135.941H81.0986V132.665C81.0986 131.209 82.1776 130.78 83.1006 130.845V129.324C82.2816 129.324 81.4886 129.649 81.0986 130.533ZM84.9383 133.289H90.1123C90.1383 133.107 90.1643 132.899 90.1643 132.704C90.1643 130.832 88.8383 129.272 86.9013 129.272C84.8603 129.272 83.4693 130.767 83.4693 132.691C83.4693 134.641 84.8603 136.11 87.0053 136.11C88.2793 136.11 89.2543 135.577 89.8523 134.693L88.6953 134.017C88.3833 134.472 87.7983 134.823 87.0183 134.823C85.9783 134.823 85.1593 134.303 84.9383 133.289ZM84.9253 132.145C85.1203 131.17 85.8353 130.546 86.8883 130.546C87.7333 130.546 88.5523 131.027 88.7473 132.145H84.9253ZM98.4977 129.272C97.6267 129.272 96.9377 129.623 96.5087 130.299C96.1317 129.649 95.5077 129.272 94.6627 129.272C93.8567 129.272 93.2197 129.584 92.8037 130.221V129.441H91.3997V135.941H92.8037V132.301C92.8037 131.118 93.4537 130.585 94.2467 130.585C95.0137 130.585 95.4687 131.092 95.4687 132.002V135.941H96.8727V132.301C96.8727 131.118 97.4577 130.585 98.2897 130.585C99.0567 130.585 99.5507 131.092 99.5507 132.002V135.941H100.955V131.911C100.955 130.286 99.9667 129.272 98.4977 129.272ZM103.562 133.289H108.736C108.762 133.107 108.788 132.899 108.788 132.704C108.788 130.832 107.462 129.272 105.525 129.272C103.484 129.272 102.093 130.767 102.093 132.691C102.093 134.641 103.484 136.11 105.629 136.11C106.903 136.11 107.878 135.577 108.476 134.693L107.319 134.017C107.007 134.472 106.422 134.823 105.642 134.823C104.602 134.823 103.783 134.303 103.562 133.289ZM103.549 132.145C103.744 131.17 104.459 130.546 105.512 130.546C106.357 130.546 107.176 131.027 107.371 132.145H103.549ZM113.443 129.272C112.559 129.272 111.857 129.597 111.428 130.273V129.441H110.024V135.941H111.428V132.457C111.428 131.131 112.156 130.585 113.079 130.585C113.963 130.585 114.535 131.105 114.535 132.093V135.941H115.939V131.95C115.939 130.26 114.899 129.272 113.443 129.272ZM121.077 130.793V129.441H119.465V127.621L118.061 128.037V129.441H116.865V130.793H118.061V133.913C118.061 135.603 118.919 136.201 121.077 135.941V134.68C120.011 134.732 119.465 134.745 119.465 133.913V130.793H121.077ZM129.109 126.841H125.755V135.941H127.25V132.821H129.109C130.825 132.821 132.125 131.508 132.125 129.831C132.125 128.141 130.825 126.841 129.109 126.841ZM129.109 131.417H127.25V128.245H129.109C129.993 128.245 130.63 128.908 130.63 129.831C130.63 130.741 129.993 131.417 129.109 131.417ZM133.98 133.289H139.154C139.18 133.107 139.206 132.899 139.206 132.704C139.206 130.832 137.88 129.272 135.943 129.272C133.902 129.272 132.511 130.767 132.511 132.691C132.511 134.641 133.902 136.11 136.047 136.11C137.321 136.11 138.296 135.577 138.894 134.693L137.737 134.017C137.425 134.472 136.84 134.823 136.06 134.823C135.02 134.823 134.201 134.303 133.98 133.289ZM133.967 132.145C134.162 131.17 134.877 130.546 135.93 130.546C136.775 130.546 137.594 131.027 137.789 132.145H133.967ZM141.846 130.533V129.441H140.442V135.941H141.846V132.665C141.846 131.209 142.925 130.78 143.848 130.845V129.324C143.029 129.324 142.236 129.649 141.846 130.533ZM145.587 128.466C146.081 128.466 146.484 128.05 146.484 127.569C146.484 127.075 146.081 126.672 145.587 126.672C145.093 126.672 144.69 127.075 144.69 127.569C144.69 128.05 145.093 128.466 145.587 128.466ZM144.885 135.941H146.289V129.441H144.885V135.941ZM150.987 136.11C152.898 136.11 154.419 134.615 154.419 132.691C154.419 130.754 152.898 129.272 150.987 129.272C149.089 129.272 147.555 130.754 147.555 132.691C147.555 134.615 149.089 136.11 150.987 136.11ZM150.987 134.745C149.843 134.745 148.959 133.874 148.959 132.691C148.959 131.508 149.843 130.637 150.987 130.637C152.131 130.637 153.015 131.508 153.015 132.691C153.015 133.874 152.131 134.745 150.987 134.745ZM160.837 126.841V130.364C160.343 129.688 159.576 129.272 158.562 129.272C156.794 129.272 155.325 130.754 155.325 132.691C155.325 134.615 156.794 136.11 158.562 136.11C159.576 136.11 160.343 135.694 160.837 135.005V135.941H162.241V126.841H160.837ZM158.783 134.771C157.613 134.771 156.729 133.9 156.729 132.691C156.729 131.482 157.613 130.611 158.783 130.611C159.953 130.611 160.837 131.482 160.837 132.691C160.837 133.9 159.953 134.771 158.783 134.771Z" fill="#4C5363"/>
<path d="M176.839 176.557L178.543 174.301V173.125H173.383V174.421H176.899L175.087 176.809L175.639 177.637H175.951C176.899 177.637 177.511 178.141 177.511 178.981C177.511 179.821 176.899 180.337 175.951 180.337C175.111 180.337 174.547 179.965 174.307 179.257L173.131 179.941C173.599 181.117 174.715 181.681 175.951 181.681C177.499 181.681 178.891 180.745 178.891 178.981C178.891 177.673 177.991 176.833 176.839 176.557ZM186.452 173.125H183.152V181.525H186.452C188.768 181.525 190.472 179.665 190.472 177.325C190.472 174.973 188.768 173.125 186.452 173.125ZM186.452 180.205H184.532V174.445H186.452C188.048 174.445 189.14 175.657 189.14 177.325C189.14 178.981 188.048 180.205 186.452 180.205ZM196.398 175.525V176.377C195.942 175.753 195.234 175.369 194.298 175.369C192.666 175.369 191.31 176.737 191.31 178.525C191.31 180.301 192.666 181.681 194.298 181.681C195.234 181.681 195.942 181.297 196.398 180.661V181.525H197.694V175.525H196.398ZM194.502 180.445C193.422 180.445 192.606 179.641 192.606 178.525C192.606 177.409 193.422 176.605 194.502 176.605C195.582 176.605 196.398 177.409 196.398 178.525C196.398 179.641 195.582 180.445 194.502 180.445ZM203.248 175.525L201.712 179.881L199.924 175.525H198.508L201.052 181.417L200.992 181.537C200.692 182.329 200.236 182.761 199.396 182.713V183.925C200.776 184.009 201.76 183.241 202.324 181.717L204.628 175.525H203.248ZM206.239 177.181C206.239 176.749 206.647 176.545 207.115 176.545C207.607 176.545 208.027 176.761 208.243 177.229L209.335 176.617C208.915 175.825 208.099 175.369 207.115 175.369C205.891 175.369 204.919 176.077 204.919 177.205C204.919 179.353 208.147 178.753 208.147 179.821C208.147 180.301 207.703 180.493 207.127 180.493C206.467 180.493 205.987 180.169 205.795 179.629L204.679 180.277C205.063 181.141 205.927 181.681 207.127 181.681C208.423 181.681 209.467 181.033 209.467 179.833C209.467 177.613 206.239 178.273 206.239 177.181Z" fill="#4C5363"/>
<path d="M42.7791 173.125L40.5711 173.905L40.9071 175.081L42.5991 174.601V181.525H43.9791V173.125H42.7791ZM52.0199 173.125H48.7199V181.525H52.0199C54.3359 181.525 56.0399 179.665 56.0399 177.325C56.0399 174.973 54.3359 173.125 52.0199 173.125ZM52.0199 180.205H50.0999V174.445H52.0199C53.6159 174.445 54.7079 175.657 54.7079 177.325C54.7079 178.981 53.6159 180.205 52.0199 180.205ZM61.9661 175.525V176.377C61.5101 175.753 60.8021 175.369 59.8661 175.369C58.2341 175.369 56.8781 176.737 56.8781 178.525C56.8781 180.301 58.2341 181.681 59.8661 181.681C60.8021 181.681 61.5101 181.297 61.9661 180.661V181.525H63.2621V175.525H61.9661ZM60.0701 180.445C58.9901 180.445 58.1741 179.641 58.1741 178.525C58.1741 177.409 58.9901 176.605 60.0701 176.605C61.1501 176.605 61.9661 177.409 61.9661 178.525C61.9661 179.641 61.1501 180.445 60.0701 180.445ZM68.8167 175.525L67.2807 179.881L65.4927 175.525H64.0767L66.6207 181.417L66.5607 181.537C66.2607 182.329 65.8047 182.761 64.9647 182.713V183.925C66.3447 184.009 67.3287 183.241 67.8927 181.717L70.1967 175.525H68.8167Z" fill="#4C5363"/>
<path d="M355.354 173.125V174.445H359.194L356.29 181.525H357.742L360.694 174.325V173.125H355.354ZM368.197 173.125H364.897V181.525H368.197C370.513 181.525 372.217 179.665 372.217 177.325C372.217 174.973 370.513 173.125 368.197 173.125ZM368.197 180.205H366.277V174.445H368.197C369.793 174.445 370.885 175.657 370.885 177.325C370.885 178.981 369.793 180.205 368.197 180.205ZM378.143 175.525V176.377C377.687 175.753 376.979 175.369 376.043 175.369C374.411 175.369 373.055 176.737 373.055 178.525C373.055 180.301 374.411 181.681 376.043 181.681C376.979 181.681 377.687 181.297 378.143 180.661V181.525H379.439V175.525H378.143ZM376.247 180.445C375.167 180.445 374.351 179.641 374.351 178.525C374.351 177.409 375.167 176.605 376.247 176.605C377.327 176.605 378.143 177.409 378.143 178.525C378.143 179.641 377.327 180.445 376.247 180.445ZM384.994 175.525L383.458 179.881L381.67 175.525H380.254L382.798 181.417L382.738 181.537C382.438 182.329 381.982 182.761 381.142 182.713V183.925C382.522 184.009 383.506 183.241 384.07 181.717L386.374 175.525H384.994ZM387.985 177.181C387.985 176.749 388.393 176.545 388.861 176.545C389.353 176.545 389.773 176.761 389.989 177.229L391.081 176.617C390.661 175.825 389.845 175.369 388.861 175.369C387.637 175.369 386.665 176.077 386.665 177.205C386.665 179.353 389.893 178.753 389.893 179.821C389.893 180.301 389.449 180.493 388.873 180.493C388.213 180.493 387.733 180.169 387.541 179.629L386.425 180.277C386.809 181.141 387.673 181.681 388.873 181.681C390.169 181.681 391.213 181.033 391.213 179.833C391.213 177.613 387.985 178.273 387.985 177.181Z" fill="#4C5363"/>
<path d="M56.6957 159.924H372.54V161.009H56.6957V159.924Z" fill="#E4E8ED"/>
<path d="M56.6957 159.924H198.88V161.009H56.6957V159.924Z" fill="#4C4FEE"/>
<circle cx="59.4091" cy="160.465" r="2.71344" fill="#4C4FEE"/>
<circle cx="192.91" cy="160.466" r="5.96957" fill="#4C4FEE"/>
<circle cx="374.168" cy="160.465" r="2.71344" fill="#CBD0DB"/>
</g>
<defs>
<clipPath id="clip0_1116_1660">
<rect width="627" height="400" fill="white"/>
</clipPath>
</defs>
</svg>
