<svg width="95" height="32" viewBox="0 0 95 32" fill="none" xmlns="http://www.w3.org/2000/svg">
<path d="M10.978 16.3354C11.6239 16.3354 12.1475 15.8118 12.1475 15.1659C12.1475 14.5201 11.6239 13.9965 10.978 13.9965C10.3322 13.9965 9.80859 14.5201 9.80859 15.1659C9.80859 15.8118 10.3322 16.3354 10.978 16.3354Z" fill="#2C3543"/>
<path d="M18.0075 16.3354C18.6533 16.3354 19.1769 15.8118 19.1769 15.1659C19.1769 14.5201 18.6533 13.9965 18.0075 13.9965C17.3616 13.9965 16.838 14.5201 16.838 15.1659C16.838 15.8118 17.3616 16.3354 18.0075 16.3354Z" fill="#2C3543"/>
<path d="M94.009 16.0463C92.9276 6.70329 88.6144 -0.351148 79.5354 0.0135204C57.9194 0.654833 36.3034 0.654833 14.7 0.0135204C5.62098 -0.351148 1.30783 6.70329 0.226404 16.0463C-0.289161 20.6613 5.87619e-05 24.7984 1.88627 27.5648C3.72219 30.3564 7.1551 31.7522 11.9964 31.375C35.398 29.5894 58.85 29.5894 82.2516 31.375C87.1054 31.7522 90.5258 30.3564 92.3617 27.5648C94.2353 24.7984 94.5246 20.6613 94.009 16.0463ZM42.7417 6.23803C44.062 6.23803 45.1435 7.30688 45.1435 8.63981C45.1435 9.96016 44.0746 11.0416 42.7417 11.0416C41.4213 11.0416 40.3399 9.97273 40.3399 8.63981C40.3525 7.31946 41.4213 6.23803 42.7417 6.23803ZM43.6848 18.0332C42.7543 18.0332 41.8237 18.0332 40.8932 18.0332C41.1824 16.1092 41.4968 14.1853 41.786 12.2488C42.0501 12.3116 42.3393 12.3494 42.6285 12.3494C42.9177 12.3494 43.2069 12.3242 43.4836 12.2613C43.5716 14.1853 43.6345 16.1092 43.6848 18.0332ZM24.1939 10.5134C24.9735 9.78411 26.0424 9.75896 26.6334 10.4631C27.2747 11.2176 27.9538 11.9847 28.6328 12.7518C27.3502 13.0913 26.3316 14.0973 25.9795 15.3799C25.2628 14.6002 24.5586 13.8332 23.867 13.0661C23.2634 12.3745 23.4268 11.2428 24.1939 10.5134ZM21.6035 15.5434C21.5784 16.8889 20.2454 18.0835 18.749 18.1463C16.1964 18.2218 13.6311 18.2218 11.0784 18.1715C11.0407 18.9134 11.6317 19.5547 12.3988 19.5799C14.5994 19.6302 16.7874 19.605 18.988 19.4793C18.988 19.4793 19.4155 19.4541 19.843 19.429C20.3586 19.4038 20.7358 19.7936 20.6604 20.2715C20.3963 21.7176 18.9502 23.1134 17.5041 23.2517C15.7562 23.4026 14.0083 23.4152 12.2479 23.302C9.68263 23.0756 7.21797 20.5355 7.306 17.9703C7.38145 16.3607 7.59522 14.7386 7.90959 13.1038C8.2994 11.3057 10.1479 9.53262 11.8455 9.36914C13.9077 9.2434 15.9952 9.33142 18.0826 9.59549C19.7676 9.83441 21.4149 11.5446 21.5532 13.2547C21.6287 14.4242 21.6035 15.5056 21.6035 15.5434ZM25.9166 22.5601C25.2376 23.2643 24.1688 23.214 23.4771 22.4846C22.773 21.7553 22.7478 20.6361 23.452 19.9571C24.2694 19.1649 25.1244 18.3475 25.9921 17.5176C26.2687 18.7625 27.1993 19.7433 28.3939 20.0828C27.5388 20.9128 26.7089 21.7427 25.9166 22.5601ZM29.425 18.9888C29.4124 18.7499 26.9981 17.6811 27.1238 16.1469C27.3627 14.4745 29.1106 13.9841 29.6262 15.5182C30.2927 14.0344 32.0406 14.4745 32.0657 16.1344C31.9777 17.6811 29.4502 18.7499 29.425 18.9888ZM34.9956 22.1325C34.2286 22.8744 33.1597 23.0002 32.5561 22.3589C31.8771 21.6421 31.1603 20.8876 30.431 20.1206C31.7388 19.8439 32.795 18.8882 33.2226 17.6433C33.9268 18.3727 34.631 19.0769 35.2974 19.7433C35.9262 20.3595 35.7627 21.3906 34.9956 22.1325ZM35.725 13.3176C34.9453 13.9967 34.128 14.7134 33.298 15.4553C32.9837 14.2607 32.0909 13.2925 30.9466 12.8649C31.7388 12.123 32.5184 11.4188 33.2729 10.7398C33.9519 10.1236 35.0208 10.262 35.7124 10.9787C36.404 11.6955 36.4291 12.714 35.725 13.3176ZM47.1051 21.0385C46.9794 21.9816 46.0866 22.8493 45.1435 22.9122C43.1189 23.0505 41.107 23.0379 39.0824 22.8996C38.1393 22.8241 37.3471 21.9691 37.3471 21.0385C37.3471 20.0954 38.177 19.3535 39.1704 19.3787C41.283 19.429 43.383 19.4164 45.4956 19.3787C46.489 19.3535 47.2309 20.0828 47.1051 21.0385ZM58.435 14.5248C59.4284 14.5499 60.1955 15.3422 60.1326 16.2853C60.0697 17.2284 59.1895 18.0332 58.2086 18.0583C56.1338 18.096 54.059 18.1086 51.9716 18.0835C51.9338 18.8128 52.4997 19.4038 53.2165 19.4164C55.153 19.429 57.1021 19.4038 59.0386 19.3284C59.5038 19.3158 59.8434 19.6553 59.7931 20.108C59.617 21.5667 58.2715 22.887 56.838 22.9625C55.5554 23.0253 54.2853 23.0379 53.0027 23.0002C50.4877 22.8996 48.2997 20.5607 48.3878 18.0583C48.4506 16.4739 48.5764 14.8895 48.7398 13.2925C48.9536 11.4063 50.7392 9.65836 52.6003 9.58292C54.2853 9.52004 55.9703 9.54519 57.6428 9.65836C59.0763 9.75896 60.2961 11.0667 60.2835 12.5003C60.2835 12.9404 59.8937 13.2799 59.4284 13.2673C57.4919 13.1793 55.5428 13.1541 53.6063 13.1667C52.8895 13.1667 52.2482 13.7703 52.1979 14.4996C54.2727 14.4745 56.3476 14.4871 58.435 14.5248ZM73.6504 15.3422C73.5121 17.5302 73.3612 19.8313 73.2229 22.0571C73.2229 22.3463 73.072 22.975 72.3804 22.975C71.4121 22.9876 69.7648 22.12 69.7648 20.2589C69.8529 18.7625 69.9535 17.329 70.0415 15.8451C70.1295 14.3865 69.0229 13.1667 67.5643 13.1667C67.4008 13.1667 67.2499 13.1667 67.0864 13.1667C66.3571 13.1667 65.7283 13.7829 65.678 14.5122C65.5523 16.5871 65.3008 20.4978 65.2002 22.208C65.1751 22.6732 64.7727 23.0379 64.2948 23.0002C64.2823 23.0002 64.2697 23.0002 64.2571 23.0002C62.7733 22.8744 61.6415 21.5541 61.7421 20.1583C61.893 17.9074 62.0439 15.6314 62.1823 13.3428C62.308 11.4566 64.0056 9.65836 65.9924 9.57034C66.772 9.54519 67.5643 9.53262 68.3439 9.54519C71.4876 9.62064 73.8516 12.45 73.6504 15.3422ZM86.6025 21.8433C86.5522 22.296 86.1372 22.711 85.6971 22.7738C83.836 23.0128 81.9624 23.1008 80.1013 23.0505C77.536 22.9499 75.3858 20.4852 75.4612 17.9577C75.5241 16.3984 75.6121 14.8392 75.7253 13.2673C75.8133 12.1104 75.9139 10.9536 76.0271 9.79669C76.1151 8.90388 76.2157 8.02364 76.3163 7.13084C76.3666 6.67815 76.769 6.26318 77.2217 6.21288C78.6678 6.04941 79.7492 7.25658 79.6486 8.77813C79.6235 9.05478 79.6109 9.344 79.5857 9.62064C80.73 9.59549 81.8869 9.59549 83.0312 9.63321C84.5276 9.68351 85.6971 10.9661 85.6216 12.4248C85.6216 12.4248 85.6216 12.4248 85.6216 12.4374C85.5965 12.8901 85.1941 13.2422 84.7288 13.2422C83.3707 13.217 82.0127 13.217 80.642 13.217C79.9127 13.217 79.2839 13.808 79.2336 14.5374C79.1833 15.2919 79.1456 16.0589 79.0953 16.8134C79.0199 18.2595 80.1265 19.4793 81.56 19.4667C82.4276 19.4667 83.3079 19.4415 84.1755 19.4038C85.6971 19.3284 86.7911 20.3972 86.6025 21.8433Z" fill="#2C3543"/>
</svg>
