<svg width="65" height="65" viewBox="0 0 65 65" fill="none" xmlns="http://www.w3.org/2000/svg">
<rect width="65" height="65" fill="white"/>
<g clip-path="url(#clip0_502_50)">
<path d="M18.4333 52.3205C18.0938 52.3205 17.7682 52.1857 17.5281 51.9455C17.288 51.7054 17.1531 51.3798 17.1531 51.0403V45.9345C17.1493 43.984 17.5333 42.0522 18.2827 40.2515C19.0321 38.4508 20.132 36.817 21.5184 35.4451C22.734 34.2183 24.1605 33.2204 25.7296 32.4989C25.8826 32.429 26.0478 32.3899 26.2158 32.3839C26.3839 32.3778 26.5514 32.4049 26.709 32.4637C26.8665 32.5224 27.0111 32.6116 27.1341 32.7262C27.2572 32.8407 27.3565 32.9784 27.4264 33.1313C27.5645 33.4389 27.5773 33.7881 27.4621 34.1049C27.3469 34.4217 27.1128 34.6811 26.8094 34.8281C25.5087 35.4215 24.3272 36.2475 23.3233 37.2654C22.1782 38.399 21.2705 39.7496 20.6534 41.2381C20.0363 42.7265 19.7221 44.3231 19.7291 45.9345V51.0403C19.7291 51.2097 19.6955 51.3774 19.6302 51.5338C19.5649 51.6901 19.4692 51.832 19.3487 51.9511C19.2281 52.0701 19.0852 52.1641 18.9281 52.2276C18.771 52.291 18.6028 52.3226 18.4333 52.3205V52.3205Z" fill="#0F3384"/>
<path d="M37.7151 32.3908C37.4715 32.392 37.2327 32.3227 37.0275 32.1913C36.8222 32.06 36.6592 31.8721 36.5582 31.6504C36.4201 31.3429 36.4074 30.9937 36.5226 30.6769C36.6378 30.36 36.8719 30.1006 37.1753 29.9536C39.2891 28.9611 41.078 27.3893 42.3341 25.4205C43.5901 23.4518 44.2617 21.1671 44.2709 18.8319V13.7261C44.2709 13.3865 44.4058 13.0609 44.6459 12.8207C44.886 12.5806 45.2117 12.4458 45.5513 12.4458C45.8908 12.4458 46.2165 12.5806 46.4566 12.8207C46.6967 13.0609 46.8316 13.3865 46.8316 13.7261V18.8319C46.8245 21.6545 46.0143 24.4167 44.4956 26.7959C42.9768 29.175 40.8124 31.0728 38.2551 32.2674C38.0884 32.3535 37.9026 32.396 37.7151 32.3908Z" fill="#0F3384"/>
<path d="M26.2694 32.3908C26.0838 32.3939 25.8997 32.3571 25.7295 32.2829C24.1601 31.5553 22.7337 30.5522 21.5183 29.3212C20.1305 27.9503 19.0297 26.3168 18.2802 24.5158C17.5306 22.7149 17.1475 20.7826 17.153 18.8319V13.7261C17.153 13.3865 17.2879 13.0609 17.528 12.8208C17.7681 12.5806 18.0937 12.4458 18.4333 12.4458C18.7728 12.4458 19.0985 12.5806 19.3386 12.8208C19.5787 13.0609 19.7136 13.3865 19.7136 13.7261V18.8319C19.7082 20.4467 20.0247 22.0463 20.6444 23.5374C21.2642 25.0285 22.1748 26.3812 23.3232 27.5164C24.3287 28.5325 25.5098 29.3582 26.8093 29.9536C27.0714 30.0778 27.2835 30.2873 27.4109 30.5478C27.5384 30.8083 27.5736 31.1043 27.5109 31.3874C27.4482 31.6706 27.2912 31.924 27.0657 32.1063C26.8401 32.2886 26.5594 32.3889 26.2694 32.3908V32.3908Z" fill="#0F3384"/>
<path d="M45.5512 52.3203C45.2117 52.3203 44.886 52.1854 44.6459 51.9453C44.4058 51.7052 44.2709 51.3796 44.2709 51.04V45.9342C44.2588 43.6016 43.5858 41.3202 42.3299 39.3545C41.074 37.3888 39.2867 35.8193 37.1752 34.8279C36.8708 34.6779 36.6363 34.4157 36.5213 34.0963C36.4062 33.777 36.4194 33.4255 36.5582 33.1157C36.7021 32.8096 36.9614 32.5728 37.2794 32.4572C37.5973 32.3416 37.9481 32.3565 38.255 32.4987C40.8123 33.6933 42.9768 35.5911 44.4955 37.9703C46.0143 40.3494 46.8245 43.1117 46.8316 45.9342V51.04C46.8316 51.3796 46.6967 51.7052 46.4566 51.9453C46.2165 52.1854 45.8908 52.3203 45.5512 52.3203V52.3203Z" fill="#0F3384"/>
<path d="M18.4334 15.0063C17.0483 15.0063 15.6944 14.5956 14.5427 13.8261C13.391 13.0565 12.4934 11.9628 11.9634 10.6831C11.4333 9.40347 11.2946 7.9954 11.5649 6.63692C11.8351 5.27845 12.502 4.03061 13.4815 3.0512C14.4609 2.0718 15.7087 1.40478 17.0672 1.13456C18.4257 0.864345 19.8338 1.00305 21.1135 1.5331C22.3931 2.06315 23.4868 2.96075 24.2564 4.11241C25.0259 5.26407 25.4366 6.61808 25.4366 8.00317C25.4325 9.85926 24.6934 11.6382 23.381 12.9506C22.0685 14.2631 20.2895 15.0022 18.4334 15.0063V15.0063ZM18.4334 3.56065C17.5548 3.56065 16.6959 3.82117 15.9653 4.30932C15.2347 4.79747 14.6653 5.49131 14.3291 6.30307C13.9928 7.11483 13.9049 8.0081 14.0763 8.86986C14.2477 9.73162 14.6708 10.5232 15.2921 11.1445C15.9134 11.7658 16.705 12.1889 17.5668 12.3603C18.4285 12.5317 19.3218 12.4438 20.1336 12.1075C20.9453 11.7713 21.6391 11.2019 22.1273 10.4713C22.6154 9.74072 22.8759 8.88182 22.8759 8.00317C22.8759 6.82494 22.4079 5.69497 21.5748 4.86183C20.7417 4.0287 19.6116 3.56065 18.4334 3.56065Z" fill="#0F3384"/>
<path d="M45.5512 15.0063C44.1661 15.0063 42.8122 14.5956 41.6605 13.8261C40.5088 13.0565 39.6112 11.9628 39.0812 10.6831C38.5511 9.40347 38.4124 7.9954 38.6827 6.63692C38.9529 5.27845 39.6198 4.03061 40.5993 3.0512C41.5787 2.0718 42.8265 1.40478 44.185 1.13456C45.5435 0.864345 46.9515 1.00305 48.2312 1.5331C49.5108 2.06315 50.6047 2.96075 51.3742 4.11241C52.1437 5.26407 52.5544 6.61808 52.5544 8.00317C52.5544 9.86052 51.8165 11.6418 50.5032 12.9551C49.1898 14.2685 47.4086 15.0063 45.5512 15.0063V15.0063ZM45.5512 3.56065C44.6726 3.56065 43.8137 3.82117 43.0831 4.30932C42.3525 4.79747 41.7831 5.49131 41.4469 6.30307C41.1106 7.11483 41.0227 8.0081 41.1941 8.86986C41.3655 9.73162 41.7886 10.5232 42.4099 11.1445C43.0312 11.7658 43.8228 12.1889 44.6846 12.3603C45.5463 12.5317 46.4395 12.4438 47.2513 12.1075C48.063 11.7713 48.7569 11.2019 49.2451 10.4713C49.7332 9.74072 49.9937 8.88182 49.9937 8.00317C49.9937 6.82494 49.5257 5.69497 48.6926 4.86183C47.8595 4.0287 46.7295 3.56065 45.5512 3.56065V3.56065Z" fill="#0F3384"/>
<path d="M56.9968 39.3939C55.611 39.397 54.2556 38.9889 53.1019 38.2212C51.9482 37.4536 51.0481 36.3609 50.5157 35.0815C49.9833 33.8021 49.8425 32.3935 50.111 31.034C50.3795 29.6746 51.0452 28.4253 52.024 27.4443C53.0028 26.4634 54.2506 25.7949 55.6095 25.5234C56.9684 25.2519 58.3772 25.3897 59.6578 25.9193C60.9384 26.4489 62.033 27.3465 62.8032 28.4985C63.5734 29.6505 63.9845 31.0051 63.9845 32.3908C63.9845 34.2455 63.2489 36.0244 61.9389 37.3373C60.6288 38.6502 58.8514 39.3898 56.9968 39.3939V39.3939ZM56.9968 27.9483C56.1181 27.9483 55.2592 28.2088 54.5287 28.697C53.7981 29.1851 53.2287 29.879 52.8924 30.6907C52.5562 31.5025 52.4682 32.3958 52.6396 33.2575C52.8111 34.1193 53.2342 34.9109 53.8555 35.5322C54.4768 36.1535 55.2684 36.5765 56.1301 36.748C56.9919 36.9194 57.8852 36.8314 58.6969 36.4952C59.5087 36.1589 60.2025 35.5895 60.6906 34.859C61.1788 34.1284 61.4393 33.2695 61.4393 32.3908C61.4393 31.2126 60.9713 30.0826 60.1382 29.2495C59.305 28.4164 58.175 27.9483 56.9968 27.9483V27.9483Z" fill="#0F3384"/>
<path d="M7.00325 39.3939C5.61816 39.3939 4.26419 38.9832 3.11253 38.2137C1.96087 37.4442 1.06327 36.3504 0.533218 35.0708C0.00316753 33.7911 -0.135533 32.3831 0.134685 31.0246C0.404902 29.6661 1.07187 28.4183 2.05128 27.4389C3.03069 26.4595 4.27857 25.7925 5.63705 25.5223C6.99552 25.2521 8.40355 25.3907 9.6832 25.9208C10.9629 26.4508 12.0567 27.3484 12.8262 28.5001C13.5957 29.6517 14.0063 31.0057 14.0063 32.3908C14.0063 34.2482 13.2686 36.0295 11.9552 37.3428C10.6419 38.6561 8.86059 39.3939 7.00325 39.3939V39.3939ZM7.00325 27.9483C6.1246 27.9483 5.26569 28.2088 4.53512 28.697C3.80456 29.1851 3.23515 29.879 2.89891 30.6907C2.56266 31.5025 2.4747 32.3958 2.64611 33.2575C2.81753 34.1193 3.24066 34.9109 3.86196 35.5322C4.48325 36.1535 5.27474 36.5765 6.13651 36.748C6.99827 36.9194 7.89153 36.8314 8.7033 36.4952C9.51506 36.1589 10.2089 35.5895 10.6971 34.859C11.1852 34.1284 11.4458 33.2695 11.4458 32.3908C11.4458 31.2126 10.9777 30.0826 10.1445 29.2495C9.3114 28.4164 8.18147 27.9483 7.00325 27.9483V27.9483Z" fill="#0F3384"/>
<path d="M18.4334 63.7658C17.0483 63.7658 15.6944 63.3551 14.5427 62.5855C13.391 61.816 12.4934 60.7223 11.9634 59.4427C11.4333 58.163 11.2946 56.7549 11.5649 55.3964C11.8351 54.0379 12.502 52.7901 13.4815 51.8107C14.4609 50.8313 15.7087 50.1643 17.0672 49.8941C18.4257 49.6239 19.8338 49.7626 21.1135 50.2926C22.3931 50.8227 23.4868 51.7203 24.2564 52.8719C25.0259 54.0236 25.4366 55.3776 25.4366 56.7626C25.4366 58.62 24.6987 60.4013 23.3854 61.7146C22.072 63.028 20.2908 63.7658 18.4334 63.7658ZM18.4334 52.3201C17.5548 52.3201 16.6959 52.5807 15.9653 53.0688C15.2347 53.557 14.6653 54.2508 14.3291 55.0626C13.9928 55.8744 13.9049 56.7676 14.0763 57.6293C14.2477 58.4911 14.6708 59.2827 15.2921 59.904C15.9134 60.5253 16.705 60.9484 17.5668 61.1198C18.4285 61.2912 19.3218 61.2032 20.1336 60.867C20.9453 60.5307 21.6391 59.9613 22.1273 59.2308C22.6154 58.5002 22.8759 57.6413 22.8759 56.7626C22.8759 55.5844 22.4079 54.4544 21.5748 53.6213C20.7417 52.7882 19.6116 52.3201 18.4334 52.3201V52.3201Z" fill="#0F3384"/>
<path d="M45.5512 63.7658C44.1661 63.7658 42.8122 63.3551 41.6605 62.5855C40.5088 61.816 39.6112 60.7223 39.0812 59.4427C38.5511 58.163 38.4124 56.7549 38.6827 55.3964C38.9529 54.0379 39.6198 52.7901 40.5993 51.8107C41.5787 50.8313 42.8265 50.1643 44.185 49.8941C45.5435 49.6239 46.9515 49.7626 48.2312 50.2926C49.5108 50.8227 50.6047 51.7203 51.3742 52.8719C52.1437 54.0236 52.5544 55.3776 52.5544 56.7626C52.5544 58.62 51.8165 60.4013 50.5032 61.7146C49.1898 63.028 47.4086 63.7658 45.5512 63.7658ZM45.5512 52.3201C44.6726 52.3201 43.8137 52.5807 43.0831 53.0688C42.3525 53.557 41.7831 54.2508 41.4469 55.0626C41.1106 55.8744 41.0227 56.7676 41.1941 57.6293C41.3655 58.4911 41.7886 59.2827 42.4099 59.904C43.0312 60.5253 43.8228 60.9484 44.6846 61.1198C45.5463 61.2912 46.4395 61.2032 47.2513 60.867C48.063 60.5307 48.7569 59.9613 49.2451 59.2308C49.7332 58.5002 49.9937 57.6413 49.9937 56.7626C49.9937 55.5844 49.5257 54.4544 48.6926 53.6213C47.8595 52.7882 46.7295 52.3201 45.5512 52.3201V52.3201Z" fill="#0F3384"/>
<path d="M37.7151 39.3939H26.2695C25.9299 39.3939 25.6042 39.2591 25.3641 39.019C25.124 38.7789 24.9891 38.4532 24.9891 38.1137V26.668C24.9891 26.3284 25.124 26.0028 25.3641 25.7627C25.6042 25.5226 25.9299 25.3877 26.2695 25.3877H37.7151C38.0547 25.3877 38.3803 25.5226 38.6204 25.7627C38.8605 26.0028 38.9954 26.3284 38.9954 26.668V38.0674C39.0016 38.2394 38.9732 38.4108 38.9116 38.5716C38.8501 38.7323 38.7567 38.8789 38.6372 39.0028C38.5177 39.1266 38.3745 39.225 38.2161 39.2923C38.0576 39.3595 37.8872 39.3941 37.7151 39.3939V39.3939ZM27.5498 36.8334H36.4349V27.9483H27.5498V36.8334Z" fill="#0F3384"/>
<path d="M51.274 33.6707H37.7151C37.3755 33.6707 37.0499 33.5358 36.8098 33.2957C36.5697 33.0556 36.4348 32.73 36.4348 32.3904C36.4348 32.0509 36.5697 31.7252 36.8098 31.4851C37.0499 31.245 37.3755 31.1101 37.7151 31.1101H51.274C51.6136 31.1101 51.9393 31.245 52.1794 31.4851C52.4195 31.7252 52.5544 32.0509 52.5544 32.3904C52.5544 32.73 52.4195 33.0556 52.1794 33.2957C51.9393 33.5358 51.6136 33.6707 51.274 33.6707Z" fill="#0F3384"/>
<path d="M26.2695 33.6707H12.7106C12.3711 33.6707 12.0454 33.5358 11.8053 33.2957C11.5652 33.0556 11.4303 32.73 11.4303 32.3904C11.4303 32.0509 11.5652 31.7252 11.8053 31.4851C12.0454 31.245 12.3711 31.1101 12.7106 31.1101H26.2695C26.6091 31.1101 26.9348 31.245 27.1749 31.4851C27.415 31.7252 27.5499 32.0509 27.5499 32.3904C27.5499 32.73 27.415 33.0556 27.1749 33.2957C26.9348 33.5358 26.6091 33.6707 26.2695 33.6707Z" fill="#0F3384"/>
</g>
<defs>
<clipPath id="clip0_502_50">
<rect width="64" height="62.766" fill="white" transform="translate(0 1)"/>
</clipPath>
</defs>
</svg>
