<svg width="627" height="400" viewBox="0 0 627 400" fill="none" xmlns="http://www.w3.org/2000/svg">
<rect width="627" height="400" fill="white"/>
<path d="M0 59.2202C0 56.8895 2.59129 55 5.78781 55H621.212C624.409 55 627 56.8895 627 59.2202V339.834C627 342.165 624.409 344.054 621.212 344.054H5.78781C2.59129 344.054 0 342.165 0 339.834V59.2202Z" fill="white"/>
<path d="M23.1049 164.358H24.9887L22.6115 160.299C23.8375 159.806 24.6897 158.612 24.6897 157.269C24.6897 155.403 23.1946 153.911 21.3256 153.911H17.1393V164.358H18.8587V160.552H20.8921L23.1049 164.358ZM18.8587 155.522H21.3256C22.2377 155.522 22.9703 156.284 22.9703 157.269C22.9703 158.239 22.2377 159.015 21.3256 159.015H18.8587V155.522Z" fill="#4C5363"/>
<path d="M27.0806 161.314H33.0312C33.0611 161.105 33.091 160.866 33.091 160.642C33.091 158.493 31.566 156.702 29.3383 156.702C26.9909 156.702 25.3911 158.418 25.3911 160.627C25.3911 162.866 26.9909 164.552 29.4579 164.552C30.9231 164.552 32.0445 163.94 32.7322 162.926L31.4015 162.149C31.0427 162.672 30.3699 163.075 29.4728 163.075C28.2767 163.075 27.3348 162.478 27.0806 161.314ZM27.0657 160C27.2899 158.881 28.1123 158.164 29.3233 158.164C30.2951 158.164 31.2371 158.717 31.4614 160H27.0657Z" fill="#4C5363"/>
<path d="M35.5157 155.776C36.0839 155.776 36.5474 155.299 36.5474 154.746C36.5474 154.179 36.0839 153.716 35.5157 153.716C34.9476 153.716 34.4841 154.179 34.4841 154.746C34.4841 155.299 34.9476 155.776 35.5157 155.776ZM34.7084 164.657C34.7084 165.702 34.2449 166.075 33.2581 165.985V167.538C35.3064 167.687 36.3231 166.717 36.3231 164.657V156.896H34.7084V164.657Z" fill="#4C5363"/>
<path d="M39.4768 161.314H45.4274C45.4573 161.105 45.4872 160.866 45.4872 160.642C45.4872 158.493 43.9622 156.702 41.7344 156.702C39.3871 156.702 37.7873 158.418 37.7873 160.627C37.7873 162.866 39.3871 164.552 41.854 164.552C43.3193 164.552 44.4406 163.94 45.1284 162.926L43.7977 162.149C43.4389 162.672 42.7661 163.075 41.869 163.075C40.6729 163.075 39.7309 162.478 39.4768 161.314ZM39.4618 160C39.6861 158.881 40.5084 158.164 41.7195 158.164C42.6913 158.164 43.6332 158.717 43.8575 160H39.4618Z" fill="#4C5363"/>
<path d="M50.3927 164.552C51.858 164.552 53.1288 163.791 53.7568 162.612L52.3663 161.821C52.0075 162.508 51.2749 162.97 50.3778 162.97C49.0621 162.97 48.0603 161.97 48.0603 160.627C48.0603 159.284 49.0621 158.284 50.3778 158.284C51.2749 158.284 52.0075 158.731 52.3364 159.433L53.7269 158.627C53.1288 157.463 51.858 156.702 50.3927 156.702C48.1351 156.702 46.4456 158.403 46.4456 160.627C46.4456 162.836 48.1351 164.552 50.3927 164.552Z" fill="#4C5363"/>
<path d="M59.0953 158.448V156.896H57.2414V154.806L55.6266 155.284V156.896H54.2511V158.448H55.6266V162.03C55.6266 163.97 56.6134 164.657 59.0953 164.358V162.911C57.8693 162.97 57.2414 162.985 57.2414 162.03V158.448H59.0953Z" fill="#4C5363"/>
<path d="M61.5241 161.314H67.4747C67.5046 161.105 67.5345 160.866 67.5345 160.642C67.5345 158.493 66.0095 156.702 63.7818 156.702C61.4344 156.702 59.8346 158.418 59.8346 160.627C59.8346 162.866 61.4344 164.552 63.9014 164.552C65.3666 164.552 66.4879 163.94 67.1757 162.926L65.845 162.149C65.4862 162.672 64.8134 163.075 63.9163 163.075C62.7202 163.075 61.7783 162.478 61.5241 161.314ZM61.5092 160C61.7334 158.881 62.5558 158.164 63.7668 158.164C64.7386 158.164 65.6806 158.717 65.9048 160H61.5092Z" fill="#4C5363"/>
<path d="M74.8323 153.911V157.955C74.2641 157.179 73.382 156.702 72.2158 156.702C70.1824 156.702 68.4929 158.403 68.4929 160.627C68.4929 162.836 70.1824 164.552 72.2158 164.552C73.382 164.552 74.2641 164.075 74.8323 163.284V164.358H76.447V153.911H74.8323ZM72.47 163.015C71.1244 163.015 70.1077 162.015 70.1077 160.627C70.1077 159.239 71.1244 158.239 72.47 158.239C73.8156 158.239 74.8323 159.239 74.8323 160.627C74.8323 162.015 73.8156 163.015 72.47 163.015Z" fill="#4C5363"/>
<path d="M82.8743 155.776C83.4425 155.776 83.906 155.299 83.906 154.746C83.906 154.179 83.4425 153.716 82.8743 153.716C82.3062 153.716 81.8427 154.179 81.8427 154.746C81.8427 155.299 82.3062 155.776 82.8743 155.776ZM82.067 164.358H83.6817V156.896H82.067V164.358Z" fill="#4C5363"/>
<path d="M89.4888 156.702C88.4721 156.702 87.6647 157.075 87.1713 157.851V156.896H85.5566V164.358H87.1713V160.358C87.1713 158.836 88.0086 158.209 89.0701 158.209C90.0868 158.209 90.7447 158.806 90.7447 159.94V164.358H92.3594V159.776C92.3594 157.836 91.1633 156.702 89.4888 156.702Z" fill="#4C5363"/>
<path d="M95.5484 158.955C95.5484 158.418 96.0567 158.164 96.6398 158.164C97.2528 158.164 97.7761 158.433 98.0453 159.015L99.4058 158.254C98.8825 157.269 97.8658 156.702 96.6398 156.702C95.1148 156.702 93.9037 157.582 93.9037 158.985C93.9037 161.657 97.9256 160.911 97.9256 162.239C97.9256 162.836 97.3724 163.075 96.6548 163.075C95.8325 163.075 95.2344 162.672 94.9952 162L93.6047 162.806C94.0832 163.881 95.1596 164.552 96.6548 164.552C98.2695 164.552 99.5703 163.746 99.5703 162.254C99.5703 159.493 95.5484 160.314 95.5484 158.955Z" fill="#4C5363"/>
<path d="M104.869 158.448V156.896H103.015V154.806L101.4 155.284V156.896H100.025V158.448H101.4V162.03C101.4 163.97 102.387 164.657 104.869 164.358V162.911C103.643 162.97 103.015 162.985 103.015 162.03V158.448H104.869Z" fill="#4C5363"/>
<path d="M111.948 156.896V157.955C111.38 157.179 110.497 156.702 109.331 156.702C107.298 156.702 105.608 158.403 105.608 160.627C105.608 162.836 107.298 164.552 109.331 164.552C110.497 164.552 111.38 164.075 111.948 163.284V164.358H113.562V156.896H111.948ZM109.585 163.015C108.24 163.015 107.223 162.015 107.223 160.627C107.223 159.239 108.24 158.239 109.585 158.239C110.931 158.239 111.948 159.239 111.948 160.627C111.948 162.015 110.931 163.015 109.585 163.015Z" fill="#4C5363"/>
<path d="M115.445 164.358H117.059V153.463H115.445V164.358Z" fill="#4C5363"/>
<path d="M118.934 164.358H120.549V153.463H118.934V164.358Z" fill="#4C5363"/>
<path d="M123.83 158.955C123.83 158.418 124.339 158.164 124.922 158.164C125.535 158.164 126.058 158.433 126.327 159.015L127.688 158.254C127.164 157.269 126.148 156.702 124.922 156.702C123.397 156.702 122.186 157.582 122.186 158.985C122.186 161.657 126.208 160.911 126.208 162.239C126.208 162.836 125.654 163.075 124.937 163.075C124.114 163.075 123.516 162.672 123.277 162L121.887 162.806C122.365 163.881 123.442 164.552 124.937 164.552C126.551 164.552 127.852 163.746 127.852 162.254C127.852 159.493 123.83 160.314 123.83 158.955Z" fill="#4C5363"/>
<path d="M136.538 164.552C138.736 164.552 140.485 162.836 140.485 160.627C140.485 158.403 138.736 156.702 136.538 156.702C134.355 156.702 132.591 158.403 132.591 160.627C132.591 162.836 134.355 164.552 136.538 164.552ZM136.538 162.985C135.222 162.985 134.206 161.985 134.206 160.627C134.206 159.269 135.222 158.269 136.538 158.269C137.854 158.269 138.87 159.269 138.87 160.627C138.87 161.985 137.854 162.985 136.538 162.985Z" fill="#4C5363"/>
<path d="M146.722 156.896L144.643 162.567L142.55 156.896H140.786L143.702 164.358H145.57L148.486 156.896H146.722Z" fill="#4C5363"/>
<path d="M150.487 161.314H156.438C156.468 161.105 156.498 160.866 156.498 160.642C156.498 158.493 154.973 156.702 152.745 156.702C150.398 156.702 148.798 158.418 148.798 160.627C148.798 162.866 150.398 164.552 152.865 164.552C154.33 164.552 155.451 163.94 156.139 162.926L154.808 162.149C154.449 162.672 153.777 163.075 152.88 163.075C151.683 163.075 150.741 162.478 150.487 161.314ZM150.472 160C150.697 158.881 151.519 158.164 152.73 158.164C153.702 158.164 154.644 158.717 154.868 160H150.472Z" fill="#4C5363"/>
<path d="M159.533 158.149V156.896H157.919V164.358H159.533V160.597C159.533 158.926 160.774 158.433 161.836 158.508V156.761C160.894 156.761 159.982 157.134 159.533 158.149Z" fill="#4C5363"/>
<path d="M170.938 158.448V156.896H169.084V154.806L167.469 155.284V156.896H166.094V158.448H167.469V162.03C167.469 163.97 168.456 164.657 170.938 164.358V162.911C169.712 162.97 169.084 162.985 169.084 162.03V158.448H170.938Z" fill="#4C5363"/>
<path d="M173.21 155.776C173.778 155.776 174.242 155.299 174.242 154.746C174.242 154.179 173.778 153.716 173.21 153.716C172.642 153.716 172.178 154.179 172.178 154.746C172.178 155.299 172.642 155.776 173.21 155.776ZM172.403 164.358H174.017V156.896H172.403V164.358Z" fill="#4C5363"/>
<path d="M184.056 156.702C183.054 156.702 182.262 157.105 181.768 157.881C181.335 157.134 180.617 156.702 179.645 156.702C178.718 156.702 177.985 157.06 177.507 157.791V156.896H175.892V164.358H177.507V160.179C177.507 158.821 178.255 158.209 179.167 158.209C180.049 158.209 180.572 158.791 180.572 159.836V164.358H182.187V160.179C182.187 158.821 182.86 158.209 183.816 158.209C184.699 158.209 185.267 158.791 185.267 159.836V164.358H186.881V159.731C186.881 157.866 185.745 156.702 184.056 156.702Z" fill="#4C5363"/>
<path d="M189.881 161.314H195.831C195.861 161.105 195.891 160.866 195.891 160.642C195.891 158.493 194.366 156.702 192.138 156.702C189.791 156.702 188.191 158.418 188.191 160.627C188.191 162.866 189.791 164.552 192.258 164.552C193.723 164.552 194.844 163.94 195.532 162.926L194.201 162.149C193.843 162.672 193.17 163.075 192.273 163.075C191.077 163.075 190.135 162.478 189.881 161.314ZM189.866 160C190.09 158.881 190.912 158.164 192.123 158.164C193.095 158.164 194.037 158.717 194.261 160H189.866Z" fill="#4C5363"/>
<path d="M202.575 165.851H204.189C203.143 163.761 202.545 161.523 202.545 159.134C202.545 156.746 203.143 154.508 204.189 152.418H202.575C201.528 154.508 200.93 156.746 200.93 159.134C200.93 161.523 201.528 163.761 202.575 165.851Z" fill="#4C5363"/>
<path d="M209.661 156.702C208.495 156.702 207.613 157.179 207.045 157.97V156.896H205.43V167.344H207.045V163.299C207.613 164.075 208.495 164.552 209.661 164.552C211.694 164.552 213.384 162.851 213.384 160.627C213.384 158.418 211.694 156.702 209.661 156.702ZM209.407 163.015C208.061 163.015 207.045 162.015 207.045 160.627C207.045 159.239 208.061 158.239 209.407 158.239C210.753 158.239 211.769 159.239 211.769 160.627C211.769 162.015 210.753 163.015 209.407 163.015Z" fill="#4C5363"/>
<path d="M216.118 161.314H222.069C222.099 161.105 222.129 160.866 222.129 160.642C222.129 158.493 220.604 156.702 218.376 156.702C216.029 156.702 214.429 158.418 214.429 160.627C214.429 162.866 216.029 164.552 218.496 164.552C219.961 164.552 221.082 163.94 221.77 162.926L220.439 162.149C220.08 162.672 219.408 163.075 218.511 163.075C217.314 163.075 216.372 162.478 216.118 161.314ZM216.103 160C216.328 158.881 217.15 158.164 218.361 158.164C219.333 158.164 220.275 158.717 220.499 160H216.103Z" fill="#4C5363"/>
<path d="M225.164 158.149V156.896H223.55V164.358H225.164V160.597C225.164 158.926 226.405 158.433 227.467 158.508V156.761C226.525 156.761 225.613 157.134 225.164 158.149Z" fill="#4C5363"/>
<path d="M238.318 153.911V157.955C237.75 157.179 236.868 156.702 235.702 156.702C233.669 156.702 231.979 158.403 231.979 160.627C231.979 162.836 233.669 164.552 235.702 164.552C236.868 164.552 237.75 164.075 238.318 163.284V164.358H239.933V153.911H238.318ZM235.956 163.015C234.611 163.015 233.594 162.015 233.594 160.627C233.594 159.239 234.611 158.239 235.956 158.239C237.302 158.239 238.318 159.239 238.318 160.627C238.318 162.015 237.302 163.015 235.956 163.015Z" fill="#4C5363"/>
<path d="M247.736 156.896V157.955C247.168 157.179 246.286 156.702 245.12 156.702C243.086 156.702 241.397 158.403 241.397 160.627C241.397 162.836 243.086 164.552 245.12 164.552C246.286 164.552 247.168 164.075 247.736 163.284V164.358H249.351V156.896H247.736ZM245.374 163.015C244.028 163.015 243.011 162.015 243.011 160.627C243.011 159.239 244.028 158.239 245.374 158.239C246.719 158.239 247.736 159.239 247.736 160.627C247.736 162.015 246.719 163.015 245.374 163.015Z" fill="#4C5363"/>
<path d="M256.271 156.896L254.358 162.314L252.13 156.896H250.366L253.535 164.224L253.461 164.373C253.087 165.358 252.519 165.896 251.472 165.836V167.344C253.191 167.448 254.417 166.493 255.12 164.597L257.991 156.896H256.271Z" fill="#4C5363"/>
<path d="M259.972 165.851C261.019 163.761 261.617 161.523 261.617 159.134C261.617 156.746 261.019 154.508 259.972 152.418H258.358C259.404 154.508 260.002 156.746 260.002 159.134C260.002 161.523 259.404 163.761 258.358 165.851H259.972Z" fill="#4C5363"/>
<path d="M16.2177 132.82H611.868V133.901H16.2177V132.82Z" fill="#E4E8ED"/>
<path d="M21.5473 190.745H20.7839V189.058H19.3691V190.745H17.5166L19.878 186.142H18.3716L16 190.745V192.046H19.3691V193.255H20.7839V192.046H21.5473V190.745Z" fill="#8B8F9E"/>
<path d="M24.8969 193.397C26.7188 193.397 27.7469 191.893 27.7469 189.699C27.7469 187.504 26.7188 186 24.8969 186C23.0851 186 22.0469 187.504 22.0469 189.699C22.0469 191.893 23.0851 193.397 24.8969 193.397ZM24.8969 192.025C23.9401 192.025 23.4515 191.202 23.4515 189.699C23.4515 188.195 23.9401 187.362 24.8969 187.362C25.8536 187.362 26.3524 188.195 26.3524 189.699C26.3524 191.202 25.8536 192.025 24.8969 192.025Z" fill="#8B8F9E"/>
<path d="M31.3082 193.397C33.1301 193.397 34.1582 191.893 34.1582 189.699C34.1582 187.504 33.1301 186 31.3082 186C29.4964 186 28.4582 187.504 28.4582 189.699C28.4582 191.893 29.4964 193.397 31.3082 193.397ZM31.3082 192.025C30.3514 192.025 29.8628 191.202 29.8628 189.699C29.8628 188.195 30.3514 187.362 31.3082 187.362C32.265 187.362 32.7637 188.195 32.7637 189.699C32.7637 191.202 32.265 192.025 31.3082 192.025Z" fill="#8B8F9E"/>
<path d="M19.7371 219.511L21.0705 217.784V216.625H16.5919V217.936H19.3809L17.9762 219.765L18.5157 220.578H18.8211C19.5539 220.578 19.9611 220.974 19.9611 221.543C19.9611 222.122 19.5539 222.509 18.8211 222.509C18.1493 222.509 17.7523 222.214 17.5793 221.686L16.3782 222.376C16.7853 223.393 17.7523 223.88 18.8211 223.88C20.1646 223.88 21.3657 223.067 21.3657 221.543C21.3657 220.497 20.6634 219.785 19.7371 219.511Z" fill="#8B8F9E"/>
<path d="M24.8969 223.88C26.7188 223.88 27.7469 222.376 27.7469 220.182C27.7469 217.987 26.7188 216.483 24.8969 216.483C23.0851 216.483 22.0469 217.987 22.0469 220.182C22.0469 222.376 23.0851 223.88 24.8969 223.88ZM24.8969 222.509C23.9401 222.509 23.4515 221.686 23.4515 220.182C23.4515 218.678 23.9401 217.845 24.8969 217.845C25.8536 217.845 26.3524 218.678 26.3524 220.182C26.3524 221.686 25.8536 222.509 24.8969 222.509Z" fill="#8B8F9E"/>
<path d="M31.3082 223.88C33.1301 223.88 34.1582 222.376 34.1582 220.182C34.1582 217.987 33.1301 216.483 31.3082 216.483C29.4964 216.483 28.4582 217.987 28.4582 220.182C28.4582 222.376 29.4964 223.88 31.3082 223.88ZM31.3082 222.509C30.3514 222.509 29.8628 221.686 29.8628 220.182C29.8628 218.678 30.3514 217.845 31.3082 217.845C32.265 217.845 32.7637 218.678 32.7637 220.182C32.7637 221.686 32.265 222.509 31.3082 222.509Z" fill="#8B8F9E"/>
<path d="M16.6575 254.221H21.421V252.87H18.7441L20.1385 251.478C20.8103 250.807 21.3091 250.065 21.3091 249.202C21.3091 247.779 20.1793 246.966 18.9578 246.966C17.9909 246.966 17.0646 247.454 16.6066 248.47L17.7873 249.161C18.0214 248.653 18.4285 248.328 18.9782 248.328C19.5176 248.328 19.9044 248.683 19.9044 249.252C19.9044 249.73 19.5482 250.197 19.0901 250.675L16.6575 253.175V254.221Z" fill="#8B8F9E"/>
<path d="M24.8969 254.363C26.7188 254.363 27.7469 252.86 27.7469 250.665C27.7469 248.47 26.7188 246.966 24.8969 246.966C23.0851 246.966 22.0469 248.47 22.0469 250.665C22.0469 252.86 23.0851 254.363 24.8969 254.363ZM24.8969 252.992C23.9401 252.992 23.4515 252.169 23.4515 250.665C23.4515 249.161 23.9401 248.328 24.8969 248.328C25.8536 248.328 26.3524 249.161 26.3524 250.665C26.3524 252.169 25.8536 252.992 24.8969 252.992Z" fill="#8B8F9E"/>
<path d="M31.3082 254.363C33.1301 254.363 34.1582 252.86 34.1582 250.665C34.1582 248.47 33.1301 246.966 31.3082 246.966C29.4964 246.966 28.4582 248.47 28.4582 250.665C28.4582 252.86 29.4964 254.363 31.3082 254.363ZM31.3082 252.992C30.3514 252.992 29.8628 252.169 29.8628 250.665C29.8628 249.161 30.3514 248.328 31.3082 248.328C32.265 248.328 32.7637 249.161 32.7637 250.665C32.7637 252.169 32.265 252.992 31.3082 252.992Z" fill="#8B8F9E"/>
<path d="M19.7392 277.591L17.8663 278.252L18.2124 279.451L19.556 279.075V284.704H20.9606V277.591H19.7392Z" fill="#8B8F9E"/>
<path d="M24.8969 284.846C26.7188 284.846 27.7469 283.343 27.7469 281.148C27.7469 278.953 26.7188 277.449 24.8969 277.449C23.0851 277.449 22.0469 278.953 22.0469 281.148C22.0469 283.343 23.0851 284.846 24.8969 284.846ZM24.8969 283.475C23.9401 283.475 23.4515 282.652 23.4515 281.148C23.4515 279.644 23.9401 278.811 24.8969 278.811C25.8536 278.811 26.3524 279.644 26.3524 281.148C26.3524 282.652 25.8536 283.475 24.8969 283.475Z" fill="#8B8F9E"/>
<path d="M31.3082 284.846C33.1301 284.846 34.1582 283.343 34.1582 281.148C34.1582 278.953 33.1301 277.449 31.3082 277.449C29.4964 277.449 28.4582 278.953 28.4582 281.148C28.4582 283.343 29.4964 284.846 31.3082 284.846ZM31.3082 283.475C30.3514 283.475 29.8628 282.652 29.8628 281.148C29.8628 279.644 30.3514 278.811 31.3082 278.811C32.265 278.811 32.7637 279.644 32.7637 281.148C32.7637 282.652 32.265 283.475 31.3082 283.475Z" fill="#8B8F9E"/>
<path d="M31.3082 315.33C33.1301 315.33 34.1582 313.826 34.1582 311.631C34.1582 309.436 33.1301 307.932 31.3082 307.932C29.4964 307.932 28.4582 309.436 28.4582 311.631C28.4582 313.826 29.4964 315.33 31.3082 315.33ZM31.3082 313.958C30.3514 313.958 29.8628 313.135 29.8628 311.631C29.8628 310.127 30.3514 309.294 31.3082 309.294C32.265 309.294 32.7637 310.127 32.7637 311.631C32.7637 313.135 32.265 313.958 31.3082 313.958Z" fill="#8B8F9E"/>
<path d="M41.6404 189.191H601.462V190.208H41.6404V189.191Z" fill="#E4E8ED"/>
<path d="M41.6399 219.674H601.461V220.69H41.6399V219.674Z" fill="#E4E8ED"/>
<path d="M41.6399 250.158H601.461V251.174H41.6399V250.158Z" fill="#E4E8ED"/>
<path d="M41.6399 280.641H601.461V281.657H41.6399V280.641Z" fill="#E4E8ED"/>
<path d="M41.6399 311.123H601.461V312.139H41.6399V311.123Z" fill="#E4E8ED"/>
<path fill-rule="evenodd" clip-rule="evenodd" d="M52.3557 204.741C52.466 204.191 53.0022 203.834 53.5534 203.944C53.6821 203.969 53.9208 204.042 54.181 204.122C54.4715 204.213 54.8685 204.339 55.3648 204.5C56.3581 204.822 57.7604 205.284 59.5278 205.871C63.0631 207.045 68.0665 208.722 74.1952 210.785C86.453 214.911 103.217 220.583 121.75 226.866C158.779 239.418 202.875 254.413 232.223 264.405C262.421 268.554 307.84 274.872 346.081 280.358C365.222 283.104 382.568 285.641 395.308 287.594C401.677 288.571 406.9 289.402 410.622 290.04C412.482 290.359 413.974 290.631 415.051 290.85C415.588 290.959 416.032 291.057 416.37 291.143C416.539 291.186 416.692 291.229 416.822 291.271C416.914 291.3 417.037 291.343 417.157 291.402C417.158 291.402 417.159 291.402 417.16 291.403C417.21 291.414 417.295 291.428 417.423 291.443C417.678 291.473 418.041 291.498 418.517 291.516C419.466 291.551 420.8 291.558 422.488 291.536C425.859 291.491 430.589 291.336 436.368 291.091C447.923 290.601 463.636 289.757 480.972 288.745C515.643 286.721 556.786 284.029 584.097 282.166C584.658 282.128 585.143 282.551 585.182 283.111C585.22 283.671 584.796 284.155 584.235 284.194C556.921 286.057 515.771 288.75 481.091 290.774C463.752 291.786 448.026 292.631 436.455 293.121C430.67 293.366 425.916 293.523 422.514 293.568C420.816 293.59 419.441 293.584 418.44 293.546C417.941 293.528 417.518 293.5 417.186 293.461C417.021 293.442 416.863 293.418 416.721 293.387C416.607 293.362 416.429 293.317 416.257 293.225C416.247 293.222 416.228 293.215 416.196 293.204C416.122 293.181 416.015 293.15 415.868 293.113C415.576 293.039 415.169 292.948 414.645 292.841C413.599 292.629 412.13 292.361 410.277 292.043C406.573 291.408 401.365 290.579 394.999 289.603C382.269 287.651 364.931 285.115 345.792 282.369C307.515 276.879 262.044 270.554 231.849 266.405C231.784 266.396 231.721 266.381 231.659 266.36C202.311 256.368 158.162 241.356 121.096 228.79C102.562 222.507 85.8004 216.836 73.5448 212.711C67.4168 210.648 62.4165 208.972 58.8852 207.799C57.1192 207.213 55.7224 206.753 54.7363 206.433C54.2429 206.273 53.8551 206.149 53.5765 206.063C53.2969 205.976 53.1763 205.943 53.157 205.937C53.155 205.937 53.1541 205.936 53.1542 205.936C52.603 205.826 52.2455 205.291 52.3557 204.741Z" fill="#FF783F"/>
<path fill-rule="evenodd" clip-rule="evenodd" d="M345.102 276.279C305.127 283.611 257.621 292.476 226.068 298.404C225.989 298.418 225.909 298.424 225.829 298.42L52.793 289.783C52.2316 289.755 51.7992 289.278 51.8273 288.717C51.8554 288.157 52.3333 287.725 52.8947 287.753L225.81 296.384C257.365 290.457 304.806 281.604 344.734 274.28C364.723 270.613 382.831 267.33 396.121 264.988C402.765 263.817 408.208 262.881 412.082 262.25C414.017 261.935 415.567 261.695 416.68 261.54C417.236 261.462 417.691 261.405 418.035 261.37C418.207 261.352 418.36 261.339 418.489 261.333C418.595 261.328 418.756 261.322 418.907 261.344C419.214 261.387 421.178 261.531 424.588 261.757C427.963 261.981 432.69 262.282 438.454 262.642C449.982 263.362 465.653 264.318 482.937 265.361C517.506 267.449 558.525 269.887 585.752 271.496C586.313 271.529 586.741 272.01 586.708 272.571C586.675 273.131 586.193 273.558 585.632 273.525C558.404 271.916 517.384 269.477 482.814 267.39C465.53 266.346 449.857 265.391 438.327 264.67C432.562 264.31 427.832 264.009 424.453 263.785C421.205 263.569 419.144 263.422 418.658 263.36C418.647 263.361 418.625 263.361 418.591 263.363C418.511 263.367 418.396 263.376 418.242 263.391C417.934 263.423 417.508 263.476 416.962 263.552C415.872 263.704 414.34 263.941 412.409 264.256C408.549 264.884 403.116 265.819 396.474 266.989C383.192 269.33 365.089 272.612 345.102 276.279Z" fill="#00D0B2"/>
<path fill-rule="evenodd" clip-rule="evenodd" d="M51.831 240.404C51.8865 239.846 52.3849 239.438 52.9443 239.493L232.596 257.275C232.648 257.28 232.699 257.289 232.75 257.302L416.313 304.51L583.585 292.836C584.146 292.797 584.632 293.219 584.672 293.779C584.711 294.339 584.288 294.824 583.727 294.863L416.29 306.549C416.181 306.556 416.071 306.546 415.965 306.519L232.317 259.29L52.7435 241.516C52.1841 241.46 51.7756 240.963 51.831 240.404Z" fill="#4C4FEE"/>
<path d="M29.8258 95.2678H31.493L29.3891 91.6749C30.4741 91.239 31.2284 90.1822 31.2284 88.9934C31.2284 87.3422 29.9052 86.0213 28.2511 86.0213H24.5461V95.2678H26.0678V91.8994H27.8674L29.8258 95.2678ZM26.0678 87.4479H28.2511C29.0583 87.4479 29.7067 88.1216 29.7067 88.9934C29.7067 89.852 29.0583 90.5389 28.2511 90.5389H26.0678V87.4479Z" fill="#4C5363"/>
<path d="M33.3444 92.5731H38.6108C38.6372 92.3882 38.6637 92.1768 38.6637 91.9787C38.6637 90.0765 37.314 88.4914 35.3424 88.4914C33.265 88.4914 31.8491 90.0105 31.8491 91.9655C31.8491 93.9469 33.265 95.4395 35.4483 95.4395C36.745 95.4395 37.7375 94.898 38.3461 93.9997L37.1685 93.3128C36.8509 93.7752 36.2555 94.1318 35.4615 94.1318C34.403 94.1318 33.5693 93.6034 33.3444 92.5731ZM33.3312 91.4107C33.5296 90.42 34.2574 89.7859 35.3292 89.7859C36.1893 89.7859 37.0229 90.2747 37.2214 91.4107H33.3312Z" fill="#4C5363"/>
<path d="M40.8096 87.6724C41.3124 87.6724 41.7226 87.2497 41.7226 86.761C41.7226 86.259 41.3124 85.8496 40.8096 85.8496C40.3068 85.8496 39.8966 86.259 39.8966 86.761C39.8966 87.2497 40.3068 87.6724 40.8096 87.6724ZM40.0951 95.532C40.0951 96.4567 39.6849 96.7869 38.8115 96.7076V98.0814C40.6243 98.2135 41.5241 97.3549 41.5241 95.532V88.6631H40.0951V95.532Z" fill="#4C5363"/>
<path d="M44.3152 92.5731H49.5816C49.608 92.3882 49.6345 92.1768 49.6345 91.9787C49.6345 90.0765 48.2848 88.4914 46.3132 88.4914C44.2358 88.4914 42.8199 90.0105 42.8199 91.9655C42.8199 93.9469 44.2358 95.4395 46.4191 95.4395C47.7158 95.4395 48.7082 94.898 49.3169 93.9997L48.1393 93.3128C47.8217 93.7752 47.2262 94.1318 46.4323 94.1318C45.3737 94.1318 44.5401 93.6034 44.3152 92.5731ZM44.3019 91.4107C44.5004 90.42 45.2282 89.7859 46.3 89.7859C47.1601 89.7859 47.9937 90.2747 48.1922 91.4107H44.3019Z" fill="#4C5363"/>
<path d="M53.976 95.4395C55.2727 95.4395 56.3975 94.7659 56.9532 93.7223L55.7226 93.0222C55.4051 93.6299 54.7567 94.0393 53.9628 94.0393C52.7983 94.0393 51.9118 93.1543 51.9118 91.9655C51.9118 90.7766 52.7983 89.8916 53.9628 89.8916C54.7567 89.8916 55.4051 90.2879 55.6962 90.9087L56.9268 90.1954C56.3975 89.1651 55.2727 88.4914 53.976 88.4914C51.9779 88.4914 50.4827 89.9973 50.4827 91.9655C50.4827 93.9205 51.9779 95.4395 53.976 95.4395Z" fill="#4C5363"/>
<path d="M61.6779 90.0369V88.6631H60.0371V86.8138L58.6081 87.2365V88.6631H57.3907V90.0369H58.6081V93.2072C58.6081 94.9244 59.4814 95.532 61.6779 95.2678V93.9865C60.5929 94.0393 60.0371 94.0526 60.0371 93.2072V90.0369H61.6779Z" fill="#4C5363"/>
<path d="M63.8274 92.5731H69.0938C69.1203 92.3882 69.1467 92.1768 69.1467 91.9787C69.1467 90.0765 67.7971 88.4914 65.8255 88.4914C63.748 88.4914 62.3322 90.0105 62.3322 91.9655C62.3322 93.9469 63.748 95.4395 65.9313 95.4395C67.2281 95.4395 68.2205 94.898 68.8292 93.9997L67.6515 93.3128C67.3339 93.7752 66.7385 94.1318 65.9446 94.1318C64.886 94.1318 64.0524 93.6034 63.8274 92.5731ZM63.8142 91.4107C64.0127 90.42 64.7404 89.7859 65.8122 89.7859C66.6723 89.7859 67.506 90.2747 67.7044 91.4107H63.8142Z" fill="#4C5363"/>
<path d="M75.6054 86.0213V89.601C75.1026 88.9141 74.3219 88.4914 73.2897 88.4914C71.4902 88.4914 69.9949 89.9973 69.9949 91.9655C69.9949 93.9205 71.4902 95.4395 73.2897 95.4395C74.3219 95.4395 75.1026 95.0168 75.6054 94.3167V95.2678H77.0344V86.0213H75.6054ZM73.5147 94.079C72.3238 94.079 71.424 93.1939 71.424 91.9655C71.424 90.737 72.3238 89.852 73.5147 89.852C74.7056 89.852 75.6054 90.737 75.6054 91.9655C75.6054 93.1939 74.7056 94.079 73.5147 94.079Z" fill="#4C5363"/>
<path d="M82.7227 87.6724C83.2255 87.6724 83.6357 87.2497 83.6357 86.761C83.6357 86.259 83.2255 85.8496 82.7227 85.8496C82.2199 85.8496 81.8097 86.259 81.8097 86.761C81.8097 87.2497 82.2199 87.6724 82.7227 87.6724ZM82.0082 95.2678H83.4373V88.6631H82.0082V95.2678Z" fill="#4C5363"/>
<path d="M88.5766 88.4914C87.6768 88.4914 86.9623 88.8217 86.5256 89.5085V88.6631H85.0965V95.2678H86.5256V91.7277C86.5256 90.3804 87.2666 89.8256 88.2061 89.8256C89.1059 89.8256 89.6881 90.3539 89.6881 91.3578V95.2678H91.1172V91.2125C91.1172 89.4953 90.0586 88.4914 88.5766 88.4914Z" fill="#4C5363"/>
<path d="M93.9394 90.486C93.9394 90.0105 94.3893 89.7859 94.9054 89.7859C95.4479 89.7859 95.911 90.0237 96.1492 90.5389L97.3533 89.8652C96.8902 88.9934 95.9904 88.4914 94.9054 88.4914C93.5557 88.4914 92.4839 89.2708 92.4839 90.5125C92.4839 92.8769 96.0434 92.2165 96.0434 93.3921C96.0434 93.9205 95.5538 94.1318 94.9186 94.1318C94.1908 94.1318 93.6616 93.7752 93.4498 93.1807L92.2193 93.894C92.6427 94.8451 93.5954 95.4395 94.9186 95.4395C96.3477 95.4395 97.4989 94.7262 97.4989 93.4053C97.4989 90.9616 93.9394 91.6881 93.9394 90.486Z" fill="#4C5363"/>
<path d="M102.188 90.0369V88.6631H100.548V86.8138L99.1186 87.2365V88.6631H97.9012V90.0369H99.1186V93.2072C99.1186 94.9244 99.9919 95.532 102.188 95.2678V93.9865C101.103 94.0393 100.548 94.0526 100.548 93.2072V90.0369H102.188Z" fill="#4C5363"/>
<path d="M108.453 88.6631V89.601C107.95 88.9141 107.17 88.4914 106.138 88.4914C104.338 88.4914 102.843 89.9973 102.843 91.9655C102.843 93.9205 104.338 95.4395 106.138 95.4395C107.17 95.4395 107.95 95.0168 108.453 94.3167V95.2678H109.882V88.6631H108.453ZM106.362 94.079C105.172 94.079 104.272 93.1939 104.272 91.9655C104.272 90.737 105.172 89.852 106.362 89.852C107.553 89.852 108.453 90.737 108.453 91.9655C108.453 93.1939 107.553 94.079 106.362 94.079Z" fill="#4C5363"/>
<path d="M111.548 95.2678H112.977V85.625H111.548V95.2678Z" fill="#4C5363"/>
<path d="M114.636 95.2678H116.065V85.625H114.636V95.2678Z" fill="#4C5363"/>
<path d="M118.969 90.486C118.969 90.0105 119.419 89.7859 119.935 89.7859C120.478 89.7859 120.941 90.0237 121.179 90.5389L122.383 89.8652C121.92 88.9934 121.02 88.4914 119.935 88.4914C118.586 88.4914 117.514 89.2708 117.514 90.5125C117.514 92.8769 121.073 92.2165 121.073 93.3921C121.073 93.9205 120.584 94.1318 119.949 94.1318C119.221 94.1318 118.692 93.7752 118.48 93.1807L117.249 93.894C117.673 94.8451 118.625 95.4395 119.949 95.4395C121.378 95.4395 122.529 94.7262 122.529 93.4053C122.529 90.9616 118.969 91.6881 118.969 90.486Z" fill="#4C5363"/>
<path d="M42.9207 107.462L39.175 108.783L39.8671 111.181L42.5543 110.429V121.688H45.3636V107.462H42.9207Z" fill="#00D0B2"/>
<path d="M58.3457 116.668H56.8189V113.295H53.9893V116.668H50.2843L55.0071 107.462H51.9943L47.251 116.668V119.269H53.9893V121.688H56.8189V119.269H58.3457V116.668Z" fill="#00D0B2"/>
<path d="M65.8184 113.234L68.4851 109.779V107.462H59.528V110.084H65.1059L62.2966 113.742L63.3755 115.368H63.9862C65.4519 115.368 66.2662 116.16 66.2662 117.298C66.2662 118.456 65.4519 119.229 63.9862 119.229C62.6426 119.229 61.8487 118.639 61.5026 117.583L59.1005 118.965C59.9148 120.997 61.8487 121.972 63.9862 121.972C66.6734 121.972 69.0755 120.346 69.0755 117.298C69.0755 115.205 67.6709 113.782 65.8184 113.234Z" fill="#00D0B2"/>
<path d="M73.9895 118.883H71.1395L70.3252 124.533H72.4627L73.9895 118.883Z" fill="#00D0B2"/>
<path d="M75.5432 121.688H85.0703V118.985H79.7164L82.5053 116.201C83.8489 114.859 84.8464 113.376 84.8464 111.649C84.8464 108.803 82.5868 107.178 80.1439 107.178C78.21 107.178 76.3575 108.153 75.4414 110.185L77.8028 111.567C78.271 110.551 79.0853 109.901 80.1846 109.901C81.2635 109.901 82.0371 110.612 82.0371 111.75C82.0371 112.705 81.3246 113.64 80.4085 114.595L75.5432 119.595V121.688Z" fill="#00D0B2"/>
<path d="M86.3579 121.688H95.8851V118.985H90.5311L93.3201 116.201C94.6636 114.859 95.6611 113.376 95.6611 111.649C95.6611 108.803 93.4015 107.178 90.9586 107.178C89.0247 107.178 87.1722 108.153 86.2561 110.185L88.6176 111.567C89.0858 110.551 89.9001 109.901 90.9994 109.901C92.0783 109.901 92.8519 110.612 92.8519 111.75C92.8519 112.705 92.1394 113.64 91.2233 114.595L86.3579 119.595V121.688Z" fill="#00D0B2"/>
<path d="M102.166 112.075L105.322 107.462H102.105L97.6674 114.148C97.1381 114.941 96.8328 115.916 96.8328 117.014C96.8328 119.92 98.9296 121.972 101.983 121.972C105.037 121.972 107.154 119.92 107.154 117.014C107.154 114.169 105.118 112.157 102.166 112.075ZM101.983 119.33C100.66 119.33 99.6217 118.456 99.6217 117.014C99.6217 115.571 100.66 114.717 101.983 114.717C103.306 114.717 104.365 115.591 104.365 117.014C104.365 118.456 103.306 119.33 101.983 119.33Z" fill="#00D0B2"/>
<path d="M343.724 86.0213H340.31V95.2678H341.832V92.0976H343.724C345.47 92.0976 346.794 90.7634 346.794 89.0594C346.794 87.3422 345.47 86.0213 343.724 86.0213ZM343.724 90.671H341.832V87.4479H343.724C344.624 87.4479 345.272 88.1216 345.272 89.0594C345.272 89.9841 344.624 90.671 343.724 90.671Z" fill="#4C5363"/>
<path d="M349.322 89.7727V88.6631H347.893V95.2678H349.322V91.9391C349.322 90.4596 350.42 90.0237 351.36 90.0898V88.5443C350.526 88.5443 349.719 88.8745 349.322 89.7727Z" fill="#4C5363"/>
<path d="M355.228 95.4395C357.173 95.4395 358.722 93.9205 358.722 91.9655C358.722 89.9973 357.173 88.4914 355.228 88.4914C353.296 88.4914 351.735 89.9973 351.735 91.9655C351.735 93.9205 353.296 95.4395 355.228 95.4395ZM355.228 94.0526C354.064 94.0526 353.164 93.1675 353.164 91.9655C353.164 90.7634 354.064 89.8784 355.228 89.8784C356.393 89.8784 357.293 90.7634 357.293 91.9655C357.293 93.1675 356.393 94.0526 355.228 94.0526Z" fill="#4C5363"/>
<path d="M363.576 90.0369V88.6631H361.936V86.8138L360.506 87.2365V88.6631H359.289V90.0369H360.506V93.2072C360.506 94.9244 361.38 95.532 363.576 95.2678V93.9865C362.491 94.0393 361.936 94.0525 361.936 93.2072V90.0369H363.576Z" fill="#4C5363"/>
<path d="M365.726 92.5731H370.992C371.019 92.3882 371.045 92.1768 371.045 91.9787C371.045 90.0765 369.695 88.4914 367.724 88.4914C365.646 88.4914 364.231 90.0105 364.231 91.9655C364.231 93.9469 365.646 95.4395 367.83 95.4395C369.126 95.4395 370.119 94.8979 370.728 93.9997L369.55 93.3128C369.232 93.7752 368.637 94.1318 367.843 94.1318C366.784 94.1318 365.951 93.6034 365.726 92.5731ZM365.713 91.4107C365.911 90.42 366.639 89.7859 367.711 89.7859C368.571 89.7859 369.404 90.2747 369.603 91.4107H365.713Z" fill="#4C5363"/>
<path d="M375.387 95.4395C376.683 95.4395 377.808 94.7659 378.364 93.7223L377.133 93.0222C376.816 93.6299 376.167 94.0393 375.373 94.0393C374.209 94.0393 373.322 93.1543 373.322 91.9655C373.322 90.7766 374.209 89.8916 375.373 89.8916C376.167 89.8916 376.816 90.2879 377.107 90.9087L378.337 90.1954C377.808 89.1651 376.683 88.4914 375.387 88.4914C373.389 88.4914 371.893 89.9973 371.893 91.9655C371.893 93.9205 373.389 95.4395 375.387 95.4395Z" fill="#4C5363"/>
<path d="M383.089 90.0369V88.6631H381.448V86.8138L380.019 87.2365V88.6631H378.801V90.0369H380.019V93.2072C380.019 94.9244 380.892 95.532 383.089 95.2678V93.9865C382.004 94.0393 381.448 94.0525 381.448 93.2072V90.0369H383.089Z" fill="#4C5363"/>
<path d="M385.238 92.5731H390.504C390.531 92.3882 390.557 92.1768 390.557 91.9787C390.557 90.0765 389.208 88.4914 387.236 88.4914C385.159 88.4914 383.743 90.0105 383.743 91.9655C383.743 93.9469 385.159 95.4395 387.342 95.4395C388.639 95.4395 389.631 94.8979 390.24 93.9997L389.062 93.3128C388.745 93.7752 388.149 94.1318 387.355 94.1318C386.297 94.1318 385.463 93.6034 385.238 92.5731ZM385.225 91.4107C385.423 90.42 386.151 89.7859 387.223 89.7859C388.083 89.7859 388.917 90.2747 389.115 91.4107H385.225Z" fill="#4C5363"/>
<path d="M397.016 86.0213V89.601C396.513 88.9141 395.732 88.4914 394.7 88.4914C392.901 88.4914 391.406 89.9973 391.406 91.9655C391.406 93.9205 392.901 95.4395 394.7 95.4395C395.732 95.4395 396.513 95.0168 397.016 94.3167V95.2678H398.445V86.0213H397.016ZM394.925 94.079C393.734 94.079 392.835 93.1939 392.835 91.9655C392.835 90.737 393.734 89.852 394.925 89.852C396.116 89.852 397.016 90.737 397.016 91.9655C397.016 93.1939 396.116 94.079 394.925 94.079Z" fill="#4C5363"/>
<path d="M404.133 87.6724C404.636 87.6724 405.046 87.2497 405.046 86.761C405.046 86.259 404.636 85.8496 404.133 85.8496C403.631 85.8496 403.22 86.259 403.22 86.761C403.22 87.2497 403.631 87.6724 404.133 87.6724ZM403.419 95.2678H404.848V88.6631H403.419V95.2678Z" fill="#4C5363"/>
<path d="M409.987 88.4914C409.087 88.4914 408.373 88.8217 407.936 89.5085V88.6631H406.507V95.2678H407.936V91.7277C407.936 90.3804 408.677 89.8256 409.617 89.8256C410.517 89.8256 411.099 90.3539 411.099 91.3578V95.2678H412.528V91.2125C412.528 89.4953 411.469 88.4914 409.987 88.4914Z" fill="#4C5363"/>
<path d="M415.35 90.486C415.35 90.0105 415.8 89.7859 416.316 89.7859C416.859 89.7859 417.322 90.0237 417.56 90.5389L418.764 89.8652C418.301 88.9934 417.401 88.4914 416.316 88.4914C414.966 88.4914 413.895 89.2708 413.895 90.5125C413.895 92.8769 417.454 92.2165 417.454 93.3921C417.454 93.9205 416.964 94.1318 416.329 94.1318C415.601 94.1318 415.072 93.7752 414.86 93.1807L413.63 93.894C414.053 94.8451 415.006 95.4395 416.329 95.4395C417.758 95.4395 418.91 94.7262 418.91 93.4053C418.91 90.9616 415.35 91.6881 415.35 90.486Z" fill="#4C5363"/>
<path d="M423.599 90.0369V88.6631H421.958V86.8138L420.529 87.2365V88.6631H419.312V90.0369H420.529V93.2072C420.529 94.9244 421.403 95.532 423.599 95.2678V93.9865C422.514 94.0393 421.958 94.0525 421.958 93.2072V90.0369H423.599Z" fill="#4C5363"/>
<path d="M429.864 88.6631V89.601C429.361 88.9141 428.58 88.4914 427.548 88.4914C425.749 88.4914 424.253 89.9973 424.253 91.9655C424.253 93.9205 425.749 95.4395 427.548 95.4395C428.58 95.4395 429.361 95.0168 429.864 94.3167V95.2678H431.293V88.6631H429.864ZM427.773 94.079C426.582 94.079 425.682 93.1939 425.682 91.9655C425.682 90.737 426.582 89.852 427.773 89.852C428.964 89.852 429.864 90.737 429.864 91.9655C429.864 93.1939 428.964 94.079 427.773 94.079Z" fill="#4C5363"/>
<path d="M432.959 95.2678H434.388V85.625H432.959V95.2678Z" fill="#4C5363"/>
<path d="M436.047 95.2678H437.476V85.625H436.047V95.2678Z" fill="#4C5363"/>
<path d="M440.38 90.486C440.38 90.0105 440.83 89.7859 441.346 89.7859C441.888 89.7859 442.352 90.0237 442.59 90.5389L443.794 89.8652C443.331 88.9934 442.431 88.4914 441.346 88.4914C439.996 88.4914 438.924 89.2708 438.924 90.5125C438.924 92.8769 442.484 92.2165 442.484 93.3921C442.484 93.9205 441.994 94.1318 441.359 94.1318C440.631 94.1318 440.102 93.7752 439.89 93.1807L438.66 93.894C439.083 94.8451 440.036 95.4395 441.359 95.4395C442.788 95.4395 443.939 94.7262 443.939 93.4053C443.939 90.9616 440.38 91.6881 440.38 90.486Z" fill="#4C5363"/>
<path d="M361.509 107.462L357.764 108.783L358.456 111.181L361.143 110.429V121.688H363.952V107.462H361.509Z" fill="#4C4FEE"/>
<path d="M376.934 116.668H375.408V113.295H372.578V116.668H368.873L373.596 107.462H370.583L365.84 116.668V119.269H372.578V121.688H375.408V119.269H376.934V116.668Z" fill="#4C4FEE"/>
<path d="M384.407 113.234L387.074 109.779V107.462H378.117V110.084H383.695L380.885 113.742L381.964 115.368H382.575C384.041 115.368 384.855 116.16 384.855 117.298C384.855 118.456 384.041 119.229 382.575 119.229C381.231 119.229 380.437 118.639 380.091 117.583L377.689 118.965C378.504 120.997 380.437 121.972 382.575 121.972C385.262 121.972 387.664 120.346 387.664 117.298C387.664 115.205 386.26 113.782 384.407 113.234Z" fill="#4C4FEE"/>
<path d="M392.578 118.883H389.728L388.914 124.533H391.051L392.578 118.883Z" fill="#4C4FEE"/>
<path d="M394.132 121.688H403.659V118.985H398.305L401.094 116.201C402.438 114.859 403.435 113.376 403.435 111.649C403.435 108.803 401.176 107.178 398.733 107.178C396.799 107.178 394.946 108.153 394.03 110.185L396.392 111.567C396.86 110.551 397.674 109.901 398.773 109.901C399.852 109.901 400.626 110.612 400.626 111.75C400.626 112.705 399.913 113.64 398.997 114.595L394.132 119.595V121.688Z" fill="#4C4FEE"/>
<path d="M404.947 121.688H414.474V118.985H409.12L411.909 116.201C413.252 114.859 414.25 113.376 414.25 111.649C414.25 108.803 411.99 107.178 409.547 107.178C407.613 107.178 405.761 108.153 404.845 110.185L407.206 111.567C407.675 110.551 408.489 109.901 409.588 109.901C410.667 109.901 411.441 110.612 411.441 111.75C411.441 112.705 410.728 113.64 409.812 114.595L404.947 119.595V121.688Z" fill="#4C4FEE"/>
<path d="M420.755 112.075L423.91 107.462H420.694L416.256 114.148C415.727 114.941 415.422 115.916 415.422 117.014C415.422 119.92 417.518 121.972 420.572 121.972C423.625 121.972 425.743 119.92 425.743 117.014C425.743 114.169 423.707 112.157 420.755 112.075ZM420.572 119.33C419.249 119.33 418.21 118.456 418.21 117.014C418.21 115.571 419.249 114.717 420.572 114.717C421.895 114.717 422.954 115.591 422.954 117.014C422.954 118.456 421.895 119.33 420.572 119.33Z" fill="#4C4FEE"/>
<path d="M183.333 95.4395C185.265 95.4395 186.614 94.4092 186.614 92.7184C186.614 90.8823 185.066 90.4068 183.531 89.918C182.182 89.4953 181.666 89.1915 181.666 88.4782C181.666 87.7781 182.235 87.329 183.121 87.329C184.153 87.329 184.735 87.8838 185.066 88.6235L186.35 87.8838C185.768 86.6553 184.643 85.8496 183.121 85.8496C181.56 85.8496 180.144 86.8138 180.144 88.5178C180.144 90.2615 181.547 90.7898 182.989 91.2258C184.365 91.6485 185.093 91.9259 185.093 92.7448C185.093 93.4185 184.577 93.9601 183.373 93.9601C182.116 93.9601 181.401 93.3392 181.07 92.4014L179.76 93.1675C180.25 94.5413 181.507 95.4395 183.333 95.4395Z" fill="#4C5363"/>
<path d="M192.305 88.6631V92.2032C192.305 93.5506 191.564 94.1054 190.625 94.1054C189.725 94.1054 189.143 93.577 189.143 92.5731V88.6631H187.713V92.7184C187.713 94.4356 188.772 95.4395 190.254 95.4395C191.154 95.4395 191.868 95.1093 192.305 94.4224V95.2678H193.734V88.6631H192.305Z" fill="#4C5363"/>
<path d="M196.65 90.486C196.65 90.0105 197.1 89.7859 197.616 89.7859C198.158 89.7859 198.621 90.0237 198.86 90.5389L200.064 89.8652C199.601 88.9934 198.701 88.4914 197.616 88.4914C196.266 88.4914 195.194 89.2708 195.194 90.5125C195.194 92.8769 198.754 92.2165 198.754 93.3921C198.754 93.9205 198.264 94.1318 197.629 94.1318C196.901 94.1318 196.372 93.7752 196.16 93.1807L194.93 93.894C195.353 94.8451 196.306 95.4395 197.629 95.4395C199.058 95.4395 200.209 94.7262 200.209 93.4053C200.209 90.9616 196.65 91.6881 196.65 90.486Z" fill="#4C5363"/>
<path d="M205.21 88.4914C204.178 88.4914 203.397 88.9141 202.895 89.6142V88.6631H201.466V97.9097H202.895V94.3299C203.397 95.0168 204.178 95.4395 205.21 95.4395C207.01 95.4395 208.505 93.9337 208.505 91.9655C208.505 90.0105 207.01 88.4914 205.21 88.4914ZM204.985 94.079C203.794 94.079 202.895 93.1939 202.895 91.9655C202.895 90.737 203.794 89.852 204.985 89.852C206.176 89.852 207.076 90.737 207.076 91.9655C207.076 93.1939 206.176 94.079 204.985 94.079Z" fill="#4C5363"/>
<path d="M210.515 87.6724C211.018 87.6724 211.428 87.2497 211.428 86.761C211.428 86.259 211.018 85.8496 210.515 85.8496C210.012 85.8496 209.602 86.259 209.602 86.761C209.602 87.2497 210.012 87.6724 210.515 87.6724ZM209.8 95.2678H211.229V88.6631H209.8V95.2678Z" fill="#4C5363"/>
<path d="M216.011 95.4395C217.308 95.4395 218.433 94.7659 218.989 93.7223L217.758 93.0222C217.44 93.6299 216.792 94.0393 215.998 94.0393C214.834 94.0393 213.947 93.1543 213.947 91.9655C213.947 90.7766 214.834 89.8916 215.998 89.8916C216.792 89.8916 217.44 90.2879 217.732 90.9087L218.962 90.1954C218.433 89.1651 217.308 88.4914 216.011 88.4914C214.013 88.4914 212.518 89.9973 212.518 91.9655C212.518 93.9205 214.013 95.4395 216.011 95.4395Z" fill="#4C5363"/>
<path d="M220.736 87.6724C221.239 87.6724 221.649 87.2497 221.649 86.761C221.649 86.259 221.239 85.8496 220.736 85.8496C220.233 85.8496 219.823 86.259 219.823 86.761C219.823 87.2497 220.233 87.6724 220.736 87.6724ZM220.022 95.2678H221.451V88.6631H220.022V95.2678Z" fill="#4C5363"/>
<path d="M226.233 95.4395C228.178 95.4395 229.726 93.9205 229.726 91.9655C229.726 89.9973 228.178 88.4914 226.233 88.4914C224.301 88.4914 222.739 89.9973 222.739 91.9655C222.739 93.9205 224.301 95.4395 226.233 95.4395ZM226.233 94.0526C225.068 94.0526 224.168 93.1675 224.168 91.9655C224.168 90.7634 225.068 89.8784 226.233 89.8784C227.397 89.8784 228.297 90.7634 228.297 91.9655C228.297 93.1675 227.397 94.0526 226.233 94.0526Z" fill="#4C5363"/>
<path d="M235.477 88.6631V92.2032C235.477 93.5506 234.736 94.1054 233.797 94.1054C232.897 94.1054 232.315 93.577 232.315 92.5731V88.6631H230.886V92.7184C230.886 94.4356 231.944 95.4395 233.426 95.4395C234.326 95.4395 235.041 95.1093 235.477 94.4224V95.2678H236.906V88.6631H235.477Z" fill="#4C5363"/>
<path d="M239.822 90.486C239.822 90.0105 240.272 89.7859 240.788 89.7859C241.331 89.7859 241.794 90.0237 242.032 90.5389L243.236 89.8652C242.773 88.9934 241.873 88.4914 240.788 88.4914C239.439 88.4914 238.367 89.2708 238.367 90.5125C238.367 92.8769 241.926 92.2165 241.926 93.3921C241.926 93.9205 241.437 94.1318 240.802 94.1318C240.074 94.1318 239.544 93.7752 239.333 93.1807L238.102 93.894C238.526 94.8451 239.478 95.4395 240.802 95.4395C242.231 95.4395 243.382 94.7262 243.382 93.4053C243.382 90.9616 239.822 91.6881 239.822 90.486Z" fill="#4C5363"/>
<path d="M248.661 87.6724C249.163 87.6724 249.574 87.2497 249.574 86.761C249.574 86.259 249.163 85.8496 248.661 85.8496C248.158 85.8496 247.748 86.259 247.748 86.761C247.748 87.2497 248.158 87.6724 248.661 87.6724ZM247.946 95.2678H249.375V88.6631H247.946V95.2678Z" fill="#4C5363"/>
<path d="M254.514 88.4914C253.615 88.4914 252.9 88.8217 252.463 89.5085V88.6631H251.034V95.2678H252.463V91.7277C252.463 90.3804 253.204 89.8256 254.144 89.8256C255.044 89.8256 255.626 90.3539 255.626 91.3578V95.2678H257.055V91.2125C257.055 89.4953 255.996 88.4914 254.514 88.4914Z" fill="#4C5363"/>
<path d="M259.877 90.486C259.877 90.0105 260.327 89.7859 260.843 89.7859C261.386 89.7859 261.849 90.0237 262.087 90.5389L263.291 89.8652C262.828 88.9934 261.928 88.4914 260.843 88.4914C259.494 88.4914 258.422 89.2708 258.422 90.5125C258.422 92.8769 261.981 92.2165 261.981 93.3921C261.981 93.9205 261.492 94.1318 260.856 94.1318C260.129 94.1318 259.599 93.7752 259.388 93.1807L258.157 93.894C258.581 94.8451 259.533 95.4395 260.856 95.4395C262.286 95.4395 263.437 94.7262 263.437 93.4053C263.437 90.9616 259.877 91.6881 259.877 90.486Z" fill="#4C5363"/>
<path d="M268.126 90.0369V88.6631H266.486V86.8138L265.056 87.2365V88.6631H263.839V90.0369H265.056V93.2072C265.056 94.9244 265.93 95.532 268.126 95.2678V93.9865C267.041 94.0393 266.486 94.0526 266.486 93.2072V90.0369H268.126Z" fill="#4C5363"/>
<path d="M274.391 88.6631V89.601C273.888 88.9141 273.107 88.4914 272.075 88.4914C270.276 88.4914 268.781 89.9973 268.781 91.9655C268.781 93.9205 270.276 95.4395 272.075 95.4395C273.107 95.4395 273.888 95.0168 274.391 94.3167V95.2678H275.82V88.6631H274.391ZM272.3 94.079C271.109 94.079 270.21 93.1939 270.21 91.9655C270.21 90.737 271.109 89.852 272.3 89.852C273.491 89.852 274.391 90.737 274.391 91.9655C274.391 93.1939 273.491 94.079 272.3 94.079Z" fill="#4C5363"/>
<path d="M277.486 95.2678H278.915V85.625H277.486V95.2678Z" fill="#4C5363"/>
<path d="M280.574 95.2678H282.003V85.625H280.574V95.2678Z" fill="#4C5363"/>
<path d="M284.907 90.486C284.907 90.0105 285.357 89.7859 285.873 89.7859C286.416 89.7859 286.879 90.0237 287.117 90.5389L288.321 89.8652C287.858 88.9934 286.958 88.4914 285.873 88.4914C284.523 88.4914 283.452 89.2708 283.452 90.5125C283.452 92.8769 287.011 92.2165 287.011 93.3921C287.011 93.9205 286.522 94.1318 285.886 94.1318C285.159 94.1318 284.629 93.7752 284.418 93.1807L283.187 93.894C283.61 94.8451 284.563 95.4395 285.886 95.4395C287.315 95.4395 288.467 94.7262 288.467 93.4053C288.467 90.9616 284.907 91.6881 284.907 90.486Z" fill="#4C5363"/>
<path d="M202.483 121.688H212.011V118.985H206.657L209.446 116.201C210.789 114.859 211.787 113.376 211.787 111.649C211.787 108.803 209.527 107.178 207.084 107.178C205.15 107.178 203.298 108.153 202.382 110.185L204.743 111.567C205.211 110.551 206.026 109.901 207.125 109.901C208.204 109.901 208.977 110.612 208.977 111.75C208.977 112.705 208.265 113.64 207.349 114.595L202.483 119.595V121.688Z" fill="#FF783F"/>
<path d="M213.298 121.688H222.825V118.985H217.471L220.26 116.201C221.604 114.859 222.601 113.376 222.601 111.649C222.601 108.803 220.342 107.178 217.899 107.178C215.965 107.178 214.113 108.153 213.196 110.185L215.558 111.567C216.026 110.551 216.84 109.901 217.94 109.901C219.019 109.901 219.792 110.612 219.792 111.75C219.792 112.705 219.08 113.64 218.164 114.595L213.298 119.595V121.688Z" fill="#FF783F"/>
<path d="M227.235 107.462L223.489 108.783L224.181 111.181L226.868 110.429V121.688H229.678V107.462H227.235Z" fill="#FF783F"/>
<path d="M235.799 118.883H232.949L232.135 124.533H234.273L235.799 118.883Z" fill="#FF783F"/>
<path d="M240.773 107.462L237.027 108.783L237.719 111.181L240.407 110.429V121.688H243.216V107.462H240.773Z" fill="#FF783F"/>
<path d="M253.592 114.29C254.508 113.64 255.078 112.665 255.078 111.344C255.078 108.6 252.961 107.178 250.457 107.178C247.953 107.178 245.816 108.6 245.816 111.344C245.816 112.665 246.406 113.64 247.302 114.29C246.06 115.042 245.348 116.282 245.348 117.725C245.348 120.346 247.282 121.972 250.457 121.972C253.613 121.972 255.567 120.346 255.567 117.725C255.567 116.282 254.854 115.042 253.592 114.29ZM250.457 109.82C251.516 109.82 252.289 110.429 252.289 111.486C252.289 112.522 251.516 113.173 250.457 113.173C249.399 113.173 248.625 112.522 248.625 111.486C248.625 110.429 249.399 109.82 250.457 109.82ZM250.457 119.33C249.114 119.33 248.137 118.639 248.137 117.359C248.137 116.099 249.114 115.408 250.457 115.408C251.801 115.408 252.778 116.099 252.778 117.359C252.778 118.639 251.801 119.33 250.457 119.33Z" fill="#FF783F"/>
<path d="M261.847 112.644H260.381L260.564 110.084H266.04V107.462H257.958L257.388 115.368H261.704C263.088 115.368 263.903 116.16 263.903 117.298C263.903 118.456 263.088 119.229 261.623 119.229C260.198 119.229 259.404 118.619 259.058 117.522L256.656 118.924C257.47 120.997 259.404 121.972 261.623 121.972C264.31 121.972 266.712 120.346 266.712 117.298C266.712 114.25 264.452 112.644 261.847 112.644Z" fill="#FF783F"/>
<path d="M505.722 93.8187V91.3222H509.427V89.8824H505.722V87.4783H509.758V86.0252H504.201V95.2718H509.824V93.8187H505.722Z" fill="#4C5363"/>
<path d="M512.408 90.49C512.408 90.0145 512.858 89.7899 513.374 89.7899C513.917 89.7899 514.38 90.0277 514.618 90.5428L515.822 89.8692C515.359 88.9973 514.459 88.4954 513.374 88.4954C512.025 88.4954 510.953 89.2747 510.953 90.5164C510.953 92.8809 514.512 92.2204 514.512 93.396C514.512 93.9244 514.023 94.1358 513.387 94.1358C512.66 94.1358 512.13 93.7791 511.919 93.1847L510.688 93.898C511.112 94.8491 512.064 95.4435 513.387 95.4435C514.817 95.4435 515.968 94.7302 515.968 93.4093C515.968 90.9655 512.408 91.692 512.408 90.49Z" fill="#4C5363"/>
<path d="M520.657 90.0409V88.6671H519.017V86.8178L517.587 87.2405V88.6671H516.37V90.0409H517.587V93.2111C517.587 94.9283 518.461 95.536 520.657 95.2718V93.9905C519.572 94.0433 519.017 94.0565 519.017 93.2111V90.0409H520.657Z" fill="#4C5363"/>
<path d="M522.878 95.4303C523.421 95.4303 523.871 94.9812 523.871 94.4396C523.871 93.8848 523.421 93.4489 522.878 93.4489C522.322 93.4489 521.886 93.8848 521.886 94.4396C521.886 94.9812 522.322 95.4303 522.878 95.4303Z" fill="#4C5363"/>
<path d="M531.821 95.4435C533.118 95.4435 534.243 94.7698 534.799 93.7263L533.568 93.0262C533.251 93.6338 532.602 94.0433 531.808 94.0433C530.644 94.0433 529.757 93.1583 529.757 91.9694C529.757 90.7806 530.644 89.8956 531.808 89.8956C532.602 89.8956 533.251 90.2919 533.542 90.9127L534.772 90.1994C534.243 89.1691 533.118 88.4954 531.821 88.4954C529.823 88.4954 528.328 90.0012 528.328 91.9694C528.328 93.9244 529.823 95.4435 531.821 95.4435Z" fill="#4C5363"/>
<path d="M538.851 95.4435C540.796 95.4435 542.344 93.9244 542.344 91.9694C542.344 90.0012 540.796 88.4954 538.851 88.4954C536.919 88.4954 535.358 90.0012 535.358 91.9694C535.358 93.9244 536.919 95.4435 538.851 95.4435ZM538.851 94.0565C537.687 94.0565 536.787 93.1715 536.787 91.9694C536.787 90.7674 537.687 89.8824 538.851 89.8824C540.016 89.8824 540.915 90.7674 540.915 91.9694C540.915 93.1715 540.016 94.0565 538.851 94.0565Z" fill="#4C5363"/>
<path d="M544.791 90.49C544.791 90.0145 545.241 89.7899 545.757 89.7899C546.299 89.7899 546.762 90.0277 547.001 90.5428L548.205 89.8692C547.742 88.9973 546.842 88.4954 545.757 88.4954C544.407 88.4954 543.335 89.2747 543.335 90.5164C543.335 92.8809 546.895 92.2204 546.895 93.396C546.895 93.9244 546.405 94.1358 545.77 94.1358C545.042 94.1358 544.513 93.7791 544.301 93.1847L543.071 93.898C543.494 94.8491 544.447 95.4435 545.77 95.4435C547.199 95.4435 548.35 94.7302 548.35 93.4093C548.35 90.9655 544.791 91.692 544.791 90.49Z" fill="#4C5363"/>
<path d="M553.04 90.0409V88.6671H551.399V86.8178L549.97 87.2405V88.6671H548.753V90.0409H549.97V93.2111C549.97 94.9283 550.843 95.536 553.04 95.2718V93.9905C551.955 94.0433 551.399 94.0565 551.399 93.2111V90.0409H553.04Z" fill="#4C5363"/>
<path d="M558.992 90.49C558.992 90.0145 559.442 89.7899 559.958 89.7899C560.501 89.7899 560.964 90.0277 561.202 90.5428L562.406 89.8692C561.943 88.9973 561.043 88.4954 559.958 88.4954C558.608 88.4954 557.537 89.2747 557.537 90.5164C557.537 92.8809 561.096 92.2204 561.096 93.396C561.096 93.9244 560.606 94.1358 559.971 94.1358C559.244 94.1358 558.714 93.7791 558.503 93.1847L557.272 93.898C557.695 94.8491 558.648 95.4435 559.971 95.4435C561.4 95.4435 562.552 94.7302 562.552 93.4093C562.552 90.9655 558.992 91.692 558.992 90.49Z" fill="#4C5363"/>
<path d="M568.88 88.6671V89.605C568.377 88.9181 567.596 88.4954 566.564 88.4954C564.765 88.4954 563.269 90.0012 563.269 91.9694C563.269 93.9244 564.765 95.4435 566.564 95.4435C567.596 95.4435 568.377 95.0208 568.88 94.3207V95.2718H570.309V88.6671H568.88ZM566.789 94.0829C565.598 94.0829 564.698 93.1979 564.698 91.9694C564.698 90.741 565.598 89.8559 566.789 89.8559C567.98 89.8559 568.88 90.741 568.88 91.9694C568.88 93.1979 567.98 94.0829 566.789 94.0829Z" fill="#4C5363"/>
<path d="M576.46 88.6671L574.621 93.6867L572.768 88.6671H571.207L573.787 95.2718H575.441L578.022 88.6671H576.46Z" fill="#4C5363"/>
<path d="M579.641 87.6764C580.144 87.6764 580.554 87.2537 580.554 86.765C580.554 86.263 580.144 85.8535 579.641 85.8535C579.138 85.8535 578.728 86.263 578.728 86.765C578.728 87.2537 579.138 87.6764 579.641 87.6764ZM578.927 95.2718H580.356V88.6671H578.927V95.2718Z" fill="#4C5363"/>
<path d="M585.495 88.4954C584.595 88.4954 583.881 88.8256 583.444 89.5125V88.6671H582.015V95.2718H583.444V91.7317C583.444 90.3843 584.185 89.8295 585.124 89.8295C586.024 89.8295 586.606 90.3579 586.606 91.3618V95.2718H588.036V91.2165C588.036 89.4993 586.977 88.4954 585.495 88.4954Z" fill="#4C5363"/>
<path d="M594.841 88.6671V89.6446C594.338 88.9313 593.557 88.4954 592.538 88.4954C590.673 88.4954 589.204 90.0145 589.204 91.9034C589.204 93.7923 590.673 95.3114 592.538 95.3114C593.557 95.3114 594.338 94.8755 594.841 94.1622V94.968C594.841 96.1172 594.1 96.7908 592.869 96.7908C591.718 96.7908 591.228 96.3417 590.937 95.7737L589.707 96.487C590.262 97.5438 591.387 98.0854 592.843 98.0854C594.576 98.0854 596.243 97.0947 596.243 94.968V88.6671H594.841ZM592.737 93.9773C591.533 93.9773 590.633 93.0922 590.633 91.9034C590.633 90.7146 591.533 89.8295 592.737 89.8295C593.941 89.8295 594.841 90.7146 594.841 91.9034C594.841 93.0922 593.941 93.9773 592.737 93.9773Z" fill="#4C5363"/>
<path d="M599.154 90.49C599.154 90.0145 599.604 89.7899 600.12 89.7899C600.662 89.7899 601.125 90.0277 601.364 90.5428L602.568 89.8692C602.105 88.9973 601.205 88.4954 600.12 88.4954C598.77 88.4954 597.698 89.2747 597.698 90.5164C597.698 92.8809 601.258 92.2204 601.258 93.396C601.258 93.9244 600.768 94.1358 600.133 94.1358C599.405 94.1358 598.876 93.7791 598.664 93.1847L597.434 93.898C597.857 94.8491 598.81 95.4435 600.133 95.4435C601.562 95.4435 602.713 94.7302 602.713 93.4093C602.713 90.9655 599.154 91.692 599.154 90.49Z" fill="#4C5363"/>
<path d="M521.071 121.692H530.598V118.989H525.244L528.033 116.205C529.377 114.863 530.374 113.38 530.374 111.652C530.374 108.807 528.115 107.182 525.672 107.182C523.738 107.182 521.886 108.157 520.969 110.189L523.331 111.571C523.799 110.555 524.613 109.905 525.713 109.905C526.792 109.905 527.565 110.616 527.565 111.754C527.565 112.709 526.853 113.644 525.937 114.599L521.071 119.598V121.692Z" fill="#FFB400"/>
<path d="M531.886 121.692H541.413V118.989H536.059L538.848 116.205C540.192 114.863 541.189 113.38 541.189 111.652C541.189 108.807 538.93 107.182 536.487 107.182C534.553 107.182 532.7 108.157 531.784 110.189L534.146 111.571C534.614 110.555 535.428 109.905 536.527 109.905C537.606 109.905 538.38 110.616 538.38 111.754C538.38 112.709 537.667 113.644 536.751 114.599L531.886 119.598V121.692Z" fill="#FFB400"/>
<path d="M545.823 107.466L542.077 108.787L542.769 111.185L545.456 110.433V121.692H548.265V107.466H545.823Z" fill="#FFB400"/>
<path d="M554.387 118.887H551.537L550.723 124.537H552.86L554.387 118.887Z" fill="#FFB400"/>
<path d="M559.361 107.466L555.615 108.787L556.307 111.185L558.994 110.433V121.692H561.804V107.466H559.361Z" fill="#FFB400"/>
<path d="M572.18 114.294C573.096 113.644 573.666 112.669 573.666 111.348C573.666 108.604 571.549 107.182 569.045 107.182C566.541 107.182 564.404 108.604 564.404 111.348C564.404 112.669 564.994 113.644 565.89 114.294C564.648 115.046 563.935 116.286 563.935 117.729C563.935 120.35 565.869 121.976 569.045 121.976C572.2 121.976 574.155 120.35 574.155 117.729C574.155 116.286 573.442 115.046 572.18 114.294ZM569.045 109.824C570.104 109.824 570.877 110.433 570.877 111.49C570.877 112.526 570.104 113.177 569.045 113.177C567.987 113.177 567.213 112.526 567.213 111.49C567.213 110.433 567.987 109.824 569.045 109.824ZM569.045 119.334C567.702 119.334 566.724 118.643 566.724 117.363C566.724 116.103 567.702 115.412 569.045 115.412C570.389 115.412 571.366 116.103 571.366 117.363C571.366 118.643 570.389 119.334 569.045 119.334Z" fill="#FFB400"/>
<path d="M580.434 112.648H578.969L579.152 110.088H584.628V107.466H576.546L575.976 115.371H580.292C581.676 115.371 582.491 116.164 582.491 117.302C582.491 118.46 581.676 119.233 580.211 119.233C578.786 119.233 577.992 118.623 577.646 117.526L575.243 118.928C576.058 121.001 577.992 121.976 580.211 121.976C582.898 121.976 585.3 120.35 585.3 117.302C585.3 114.254 583.04 112.648 580.434 112.648Z" fill="#FFB400"/>
</svg>
