<svg width="80" height="46" viewBox="0 0 80 46" fill="none" xmlns="http://www.w3.org/2000/svg">
<path d="M13.429 6.60199C13.429 6.60199 13.4702 6.71628 13.5363 6.91058C13.517 6.802 13.4978 6.69057 13.4757 6.57913L13.429 6.60199Z" fill="#2A3544"/>
<path d="M13.429 6.60199C13.429 6.60199 13.4702 6.71628 13.5363 6.91058C13.517 6.802 13.4978 6.69057 13.4757 6.57913L13.429 6.60199Z" fill="#2A3544"/>
<path d="M13.429 6.60199C13.429 6.60199 13.4702 6.71628 13.5363 6.91058C13.517 6.802 13.4978 6.69057 13.4757 6.57913L13.429 6.60199Z" fill="#2A3544"/>
<path d="M67.0273 17.4006H55.3972C55.6461 17.4989 55.8702 17.6547 56.0526 17.8561C56.2367 18.0587 56.3902 18.2891 56.5078 18.5394C56.6296 18.7958 56.7217 19.0663 56.7821 19.3452C56.8263 19.5513 56.8548 19.7607 56.8671 19.9715V27.1634C56.8448 27.4037 56.7998 27.6412 56.7327 27.8723C56.659 28.1272 56.5578 28.3727 56.4311 28.6041C56.3059 28.8317 56.1549 29.0429 55.9813 29.2333C55.812 29.4213 55.6148 29.5799 55.3972 29.703H62.2941C62.0211 29.6305 61.7702 29.4875 61.5646 29.2874C61.3689 29.0952 61.2074 28.8687 61.0875 28.6183C60.962 28.3589 60.8742 28.0816 60.827 27.7955C60.7756 27.5014 60.7499 27.2032 60.7502 26.9043V24.1369C61.1423 24.1369 61.5125 24.1369 61.8471 24.1739C62.1703 24.1933 62.4873 24.2744 62.7822 24.4131C63.0664 24.553 63.3124 24.7644 63.4979 25.0281C63.7287 25.379 63.8848 25.7769 63.9559 26.1954V20.5694C63.8094 20.9595 63.6159 21.3288 63.38 21.6684C63.2009 21.9079 62.9723 22.1026 62.7109 22.2379C62.4446 22.3711 62.1559 22.4494 61.8608 22.4685C61.5427 22.4941 61.1697 22.5083 60.7392 22.5083V19.1402L62.8453 19.1544C63.1716 19.1544 63.5117 19.1544 63.8627 19.2C64.209 19.2309 64.5522 19.2928 64.8883 19.385C65.2209 19.4769 65.5414 19.6108 65.8426 19.7836C66.1474 19.9601 66.4172 20.1948 66.6379 20.4755C66.719 20.5809 66.7941 20.6912 66.8627 20.8058C66.932 20.9232 66.9838 21.0509 67.0163 21.1844L67.0273 17.4006Z" fill="#2A3544"/>
<path d="M68.1377 17.4006V22.0613C68.1958 21.5779 68.3745 21.1186 68.656 20.7289C68.9214 20.3722 69.2534 20.0749 69.6322 19.8548C70.0165 19.6309 70.4348 19.4768 70.869 19.3993C71.3014 19.3186 71.7423 19.2985 72.1798 19.3395V27.3115C72.1635 27.5133 72.1267 27.7127 72.0701 27.9065C71.9881 28.1868 71.8641 28.452 71.7027 28.6923C71.5454 28.9267 71.3539 29.1342 71.135 29.3073C70.9137 29.4883 70.6616 29.6245 70.3919 29.7088H77.7659C77.4661 29.6539 77.1837 29.5239 76.9432 29.3301C76.708 29.1418 76.5081 28.9102 76.3536 28.6468C76.1925 28.3777 76.0714 28.085 75.9944 27.7784C75.916 27.4699 75.8763 27.1522 75.8764 26.8331V19.3452H76.2412C76.5477 19.3518 76.8532 19.3852 77.1544 19.4448C77.5423 19.5149 77.9195 19.6384 78.2759 19.8121C78.6679 20.0053 79.0171 20.2806 79.3016 20.6207C79.6332 21.0179 79.8525 21.5028 79.935 22.0215V17.4006H68.1377Z" fill="#2A3544"/>
<path d="M48.4531 29.071C48.2768 29.2483 48.0751 29.3962 47.8553 29.5095C47.6578 29.6063 47.5317 29.6717 47.4768 29.7031H55.4185C55.2881 29.6722 55.1632 29.6204 55.0483 29.5493C54.9332 29.4797 54.8223 29.4027 54.7165 29.3187C54.4337 29.0991 54.1793 28.8427 53.9596 28.5557C53.7489 28.2782 53.5652 27.9797 53.4112 27.6645C53.2459 27.3267 53.103 26.9776 52.9834 26.6196L52.4048 24.7462L51.6287 22.2151L50.1259 17.4006H43.5444C43.7526 17.4575 43.9527 17.5427 44.1395 17.654C44.3095 17.7649 44.4636 17.9 44.5974 18.0554C44.7553 18.2418 44.8665 18.4658 44.921 18.7074C44.9677 18.9307 44.9677 19.1618 44.921 19.385C44.8753 19.6095 44.8139 19.8303 44.7373 20.0456C44.5545 20.5789 44.4119 21.0022 44.3095 21.3154C44.2793 21.4093 44.2464 21.4976 44.2135 21.583L43.0234 24.9512L42.7299 25.8053C42.5983 26.1868 42.4557 26.5797 42.2857 26.9897C42.1157 27.3997 41.9484 27.7841 41.7674 28.1428C41.6362 28.4253 41.4632 28.6847 41.2546 28.9116C41.098 29.0544 40.9341 29.1884 40.7637 29.313C40.5937 29.4354 40.4593 29.5265 40.3633 29.5977C40.307 29.6298 40.253 29.666 40.2015 29.7059H46.1222C45.6962 29.6051 45.3195 29.3483 45.0609 28.9827C44.8055 28.598 44.6661 28.1431 44.6605 27.6759C44.6668 27.5307 44.6879 27.3866 44.7236 27.246C44.7675 27.0609 44.8168 26.873 44.8799 26.6766C44.943 26.4801 45.0033 26.3036 45.0691 26.1299C45.1349 25.9562 45.1815 25.8224 45.209 25.7285H48.5381C48.5655 25.811 48.6039 25.9278 48.6505 26.0758C48.6972 26.2239 48.7465 26.3748 48.7986 26.5285C48.8507 26.6822 48.8946 26.8303 48.9385 26.9755C48.9824 27.1207 49.0098 27.226 49.029 27.2972C49.1186 27.644 49.0935 28.0119 48.9577 28.3421C48.837 28.617 48.6656 28.8646 48.4531 29.071V29.071ZM45.5737 24.2736L46.7529 20.2876L47.9897 24.2736H45.5737Z" fill="#2A3544"/>
<path d="M36.6343 23.5646C36.9237 23.4203 37.1886 23.2279 37.4186 22.9952L37.4926 22.9155C37.6012 22.7974 37.702 22.6718 37.7943 22.5397L37.8299 22.4884C38.159 22.0101 38.5868 21.1873 38.4579 20.2705C38.4377 19.922 38.3559 19.5804 38.2166 19.2626C38.1305 19.0731 38.0296 18.8912 37.9149 18.7188C37.7327 18.438 37.4918 18.2034 37.2102 18.0326C36.9195 17.8573 36.6078 17.7223 36.2833 17.6312C35.9545 17.5392 35.6187 17.4772 35.2796 17.4461C34.9368 17.4177 34.6214 17.4006 34.3307 17.4006H26.5947C26.8673 17.4688 27.1202 17.6035 27.3325 17.7937C27.5447 17.9839 27.7102 18.2239 27.8151 18.4939C27.9828 18.896 28.0642 19.3313 28.0536 19.7694V20.5837V26.8872C28.0526 27.1641 28.0222 27.4401 27.9631 27.7101C27.9004 27.9892 27.8085 28.2603 27.6889 28.5186C27.5739 28.7718 27.4222 29.0051 27.2392 29.2105C27.0578 29.4148 26.8411 29.5819 26.6002 29.7031H33.2722C33.1406 29.6518 32.998 29.5835 32.8417 29.5038C32.6763 29.4117 32.5271 29.2914 32.4002 29.1479C32.2435 28.966 32.1174 28.7581 32.0272 28.5329C31.9065 28.2131 31.8334 27.8762 31.8106 27.5335C31.7636 26.9712 31.7444 26.4067 31.753 25.8423C31.764 25.2729 31.7694 24.7092 31.7694 24.1511H32.8197C34.5776 28.6496 35.1891 29.7059 36.9332 29.7059H40.7861C39.4972 29.7059 37.8107 26.3178 36.6343 23.5646V23.5646ZM31.5528 22.4713V19.2142C31.8983 19.2142 32.2411 19.2142 32.5839 19.1886C32.8938 19.1709 33.2043 19.2075 33.5026 19.2968C33.7695 19.3801 34.0021 19.5534 34.1635 19.7893C34.3563 20.1255 34.4444 20.5153 34.4158 20.9054C34.4435 21.2708 34.3464 21.6347 34.1415 21.9332C33.9632 22.1583 33.72 22.318 33.4477 22.3888C33.1448 22.467 32.8328 22.5006 32.5208 22.4884C32.1835 22.477 31.8599 22.4713 31.5528 22.4713V22.4713Z" fill="#2A3544"/>
<path d="M28.7831 3.10907C28.2799 3.37076 27.8532 3.76751 27.5475 4.25814C27.2418 4.74878 27.0681 5.31543 27.0445 5.89927C26.6478 5.58833 26.1795 5.39079 25.6863 5.32635C25.1931 5.26191 24.6922 5.33281 24.2337 5.53199C24.2703 5.66801 24.3162 5.8012 24.3708 5.93059C24.5372 6.34394 24.787 6.71541 25.1035 7.01993C25.42 7.32445 25.7958 7.55493 26.2054 7.69581C25.7649 8.44745 25.1761 9.0937 24.4777 9.59201C24.1786 9.80259 23.8317 9.92823 23.4713 9.95644C23.0139 10.0098 22.5517 9.91544 22.1478 9.68616C21.7439 9.45688 21.418 9.10386 21.2144 8.67523C21.0474 9.01084 20.8049 9.29969 20.5075 9.51727C20.2101 9.73486 19.8665 9.87476 19.5059 9.92512C19.1155 9.97751 18.7187 9.9164 18.3597 9.7486C18.2225 9.66034 18.0854 9.56923 17.9565 9.46389C17.1718 8.8603 16.5387 8.06923 16.111 7.1577C15.9344 6.7816 15.793 6.3888 15.6887 5.98468H15.738C16.202 5.92502 16.6456 5.75164 17.0323 5.47887C17.419 5.2061 17.7377 4.84176 17.962 4.41591C18.0134 4.32363 18.0601 4.22859 18.1019 4.1312C18.0224 4.06571 17.9401 4.00592 17.8551 3.94898C17.5066 3.71938 17.1139 3.57162 16.7047 3.51605C16.2954 3.46048 15.8794 3.49843 15.4857 3.62725C15.3952 3.65573 15.3047 3.69274 15.2115 3.72975C15.2417 2.59089 14.4574 0.882613 13.4976 0.244854C13.3755 0.167765 13.2492 0.0983597 13.1191 0.0370131L13.0341 0L12.9765 0.0825673C12.9008 0.189218 12.8312 0.300452 12.7681 0.415682C12.2005 1.47197 12.3568 3.36532 12.8888 4.35043C12.7928 4.35043 12.6968 4.38175 12.6146 4.40452C12.2088 4.50522 11.8281 4.69371 11.4973 4.95767C11.1665 5.22162 10.8931 5.55509 10.6949 5.93628C10.6435 6.02856 10.5968 6.1236 10.5551 6.221C10.6347 6.28591 10.7181 6.34581 10.8046 6.40037C11.1955 6.65531 11.6405 6.80703 12.1008 6.84227C12.5612 6.87751 13.0228 6.79519 13.4455 6.60251L13.4921 6.57974C13.5772 6.99177 13.625 7.41119 13.6347 7.83248C13.6587 8.74868 13.499 9.66005 13.1658 10.5088C13.1658 10.5088 13.1658 10.5088 13.1658 10.4917C13.1658 10.4746 13.1466 10.5543 13.1383 10.5857C13.1054 10.6682 13.0725 10.7479 13.0369 10.8277C12.9491 11.0156 12.8559 11.2035 12.7626 11.3971C12.5199 11.7348 12.194 11.9984 11.8193 12.1601C11.4882 12.3031 11.1281 12.3582 10.7714 12.3204C10.4147 12.2826 10.0727 12.1532 9.77628 11.9437C9.78099 12.431 9.64718 12.9089 9.39158 13.3176C9.13598 13.7263 8.76996 14.0476 8.33932 14.2414C8.1399 14.3277 7.92914 14.3824 7.71407 14.4037C6.77424 14.3849 5.85396 14.1216 5.03759 13.6378C5.3328 13.2987 5.55807 12.9005 5.69955 12.4677C5.84103 12.0348 5.89573 11.5765 5.86028 11.1209C5.86028 10.9786 5.83012 10.7138 5.80544 10.5771C4.77982 10.7195 3.93245 11.716 3.50465 12.2598C2.937 11.7217 1.89492 10.7593 0.762357 10.8561C0.498253 10.9009 0.241588 10.9843 0 11.1038C1.2677 12.1504 2.47117 13.2781 3.60337 14.4805C4.40687 15.3347 5.18019 16.2258 5.91513 17.1455C6.94075 18.4295 8.69033 21.0204 8.69033 21.0204C8.90423 21.3507 9.78725 21.7778 10.3741 21.7123C10.4131 21.7051 10.4486 21.6842 10.4746 21.6531C10.5005 21.622 10.5154 21.5826 10.5167 21.5414C10.5167 21.4731 10.418 21.4333 10.3631 21.4048C10.1503 21.3203 9.96118 21.182 9.81276 21.0026C9.66433 20.8231 9.56132 20.6081 9.51302 20.377C9.18394 19.2381 12.2718 17.2053 16.7856 15.9497C21.2994 14.6941 24.9275 14.8478 25.1359 16.0152C25.1929 16.2478 25.1965 16.4911 25.1465 16.7255C25.0965 16.9599 24.9942 17.1788 24.8479 17.3647C24.8095 17.4188 24.7328 17.5099 24.7711 17.5668C24.7898 17.6027 24.8205 17.6303 24.8573 17.6444C24.8941 17.6586 24.9347 17.6583 24.9713 17.6437C25.5198 17.3875 26.1012 16.5533 26.145 16.1518C26.145 16.1518 26.6304 12.9402 26.9677 11.2747C27.209 10.0789 27.497 8.89446 27.8288 7.73283C28.3028 6.07907 28.8715 4.45616 29.5318 2.87276C29.2728 2.91476 29.0208 2.99431 28.7831 3.10907V3.10907Z" fill="#2A3544"/>
<path d="M12.8337 18.4531C15.2659 17.3156 17.8408 16.5411 20.482 16.1526C20.482 16.1526 25.6074 16.7049 25.6074 23.2904C25.6074 29.8758 21.3047 33.6397 15.4883 33.6397C9.67188 33.6397 6.59229 30.8267 6.59229 27.8344C6.59229 24.8421 8.55851 24.3609 9.47169 24.3609C10.3849 24.3609 12.0385 25.2663 12.0385 27.6123C12.0385 27.6123 10.3931 27.171 10.3931 28.7284C10.3931 30.2858 12.3401 31.2595 15.0084 31.2595C17.6766 31.2595 21.4418 29.9783 21.4418 24.2755C21.4418 18.1911 18.8695 17.9207 17.0843 17.9207V28.3554C17.0943 28.6049 17.1975 28.8405 17.3721 29.0122C17.5467 29.1839 17.7789 29.2782 18.0194 29.275C18.0194 29.275 17.0788 30.1434 14.7506 30.1434C12.4224 30.1434 11.7615 29.3263 11.7615 29.3263C11.7615 29.3263 12.8584 29.3263 12.8584 28.2672C12.8584 27.208 12.8337 18.4531 12.8337 18.4531V18.4531Z" fill="#2A3544"/>
<path d="M77.3467 40.2639C77.2761 40.0304 77.1843 39.8045 77.0724 39.5891C76.8843 39.2247 76.6201 38.9085 76.2991 38.6638C76.2607 38.6297 76.2223 38.6012 76.1839 38.5727C76.0083 38.4409 75.8251 38.3201 75.6355 38.2111C74.311 37.4395 72.9535 37.4367 71.8648 37.1548C71.6919 37.111 71.5216 37.0568 71.3548 36.9925C71.2917 36.9669 71.2314 36.9385 71.1738 36.91C70.9419 36.7958 70.7268 36.6482 70.5348 36.4715C70.3615 36.3073 70.2393 36.0932 70.1838 35.8565C70.1533 35.7602 70.1424 35.6583 70.1519 35.5573C70.1613 35.4563 70.1908 35.3585 70.2387 35.27C70.3786 35.035 70.5657 34.834 70.7871 34.6807C71.0218 34.5182 71.2801 34.3961 71.5522 34.3191C71.8431 34.2348 72.1443 34.1955 72.4462 34.2023C72.7573 34.2077 73.0663 34.2566 73.3649 34.3476C73.7084 34.4429 74.0441 34.5667 74.3685 34.7177C74.603 34.8313 74.8223 34.9758 75.0212 35.1476C75.1175 35.2374 75.209 35.3324 75.2954 35.4323L75.6026 35.7427L75.9481 36.1185C76.0743 36.258 76.2223 36.4231 76.417 36.6196V32.1125C76.417 32.1125 76.1044 32.9667 74.8512 32.9667C74.5015 32.9554 74.1527 32.9241 73.8064 32.8727C73.4499 32.8129 73.0906 32.7475 72.7259 32.682C72.3219 32.6123 71.9122 32.5837 71.5028 32.5966C70.9394 32.5954 70.3787 32.6788 69.8383 32.8443C69.3187 32.9987 68.8308 33.2505 68.3986 33.5874C67.9763 33.9257 67.6309 34.3563 67.3867 34.8487C67.1227 35.4111 66.9929 36.0312 67.0082 36.6566C66.9834 37.1953 67.098 37.7311 67.34 38.2083C67.5119 38.5238 67.7271 38.8115 67.979 39.0624L68.0037 39.0852L68.0859 39.1621L68.2203 39.2816C69.1308 40.0447 70.4142 40.4205 71.9032 40.7878L71.9855 40.8077C72.1391 40.8447 72.2899 40.8874 72.4435 40.9358C72.7295 41.0214 73.0054 41.1398 73.2661 41.2889C73.4782 41.4082 73.6648 41.5709 73.8146 41.7672C73.8779 41.8492 73.9212 41.9459 73.9408 42.049C73.9604 42.1521 73.9557 42.2586 73.927 42.3594C73.8952 42.531 73.8287 42.6936 73.7317 42.8364C73.6348 42.9793 73.5098 43.0991 73.3649 43.1879C73.0744 43.3587 72.7494 43.4562 72.416 43.4726C72.0563 43.4942 71.6954 43.4635 71.3438 43.3815C71.024 43.3107 70.7096 43.2155 70.4032 43.0968C69.7933 42.8503 69.2134 42.5302 68.6755 42.143C68.3149 41.8723 67.974 41.5744 67.6554 41.2519C67.3154 40.8992 67.0163 40.5065 66.7642 40.0817V45.4542C66.7642 45.4542 67.2633 45.05 68.5 44.8848C68.6975 44.8483 68.8973 44.8274 69.0979 44.8222C69.4039 44.8195 69.7095 44.8452 70.011 44.8991C70.3166 44.9558 70.6188 45.0309 70.916 45.124C71.2367 45.2134 71.5629 45.28 71.8923 45.3233C72.2208 45.3635 72.5514 45.3834 72.8822 45.3831C73.4429 45.382 74.0015 45.3132 74.5468 45.1781C75.0851 45.0473 75.5948 44.8126 76.0496 44.4862C76.5021 44.157 76.8771 43.7258 77.1465 43.2249C77.4432 42.6349 77.5833 41.9736 77.5523 41.3088C77.5177 40.9542 77.4488 40.6042 77.3467 40.2639V40.2639Z" fill="#2A3544"/>
<path d="M51.3931 35.4343C51.3931 35.2378 51.3931 35.03 51.4232 34.8022C51.4404 34.579 51.4771 34.3579 51.5329 34.1417C51.5874 33.9335 51.6657 33.7327 51.766 33.5438C51.8646 33.3603 51.9958 33.198 52.1527 33.0655C52.3109 32.9309 52.4998 32.8407 52.7012 32.8035H47.5456C47.8323 32.8212 48.1056 32.9351 48.3245 33.1281C48.5299 33.3167 48.6928 33.55 48.8016 33.8114C48.9217 34.0933 49.0029 34.3914 49.0429 34.6969C49.083 34.9921 49.1041 35.2899 49.106 35.588V41.0944L44.2741 32.8064H38.444C38.7295 32.8141 39.0033 32.9259 39.2173 33.1224C39.4165 33.3174 39.5703 33.5569 39.667 33.8228C39.7717 34.11 39.8426 34.4092 39.8782 34.714C39.9126 35.0049 39.931 35.2977 39.933 35.5909C39.933 35.7142 39.933 35.8965 39.933 36.1375V41.9656C39.933 42.2247 39.933 42.4809 39.9111 42.74C39.9111 42.9365 39.8892 43.1358 39.87 43.3408C39.851 43.5415 39.8134 43.7398 39.7575 43.933C39.7006 44.1195 39.6204 44.2976 39.5189 44.4626C39.4124 44.6294 39.2732 44.771 39.1103 44.8782C39.0706 44.9052 39.0283 44.9281 38.9842 44.9466C38.927 44.9728 38.8684 44.9956 38.8087 45.0149L38.6469 45.0775C38.6198 45.0913 38.5913 45.1018 38.5619 45.1089H43.605C43.4651 45.0263 43.3444 44.9523 43.2457 44.8868C43.147 44.8213 43.051 44.7416 42.9523 44.6562C42.8633 44.578 42.7807 44.4923 42.7055 44.3999C42.4857 44.1041 42.3414 43.7555 42.2859 43.3863C42.2218 43.0161 42.1888 42.6408 42.1872 42.2646V36.855L46.9396 45.1117H52.6984C52.497 45.0745 52.3082 44.9843 52.15 44.8498C51.9931 44.7182 51.8619 44.5569 51.7633 44.3743C51.6629 44.1843 51.5847 43.9827 51.5302 43.7735C51.4744 43.5573 51.4377 43.3362 51.4205 43.113C51.4013 42.8881 51.3903 42.6774 51.3903 42.4809V35.4343H51.3931Z" fill="#2A3544"/>
<path d="M35.9927 40.2164V35.3393C36.0002 35.1188 36.0221 34.899 36.0585 34.6816C36.1014 34.4073 36.1817 34.1408 36.2971 33.8901C36.4105 33.6485 36.5679 33.4319 36.7605 33.2523C36.9783 33.0552 37.2306 32.9034 37.5037 32.8054H30.7905C31.0683 32.8902 31.3235 33.0402 31.5365 33.2438C31.7577 33.4925 31.9317 33.7822 32.0493 34.0979C32.2214 34.5792 32.2998 35.0912 32.2796 35.6041V42.0585C32.2796 42.2635 32.2796 42.5112 32.2659 42.7988C32.2728 43.2044 32.1912 43.6064 32.0273 43.9747C31.9047 44.2411 31.7355 44.4815 31.5282 44.6836C31.4934 44.7162 31.4568 44.7466 31.4185 44.7747C29.7732 44.043 28.0565 42.2322 26.7868 40.0599C26.0382 38.7815 25.1963 37.0874 24.4915 35.6098C25.1524 34.7044 25.7859 33.8616 26.2959 33.2182C27.2802 32.1726 28.5359 31.4466 29.9103 31.1284H24.4257C24.4257 31.1284 24.9275 31.9142 24.2036 32.8737L20.5755 37.6796V33.7221L20.4603 33.7762C20.304 33.8474 20.1422 33.9129 19.9749 33.9755C19.4753 34.1659 18.963 34.3182 18.442 34.4311C18.2638 34.4709 18.0773 34.5079 17.8935 34.5421C17.504 34.6206 17.1102 34.6748 16.7144 34.7044V41.9048L16.6897 42.46C16.6897 42.6052 16.6623 42.7447 16.6403 42.9098C16.5957 43.2481 16.51 43.5791 16.3853 43.895C16.2659 44.1918 16.0906 44.4609 15.8697 44.6865C15.6296 44.9196 15.3241 45.0672 14.9977 45.1078H22.0262C21.7347 45.0427 21.474 44.8747 21.2885 44.6324C21.0862 44.3682 20.9336 44.0668 20.8388 43.7441C20.7258 43.3736 20.6505 42.9919 20.6139 42.6052C20.5702 42.1986 20.5464 41.79 20.5426 41.3809C20.5426 41.3069 20.5426 41.2329 20.5426 41.1617C20.8168 40.7574 21.2556 40.1339 21.7711 39.3965C22.0454 39.9061 22.3443 40.4385 22.6514 40.9681C24.1048 43.485 25.2621 45.1164 27.1076 45.1164H37.468C37.1913 44.9946 36.9392 44.8198 36.7249 44.601C36.5055 44.351 36.3317 44.0615 36.2121 43.7469C36.0654 43.3684 35.9882 42.9648 35.9845 42.5568V40.2164H35.9927Z" fill="#2A3544"/>
<path d="M60.5202 39.0036C60.6999 39.1957 60.8259 39.4348 60.8849 39.6955C60.9502 39.9845 60.9779 40.2814 60.9671 40.5781V41.5547C60.9671 41.7198 60.9671 41.9106 60.9809 42.1241C60.9909 42.3371 60.9639 42.5502 60.9013 42.7533C60.8332 42.9581 60.7046 43.1355 60.5339 43.2601C60.2871 43.4165 59.9995 43.4891 59.7112 43.4679C59.3416 43.4866 58.9764 43.3785 58.6718 43.1604C58.406 42.9538 58.19 42.6857 58.0411 42.3775C57.8885 42.0598 57.7796 41.7215 57.7175 41.3724C57.3785 39.7853 57.3663 38.1417 57.6819 36.5494C57.751 36.2002 57.8693 35.8635 58.0329 35.55C58.1903 35.2531 58.4084 34.9956 58.6718 34.7956C58.9603 34.5869 59.3021 34.472 59.6536 34.4653C59.83 34.4553 60.007 34.4687 60.1801 34.5052C60.3666 34.5393 60.5421 34.5792 60.7066 34.619C61.5465 34.8175 62.344 35.1746 63.0595 35.6725C63.8822 36.2419 64.5266 36.8426 64.8091 37.6939V32.1335C64.7355 32.3864 64.6119 32.6206 64.4462 32.8212C64.2804 33.0217 64.0762 33.1841 63.8466 33.298C63.707 33.348 63.564 33.387 63.4188 33.4147H63.3145H63.2624C62.9867 33.4111 62.7117 33.3854 62.4398 33.3378C62.1408 33.2902 61.847 33.213 61.5622 33.1072C61.2688 32.999 60.9918 32.9108 60.7258 32.8396C60.4625 32.7656 60.1938 32.7142 59.9223 32.6858C59.6446 32.6539 59.3654 32.6377 59.0859 32.6374C58.5187 32.636 57.9533 32.7058 57.4022 32.8453C56.8724 32.9813 56.3638 33.1941 55.8912 33.4773C55.4216 33.761 54.997 34.1182 54.6325 34.5365C54.3346 34.8806 54.0811 35.2634 53.8783 35.6753C53.2389 37.3334 53.0603 39.1445 53.3628 40.9027C53.4392 41.2552 53.5428 41.6009 53.6727 41.9362C53.7385 42.107 53.8098 42.2693 53.8866 42.4287C54.1742 43.0328 54.5719 43.5732 55.0575 44.0203C55.5382 44.4558 56.0975 44.7877 56.7029 44.9969C57.3858 45.2265 58.1027 45.3277 58.8199 45.2958C59.1447 45.2852 59.467 45.2336 59.7797 45.1421C60.1052 45.0509 60.4342 44.9485 60.767 44.8346C61.0988 44.7235 61.4361 44.6153 61.7706 44.5128C62.0925 44.4125 62.4249 44.3532 62.7606 44.3363C63.0822 44.3215 63.4038 44.3628 63.7122 44.4587C64.0492 44.5728 64.3555 44.7679 64.6062 45.0282V41.324C64.6073 41.0516 64.6266 40.7795 64.6637 40.5098C64.702 40.2338 64.7711 39.9634 64.8694 39.704C64.965 39.4562 65.1045 39.2293 65.2808 39.0349C65.4618 38.8358 65.6881 38.687 65.9389 38.6022H59.6536C59.9756 38.6392 60.2785 38.7795 60.5202 39.0036V39.0036Z" fill="#2A3544"/>
</svg>
