<svg width="65" height="65" viewBox="0 0 65 65" fill="none" xmlns="http://www.w3.org/2000/svg">
<rect width="65" height="65" fill="white"/>
<g clip-path="url(#clip0_502_107)">
<path d="M59.1973 62.2932H5.78863C4.78382 62.2932 3.8202 61.8941 3.1097 61.1835C2.39919 60.473 2 59.5094 2 58.5046V31.4893C2 31.3352 2.03034 31.1826 2.0893 31.0403C2.14827 30.8979 2.23471 30.7685 2.34367 30.6596C2.45262 30.5506 2.582 30.4642 2.72435 30.4053C2.86671 30.3463 3.01929 30.3159 3.17337 30.3159H61.8125C62.1237 30.3159 62.4222 30.4395 62.6422 30.6596C62.8623 30.8796 62.9859 31.1781 62.9859 31.4893V58.5046C62.9859 59.5094 62.5867 60.473 61.8762 61.1835C61.1657 61.8941 60.2021 62.2932 59.1973 62.2932V62.2932ZM4.34666 32.6061V58.448C4.34666 58.823 4.49562 59.1825 4.76074 59.4476C5.02585 59.7128 5.3854 59.8617 5.76033 59.8617H59.169C59.5439 59.8617 59.9034 59.7128 60.1685 59.4476C60.4337 59.1825 60.5826 58.823 60.5826 58.448V32.6626L4.34666 32.6061Z" fill="#0F3384"/>
<path d="M61.8125 32.6623H3.17337C3.01929 32.6623 2.86671 32.6319 2.72435 32.573C2.582 32.514 2.45262 32.4276 2.34367 32.3186C2.23471 32.2096 2.14827 32.0803 2.0893 31.938C2.03034 31.7956 2 31.643 2 31.4889V22.8514C2 21.8466 2.39919 20.8829 3.1097 20.1724C3.8202 19.4619 4.78382 19.0627 5.78863 19.0627H59.1973C60.2021 19.0627 61.1657 19.4619 61.8762 20.1724C62.5867 20.8829 62.9859 21.8466 62.9859 22.8514V31.4889C62.9859 31.8001 62.8623 32.0986 62.6422 32.3186C62.4222 32.5387 62.1237 32.6623 61.8125 32.6623V32.6623ZM4.29014 30.3156H60.5826V22.8514C60.5826 22.4764 60.4337 22.1169 60.1685 21.8518C59.9034 21.5867 59.5439 21.4377 59.169 21.4377H5.78863C5.4137 21.4377 5.05415 21.5867 4.78904 21.8518C4.52392 22.1169 4.37496 22.4764 4.37496 22.8514L4.29014 30.3156Z" fill="#0F3384"/>
<path d="M45.0464 25.8625C45.0464 26.1645 44.9568 26.4597 44.7891 26.7108C44.6213 26.9618 44.3828 27.1575 44.1038 27.2731C43.8248 27.3886 43.5179 27.4189 43.2217 27.36C42.9256 27.3011 42.6535 27.1556 42.44 26.9421C42.2265 26.7286 42.081 26.4565 42.0221 26.1604C41.9632 25.8642 41.9935 25.5572 42.109 25.2782C42.2246 24.9993 42.4203 24.7608 42.6713 24.5931C42.9224 24.4253 43.2176 24.3358 43.5196 24.3358C43.7206 24.3339 43.92 24.372 44.1061 24.4481C44.2921 24.5242 44.4612 24.6366 44.6034 24.7787C44.7456 24.9209 44.8579 25.0899 44.934 25.276C45.01 25.4621 45.0483 25.6615 45.0464 25.8625V25.8625Z" fill="#0F3384"/>
<path d="M50.6304 25.8625C50.6304 26.1645 50.5407 26.4597 50.373 26.7108C50.2052 26.9618 49.9668 27.1575 49.6878 27.2731C49.4088 27.3886 49.1019 27.4189 48.8057 27.36C48.5096 27.3011 48.2375 27.1556 48.024 26.9421C47.8105 26.7286 47.665 26.4565 47.6061 26.1604C47.5472 25.8642 47.5774 25.5572 47.693 25.2782C47.8086 24.9993 48.0042 24.7608 48.2553 24.5931C48.5064 24.4253 48.8016 24.3358 49.1036 24.3358C49.3046 24.3339 49.504 24.372 49.69 24.4481C49.8761 24.5242 50.0452 24.6366 50.1874 24.7787C50.3295 24.9209 50.4419 25.0899 50.5179 25.276C50.594 25.4621 50.6323 25.6615 50.6304 25.8625Z" fill="#0F3384"/>
<path d="M56.2144 25.8629C56.2144 26.1649 56.1249 26.4601 55.9571 26.7112C55.7893 26.9623 55.5509 27.1579 55.2719 27.2735C54.9929 27.3891 54.686 27.4193 54.3898 27.3604C54.0937 27.3015 53.8216 27.156 53.6081 26.9425C53.3946 26.729 53.2491 26.4569 53.1902 26.1608C53.1313 25.8646 53.1616 25.5576 53.2771 25.2787C53.3927 24.9997 53.5883 24.7612 53.8394 24.5935C54.0905 24.4257 54.3857 24.3362 54.6877 24.3362C55.0926 24.3362 55.4809 24.497 55.7673 24.7833C56.0536 25.0697 56.2144 25.458 56.2144 25.8629V25.8629Z" fill="#0F3384"/>
<path d="M32.5636 32.6626C32.2524 32.6626 31.954 32.539 31.7339 32.319C31.5139 32.0989 31.3903 31.8005 31.3903 31.4893V5.15258C31.3903 4.84139 31.5139 4.54296 31.7339 4.32292C31.954 4.10287 32.2524 3.97925 32.5636 3.97925C32.8748 3.97925 33.1733 4.10287 33.3933 4.32292C33.6134 4.54296 33.737 4.84139 33.737 5.15258V31.4752C33.7389 31.6304 33.7099 31.7845 33.6518 31.9285C33.5936 32.0725 33.5075 32.2036 33.3983 32.314C33.2892 32.4245 33.1592 32.5122 33.0159 32.572C32.8726 32.6319 32.7189 32.6627 32.5636 32.6626V32.6626Z" fill="#0F3384"/>
<path d="M41.1304 12.9845C40.9758 12.9865 40.8223 12.9574 40.6791 12.8992C40.5358 12.8409 40.4057 12.7546 40.2963 12.6452L32.5636 4.84176L24.7601 12.6452C24.5389 12.8646 24.2396 12.9871 23.9281 12.9857C23.6166 12.9844 23.3184 12.8594 23.099 12.6382C22.8797 12.417 22.7572 12.1177 22.7586 11.8062C22.7599 11.4946 22.8849 11.1964 23.1061 10.9771L31.7295 2.35368C31.8386 2.24341 31.9685 2.15587 32.1117 2.09613C32.2549 2.03638 32.4084 2.00562 32.5636 2.00562C32.7187 2.00562 32.8723 2.03638 33.0154 2.09613C33.1586 2.15587 33.2886 2.24341 33.3977 2.35368L42.0211 10.9771C42.1313 11.0862 42.2189 11.2161 42.2786 11.3593C42.3384 11.5025 42.3691 11.656 42.3691 11.8112C42.3691 11.9663 42.3384 12.1199 42.2786 12.2631C42.2189 12.4062 42.1313 12.5361 42.0211 12.6452C41.9051 12.7617 41.7658 12.8521 41.6122 12.9106C41.4587 12.9691 41.2944 12.9943 41.1304 12.9845V12.9845Z" fill="#0F3384"/>
</g>
<defs>
<clipPath id="clip0_502_107">
<rect width="61" height="60.2932" fill="white" transform="translate(2 2)"/>
</clipPath>
</defs>
</svg>
