<svg width="94" height="23" viewBox="0 0 94 23" fill="none" xmlns="http://www.w3.org/2000/svg">
<path d="M29.0821 22.4047C27.8995 22.2814 26.3323 21.8461 25.4181 21.389C23.0166 20.1773 21.522 18.2256 20.8327 15.3815C20.7239 14.9244 20.7094 14.1844 20.6876 8.34374L20.6586 1.81386L20.8327 1.48737C21.0866 1.00126 21.5075 0.740061 22.0734 0.703784C22.574 0.667507 22.8642 0.776339 23.227 1.11734C23.7058 1.55267 23.6696 1.11734 23.7131 7.94469C23.7566 15.0332 23.7204 14.6052 24.4386 16.0417C25.5995 18.3562 28.1026 19.6042 31.0193 19.3284C33.595 19.089 35.6265 17.5654 36.4246 15.2727C36.8019 14.1844 36.7946 14.3512 36.8236 7.87939C36.8527 2.10408 36.8599 1.81386 36.9905 1.55267C37.3678 0.812616 38.3037 0.500633 39.022 0.870659C39.3268 1.03028 39.7331 1.52365 39.8201 1.85014C39.8782 2.05329 39.8927 4.005 39.8782 8.32923C39.8564 14.4455 39.8492 14.5181 39.6895 15.2944C38.8552 19.2486 36.1344 21.7082 31.8754 22.3467C31.2225 22.441 29.7496 22.4773 29.0821 22.4047Z" fill="#2C3543"/>
<path d="M80.4141 22.2016C77.9908 21.7953 76.0536 20.8231 74.4647 19.2269C73.565 18.3272 72.9483 17.4565 72.3896 16.3247C71.9108 15.338 71.6641 14.6269 71.4392 13.5749C71.2142 12.5011 71.2142 10.2664 71.4464 9.17811C72.2373 5.4053 74.6315 2.54666 78.2012 1.09558C78.4551 0.994001 79.0719 0.798104 79.5725 0.674762C80.4794 0.435333 80.5012 0.435333 82.1917 0.435333C83.679 0.442589 83.991 0.4571 84.6077 0.602208C87.5462 1.2552 89.8897 2.84413 91.4206 5.22391C93.619 8.6267 93.8076 12.9654 91.9212 16.5424C90.4266 19.3792 87.9307 21.3019 84.7311 22.071C84.0708 22.2306 83.7734 22.2596 82.4819 22.2814C81.4661 22.2959 80.8132 22.2741 80.4141 22.2016ZM83.7661 19.2994C85.9065 18.8931 87.7493 17.6162 88.8522 15.7805C90.0711 13.7418 90.3613 10.9484 89.585 8.64121C88.2572 4.66524 84.2522 2.48136 80.1964 3.51889C77.4394 4.22266 75.3353 6.42831 74.6823 9.2942C73.6303 13.9086 76.206 18.2837 80.5592 19.2631C81.3138 19.4373 82.9608 19.4518 83.7661 19.2994Z" fill="#2C3543"/>
<path d="M8.62179 22.1871C7.88174 22.1363 6.80068 21.9186 6.08965 21.6864C2.89726 20.6417 0.836725 18.2982 0.154716 14.9534C0.0531398 14.4455 0.0313735 13.5386 0.00960724 8.11154C-0.012159 3.69299 0.00235182 1.77031 0.0603952 1.5599C0.154716 1.20439 0.546508 0.754549 0.887513 0.587675C1.02537 0.522376 1.32284 0.471588 1.56227 0.471588C2.08466 0.471588 2.549 0.732783 2.82471 1.16811L2.99884 1.45107L3.03512 7.5819L3.07865 13.7127L3.27455 14.431C3.62281 15.7297 4.10892 16.5641 5.00859 17.4202C5.64707 18.0297 6.24201 18.3997 7.01109 18.6827C8.17921 19.1108 8.39687 19.1325 11.6691 19.1615C14.6293 19.1906 14.6873 19.1978 15.0066 19.3574C15.4346 19.5751 15.7466 20.0685 15.7829 20.5909C15.8264 21.135 15.5362 21.6864 15.0501 21.9839L14.6946 22.2016L11.8214 22.2088C10.2397 22.2088 8.80317 22.2016 8.62179 22.1871Z" fill="#2C3543"/>
<path d="M47.0028 21.5631C46.6328 21.389 46.4079 21.1931 46.2193 20.8666L46.0234 20.5328L46.0016 14.8736C45.9798 8.79357 46.0089 7.90115 46.3136 6.64596C47.148 3.22141 49.6438 0.914183 53.3876 0.130598C53.881 0.0290217 54.3453 0 55.7093 0C57.2257 0.00725542 57.4869 0.0217663 58.1036 0.166875C59.0831 0.406303 59.7869 0.652988 60.5342 1.03027C62.66 2.09682 64.1619 3.89616 64.8367 6.16711C65.243 7.55289 65.2502 7.65447 65.2502 14.3657V20.5328L65.0471 20.8811C64.9382 21.0697 64.7061 21.3164 64.5464 21.4253C64.2853 21.5921 64.1692 21.6211 63.7266 21.6211C63.284 21.6211 63.1679 21.5921 62.9067 21.4253C62.7471 21.3164 62.5149 21.0697 62.4061 20.8811L62.2029 20.5328L62.1667 14.3295C62.1376 10.9194 62.0941 8.04626 62.0651 7.94468C62.0361 7.84311 61.9418 7.55289 61.8619 7.2917C61.0203 4.62896 58.6696 3.011 55.6368 3.011C52.9233 3.011 50.7321 4.2807 49.6874 6.45732C49.1214 7.6327 49.1577 7.18286 49.1069 14.1481C49.0634 21.0117 49.0924 20.5909 48.6208 21.1495C48.2508 21.5921 47.4817 21.788 47.0028 21.5631Z" fill="#2C3543"/>
</svg>
