<svg width="50" height="36" viewBox="0 0 50 36" fill="none" xmlns="http://www.w3.org/2000/svg">
<path d="M0 1.24174H7.60101V21.6306C7.60101 24.8645 9.06566 26.7847 10.2525 27.5931C9.01515 28.6795 5.25253 29.6396 2.42424 27.3152C0.757576 25.9509 0 23.6771 0 21.5548V1.24174ZM47.4495 18.1946V16.047H49.7727V8.54333H47.2222C46.2374 4.02089 42.2222 0.660645 37.4242 0.660645C31.8939 0.660645 27.399 5.15782 27.399 10.6909V28.1995C28.9646 28.4269 30.8586 28.1742 32.4495 26.8352C34.1162 25.4709 34.8737 23.197 34.8737 21.0748V20.4179H38.6616V12.9142H34.8737V10.6403C34.8737 9.22548 36.0101 8.08856 37.4242 8.08856C38.8384 8.08856 39.9747 9.22548 39.9747 10.6403V18.1693C39.9747 23.7023 44.4697 28.1995 50 28.1995V20.7211C48.5859 20.7211 47.4495 19.5841 47.4495 18.1946ZM18.7121 8.51806V19.5589C18.7121 20.1905 18.1818 20.6958 17.5505 20.6958C16.9192 20.6958 16.3889 20.1905 16.3889 19.5589V8.51806H8.88889V21.479C8.88889 23.8034 9.67172 26.7594 13.2828 27.7195C16.8939 28.6795 18.9646 26.6836 18.9646 26.6836C18.7626 27.9974 17.5505 28.9575 15.5556 29.1596C14.0404 29.3112 12.1212 28.8059 11.1616 28.4016V35.2737C13.6111 36.0064 16.1869 36.2338 18.7374 35.7285C23.3333 34.8442 26.2374 31.0039 26.2374 25.8751V8.46753H18.7121V8.51806Z" fill="#2C3543"/>
</svg>
