<svg width="66" height="47" viewBox="0 0 66 47" fill="none" xmlns="http://www.w3.org/2000/svg">
<path d="M0.161011 1.58246H10.0731V27.9813C10.0731 32.1685 11.9831 34.6546 13.5309 35.7014C11.9172 37.108 7.01058 38.3511 3.32235 35.3416C1.14893 33.5751 0.161011 30.631 0.161011 27.8832V1.58246ZM62.0377 23.5324V20.7519H65.0673V11.0363H61.7413C60.457 5.18082 55.221 0.830078 48.9642 0.830078C41.7524 0.830078 35.8908 6.65287 35.8908 13.8169V36.4865C37.9325 36.7809 40.4023 36.4538 42.4769 34.72C44.6503 32.9536 45.6382 30.0095 45.6382 27.2616V26.4111H50.5778V16.6956H45.6382V13.7514C45.6382 11.9196 47.1201 10.4475 48.9642 10.4475C50.8083 10.4475 52.2902 11.9196 52.2902 13.7514V23.4997C52.2902 30.6637 58.1519 36.4865 65.3637 36.4865V26.8037C63.5196 26.8037 62.0377 25.3316 62.0377 23.5324ZM24.5626 11.0036V25.2989C24.5626 26.1167 23.8711 26.7709 23.0478 26.7709C22.2245 26.7709 21.533 26.1167 21.533 25.2989V11.0036H11.7526V27.785C11.7526 30.7946 12.7734 34.6219 17.4825 35.865C22.1916 37.108 24.8919 34.5238 24.8919 34.5238C24.6285 36.2248 23.0478 37.4679 20.4463 37.7296C18.4704 37.9258 15.9677 37.2716 14.7164 36.7482V45.6459C17.9106 46.5946 21.2696 46.889 24.5955 46.2348C30.5889 45.0898 34.3759 40.1176 34.3759 33.477V10.9382H24.5626V11.0036Z" fill="#2C3543"/>
</svg>
