<svg width="65" height="65" viewBox="0 0 65 65" fill="none" xmlns="http://www.w3.org/2000/svg">
<g clip-path="url(#clip0_1101_5628)">
<rect width="65" height="65" fill="white"/>
<path d="M54.3774 15.3595C52.983 15.3595 51.62 14.946 50.4607 14.1714C49.3013 13.3967 48.3977 12.2957 47.8642 11.0075C47.3306 9.7193 47.191 8.30181 47.463 6.93427C47.735 5.56673 48.4064 4.31057 49.3924 3.32463C50.3783 2.33869 51.6345 1.66725 53.002 1.39523C54.3696 1.12321 55.7871 1.26282 57.0752 1.79641C58.3634 2.33 59.4645 3.23359 60.2391 4.39294C61.0138 5.55228 61.4272 6.9153 61.4272 8.30963C61.425 10.1787 60.6815 11.9705 59.3599 13.2922C58.0383 14.6138 56.2464 15.3573 54.3774 15.3595V15.3595ZM54.3774 2.84045C53.2961 2.84046 52.2391 3.16095 51.34 3.76145C50.4408 4.36195 49.7398 5.21549 49.3255 6.21424C48.9113 7.21299 48.8024 8.31212 49.0125 9.37274C49.2227 10.4334 49.7426 11.4079 50.5064 12.1732C51.2702 12.9385 52.2437 13.4602 53.3039 13.6724C54.3642 13.8846 55.4635 13.7778 56.463 13.3655C57.4626 12.9532 58.3175 12.2538 58.9197 11.3558C59.5219 10.4578 59.8445 9.40142 59.8466 8.32017C59.8466 6.86868 59.2707 5.47649 58.2453 4.44915C57.2199 3.4218 55.8289 2.84325 54.3774 2.84045V2.84045Z" fill="#0F3384"/>
<path d="M39.3038 32.8361C37.9094 32.8365 36.5462 32.4234 35.3865 31.649C34.2269 30.8746 33.323 29.7737 32.7891 28.4855C32.2552 27.1974 32.1153 25.7798 32.387 24.4121C32.6588 23.0444 33.3301 21.7881 34.3159 20.8019C35.3018 19.8158 36.558 19.1441 37.9256 18.8719C39.2932 18.5998 40.7108 18.7392 41.9991 19.2728C43.2874 19.8063 44.3886 20.7099 45.1633 21.8693C45.938 23.0287 46.3516 24.3918 46.3516 25.7862C46.3499 27.6551 45.6069 29.4469 44.2856 30.7686C42.9643 32.0903 41.1727 32.8338 39.3038 32.8361ZM39.3038 20.317C38.2195 20.3145 37.1588 20.6338 36.256 21.2344C35.3532 21.835 34.6489 22.6899 34.2322 23.691C33.8155 24.692 33.7052 25.7942 33.9152 26.858C34.1252 27.9218 34.6461 28.8994 35.4119 29.667C36.1778 30.4346 37.1542 30.9577 38.2175 31.1702C39.2808 31.3827 40.3832 31.2749 41.3852 30.8605C42.3872 30.4462 43.2438 29.7438 43.8465 28.8424C44.4492 27.941 44.7709 26.8811 44.7709 25.7967C44.7709 24.3456 44.1953 22.9537 43.1704 21.9265C42.1455 20.8992 40.7549 20.3204 39.3038 20.317V20.317Z" fill="#0F3384"/>
<path d="M24.9807 18.5079C23.5863 18.5079 22.2233 18.0945 21.064 17.3198C19.9046 16.5452 19.001 15.4441 18.4674 14.1559C17.9338 12.8677 17.7942 11.4502 18.0663 10.0827C18.3383 8.71517 19.0097 7.459 19.9956 6.47306C20.9816 5.48712 22.2378 4.81569 23.6053 4.54367C24.9728 4.27165 26.3903 4.41126 27.6785 4.94485C28.9667 5.47843 30.0677 6.38203 30.8424 7.54138C31.617 8.70072 32.0305 10.0637 32.0305 11.4581C32.0283 13.3271 31.2848 15.119 29.9632 16.4406C28.6416 17.7622 26.8497 18.5057 24.9807 18.5079V18.5079ZM24.9807 5.991C23.8993 5.99308 22.8429 6.31567 21.9448 6.91799C21.0467 7.52031 20.3474 8.37533 19.9351 9.37499C19.5228 10.3747 19.4162 11.4741 19.6285 12.5344C19.8409 13.5947 20.3629 14.5682 21.1284 15.3319C21.8939 16.0957 22.8686 16.6153 23.9294 16.8253C24.9901 17.0352 26.0893 16.926 27.088 16.5114C28.0868 16.0968 28.9402 15.3955 29.5404 14.4961C30.1406 13.5966 30.4608 12.5394 30.4604 11.4581C30.457 10.0069 29.8782 8.61641 28.8509 7.5915C27.8236 6.56659 26.4318 5.991 24.9807 5.991V5.991Z" fill="#0F3384"/>
<path d="M10.108 39.0939C8.71349 39.0943 7.35018 38.6811 6.19052 37.9066C5.03085 37.1321 4.12692 36.0311 3.59308 34.7428C3.05923 33.4546 2.91944 32.0369 3.19139 30.6692C3.46335 29.3014 4.13482 28.0451 5.12089 27.059C6.10696 26.0729 7.36332 25.4015 8.73105 25.1295C10.0988 24.8575 11.5165 24.9973 12.8047 25.5312C14.093 26.065 15.194 26.969 15.9685 28.1286C16.743 29.2883 17.1562 30.6516 17.1558 32.0461C17.1535 33.9146 16.4103 35.7059 15.0891 37.0272C13.7678 38.3484 11.9765 39.0916 10.108 39.0939ZM10.108 26.5769C9.02621 26.5765 7.9686 26.8969 7.06892 27.4976C6.16924 28.0983 5.46791 28.9524 5.05364 29.9517C4.63937 30.951 4.53076 32.0507 4.74155 33.1118C4.95234 34.1729 5.47306 35.1476 6.23786 35.9127C7.00265 36.6777 7.97716 37.1988 9.03814 37.41C10.0991 37.6212 11.1989 37.5131 12.1984 37.0992C13.1979 36.6853 14.0521 35.9843 14.6532 35.0848C15.2543 34.1854 15.5751 33.1279 15.5751 32.0461C15.5723 30.5968 14.9955 29.2076 13.9709 28.1826C12.9462 27.1576 11.5573 26.5803 10.108 26.5769V26.5769Z" fill="#0F3384"/>
<path d="M50.1041 12.8263L43.2812 20.2812L44.4458 21.347L51.2686 13.892L50.1041 12.8263Z" fill="#0F3384"/>
<path d="M30.2396 15.0185L29.1273 16.1387L34.6475 21.6197L35.7598 20.4995L30.2396 15.0185Z" fill="#0F3384"/>
<path d="M20.7161 16.1014L13.2589 26.6152L14.5465 27.5285L22.0037 17.0146L20.7161 16.1014Z" fill="#0F3384"/>
<path d="M64.6437 64.9987H0.790343C0.580731 64.9987 0.379704 64.9154 0.231486 64.7672C0.0832674 64.619 0 64.4179 0 64.2083C0 63.9987 0.0832674 63.7977 0.231486 63.6495C0.379704 63.5012 0.580731 63.418 0.790343 63.418H64.6501C64.8597 63.418 65.0607 63.5012 65.2089 63.6495C65.3571 63.7977 65.4404 63.9987 65.4404 64.2083C65.4404 64.4179 65.3571 64.619 65.2089 64.7672C65.0607 64.9154 64.8597 64.9987 64.6501 64.9987H64.6437Z" fill="#0F3384"/>
<path d="M54.3771 64.9998C54.1675 64.9998 53.9665 64.9165 53.8183 64.7683C53.6701 64.6201 53.5868 64.419 53.5868 64.2094V24.0853C53.5868 23.8757 53.6701 23.6746 53.8183 23.5264C53.9665 23.3782 54.1675 23.2949 54.3771 23.2949C54.5867 23.2949 54.7878 23.3782 54.936 23.5264C55.0842 23.6746 55.1675 23.8757 55.1675 24.0853V64.2094C55.1675 64.419 55.0842 64.6201 54.936 64.7683C54.7878 64.9165 54.5867 64.9998 54.3771 64.9998Z" fill="#0F3384"/>
<path d="M39.3046 64.9971C39.095 64.9971 38.894 64.9138 38.7458 64.7656C38.5975 64.6174 38.5143 64.4163 38.5143 64.2067V39.3372C38.5143 39.1276 38.5975 38.9266 38.7458 38.7784C38.894 38.6301 39.095 38.5469 39.3046 38.5469C39.5142 38.5469 39.7153 38.6301 39.8635 38.7784C40.0117 38.9266 40.095 39.1276 40.095 39.3372V64.2067C40.095 64.4163 40.0117 64.6174 39.8635 64.7656C39.7153 64.9138 39.5142 64.9971 39.3046 64.9971Z" fill="#0F3384"/>
<path d="M24.9807 64.9988C24.771 64.9988 24.57 64.9156 24.4218 64.7674C24.2736 64.6191 24.1903 64.4181 24.1903 64.2085V30.9993C24.1903 30.7897 24.2736 30.5887 24.4218 30.4405C24.57 30.2923 24.771 30.209 24.9807 30.209C25.1903 30.209 25.3913 30.2923 25.5395 30.4405C25.6877 30.5887 25.771 30.7897 25.771 30.9993V64.2085C25.771 64.4181 25.6877 64.6191 25.5395 64.7674C25.3913 64.9156 25.1903 64.9988 24.9807 64.9988Z" fill="#0F3384"/>
<path d="M10.1082 64.997C9.8986 64.997 9.69758 64.9137 9.54936 64.7655C9.40114 64.6173 9.31787 64.4162 9.31787 64.2066V48.9857C9.31787 48.776 9.40114 48.575 9.54936 48.4268C9.69758 48.2786 9.8986 48.1953 10.1082 48.1953C10.3178 48.1953 10.5189 48.2786 10.6671 48.4268C10.8153 48.575 10.8986 48.776 10.8986 48.9857V64.2066C10.8986 64.4162 10.8153 64.6173 10.6671 64.7655C10.5189 64.9137 10.3178 64.997 10.1082 64.997Z" fill="#0F3384"/>
</g>
<defs>
<clipPath id="clip0_1101_5628">
<rect width="65" height="65" fill="white"/>
</clipPath>
</defs>
</svg>
