<svg width="130" height="29" viewBox="0 0 130 29" fill="none" xmlns="http://www.w3.org/2000/svg">
<path fill-rule="evenodd" clip-rule="evenodd" d="M0.0522461 0.490234H13.2532C13.2524 4.89566 13.2532 9.30108 13.2524 13.7065C8.85286 13.7065 4.45255 13.7065 0.0522461 13.7065V0.490234Z" fill="#2C3543"/>
<path fill-rule="evenodd" clip-rule="evenodd" d="M14.6011 0.490234H27.802C27.802 4.89566 27.8028 9.30108 27.8012 13.7065C23.4017 13.7057 19.0014 13.7065 14.6019 13.7065C14.6003 9.30108 14.6011 4.89566 14.6011 0.490234Z" fill="#2C3543"/>
<path fill-rule="evenodd" clip-rule="evenodd" d="M119.094 5.52579C120.311 4.73281 121.884 4.65899 123.255 5.03682C123.267 5.85282 123.257 6.66961 123.261 7.4864C122.609 7.19905 121.842 7.01172 121.157 7.29351C120.613 7.50942 120.289 8.06823 120.204 8.62705C120.102 9.33588 120.169 10.0542 120.151 10.767C121.543 10.7702 122.936 10.7678 124.328 10.7686C124.338 9.86374 124.317 8.95805 124.34 8.05315C125.287 7.78327 126.223 7.48084 127.165 7.19667C127.173 8.38891 127.154 9.58195 127.175 10.775C128.116 10.7615 129.058 10.7718 130 10.7686V13.0896C129.055 13.0507 128.109 13.0793 127.164 13.0761C127.168 14.4105 127.165 15.7448 127.166 17.0799C127.181 17.8189 127.126 18.5619 127.212 19.2985C127.265 19.7327 127.422 20.2137 127.829 20.4383C128.51 20.8201 129.374 20.6534 130 20.2343V22.5783C129.184 22.9332 128.272 23.0411 127.39 22.9784C126.553 22.9165 125.685 22.6117 125.139 21.9449C124.508 21.1916 124.345 20.1716 124.333 19.2175C124.326 17.1696 124.334 15.1217 124.33 13.0729C122.937 13.0722 121.543 13.0714 120.151 13.0737C120.15 16.2877 120.15 19.5017 120.15 22.7157C119.199 22.7157 118.247 22.7157 117.295 22.7157C117.295 19.5025 117.291 16.2901 117.297 13.0769C116.635 13.0642 115.972 13.0801 115.31 13.0666C115.312 12.3038 115.316 11.5402 115.309 10.7766C115.967 10.7615 116.627 10.7678 117.287 10.7726C117.336 9.75817 117.181 8.71436 117.484 7.72612C117.74 6.83392 118.309 6.02904 119.094 5.52579Z" fill="#2C3543"/>
<path fill-rule="evenodd" clip-rule="evenodd" d="M57.9674 5.69211C58.543 5.60479 59.1662 5.80165 59.5475 6.25251C59.9947 6.74623 60.0772 7.53206 59.7457 8.10914C59.3794 8.76003 58.5596 9.06245 57.8453 8.90608C57.104 8.77273 56.4864 8.08294 56.5197 7.31378C56.4983 6.50413 57.1745 5.7826 57.9674 5.69211Z" fill="#2C3543"/>
<path fill-rule="evenodd" clip-rule="evenodd" d="M36.0873 6.04654C37.4716 6.04654 38.8551 6.04654 40.2395 6.04654C41.5318 9.33195 42.8336 12.6142 44.1276 15.8996C44.4582 16.7212 44.7674 17.5522 45.1139 18.3674C46.7765 14.2621 48.4628 10.167 50.1128 6.05606C51.4439 6.03463 52.7759 6.0513 54.1079 6.04812C54.1047 11.6037 54.1063 17.1593 54.1071 22.7149C53.1462 22.7125 52.1861 22.7228 51.2259 22.7094C51.2362 18.6095 51.2251 14.5097 51.2307 10.4091C51.2323 10.2249 51.2259 10.0408 51.2132 9.85663C51.1569 9.94236 51.107 10.0313 51.0634 10.1233C49.4135 14.32 47.7318 18.5048 46.0914 22.7054C45.408 22.73 44.7238 22.707 44.0396 22.7181C42.3373 18.5214 40.6565 14.3152 38.963 10.1154C38.9186 10.0281 38.871 9.94315 38.8195 9.86139C38.7846 11.6577 38.8139 13.4556 38.8044 15.2519C38.8052 17.7396 38.8028 20.2272 38.8052 22.7149C37.899 22.7173 36.9927 22.7149 36.0873 22.7157C36.0864 17.1593 36.0857 11.6029 36.0873 6.04654Z" fill="#2C3543"/>
<path fill-rule="evenodd" clip-rule="evenodd" d="M65.8245 10.7579C67.2024 10.365 68.6882 10.3809 70.0654 10.7706C70.3493 10.85 70.6244 10.9604 70.8797 11.1104C70.8638 12.0208 70.8797 12.9321 70.8709 13.8433C69.9504 13.1393 68.7826 12.6932 67.6123 12.8408C66.6831 12.9249 65.7967 13.4076 65.2409 14.1593C64.5266 15.0911 64.3617 16.3286 64.4845 17.4685C64.5765 18.3607 64.9452 19.2521 65.6381 19.8434C66.358 20.484 67.3673 20.711 68.3092 20.6396C69.2401 20.5324 70.1185 20.1379 70.8709 19.5871C70.8789 20.4499 70.867 21.3127 70.8773 22.1755C69.7102 22.8709 68.3108 23.0503 66.9749 22.9844C65.608 22.9122 64.2451 22.3938 63.2556 21.4318C62.1805 20.3943 61.597 18.9147 61.528 17.4328C61.4582 15.8921 61.7714 14.2847 62.657 12.998C63.3991 11.9002 64.5599 11.1231 65.8245 10.7579Z" fill="#2C3543"/>
<path fill-rule="evenodd" clip-rule="evenodd" d="M97.0112 10.5758C98.3313 10.3432 99.7132 10.5139 100.963 10.9878C100.964 11.8641 100.963 12.7396 100.964 13.6151C100.091 13.0143 99.0242 12.6912 97.965 12.7285C97.4314 12.7491 96.8447 12.9754 96.6013 13.4834C96.4078 13.9858 96.5418 14.6447 97.0152 14.9455C97.8247 15.4876 98.7903 15.7178 99.6292 16.2036C100.29 16.5751 100.93 17.0609 101.265 17.761C101.894 19.0723 101.627 20.8051 100.522 21.783C99.4666 22.7705 97.9468 23.0435 96.549 22.9911C95.5563 22.9268 94.5589 22.7308 93.6463 22.3244C93.6503 21.4028 93.6408 20.482 93.6511 19.5613C94.4186 20.1193 95.3042 20.5186 96.2413 20.6805C96.8939 20.7868 97.6035 20.7916 98.2116 20.4995C98.7935 20.2098 98.8982 19.3819 98.5525 18.8755C98.229 18.4849 97.7541 18.2698 97.3061 18.0587C96.4649 17.68 95.5809 17.3633 94.842 16.7958C94.3227 16.3902 93.9294 15.8186 93.7756 15.1741C93.5472 14.224 93.6186 13.1532 94.1704 12.3229C94.8007 11.3553 95.8957 10.775 97.0112 10.5758Z" fill="#2C3543"/>
<path fill-rule="evenodd" clip-rule="evenodd" d="M77.2637 10.9518C78.0518 10.4779 79.0532 10.4382 79.9134 10.7279C79.9095 11.6813 79.9134 12.6346 79.9111 13.5879C79.3481 13.2228 78.6457 13.0664 77.9813 13.1339C77.171 13.2259 76.5288 13.849 76.1958 14.5634C75.8342 15.3199 75.766 16.1756 75.789 17.0027C75.789 18.9069 75.7898 20.8112 75.789 22.7155C74.8503 22.7155 73.9124 22.7155 72.9744 22.7155C72.972 18.7355 72.9776 14.7547 72.972 10.7748C73.9116 10.7629 74.8511 10.7676 75.7906 10.7724C75.7867 11.4558 75.7906 12.1393 75.7882 12.8235C76.0935 12.0797 76.5478 11.3574 77.2637 10.9518Z" fill="#2C3543"/>
<path fill-rule="evenodd" clip-rule="evenodd" d="M56.7789 10.7736C57.7256 10.7697 58.673 10.7601 59.6197 10.7784C59.6086 14.7575 59.6189 18.7375 59.615 22.7167C58.6699 22.7167 57.7248 22.7167 56.7805 22.7167C56.7781 18.7359 56.7813 14.7552 56.7789 10.7736Z" fill="#2C3543"/>
<path fill-rule="evenodd" clip-rule="evenodd" d="M89.2548 11.0356C87.9831 10.4561 86.5377 10.3784 85.1677 10.553C83.7286 10.7348 82.3277 11.4126 81.4143 12.5612C80.5802 13.5868 80.1743 14.9044 80.0966 16.2118C79.9816 17.7525 80.2385 19.3876 81.1424 20.6735C81.9122 21.7832 83.1276 22.546 84.4406 22.827C85.5379 23.058 86.686 23.0588 87.7833 22.8302C89.0669 22.5659 90.2657 21.8547 91.0609 20.8053C91.8379 19.8171 92.228 18.5709 92.316 17.327C92.4056 16.053 92.2771 14.7338 91.7483 13.559C91.2528 12.4557 90.3584 11.5341 89.2548 11.0356ZM88.4071 13.6328C87.7903 13.0081 86.8769 12.7652 86.0191 12.8216C85.3364 12.8597 84.6466 13.0907 84.1408 13.5637C83.4431 14.1964 83.1244 15.1394 83.038 16.0562C82.9428 17.0643 83.0118 18.1271 83.4716 19.0463C83.8292 19.7599 84.4865 20.3203 85.2611 20.5243C86.0222 20.722 86.8507 20.7053 87.5881 20.4219C88.2184 20.1758 88.7179 19.6567 88.9906 19.0423C89.4029 18.1311 89.4433 17.1063 89.3926 16.1229C89.322 15.2243 89.0667 14.2821 88.4071 13.6328Z" fill="#2C3543"/>
<path fill-rule="evenodd" clip-rule="evenodd" d="M112.161 11.1251C110.861 10.4679 109.348 10.3718 107.923 10.5488C106.774 10.6965 105.645 11.1331 104.769 11.9038C103.698 12.827 103.07 14.1843 102.886 15.5726C102.71 16.9609 102.769 18.423 103.334 19.7224C103.877 20.9972 104.947 22.0323 106.235 22.5395C107.505 23.0404 108.918 23.0968 110.256 22.8801C111.624 22.6538 112.919 21.9339 113.766 20.8258C114.67 19.6812 115.06 18.2 115.057 16.7569C115.077 15.7909 114.957 14.8114 114.613 13.9041C114.174 12.7182 113.295 11.6927 112.161 11.1251ZM110.981 13.499C110.361 12.9537 109.5 12.7672 108.694 12.8235C107.904 12.868 107.121 13.2085 106.61 13.8245C106.051 14.4841 105.81 15.3549 105.745 16.2034C105.678 17.0797 105.745 17.987 106.084 18.8062C106.365 19.4936 106.9 20.0913 107.589 20.3834C108.229 20.6588 108.948 20.7081 109.632 20.6057C110.268 20.512 110.885 20.2072 111.3 19.7071C111.711 19.2094 111.929 18.5823 112.038 17.9537C112.176 17.1099 112.178 16.2407 112.014 15.4009C111.869 14.6849 111.553 13.9737 110.981 13.499Z" fill="#2C3543"/>
<path fill-rule="evenodd" clip-rule="evenodd" d="M0.0522766 15.0547C4.45258 15.0563 8.85289 15.0539 13.2532 15.0563C13.254 19.4617 13.2532 23.8663 13.2532 28.2718H0.0522766V15.0547Z" fill="#2C3543"/>
<path fill-rule="evenodd" clip-rule="evenodd" d="M14.6018 15.0576C19.0013 15.056 23.4016 15.0568 27.8019 15.0568C27.8019 19.4623 27.8019 23.8677 27.8019 28.2731H14.601C14.6018 23.8677 14.6002 19.4623 14.6018 15.0576Z" fill="#2C3543"/>
</svg>
