<svg width="628" height="400" viewBox="0 0 628 400" fill="none" xmlns="http://www.w3.org/2000/svg">
<g clip-path="url(#clip0_1101_5485)">
<rect x="44" y="254.049" width="37.8118" height="63.8074" rx="5.9081" fill="#4C4FEE"/>
<rect x="90.0832" y="206.785" width="37.8118" height="106.346" rx="5.9081" fill="#FFB400"/>
<rect x="546.188" y="206.785" width="37.8118" height="106.346" rx="5.9081" fill="#E64068"/>
<rect x="136.166" y="176.062" width="37.8118" height="137.068" rx="5.9081" fill="#FF783F"/>
<rect x="454.022" y="197.332" width="37.8118" height="118.162" rx="5.9081" fill="#3088F4"/>
<rect x="500.105" y="137.068" width="37.8118" height="176.061" rx="5.9081" fill="#4C4FEE"/>
<path d="M63.5528 322.583C63.1415 322.583 62.7302 322.583 62.3189 322.583C60.2625 321.627 59.0286 319.238 59.4399 316.37C71.3672 271.446 86.9961 246.595 105.504 242.293C117.843 239.426 126.48 246.595 134.705 253.285C142.109 259.498 149.1 265.233 158.971 264.277C177.479 262.844 190.229 241.337 202.979 220.309C215.318 199.281 227.245 179.686 244.108 182.554C253.156 183.988 258.503 191.634 263.438 198.325C268.785 205.972 274.132 212.663 283.591 213.618C290.995 214.096 295.107 210.751 300.043 206.928C304.978 203.104 310.325 198.803 318.551 200.237C333.357 202.626 341.172 222.221 348.163 238.948C353.921 253.285 359.679 267.145 367.494 267.623C372.018 268.101 375.308 264.277 380.244 258.542C386.413 251.374 393.816 242.771 406.566 242.771C414.792 242.771 419.316 246.117 422.606 248.984C425.485 251.374 427.542 252.807 430.832 252.807C430.832 252.807 430.832 252.807 431.243 252.807C443.993 252.807 453.042 230.345 461.267 210.751C469.493 191.156 476.896 172.518 489.235 172.518C497.872 172.518 503.219 181.12 508.977 190.2C513.912 198.325 519.67 207.883 529.13 213.618C541.468 221.743 556.275 219.353 562.444 217.92C564.5 217.442 566.968 218.875 567.379 221.743C567.791 224.133 566.557 227 564.089 227.478C555.863 229.39 539.412 231.301 525.428 222.221C514.735 215.052 508.154 204.538 502.807 195.935C497.461 187.333 494.17 182.076 489.646 182.076C482.654 182.076 475.662 198.803 469.082 215.052C460.033 237.514 449.34 262.366 431.655 262.366H431.243C425.485 262.366 421.784 259.498 418.494 256.631C415.203 254.241 412.324 251.852 406.977 251.852C397.929 251.852 392.171 258.065 386.413 264.755C381.066 270.968 375.308 277.181 367.083 276.703C354.333 275.747 347.341 259.02 340.76 242.293C334.591 226.522 328.01 210.751 317.317 208.839C312.381 207.883 309.091 210.751 304.978 214.096C300.043 218.398 293.462 223.177 283.591 222.221C270.841 221.265 263.85 211.707 257.68 203.582C253.156 197.369 249.043 192.112 243.285 191.156C231.358 189.245 221.076 206.45 209.971 225.088C196.81 247.072 182.003 271.924 159.794 273.358C147.044 274.314 137.996 267.145 130.181 260.454C122.778 254.241 116.198 248.984 107.149 250.896C91.9316 255.197 78.3591 278.137 67.6656 319.238C66.8431 321.627 65.1979 322.583 63.5528 322.583Z" fill="#443C75"/>
<g filter="url(#filter0_d_1101_5485)">
<path d="M182.249 33.9439C182.249 15.1972 197.244 0 215.742 0H411.672C430.169 0 445.164 15.1972 445.164 33.9439V478.609C445.164 497.356 430.169 512.553 411.672 512.553H215.742C197.244 512.553 182.249 497.356 182.249 478.609V33.9439Z" fill="#4C5363"/>
</g>
<mask id="mask0_1101_5485" style="mask-type:alpha" maskUnits="userSpaceOnUse" x="189" y="2" width="250" height="481">
<rect x="189.339" y="2.36523" width="249.322" height="479.737" fill="#C4C4C4"/>
</mask>
<g mask="url(#mask0_1101_5485)">
<rect x="189.339" y="7.08984" width="249.322" height="412.385" rx="28.3589" fill="white"/>
<rect x="294.503" y="233.959" width="37.8118" height="94.5295" rx="5.9081" fill="#FF783F"/>
<rect x="386.67" y="217.416" width="37.8118" height="99.256" rx="5.9081" fill="#FFB400"/>
<rect x="202.337" y="200.875" width="37.8118" height="118.162" rx="5.9081" fill="#03C1FF"/>
<rect x="248.42" y="140.613" width="37.8118" height="176.061" rx="5.9081" fill="#E64068"/>
<rect x="340.586" y="183.15" width="37.8118" height="133.523" rx="5.9081" fill="#03C1FF"/>
<path d="M109.079 385.25C132.353 288.917 246.178 245.081 273.117 320.588C285.152 354.359 284.765 374.39 298.502 389.7C313.341 406.347 367.603 362.718 390.986 363.553C428.387 364.836 422.741 441.939 373.997 441.133C332.324 440.446 297.728 395.651 256.825 431.219C242.526 443.609 213.817 512.915 184.277 462.03C159.387 419.298 93.3179 450.166 109.079 385.25Z" fill="#3088F4"/>
<path d="M283.168 315.343C309.849 322.03 324.47 347.478 317.337 374.285C310.205 401.093 291.311 422.283 263.863 426.047C244.315 428.745 227.849 427.955 214.226 425.066C180.534 417.714 165.607 396.837 170.756 382.055C175.744 367.602 200.918 365.517 220.653 350.342C242.662 333.162 256.488 308.657 283.168 315.343Z" fill="#0F3384"/>
<path d="M376.905 423.412C325.88 460.736 264.714 413.583 271.345 358.496C275.926 320.116 320.323 285.502 366.796 283.039C413.253 280.5 521.046 314.222 507.905 349.879C497.455 378.2 455.951 363.6 422.333 377.73C399.303 387.302 404.048 403.579 376.905 423.412Z" fill="#3088F4"/>
<path d="M477.637 478.841C461.526 544.266 399.98 639.217 340.56 620.299C296.23 606.241 288.721 537.44 254.082 522.413C216.482 506.154 174.68 553.438 136.808 543.779C90.5052 532.033 96.8311 472.983 134.926 458.1C173.468 442.992 252.436 511.531 311.711 416.521C332.352 383.318 378.682 326.963 436.9 342.341C492.018 357.029 491.908 420.915 477.637 478.841Z" fill="#0F3384"/>
<path d="M63.5528 322.583C63.1415 322.583 62.7302 322.583 62.3189 322.583C60.2625 321.627 59.0286 319.238 59.4399 316.37C71.3672 271.446 86.9961 246.595 105.504 242.293C117.843 239.426 126.48 246.595 134.705 253.285C142.109 259.498 149.1 265.233 158.971 264.277C177.479 262.844 190.229 241.337 202.979 220.309C215.318 199.281 227.245 179.686 244.108 182.554C253.156 183.988 258.503 191.634 263.438 198.325C268.785 205.972 274.132 212.663 283.591 213.618C290.995 214.096 295.107 210.751 300.043 206.928C304.978 203.104 310.325 198.803 318.551 200.237C333.357 202.626 341.172 222.221 348.163 238.948C353.921 253.285 359.679 267.145 367.494 267.623C372.018 268.101 375.308 264.277 380.244 258.542C386.413 251.374 393.816 242.771 406.566 242.771C414.792 242.771 419.316 246.117 422.606 248.984C425.485 251.374 427.542 252.807 430.832 252.807C430.832 252.807 430.832 252.807 431.243 252.807C443.993 252.807 453.042 230.345 461.267 210.751C469.493 191.156 476.896 172.518 489.235 172.518C497.872 172.518 503.219 181.12 508.977 190.2C513.912 198.325 519.67 207.883 529.13 213.618C541.468 221.743 556.275 219.353 562.444 217.92C564.5 217.442 566.968 218.875 567.379 221.743C567.791 224.133 566.557 227 564.089 227.478C555.863 229.39 539.412 231.301 525.428 222.221C514.735 215.052 508.154 204.538 502.807 195.935C497.461 187.333 494.17 182.076 489.646 182.076C482.654 182.076 475.662 198.803 469.082 215.052C460.034 237.514 449.34 262.366 431.655 262.366H431.243C425.485 262.366 421.784 259.498 418.494 256.631C415.203 254.241 412.324 251.852 406.977 251.852C397.929 251.852 392.171 258.065 386.413 264.755C381.066 270.968 375.308 277.181 367.083 276.703C354.333 275.747 347.341 259.02 340.76 242.293C334.591 226.522 328.01 210.751 317.317 208.839C312.381 207.883 309.091 210.751 304.978 214.096C300.043 218.398 293.462 223.177 283.591 222.221C270.841 221.265 263.85 211.707 257.68 203.582C253.156 197.369 249.043 192.112 243.285 191.156C231.358 189.245 221.076 206.45 209.971 225.088C196.81 247.072 182.003 271.924 159.794 273.358C147.044 274.314 137.996 267.145 130.181 260.454C122.778 254.241 116.198 248.984 107.149 250.896C91.9316 255.197 78.3591 278.137 67.6656 319.238C66.8431 321.627 65.1979 322.583 63.5528 322.583Z" fill="#443C75"/>
</g>
<rect x="44" y="254.049" width="37.8118" height="63.8074" rx="5.9081" fill="#4C4FEE"/>
<rect x="90.0832" y="206.785" width="37.8118" height="106.346" rx="5.9081" fill="#FFB400"/>
<rect x="546.188" y="206.785" width="37.8118" height="106.346" rx="5.9081" fill="#E64068"/>
<rect x="136.166" y="176.062" width="37.8118" height="137.068" rx="5.9081" fill="#FF783F"/>
<rect x="454.022" y="197.332" width="37.8118" height="118.162" rx="5.9081" fill="#3088F4"/>
<rect x="500.105" y="137.068" width="37.8118" height="176.061" rx="5.9081" fill="#4C4FEE"/>
<path d="M63.5528 322.583C63.1415 322.583 62.7302 322.583 62.3189 322.583C60.2625 321.627 59.0286 319.238 59.4399 316.37C71.3672 271.446 86.9961 246.595 105.504 242.293C117.843 239.426 126.48 246.595 134.705 253.285C142.109 259.498 149.1 265.233 158.971 264.277C177.479 262.844 190.229 241.337 202.979 220.309C215.318 199.281 227.245 179.686 244.108 182.554C253.156 183.988 258.503 191.634 263.438 198.325C268.785 205.972 274.132 212.663 283.591 213.618C290.995 214.096 295.107 210.751 300.043 206.928C304.978 203.104 310.325 198.803 318.551 200.237C333.357 202.626 341.172 222.221 348.163 238.948C353.921 253.285 359.679 267.145 367.494 267.623C372.018 268.101 375.308 264.277 380.244 258.542C386.413 251.374 393.816 242.771 406.566 242.771C414.792 242.771 419.316 246.117 422.606 248.984C425.485 251.374 427.542 252.807 430.832 252.807C430.832 252.807 430.832 252.807 431.243 252.807C443.993 252.807 453.042 230.345 461.267 210.751C469.493 191.156 476.896 172.518 489.235 172.518C497.872 172.518 503.219 181.12 508.977 190.2C513.912 198.325 519.67 207.883 529.13 213.618C541.468 221.743 556.275 219.353 562.444 217.92C564.5 217.442 566.968 218.875 567.379 221.743C567.791 224.133 566.557 227 564.089 227.478C555.863 229.39 539.412 231.301 525.428 222.221C514.735 215.052 508.154 204.538 502.807 195.935C497.461 187.333 494.17 182.076 489.646 182.076C482.654 182.076 475.662 198.803 469.082 215.052C460.033 237.514 449.34 262.366 431.655 262.366H431.243C425.485 262.366 421.784 259.498 418.494 256.631C415.203 254.241 412.324 251.852 406.977 251.852C397.929 251.852 392.171 258.065 386.413 264.755C381.066 270.968 375.308 277.181 367.083 276.703C354.333 275.747 347.341 259.02 340.76 242.293C334.591 226.522 328.01 210.751 317.317 208.839C312.381 207.883 309.091 210.751 304.978 214.096C300.043 218.398 293.462 223.177 283.591 222.221C270.841 221.265 263.85 211.707 257.68 203.582C253.156 197.369 249.043 192.112 243.285 191.156C231.358 189.245 221.076 206.45 209.971 225.088C196.81 247.072 182.003 271.924 159.794 273.358C147.044 274.314 137.996 267.145 130.181 260.454C122.778 254.241 116.198 248.984 107.149 250.896C91.9316 255.197 78.3591 278.137 67.6656 319.238C66.8431 321.627 65.1979 322.583 63.5528 322.583Z" fill="#443C75"/>
<g filter="url(#filter1_d_1101_5485)">
<path d="M182.249 33.9439C182.249 15.1972 197.244 0 215.742 0H411.672C430.169 0 445.164 15.1972 445.164 33.9439V478.609C445.164 497.356 430.169 512.553 411.672 512.553H215.742C197.244 512.553 182.249 497.356 182.249 478.609V33.9439Z" fill="#4C5363"/>
</g>
<mask id="mask1_1101_5485" style="mask-type:alpha" maskUnits="userSpaceOnUse" x="189" y="2" width="250" height="481">
<rect x="189.339" y="2.36523" width="249.322" height="479.737" fill="#C4C4C4"/>
</mask>
<g mask="url(#mask1_1101_5485)">
<rect x="189.339" y="7.08984" width="249.322" height="412.385" rx="28.3589" fill="white"/>
<rect x="294.503" y="233.959" width="37.8118" height="94.5295" rx="5.9081" fill="#FF783F"/>
<rect x="386.67" y="217.416" width="37.8118" height="99.256" rx="5.9081" fill="#FFB400"/>
<rect x="202.337" y="200.875" width="37.8118" height="118.162" rx="5.9081" fill="#03C1FF"/>
<rect x="248.42" y="140.613" width="37.8118" height="176.061" rx="5.9081" fill="#E64068"/>
<rect x="340.586" y="183.15" width="37.8118" height="133.523" rx="5.9081" fill="#03C1FF"/>
<path d="M109.079 385.25C132.353 288.917 246.178 245.081 273.117 320.588C285.152 354.359 284.765 374.39 298.502 389.7C313.341 406.347 367.603 362.718 390.986 363.553C428.387 364.836 422.741 441.939 373.997 441.133C332.324 440.446 297.728 395.651 256.825 431.219C242.526 443.609 213.817 512.915 184.277 462.03C159.387 419.298 93.3179 450.166 109.079 385.25Z" fill="#3088F4"/>
<path d="M283.168 315.343C309.849 322.03 324.47 347.478 317.337 374.285C310.205 401.093 291.311 422.283 263.863 426.047C244.315 428.745 227.849 427.955 214.226 425.066C180.534 417.714 165.607 396.837 170.756 382.055C175.744 367.602 200.918 365.517 220.653 350.342C242.662 333.162 256.488 308.657 283.168 315.343Z" fill="#0F3384"/>
<path d="M376.905 423.412C325.88 460.736 264.714 413.583 271.345 358.496C275.926 320.116 320.323 285.502 366.796 283.039C413.253 280.5 521.046 314.222 507.905 349.879C497.455 378.2 455.951 363.6 422.333 377.73C399.303 387.302 404.048 403.579 376.905 423.412Z" fill="#3088F4"/>
<path d="M477.637 478.841C461.526 544.266 399.98 639.217 340.56 620.299C296.23 606.241 288.721 537.44 254.082 522.413C216.482 506.154 174.68 553.438 136.808 543.779C90.5052 532.033 96.8311 472.983 134.926 458.1C173.468 442.992 252.436 511.531 311.711 416.521C332.352 383.318 378.682 326.963 436.9 342.341C492.018 357.029 491.908 420.915 477.637 478.841Z" fill="#0F3384"/>
<path d="M63.5528 322.583C63.1415 322.583 62.7302 322.583 62.3189 322.583C60.2625 321.627 59.0286 319.238 59.4399 316.37C71.3672 271.446 86.9961 246.595 105.504 242.293C117.843 239.426 126.48 246.595 134.705 253.285C142.109 259.498 149.1 265.233 158.971 264.277C177.479 262.844 190.229 241.337 202.979 220.309C215.318 199.281 227.245 179.686 244.108 182.554C253.156 183.988 258.503 191.634 263.438 198.325C268.785 205.972 274.132 212.663 283.591 213.618C290.995 214.096 295.107 210.751 300.043 206.928C304.978 203.104 310.325 198.803 318.551 200.237C333.357 202.626 341.172 222.221 348.163 238.948C353.921 253.285 359.679 267.145 367.494 267.623C372.018 268.101 375.308 264.277 380.244 258.542C386.413 251.374 393.816 242.771 406.566 242.771C414.792 242.771 419.316 246.117 422.606 248.984C425.485 251.374 427.542 252.807 430.832 252.807C430.832 252.807 430.832 252.807 431.243 252.807C443.993 252.807 453.042 230.345 461.267 210.751C469.493 191.156 476.896 172.518 489.235 172.518C497.872 172.518 503.219 181.12 508.977 190.2C513.912 198.325 519.67 207.883 529.13 213.618C541.468 221.743 556.275 219.353 562.444 217.92C564.5 217.442 566.968 218.875 567.379 221.743C567.791 224.133 566.557 227 564.089 227.478C555.863 229.39 539.412 231.301 525.428 222.221C514.735 215.052 508.154 204.538 502.807 195.935C497.461 187.333 494.17 182.076 489.646 182.076C482.654 182.076 475.662 198.803 469.082 215.052C460.034 237.514 449.34 262.366 431.655 262.366H431.243C425.485 262.366 421.784 259.498 418.494 256.631C415.203 254.241 412.324 251.852 406.977 251.852C397.929 251.852 392.171 258.065 386.413 264.755C381.066 270.968 375.308 277.181 367.083 276.703C354.333 275.747 347.341 259.02 340.76 242.293C334.591 226.522 328.01 210.751 317.317 208.839C312.381 207.883 309.091 210.751 304.978 214.096C300.043 218.398 293.462 223.177 283.591 222.221C270.841 221.265 263.85 211.707 257.68 203.582C253.156 197.369 249.043 192.112 243.285 191.156C231.358 189.245 221.076 206.45 209.971 225.088C196.81 247.072 182.003 271.924 159.794 273.358C147.044 274.314 137.996 267.145 130.181 260.454C122.778 254.241 116.198 248.984 107.149 250.896C91.9316 255.197 78.3591 278.137 67.6656 319.238C66.8431 321.627 65.1979 322.583 63.5528 322.583Z" fill="#443C75"/>
</g>
<rect x="44" y="254.049" width="37.8118" height="63.8074" rx="5.9081" fill="#4C4FEE"/>
<rect x="90.0832" y="206.785" width="37.8118" height="106.346" rx="5.9081" fill="#FFB400"/>
<rect x="546.188" y="206.785" width="37.8118" height="106.346" rx="5.9081" fill="#E64068"/>
<rect x="136.166" y="176.062" width="37.8118" height="137.068" rx="5.9081" fill="#FF783F"/>
<rect x="454.022" y="197.332" width="37.8118" height="118.162" rx="5.9081" fill="#3088F4"/>
<rect x="500.105" y="137.068" width="37.8118" height="176.061" rx="5.9081" fill="#4C4FEE"/>
<path d="M63.5528 322.583C63.1415 322.583 62.7302 322.583 62.3189 322.583C60.2625 321.627 59.0286 319.238 59.4399 316.37C71.3672 271.446 86.9961 246.595 105.504 242.293C117.843 239.426 126.48 246.595 134.705 253.285C142.109 259.498 149.1 265.233 158.971 264.277C177.479 262.844 190.229 241.337 202.979 220.309C215.318 199.281 227.245 179.686 244.108 182.554C253.156 183.988 258.503 191.634 263.438 198.325C268.785 205.972 274.132 212.663 283.591 213.618C290.995 214.096 295.107 210.751 300.043 206.928C304.978 203.104 310.325 198.803 318.551 200.237C333.357 202.626 341.172 222.221 348.163 238.948C353.921 253.285 359.679 267.145 367.494 267.623C372.018 268.101 375.308 264.277 380.244 258.542C386.413 251.374 393.816 242.771 406.566 242.771C414.792 242.771 419.316 246.117 422.606 248.984C425.485 251.374 427.542 252.807 430.832 252.807C430.832 252.807 430.832 252.807 431.243 252.807C443.993 252.807 453.042 230.345 461.267 210.751C469.493 191.156 476.896 172.518 489.235 172.518C497.872 172.518 503.219 181.12 508.977 190.2C513.912 198.325 519.67 207.883 529.13 213.618C541.468 221.743 556.275 219.353 562.444 217.92C564.5 217.442 566.968 218.875 567.379 221.743C567.791 224.133 566.557 227 564.089 227.478C555.863 229.39 539.412 231.301 525.428 222.221C514.735 215.052 508.154 204.538 502.807 195.935C497.461 187.333 494.17 182.076 489.646 182.076C482.654 182.076 475.662 198.803 469.082 215.052C460.033 237.514 449.34 262.366 431.655 262.366H431.243C425.485 262.366 421.784 259.498 418.494 256.631C415.203 254.241 412.324 251.852 406.977 251.852C397.929 251.852 392.171 258.065 386.413 264.755C381.066 270.968 375.308 277.181 367.083 276.703C354.333 275.747 347.341 259.02 340.76 242.293C334.591 226.522 328.01 210.751 317.317 208.839C312.381 207.883 309.091 210.751 304.978 214.096C300.043 218.398 293.462 223.177 283.591 222.221C270.841 221.265 263.85 211.707 257.68 203.582C253.156 197.369 249.043 192.112 243.285 191.156C231.358 189.245 221.076 206.45 209.971 225.088C196.81 247.072 182.003 271.924 159.794 273.358C147.044 274.314 137.996 267.145 130.181 260.454C122.778 254.241 116.198 248.984 107.149 250.896C91.9316 255.197 78.3591 278.137 67.6656 319.238C66.8431 321.627 65.1979 322.583 63.5528 322.583Z" fill="#443C75"/>
<g filter="url(#filter2_d_1101_5485)">
<path d="M182.249 33.9439C182.249 15.1972 197.244 0 215.742 0H411.672C430.169 0 445.164 15.1972 445.164 33.9439V478.609C445.164 497.356 430.169 512.553 411.672 512.553H215.742C197.244 512.553 182.249 497.356 182.249 478.609V33.9439Z" fill="#4C5363"/>
</g>
<mask id="mask2_1101_5485" style="mask-type:alpha" maskUnits="userSpaceOnUse" x="189" y="2" width="250" height="481">
<rect x="189.339" y="2.36523" width="249.322" height="479.737" fill="#C4C4C4"/>
</mask>
<g mask="url(#mask2_1101_5485)">
<rect x="189.339" y="7.08984" width="249.322" height="412.385" rx="28.3589" fill="white"/>
<rect x="294.503" y="233.959" width="37.8118" height="94.5295" rx="5.9081" fill="#FF783F"/>
<rect x="386.67" y="217.416" width="37.8118" height="99.256" rx="5.9081" fill="#FFB400"/>
<rect x="202.337" y="200.875" width="37.8118" height="118.162" rx="5.9081" fill="#03C1FF"/>
<rect x="248.42" y="140.613" width="37.8118" height="176.061" rx="5.9081" fill="#E64068"/>
<rect x="340.586" y="183.15" width="37.8118" height="133.523" rx="5.9081" fill="#03C1FF"/>
<path d="M109.079 385.25C132.353 288.917 246.178 245.081 273.117 320.588C285.152 354.359 284.765 374.39 298.502 389.7C313.341 406.347 367.603 362.718 390.986 363.553C428.387 364.836 422.741 441.939 373.997 441.133C332.324 440.446 297.728 395.651 256.825 431.219C242.526 443.609 213.817 512.915 184.277 462.03C159.387 419.298 93.3179 450.166 109.079 385.25Z" fill="#3088F4"/>
<path d="M283.168 315.343C309.849 322.03 324.47 347.478 317.337 374.285C310.205 401.093 291.311 422.283 263.863 426.047C244.315 428.745 227.849 427.955 214.226 425.066C180.534 417.714 165.607 396.837 170.756 382.055C175.744 367.602 200.918 365.517 220.653 350.342C242.662 333.162 256.488 308.657 283.168 315.343Z" fill="#0F3384"/>
<path d="M376.905 423.412C325.88 460.736 264.714 413.583 271.345 358.496C275.926 320.116 320.323 285.502 366.796 283.039C413.253 280.5 521.046 314.222 507.905 349.879C497.455 378.2 455.951 363.6 422.333 377.73C399.303 387.302 404.048 403.579 376.905 423.412Z" fill="#3088F4"/>
<path d="M477.637 478.841C461.526 544.266 399.98 639.217 340.56 620.299C296.23 606.241 288.721 537.44 254.082 522.413C216.482 506.154 174.68 553.438 136.808 543.779C90.5052 532.033 96.8311 472.983 134.926 458.1C173.468 442.992 252.436 511.531 311.711 416.521C332.352 383.318 378.682 326.963 436.9 342.341C492.018 357.029 491.908 420.915 477.637 478.841Z" fill="#0F3384"/>
<path d="M63.5528 322.583C63.1415 322.583 62.7302 322.583 62.3189 322.583C60.2625 321.627 59.0286 319.238 59.4399 316.37C71.3672 271.446 86.9961 246.595 105.504 242.293C117.843 239.426 126.48 246.595 134.705 253.285C142.109 259.498 149.1 265.233 158.971 264.277C177.479 262.844 190.229 241.337 202.979 220.309C215.318 199.281 227.245 179.686 244.108 182.554C253.156 183.988 258.503 191.634 263.438 198.325C268.785 205.972 274.132 212.663 283.591 213.618C290.995 214.096 295.107 210.751 300.043 206.928C304.978 203.104 310.325 198.803 318.551 200.237C333.357 202.626 341.172 222.221 348.163 238.948C353.921 253.285 359.679 267.145 367.494 267.623C372.018 268.101 375.308 264.277 380.244 258.542C386.413 251.374 393.816 242.771 406.566 242.771C414.792 242.771 419.316 246.117 422.606 248.984C425.485 251.374 427.542 252.807 430.832 252.807C430.832 252.807 430.832 252.807 431.243 252.807C443.993 252.807 453.042 230.345 461.267 210.751C469.493 191.156 476.896 172.518 489.235 172.518C497.872 172.518 503.219 181.12 508.977 190.2C513.912 198.325 519.67 207.883 529.13 213.618C541.468 221.743 556.275 219.353 562.444 217.92C564.5 217.442 566.968 218.875 567.379 221.743C567.791 224.133 566.557 227 564.089 227.478C555.863 229.39 539.412 231.301 525.428 222.221C514.735 215.052 508.154 204.538 502.807 195.935C497.461 187.333 494.17 182.076 489.646 182.076C482.654 182.076 475.662 198.803 469.082 215.052C460.034 237.514 449.34 262.366 431.655 262.366H431.243C425.485 262.366 421.784 259.498 418.494 256.631C415.203 254.241 412.324 251.852 406.977 251.852C397.929 251.852 392.171 258.065 386.413 264.755C381.066 270.968 375.308 277.181 367.083 276.703C354.333 275.747 347.341 259.02 340.76 242.293C334.591 226.522 328.01 210.751 317.317 208.839C312.381 207.883 309.091 210.751 304.978 214.096C300.043 218.398 293.462 223.177 283.591 222.221C270.841 221.265 263.85 211.707 257.68 203.582C253.156 197.369 249.043 192.112 243.285 191.156C231.358 189.245 221.076 206.45 209.971 225.088C196.81 247.072 182.003 271.924 159.794 273.358C147.044 274.314 137.996 267.145 130.181 260.454C122.778 254.241 116.198 248.984 107.149 250.896C91.9316 255.197 78.3591 278.137 67.6656 319.238C66.8431 321.627 65.1979 322.583 63.5528 322.583Z" fill="#443C75"/>
</g>
</g>
<defs>
<filter id="filter0_d_1101_5485" x="179.886" y="-1.18162" width="267.641" height="517.279" filterUnits="userSpaceOnUse" color-interpolation-filters="sRGB">
<feFlood flood-opacity="0" result="BackgroundImageFix"/>
<feColorMatrix in="SourceAlpha" type="matrix" values="0 0 0 0 0 0 0 0 0 0 0 0 0 0 0 0 0 0 127 0" result="hardAlpha"/>
<feOffset dy="1.18162"/>
<feGaussianBlur stdDeviation="1.18162"/>
<feColorMatrix type="matrix" values="0 0 0 0 0 0 0 0 0 0 0 0 0 0 0 0 0 0 0.25 0"/>
<feBlend mode="normal" in2="BackgroundImageFix" result="effect1_dropShadow_1101_5485"/>
<feBlend mode="normal" in="SourceGraphic" in2="effect1_dropShadow_1101_5485" result="shape"/>
</filter>
<filter id="filter1_d_1101_5485" x="179.886" y="-1.18162" width="267.641" height="517.279" filterUnits="userSpaceOnUse" color-interpolation-filters="sRGB">
<feFlood flood-opacity="0" result="BackgroundImageFix"/>
<feColorMatrix in="SourceAlpha" type="matrix" values="0 0 0 0 0 0 0 0 0 0 0 0 0 0 0 0 0 0 127 0" result="hardAlpha"/>
<feOffset dy="1.18162"/>
<feGaussianBlur stdDeviation="1.18162"/>
<feColorMatrix type="matrix" values="0 0 0 0 0 0 0 0 0 0 0 0 0 0 0 0 0 0 0.25 0"/>
<feBlend mode="normal" in2="BackgroundImageFix" result="effect1_dropShadow_1101_5485"/>
<feBlend mode="normal" in="SourceGraphic" in2="effect1_dropShadow_1101_5485" result="shape"/>
</filter>
<filter id="filter2_d_1101_5485" x="179.886" y="-1.18162" width="267.641" height="517.279" filterUnits="userSpaceOnUse" color-interpolation-filters="sRGB">
<feFlood flood-opacity="0" result="BackgroundImageFix"/>
<feColorMatrix in="SourceAlpha" type="matrix" values="0 0 0 0 0 0 0 0 0 0 0 0 0 0 0 0 0 0 127 0" result="hardAlpha"/>
<feOffset dy="1.18162"/>
<feGaussianBlur stdDeviation="1.18162"/>
<feColorMatrix type="matrix" values="0 0 0 0 0 0 0 0 0 0 0 0 0 0 0 0 0 0 0.25 0"/>
<feBlend mode="normal" in2="BackgroundImageFix" result="effect1_dropShadow_1101_5485"/>
<feBlend mode="normal" in="SourceGraphic" in2="effect1_dropShadow_1101_5485" result="shape"/>
</filter>
<clipPath id="clip0_1101_5485">
<rect width="628" height="400" fill="white"/>
</clipPath>
</defs>
</svg>
