<svg width="121" height="27" viewBox="0 0 121 27" fill="none" xmlns="http://www.w3.org/2000/svg">
<path d="M5.33824 26.2414C4.38444 26.2398 3.4484 25.9832 2.62718 25.4981C1.80597 25.0129 1.12949 24.3169 0.667876 23.4823C0.206265 22.6476 -0.0236663 21.7046 0.00192534 20.7512C0.027517 19.7977 0.307701 18.8685 0.813422 18.0598L10.4322 2.69864C11.1847 1.49713 12.3836 0.643728 13.7653 0.326184C14.4494 0.168952 15.1578 0.148011 15.85 0.264551C16.5422 0.381092 17.2047 0.632834 17.7996 1.00541C18.3946 1.37798 18.9103 1.86408 19.3174 2.43596C19.7244 3.00784 20.0149 3.6543 20.1721 4.33842C20.3293 5.02255 20.3503 5.73095 20.2337 6.42317C20.1172 7.11539 19.8655 7.77787 19.4929 8.3728L9.87186 23.7339C9.39108 24.5023 8.72264 25.1356 7.9295 25.5743C7.13636 26.0129 6.24461 26.2425 5.33824 26.2414V26.2414Z" fill="#2A3544"/>
<path d="M21.9154 26.2411C20.9608 26.2412 20.0237 25.9857 19.2012 25.5012C18.3788 25.0167 17.701 24.3208 17.2384 23.4859C16.7757 22.6509 16.545 21.7074 16.5702 20.7531C16.5954 19.7989 16.8757 18.8688 17.3818 18.0595L27.0072 2.69841C27.3641 2.07213 27.844 1.52451 28.418 1.08851C28.992 0.652512 29.6483 0.337131 30.3474 0.161349C31.0464 -0.0144325 31.7738 -0.0469845 32.4858 0.0656516C33.1978 0.178288 33.8796 0.433785 34.4903 0.81677C35.101 1.19976 35.6278 1.70231 36.0392 2.29421C36.4507 2.88611 36.7381 3.55511 36.8842 4.26097C37.0304 4.96683 37.0322 5.69496 36.8896 6.40155C36.7471 7.10814 36.463 7.77859 36.0546 8.37256L26.4468 23.7337C25.966 24.502 25.2976 25.1353 24.5044 25.574C23.7113 26.0127 22.8196 26.2422 21.9132 26.2411H21.9154Z" fill="#2A3544"/>
<path d="M38.4871 26.2388C41.4437 26.2388 43.8404 23.9021 43.8404 21.0195C43.8404 18.137 41.4437 15.8003 38.4871 15.8003C35.5306 15.8003 33.1338 18.137 33.1338 21.0195C33.1338 23.9021 35.5306 26.2388 38.4871 26.2388Z" fill="#2A3544"/>
<path fill-rule="evenodd" clip-rule="evenodd" d="M121 8.49818H117.898L115.724 14.0681L113.564 8.49818H110.456L114.23 17.2815L111.884 23.0893H114.965L121 8.49818ZM102.369 13.3826C102.369 14.7858 103.606 15.7102 104.832 15.7102C106.028 15.7102 107.2 14.8511 107.2 13.3826C107.2 11.9141 106.027 11.055 104.832 11.055C103.616 11.055 102.369 11.9783 102.369 13.3826ZM107.189 18.2884V17.1776C106.56 18.1203 105.093 18.478 104.34 18.478C103.676 18.4779 103.018 18.3452 102.406 18.0878C101.794 17.8305 101.239 17.4535 100.775 16.9791C100.31 16.5047 99.9447 15.9423 99.7001 15.3249C99.4555 14.7076 99.3366 14.0476 99.3503 13.3837C99.3366 12.7197 99.4555 12.0598 99.7001 11.4424C99.9447 10.825 100.31 10.2626 100.775 9.78822C101.239 9.3138 101.794 8.93686 102.406 8.67948C103.018 8.4221 103.676 8.28945 104.34 8.28931C104.968 8.28931 106.436 8.49818 107.189 9.58967V8.50246H110.081V18.2906L107.189 18.2884ZM98.5255 18.2884H95.6334V17.0727C95.1514 17.9746 93.9774 18.4973 92.7606 18.4973C90.2434 18.4973 88.0219 16.505 88.0219 13.4222C88.0219 10.2806 90.2445 8.28609 92.7606 8.28609C93.9764 8.28609 95.1514 8.78953 95.6334 9.68929V3.17139H98.5255V18.2884ZM95.5691 13.3633C95.5691 11.8958 94.5002 11.0357 93.3048 11.0357C92.0676 11.0357 91.0404 11.9569 91.0404 13.3633C91.0404 14.8136 92.0687 15.7305 93.3048 15.7305C94.5205 15.7305 95.5691 14.7665 95.5691 13.3633ZM80.8688 13.1105C80.8688 11.6109 81.6443 11.1182 82.6715 11.1182C83.657 11.1182 84.3693 11.7684 84.3693 13.0677V18.2884H87.2828V12.44C87.2828 9.6518 85.8989 8.28931 83.6977 8.28931C82.5451 8.28931 81.3915 8.93949 80.8677 9.92387V8.49925H77.9542V18.2873H80.8677L80.8688 13.1105ZM72.0372 18.4555C69.2694 18.4555 66.9621 16.4439 66.9621 13.3612C66.9621 10.2784 69.2683 8.28609 72.0372 8.28609C74.8061 8.28609 77.1316 10.2784 77.1316 13.3612C77.1316 16.4439 74.804 18.4555 72.0372 18.4555ZM72.0372 15.6063C73.253 15.6063 74.2598 14.7258 74.2598 13.3633C74.2598 12.0426 73.253 11.1407 72.0372 11.1407C71.7449 11.1358 71.4547 11.1901 71.184 11.3004C70.9132 11.4106 70.6676 11.5745 70.4619 11.7821C70.2561 11.9898 70.0945 12.2369 69.9868 12.5086C69.879 12.7804 69.8274 13.0711 69.8349 13.3633C69.8349 14.7237 70.8418 15.6063 72.0372 15.6063ZM61.7328 11.1182C62.5919 11.1182 63.347 11.7887 63.347 13.0677V18.2884H66.2391V12.7185C66.2391 9.76213 64.7888 8.27324 62.4655 8.27324C61.7746 8.27324 60.4732 8.48211 59.5306 10.0138C58.9843 8.88165 57.9378 8.29466 56.3889 8.29466C55.8529 8.29091 55.3272 8.441 54.874 8.72712C54.4208 9.01325 54.0592 9.42339 53.8321 9.90887V8.48747H50.9229V18.2756H53.8364V13.1094C53.8364 11.6098 54.6547 11.1171 55.5341 11.1171C56.3728 11.1171 57.1269 11.7673 57.1483 13.0023V18.2852H60.0618V13.1094C60.0629 11.6848 60.817 11.1171 61.7328 11.1171V11.1182Z" fill="#2A3544"/>
</svg>
