<svg width="111" height="39" viewBox="0 0 111 39" fill="none" xmlns="http://www.w3.org/2000/svg">
<g clip-path="url(#clip0_545_1901)">
<path fill-rule="evenodd" clip-rule="evenodd" d="M48.453 19.2267L30.1367 38.4741L12.5761 19.9573V32.5152L0 19.2508L12.5755 5.98164L30.1406 24.5005V-3.05176e-05L48.453 19.2267Z" fill="#2C3543"/>
<path opacity="0.15" d="M30.1399 24.5004L24.2261 18.3289V32.243L30.1399 38.474V24.5004Z" fill="#2C3543"/>
<path opacity="0.15" d="M18.5103 12.2471L12.5972 6.00717V19.9897L18.5103 26.2214V12.2471Z" fill="#2C3543"/>
<path d="M62.7236 20.4801L55.4386 12.7906H52.8445V25.6697H55.9689V18.2116L63.2525 25.6697H65.8276V12.7906H62.7236V20.4801ZM67.4708 25.7042H70.5932V12.8107H67.4708V25.7042ZM72.1281 15.5819H76.235V25.7042H79.3384V15.5819H83.4452V12.8107H72.1268L72.1281 15.5819ZM95.9853 17.8739C95.9853 15.3526 94.1685 12.8107 91.4243 12.8107H85.0077V25.7042H88.1301V22.9751H90.255L91.9912 25.7042H95.5842L93.4128 22.4212C94.6659 22.1264 95.9866 19.9905 95.9866 17.8739H95.9853ZM91.0841 20.3199H88.1347V15.5239H91.0841C92.6682 15.5239 93.0018 16.9886 93.0018 17.9126C93.0018 18.8524 92.6086 20.3199 91.0854 20.3199H91.0841ZM104.244 12.522C100.459 12.522 97.4875 15.5046 97.4875 19.2764C97.4875 23.0289 100.459 25.9928 104.244 25.9928C108.029 25.9928 111 23.0289 111 19.2764C111 15.5046 108.03 12.522 104.245 12.522H104.244ZM104.244 23.0876C102.181 23.0876 100.61 21.471 100.61 19.2771C100.61 17.0673 102.183 15.4286 104.244 15.4286C106.304 15.4286 107.882 17.0638 107.882 19.2764C107.882 21.4703 106.309 23.0869 104.245 23.0869L104.244 23.0876Z" fill="#2C3543"/>
</g>
<defs>
<clipPath id="clip0_545_1901">
<rect width="111" height="38.4741" fill="white"/>
</clipPath>
</defs>
</svg>
