<svg width="627" height="400" viewBox="0 0 627 400" fill="none" xmlns="http://www.w3.org/2000/svg">
<rect width="627" height="400" fill="white"/>
<path d="M246.641 134.086C246.641 132.786 247.695 131.732 248.995 131.732H499.807C501.107 131.732 502.161 132.786 502.161 134.086V287.237C502.161 288.537 501.107 289.591 499.807 289.591H248.995C247.695 289.591 246.641 288.537 246.641 287.237V134.086Z" fill="#2A3544"/>
<path d="M246.641 136.045C246.641 133.663 248.606 131.732 251.031 131.732H497.771C500.195 131.732 502.161 133.663 502.161 136.045V285.278C502.161 287.66 500.195 289.591 497.771 289.591H251.031C248.606 289.591 246.641 287.66 246.641 285.278V136.045Z" fill="#2A3544"/>
<path d="M296.592 131.732H499.807C501.107 131.732 502.161 132.786 502.161 134.086V287.237C502.161 288.537 501.107 289.591 499.807 289.591H296.592V131.732Z" fill="#E4E8ED"/>
<path d="M309.08 153.722C309.08 153.072 309.607 152.545 310.257 152.545H396.279C396.929 152.545 397.456 153.072 397.456 153.722V212.526C397.456 213.176 396.929 213.703 396.279 213.703H310.257C309.607 213.703 309.08 213.176 309.08 212.526V153.722Z" fill="white"/>
<path d="M400.657 153.722C400.657 153.072 401.184 152.545 401.834 152.545H487.856C488.506 152.545 489.033 153.072 489.033 153.722V212.526C489.033 213.176 488.506 213.703 487.856 213.703H401.834C401.184 213.703 400.657 213.176 400.657 212.526V153.722Z" fill="white"/>
<path d="M309.08 218.082C309.08 217.432 309.607 216.905 310.257 216.905H396.279C396.929 216.905 397.456 217.432 397.456 218.082V276.887C397.456 277.537 396.929 278.064 396.279 278.064H310.257C309.607 278.064 309.08 277.537 309.08 276.887V218.082Z" fill="white"/>
<path d="M400.657 218.082C400.657 217.432 401.184 216.905 401.834 216.905H487.856C488.506 216.905 489.033 217.432 489.033 218.082V276.887C489.033 277.537 488.506 278.064 487.856 278.064H401.834C401.184 278.064 400.657 277.537 400.657 276.887V218.082Z" fill="white"/>
<path d="M246.641 134.086C246.641 132.786 247.695 131.732 248.995 131.732H499.807C501.107 131.732 502.161 132.786 502.161 134.086V141.978H246.641V134.086Z" fill="#0570F4"/>
<rect x="318.365" y="158.629" width="70.124" height="6.40402" fill="#0F3384"/>
<rect x="318.366" y="172.717" width="55.715" height="6.40402" fill="#5178A5"/>
<rect x="318.366" y="186.806" width="29.4585" height="6.40402" fill="#6BB0C7"/>
<rect x="318.365" y="200.895" width="29.4585" height="6.40402" fill="#03C1FF"/>
<path d="M336.465 228.489C336.414 228.489 336.365 228.469 336.329 228.433C336.293 228.397 336.273 228.349 336.273 228.298V227.343C336.27 227.317 336.274 227.29 336.282 227.265C336.291 227.24 336.304 227.216 336.322 227.197C336.34 227.177 336.362 227.161 336.387 227.151C336.411 227.14 336.437 227.134 336.464 227.134C336.491 227.134 336.517 227.14 336.541 227.151C336.566 227.161 336.588 227.177 336.606 227.197C336.624 227.216 336.637 227.24 336.646 227.265C336.654 227.29 336.658 227.317 336.655 227.343V228.298C336.655 228.348 336.635 228.397 336.6 228.433C336.564 228.469 336.515 228.489 336.465 228.489V228.489Z" fill="#E4E8ED"/>
<path d="M336.465 269.788C336.414 269.788 336.366 269.768 336.33 269.733C336.294 269.697 336.273 269.649 336.273 269.598V267.721C336.271 267.694 336.274 267.667 336.282 267.642C336.291 267.617 336.305 267.594 336.323 267.574C336.341 267.554 336.362 267.539 336.387 267.528C336.411 267.517 336.438 267.512 336.464 267.512C336.491 267.512 336.517 267.517 336.542 267.528C336.566 267.539 336.588 267.554 336.606 267.574C336.624 267.594 336.638 267.617 336.646 267.642C336.655 267.667 336.658 267.694 336.655 267.721V269.598C336.655 269.648 336.635 269.696 336.599 269.732C336.564 269.768 336.515 269.788 336.465 269.788V269.788ZM336.465 266.035C336.414 266.035 336.365 266.015 336.329 265.979C336.293 265.943 336.273 265.894 336.273 265.843V263.966C336.271 263.939 336.274 263.913 336.282 263.887C336.291 263.862 336.305 263.839 336.323 263.819C336.341 263.8 336.362 263.784 336.387 263.773C336.411 263.763 336.438 263.757 336.464 263.757C336.491 263.757 336.517 263.763 336.542 263.773C336.566 263.784 336.588 263.8 336.606 263.819C336.624 263.839 336.638 263.862 336.646 263.887C336.655 263.913 336.658 263.939 336.655 263.966V265.843C336.656 265.869 336.651 265.894 336.642 265.917C336.632 265.941 336.618 265.962 336.601 265.98C336.583 265.998 336.562 266.013 336.539 266.023C336.515 266.033 336.49 266.038 336.465 266.038V266.035ZM336.465 262.28C336.414 262.28 336.365 262.26 336.329 262.224C336.293 262.188 336.273 262.139 336.273 262.089V260.211C336.277 260.163 336.299 260.119 336.335 260.087C336.37 260.054 336.416 260.036 336.464 260.036C336.512 260.036 336.558 260.054 336.594 260.087C336.629 260.119 336.651 260.163 336.655 260.211V262.089C336.655 262.139 336.635 262.188 336.6 262.224C336.564 262.26 336.516 262.28 336.465 262.28V262.28ZM336.465 258.526C336.414 258.526 336.365 258.505 336.329 258.47C336.293 258.434 336.273 258.385 336.273 258.334V256.457C336.277 256.409 336.299 256.364 336.335 256.332C336.37 256.3 336.416 256.282 336.464 256.282C336.512 256.282 336.558 256.3 336.594 256.332C336.629 256.364 336.651 256.409 336.655 256.457V258.335C336.655 258.386 336.635 258.434 336.599 258.47C336.564 258.505 336.515 258.525 336.465 258.526V258.526ZM336.465 254.771C336.414 254.771 336.365 254.751 336.329 254.715C336.293 254.679 336.273 254.63 336.273 254.579V252.702C336.277 252.654 336.299 252.61 336.335 252.577C336.37 252.545 336.416 252.527 336.464 252.527C336.512 252.527 336.558 252.545 336.594 252.577C336.629 252.61 336.651 252.654 336.655 252.702V254.579C336.655 254.63 336.635 254.678 336.6 254.714C336.564 254.75 336.516 254.771 336.465 254.771V254.771ZM336.465 251.016C336.414 251.016 336.365 250.996 336.329 250.96C336.293 250.924 336.273 250.875 336.273 250.825V248.947C336.277 248.899 336.299 248.855 336.335 248.823C336.37 248.79 336.416 248.772 336.464 248.772C336.512 248.772 336.558 248.79 336.594 248.823C336.629 248.855 336.651 248.899 336.655 248.947V250.825C336.655 250.875 336.635 250.924 336.6 250.96C336.564 250.996 336.516 251.016 336.465 251.016V251.016ZM336.465 247.262C336.414 247.262 336.365 247.241 336.329 247.205C336.293 247.169 336.273 247.121 336.273 247.07V245.196C336.277 245.148 336.299 245.103 336.335 245.071C336.37 245.039 336.416 245.021 336.464 245.021C336.512 245.021 336.558 245.039 336.594 245.071C336.629 245.103 336.651 245.148 336.655 245.196V247.073C336.655 247.123 336.634 247.171 336.599 247.206C336.563 247.241 336.515 247.261 336.465 247.262V247.262ZM336.465 243.507C336.414 243.507 336.366 243.487 336.33 243.451C336.294 243.416 336.273 243.367 336.273 243.317V241.438C336.277 241.39 336.299 241.346 336.335 241.313C336.37 241.281 336.416 241.263 336.464 241.263C336.512 241.263 336.558 241.281 336.594 241.313C336.629 241.346 336.651 241.39 336.655 241.438V243.317C336.655 243.367 336.635 243.415 336.599 243.451C336.564 243.486 336.515 243.507 336.465 243.507V243.507ZM336.465 239.752C336.414 239.752 336.366 239.732 336.33 239.697C336.294 239.661 336.273 239.613 336.273 239.562V237.685C336.271 237.658 336.274 237.631 336.282 237.606C336.291 237.581 336.305 237.558 336.323 237.538C336.341 237.519 336.362 237.503 336.387 237.492C336.411 237.481 336.438 237.476 336.464 237.476C336.491 237.476 336.517 237.481 336.542 237.492C336.566 237.503 336.588 237.519 336.606 237.538C336.624 237.558 336.638 237.581 336.646 237.606C336.655 237.631 336.658 237.658 336.655 237.685V239.562C336.656 239.587 336.652 239.613 336.642 239.636C336.633 239.66 336.619 239.682 336.601 239.7C336.584 239.718 336.562 239.733 336.539 239.743C336.516 239.753 336.49 239.758 336.465 239.758V239.752ZM336.465 235.998C336.414 235.998 336.366 235.978 336.33 235.942C336.294 235.906 336.273 235.858 336.273 235.807V233.93C336.271 233.903 336.274 233.877 336.282 233.851C336.291 233.826 336.305 233.803 336.323 233.783C336.341 233.764 336.362 233.748 336.387 233.737C336.411 233.727 336.438 233.721 336.464 233.721C336.491 233.721 336.517 233.727 336.542 233.737C336.566 233.748 336.588 233.764 336.606 233.783C336.624 233.803 336.638 233.826 336.646 233.851C336.655 233.877 336.658 233.903 336.655 233.93V235.807C336.655 235.858 336.635 235.906 336.599 235.941C336.564 235.977 336.515 235.997 336.465 235.998V235.998ZM336.465 232.243C336.414 232.243 336.366 232.223 336.33 232.187C336.294 232.152 336.273 232.103 336.273 232.053V230.175C336.271 230.149 336.274 230.122 336.282 230.097C336.291 230.072 336.305 230.048 336.323 230.029C336.341 230.009 336.362 229.993 336.387 229.983C336.411 229.972 336.438 229.966 336.464 229.966C336.491 229.966 336.517 229.972 336.542 229.983C336.566 229.993 336.588 230.009 336.606 230.029C336.624 230.048 336.638 230.072 336.646 230.097C336.655 230.122 336.658 230.149 336.655 230.175V232.056C336.654 232.105 336.634 232.153 336.598 232.188C336.563 232.223 336.515 232.243 336.465 232.243V232.243Z" fill="#E4E8ED"/>
<path d="M336.465 272.621C336.414 272.621 336.365 272.601 336.329 272.565C336.293 272.529 336.273 272.481 336.273 272.43V271.475C336.277 271.427 336.299 271.383 336.335 271.351C336.37 271.318 336.416 271.3 336.464 271.3C336.512 271.3 336.559 271.318 336.594 271.351C336.629 271.383 336.651 271.427 336.656 271.475V272.43C336.656 272.48 336.636 272.529 336.6 272.565C336.564 272.601 336.516 272.621 336.465 272.621V272.621Z" fill="#E4E8ED"/>
<path d="M383.613 264.999H314.954C314.928 265.001 314.901 264.998 314.876 264.99C314.85 264.981 314.827 264.967 314.808 264.949C314.788 264.931 314.772 264.91 314.762 264.885C314.751 264.861 314.745 264.835 314.745 264.808C314.745 264.781 314.751 264.755 314.762 264.731C314.772 264.706 314.788 264.684 314.808 264.666C314.827 264.648 314.85 264.635 314.876 264.626C314.901 264.618 314.928 264.614 314.954 264.617H383.613C383.64 264.614 383.667 264.618 383.692 264.626C383.717 264.635 383.74 264.648 383.76 264.666C383.78 264.684 383.795 264.706 383.806 264.731C383.817 264.755 383.822 264.781 383.822 264.808C383.822 264.835 383.817 264.861 383.806 264.885C383.795 264.91 383.78 264.931 383.76 264.949C383.74 264.967 383.717 264.981 383.692 264.99C383.667 264.998 383.64 265.001 383.613 264.999V264.999Z" fill="#E4E8ED"/>
<path d="M383.613 256.277H314.954C314.904 256.277 314.855 256.257 314.819 256.221C314.784 256.185 314.764 256.137 314.764 256.087C314.764 256.036 314.784 255.988 314.819 255.952C314.855 255.916 314.904 255.896 314.954 255.896H383.613C383.664 255.896 383.712 255.916 383.748 255.952C383.784 255.988 383.804 256.036 383.804 256.087C383.804 256.137 383.784 256.185 383.748 256.221C383.712 256.257 383.664 256.277 383.613 256.277V256.277Z" fill="#E4E8ED"/>
<path d="M383.613 246.919H314.954C314.927 246.921 314.901 246.918 314.875 246.909C314.85 246.901 314.827 246.887 314.807 246.869C314.788 246.851 314.772 246.829 314.761 246.805C314.75 246.781 314.745 246.754 314.745 246.728C314.745 246.701 314.75 246.675 314.761 246.65C314.772 246.626 314.788 246.604 314.807 246.586C314.827 246.568 314.85 246.555 314.875 246.546C314.901 246.537 314.927 246.534 314.954 246.537H383.613C383.639 246.534 383.666 246.537 383.691 246.546C383.717 246.555 383.74 246.568 383.76 246.586C383.779 246.604 383.795 246.626 383.806 246.65C383.816 246.675 383.822 246.701 383.822 246.728C383.822 246.754 383.816 246.781 383.806 246.805C383.795 246.829 383.779 246.851 383.76 246.869C383.74 246.887 383.717 246.901 383.691 246.909C383.666 246.918 383.639 246.921 383.613 246.919V246.919Z" fill="#E4E8ED"/>
<path d="M383.614 238.535L314.954 238.535C314.928 238.537 314.901 238.534 314.876 238.526C314.851 238.517 314.827 238.503 314.808 238.485C314.788 238.467 314.772 238.446 314.762 238.421C314.751 238.397 314.745 238.371 314.745 238.344C314.745 238.317 314.751 238.291 314.762 238.267C314.772 238.242 314.788 238.22 314.808 238.202C314.827 238.184 314.851 238.171 314.876 238.162C314.901 238.154 314.928 238.15 314.954 238.153H383.614C383.64 238.15 383.667 238.154 383.692 238.162C383.717 238.171 383.741 238.184 383.76 238.202C383.78 238.22 383.796 238.242 383.806 238.267C383.817 238.291 383.823 238.317 383.823 238.344C383.823 238.371 383.817 238.397 383.806 238.421C383.796 238.446 383.78 238.467 383.76 238.485C383.741 238.503 383.717 238.517 383.692 238.526C383.667 238.534 383.64 238.537 383.614 238.535V238.535Z" fill="#E4E8ED"/>
<path d="M383.613 229.506H314.954C314.927 229.509 314.901 229.505 314.875 229.497C314.85 229.488 314.827 229.475 314.807 229.457C314.788 229.439 314.772 229.417 314.761 229.393C314.75 229.368 314.745 229.342 314.745 229.315C314.745 229.289 314.75 229.262 314.761 229.238C314.772 229.214 314.788 229.192 314.807 229.174C314.827 229.156 314.85 229.142 314.875 229.134C314.901 229.125 314.927 229.122 314.954 229.124H383.613C383.639 229.122 383.666 229.125 383.691 229.134C383.717 229.142 383.74 229.156 383.76 229.174C383.779 229.192 383.795 229.214 383.806 229.238C383.816 229.262 383.822 229.289 383.822 229.315C383.822 229.342 383.816 229.368 383.806 229.393C383.795 229.417 383.779 229.439 383.76 229.457C383.74 229.475 383.717 229.488 383.691 229.497C383.666 229.505 383.639 229.509 383.613 229.506V229.506Z" fill="#E4E8ED"/>
<path d="M350.759 228.49C350.708 228.49 350.659 228.469 350.623 228.433C350.587 228.397 350.567 228.349 350.567 228.298V227.343C350.564 227.317 350.567 227.29 350.576 227.265C350.584 227.24 350.598 227.216 350.616 227.197C350.634 227.177 350.656 227.162 350.68 227.151C350.705 227.14 350.731 227.135 350.758 227.135C350.784 227.135 350.811 227.14 350.835 227.151C350.86 227.162 350.881 227.177 350.899 227.197C350.917 227.216 350.931 227.24 350.94 227.265C350.948 227.29 350.951 227.317 350.949 227.343V228.298C350.949 228.323 350.944 228.348 350.935 228.371C350.925 228.394 350.911 228.415 350.894 228.433C350.876 228.451 350.855 228.465 350.832 228.475C350.809 228.485 350.784 228.49 350.759 228.49V228.49Z" fill="#E4E8ED"/>
<path d="M350.758 269.788C350.708 269.788 350.659 269.768 350.623 269.733C350.587 269.697 350.567 269.649 350.566 269.598V267.721C350.564 267.694 350.567 267.667 350.576 267.642C350.584 267.617 350.598 267.594 350.616 267.574C350.634 267.554 350.656 267.539 350.68 267.528C350.705 267.517 350.731 267.512 350.758 267.512C350.784 267.512 350.811 267.517 350.835 267.528C350.859 267.539 350.881 267.554 350.899 267.574C350.917 267.594 350.931 267.617 350.94 267.642C350.948 267.667 350.951 267.694 350.949 267.721V269.598C350.949 269.648 350.929 269.697 350.893 269.732C350.857 269.768 350.809 269.788 350.758 269.788V269.788ZM350.758 266.035C350.708 266.035 350.659 266.015 350.623 265.979C350.587 265.943 350.566 265.894 350.566 265.843V263.966C350.564 263.939 350.567 263.913 350.576 263.887C350.584 263.862 350.598 263.839 350.616 263.819C350.634 263.8 350.656 263.784 350.68 263.773C350.705 263.763 350.731 263.757 350.758 263.757C350.784 263.757 350.811 263.763 350.835 263.773C350.859 263.784 350.881 263.8 350.899 263.819C350.917 263.839 350.931 263.862 350.94 263.887C350.948 263.913 350.951 263.939 350.949 263.966V265.843C350.95 265.869 350.945 265.894 350.936 265.917C350.926 265.941 350.913 265.963 350.895 265.981C350.877 265.999 350.856 266.013 350.832 266.023C350.809 266.033 350.784 266.038 350.758 266.038V266.035ZM350.758 262.28C350.708 262.28 350.659 262.26 350.623 262.224C350.587 262.188 350.566 262.139 350.566 262.089V260.211C350.571 260.163 350.593 260.119 350.628 260.087C350.663 260.054 350.71 260.036 350.758 260.036C350.806 260.036 350.852 260.054 350.887 260.087C350.923 260.119 350.945 260.163 350.949 260.211V262.089C350.949 262.114 350.944 262.139 350.935 262.162C350.925 262.185 350.911 262.206 350.894 262.224C350.876 262.242 350.855 262.256 350.832 262.266C350.808 262.275 350.784 262.28 350.758 262.28V262.28ZM350.758 258.526C350.708 258.526 350.659 258.505 350.623 258.47C350.587 258.434 350.566 258.385 350.566 258.334V256.457C350.571 256.409 350.593 256.364 350.628 256.332C350.663 256.3 350.71 256.282 350.758 256.282C350.806 256.282 350.852 256.3 350.887 256.332C350.923 256.364 350.945 256.409 350.949 256.457V258.335C350.949 258.386 350.929 258.434 350.893 258.47C350.857 258.506 350.809 258.526 350.758 258.526V258.526ZM350.758 254.771C350.708 254.771 350.659 254.751 350.623 254.715C350.587 254.679 350.566 254.63 350.566 254.579V252.702C350.571 252.654 350.593 252.61 350.628 252.577C350.663 252.545 350.71 252.527 350.758 252.527C350.806 252.527 350.852 252.545 350.887 252.577C350.923 252.61 350.945 252.654 350.949 252.702V254.579C350.949 254.604 350.944 254.629 350.935 254.652C350.925 254.676 350.911 254.697 350.894 254.715C350.876 254.733 350.855 254.747 350.832 254.756C350.808 254.766 350.784 254.771 350.758 254.771V254.771ZM350.758 251.016C350.708 251.016 350.659 250.996 350.623 250.96C350.587 250.924 350.566 250.875 350.566 250.825V248.947C350.571 248.899 350.593 248.855 350.628 248.823C350.663 248.79 350.71 248.772 350.758 248.772C350.806 248.772 350.852 248.79 350.887 248.823C350.923 248.855 350.945 248.899 350.949 248.947V250.825C350.949 250.85 350.944 250.875 350.935 250.898C350.925 250.921 350.911 250.942 350.894 250.96C350.876 250.978 350.855 250.992 350.832 251.002C350.808 251.011 350.784 251.016 350.758 251.016V251.016ZM350.758 247.262C350.708 247.262 350.659 247.241 350.623 247.205C350.587 247.169 350.566 247.121 350.566 247.07V245.196C350.571 245.148 350.593 245.103 350.628 245.071C350.663 245.039 350.71 245.021 350.758 245.021C350.806 245.021 350.852 245.039 350.887 245.071C350.923 245.103 350.945 245.148 350.949 245.196V247.073C350.949 247.123 350.928 247.171 350.893 247.206C350.857 247.242 350.809 247.262 350.758 247.262V247.262ZM350.758 243.507C350.708 243.507 350.659 243.487 350.623 243.451C350.587 243.416 350.567 243.367 350.566 243.317V241.438C350.571 241.39 350.593 241.346 350.628 241.313C350.663 241.281 350.71 241.263 350.758 241.263C350.806 241.263 350.852 241.281 350.887 241.313C350.923 241.346 350.945 241.39 350.949 241.438V243.317C350.949 243.367 350.929 243.416 350.893 243.451C350.857 243.487 350.809 243.507 350.758 243.507V243.507ZM350.758 239.752C350.708 239.752 350.659 239.732 350.623 239.697C350.587 239.661 350.567 239.613 350.566 239.562V237.685C350.564 237.658 350.567 237.631 350.576 237.606C350.584 237.581 350.598 237.558 350.616 237.538C350.634 237.519 350.656 237.503 350.68 237.492C350.705 237.481 350.731 237.476 350.758 237.476C350.784 237.476 350.811 237.481 350.835 237.492C350.859 237.503 350.881 237.519 350.899 237.538C350.917 237.558 350.931 237.581 350.94 237.606C350.948 237.631 350.951 237.658 350.949 237.685V239.562C350.95 239.587 350.945 239.613 350.936 239.637C350.927 239.66 350.913 239.682 350.895 239.7C350.878 239.719 350.856 239.733 350.833 239.743C350.809 239.753 350.784 239.758 350.758 239.758V239.752ZM350.758 235.998C350.708 235.998 350.659 235.978 350.623 235.942C350.587 235.906 350.567 235.858 350.566 235.807V233.93C350.564 233.903 350.567 233.877 350.576 233.851C350.584 233.826 350.598 233.803 350.616 233.783C350.634 233.764 350.656 233.748 350.68 233.737C350.705 233.727 350.731 233.721 350.758 233.721C350.784 233.721 350.811 233.727 350.835 233.737C350.859 233.748 350.881 233.764 350.899 233.783C350.917 233.803 350.931 233.826 350.94 233.851C350.948 233.877 350.951 233.903 350.949 233.93V235.807C350.949 235.858 350.929 235.906 350.893 235.942C350.857 235.978 350.809 235.998 350.758 235.998V235.998ZM350.758 232.243C350.708 232.243 350.659 232.223 350.623 232.187C350.587 232.152 350.567 232.103 350.566 232.053V230.175C350.564 230.149 350.567 230.122 350.576 230.097C350.584 230.072 350.598 230.048 350.616 230.029C350.634 230.009 350.656 229.993 350.68 229.983C350.705 229.972 350.731 229.966 350.758 229.966C350.784 229.966 350.811 229.972 350.835 229.983C350.859 229.993 350.881 230.009 350.899 230.029C350.917 230.048 350.931 230.072 350.94 230.097C350.948 230.122 350.951 230.149 350.949 230.175V232.056C350.948 232.106 350.928 232.153 350.892 232.188C350.856 232.223 350.808 232.243 350.758 232.243V232.243Z" fill="#E4E8ED"/>
<path d="M350.758 272.621C350.707 272.621 350.658 272.601 350.622 272.565C350.586 272.529 350.566 272.481 350.566 272.43V271.475C350.57 271.427 350.592 271.383 350.628 271.351C350.663 271.318 350.709 271.3 350.757 271.3C350.805 271.3 350.851 271.318 350.887 271.351C350.922 271.383 350.944 271.427 350.948 271.475V272.43C350.949 272.455 350.944 272.48 350.934 272.503C350.925 272.526 350.911 272.547 350.893 272.565C350.875 272.583 350.854 272.597 350.831 272.607C350.808 272.617 350.783 272.621 350.758 272.621V272.621Z" fill="#E4E8ED"/>
<path d="M365.052 228.489C365.002 228.489 364.953 228.469 364.918 228.433C364.882 228.397 364.862 228.348 364.862 228.298V227.343C364.859 227.317 364.863 227.29 364.871 227.265C364.88 227.24 364.893 227.216 364.911 227.197C364.929 227.177 364.951 227.161 364.976 227.151C365 227.14 365.026 227.134 365.053 227.134C365.08 227.134 365.106 227.14 365.13 227.151C365.155 227.161 365.177 227.177 365.195 227.197C365.213 227.216 365.226 227.24 365.235 227.265C365.243 227.29 365.247 227.317 365.244 227.343V228.298C365.244 228.349 365.224 228.397 365.188 228.433C365.152 228.469 365.103 228.489 365.052 228.489V228.489Z" fill="#E4E8ED"/>
<path d="M365.052 269.788C365.002 269.788 364.954 269.768 364.918 269.732C364.883 269.697 364.862 269.648 364.862 269.598V267.721C364.86 267.694 364.863 267.667 364.871 267.642C364.88 267.617 364.894 267.594 364.912 267.574C364.93 267.555 364.951 267.539 364.976 267.528C365 267.517 365.027 267.512 365.053 267.512C365.08 267.512 365.106 267.517 365.131 267.528C365.155 267.539 365.177 267.555 365.195 267.574C365.213 267.594 365.227 267.617 365.235 267.642C365.244 267.667 365.247 267.694 365.244 267.721V269.598C365.244 269.649 365.224 269.697 365.188 269.733C365.152 269.768 365.103 269.788 365.052 269.788V269.788ZM365.052 266.035C365.002 266.035 364.953 266.014 364.918 265.978C364.882 265.943 364.862 265.894 364.862 265.843V263.966C364.86 263.94 364.863 263.913 364.871 263.888C364.88 263.862 364.894 263.839 364.912 263.82C364.93 263.8 364.951 263.784 364.976 263.774C365 263.763 365.027 263.757 365.053 263.757C365.08 263.757 365.106 263.763 365.131 263.774C365.155 263.784 365.177 263.8 365.195 263.82C365.213 263.839 365.227 263.862 365.235 263.888C365.244 263.913 365.247 263.94 365.244 263.966V265.843C365.245 265.869 365.24 265.894 365.231 265.918C365.221 265.941 365.207 265.963 365.189 265.981C365.171 265.999 365.15 266.014 365.127 266.023C365.103 266.033 365.078 266.038 365.052 266.038V266.035ZM365.052 262.281C365.002 262.28 364.953 262.26 364.918 262.224C364.882 262.188 364.862 262.139 364.862 262.089V260.211C364.866 260.164 364.888 260.119 364.924 260.087C364.959 260.054 365.005 260.037 365.053 260.037C365.101 260.037 365.147 260.054 365.183 260.087C365.218 260.119 365.24 260.164 365.244 260.211V262.089C365.244 262.14 365.224 262.188 365.188 262.224C365.152 262.26 365.103 262.281 365.052 262.281V262.281ZM365.052 258.526C365.003 258.524 364.956 258.503 364.922 258.468C364.888 258.432 364.868 258.385 364.868 258.336V256.458C364.872 256.41 364.894 256.366 364.93 256.334C364.965 256.301 365.011 256.283 365.059 256.283C365.107 256.283 365.153 256.301 365.189 256.334C365.224 256.366 365.246 256.41 365.251 256.458V258.336C365.25 258.361 365.245 258.386 365.235 258.41C365.225 258.433 365.21 258.455 365.192 258.472C365.173 258.49 365.151 258.504 365.127 258.513C365.104 258.522 365.078 258.527 365.052 258.526V258.526ZM365.052 254.771C365.002 254.771 364.953 254.75 364.918 254.714C364.882 254.679 364.862 254.63 364.862 254.579V252.702C364.866 252.654 364.888 252.61 364.924 252.577C364.959 252.545 365.005 252.527 365.053 252.527C365.101 252.527 365.147 252.545 365.183 252.577C365.218 252.61 365.24 252.654 365.244 252.702V254.579C365.244 254.63 365.224 254.679 365.188 254.715C365.152 254.751 365.103 254.771 365.052 254.771V254.771ZM365.052 251.016C365.002 251.016 364.953 250.996 364.918 250.96C364.882 250.924 364.862 250.875 364.862 250.825V248.947C364.866 248.9 364.888 248.855 364.924 248.823C364.959 248.79 365.005 248.773 365.053 248.773C365.101 248.773 365.147 248.79 365.183 248.823C365.218 248.855 365.24 248.9 365.244 248.947V250.825C365.244 250.876 365.224 250.924 365.188 250.96C365.152 250.996 365.103 251.016 365.052 251.016V251.016ZM365.052 247.262C365.002 247.261 364.953 247.241 364.918 247.205C364.882 247.169 364.862 247.121 364.862 247.07V245.196C364.866 245.148 364.888 245.104 364.924 245.071C364.959 245.039 365.005 245.021 365.053 245.021C365.101 245.021 365.147 245.039 365.183 245.071C365.218 245.104 365.24 245.148 365.244 245.196V247.073C365.244 247.123 365.223 247.171 365.187 247.207C365.151 247.242 365.103 247.262 365.052 247.262V247.262ZM365.052 243.507C365.002 243.507 364.954 243.487 364.918 243.451C364.883 243.415 364.862 243.367 364.862 243.317V241.438C364.866 241.39 364.888 241.346 364.924 241.313C364.959 241.281 365.005 241.263 365.053 241.263C365.101 241.263 365.147 241.281 365.183 241.313C365.218 241.346 365.24 241.39 365.244 241.438V243.317C365.244 243.367 365.224 243.416 365.188 243.451C365.152 243.487 365.103 243.507 365.052 243.507V243.507ZM365.052 239.752C365.002 239.752 364.954 239.732 364.918 239.696C364.883 239.661 364.862 239.612 364.862 239.562V237.685C364.86 237.658 364.863 237.632 364.871 237.606C364.88 237.581 364.894 237.558 364.912 237.538C364.93 237.519 364.951 237.503 364.976 237.492C365 237.481 365.027 237.476 365.053 237.476C365.08 237.476 365.106 237.481 365.131 237.492C365.155 237.503 365.177 237.519 365.195 237.538C365.213 237.558 365.227 237.581 365.235 237.606C365.244 237.632 365.247 237.658 365.244 237.685V239.562C365.245 239.588 365.241 239.613 365.231 239.637C365.222 239.661 365.208 239.682 365.19 239.701C365.172 239.719 365.151 239.734 365.127 239.743C365.103 239.753 365.078 239.758 365.052 239.758V239.752ZM365.052 235.998C365.002 235.997 364.954 235.977 364.918 235.942C364.883 235.906 364.862 235.858 364.862 235.807V233.93C364.86 233.904 364.863 233.877 364.871 233.852C364.88 233.826 364.894 233.803 364.912 233.784C364.93 233.764 364.951 233.748 364.976 233.738C365 233.727 365.027 233.721 365.053 233.721C365.08 233.721 365.106 233.727 365.131 233.738C365.155 233.748 365.177 233.764 365.195 233.784C365.213 233.803 365.227 233.826 365.235 233.852C365.244 233.877 365.247 233.904 365.244 233.93V235.807C365.244 235.858 365.224 235.906 365.188 235.942C365.152 235.978 365.103 235.998 365.052 235.998V235.998ZM365.052 232.243C365.004 232.241 364.957 232.221 364.923 232.186C364.889 232.151 364.869 232.105 364.868 232.056V230.178C364.866 230.152 364.869 230.125 364.877 230.1C364.886 230.075 364.9 230.052 364.918 230.032C364.936 230.012 364.957 229.997 364.982 229.986C365.006 229.975 365.033 229.97 365.059 229.97C365.086 229.97 365.112 229.975 365.137 229.986C365.161 229.997 365.183 230.012 365.201 230.032C365.219 230.052 365.233 230.075 365.241 230.1C365.25 230.125 365.253 230.152 365.251 230.178V232.056C365.25 232.081 365.244 232.106 365.234 232.129C365.224 232.152 365.209 232.173 365.191 232.191C365.172 232.208 365.15 232.222 365.127 232.231C365.103 232.24 365.078 232.244 365.052 232.243V232.243Z" fill="#E4E8ED"/>
<path d="M365.052 272.621C365.001 272.621 364.953 272.601 364.917 272.565C364.881 272.529 364.861 272.48 364.861 272.43V271.475C364.866 271.427 364.888 271.383 364.923 271.351C364.958 271.318 365.005 271.3 365.053 271.3C365.101 271.3 365.147 271.318 365.182 271.351C365.218 271.383 365.24 271.427 365.244 271.475V272.43C365.244 272.481 365.224 272.529 365.188 272.565C365.152 272.601 365.103 272.621 365.052 272.621V272.621Z" fill="#E4E8ED"/>
<path d="M379.347 228.49C379.296 228.49 379.247 228.469 379.211 228.433C379.175 228.397 379.155 228.349 379.155 228.298V227.343C379.153 227.317 379.156 227.29 379.165 227.265C379.173 227.24 379.187 227.216 379.205 227.197C379.223 227.177 379.245 227.162 379.269 227.151C379.293 227.14 379.32 227.135 379.346 227.135C379.373 227.135 379.399 227.14 379.424 227.151C379.448 227.162 379.47 227.177 379.488 227.197C379.506 227.216 379.52 227.24 379.528 227.265C379.537 227.29 379.54 227.317 379.538 227.343V228.298C379.538 228.348 379.518 228.397 379.482 228.433C379.446 228.469 379.398 228.489 379.347 228.49V228.49Z" fill="#E4E8ED"/>
<path d="M379.347 269.788C379.297 269.788 379.248 269.768 379.212 269.733C379.176 269.697 379.156 269.649 379.155 269.598V267.721C379.153 267.694 379.156 267.667 379.165 267.642C379.173 267.617 379.187 267.594 379.205 267.574C379.223 267.554 379.245 267.539 379.269 267.528C379.293 267.517 379.32 267.512 379.346 267.512C379.373 267.512 379.399 267.517 379.424 267.528C379.448 267.539 379.47 267.554 379.488 267.574C379.506 267.594 379.52 267.617 379.528 267.642C379.537 267.667 379.54 267.694 379.538 267.721V269.598C379.537 269.648 379.517 269.696 379.481 269.732C379.446 269.768 379.398 269.788 379.347 269.788ZM379.347 266.035C379.296 266.035 379.247 266.015 379.211 265.979C379.175 265.943 379.155 265.894 379.155 265.843V263.966C379.153 263.939 379.156 263.913 379.165 263.887C379.173 263.862 379.187 263.839 379.205 263.819C379.223 263.8 379.245 263.784 379.269 263.773C379.293 263.763 379.32 263.757 379.346 263.757C379.373 263.757 379.399 263.763 379.424 263.773C379.448 263.784 379.47 263.8 379.488 263.819C379.506 263.839 379.52 263.862 379.528 263.887C379.537 263.913 379.54 263.939 379.538 263.966V265.843C379.538 265.869 379.533 265.894 379.524 265.917C379.515 265.941 379.501 265.962 379.483 265.98C379.465 265.998 379.444 266.013 379.421 266.023C379.398 266.033 379.373 266.038 379.347 266.038V266.035ZM379.347 262.28C379.296 262.28 379.247 262.26 379.211 262.224C379.175 262.188 379.155 262.139 379.155 262.089V260.211C379.159 260.163 379.181 260.119 379.217 260.087C379.252 260.054 379.298 260.036 379.346 260.036C379.394 260.036 379.441 260.054 379.476 260.087C379.511 260.119 379.533 260.163 379.538 260.211V262.089C379.538 262.139 379.518 262.188 379.482 262.224C379.446 262.26 379.398 262.28 379.347 262.28V262.28ZM379.347 258.526C379.296 258.526 379.247 258.505 379.211 258.47C379.175 258.434 379.155 258.385 379.155 258.334V256.457C379.159 256.409 379.181 256.364 379.217 256.332C379.252 256.3 379.298 256.282 379.346 256.282C379.394 256.282 379.441 256.3 379.476 256.332C379.511 256.364 379.533 256.409 379.538 256.457V258.335C379.537 258.386 379.517 258.434 379.481 258.47C379.446 258.505 379.398 258.525 379.347 258.526V258.526ZM379.347 254.771C379.296 254.771 379.247 254.751 379.211 254.715C379.175 254.679 379.155 254.63 379.155 254.579V252.702C379.159 252.654 379.181 252.61 379.217 252.577C379.252 252.545 379.298 252.527 379.346 252.527C379.394 252.527 379.441 252.545 379.476 252.577C379.511 252.61 379.533 252.654 379.538 252.702V254.579C379.538 254.63 379.518 254.678 379.482 254.714C379.446 254.75 379.398 254.771 379.347 254.771V254.771ZM379.347 251.016C379.296 251.016 379.247 250.996 379.211 250.96C379.175 250.924 379.155 250.875 379.155 250.825V248.947C379.159 248.899 379.181 248.855 379.217 248.823C379.252 248.79 379.298 248.772 379.346 248.772C379.394 248.772 379.441 248.79 379.476 248.823C379.511 248.855 379.533 248.899 379.538 248.947V250.825C379.538 250.875 379.518 250.924 379.482 250.96C379.446 250.996 379.398 251.016 379.347 251.016V251.016ZM379.347 247.262C379.296 247.262 379.247 247.241 379.211 247.205C379.175 247.169 379.155 247.121 379.155 247.07V245.196C379.159 245.148 379.181 245.103 379.217 245.071C379.252 245.039 379.298 245.021 379.346 245.021C379.394 245.021 379.441 245.039 379.476 245.071C379.511 245.103 379.533 245.148 379.538 245.196V247.073C379.537 247.123 379.516 247.171 379.481 247.206C379.445 247.241 379.397 247.261 379.347 247.262V247.262ZM379.347 243.507C379.297 243.507 379.248 243.487 379.212 243.451C379.176 243.416 379.156 243.367 379.155 243.317V241.438C379.159 241.39 379.181 241.346 379.217 241.313C379.252 241.281 379.298 241.263 379.346 241.263C379.394 241.263 379.441 241.281 379.476 241.313C379.511 241.346 379.533 241.39 379.538 241.438V243.317C379.537 243.367 379.517 243.415 379.481 243.451C379.446 243.486 379.398 243.507 379.347 243.507V243.507ZM379.347 239.752C379.297 239.752 379.248 239.732 379.212 239.697C379.176 239.661 379.156 239.613 379.155 239.562V237.685C379.153 237.658 379.156 237.631 379.165 237.606C379.173 237.581 379.187 237.558 379.205 237.538C379.223 237.519 379.245 237.503 379.269 237.492C379.293 237.481 379.32 237.476 379.346 237.476C379.373 237.476 379.399 237.481 379.424 237.492C379.448 237.503 379.47 237.519 379.488 237.538C379.506 237.558 379.52 237.581 379.528 237.606C379.537 237.631 379.54 237.658 379.538 237.685V239.562C379.538 239.587 379.534 239.613 379.525 239.636C379.515 239.66 379.501 239.682 379.484 239.7C379.466 239.718 379.445 239.733 379.421 239.743C379.398 239.753 379.373 239.758 379.347 239.758V239.752ZM379.347 235.998C379.297 235.998 379.248 235.978 379.212 235.942C379.176 235.906 379.156 235.858 379.155 235.807V233.93C379.153 233.903 379.156 233.877 379.165 233.851C379.173 233.826 379.187 233.803 379.205 233.783C379.223 233.764 379.245 233.748 379.269 233.737C379.293 233.727 379.32 233.721 379.346 233.721C379.373 233.721 379.399 233.727 379.424 233.737C379.448 233.748 379.47 233.764 379.488 233.783C379.506 233.803 379.52 233.826 379.528 233.851C379.537 233.877 379.54 233.903 379.538 233.93V235.807C379.537 235.858 379.517 235.906 379.481 235.941C379.446 235.977 379.398 235.997 379.347 235.998V235.998ZM379.347 232.243C379.297 232.243 379.248 232.223 379.212 232.187C379.176 232.152 379.156 232.103 379.155 232.053V230.175C379.153 230.149 379.156 230.122 379.165 230.097C379.173 230.072 379.187 230.048 379.205 230.029C379.223 230.009 379.245 229.993 379.269 229.983C379.293 229.972 379.32 229.966 379.346 229.966C379.373 229.966 379.399 229.972 379.424 229.983C379.448 229.993 379.47 230.009 379.488 230.029C379.506 230.048 379.52 230.072 379.528 230.097C379.537 230.122 379.54 230.149 379.538 230.175V232.056C379.536 232.105 379.516 232.153 379.48 232.188C379.445 232.223 379.397 232.243 379.347 232.243V232.243Z" fill="#E4E8ED"/>
<path d="M379.347 272.621C379.296 272.621 379.247 272.601 379.211 272.565C379.175 272.529 379.155 272.481 379.155 272.43V271.475C379.159 271.427 379.181 271.383 379.217 271.351C379.252 271.318 379.298 271.3 379.346 271.3C379.394 271.3 379.441 271.318 379.476 271.351C379.511 271.383 379.533 271.427 379.538 271.475V272.43C379.538 272.48 379.518 272.529 379.482 272.565C379.446 272.601 379.398 272.621 379.347 272.621V272.621Z" fill="#E4E8ED"/>
<path d="M392.462 272.621H314.395C314.344 272.621 314.295 272.601 314.259 272.565C314.223 272.529 314.203 272.48 314.203 272.43V227.343C314.2 227.317 314.204 227.29 314.212 227.265C314.221 227.24 314.234 227.216 314.252 227.197C314.27 227.177 314.292 227.161 314.317 227.151C314.341 227.14 314.367 227.134 314.394 227.134C314.421 227.134 314.447 227.14 314.471 227.151C314.496 227.161 314.518 227.177 314.536 227.197C314.554 227.216 314.567 227.24 314.576 227.265C314.584 227.29 314.588 227.317 314.585 227.343V272.239H392.462C392.509 272.244 392.554 272.266 392.586 272.301C392.619 272.336 392.636 272.382 392.636 272.43C392.636 272.478 392.619 272.524 392.586 272.56C392.554 272.595 392.509 272.617 392.462 272.621Z" fill="#E4E8ED"/>
<path d="M340.449 265.023C340.417 265.023 340.386 265.016 340.358 265.003C340.329 264.99 340.304 264.97 340.284 264.946L333.106 256.429L326.409 264.942C326.389 264.967 326.363 264.988 326.333 265.002C326.304 265.016 326.271 265.023 326.238 265.023V265.023L317.068 264.975C317.04 264.975 317.012 264.969 316.986 264.958C316.96 264.947 316.936 264.932 316.916 264.911C316.896 264.891 316.88 264.868 316.869 264.841C316.859 264.815 316.853 264.787 316.854 264.759C316.854 264.702 316.877 264.647 316.917 264.607C316.958 264.566 317.012 264.543 317.07 264.543V264.543L326.14 264.591L332.943 255.954C332.963 255.928 332.988 255.908 333.017 255.893C333.046 255.879 333.077 255.871 333.109 255.871C333.141 255.871 333.172 255.878 333.2 255.891C333.229 255.904 333.254 255.924 333.274 255.948L340.349 264.344L346.745 238.292C346.756 238.251 346.778 238.214 346.809 238.185C346.84 238.156 346.879 238.138 346.921 238.131C346.963 238.124 347.006 238.13 347.045 238.148C347.083 238.165 347.116 238.194 347.138 238.23L357.972 255.765L369.352 246.552C369.374 246.534 369.399 246.521 369.427 246.513C369.454 246.505 369.483 246.503 369.511 246.506C369.54 246.509 369.569 246.517 369.595 246.531C369.621 246.544 369.644 246.563 369.662 246.587L376.959 255.863H382.078C382.106 255.863 382.134 255.869 382.161 255.879C382.187 255.89 382.211 255.906 382.231 255.926C382.251 255.946 382.267 255.97 382.278 255.996C382.289 256.023 382.294 256.051 382.294 256.079C382.294 256.107 382.289 256.135 382.278 256.162C382.267 256.188 382.251 256.212 382.231 256.232C382.211 256.252 382.187 256.268 382.161 256.278C382.134 256.289 382.106 256.295 382.078 256.295H376.853C376.821 256.295 376.789 256.287 376.759 256.273C376.73 256.259 376.704 256.239 376.684 256.213L369.458 247.026L358.056 256.239C358.033 256.259 358.006 256.274 357.976 256.282C357.946 256.29 357.915 256.29 357.885 256.284C357.854 256.28 357.825 256.268 357.799 256.251C357.773 256.234 357.751 256.211 357.734 256.185L347.03 238.896L340.656 264.859C340.645 264.896 340.625 264.93 340.597 264.956C340.569 264.983 340.534 265.001 340.496 265.01C340.481 265.016 340.465 265.021 340.449 265.023V265.023Z" fill="#00D0B2"/>
<path d="M369.274 265.023C369.229 265.023 369.185 265.008 369.148 264.981C369.111 264.954 369.084 264.916 369.07 264.872L356.704 230.012L348.925 256.141C348.911 256.185 348.884 256.223 348.846 256.251C348.809 256.278 348.764 256.292 348.718 256.292H339.024C338.984 256.292 338.944 256.281 338.91 256.259C338.876 256.238 338.849 256.207 338.831 256.171L326.218 230.157L316.543 246.827C316.529 246.852 316.509 246.874 316.486 246.892C316.463 246.91 316.437 246.922 316.408 246.93C316.38 246.937 316.351 246.938 316.322 246.934C316.293 246.929 316.266 246.919 316.241 246.904C316.215 246.89 316.193 246.87 316.175 246.847C316.157 246.824 316.144 246.798 316.136 246.77C316.129 246.741 316.127 246.712 316.132 246.683C316.136 246.654 316.147 246.626 316.162 246.602L326.038 229.582C326.056 229.546 326.084 229.516 326.119 229.497C326.154 229.477 326.194 229.47 326.233 229.474C326.272 229.476 326.31 229.488 326.343 229.509C326.376 229.53 326.402 229.56 326.419 229.595L339.168 255.87H348.564L356.487 229.254C356.5 229.211 356.527 229.173 356.563 229.146C356.599 229.119 356.643 229.104 356.688 229.103C356.735 229.1 356.781 229.114 356.819 229.141C356.857 229.169 356.884 229.209 356.896 229.254L369.176 263.881L372.313 238.328C372.319 238.276 372.345 238.227 372.384 238.192C372.424 238.157 372.475 238.138 372.528 238.138H382.068C382.097 238.138 382.125 238.143 382.151 238.154C382.177 238.165 382.201 238.181 382.221 238.201C382.241 238.221 382.257 238.245 382.268 238.271C382.279 238.297 382.285 238.325 382.285 238.354C382.285 238.382 382.279 238.41 382.268 238.436C382.257 238.462 382.241 238.486 382.221 238.506C382.201 238.526 382.177 238.542 382.151 238.553C382.125 238.564 382.097 238.57 382.068 238.57H372.714L369.489 264.849C369.483 264.898 369.461 264.942 369.427 264.976C369.392 265.01 369.347 265.032 369.299 265.037L369.274 265.023Z" fill="#4857EF"/>
<path d="M384.245 256.086C384.245 256.518 384.117 256.939 383.877 257.298C383.637 257.657 383.296 257.936 382.897 258.101C382.498 258.266 382.059 258.309 381.636 258.225C381.212 258.141 380.824 257.933 380.518 257.628C380.213 257.323 380.005 256.934 379.921 256.511C379.837 256.088 379.881 255.649 380.046 255.251C380.212 254.852 380.492 254.512 380.851 254.272C381.21 254.033 381.632 253.905 382.064 253.906C382.35 253.906 382.634 253.962 382.899 254.072C383.164 254.181 383.404 254.342 383.607 254.544C383.809 254.747 383.97 254.987 384.08 255.252C384.189 255.517 384.245 255.8 384.245 256.086V256.086Z" fill="#00D0B2"/>
<path d="M382.064 256.727C382.418 256.727 382.704 256.44 382.704 256.086C382.704 255.733 382.418 255.446 382.064 255.446C381.71 255.446 381.423 255.733 381.423 256.086C381.423 256.44 381.71 256.727 382.064 256.727Z" fill="white"/>
<path d="M384.245 238.343C384.245 238.775 384.117 239.197 383.878 239.555C383.638 239.914 383.297 240.194 382.898 240.359C382.499 240.524 382.06 240.568 381.637 240.484C381.213 240.4 380.824 240.192 380.519 239.887C380.213 239.582 380.005 239.193 379.921 238.77C379.837 238.347 379.88 237.908 380.046 237.509C380.211 237.111 380.491 236.77 380.85 236.531C381.209 236.291 381.632 236.164 382.064 236.164C382.642 236.164 383.197 236.394 383.606 236.802C384.015 237.211 384.245 237.765 384.245 238.343V238.343Z" fill="#4857EF"/>
<path d="M382.064 238.984C382.418 238.984 382.705 238.697 382.705 238.343C382.705 237.99 382.418 237.703 382.064 237.703C381.71 237.703 381.423 237.99 381.423 238.343C381.423 238.697 381.71 238.984 382.064 238.984Z" fill="white"/>
<path d="M416.164 261.413H415.25C415.201 261.413 415.155 261.396 415.12 261.366C415.086 261.336 415.066 261.296 415.066 261.253C415.066 261.211 415.086 261.17 415.12 261.14C415.155 261.11 415.201 261.093 415.25 261.093H416.164C416.212 261.093 416.259 261.11 416.293 261.14C416.328 261.17 416.347 261.211 416.347 261.253C416.347 261.296 416.328 261.336 416.293 261.366C416.259 261.396 416.212 261.413 416.164 261.413V261.413Z" fill="#E4E8ED"/>
<path d="M471.231 261.413H469.265C469.215 261.413 469.166 261.396 469.13 261.366C469.095 261.336 469.075 261.296 469.075 261.253C469.075 261.211 469.095 261.17 469.13 261.14C469.166 261.11 469.215 261.093 469.265 261.093H471.231C471.281 261.093 471.33 261.11 471.366 261.14C471.402 261.17 471.422 261.211 471.422 261.253C471.422 261.296 471.402 261.336 471.366 261.366C471.33 261.396 471.281 261.413 471.231 261.413V261.413ZM467.299 261.413H465.332C465.282 261.413 465.233 261.396 465.197 261.366C465.162 261.336 465.141 261.296 465.141 261.253C465.141 261.211 465.162 261.17 465.197 261.14C465.233 261.11 465.282 261.093 465.332 261.093H467.299C467.35 261.093 467.398 261.11 467.434 261.14C467.47 261.17 467.49 261.211 467.49 261.253C467.49 261.296 467.47 261.336 467.434 261.366C467.398 261.396 467.35 261.413 467.299 261.413ZM463.366 261.413H461.399C461.349 261.413 461.3 261.396 461.264 261.366C461.228 261.336 461.208 261.296 461.208 261.253C461.208 261.211 461.228 261.17 461.264 261.14C461.3 261.11 461.349 261.093 461.399 261.093H463.366C463.417 261.093 463.465 261.11 463.501 261.14C463.537 261.17 463.557 261.211 463.557 261.253C463.557 261.296 463.537 261.336 463.501 261.366C463.465 261.396 463.417 261.413 463.366 261.413ZM459.433 261.413H457.466C457.416 261.413 457.367 261.396 457.331 261.366C457.295 261.336 457.275 261.296 457.275 261.253C457.275 261.211 457.295 261.17 457.331 261.14C457.367 261.11 457.416 261.093 457.466 261.093H459.433C459.483 261.093 459.532 261.11 459.568 261.14C459.604 261.17 459.624 261.211 459.624 261.253C459.624 261.296 459.604 261.336 459.568 261.366C459.532 261.396 459.483 261.413 459.433 261.413ZM455.501 261.413H453.534C453.484 261.413 453.435 261.396 453.399 261.366C453.364 261.336 453.343 261.296 453.343 261.253C453.343 261.211 453.364 261.17 453.399 261.14C453.435 261.11 453.484 261.093 453.534 261.093H455.497C455.548 261.093 455.596 261.11 455.632 261.14C455.668 261.17 455.688 261.211 455.688 261.253C455.688 261.296 455.668 261.336 455.632 261.366C455.596 261.396 455.548 261.413 455.497 261.413H455.501ZM451.568 261.413H449.601C449.551 261.413 449.502 261.396 449.466 261.366C449.43 261.336 449.41 261.296 449.41 261.253C449.41 261.211 449.43 261.17 449.466 261.14C449.502 261.11 449.551 261.093 449.601 261.093H451.568C451.618 261.093 451.667 261.11 451.703 261.14C451.739 261.17 451.759 261.211 451.759 261.253C451.759 261.296 451.739 261.336 451.703 261.366C451.667 261.396 451.618 261.413 451.568 261.413V261.413ZM447.635 261.413H445.668C445.618 261.413 445.569 261.396 445.533 261.366C445.497 261.336 445.477 261.296 445.477 261.253C445.477 261.211 445.497 261.17 445.533 261.14C445.569 261.11 445.618 261.093 445.668 261.093H447.635C447.685 261.093 447.734 261.11 447.77 261.14C447.806 261.17 447.826 261.211 447.826 261.253C447.826 261.296 447.806 261.336 447.77 261.366C447.734 261.396 447.685 261.413 447.635 261.413ZM443.702 261.413H441.736C441.686 261.413 441.637 261.396 441.601 261.366C441.566 261.336 441.545 261.296 441.545 261.253C441.545 261.211 441.566 261.17 441.601 261.14C441.637 261.11 441.686 261.093 441.736 261.093H443.702C443.752 261.093 443.801 261.11 443.837 261.14C443.872 261.17 443.893 261.211 443.893 261.253C443.893 261.296 443.872 261.336 443.837 261.366C443.801 261.396 443.752 261.413 443.702 261.413ZM439.77 261.413H437.805C437.754 261.413 437.705 261.396 437.67 261.366C437.634 261.336 437.614 261.296 437.614 261.253C437.614 261.211 437.634 261.17 437.67 261.14C437.705 261.11 437.754 261.093 437.805 261.093H439.771C439.822 261.093 439.87 261.11 439.906 261.14C439.942 261.17 439.962 261.211 439.962 261.253C439.962 261.296 439.942 261.336 439.906 261.366C439.87 261.396 439.822 261.413 439.771 261.413H439.77ZM435.837 261.413H433.87C433.82 261.413 433.771 261.396 433.735 261.366C433.699 261.336 433.679 261.296 433.679 261.253C433.679 261.211 433.699 261.17 433.735 261.14C433.771 261.11 433.82 261.093 433.87 261.093H435.837C435.887 261.093 435.936 261.11 435.972 261.14C436.008 261.17 436.028 261.211 436.028 261.253C436.028 261.296 436.008 261.336 435.972 261.366C435.936 261.396 435.887 261.413 435.837 261.413ZM431.904 261.413H429.937C429.886 261.413 429.838 261.396 429.802 261.366C429.766 261.336 429.746 261.296 429.746 261.253C429.746 261.211 429.766 261.17 429.802 261.14C429.838 261.11 429.886 261.093 429.937 261.093H431.904C431.954 261.093 432.003 261.11 432.039 261.14C432.074 261.17 432.095 261.211 432.095 261.253C432.095 261.296 432.074 261.336 432.039 261.366C432.003 261.396 431.954 261.413 431.904 261.413V261.413ZM427.972 261.413H426.005C425.955 261.413 425.906 261.396 425.87 261.366C425.834 261.336 425.814 261.296 425.814 261.253C425.814 261.211 425.834 261.17 425.87 261.14C425.906 261.11 425.955 261.093 426.005 261.093H427.972C428.022 261.093 428.071 261.11 428.107 261.14C428.143 261.17 428.163 261.211 428.163 261.253C428.163 261.296 428.143 261.336 428.107 261.366C428.071 261.396 428.022 261.413 427.972 261.413V261.413ZM424.039 261.413H422.072C422.022 261.413 421.973 261.396 421.937 261.366C421.901 261.336 421.881 261.296 421.881 261.253C421.881 261.211 421.901 261.17 421.937 261.14C421.973 261.11 422.022 261.093 422.072 261.093H424.039C424.089 261.093 424.138 261.11 424.174 261.14C424.21 261.17 424.23 261.211 424.23 261.253C424.23 261.296 424.21 261.336 424.174 261.366C424.138 261.396 424.089 261.413 424.039 261.413V261.413ZM420.106 261.413H418.139C418.088 261.413 418.04 261.396 418.004 261.366C417.968 261.336 417.948 261.296 417.948 261.253C417.948 261.211 417.968 261.17 418.004 261.14C418.04 261.11 418.088 261.093 418.139 261.093H420.112C420.163 261.093 420.211 261.11 420.247 261.14C420.283 261.17 420.303 261.211 420.303 261.253C420.303 261.296 420.283 261.336 420.247 261.366C420.211 261.396 420.163 261.413 420.112 261.413H420.106Z" fill="#E4E8ED"/>
<path d="M474.12 261.413H473.206C473.157 261.413 473.111 261.396 473.076 261.366C473.042 261.336 473.023 261.296 473.023 261.253C473.023 261.211 473.042 261.17 473.076 261.14C473.111 261.11 473.157 261.093 473.206 261.093H474.12C474.169 261.093 474.215 261.11 474.25 261.14C474.284 261.17 474.303 261.211 474.303 261.253C474.303 261.296 474.284 261.336 474.25 261.366C474.215 261.396 474.169 261.413 474.12 261.413V261.413Z" fill="#E4E8ED"/>
<path d="M416.164 252.768H415.25C415.201 252.768 415.155 252.734 415.12 252.674C415.086 252.614 415.066 252.532 415.066 252.447C415.066 252.362 415.086 252.281 415.12 252.221C415.155 252.161 415.201 252.127 415.25 252.127H416.164C416.212 252.127 416.259 252.161 416.293 252.221C416.328 252.281 416.347 252.362 416.347 252.447C416.347 252.532 416.328 252.614 416.293 252.674C416.259 252.734 416.212 252.768 416.164 252.768V252.768Z" fill="#E4E8ED"/>
<path d="M471.23 252.768H469.265C469.214 252.768 469.166 252.734 469.13 252.674C469.094 252.614 469.074 252.532 469.074 252.447C469.074 252.362 469.094 252.281 469.13 252.221C469.166 252.161 469.214 252.127 469.265 252.127H471.23C471.281 252.127 471.33 252.161 471.365 252.221C471.401 252.281 471.421 252.362 471.421 252.447C471.421 252.532 471.401 252.614 471.365 252.674C471.33 252.734 471.281 252.768 471.23 252.768V252.768ZM467.298 252.768H465.332C465.281 252.768 465.233 252.734 465.197 252.674C465.161 252.614 465.141 252.532 465.141 252.447C465.141 252.362 465.161 252.281 465.197 252.221C465.233 252.161 465.281 252.127 465.332 252.127H467.298C467.349 252.127 467.398 252.161 467.434 252.221C467.469 252.281 467.489 252.362 467.489 252.447C467.489 252.532 467.469 252.614 467.434 252.674C467.398 252.734 467.349 252.768 467.298 252.768ZM463.365 252.768H461.399C461.348 252.768 461.3 252.734 461.264 252.674C461.228 252.614 461.208 252.532 461.208 252.447C461.208 252.362 461.228 252.281 461.264 252.221C461.3 252.161 461.348 252.127 461.399 252.127H463.365C463.416 252.127 463.465 252.161 463.5 252.221C463.536 252.281 463.556 252.362 463.556 252.447C463.556 252.532 463.536 252.614 463.5 252.674C463.465 252.734 463.416 252.768 463.365 252.768ZM459.432 252.768H457.466C457.415 252.768 457.367 252.734 457.331 252.674C457.295 252.614 457.275 252.532 457.275 252.447C457.275 252.362 457.295 252.281 457.331 252.221C457.367 252.161 457.415 252.127 457.466 252.127H459.432C459.483 252.127 459.532 252.161 459.567 252.221C459.603 252.281 459.623 252.362 459.623 252.447C459.623 252.532 459.603 252.614 459.567 252.674C459.532 252.734 459.483 252.768 459.432 252.768ZM455.5 252.768H453.534C453.483 252.768 453.435 252.734 453.399 252.674C453.363 252.614 453.343 252.532 453.343 252.447C453.343 252.362 453.363 252.281 453.399 252.221C453.435 252.161 453.483 252.127 453.534 252.127H455.497C455.547 252.127 455.596 252.161 455.632 252.221C455.667 252.281 455.688 252.362 455.688 252.447C455.688 252.532 455.667 252.614 455.632 252.674C455.596 252.734 455.547 252.768 455.497 252.768H455.5ZM451.567 252.768H449.601C449.55 252.768 449.502 252.734 449.466 252.674C449.43 252.614 449.41 252.532 449.41 252.447C449.41 252.362 449.43 252.281 449.466 252.221C449.502 252.161 449.55 252.127 449.601 252.127H451.567C451.618 252.127 451.667 252.161 451.702 252.221C451.738 252.281 451.758 252.362 451.758 252.447C451.758 252.532 451.738 252.614 451.702 252.674C451.667 252.734 451.618 252.768 451.567 252.768V252.768ZM447.634 252.768H445.668C445.617 252.768 445.569 252.734 445.533 252.674C445.497 252.614 445.477 252.532 445.477 252.447C445.477 252.362 445.497 252.281 445.533 252.221C445.569 252.161 445.617 252.127 445.668 252.127H447.634C447.685 252.127 447.733 252.161 447.769 252.221C447.805 252.281 447.825 252.362 447.825 252.447C447.825 252.532 447.805 252.614 447.769 252.674C447.733 252.734 447.685 252.768 447.634 252.768ZM443.701 252.768H441.736C441.685 252.768 441.637 252.734 441.601 252.674C441.565 252.614 441.545 252.532 441.545 252.447C441.545 252.362 441.565 252.281 441.601 252.221C441.637 252.161 441.685 252.127 441.736 252.127H443.701C443.752 252.127 443.8 252.161 443.836 252.221C443.872 252.281 443.892 252.362 443.892 252.447C443.892 252.532 443.872 252.614 443.836 252.674C443.8 252.734 443.752 252.768 443.701 252.768ZM439.769 252.768H437.804C437.753 252.768 437.705 252.734 437.669 252.674C437.633 252.614 437.613 252.532 437.613 252.447C437.613 252.362 437.633 252.281 437.669 252.221C437.705 252.161 437.753 252.127 437.804 252.127H439.771C439.821 252.127 439.87 252.161 439.906 252.221C439.941 252.281 439.962 252.362 439.962 252.447C439.962 252.532 439.941 252.614 439.906 252.674C439.87 252.734 439.821 252.768 439.771 252.768H439.769ZM435.836 252.768H433.87C433.819 252.768 433.771 252.734 433.735 252.674C433.699 252.614 433.679 252.532 433.679 252.447C433.679 252.362 433.699 252.281 433.735 252.221C433.771 252.161 433.819 252.127 433.87 252.127H435.836C435.887 252.127 435.935 252.161 435.971 252.221C436.007 252.281 436.027 252.362 436.027 252.447C436.027 252.532 436.007 252.614 435.971 252.674C435.935 252.734 435.887 252.768 435.836 252.768ZM431.903 252.768H429.937C429.886 252.768 429.837 252.734 429.802 252.674C429.766 252.614 429.746 252.532 429.746 252.447C429.746 252.362 429.766 252.281 429.802 252.221C429.837 252.161 429.886 252.127 429.937 252.127H431.903C431.954 252.127 432.002 252.161 432.038 252.221C432.074 252.281 432.094 252.362 432.094 252.447C432.094 252.532 432.074 252.614 432.038 252.674C432.002 252.734 431.954 252.768 431.903 252.768V252.768ZM427.971 252.768H426.005C425.954 252.768 425.906 252.734 425.87 252.674C425.834 252.614 425.814 252.532 425.814 252.447C425.814 252.362 425.834 252.281 425.87 252.221C425.906 252.161 425.954 252.127 426.005 252.127H427.971C428.022 252.127 428.071 252.161 428.106 252.221C428.142 252.281 428.162 252.362 428.162 252.447C428.162 252.532 428.142 252.614 428.106 252.674C428.071 252.734 428.022 252.768 427.971 252.768V252.768ZM424.038 252.768H422.072C422.021 252.768 421.973 252.734 421.937 252.674C421.901 252.614 421.881 252.532 421.881 252.447C421.881 252.362 421.901 252.281 421.937 252.221C421.973 252.161 422.021 252.127 422.072 252.127H424.038C424.089 252.127 424.137 252.161 424.173 252.221C424.209 252.281 424.229 252.362 424.229 252.447C424.229 252.532 424.209 252.614 424.173 252.674C424.137 252.734 424.089 252.768 424.038 252.768V252.768ZM420.105 252.768H418.139C418.088 252.768 418.039 252.734 418.004 252.674C417.968 252.614 417.948 252.532 417.948 252.447C417.948 252.362 417.968 252.281 418.004 252.221C418.039 252.161 418.088 252.127 418.139 252.127H420.112C420.162 252.127 420.211 252.161 420.247 252.221C420.282 252.281 420.302 252.362 420.302 252.447C420.302 252.532 420.282 252.614 420.247 252.674C420.211 252.734 420.162 252.768 420.112 252.768H420.105Z" fill="#E4E8ED"/>
<path d="M474.12 252.768H473.206C473.157 252.768 473.111 252.734 473.076 252.674C473.042 252.614 473.023 252.532 473.023 252.447C473.023 252.362 473.042 252.281 473.076 252.221C473.111 252.161 473.157 252.127 473.206 252.127H474.12C474.169 252.127 474.215 252.161 474.25 252.221C474.284 252.281 474.303 252.362 474.303 252.447C474.303 252.532 474.284 252.614 474.25 252.674C474.215 252.734 474.169 252.768 474.12 252.768Z" fill="#E4E8ED"/>
<path d="M416.164 243.802H415.25C415.201 243.802 415.155 243.785 415.12 243.755C415.086 243.725 415.067 243.684 415.067 243.642C415.067 243.599 415.086 243.559 415.12 243.529C415.155 243.499 415.201 243.482 415.25 243.482H416.164C416.213 243.482 416.259 243.499 416.294 243.529C416.328 243.559 416.347 243.599 416.347 243.642C416.347 243.684 416.328 243.725 416.294 243.755C416.259 243.785 416.213 243.802 416.164 243.802V243.802Z" fill="#E4E8ED"/>
<path d="M471.231 243.802H469.266C469.215 243.802 469.167 243.785 469.131 243.755C469.095 243.725 469.075 243.684 469.075 243.642C469.075 243.599 469.095 243.559 469.131 243.529C469.167 243.499 469.215 243.482 469.266 243.482H471.231C471.282 243.482 471.33 243.499 471.366 243.529C471.402 243.559 471.422 243.599 471.422 243.642C471.422 243.684 471.402 243.725 471.366 243.755C471.33 243.785 471.282 243.802 471.231 243.802V243.802ZM467.299 243.802H465.333C465.282 243.802 465.233 243.785 465.198 243.755C465.162 243.725 465.142 243.684 465.142 243.642C465.142 243.599 465.162 243.559 465.198 243.529C465.233 243.499 465.282 243.482 465.333 243.482H467.299C467.35 243.482 467.398 243.499 467.434 243.529C467.47 243.559 467.49 243.599 467.49 243.642C467.49 243.684 467.47 243.725 467.434 243.755C467.398 243.785 467.35 243.802 467.299 243.802ZM463.366 243.802H461.4C461.349 243.802 461.3 243.785 461.265 243.755C461.229 243.725 461.209 243.684 461.209 243.642C461.209 243.599 461.229 243.559 461.265 243.529C461.3 243.499 461.349 243.482 461.4 243.482H463.366C463.417 243.482 463.465 243.499 463.501 243.529C463.537 243.559 463.557 243.599 463.557 243.642C463.557 243.684 463.537 243.725 463.501 243.755C463.465 243.785 463.417 243.802 463.366 243.802ZM459.433 243.802H457.467C457.416 243.802 457.367 243.785 457.332 243.755C457.296 243.725 457.276 243.684 457.276 243.642C457.276 243.599 457.296 243.559 457.332 243.529C457.367 243.499 457.416 243.482 457.467 243.482H459.433C459.484 243.482 459.532 243.499 459.568 243.529C459.604 243.559 459.624 243.599 459.624 243.642C459.624 243.684 459.604 243.725 459.568 243.755C459.532 243.785 459.484 243.802 459.433 243.802ZM455.501 243.802H453.535C453.484 243.802 453.435 243.785 453.4 243.755C453.364 243.725 453.344 243.684 453.344 243.642C453.344 243.599 453.364 243.559 453.4 243.529C453.435 243.499 453.484 243.482 453.535 243.482H455.497C455.548 243.482 455.597 243.499 455.632 243.529C455.668 243.559 455.688 243.599 455.688 243.642C455.688 243.684 455.668 243.725 455.632 243.755C455.597 243.785 455.548 243.802 455.497 243.802H455.501ZM451.568 243.802H449.602C449.551 243.802 449.502 243.785 449.467 243.755C449.431 243.725 449.411 243.684 449.411 243.642C449.411 243.599 449.431 243.559 449.467 243.529C449.502 243.499 449.551 243.482 449.602 243.482H451.568C451.619 243.482 451.667 243.499 451.703 243.529C451.739 243.559 451.759 243.599 451.759 243.642C451.759 243.684 451.739 243.725 451.703 243.755C451.667 243.785 451.619 243.802 451.568 243.802V243.802ZM447.635 243.802H445.669C445.618 243.802 445.569 243.785 445.534 243.755C445.498 243.725 445.478 243.684 445.478 243.642C445.478 243.599 445.498 243.559 445.534 243.529C445.569 243.499 445.618 243.482 445.669 243.482H447.635C447.686 243.482 447.734 243.499 447.77 243.529C447.806 243.559 447.826 243.599 447.826 243.642C447.826 243.684 447.806 243.725 447.77 243.755C447.734 243.785 447.686 243.802 447.635 243.802ZM443.702 243.802H441.737C441.686 243.802 441.637 243.785 441.602 243.755C441.566 243.725 441.546 243.684 441.546 243.642C441.546 243.599 441.566 243.559 441.602 243.529C441.637 243.499 441.686 243.482 441.737 243.482H443.702C443.753 243.482 443.801 243.499 443.837 243.529C443.873 243.559 443.893 243.599 443.893 243.642C443.893 243.684 443.873 243.725 443.837 243.755C443.801 243.785 443.753 243.802 443.702 243.802ZM439.77 243.802H437.805C437.754 243.802 437.706 243.785 437.67 243.755C437.634 243.725 437.614 243.684 437.614 243.642C437.614 243.599 437.634 243.559 437.67 243.529C437.706 243.499 437.754 243.482 437.805 243.482H439.771C439.822 243.482 439.871 243.499 439.906 243.529C439.942 243.559 439.962 243.599 439.962 243.642C439.962 243.684 439.942 243.725 439.906 243.755C439.871 243.785 439.822 243.802 439.771 243.802H439.77ZM435.837 243.802H433.87C433.82 243.802 433.771 243.785 433.735 243.755C433.7 243.725 433.68 243.684 433.68 243.642C433.68 243.599 433.7 243.559 433.735 243.529C433.771 243.499 433.82 243.482 433.87 243.482H435.837C435.888 243.482 435.936 243.499 435.972 243.529C436.008 243.559 436.028 243.599 436.028 243.642C436.028 243.684 436.008 243.725 435.972 243.755C435.936 243.785 435.888 243.802 435.837 243.802ZM431.904 243.802H429.937C429.887 243.802 429.838 243.785 429.802 243.755C429.767 243.725 429.746 243.684 429.746 243.642C429.746 243.599 429.767 243.559 429.802 243.529C429.838 243.499 429.887 243.482 429.937 243.482H431.904C431.955 243.482 432.003 243.499 432.039 243.529C432.075 243.559 432.095 243.599 432.095 243.642C432.095 243.684 432.075 243.725 432.039 243.755C432.003 243.785 431.955 243.802 431.904 243.802V243.802ZM427.972 243.802H426.006C425.955 243.802 425.906 243.785 425.871 243.755C425.835 243.725 425.815 243.684 425.815 243.642C425.815 243.599 425.835 243.559 425.871 243.529C425.906 243.499 425.955 243.482 426.006 243.482H427.972C428.023 243.482 428.071 243.499 428.107 243.529C428.143 243.559 428.163 243.599 428.163 243.642C428.163 243.684 428.143 243.725 428.107 243.755C428.071 243.785 428.023 243.802 427.972 243.802V243.802ZM424.039 243.802H422.072C422.022 243.802 421.973 243.785 421.937 243.755C421.902 243.725 421.882 243.684 421.882 243.642C421.882 243.599 421.902 243.559 421.937 243.529C421.973 243.499 422.022 243.482 422.072 243.482H424.039C424.09 243.482 424.138 243.499 424.174 243.529C424.21 243.559 424.23 243.599 424.23 243.642C424.23 243.684 424.21 243.725 424.174 243.755C424.138 243.785 424.09 243.802 424.039 243.802V243.802ZM420.106 243.802H418.139C418.089 243.802 418.04 243.785 418.004 243.755C417.969 243.725 417.948 243.684 417.948 243.642C417.948 243.599 417.969 243.559 418.004 243.529C418.04 243.499 418.089 243.482 418.139 243.482H420.112C420.163 243.482 420.212 243.499 420.247 243.529C420.283 243.559 420.303 243.599 420.303 243.642C420.303 243.684 420.283 243.725 420.247 243.755C420.212 243.785 420.163 243.802 420.112 243.802H420.106Z" fill="#E4E8ED"/>
<path d="M474.12 243.802H473.206C473.158 243.802 473.111 243.785 473.077 243.755C473.042 243.725 473.023 243.684 473.023 243.642C473.023 243.599 473.042 243.559 473.077 243.529C473.111 243.499 473.158 243.482 473.206 243.482H474.12C474.169 243.482 474.216 243.499 474.25 243.529C474.284 243.559 474.304 243.599 474.304 243.642C474.304 243.684 474.284 243.725 474.25 243.755C474.216 243.785 474.169 243.802 474.12 243.802Z" fill="#E4E8ED"/>
<path d="M416.164 235.157H415.25C415.201 235.157 415.155 235.14 415.12 235.11C415.086 235.08 415.066 235.039 415.066 234.997C415.066 234.954 415.086 234.913 415.12 234.883C415.155 234.853 415.201 234.836 415.25 234.836H416.164C416.212 234.836 416.259 234.853 416.293 234.883C416.328 234.913 416.347 234.954 416.347 234.997C416.347 235.039 416.328 235.08 416.293 235.11C416.259 235.14 416.212 235.157 416.164 235.157V235.157Z" fill="#E4E8ED"/>
<path d="M471.231 235.157H469.266C469.215 235.157 469.166 235.14 469.131 235.11C469.095 235.08 469.075 235.039 469.075 234.997C469.075 234.954 469.095 234.913 469.131 234.883C469.166 234.853 469.215 234.836 469.266 234.836H471.231C471.282 234.836 471.33 234.853 471.366 234.883C471.402 234.913 471.422 234.954 471.422 234.997C471.422 235.039 471.402 235.08 471.366 235.11C471.33 235.14 471.282 235.157 471.231 235.157V235.157ZM467.299 235.157H465.333C465.282 235.157 465.233 235.14 465.198 235.11C465.162 235.08 465.142 235.039 465.142 234.997C465.142 234.954 465.162 234.913 465.198 234.883C465.233 234.853 465.282 234.836 465.333 234.836H467.299C467.35 234.836 467.398 234.853 467.434 234.883C467.47 234.913 467.49 234.954 467.49 234.997C467.49 235.039 467.47 235.08 467.434 235.11C467.398 235.14 467.35 235.157 467.299 235.157ZM463.366 235.157H461.399C461.349 235.157 461.3 235.14 461.264 235.11C461.229 235.08 461.209 235.039 461.209 234.997C461.209 234.954 461.229 234.913 461.264 234.883C461.3 234.853 461.349 234.836 461.399 234.836H463.366C463.417 234.836 463.465 234.853 463.501 234.883C463.537 234.913 463.557 234.954 463.557 234.997C463.557 235.039 463.537 235.08 463.501 235.11C463.465 235.14 463.417 235.157 463.366 235.157ZM459.433 235.157H457.466C457.416 235.157 457.367 235.14 457.331 235.11C457.296 235.08 457.275 235.039 457.275 234.997C457.275 234.954 457.296 234.913 457.331 234.883C457.367 234.853 457.416 234.836 457.466 234.836H459.433C459.484 234.836 459.532 234.853 459.568 234.883C459.604 234.913 459.624 234.954 459.624 234.997C459.624 235.039 459.604 235.08 459.568 235.11C459.532 235.14 459.484 235.157 459.433 235.157ZM455.501 235.157H453.535C453.484 235.157 453.435 235.14 453.4 235.11C453.364 235.08 453.344 235.039 453.344 234.997C453.344 234.954 453.364 234.913 453.4 234.883C453.435 234.853 453.484 234.836 453.535 234.836H455.497C455.548 234.836 455.596 234.853 455.632 234.883C455.668 234.913 455.688 234.954 455.688 234.997C455.688 235.039 455.668 235.08 455.632 235.11C455.596 235.14 455.548 235.157 455.497 235.157H455.501ZM451.568 235.157H449.601C449.551 235.157 449.502 235.14 449.466 235.11C449.431 235.08 449.411 235.039 449.411 234.997C449.411 234.954 449.431 234.913 449.466 234.883C449.502 234.853 449.551 234.836 449.601 234.836H451.568C451.619 234.836 451.667 234.853 451.703 234.883C451.739 234.913 451.759 234.954 451.759 234.997C451.759 235.039 451.739 235.08 451.703 235.11C451.667 235.14 451.619 235.157 451.568 235.157V235.157ZM447.635 235.157H445.668C445.618 235.157 445.569 235.14 445.533 235.11C445.498 235.08 445.477 235.039 445.477 234.997C445.477 234.954 445.498 234.913 445.533 234.883C445.569 234.853 445.618 234.836 445.668 234.836H447.635C447.686 234.836 447.734 234.853 447.77 234.883C447.806 234.913 447.826 234.954 447.826 234.997C447.826 235.039 447.806 235.08 447.77 235.11C447.734 235.14 447.686 235.157 447.635 235.157ZM443.702 235.157H441.737C441.686 235.157 441.637 235.14 441.602 235.11C441.566 235.08 441.546 235.039 441.546 234.997C441.546 234.954 441.566 234.913 441.602 234.883C441.637 234.853 441.686 234.836 441.737 234.836H443.702C443.752 234.836 443.801 234.853 443.837 234.883C443.873 234.913 443.893 234.954 443.893 234.997C443.893 235.039 443.873 235.08 443.837 235.11C443.801 235.14 443.752 235.157 443.702 235.157ZM439.77 235.157H437.805C437.754 235.157 437.706 235.14 437.67 235.11C437.634 235.08 437.614 235.039 437.614 234.997C437.614 234.954 437.634 234.913 437.67 234.883C437.706 234.853 437.754 234.836 437.805 234.836H439.771C439.822 234.836 439.87 234.853 439.906 234.883C439.942 234.913 439.962 234.954 439.962 234.997C439.962 235.039 439.942 235.08 439.906 235.11C439.87 235.14 439.822 235.157 439.771 235.157H439.77ZM435.837 235.157H433.87C433.82 235.157 433.771 235.14 433.735 235.11C433.7 235.08 433.679 235.039 433.679 234.997C433.679 234.954 433.7 234.913 433.735 234.883C433.771 234.853 433.82 234.836 433.87 234.836H435.837C435.888 234.836 435.936 234.853 435.972 234.883C436.008 234.913 436.028 234.954 436.028 234.997C436.028 235.039 436.008 235.08 435.972 235.11C435.936 235.14 435.888 235.157 435.837 235.157ZM431.904 235.157H429.937C429.887 235.157 429.838 235.14 429.802 235.11C429.766 235.08 429.746 235.039 429.746 234.997C429.746 234.954 429.766 234.913 429.802 234.883C429.838 234.853 429.887 234.836 429.937 234.836H431.904C431.954 234.836 432.003 234.853 432.039 234.883C432.075 234.913 432.095 234.954 432.095 234.997C432.095 235.039 432.075 235.08 432.039 235.11C432.003 235.14 431.954 235.157 431.904 235.157V235.157ZM427.972 235.157H426.005C425.955 235.157 425.906 235.14 425.87 235.11C425.835 235.08 425.815 235.039 425.815 234.997C425.815 234.954 425.835 234.913 425.87 234.883C425.906 234.853 425.955 234.836 426.005 234.836H427.972C428.023 234.836 428.071 234.853 428.107 234.883C428.143 234.913 428.163 234.954 428.163 234.997C428.163 235.039 428.143 235.08 428.107 235.11C428.071 235.14 428.023 235.157 427.972 235.157V235.157ZM424.039 235.157H422.072C422.022 235.157 421.973 235.14 421.937 235.11C421.902 235.08 421.881 235.039 421.881 234.997C421.881 234.954 421.902 234.913 421.937 234.883C421.973 234.853 422.022 234.836 422.072 234.836H424.039C424.09 234.836 424.138 234.853 424.174 234.883C424.21 234.913 424.23 234.954 424.23 234.997C424.23 235.039 424.21 235.08 424.174 235.11C424.138 235.14 424.09 235.157 424.039 235.157V235.157ZM420.106 235.157H418.139C418.089 235.157 418.04 235.14 418.004 235.11C417.968 235.08 417.948 235.039 417.948 234.997C417.948 234.954 417.968 234.913 418.004 234.883C418.04 234.853 418.089 234.836 418.139 234.836H420.112C420.163 234.836 420.211 234.853 420.247 234.883C420.283 234.913 420.303 234.954 420.303 234.997C420.303 235.039 420.283 235.08 420.247 235.11C420.211 235.14 420.163 235.157 420.112 235.157H420.106Z" fill="#E4E8ED"/>
<path d="M474.12 235.157H473.206C473.157 235.157 473.111 235.14 473.076 235.11C473.042 235.08 473.023 235.039 473.023 234.997C473.023 234.954 473.042 234.913 473.076 234.883C473.111 234.853 473.157 234.836 473.206 234.836H474.12C474.169 234.836 474.215 234.853 474.25 234.883C474.284 234.913 474.303 234.954 474.303 234.997C474.303 235.039 474.284 235.08 474.25 235.11C474.215 235.14 474.169 235.157 474.12 235.157Z" fill="#E4E8ED"/>
<path d="M431.148 249.04H418.693V270.184H431.148V249.04Z" fill="#6BB0C7"/>
<path d="M443.023 239.481H430.858V270.184H443.023V239.481Z" fill="#5178A5"/>
<path d="M458.664 240.64H446.499V270.184H458.664V240.64Z" fill="#6BB0C7"/>
<path d="M471.119 227.027H458.664V270.184H471.119V227.027Z" fill="#00D0B2"/>
<path d="M474.785 272.62H415.226C415.184 272.62 415.143 272.603 415.113 272.573C415.084 272.543 415.067 272.502 415.067 272.46C415.067 272.418 415.084 272.377 415.113 272.347C415.143 272.317 415.184 272.3 415.226 272.3H474.785C474.827 272.3 474.868 272.317 474.898 272.347C474.928 272.377 474.944 272.418 474.944 272.46C474.944 272.502 474.928 272.543 474.898 272.573C474.868 272.603 474.827 272.62 474.785 272.62V272.62Z" fill="#E4E8ED"/>
<path d="M314.203 156.213V210.995C314.203 211.034 314.186 211.071 314.156 211.099C314.126 211.126 314.085 211.141 314.043 211.141C314 211.141 313.96 211.126 313.93 211.099C313.9 211.071 313.883 211.034 313.883 210.995V156.213C313.883 156.174 313.9 156.137 313.93 156.11C313.96 156.082 314 156.067 314.043 156.067C314.085 156.067 314.126 156.082 314.156 156.11C314.186 156.137 314.203 156.174 314.203 156.213V156.213Z" fill="#E4E8ED"/>
<path d="M452.17 159.815C439.282 159.815 428.835 170.034 428.835 182.64C428.835 195.246 439.282 205.465 452.17 205.465C458.442 205.465 464.124 203.032 468.317 199.093L452.17 182.64V159.815Z" fill="#E4E8ED"/>
<path d="M475.502 182.64C475.502 170.034 465.055 159.815 452.168 159.815V182.64H475.502Z" fill="#4857EF"/>
<path d="M475.503 182.639H452.168L468.315 199.092C472.737 194.938 475.503 189.11 475.503 182.639Z" fill="#00D0B2"/>
<path d="M463.435 159.269L454.505 180.357L476.225 172.061C473.994 166.475 469.546 161.746 463.435 159.269Z" fill="#FFBB00"/>
<g filter="url(#filter0_f_545_1977)">
<rect x="259.769" y="152.545" width="31.6999" height="4.48281" rx="2.24141" fill="#E4E8ED" fill-opacity="0.7"/>
</g>
<circle cx="254.645" cy="154.786" r="2.24125" fill="#E4E8ED"/>
<g filter="url(#filter1_f_545_1977)">
<rect x="259.769" y="166.313" width="31.6999" height="4.48281" rx="2.24141" fill="#E4E8ED" fill-opacity="0.7"/>
</g>
<circle cx="254.646" cy="168.554" r="2.24125" fill="#E4E8ED"/>
<g filter="url(#filter2_f_545_1977)">
<rect x="259.769" y="180.082" width="31.6999" height="4.48281" rx="2.24141" fill="#E4E8ED" fill-opacity="0.7"/>
</g>
<circle cx="254.646" cy="182.323" r="2.24125" fill="#E4E8ED"/>
<g filter="url(#filter3_f_545_1977)">
<rect x="259.769" y="193.851" width="31.6999" height="4.48281" rx="2.24141" fill="#E4E8ED" fill-opacity="0.7"/>
</g>
<circle cx="254.645" cy="196.092" r="2.24125" fill="#E4E8ED"/>
<path d="M251.123 137.175H257.847" stroke="white" stroke-width="0.470806"/>
<path d="M251.123 138.776H257.847" stroke="white" stroke-width="0.470806"/>
<path d="M251.123 135.574H257.847" stroke="white" stroke-width="0.470806"/>
<rect x="416.988" y="158.629" width="10.5659" height="3.20179" fill="#F6F6F6"/>
<rect x="404.5" y="170.476" width="13.4484" height="3.20201" fill="#F6F6F6"/>
<rect x="406.741" y="182.323" width="9.60538" height="3.20179" fill="#F6F6F6"/>
<rect x="412.184" y="194.171" width="9.60538" height="3.20179" fill="#F6F6F6"/>
<path d="M263.702 128.178H243.534C242.573 128.178 241.795 128.957 241.795 129.917V150.433" stroke="white" stroke-width="1.3909"/>
<path d="M263.702 293H243.534C242.573 293 241.795 292.222 241.795 291.261V273.527" stroke="white" stroke-width="1.3909"/>
<path d="M556.495 12.0123C547.671 12.0123 540.518 19.0092 540.518 27.6408C540.518 36.2724 547.671 43.2693 556.495 43.2693C560.79 43.2693 564.681 41.6033 567.552 38.9066L556.495 27.6408V12.0123Z" fill="#00D0B2"/>
<path d="M572.471 27.6408C572.471 19.0092 565.318 12.0123 556.494 12.0123V27.6408H572.471Z" fill="#4857EF"/>
<path d="M572.472 27.6399H556.494L567.551 38.9057C570.578 36.0613 572.472 32.0706 572.472 27.6399Z" fill="white"/>
<path d="M564.209 11.6385L558.094 26.0777L572.966 20.3976C571.439 16.5725 568.393 13.3342 564.209 11.6385Z" fill="#FFBB00"/>
<path d="M550.744 84.6958L559.457 85.8836C559.87 85.94 560.154 86.3145 560.097 86.7293C560.041 87.1441 559.667 87.429 559.254 87.3726L550.541 86.1847C550.128 86.1284 549.844 85.7539 549.901 85.3391C549.966 84.9364 550.341 84.6408 550.744 84.6958Z" fill="#4857EF"/>
<path d="M529.945 72.4848L579.235 79.205C580.617 79.3933 581.653 80.2291 581.539 81.0608L579.04 99.3959C578.926 100.228 577.705 100.756 576.323 100.567L527.033 93.8471C525.651 93.6587 524.615 92.823 524.729 91.9913L527.228 73.6561C527.352 72.8259 528.574 72.2979 529.945 72.4848Z" fill="#4857EF"/>
<path d="M555.088 83.5277C555.012 83.5173 554.936 83.5436 554.892 83.6077L553.544 85.5582L551.175 85.5954C551.021 85.5994 550.916 85.8102 551.01 85.933L552.457 87.8112L551.765 90.0779C551.731 90.1866 551.803 90.3231 551.913 90.3515C551.954 90.3621 551.993 90.3558 552.033 90.3412L554.269 89.5388L556.208 90.9104C556.334 90.9993 556.54 90.884 556.536 90.7284L556.476 88.3591L558.374 86.937C558.497 86.8438 558.454 86.6129 558.305 86.5675L556.033 85.8975L555.255 83.6572C555.231 83.5838 555.164 83.5381 555.088 83.5277ZM563.386 84.659C563.31 84.6486 563.234 84.6749 563.19 84.739L561.841 86.6895L559.472 86.7266C559.318 86.7307 559.214 86.9415 559.307 87.0643L560.755 88.9425L560.063 91.2092C560.028 91.3179 560.1 91.4544 560.211 91.4828C560.252 91.4934 560.291 91.4871 560.331 91.4725L562.566 90.6701L564.505 92.0417C564.632 92.1306 564.838 92.0152 564.834 91.8597L564.774 89.4904L566.672 88.0683C566.795 87.9751 566.752 87.7442 566.603 87.6988L564.33 87.0288L563.553 84.7885C563.528 84.7151 563.462 84.6694 563.386 84.659ZM571.684 85.7903C571.607 85.7799 571.531 85.8062 571.488 85.8703L570.139 87.8208L567.77 87.8579C567.616 87.8619 567.511 88.0728 567.605 88.1956L569.053 90.0738L568.361 92.3405C568.326 92.4492 568.398 92.5857 568.508 92.6141C568.55 92.6247 568.588 92.6183 568.628 92.6038L570.864 91.8014L572.803 93.173C572.93 93.2619 573.135 93.1465 573.132 92.991L573.072 90.6217L574.969 89.1996C575.093 89.1064 575.05 88.8754 574.901 88.8301L572.628 88.1601L571.851 85.9198C571.826 85.8464 571.76 85.8007 571.684 85.7903Z" fill="#FAB003"/>
<path d="M546.399 81.0569L545.079 90.7424C545.001 91.3106 544.702 91.8248 544.248 92.172C543.793 92.5193 543.219 92.671 542.654 92.5939L531.278 91.0429C530.998 91.0047 530.728 90.9114 530.484 90.7685C530.24 90.6255 530.026 90.4356 529.856 90.2097C529.685 89.9837 529.561 89.7262 529.489 89.4517C529.418 89.1773 529.401 88.8913 529.44 88.6102L529.732 86.4644C530.434 85.9796 531.225 85.6406 532.059 85.4674C532.835 85.3193 533.63 85.3079 534.409 85.4336C535.368 85.5644 536.338 85.7993 537.304 85.598C538.889 85.2757 540.124 84.0625 541.425 83.1808C542.94 82.1718 544.626 81.4518 546.399 81.0569V81.0569Z" fill="#03C1FF"/>
<path d="M546.636 79.3232L546.399 81.0624C544.624 81.4605 542.937 82.1843 541.423 83.1973C540.121 84.0827 538.887 85.2927 537.302 85.6151C536.336 85.8165 535.365 85.5885 534.407 85.4507C533.628 85.325 532.832 85.3365 532.057 85.4846C531.223 85.6579 530.432 85.997 529.73 86.4819L530.997 77.191C531.035 76.9098 531.127 76.6387 531.27 76.3933C531.412 76.1479 531.601 75.933 531.826 75.761C532.051 75.589 532.307 75.4631 532.58 75.3906C532.854 75.3182 533.139 75.3005 533.419 75.3387L544.795 76.8897C545.36 76.9668 545.872 77.2666 546.217 77.7229C546.563 78.1793 546.713 78.755 546.636 79.3232V79.3232Z" fill="#EAF0F8"/>
<path d="M538.476 81.2446C538.39 81.8817 538.116 82.4789 537.691 82.9607C537.265 83.4424 536.706 83.7872 536.085 83.9512C535.463 84.1152 534.807 84.0912 534.199 83.8822C533.591 83.6732 533.059 83.2885 532.669 82.7769C532.28 82.2653 532.051 81.6497 532.012 81.0081C531.973 80.3664 532.124 79.7275 532.448 79.1722C532.772 78.6169 533.253 78.1701 533.831 77.8883C534.409 77.6066 535.057 77.5025 535.694 77.5894C536.117 77.6465 536.524 77.7865 536.893 78.0012C537.262 78.2158 537.584 78.5011 537.843 78.8405C538.101 79.18 538.29 79.5671 538.398 79.9796C538.507 80.3921 538.533 80.822 538.476 81.2446Z" fill="white"/>
<circle cx="585.449" cy="170.623" r="12.1703" transform="rotate(-18.2861 585.449 170.623)" fill="#3088F4"/>
<path d="M578.749 172.949L580.078 176.968L593.542 172.519L592.214 168.499" stroke="white" stroke-width="1.5961" stroke-linecap="round"/>
<path d="M583.643 162.549C583.505 162.13 583.054 161.903 582.635 162.041C582.217 162.18 581.99 162.631 582.128 163.049L583.643 162.549ZM585.688 173.078C586.082 173.276 586.561 173.118 586.76 172.724L589.988 166.308C590.186 165.914 590.028 165.435 589.634 165.236C589.241 165.038 588.761 165.197 588.563 165.591L585.693 171.294L579.99 168.424C579.596 168.225 579.116 168.384 578.918 168.778C578.72 169.171 578.878 169.651 579.272 169.849L585.688 173.078ZM582.128 163.049L585.289 172.616L586.804 172.115L583.643 162.549L582.128 163.049Z" fill="white"/>
<circle cx="603.282" cy="112.305" r="16.1692" fill="white"/>
<path d="M600.131 112.423L594.853 111.029L592.657 119.346L597.934 120.74L600.131 112.423Z" fill="#FFBB00"/>
<path d="M606.479 109.409L601.202 108.015L597.816 120.831L603.094 122.225L606.479 109.409Z" fill="#3088F4"/>
<path d="M613.423 104.954L608.02 103.527L603.075 122.249L608.478 123.676L613.423 104.954Z" fill="#00D0B2"/>
<path d="M512.402 64.94C518.383 64.94 523.231 60.0915 523.231 54.1107C523.231 48.1298 518.383 43.2814 512.402 43.2814C506.421 43.2814 501.572 48.1298 501.572 54.1107C501.572 60.0915 506.421 64.94 512.402 64.94Z" fill="#D5E2FF"/>
<path d="M512.357 54.2656C511.638 54.2662 510.948 53.9812 510.44 53.4736C509.931 52.9654 509.645 52.2762 509.645 51.5577C509.644 50.8386 509.93 50.1494 510.437 49.6406C510.946 49.1324 511.635 48.8463 512.354 48.8463C513.072 48.8463 513.762 49.1313 514.27 49.6395C514.779 50.1477 515.064 50.8374 515.064 51.556C515.063 52.2739 514.778 52.9625 514.27 53.4706C513.763 53.9783 513.075 54.2644 512.357 54.2656L512.357 54.2656ZM517.37 59.269H507.344C507.23 59.269 507.137 59.1762 507.137 59.0622C507.14 58.0111 507.559 57.004 508.303 56.2615C509.046 55.5183 510.053 55.0999 511.104 55.0976H513.609C514.661 55.0982 515.669 55.5159 516.413 56.2591C517.157 57.0029 517.575 58.0106 517.576 59.0623C517.576 59.1169 517.555 59.1698 517.516 59.2086C517.477 59.2473 517.424 59.2691 517.37 59.2691L517.37 59.269Z" fill="#3088F4"/>
<path d="M555.366 147.753C562.163 146.668 566.794 140.277 565.708 133.48C564.623 126.682 558.232 122.052 551.435 123.138C544.637 124.223 540.007 130.614 541.093 137.411C542.178 144.209 548.569 148.839 555.366 147.753Z" fill="#FFBB00"/>
<path d="M555.055 142.082L555.011 143.917L552.623 143.857L552.666 142.104C550.979 141.96 549.344 141.469 548.344 140.831L549.699 138.021C550.875 138.722 552.212 139.122 553.586 139.183C554.715 139.213 555.131 138.993 555.142 138.596C555.177 137.14 548.595 138.141 548.701 133.825C548.746 131.957 550.173 130.422 552.96 130.116L553.004 128.313L555.392 128.374L555.349 130.139C556.599 130.288 557.811 130.634 558.762 131.189L557.492 133.985C556.337 133.375 555.243 133.065 554.21 133.037C553.042 133.006 552.662 133.327 552.651 133.724C552.618 135.112 559.199 134.129 559.095 138.396C559.049 140.186 557.69 141.706 555.055 142.082Z" fill="white"/>
<path d="M606.684 25.6789C610.106 22.902 610.629 17.8766 607.853 14.4544C605.076 11.0322 600.05 10.509 596.628 13.2859C593.206 16.0627 592.683 21.0881 595.46 24.5104C598.236 27.9326 603.262 28.4558 606.684 25.6789Z" fill="#FFBB00"/>
<path d="M604.697 22.6331L605.26 23.6652L603.916 24.3956L603.379 23.4099C602.398 23.8698 601.334 24.1209 600.575 24.0867L600.428 22.0946C601.304 22.1076 602.173 21.9016 602.955 21.4957C603.591 21.151 603.751 20.8959 603.63 20.6724C603.184 19.8536 599.854 22.5142 598.532 20.0874C597.959 19.0366 598.259 17.7291 599.706 16.6676L599.154 15.6539L600.498 14.9235L601.039 15.9159C601.78 15.5987 602.563 15.4031 603.268 15.4061L603.458 17.3634C602.622 17.3947 601.917 17.5724 601.335 17.8878C600.677 18.2438 600.569 18.5435 600.69 18.767C601.116 19.548 604.451 16.8972 605.758 19.2967C606.306 20.3041 606.038 21.5815 604.697 22.6331Z" fill="white"/>
<path d="M508.84 102.074C508.827 101.69 508.505 101.39 508.121 101.404C507.737 101.417 507.437 101.739 507.45 102.123L508.84 102.074ZM497.061 119.612C496.94 119.977 497.136 120.371 497.501 120.492L503.437 122.476C503.801 122.598 504.195 122.401 504.317 122.037C504.439 121.673 504.242 121.279 503.878 121.157L498.601 119.394L500.364 114.117C500.486 113.753 500.29 113.359 499.925 113.237C499.561 113.115 499.167 113.312 499.045 113.676L497.061 119.612ZM507.45 102.123C507.59 106.086 505.755 115.046 497.41 119.21L498.032 120.455C507.06 115.949 508.99 106.322 508.84 102.074L507.45 102.123Z" fill="#D5E2FF"/>
<path d="M533.817 116.171C534.055 115.869 534.003 115.432 533.702 115.194C533.4 114.956 532.963 115.008 532.725 115.31L533.817 116.171ZM510.426 129.32C510.164 129.601 510.179 130.041 510.46 130.303L515.035 134.575C515.315 134.837 515.755 134.822 516.017 134.541C516.28 134.26 516.265 133.82 515.984 133.558L511.917 129.761L515.715 125.694C515.977 125.414 515.962 124.974 515.681 124.711C515.4 124.449 514.96 124.464 514.698 124.745L510.426 129.32ZM532.725 115.31C530.966 117.542 527.741 120.931 523.819 123.794C519.885 126.667 515.335 128.948 510.911 129.099L510.958 130.49C515.792 130.324 520.617 127.854 524.639 124.917C528.675 121.971 531.989 118.491 533.817 116.171L532.725 115.31Z" fill="#D5E2FF"/>
<path d="M539.608 155.429C539.87 155.149 539.856 154.709 539.576 154.446C539.296 154.183 538.856 154.197 538.593 154.478L539.608 155.429ZM512.487 156.902C512.121 157.016 511.917 157.407 512.032 157.773L513.904 163.745C514.019 164.112 514.41 164.316 514.776 164.201C515.143 164.086 515.347 163.696 515.232 163.329L513.567 158.021L518.875 156.356C519.242 156.241 519.446 155.851 519.331 155.484C519.216 155.118 518.826 154.914 518.459 155.029L512.487 156.902ZM538.593 154.478C536.145 157.088 531.788 158.777 526.951 159.262C522.13 159.746 516.976 159.017 513.017 156.949L512.373 158.182C516.625 160.403 522.065 161.15 527.09 160.646C532.1 160.144 536.839 158.382 539.608 155.429L538.593 154.478Z" fill="#D5E2FF"/>
<path d="M139.821 214.531C139.488 214.531 139.217 214.801 139.217 215.135C139.217 215.468 139.488 215.739 139.821 215.739V214.531ZM232.605 215.135L226.565 211.647V218.622L232.605 215.135ZM139.821 215.739H141.042V214.531H139.821V215.739ZM143.484 215.739H145.926V214.531H143.484V215.739ZM148.367 215.739H150.809V214.531H148.367V215.739ZM153.251 215.739H155.692V214.531H153.251V215.739ZM158.134 215.739H160.576V214.531H158.134V215.739ZM163.017 215.739H165.459V214.531H163.017V215.739ZM167.901 215.739H170.342V214.531H167.901V215.739ZM172.784 215.739H175.226V214.531H172.784V215.739ZM177.667 215.739H180.109V214.531H177.667V215.739ZM182.551 215.739H184.992V214.531H182.551V215.739ZM187.434 215.739H189.876V214.531H187.434V215.739ZM192.317 215.739H194.759V214.531H192.317V215.739ZM197.201 215.739H199.642V214.531H197.201V215.739ZM202.084 215.739H204.526V214.531H202.084V215.739ZM206.967 215.739H209.409V214.531H206.967V215.739ZM211.851 215.739H214.292V214.531H211.851V215.739ZM216.734 215.739H219.176V214.531H216.734V215.739ZM221.617 215.739H224.059V214.531H221.617V215.739ZM226.501 215.739H228.942V214.531H226.501V215.739Z" fill="#3186F2"/>
<ellipse cx="136.687" cy="215.135" rx="3.13458" ry="3.0199" fill="#3186F2"/>
<g clip-path="url(#clip0_545_1977)">
<path d="M84.8831 188.336C90.7268 196.787 93.7971 206.846 93.6686 217.119C93.667 217.201 93.6922 217.28 93.7405 217.346C93.7888 217.411 93.8573 217.459 93.9355 217.481C94.0136 217.503 94.097 217.499 94.1726 217.469C94.2482 217.44 94.3117 217.385 94.3534 217.316C95.1371 215.991 95.8508 214.626 96.4917 213.227C98.8663 208.004 100.17 202.357 100.326 196.621C100.482 190.885 99.4877 185.176 97.4007 179.831C92.6598 176.053 87.2063 173.27 81.3658 171.647C75.5254 170.024 69.4178 169.595 63.4077 170.385C63.3267 170.395 63.2515 170.433 63.1941 170.491C63.1367 170.549 63.1003 170.625 63.0907 170.706C63.081 170.788 63.0987 170.87 63.1409 170.94C63.1831 171.01 63.2474 171.064 63.3237 171.093C72.0501 174.595 79.5496 180.593 84.8831 188.336V188.336Z" fill="#3186F2"/>
<path d="M101.269 215.317C96.9033 225.114 89.4187 233.192 79.982 238.29C79.9169 238.333 79.8668 238.394 79.8389 238.467C79.811 238.539 79.8068 238.619 79.8268 238.694C79.8468 238.769 79.89 238.836 79.9502 238.885C80.0105 238.934 80.0847 238.963 80.1622 238.967C82.4202 238.975 84.6752 238.803 86.9056 238.45C97.7078 236.738 107.513 231.141 114.48 222.709C115.404 216.669 115.097 210.505 113.576 204.587C112.056 198.668 109.355 193.119 105.634 188.272C105.584 188.207 105.514 188.16 105.435 188.139C105.356 188.118 105.272 188.125 105.197 188.157C105.121 188.189 105.059 188.245 105.019 188.317C104.979 188.388 104.965 188.471 104.977 188.552C106.301 197.645 105.015 206.927 101.269 215.317V215.317Z" fill="#3186F2"/>
<path d="M54.31 188.16C64.0678 187.495 73.7884 189.907 82.1042 195.055C82.1736 195.098 82.2554 195.117 82.3368 195.109C82.4181 195.101 82.4944 195.066 82.5536 195.009C82.6128 194.953 82.6516 194.878 82.6637 194.797C82.6759 194.717 82.6608 194.634 82.6208 194.563C81.9961 193.465 81.3207 192.389 80.5946 191.335C77.2984 186.543 73.0611 182.472 68.1408 179.371C63.2206 176.27 57.7205 174.202 51.9755 173.295C46.3239 175.558 41.1758 178.917 36.8276 183.178C32.4794 187.439 29.0171 192.518 26.64 198.122C26.6092 198.197 26.604 198.28 26.6252 198.358C26.6463 198.436 26.6925 198.505 26.7568 198.555C26.821 198.604 26.8997 198.631 26.9806 198.631C27.0616 198.631 27.1403 198.604 27.2046 198.555C35.0303 192.516 44.4534 188.903 54.31 188.16V188.16Z" fill="#3186F2"/>
<path d="M87.7782 243.624C85.2765 244.021 82.7471 244.22 80.214 244.217C71.2601 244.169 62.5066 241.561 54.9866 236.701C54.9179 236.656 54.8363 236.636 54.7547 236.642C54.6731 236.649 54.5961 236.683 54.5359 236.739C54.4757 236.795 54.4358 236.869 54.4224 236.949C54.409 237.03 54.423 237.113 54.462 237.185C55.3023 238.693 56.2386 240.146 57.2651 241.534C64.2862 250.772 74.552 257 85.9883 258.961C91.6615 256.696 96.8289 253.329 101.191 249.052C105.553 244.776 109.023 239.677 111.4 234.05C111.432 233.974 111.438 233.89 111.417 233.811C111.396 233.732 111.349 233.662 111.284 233.612C111.219 233.562 111.139 233.536 111.057 233.537C110.975 233.538 110.895 233.566 110.831 233.617C104.104 238.827 96.178 242.267 87.7782 243.624Z" fill="#3186F2"/>
<path d="M53.1245 244.705C46.7748 236.207 43.5566 225.775 44.0146 215.177C44.0191 215.094 43.9959 215.013 43.9487 214.945C43.9014 214.878 43.8328 214.828 43.7539 214.804C43.675 214.78 43.5903 214.783 43.5134 214.813C43.4366 214.843 43.3719 214.898 43.3298 214.969C42.6624 216.076 42.0471 217.215 41.4838 218.384C39.0778 223.631 37.7399 229.305 37.5481 235.074C37.3563 240.844 38.3144 246.593 40.3666 251.989C45.1495 255.876 50.6749 258.746 56.6051 260.425C62.5353 262.104 68.7456 262.555 74.8561 261.751C74.9369 261.74 75.0117 261.702 75.0686 261.643C75.1255 261.585 75.1613 261.509 75.1705 261.428C75.1796 261.347 75.1616 261.265 75.1192 261.195C75.0768 261.125 75.0124 261.072 74.9362 261.043C66.3147 257.682 58.7733 252.034 53.1245 244.705V244.705Z" fill="#3186F2"/>
<path d="M36.2583 216.499C40.4696 206.761 47.9141 198.776 57.3332 193.894C57.4044 193.856 57.4611 193.795 57.4945 193.722C57.5279 193.648 57.5361 193.565 57.5179 193.487C57.4997 193.408 57.456 193.337 57.3937 193.286C57.3314 193.234 57.2538 193.204 57.173 193.201C55.8796 193.173 54.5822 193.201 53.2928 193.297C47.5437 193.823 41.9567 195.488 36.857 198.193C31.7573 200.899 27.2469 204.593 23.5885 209.059C22.5997 215.141 22.8613 221.362 24.3574 227.34C25.8535 233.318 28.5526 238.928 32.2899 243.828C32.3398 243.894 32.4102 243.941 32.4899 243.962C32.5697 243.983 32.6541 243.977 32.7298 243.944C32.8055 243.911 32.868 243.854 32.9073 243.781C32.9466 243.709 32.9605 243.625 32.9467 243.544C31.5683 234.396 32.7133 225.044 36.2583 216.499V216.499Z" fill="#3186F2"/>
</g>
<path d="M601.626 74.0931C600.409 75.3101 598.859 76.1389 597.17 76.4746C595.482 76.8103 593.732 76.6379 592.142 75.9792C590.552 75.3205 589.193 74.205 588.237 72.7738C587.28 71.3427 586.77 69.6601 586.77 67.9389C586.77 66.2176 587.28 64.5351 588.237 63.1039C589.193 61.6727 590.552 60.5573 592.142 59.8985C593.732 59.2398 595.482 59.0674 597.17 59.4031C598.859 59.7388 600.409 60.5676 601.626 61.7847C602.435 62.5926 603.077 63.5519 603.514 64.6079C603.952 65.6639 604.177 66.7958 604.177 67.9389C604.177 69.0819 603.952 70.2138 603.514 71.2698C603.077 72.3258 602.435 73.2851 601.626 74.0931V74.0931Z" fill="#00D0B2"/>
<path d="M591.938 71.781L591.937 72.0195C592.008 72.0198 592.08 72.006 592.146 71.9788C592.213 71.9516 592.273 71.9115 592.324 71.8609L592.325 71.8603L598.457 65.7276L598.458 65.7269C598.56 65.6247 598.616 65.4864 598.616 65.3423C598.616 65.1983 598.56 65.06 598.458 64.9577L598.458 64.9577L598.456 64.9559C598.353 64.8545 598.215 64.7977 598.07 64.7977C597.926 64.7977 597.788 64.8545 597.685 64.9559L597.683 64.9571L591.555 71.0854C591.504 71.1357 591.463 71.1957 591.435 71.262C591.407 71.3289 591.392 71.4008 591.392 71.4734C591.392 71.546 591.407 71.6179 591.435 71.6848C591.463 71.7509 591.504 71.8108 591.555 71.8611C591.605 71.9112 591.664 71.951 591.73 71.9782C591.796 72.0057 591.867 72.0197 591.939 72.0195L591.938 71.781ZM591.938 71.781C591.978 71.7812 592.018 71.7735 592.056 71.7581C592.093 71.7428 592.127 71.7202 592.156 71.6917L598.289 65.559C598.346 65.5014 598.378 65.4235 598.378 65.3423C598.378 65.2612 598.346 65.1833 598.289 65.1257C598.231 65.0683 598.152 65.0361 598.07 65.0361C597.989 65.0361 597.91 65.0683 597.852 65.1257L591.938 71.781Z" fill="white" stroke="white" stroke-width="0.476909"/>
<path d="M593.132 65.4898H598.467C598.612 65.4898 598.751 65.4323 598.854 65.3299C598.956 65.2274 599.013 65.0885 599.013 64.9437C599.013 64.799 598.956 64.6601 598.854 64.5576C598.751 64.4552 598.612 64.3977 598.467 64.3977H593.132C592.987 64.3977 592.848 64.4552 592.746 64.5576C592.643 64.66 592.586 64.7989 592.586 64.9437C592.586 65.0886 592.643 65.2275 592.746 65.3299C592.848 65.4323 592.987 65.4898 593.132 65.4898Z" fill="white" stroke="white" stroke-width="0.476909"/>
<path d="M598.081 70.6654C598.184 70.7678 598.323 70.8253 598.467 70.8253C598.612 70.8253 598.751 70.7678 598.854 70.6654C598.956 70.5629 599.013 70.424 599.013 70.2793V64.9437C599.013 64.799 598.956 64.6601 598.854 64.5576C598.751 64.4552 598.612 64.3977 598.467 64.3977C598.323 64.3977 598.184 64.4552 598.081 64.5576C597.979 64.6601 597.921 64.799 597.921 64.9437V70.2793C597.921 70.424 597.979 70.5629 598.081 70.6654Z" fill="white" stroke="white" stroke-width="0.476909"/>
<defs>
<filter id="filter0_f_545_1977" x="258.827" y="151.603" width="33.5831" height="6.36601" filterUnits="userSpaceOnUse" color-interpolation-filters="sRGB">
<feFlood flood-opacity="0" result="BackgroundImageFix"/>
<feBlend mode="normal" in="SourceGraphic" in2="BackgroundImageFix" result="shape"/>
<feGaussianBlur stdDeviation="0.470806" result="effect1_foregroundBlur_545_1977"/>
</filter>
<filter id="filter1_f_545_1977" x="258.827" y="165.372" width="33.5831" height="6.36601" filterUnits="userSpaceOnUse" color-interpolation-filters="sRGB">
<feFlood flood-opacity="0" result="BackgroundImageFix"/>
<feBlend mode="normal" in="SourceGraphic" in2="BackgroundImageFix" result="shape"/>
<feGaussianBlur stdDeviation="0.470806" result="effect1_foregroundBlur_545_1977"/>
</filter>
<filter id="filter2_f_545_1977" x="258.828" y="179.14" width="33.5831" height="6.36601" filterUnits="userSpaceOnUse" color-interpolation-filters="sRGB">
<feFlood flood-opacity="0" result="BackgroundImageFix"/>
<feBlend mode="normal" in="SourceGraphic" in2="BackgroundImageFix" result="shape"/>
<feGaussianBlur stdDeviation="0.470806" result="effect1_foregroundBlur_545_1977"/>
</filter>
<filter id="filter3_f_545_1977" x="258.827" y="192.909" width="33.5831" height="6.36601" filterUnits="userSpaceOnUse" color-interpolation-filters="sRGB">
<feFlood flood-opacity="0" result="BackgroundImageFix"/>
<feBlend mode="normal" in="SourceGraphic" in2="BackgroundImageFix" result="shape"/>
<feGaussianBlur stdDeviation="0.470806" result="effect1_foregroundBlur_545_1977"/>
</filter>
<clipPath id="clip0_545_1977">
<rect width="92" height="92.1361" fill="white" transform="translate(23 170)"/>
</clipPath>
</defs>
</svg>
