<svg width="65" height="65" viewBox="0 0 65 65" fill="none" xmlns="http://www.w3.org/2000/svg">
<rect width="65" height="65" fill="white"/>
<path d="M52.685 39.3989C51.591 39.3987 50.513 39.1359 49.5417 38.6325C48.5703 38.1292 47.734 37.4 47.103 36.5063C46.472 35.6126 46.0647 34.5805 45.9155 33.4967C45.7662 32.4129 45.8793 31.3091 46.2452 30.2781C46.664 29.0969 47.3994 28.0536 48.3711 27.2621C49.3427 26.4706 50.5133 25.9615 51.7547 25.7903C52.9962 25.6191 54.2608 25.7924 55.4104 26.2914C56.5601 26.7904 57.5504 27.5957 58.2732 28.6195C58.996 29.6432 59.4236 30.846 59.509 32.0963C59.5945 33.3466 59.3346 34.5963 58.7579 35.7089C58.1811 36.8215 57.3096 37.7542 56.2385 38.4049C55.1675 39.0557 53.9382 39.3996 52.685 39.3989V39.3989ZM47.4485 30.6984C47.0814 31.736 47.0302 32.8591 47.3013 33.9257C47.5725 34.9924 48.1538 35.9547 48.9718 36.691C49.7898 37.4274 50.8077 37.9046 51.8969 38.0625C52.9862 38.2203 54.0977 38.0516 55.0911 37.5778C56.0845 37.104 56.915 36.3463 57.4778 35.4005C58.0406 34.4546 58.3103 33.3632 58.2528 32.2641C58.1954 31.165 57.8133 30.1076 57.155 29.2257C56.4967 28.3437 55.5916 27.6767 54.5543 27.309C53.1625 26.8177 51.6325 26.8986 50.3003 27.534C48.9681 28.1695 47.9425 29.3075 47.4485 30.6984Z" fill="#0F3384"/>
<path d="M33.7201 58.7295H27.5395C27.371 58.7295 27.2094 58.6625 27.0902 58.5433C26.971 58.4241 26.904 58.2625 26.904 58.094C26.904 57.9254 26.971 57.7638 27.0902 57.6446C27.2094 57.5254 27.371 57.4585 27.5395 57.4585H33.7201C34.263 57.4576 34.7835 57.2414 35.1672 56.8573C35.551 56.4732 35.7668 55.9525 35.7672 55.4096V9.71418C35.7668 9.17138 35.551 8.65093 35.1671 8.26711C34.7833 7.88328 34.2629 7.66746 33.7201 7.66701H27.5378C27.3693 7.66701 27.2077 7.60005 27.0885 7.48087C26.9693 7.36169 26.9023 7.20005 26.9023 7.0315C26.9023 6.86296 26.9693 6.70131 27.0885 6.58213C27.2077 6.46295 27.3693 6.396 27.5378 6.396H33.7201C34.5998 6.39689 35.4433 6.74678 36.0654 7.36886C36.6875 7.99095 37.0373 8.83442 37.0382 9.71418V55.4096C37.0373 56.2895 36.6875 57.1331 36.0655 57.7555C35.4434 58.3779 34.6 58.7281 33.7201 58.7295V58.7295Z" fill="#0F3384"/>
<path d="M14.4997 7.29585e-05C14.0915 0.00627177 13.7652 0.339636 13.7707 0.744632V1.71922C13.6965 1.73162 13.6222 1.73506 13.5479 1.75091C11.9144 2.09735 10.6426 3.32611 10.6426 4.85931C10.6426 6.38974 11.9116 7.61717 13.541 7.96559C14.5073 8.21424 15.1015 8.11023 15.7902 8.34992C16.7308 8.79073 17.0724 9.51737 16.8356 10.2151C16.5968 10.9204 15.6673 11.5492 14.5143 11.5492C13.5896 11.5492 12.7857 11.1387 12.4039 10.618L12.4046 10.6187C12.2887 10.461 12.1151 10.3549 11.9207 10.3246C11.727 10.2936 11.5285 10.3411 11.3695 10.4554C11.2105 10.5698 11.1036 10.7427 11.0731 10.9355C11.0425 11.1277 11.0897 11.3247 11.2057 11.4824C11.7881 12.2779 12.7197 12.7883 13.7716 12.9543V13.9571L13.7709 13.9578C13.7681 14.1541 13.8451 14.3435 13.984 14.484C14.1235 14.6239 14.313 14.7024 14.5116 14.7024C14.7101 14.7024 14.8997 14.6239 15.0392 14.484C15.178 14.3435 15.2551 14.1541 15.2523 13.9578V12.9564C16.6324 12.7394 17.8194 11.926 18.2401 10.6848C18.7344 9.226 17.8798 7.67901 16.3886 6.99858V6.99789C16.3706 6.98963 16.3525 6.98205 16.3338 6.97516C15.2828 6.59358 14.5795 6.7217 13.8937 6.54056C13.8819 6.53712 13.8701 6.53436 13.8576 6.53161C12.7539 6.29812 12.1235 5.56596 12.1235 4.8586C12.1235 4.15125 12.7539 3.42116 13.8576 3.18697C14.9614 2.95348 16.129 3.37569 16.624 4.05344L16.6247 4.05413C16.8649 4.38267 17.3279 4.45636 17.6591 4.21805C17.9909 3.97974 18.0652 3.52034 17.825 3.19111C17.2252 2.36941 16.2845 1.86731 15.2522 1.70751V0.744631C15.2549 0.546267 15.1765 0.354798 15.0349 0.214974C14.8932 0.0744653 14.7003 -0.00267953 14.4996 7.11088e-05L14.4997 7.29585e-05Z" fill="#0F3384"/>
<path d="M21.4758 38.6597H7.54725C7.11441 38.6597 6.77344 38.958 6.77344 39.3368C6.77344 39.7155 7.11441 40.0138 7.54725 40.0138H21.4758C21.9087 40.0138 22.2496 39.7155 22.2496 39.3368C22.2496 38.958 21.9087 38.6597 21.4758 38.6597Z" fill="#0F3384"/>
<path d="M17.3291 32.6241L15.3628 34.0169V27.0842C15.3628 26.6514 15.131 26.3104 14.6982 26.3104C14.2653 26.3104 14.0009 26.6514 14.0009 27.0842V33.9869L12.0672 32.6255C11.9439 32.5324 11.7577 32.4708 11.6029 32.4708C11.3551 32.4708 11.1386 32.5941 10.9839 32.7803C10.736 33.1212 10.7977 33.6157 11.1386 33.8636L14.2654 36.1536C14.5435 36.37 14.9159 36.37 15.194 36.1536L18.2892 33.8636C18.6302 33.6157 18.6919 33.1212 18.444 32.7803C18.1333 32.4393 17.6689 32.3762 17.3291 32.6241Z" fill="#0F3384"/>
<path d="M21.2975 54.6725C21.1838 54.5257 21.0048 54.444 20.8098 54.444H12.1285C11.7709 54.444 11.4947 54.7383 11.4947 55.0811C11.4947 55.4245 11.7875 55.7182 12.1285 55.7182H20.0295L19.3145 59.6895C19.1684 60.49 18.4692 61.0786 17.6564 61.0786H11.4789L9.77134 52.368C9.70657 52.0737 9.44621 51.8452 9.13759 51.8452H6.63375C6.27623 51.8452 6 52.1395 6 52.4823C6 52.8257 6.29275 53.1194 6.63375 53.1194H8.61689L10.2915 61.6498C9.93397 62.0092 9.70599 62.4995 9.70599 63.0389C9.70599 64.1178 10.5836 65 11.6568 65C12.73 65 13.6076 64.1178 13.6076 63.0389C13.6076 62.7938 13.5587 62.5812 13.4939 62.3686H15.9813C15.9 62.5812 15.8677 62.8097 15.8677 63.0389C15.8677 64.1178 16.7453 65 17.8185 65C18.8916 65 19.7692 64.1178 19.7692 63.0389C19.7692 62.5812 19.6232 62.1727 19.3628 61.8458C19.9966 61.4047 20.4684 60.7344 20.6145 59.9173L21.4762 55.178C21.4603 55.0159 21.4114 54.8193 21.2977 54.6724L21.2975 54.6725ZM12.3234 63.0562C12.3234 63.4322 12.0148 63.7265 11.6566 63.7265C11.2991 63.7265 10.9898 63.4163 10.9898 63.0562C10.9898 62.6968 11.2984 62.3859 11.6566 62.3859C12.0148 62.3859 12.3234 62.6802 12.3234 63.0562ZM17.8023 63.7259C17.4283 63.7259 17.1356 63.4157 17.1356 63.0556C17.1356 62.6962 17.4442 62.3853 17.8023 62.3853C18.1598 62.3853 18.4691 62.6956 18.4691 63.0556C18.4685 63.4156 18.1599 63.7259 17.8023 63.7259Z" fill="#0F3384"/>
<path d="M45.7206 33.1967H26.0046C25.8361 33.1967 25.6745 33.1297 25.5553 33.0105C25.4361 32.8914 25.3691 32.7297 25.3691 32.5612C25.3691 32.3926 25.4361 32.231 25.5553 32.1118C25.6745 31.9926 25.8361 31.9257 26.0046 31.9257H45.7206C45.8891 31.9257 46.0508 31.9926 46.17 32.1118C46.2891 32.231 46.3561 32.3926 46.3561 32.5612C46.3561 32.7297 46.2891 32.8914 46.17 33.0105C46.0508 33.1297 45.8891 33.1967 45.7206 33.1967Z" fill="#0F3384"/>
</svg>
