<?xml version="1.0" encoding="utf-8"?>
<!-- Generator: Adobe Illustrator 25.4.1, SVG Export Plug-In . SVG Version: 6.00 Build 0)  -->
<svg version="1.1" id="Layer_1" xmlns="http://www.w3.org/2000/svg" xmlns:xlink="http://www.w3.org/1999/xlink" x="0px" y="0px"
	 viewBox="0 0 65 65" style="enable-background:new 0 0 65 65;" xml:space="preserve">
<style type="text/css">
	.st0{fill:#FFFFFF;}
	.st1{fill:#0F3384;}
	.st2{clip-path:url(#SVGID_00000035523911827573985610000011467809844303263626_);fill:#0F3384;}
</style>
<rect class="st0" width="65" height="65"/>
<path class="st1" d="M33,2l0.5,0c3.2,0,6.4,0.6,9.4,1.7c0.3,0.1,0.5,0.4,0.6,0.7c0.1,0.3-0.1,0.6-0.3,0.9c-0.2,0.2-0.6,0.3-0.9,0.2
	c-3-1.1-6.1-1.6-9.3-1.6C17.4,3.8,4.8,16.6,4.8,32.4S17.4,61,33,61s28.2-12.8,28.2-28.6c0-3.8-0.7-7.5-2.2-11
	c-0.1-0.3-0.1-0.6,0.1-0.9c0.2-0.3,0.5-0.4,0.8-0.4c0.3,0,0.6,0.3,0.7,0.6c1.5,3.7,2.3,7.7,2.3,11.7c0,16.8-13.4,30.4-30,30.4
	S3,49.2,3,32.4C3,15.6,16.4,2,33,2z"/>
<g>
	<defs>
		<path id="SVGID_1_" d="M33,2l0.5,0c3.2,0,6.4,0.6,9.4,1.7c0.3,0.1,0.5,0.4,0.6,0.7c0.1,0.3-0.1,0.6-0.3,0.9
			c-0.2,0.2-0.6,0.3-0.9,0.2c-3-1.1-6.1-1.6-9.3-1.6C17.4,3.8,4.8,16.6,4.8,32.4S17.4,61,33,61s28.2-12.8,28.2-28.6
			c0-3.8-0.7-7.5-2.2-11c-0.1-0.3-0.1-0.6,0.1-0.9c0.2-0.3,0.5-0.4,0.8-0.4c0.3,0,0.6,0.3,0.7,0.6c1.5,3.7,2.3,7.7,2.3,11.7
			c0,16.8-13.4,30.4-30,30.4S3,49.2,3,32.4C3,15.6,16.4,2,33,2z"/>
	</defs>
	<clipPath id="SVGID_00000026848827279015628800000006673039580538138295_">
		<use xlink:href="#SVGID_1_"  style="overflow:visible;"/>
	</clipPath>
	<path style="clip-path:url(#SVGID_00000026848827279015628800000006673039580538138295_);fill:#0F3384;" d="M5,32.4
		C5,16.7,17.6,4,33,4V0C15.3,0,1,14.6,1,32.4H5z M33,60.8c-15.4,0-28-12.7-28-28.4H1c0,17.8,14.3,32.4,32,32.4V60.8z M60.9,32.4
		c0,15.7-12.6,28.4-28,28.4v4c17.7,0,32-14.6,32-32.4H60.9z M58.8,21.5c1.4,3.5,2.2,7.2,2.2,10.9l4,0c0-4.3-0.8-8.5-2.5-12.5
		L58.8,21.5z M59.7,22.1c-0.4-0.1-0.7-0.3-0.9-0.7l3.7-1.5c-0.4-1-1.3-1.6-2.3-1.8L59.7,22.1z M60.7,21.7c-0.2,0.3-0.6,0.5-1,0.4
		l0.5-4c-1-0.1-2.1,0.3-2.7,1.1L60.7,21.7z M60.8,20.6c0.1,0.3,0.1,0.7-0.1,1.1l-3.2-2.4c-0.6,0.8-0.7,1.9-0.4,2.9L60.8,20.6z
		 M63.2,32.4c0-4-0.8-8.1-2.3-11.8l-3.7,1.5c1.3,3.2,2,6.7,2,10.2L63.2,32.4z M33,63c16.7,0,30.2-13.7,30.2-30.6h-4
		C59.2,47.1,47.4,59,33,59V63z M2.8,32.4C2.8,49.2,16.3,63,33,63v-4C18.6,59,6.8,47.1,6.8,32.4H2.8z M33,1.8
		C16.3,1.8,2.8,15.6,2.8,32.4h4C6.8,17.7,18.6,5.8,33,5.8V1.8z M42.9,3.5c-3.2-1.1-6.6-1.7-9.9-1.7l0,4c2.9,0,5.8,0.5,8.6,1.5
		L42.9,3.5z M41.8,3.7c0.3-0.3,0.7-0.3,1.1-0.2l-1.4,3.8c1,0.4,2.1,0.1,2.9-0.5L41.8,3.7z M41.5,4.7c-0.1-0.4,0.1-0.8,0.4-1l2.6,3
		C45.2,6.1,45.6,5,45.4,4L41.5,4.7z M42.2,5.6c-0.4-0.1-0.7-0.5-0.7-0.8L45.4,4c-0.2-1-0.9-1.9-1.9-2.2L42.2,5.6z M33.4,4
		c3,0,5.9,0.6,8.8,1.6l1.3-3.8c-3.2-1.1-6.6-1.8-10-1.8L33.4,4z M33,4l0.5,0l0-4L33,0L33,4z M62.9,32.4l-2,0v0H62.9z M60.6,20.7
		l-1.9,0.8l0,0L60.6,20.7z M59.9,20.1l0.3-2l0,0L59.9,20.1z M59.1,20.5l-1.6-1.2l0,0L59.1,20.5z M59,21.4l1.8-0.8l0,0L59,21.4z
		 M61.2,32.4l-2,0v0H61.2z M33,3.8v2l0,0L33,3.8z M42.2,5.4l0.7-1.9l0,0l0,0L42.2,5.4z M43.1,5.2l-1.3-1.5l0,0L43.1,5.2z M43.4,4.4
		l-2,0.4l0,0L43.4,4.4z M42.8,3.7l-0.7,1.9l0,0l0,0L42.8,3.7z M33.4,2l0-2l0,0l0,0L33.4,2z M33,2l0-2h0V2z"/>
</g>
<path class="st1" d="M59.4,5.7L59.4,5.7L59.4,5.7c0.1,0,0.2,0,0.2,0C60,5.8,60.2,6,60.3,6.4c0.1,0.3,0,0.7-0.3,0.9l-9.8,9.5
	c-0.4,0.3-0.9,0.3-1.3,0l-5.6-5.7c-0.3-0.4-0.3-0.9,0-1.3c0.3-0.4,0.9-0.4,1.3,0l5,5l9.2-8.9C58.9,5.8,59.2,5.7,59.4,5.7z"/>
<path class="st1" d="M33,17.6c-0.7,0-1.2,0.4-1.2,1v2c-3.8,0.5-6.6,3.4-6.3,6.6c0.3,3.2,3.6,5.7,7.4,5.7c2.8,0,5.1,1.9,5.1,4.2
	c0,2.3-2.2,4.2-5,4.2c0,0,0,0-0.1,0c0,0,0,0-0.1,0c-2.8,0-5-1.9-5-4.2c0-0.5-0.5-1-1.2-1c-0.7,0-1.2,0.4-1.2,1c0,3,2.7,5.6,6.3,6.1
	v2.2c0,0.5,0.5,1,1.2,1c0.7,0,1.2-0.4,1.2-1v-2.2c3.8-0.5,6.6-3.4,6.3-6.6c-0.3-3.2-3.6-5.7-7.4-5.7c-1.8,0-3.5-0.8-4.4-2.1
	c-0.9-1.3-0.9-2.9,0-4.2c0.9-1.3,2.6-2.1,4.4-2.1c2.8,0,5.1,1.9,5.1,4.2c0,0.5,0.5,1,1.2,1c0.7,0,1.2-0.4,1.2-1c0-3-2.7-5.6-6.3-6.1
	v-2C34.2,18.1,33.6,17.6,33,17.6L33,17.6z"/>
</svg>
