<svg width="627" height="400" viewBox="0 0 627 400" fill="none" xmlns="http://www.w3.org/2000/svg">
<g clip-path="url(#clip0_1116_1659)">
<rect width="627" height="400" fill="white"/>
<g filter="url(#filter0_d_1116_1659)">
<path d="M1 133.423C1 127.454 5.83893 122.615 11.808 122.615H75.0351C81.0043 122.615 85.8432 127.454 85.8432 133.423V275.009C85.8432 280.978 81.0043 285.817 75.0351 285.817H11.808C5.83893 285.817 1 280.978 1 275.009V133.423Z" fill="#8B8F9E"/>
</g>
<path d="M7.48633 140.447H78.8194V265.28H7.48633V140.447Z" fill="white"/>
<rect x="13.7449" y="214.355" width="58.1038" height="19.798" rx="2" fill="#4C4FEE"/>
<rect x="13.7449" y="150.914" width="58.1038" height="6.60833" rx="3" fill="#E4E8ED"/>
<rect x="13.7449" y="161.488" width="58.1038" height="6.60833" rx="3" fill="#E4E8ED"/>
<rect x="13.7449" y="172.061" width="58.1038" height="6.60833" rx="3" fill="#E4E8ED"/>
<rect x="13.7449" y="182.633" width="58.1038" height="6.60833" rx="3" fill="#E4E8ED"/>
<rect x="13.7449" y="193.207" width="58.1038" height="6.60833" rx="3" fill="#E4E8ED"/>
<rect x="13.7449" y="203.781" width="58.1038" height="6.60833" rx="3" fill="#E4E8ED"/>
<rect x="13.7449" y="238.145" width="58.1038" height="6.60833" rx="3" fill="#E4E8ED"/>
<rect x="13.7449" y="248.719" width="58.1038" height="6.60833" rx="3" fill="#E4E8ED"/>
<path d="M48.5571 275.009C48.5571 277.994 46.1376 280.414 43.153 280.414C40.1685 280.414 37.749 277.994 37.749 275.009C37.749 272.025 40.1685 269.605 43.153 269.605C46.1376 269.605 48.5571 272.025 48.5571 275.009Z" fill="white"/>
<path d="M28.5624 131.803C28.5624 130.907 29.2882 130.182 30.1836 130.182H56.1229C57.0183 130.182 57.7441 130.907 57.7441 131.803V131.803C57.7441 132.698 57.0183 133.424 56.1229 133.424H30.1836C29.2882 133.424 28.5624 132.698 28.5624 131.803V131.803Z" fill="white"/>
<g filter="url(#filter1_d_1116_1659)">
<path d="M540.776 64.1092C540.776 58.526 545.615 54 551.585 54H614.815C620.785 54 625.624 58.526 625.624 64.1092V196.539C625.624 202.123 620.785 206.649 614.815 206.649H551.585C545.615 206.649 540.776 202.123 540.776 196.539V64.1092Z" fill="#8B8F9E"/>
</g>
<path d="M547.263 70.6797H618.6V187.441H547.263V70.6797Z" fill="white"/>
<rect x="553.995" y="78.7227" width="58.1565" height="101.369" rx="3" fill="#E4E8ED"/>
<path d="M588.337 196.539C588.337 199.331 585.917 201.594 582.933 201.594C579.948 201.594 577.528 199.331 577.528 196.539C577.528 193.747 579.948 191.484 582.933 191.484C585.917 191.484 588.337 193.747 588.337 196.539Z" fill="white"/>
<path d="M568.339 62.5925C568.339 61.7551 569.065 61.0762 569.961 61.0762H595.901C596.797 61.0762 597.523 61.7551 597.523 62.5925V62.5925C597.523 63.43 596.797 64.1089 595.901 64.1089H569.961C569.065 64.1089 568.339 63.43 568.339 62.5925V62.5925Z" fill="white"/>
<g filter="url(#filter2_d_1116_1659)">
<path d="M445.748 254.131H418.498C413.395 254.131 409.263 258.263 409.263 263.366V290.622C409.263 295.72 413.395 299.852 418.498 299.852H445.753C450.851 299.852 454.989 295.72 454.989 290.616V263.366C454.983 258.263 450.851 254.131 445.748 254.131Z" fill="url(#paint0_linear_1116_1659)"/>
<path d="M431.93 264.634L432.856 263.034C433.427 262.034 434.702 261.696 435.702 262.268C436.702 262.839 437.039 264.114 436.468 265.114L427.546 280.556H433.999C436.09 280.556 437.262 283.014 436.353 284.717H417.437C416.282 284.717 415.356 283.791 415.356 282.636C415.356 281.482 416.282 280.556 417.437 280.556H422.74L429.53 268.789L427.409 265.108C426.838 264.108 427.175 262.845 428.175 262.262C429.175 261.691 430.438 262.028 431.021 263.028L431.93 264.634ZM423.906 286.86L421.906 290.329C421.334 291.329 420.06 291.666 419.06 291.095C418.059 290.523 417.722 289.249 418.294 288.249L419.78 285.677C421.46 285.157 422.826 285.557 423.906 286.86ZM441.131 280.568H446.543C447.698 280.568 448.623 281.493 448.623 282.648C448.623 283.802 447.698 284.728 446.543 284.728H443.537L445.566 288.249C446.137 289.249 445.8 290.512 444.8 291.095C443.8 291.666 442.537 291.329 441.954 290.329C438.536 284.402 435.97 279.967 434.267 277.013C432.524 274.007 433.77 270.989 434.999 269.966C436.365 272.309 438.405 275.847 441.131 280.568Z" fill="white"/>
</g>
<g filter="url(#filter3_d_1116_1659)">
<path d="M467.237 255.943C466.737 256.479 466.444 257.304 466.444 258.374V296.643C466.444 297.714 466.737 298.538 467.237 299.074L467.365 299.197L488.613 277.761V277.509V277.256L467.365 255.82L467.237 255.943Z" fill="url(#paint1_linear_1116_1659)"/>
<path d="M495.69 284.913L488.608 277.761V277.509V277.257L495.69 270.111L495.849 270.204L504.243 275.016C506.64 276.389 506.64 278.641 504.243 280.014L495.849 284.827L495.69 284.913Z" fill="url(#paint2_linear_1116_1659)"/>
<path d="M495.854 284.821L488.613 277.51L467.237 299.075C468.03 299.918 469.329 300.023 470.799 299.18L495.854 284.821Z" fill="url(#paint3_linear_1116_1659)"/>
<path d="M495.854 270.205L470.799 255.84C469.329 254.997 468.024 255.102 467.237 255.945L488.613 277.51L495.854 270.205Z" fill="url(#paint4_linear_1116_1659)"/>
<path opacity="0.2" d="M495.692 284.662L470.796 298.934C469.405 299.734 468.161 299.679 467.362 298.953L467.234 299.082L467.362 299.205C468.161 299.931 469.405 299.987 470.796 299.187L495.851 284.822L495.692 284.662Z" fill="black"/>
<path opacity="0.12" d="M467.234 298.824C466.734 298.288 466.441 297.463 466.441 296.393V296.645C466.441 297.716 466.734 298.54 467.234 299.076L467.362 298.947L467.234 298.824Z" fill="black"/>
<path opacity="0.12" d="M504.25 279.756L495.697 284.661L495.856 284.821L504.25 280.008C505.445 279.319 506.049 278.414 506.049 277.51C505.946 278.328 505.336 279.135 504.25 279.756Z" fill="black"/>
<path opacity="0.25" d="M470.803 256.094L504.251 275.265C505.337 275.887 505.947 276.693 506.051 277.512C506.051 276.607 505.453 275.702 504.251 275.013L470.803 255.842C468.405 254.469 466.447 255.608 466.447 258.377V258.63C466.447 255.86 468.405 254.722 470.803 256.094Z" fill="white"/>
</g>
<path d="M522.316 130.56L511.306 119.551C510.676 118.921 509.599 119.367 509.599 120.258L509.599 142.277C509.599 143.168 510.676 143.614 511.306 142.984L522.316 131.975C522.706 131.584 522.706 130.951 522.316 130.56Z" fill="#8B8F9E"/>
<path d="M395.377 275.799L384.368 264.79C383.738 264.16 382.66 264.606 382.66 265.497L382.66 287.515C382.66 288.406 383.738 288.852 384.368 288.222L395.377 277.213C395.767 276.822 395.767 276.189 395.377 275.799Z" fill="#8B8F9E"/>
<path d="M580.742 224.71L569.733 235.719C569.103 236.349 569.549 237.426 570.44 237.426L592.459 237.426C593.35 237.426 593.796 236.349 593.166 235.719L582.157 224.71C581.766 224.319 581.133 224.319 580.742 224.71Z" fill="#8B8F9E"/>
<path d="M55.2836 225.253L53.3102 223.938L51.3369 225.911V237.751H50.0213L48.048 240.382V243.013L53.3102 248.933L52.6524 251.564C52.8717 251.866 53.4418 252.551 53.968 252.88C54.4942 253.209 61.6421 253.017 65.1503 252.88L66.4659 250.907V248.275L67.7814 244.329V235.778L66.4659 234.462L63.8347 235.12V233.146L61.8614 232.489L59.888 233.146L59.2303 231.831L57.2569 231.173H55.2836V227.638V225.253Z" fill="white"/>
<path d="M66.3053 233.436H66.1098C65.6505 233.436 65.2158 233.548 64.8331 233.745C64.6089 232.427 63.4594 231.421 62.0801 231.421H61.8847C61.3693 231.421 60.8854 231.562 60.4699 231.807C60.0735 230.747 59.0497 229.991 57.8536 229.991H57.6581C57.2139 229.991 56.7942 230.095 56.4211 230.281V225.992C56.4211 224.453 55.169 223.199 53.6285 223.199H53.433C51.8939 223.199 50.6404 224.451 50.6404 225.992V236.651L49.2871 237.678C48.2619 238.457 47.6113 239.59 47.4554 240.868C47.301 242.147 47.6605 243.402 48.471 244.404L52.5936 249.501V251.552C52.5936 252.719 53.5436 253.669 54.7109 253.669H64.9506C66.1179 253.669 67.0679 252.719 67.0679 251.552V249.604C68.3788 247.969 69.0965 245.936 69.0965 243.846V236.23C69.0978 234.689 67.8457 233.436 66.3052 233.436L66.3053 233.436ZM67.5437 243.845C67.5437 245.662 66.8889 247.428 65.7011 248.817C65.5808 248.957 65.5138 249.136 65.5138 249.322V251.55C65.5138 251.861 65.2623 252.112 64.952 252.112H54.7124C54.4034 252.112 54.1506 251.861 54.1506 251.55V249.225C54.1506 249.048 54.089 248.874 53.977 248.736L49.6809 243.425C49.1382 242.754 48.8962 241.912 49.0001 241.055C49.104 240.198 49.5401 239.438 50.2276 238.916L50.6404 238.603V241.201C50.6404 241.631 50.989 241.979 51.4182 241.979C51.8475 241.979 52.196 241.631 52.196 241.201V237.045V237.028V225.992C52.196 225.31 52.751 224.755 53.4331 224.755H53.6286C54.3106 224.755 54.8656 225.31 54.8656 225.992V232.784L54.8697 238.434C54.8697 238.863 55.2183 239.21 55.6475 239.21C56.0768 239.21 56.4253 238.861 56.4253 238.432L56.4212 232.784C56.4212 232.102 56.9762 231.547 57.6583 231.547H57.8538C58.5358 231.547 59.0908 232.102 59.0908 232.784V234.214L59.0949 238.434C59.0949 238.863 59.4435 239.21 59.8727 239.21H59.8741C60.3033 239.21 60.6519 238.861 60.6505 238.432L60.6464 234.212C60.6464 233.53 61.2014 232.975 61.8835 232.975H62.079C62.761 232.975 63.316 233.53 63.316 234.212V236.002C63.3133 236.029 63.3078 236.058 63.3078 236.086L63.3119 238.433C63.3133 238.863 63.6605 239.21 64.0897 239.21H64.0911C64.5203 239.208 64.8675 238.86 64.8675 238.431L64.8634 236.307C64.8661 236.281 64.8716 236.255 64.8716 236.227C64.8716 235.545 65.4266 234.99 66.1087 234.99H66.3041C66.9862 234.99 67.5412 235.545 67.5412 236.227L67.5437 243.845Z" fill="#4C5363"/>
<path d="M48.4496 229.148C48.1898 229.148 47.9356 229.018 47.788 228.78C47.1373 227.734 46.7928 226.527 46.7928 225.289C46.7928 221.643 49.7591 218.676 53.4072 218.676C57.0542 218.676 60.0216 221.643 60.0216 225.29C60.0216 226.237 59.8248 227.153 59.4379 228.012C59.2616 228.403 58.7996 228.576 58.4086 228.4C58.0177 228.224 57.8427 227.763 58.0204 227.371C58.3157 226.716 58.466 226.016 58.466 225.29C58.4647 222.5 56.1956 220.231 53.4071 220.231C50.6172 220.231 48.3481 222.5 48.3481 225.29C48.3481 226.237 48.6106 227.16 49.1082 227.96C49.3351 228.325 49.223 228.805 48.8594 229.03C48.7309 229.109 48.5887 229.148 48.4493 229.148L48.4496 229.148Z" fill="white"/>
<line x1="98.5618" y1="204.598" x2="144.736" y2="204.598" stroke="#8B8F9E" stroke-width="3" stroke-linecap="round" stroke-linejoin="round" stroke-dasharray="1 10"/>
<line x1="520.548" y1="276.645" x2="571.297" y2="276.645" stroke="#8B8F9E" stroke-width="3" stroke-linecap="round" stroke-linejoin="round" stroke-dasharray="1 10"/>
<path d="M144.521 276.43V131.193" stroke="#8B8F9E" stroke-width="3" stroke-linecap="round" stroke-linejoin="round" stroke-dasharray="1 10"/>
<path d="M581.945 277V234.688" stroke="#8B8F9E" stroke-width="3" stroke-linecap="round" stroke-linejoin="round" stroke-dasharray="1 10"/>
<line x1="155.742" y1="131.408" x2="499.25" y2="131.408" stroke="#8B8F9E" stroke-width="3" stroke-linecap="round" stroke-linejoin="round" stroke-dasharray="1 10"/>
<line x1="155.742" y1="276.645" x2="384.891" y2="276.645" stroke="#8B8F9E" stroke-width="3" stroke-linecap="round" stroke-linejoin="round" stroke-dasharray="1 10"/>
<path d="M9.05608 309.045V299.302H6.68884V311.309H13.6362V309.045H9.05608Z" fill="#4C5363"/>
<path d="M15.9759 301.703C16.7307 301.703 17.3482 301.086 17.3482 300.348C17.3482 299.61 16.7307 298.976 15.9759 298.976C15.2383 298.976 14.6208 299.61 14.6208 300.348C14.6208 301.086 15.2383 301.703 15.9759 301.703ZM14.8781 311.309H17.0909V302.733H14.8781V311.309Z" fill="#4C5363"/>
<path d="M23.8851 302.492C22.7358 302.492 21.8438 302.921 21.3292 303.693V302.733H19.1163V311.309H21.3292V306.678C21.3292 305.186 22.1354 304.551 23.2161 304.551C24.211 304.551 24.9143 305.151 24.9143 306.318V311.309H27.1272V306.043C27.1272 303.762 25.7034 302.492 23.8851 302.492Z" fill="#4C5363"/>
<path d="M36.9246 311.309L33.3737 306.97L36.8217 302.733H34.18L31.2295 306.506V299.302H29.0167V311.309H31.2295V307.416L34.3515 311.309H36.9246Z" fill="#4C5363"/>
<path d="M48.1156 311.55C50.3285 311.55 52.2669 310.435 53.279 308.719L51.2377 307.536C50.6716 308.582 49.488 309.234 48.1156 309.234C45.7656 309.234 44.2217 307.604 44.2217 305.306C44.2217 302.99 45.7656 301.36 48.1156 301.36C49.488 301.36 50.6544 302.012 51.2377 303.076L53.279 301.892C52.2497 300.177 50.3113 299.062 48.1156 299.062C44.479 299.062 41.8716 301.789 41.8716 305.306C41.8716 308.805 44.479 311.55 48.1156 311.55Z" fill="#4C5363"/>
<path d="M54.7643 311.309H56.9771V298.787H54.7643V311.309Z" fill="#4C5363"/>
<path d="M60.1003 301.703C60.8551 301.703 61.4726 301.086 61.4726 300.348C61.4726 299.61 60.8551 298.976 60.1003 298.976C59.3627 298.976 58.7452 299.61 58.7452 300.348C58.7452 301.086 59.3627 301.703 60.1003 301.703ZM59.0025 311.309H61.2153V302.733H59.0025V311.309Z" fill="#4C5363"/>
<path d="M67.3233 311.55C69.0044 311.55 70.4625 310.658 71.2001 309.32L69.2789 308.222C68.9358 308.925 68.1982 309.354 67.3062 309.354C65.9853 309.354 65.0075 308.376 65.0075 307.021C65.0075 305.649 65.9853 304.671 67.3062 304.671C68.181 304.671 68.9186 305.117 69.2617 305.82L71.1658 304.705C70.4625 303.384 69.0044 302.492 67.3233 302.492C64.7159 302.492 62.7947 304.465 62.7947 307.021C62.7947 309.577 64.7159 311.55 67.3233 311.55Z" fill="#4C5363"/>
<path d="M80.2784 311.309L76.7275 306.97L80.1755 302.733H77.5338L74.5833 306.506V299.302H72.3705V311.309H74.5833V307.416L77.7053 311.309H80.2784Z" fill="#4C5363"/>
<path d="M418.636 311.88H413.868V323.888H418.636C421.947 323.888 424.417 321.263 424.417 317.884C424.417 314.504 421.947 311.88 418.636 311.88ZM418.636 321.623H416.235V314.144H418.636C420.712 314.144 422.153 315.671 422.153 317.884C422.153 320.097 420.712 321.623 418.636 321.623Z" fill="#4C5363"/>
<path d="M430.076 324.128C432.598 324.128 434.622 322.155 434.622 319.599C434.622 317.043 432.598 315.07 430.076 315.07C427.555 315.07 425.548 317.043 425.548 319.599C425.548 322.155 427.555 324.128 430.076 324.128ZM430.076 321.966C428.773 321.966 427.76 320.989 427.76 319.599C427.76 318.21 428.773 317.232 430.076 317.232C431.397 317.232 432.409 318.21 432.409 319.599C432.409 320.989 431.397 321.966 430.076 321.966Z" fill="#4C5363"/>
<path d="M445.501 315.311L444.043 320.594L442.482 315.311H440.389L438.828 320.577L437.37 315.311H435.02L437.748 323.888H439.858L441.436 318.69L443.014 323.888H445.124L447.851 315.311H445.501Z" fill="#4C5363"/>
<path d="M453.813 315.07C452.664 315.07 451.772 315.499 451.257 316.271V315.311H449.044V323.888H451.257V319.256C451.257 317.764 452.063 317.129 453.144 317.129C454.139 317.129 454.842 317.729 454.842 318.896V323.888H457.055V318.621C457.055 316.34 455.631 315.07 453.813 315.07Z" fill="#4C5363"/>
<path d="M458.945 323.888H461.157V311.365H458.945V323.888Z" fill="#4C5363"/>
<path d="M467.265 324.128C469.787 324.128 471.811 322.155 471.811 319.599C471.811 317.043 469.787 315.07 467.265 315.07C464.744 315.07 462.737 317.043 462.737 319.599C462.737 322.155 464.744 324.128 467.265 324.128ZM467.265 321.966C465.962 321.966 464.95 320.989 464.95 319.599C464.95 318.21 465.962 317.232 467.265 317.232C468.586 317.232 469.598 318.21 469.598 319.599C469.598 320.989 468.586 321.966 467.265 321.966Z" fill="#4C5363"/>
<path d="M479.886 315.311V316.323C479.269 315.551 478.342 315.07 477.09 315.07C474.809 315.07 472.922 317.043 472.922 319.599C472.922 322.155 474.809 324.128 477.09 324.128C478.342 324.128 479.269 323.647 479.886 322.875V323.888H482.099V315.311H479.886ZM477.502 322.018C476.147 322.018 475.135 321.04 475.135 319.599C475.135 318.158 476.147 317.18 477.502 317.18C478.874 317.18 479.886 318.158 479.886 319.599C479.886 321.04 478.874 322.018 477.502 322.018Z" fill="#4C5363"/>
<path d="M490.607 311.88V316.323C489.99 315.534 489.08 315.07 487.828 315.07C485.53 315.07 483.643 317.043 483.643 319.599C483.643 322.155 485.53 324.128 487.828 324.128C489.08 324.128 489.99 323.665 490.607 322.875V323.888H492.82V311.88H490.607ZM488.24 322.018C486.868 322.018 485.856 321.04 485.856 319.599C485.856 318.158 486.868 317.18 488.24 317.18C489.595 317.18 490.607 318.158 490.607 319.599C490.607 321.04 489.595 322.018 488.24 322.018Z" fill="#4C5363"/>
<path d="M418.773 336.639V334.512C416.045 334.34 414.742 335.729 414.742 338.097V338.182H413.507V340.31H414.742V346.759H416.955V340.31H418.773V338.182H416.955V338.097C416.955 336.93 417.624 336.553 418.773 336.639Z" fill="#4C5363"/>
<path d="M422 339.658V338.182H419.787V346.759H422V342.66C422 340.858 423.458 340.344 424.607 340.481V338.011C423.527 338.011 422.446 338.491 422 339.658Z" fill="#4C5363"/>
<path d="M429.666 347C432.187 347 434.212 345.027 434.212 342.471C434.212 339.915 432.187 337.942 429.666 337.942C427.144 337.942 425.137 339.915 425.137 342.471C425.137 345.027 427.144 347 429.666 347ZM429.666 344.838C428.362 344.838 427.35 343.86 427.35 342.471C427.35 341.082 428.362 340.104 429.666 340.104C430.987 340.104 431.999 341.082 431.999 342.471C431.999 343.86 430.987 344.838 429.666 344.838Z" fill="#4C5363"/>
<path d="M445.254 337.942C444.088 337.942 443.23 338.405 442.699 339.177C442.218 338.388 441.429 337.942 440.366 337.942C439.268 337.942 438.461 338.371 437.981 339.092V338.182H435.768V346.759H437.981V341.939C437.981 340.653 438.65 340.001 439.594 340.001C440.52 340.001 441.035 340.618 441.035 341.63V346.759H443.247V341.939C443.247 340.653 443.865 340.001 444.843 340.001C445.769 340.001 446.284 340.618 446.284 341.63V346.759H448.497V341.476C448.497 339.332 447.21 337.942 445.254 337.942Z" fill="#4C5363"/>
<path d="M456.706 340.618C456.706 340.155 457.152 339.915 457.701 339.915C458.335 339.915 458.816 340.241 459.073 340.79L460.96 339.761C460.291 338.577 459.09 337.942 457.701 337.942C455.934 337.942 454.441 338.92 454.441 340.67C454.441 343.689 458.867 343.003 458.867 344.255C458.867 344.752 458.387 344.993 457.684 344.993C456.826 344.993 456.243 344.581 456.002 343.878L454.081 344.958C454.699 346.279 455.968 347 457.684 347C459.519 347 461.131 346.108 461.131 344.255C461.131 341.099 456.706 341.888 456.706 340.618Z" fill="#4C5363"/>
<path d="M467.209 340.31V338.182H465.271V335.781L463.058 336.45V338.182H461.566V340.31H463.058V343.878C463.058 346.193 464.104 347.103 467.209 346.759V344.752C465.94 344.821 465.271 344.804 465.271 343.878V340.31H467.209Z" fill="#4C5363"/>
<path d="M472.584 347C475.106 347 477.13 345.027 477.13 342.471C477.13 339.915 475.106 337.942 472.584 337.942C470.062 337.942 468.055 339.915 468.055 342.471C468.055 345.027 470.062 347 472.584 347ZM472.584 344.838C471.28 344.838 470.268 343.86 470.268 342.471C470.268 341.082 471.28 340.104 472.584 340.104C473.905 340.104 474.917 341.082 474.917 342.471C474.917 343.86 473.905 344.838 472.584 344.838Z" fill="#4C5363"/>
<path d="M480.899 339.658V338.182H478.687V346.759H480.899V342.66C480.899 340.858 482.358 340.344 483.507 340.481V338.011C482.426 338.011 481.345 338.491 480.899 339.658Z" fill="#4C5363"/>
<path d="M486.352 343.38H492.82C492.871 343.089 492.905 342.797 492.905 342.471C492.905 339.949 491.104 337.942 488.565 337.942C485.872 337.942 484.037 339.915 484.037 342.471C484.037 345.027 485.855 347 488.737 347C490.384 347 491.67 346.331 492.476 345.164L490.692 344.135C490.315 344.632 489.629 344.993 488.771 344.993C487.605 344.993 486.661 344.512 486.352 343.38ZM486.318 341.665C486.575 340.567 487.382 339.932 488.565 339.932C489.492 339.932 490.418 340.43 490.692 341.665H486.318Z" fill="#4C5363"/>
<path d="M576.474 122.616H578.704L575.047 112.209H572.505L568.862 122.616H571.077L571.702 120.742H575.85L576.474 122.616ZM572.356 118.825L573.783 114.573L575.21 118.825H572.356Z" fill="#4C5363"/>
<path d="M583.952 114.974C582.866 114.974 582.078 115.376 581.543 116.059V115.182H579.625V125.589H581.543V121.739C582.078 122.422 582.866 122.824 583.952 122.824C585.944 122.824 587.579 121.114 587.579 118.899C587.579 116.684 585.944 114.974 583.952 114.974ZM583.595 120.995C582.42 120.995 581.543 120.148 581.543 118.899C581.543 117.65 582.42 116.803 583.595 116.803C584.784 116.803 585.661 117.65 585.661 118.899C585.661 120.148 584.784 120.995 583.595 120.995Z" fill="#4C5363"/>
<path d="M593.258 114.974C592.173 114.974 591.385 115.376 590.849 116.059V115.182H588.932V125.589H590.849V121.739C591.385 122.422 592.173 122.824 593.258 122.824C595.25 122.824 596.885 121.114 596.885 118.899C596.885 116.684 595.25 114.974 593.258 114.974ZM592.901 120.995C591.727 120.995 590.849 120.148 590.849 118.899C590.849 117.65 591.727 116.803 592.901 116.803C594.09 116.803 594.967 117.65 594.967 118.899C594.967 120.148 594.09 120.995 592.901 120.995Z" fill="#4C5363"/>
<path d="M560.775 141.121C562.693 141.121 564.373 140.155 565.25 138.668L563.481 137.642C562.99 138.549 561.964 139.114 560.775 139.114C558.738 139.114 557.4 137.702 557.4 135.71C557.4 133.703 558.738 132.29 560.775 132.29C561.964 132.29 562.975 132.855 563.481 133.777L565.25 132.751C564.358 131.265 562.678 130.298 560.775 130.298C557.623 130.298 555.364 132.662 555.364 135.71C555.364 138.743 557.623 141.121 560.775 141.121Z" fill="#4C5363"/>
<path d="M570.003 141.121C572.188 141.121 573.942 139.412 573.942 137.196C573.942 134.981 572.188 133.272 570.003 133.272C567.817 133.272 566.078 134.981 566.078 137.196C566.078 139.412 567.817 141.121 570.003 141.121ZM570.003 139.248C568.873 139.248 567.996 138.401 567.996 137.196C567.996 135.992 568.873 135.145 570.003 135.145C571.148 135.145 572.025 135.992 572.025 137.196C572.025 138.401 571.148 139.248 570.003 139.248Z" fill="#4C5363"/>
<path d="M579.425 133.272C578.429 133.272 577.655 133.643 577.209 134.312V133.48H575.292V140.913H577.209V136.899C577.209 135.606 577.908 135.056 578.845 135.056C579.707 135.056 580.317 135.576 580.317 136.587V140.913H582.234V136.349C582.234 134.372 581 133.272 579.425 133.272Z" fill="#4C5363"/>
<path d="M588.124 135.323V133.48H586.444V131.398L584.526 131.978V133.48H583.233V135.323H584.526V138.416C584.526 140.423 585.433 141.211 588.124 140.913V139.174C587.024 139.233 586.444 139.218 586.444 138.416V135.323H588.124Z" fill="#4C5363"/>
<path d="M590.864 137.984H596.469C596.514 137.732 596.543 137.479 596.543 137.196C596.543 135.011 594.982 133.272 592.782 133.272C590.448 133.272 588.857 134.981 588.857 137.196C588.857 139.412 590.433 141.121 592.931 141.121C594.358 141.121 595.473 140.542 596.172 139.531L594.625 138.639C594.298 139.07 593.704 139.382 592.96 139.382C591.949 139.382 591.132 138.966 590.864 137.984ZM590.834 136.498C591.057 135.546 591.756 134.996 592.782 134.996C593.585 134.996 594.388 135.427 594.625 136.498H590.834Z" fill="#4C5363"/>
<path d="M602.015 133.272C601.019 133.272 600.246 133.643 599.8 134.312V133.48H597.882V140.913H599.8V136.899C599.8 135.606 600.499 135.056 601.435 135.056C602.298 135.056 602.907 135.576 602.907 136.587V140.913H604.825V136.349C604.825 134.372 603.591 133.272 602.015 133.272Z" fill="#4C5363"/>
<path d="M610.714 135.323V133.48H609.034V131.398L607.117 131.978V133.48H605.823V135.323H607.117V138.416C607.117 140.423 608.023 141.211 610.714 140.913V139.174C609.614 139.233 609.034 139.218 609.034 138.416V135.323H610.714Z" fill="#4C5363"/>
<path d="M299.163 114.608H301.736L297.516 102.601H294.583L290.38 114.608H292.936L293.656 112.447H298.442L299.163 114.608ZM294.411 110.234L296.058 105.328L297.705 110.234H294.411Z" fill="#4C5363"/>
<path d="M307.791 105.791C306.539 105.791 305.629 106.254 305.012 107.043V106.031H302.799V118.039H305.012V113.596C305.629 114.385 306.539 114.848 307.791 114.848C310.089 114.848 311.976 112.876 311.976 110.32C311.976 107.764 310.089 105.791 307.791 105.791ZM307.379 112.739C306.024 112.739 305.012 111.761 305.012 110.32C305.012 108.879 306.024 107.901 307.379 107.901C308.751 107.901 309.763 108.879 309.763 110.32C309.763 111.761 308.751 112.739 307.379 112.739Z" fill="#4C5363"/>
<path d="M318.529 105.791C317.276 105.791 316.367 106.254 315.75 107.043V106.031H313.537V118.039H315.75V113.596C316.367 114.385 317.276 114.848 318.529 114.848C320.827 114.848 322.714 112.876 322.714 110.32C322.714 107.764 320.827 105.791 318.529 105.791ZM318.117 112.739C316.762 112.739 315.75 111.761 315.75 110.32C315.75 108.879 316.762 107.901 318.117 107.901C319.489 107.901 320.501 108.879 320.501 110.32C320.501 111.761 319.489 112.739 318.117 112.739Z" fill="#4C5363"/>
<path d="M328.666 102.601V114.608H331.033V102.601H328.666Z" fill="#4C5363"/>
<path d="M337.922 105.791C336.773 105.791 335.881 106.22 335.366 106.992V106.031H333.153V114.608H335.366V109.977C335.366 108.484 336.172 107.85 337.253 107.85C338.248 107.85 338.951 108.45 338.951 109.616V114.608H341.164V109.342C341.164 107.061 339.74 105.791 337.922 105.791Z" fill="#4C5363"/>
<path d="M345.095 108.467C345.095 108.004 345.541 107.764 346.09 107.764C346.725 107.764 347.205 108.09 347.462 108.639L349.349 107.609C348.68 106.426 347.479 105.791 346.09 105.791C344.323 105.791 342.831 106.769 342.831 108.519C342.831 111.538 347.256 110.852 347.256 112.104C347.256 112.601 346.776 112.841 346.073 112.841C345.215 112.841 344.632 112.43 344.392 111.726L342.47 112.807C343.088 114.128 344.357 114.848 346.073 114.848C347.908 114.848 349.521 113.956 349.521 112.104C349.521 108.947 345.095 109.737 345.095 108.467Z" fill="#4C5363"/>
<path d="M355.599 108.158V106.031H353.66V103.63L351.447 104.299V106.031H349.955V108.158H351.447V111.726C351.447 114.042 352.494 114.951 355.599 114.608V112.601C354.329 112.67 353.66 112.653 353.66 111.726V108.158H355.599Z" fill="#4C5363"/>
<path d="M363.409 106.031V107.043C362.792 106.271 361.865 105.791 360.613 105.791C358.332 105.791 356.445 107.764 356.445 110.32C356.445 112.876 358.332 114.848 360.613 114.848C361.865 114.848 362.792 114.368 363.409 113.596V114.608H365.622V106.031H363.409ZM361.025 112.739C359.67 112.739 358.658 111.761 358.658 110.32C358.658 108.879 359.67 107.901 361.025 107.901C362.397 107.901 363.409 108.879 363.409 110.32C363.409 111.761 362.397 112.739 361.025 112.739Z" fill="#4C5363"/>
<path d="M367.629 114.608H369.841V102.086H367.629V114.608Z" fill="#4C5363"/>
<path d="M371.867 114.608H374.08V102.086H371.867V114.608Z" fill="#4C5363"/>
<path d="M377.975 111.229H384.442C384.493 110.937 384.528 110.646 384.528 110.32C384.528 107.798 382.726 105.791 380.188 105.791C377.495 105.791 375.659 107.764 375.659 110.32C375.659 112.876 377.477 114.848 380.359 114.848C382.006 114.848 383.293 114.179 384.099 113.013L382.315 111.984C381.937 112.481 381.251 112.841 380.394 112.841C379.227 112.841 378.284 112.361 377.975 111.229ZM377.941 109.514C378.198 108.416 379.004 107.781 380.188 107.781C381.114 107.781 382.04 108.278 382.315 109.514H377.941Z" fill="#4C5363"/>
<path d="M392.507 102.601V107.043C391.889 106.254 390.98 105.791 389.728 105.791C387.429 105.791 385.542 107.764 385.542 110.32C385.542 112.876 387.429 114.848 389.728 114.848C390.98 114.848 391.889 114.385 392.507 113.596V114.608H394.72V102.601H392.507ZM390.139 112.739C388.767 112.739 387.755 111.761 387.755 110.32C387.755 108.879 388.767 107.901 390.139 107.901C391.495 107.901 392.507 108.879 392.507 110.32C392.507 111.761 391.495 112.739 390.139 112.739Z" fill="#4C5363"/>
<path d="M270.888 97.4551C264.574 97.4551 259.452 102.577 259.452 108.891C259.452 115.205 264.574 120.327 270.888 120.327C277.202 120.327 282.324 115.205 282.324 108.891C282.324 102.577 277.202 97.4551 270.888 97.4551ZM277.973 106.131L269.272 114.808H268.576L263.28 109.487V108.791L265.368 106.703H266.064L268.923 109.562L275.164 103.321H275.86L277.948 105.409C277.973 105.684 277.973 105.858 277.973 106.131L277.973 106.131Z" fill="#00D0B2"/>
<path d="M203.329 307.005H205.902L201.682 294.997H198.749L194.546 307.005H197.102L197.822 304.843H202.608L203.329 307.005ZM198.577 302.631L200.224 297.725L201.871 302.631H198.577Z" fill="#4C5363"/>
<path d="M211.957 298.188C210.704 298.188 209.795 298.651 209.178 299.44V298.428H206.965V310.436H209.178V305.993C209.795 306.782 210.704 307.245 211.957 307.245C214.255 307.245 216.142 305.272 216.142 302.716C216.142 300.16 214.255 298.188 211.957 298.188ZM211.545 305.135C210.19 305.135 209.178 304.157 209.178 302.716C209.178 301.275 210.19 300.298 211.545 300.298C212.917 300.298 213.929 301.275 213.929 302.716C213.929 304.157 212.917 305.135 211.545 305.135Z" fill="#4C5363"/>
<path d="M222.694 298.188C221.442 298.188 220.533 298.651 219.916 299.44V298.428H217.703V310.436H219.916V305.993C220.533 306.782 221.442 307.245 222.694 307.245C224.993 307.245 226.88 305.272 226.88 302.716C226.88 300.16 224.993 298.188 222.694 298.188ZM222.283 305.135C220.928 305.135 219.916 304.157 219.916 302.716C219.916 301.275 220.928 300.298 222.283 300.298C223.655 300.298 224.667 301.275 224.667 302.716C224.667 304.157 223.655 305.135 222.283 305.135Z" fill="#4C5363"/>
<path d="M239.779 294.997V302.322L234.633 294.997H232.832V307.005H235.199V299.663L240.345 307.005H242.147V294.997H239.779Z" fill="#4C5363"/>
<path d="M248.354 307.245C250.875 307.245 252.9 305.272 252.9 302.716C252.9 300.16 250.875 298.188 248.354 298.188C245.832 298.188 243.825 300.16 243.825 302.716C243.825 305.272 245.832 307.245 248.354 307.245ZM248.354 305.084C247.05 305.084 246.038 304.106 246.038 302.716C246.038 301.327 247.05 300.349 248.354 300.349C249.675 300.349 250.687 301.327 250.687 302.716C250.687 304.106 249.675 305.084 248.354 305.084Z" fill="#4C5363"/>
<path d="M259.178 300.555V298.428H257.24V296.026L255.027 296.695V298.428H253.534V300.555H255.027V304.123C255.027 306.439 256.073 307.348 259.178 307.005V304.998C257.909 305.066 257.24 305.049 257.24 304.123V300.555H259.178Z" fill="#4C5363"/>
<path d="M265.264 294.997V307.005H267.631V294.997H265.264Z" fill="#4C5363"/>
<path d="M274.519 298.188C273.37 298.188 272.478 298.617 271.964 299.388V298.428H269.751V307.005H271.964V302.373C271.964 300.881 272.77 300.246 273.85 300.246C274.845 300.246 275.549 300.847 275.549 302.013V307.005H277.762V301.739C277.762 299.457 276.338 298.188 274.519 298.188Z" fill="#4C5363"/>
<path d="M281.692 300.864C281.692 300.401 282.138 300.16 282.687 300.16C283.322 300.16 283.802 300.486 284.06 301.035L285.946 300.006C285.277 298.822 284.077 298.188 282.687 298.188C280.92 298.188 279.428 299.165 279.428 300.915C279.428 303.934 283.854 303.248 283.854 304.5C283.854 304.998 283.373 305.238 282.67 305.238C281.812 305.238 281.229 304.826 280.989 304.123L279.068 305.204C279.685 306.524 280.955 307.245 282.67 307.245C284.506 307.245 286.118 306.353 286.118 304.5C286.118 301.344 281.692 302.133 281.692 300.864Z" fill="#4C5363"/>
<path d="M292.196 300.555V298.428H290.257V296.026L288.045 296.695V298.428H286.552V300.555H288.045V304.123C288.045 306.439 289.091 307.348 292.196 307.005V304.998C290.926 305.066 290.257 305.049 290.257 304.123V300.555H292.196Z" fill="#4C5363"/>
<path d="M300.007 298.428V299.44C299.389 298.668 298.463 298.188 297.21 298.188C294.929 298.188 293.042 300.16 293.042 302.716C293.042 305.272 294.929 307.245 297.21 307.245C298.463 307.245 299.389 306.765 300.007 305.993V307.005H302.219V298.428H300.007ZM297.622 305.135C296.267 305.135 295.255 304.157 295.255 302.716C295.255 301.275 296.267 300.298 297.622 300.298C298.994 300.298 300.007 301.275 300.007 302.716C300.007 304.157 298.994 305.135 297.622 305.135Z" fill="#4C5363"/>
<path d="M304.226 307.005H306.439V294.482H304.226V307.005Z" fill="#4C5363"/>
<path d="M308.464 307.005H310.677V294.482H308.464V307.005Z" fill="#4C5363"/>
<path d="M314.572 303.625H321.039C321.091 303.334 321.125 303.042 321.125 302.716C321.125 300.195 319.324 298.188 316.785 298.188C314.092 298.188 312.256 300.16 312.256 302.716C312.256 305.272 314.075 307.245 316.957 307.245C318.603 307.245 319.89 306.576 320.696 305.409L318.912 304.38C318.535 304.878 317.849 305.238 316.991 305.238C315.824 305.238 314.881 304.758 314.572 303.625ZM314.538 301.91C314.795 300.812 315.601 300.178 316.785 300.178C317.711 300.178 318.638 300.675 318.912 301.91H314.538Z" fill="#4C5363"/>
<path d="M329.104 294.997V299.44C328.487 298.651 327.577 298.188 326.325 298.188C324.027 298.188 322.14 300.16 322.14 302.716C322.14 305.272 324.027 307.245 326.325 307.245C327.577 307.245 328.487 306.782 329.104 305.993V307.005H331.317V294.997H329.104ZM326.737 305.135C325.365 305.135 324.352 304.157 324.352 302.716C324.352 301.275 325.365 300.298 326.737 300.298C328.092 300.298 329.104 301.275 329.104 302.716C329.104 304.157 328.092 305.135 326.737 305.135Z" fill="#4C5363"/>
<path fill-rule="evenodd" clip-rule="evenodd" d="M175.054 289.85C168.739 289.85 163.618 294.971 163.618 301.286C163.618 307.6 168.739 312.721 175.054 312.721C181.368 312.721 186.49 307.6 186.49 301.286C186.49 294.971 181.368 289.85 175.054 289.85ZM178.177 295.856L175.179 298.845L172.194 295.91L171.765 295.91L169.42 297.89V298.586L172.421 301.595L169.476 304.532V304.534C169.476 304.806 169.476 304.98 169.501 305.254L171.589 307.342H172.285L175.198 304.38L178.097 307.288H178.099C178.371 307.288 178.545 307.288 178.819 307.262L180.907 305.174V304.478L177.955 301.576L180.853 298.629L180.853 298.2L178.873 295.856H178.177Z" fill="#E64068"/>
</g>
<defs>
<filter id="filter0_d_1116_1659" x="-29" y="104.615" width="144.843" height="223.201" filterUnits="userSpaceOnUse" color-interpolation-filters="sRGB">
<feFlood flood-opacity="0" result="BackgroundImageFix"/>
<feColorMatrix in="SourceAlpha" type="matrix" values="0 0 0 0 0 0 0 0 0 0 0 0 0 0 0 0 0 0 127 0" result="hardAlpha"/>
<feOffset dy="12"/>
<feGaussianBlur stdDeviation="15"/>
<feColorMatrix type="matrix" values="0 0 0 0 0 0 0 0 0 0 0 0 0 0 0 0 0 0 0.1 0"/>
<feBlend mode="normal" in2="BackgroundImageFix" result="effect1_dropShadow_1116_1659"/>
<feBlend mode="normal" in="SourceGraphic" in2="effect1_dropShadow_1116_1659" result="shape"/>
</filter>
<filter id="filter1_d_1116_1659" x="510.776" y="36" width="144.848" height="212.648" filterUnits="userSpaceOnUse" color-interpolation-filters="sRGB">
<feFlood flood-opacity="0" result="BackgroundImageFix"/>
<feColorMatrix in="SourceAlpha" type="matrix" values="0 0 0 0 0 0 0 0 0 0 0 0 0 0 0 0 0 0 127 0" result="hardAlpha"/>
<feOffset dy="12"/>
<feGaussianBlur stdDeviation="15"/>
<feColorMatrix type="matrix" values="0 0 0 0 0 0 0 0 0 0 0 0 0 0 0 0 0 0 0.1 0"/>
<feBlend mode="normal" in2="BackgroundImageFix" result="effect1_dropShadow_1116_1659"/>
<feBlend mode="normal" in="SourceGraphic" in2="effect1_dropShadow_1116_1659" result="shape"/>
</filter>
<filter id="filter2_d_1116_1659" x="399.263" y="250.131" width="65.726" height="65.7207" filterUnits="userSpaceOnUse" color-interpolation-filters="sRGB">
<feFlood flood-opacity="0" result="BackgroundImageFix"/>
<feColorMatrix in="SourceAlpha" type="matrix" values="0 0 0 0 0 0 0 0 0 0 0 0 0 0 0 0 0 0 127 0" result="hardAlpha"/>
<feOffset dy="6"/>
<feGaussianBlur stdDeviation="5"/>
<feColorMatrix type="matrix" values="0 0 0 0 0 0 0 0 0 0 0 0 0 0 0 0 0 0 0.15 0"/>
<feBlend mode="normal" in2="BackgroundImageFix" result="effect1_dropShadow_1116_1659"/>
<feBlend mode="normal" in="SourceGraphic" in2="effect1_dropShadow_1116_1659" result="shape"/>
</filter>
<filter id="filter3_d_1116_1659" x="456.441" y="251.258" width="59.6102" height="64.5098" filterUnits="userSpaceOnUse" color-interpolation-filters="sRGB">
<feFlood flood-opacity="0" result="BackgroundImageFix"/>
<feColorMatrix in="SourceAlpha" type="matrix" values="0 0 0 0 0 0 0 0 0 0 0 0 0 0 0 0 0 0 127 0" result="hardAlpha"/>
<feOffset dy="6"/>
<feGaussianBlur stdDeviation="5"/>
<feColorMatrix type="matrix" values="0 0 0 0 0 0 0 0 0 0 0 0 0 0 0 0 0 0 0.15 0"/>
<feBlend mode="normal" in2="BackgroundImageFix" result="effect1_dropShadow_1116_1659"/>
<feBlend mode="normal" in="SourceGraphic" in2="effect1_dropShadow_1116_1659" result="shape"/>
</filter>
<linearGradient id="paint0_linear_1116_1659" x1="432.123" y1="254.131" x2="432.123" y2="299.852" gradientUnits="userSpaceOnUse">
<stop stop-color="#0ED4FC"/>
<stop offset="1" stop-color="#0C57EF"/>
</linearGradient>
<linearGradient id="paint1_linear_1116_1659" x1="486.728" y1="257.971" x2="457.688" y2="286.756" gradientUnits="userSpaceOnUse">
<stop stop-color="#00A0FF"/>
<stop offset="0.00657445" stop-color="#00A1FF"/>
<stop offset="0.2601" stop-color="#00BEFF"/>
<stop offset="0.5122" stop-color="#00D2FF"/>
<stop offset="0.7604" stop-color="#00DFFF"/>
<stop offset="1" stop-color="#00E3FF"/>
</linearGradient>
<linearGradient id="paint2_linear_1116_1659" x1="507.365" y1="277.511" x2="465.861" y2="277.511" gradientUnits="userSpaceOnUse">
<stop stop-color="#FFE000"/>
<stop offset="0.4087" stop-color="#FFBD00"/>
<stop offset="0.7754" stop-color="#FFA500"/>
<stop offset="1" stop-color="#FF9C00"/>
</linearGradient>
<linearGradient id="paint3_linear_1116_1659" x1="491.92" y1="281.483" x2="452.54" y2="320.517" gradientUnits="userSpaceOnUse">
<stop stop-color="#FF3A44"/>
<stop offset="1" stop-color="#C31162"/>
</linearGradient>
<linearGradient id="paint4_linear_1116_1659" x1="461.853" y1="243.206" x2="479.437" y2="260.637" gradientUnits="userSpaceOnUse">
<stop stop-color="#32A071"/>
<stop offset="0.0685" stop-color="#2DA771"/>
<stop offset="0.4762" stop-color="#15CF74"/>
<stop offset="0.8009" stop-color="#06E775"/>
<stop offset="1" stop-color="#00F076"/>
</linearGradient>
<clipPath id="clip0_1116_1659">
<rect width="627" height="400" fill="white"/>
</clipPath>
</defs>
</svg>
