<svg width="65" height="65" viewBox="0 0 65 65" fill="none" xmlns="http://www.w3.org/2000/svg">
<g clip-path="url(#clip0_1102_127)">
<rect width="65" height="65" fill="white"/>
<path d="M63.459 15.8287C63.3773 15.8292 63.2964 15.8134 63.2209 15.7824C63.1453 15.7513 63.0767 15.7056 63.0191 15.6477L55.4347 8.0634C55.3769 8.00563 55.3309 7.93703 55.2996 7.86152C55.2682 7.786 55.252 7.70504 55.252 7.62327C55.2519 7.5415 55.2679 7.46051 55.2991 7.38493C55.3304 7.30936 55.3761 7.24067 55.4339 7.18279C55.4917 7.12492 55.5603 7.07899 55.6358 7.04762C55.7113 7.01626 55.7923 7.00008 55.8741 7C55.9558 6.99992 56.0368 7.01595 56.1124 7.04717C56.188 7.0784 56.2567 7.1242 56.3145 7.18197L63.8989 14.7646C64.0152 14.8821 64.0805 15.0408 64.0805 15.2062C64.0805 15.3716 64.0152 15.5302 63.8989 15.6477C63.8411 15.7054 63.7725 15.7511 63.697 15.7821C63.6215 15.8132 63.5406 15.829 63.459 15.8287Z" fill="#0F3384"/>
<path d="M55.8745 15.8287C55.7928 15.829 55.712 15.8132 55.6365 15.7821C55.561 15.7511 55.4924 15.7054 55.4346 15.6477C55.3182 15.5302 55.2529 15.3716 55.2529 15.2062C55.2529 15.0408 55.3182 14.8821 55.4346 14.7646L63.0189 7.18197C63.0768 7.1242 63.1455 7.0784 63.2211 7.04717C63.2966 7.01595 63.3776 6.99992 63.4594 7C63.5412 7.00008 63.6221 7.01626 63.6976 7.04762C63.7731 7.07899 63.8418 7.12492 63.8995 7.18279C63.9573 7.24067 64.0031 7.30936 64.0343 7.38493C64.0655 7.46051 64.0816 7.5415 64.0815 7.62327C64.0814 7.70504 64.0652 7.786 64.0339 7.86152C64.0025 7.93703 63.9566 8.00563 63.8987 8.0634L56.3144 15.6477C56.2567 15.7056 56.1881 15.7513 56.1126 15.7824C56.0371 15.8134 55.9561 15.8292 55.8745 15.8287V15.8287Z" fill="#0F3384"/>
<path d="M48.4066 58.2753H48.0978C47.9327 58.2753 47.7744 58.2097 47.6577 58.0929C47.5409 57.9762 47.4753 57.8179 47.4753 57.6528C47.4753 57.4877 47.5409 57.3294 47.6577 57.2126C47.7744 57.0959 47.9327 57.0303 48.0978 57.0303H48.4066C48.5717 57.0303 48.73 57.0959 48.8467 57.2126C48.9635 57.3294 49.0291 57.4877 49.0291 57.6528C49.0291 57.8179 48.9635 57.9762 48.8467 58.0929C48.73 58.2097 48.5717 58.2753 48.4066 58.2753ZM44.8476 58.2753H44.5405C44.3754 58.2753 44.2171 58.2097 44.1004 58.0929C43.9836 57.9762 43.9181 57.8179 43.9181 57.6528C43.9181 57.4877 43.9836 57.3294 44.1004 57.2126C44.2171 57.0959 44.3754 57.0303 44.5405 57.0303H44.8476C45.0127 57.0303 45.1711 57.0959 45.2878 57.2126C45.4045 57.3294 45.4701 57.4877 45.4701 57.6528C45.4701 57.8179 45.4045 57.9762 45.2878 58.0929C45.1711 58.2097 45.0127 58.2753 44.8476 58.2753ZM51.6534 58.2487C51.4922 58.249 51.3371 58.1867 51.2209 58.0749C51.1047 57.9631 51.0364 57.8106 51.0303 57.6495C51.0243 57.4883 51.0811 57.3311 51.1886 57.211C51.2962 57.0909 51.4461 57.0172 51.607 57.0054L51.8925 56.9772C52.0554 56.9641 52.2172 57.0137 52.3449 57.1158C52.4726 57.2179 52.5566 57.3648 52.5797 57.5266C52.5889 57.6079 52.582 57.6903 52.5594 57.7689C52.5368 57.8476 52.4989 57.921 52.4478 57.985C52.3968 58.049 52.3337 58.1023 52.262 58.1418C52.1903 58.1814 52.1116 58.2064 52.0303 58.2155L51.6983 58.247L51.6534 58.2487ZM41.3219 57.9167C41.2618 57.9173 41.2019 57.9089 41.1443 57.8918L40.8388 57.7988C40.7585 57.7754 40.6836 57.736 40.6188 57.6829C40.554 57.6299 40.5006 57.5643 40.4618 57.4902C40.4229 57.416 40.3994 57.3347 40.3927 57.2513C40.3859 57.1678 40.3961 57.0839 40.4226 57.0044C40.4491 56.925 40.4913 56.8517 40.5468 56.789C40.6022 56.7262 40.6698 56.6753 40.7454 56.6393C40.821 56.6033 40.903 56.5829 40.9867 56.5793C41.0704 56.5758 41.1539 56.5891 41.2323 56.6186L41.5061 56.7049C41.6489 56.748 41.7715 56.841 41.8515 56.9668C41.9316 57.0927 41.9638 57.2431 41.9422 57.3907C41.9207 57.5382 41.8469 57.6732 41.7343 57.771C41.6217 57.8687 41.4777 57.9228 41.3285 57.9233L41.3219 57.9167ZM55.0481 57.2527C54.9122 57.2495 54.7812 57.2019 54.6749 57.1173C54.5687 57.0326 54.493 56.9155 54.4595 56.7838C54.4261 56.6521 54.4366 56.5131 54.4895 56.388C54.5424 56.2629 54.6348 56.1585 54.7526 56.0908L55.0082 55.948C55.0793 55.9076 55.1576 55.8815 55.2387 55.8714C55.3199 55.8612 55.4022 55.8671 55.4811 55.8888C55.5599 55.9104 55.6337 55.9474 55.6983 55.9976C55.7628 56.0478 55.8168 56.1102 55.8573 56.1812C55.8977 56.2523 55.9238 56.3306 55.9339 56.4118C55.9441 56.4929 55.9382 56.5752 55.9165 56.6541C55.8949 56.7329 55.8579 56.8067 55.8077 56.8713C55.7575 56.9358 55.6951 56.9899 55.6241 57.0303L55.3419 57.1863C55.2519 57.2344 55.1517 57.26 55.0497 57.261L55.0481 57.2527ZM37.7978 56.0908L37.5604 55.8833C37.499 55.8289 37.4488 55.763 37.4129 55.6892C37.3771 55.6154 37.3561 55.5352 37.3513 55.4533C37.3465 55.3714 37.3579 55.2894 37.385 55.2119C37.412 55.1344 37.4541 55.0631 37.5088 55.0019C37.5635 54.9407 37.6297 54.891 37.7037 54.8555C37.7777 54.8201 37.858 54.7996 37.9399 54.7953C38.0218 54.791 38.1038 54.8029 38.1811 54.8303C38.2585 54.8578 38.3296 54.9003 38.3904 54.9553L38.5348 55.0798L38.2028 55.621L37.7978 56.0908ZM57.7704 55.0051C57.6527 55.0053 57.5374 54.9722 57.4379 54.9095C57.3383 54.8468 57.2585 54.7572 57.2078 54.6511C57.1571 54.5449 57.1374 54.4266 57.1512 54.3097C57.165 54.1929 57.2116 54.0823 57.2857 53.9909L57.4517 53.7668C57.5538 53.645 57.6988 53.5669 57.8567 53.5485C58.0146 53.5301 58.1736 53.5729 58.301 53.668C58.4284 53.7632 58.5146 53.9035 58.5419 54.0601C58.5691 54.2168 58.5354 54.3779 58.4476 54.5105L58.2435 54.7728C58.1866 54.8439 58.1147 54.9016 58.0329 54.9418C57.9511 54.982 57.8615 55.0036 57.7704 55.0051ZM36.0167 53.4896C35.9027 53.4907 35.7905 53.4603 35.6927 53.4017C35.5949 53.3431 35.5151 53.2586 35.4622 53.1576L35.3162 52.8588C35.2473 52.7087 35.2408 52.5374 35.2983 52.3825C35.3557 52.2276 35.4723 52.1019 35.6224 52.033C35.7726 51.9641 35.9439 51.9577 36.0988 52.0151C36.2537 52.0725 36.3794 52.1891 36.4483 52.3393L36.5711 52.5949C36.6445 52.7413 36.6569 52.9109 36.6056 53.0665C36.5543 53.222 36.4434 53.3509 36.2972 53.4249C36.209 53.4702 36.1108 53.4925 36.0117 53.4896H36.0167ZM59.3706 51.8545C59.275 51.8546 59.1806 51.8325 59.0949 51.7902C59.0091 51.7479 58.9343 51.6863 58.8762 51.6104C58.8181 51.5345 58.7782 51.4462 58.7598 51.3523C58.7413 51.2585 58.7447 51.1617 58.7697 51.0694L58.8394 50.7922C58.8579 50.7125 58.892 50.6373 58.9396 50.5707C58.9872 50.5042 59.0474 50.4477 59.1169 50.4045C59.1863 50.3613 59.2636 50.3321 59.3443 50.3188C59.425 50.3054 59.5075 50.308 59.5872 50.3266C59.6669 50.3451 59.7421 50.3791 59.8086 50.4267C59.8752 50.4744 59.9316 50.5346 59.9749 50.604C60.0181 50.6735 60.0473 50.7508 60.0606 50.8315C60.074 50.9122 60.0713 50.9947 60.0528 51.0744L59.9715 51.3947C59.9355 51.5276 59.8566 51.6448 59.7469 51.7279C59.6373 51.8111 59.5032 51.8557 59.3656 51.8545H59.3706ZM35.102 50.0784C34.9427 50.0786 34.7894 50.0175 34.6738 49.9079C34.5583 49.7982 34.4893 49.6482 34.4812 49.4891L34.4679 49.1571C34.466 49.0754 34.4801 48.994 34.5096 48.9177C34.539 48.8415 34.5832 48.7717 34.6396 48.7125C34.6961 48.6533 34.7636 48.6058 34.8384 48.5728C34.9132 48.5397 34.9937 48.5216 35.0755 48.5197H35.0904C35.253 48.5197 35.4091 48.5832 35.5254 48.6967C35.6417 48.8102 35.709 48.9648 35.7129 49.1272L35.7245 49.4144C35.729 49.4961 35.7174 49.5778 35.6903 49.6549C35.6631 49.7321 35.6211 49.8031 35.5665 49.864C35.512 49.9249 35.4459 49.9744 35.3722 50.0098C35.2985 50.0451 35.2185 50.0656 35.1369 50.0701L35.102 50.0784ZM59.6694 48.3238C59.5043 48.3238 59.3459 48.2582 59.2292 48.1415C59.1125 48.0248 59.0469 47.8664 59.0469 47.7013V47.3943C59.0469 47.2292 59.1125 47.0708 59.2292 46.9541C59.3459 46.8374 59.5043 46.7718 59.6694 46.7718C59.8345 46.7718 59.9928 46.8374 60.1095 46.9541C60.2263 47.0708 60.2919 47.2292 60.2919 47.3943V47.7013C60.2921 47.7834 60.276 47.8647 60.2446 47.9406C60.2132 48.0164 60.167 48.0853 60.1088 48.1432C60.0506 48.2011 59.9815 48.2468 59.9055 48.2779C59.8295 48.3089 59.7481 48.3245 59.666 48.3238H59.6694ZM35.0854 46.5195C34.9203 46.5195 34.762 46.4539 34.6453 46.3371C34.5285 46.2204 34.463 46.0621 34.463 45.897V45.5899C34.463 45.4248 34.5285 45.2665 34.6453 45.1497C34.762 45.033 34.9203 44.9674 35.0854 44.9674C35.2505 44.9674 35.4089 45.033 35.5256 45.1497C35.6423 45.2665 35.7079 45.4248 35.7079 45.5899V45.897C35.7079 45.979 35.6917 46.0602 35.6602 46.136C35.6287 46.2117 35.5826 46.2805 35.5244 46.3383C35.4663 46.3962 35.3973 46.4419 35.3214 46.473C35.2454 46.5041 35.1641 46.5199 35.0821 46.5195H35.0854ZM59.6694 44.7665C59.5043 44.7665 59.3459 44.701 59.2292 44.5842C59.1125 44.4675 59.0469 44.3092 59.0469 44.1441V43.8353C59.0469 43.6702 59.1125 43.5119 59.2292 43.3951C59.3459 43.2784 59.5043 43.2128 59.6694 43.2128C59.8345 43.2128 59.9928 43.2784 60.1095 43.3951C60.2263 43.5119 60.2919 43.6702 60.2919 43.8353V44.1474C60.2916 44.2292 60.2753 44.3102 60.2436 44.3856C60.212 44.4611 60.1658 44.5295 60.1077 44.5871C60.0495 44.6446 59.9806 44.6901 59.9048 44.7209C59.829 44.7517 59.7478 44.7672 59.666 44.7665H59.6694ZM35.0854 42.9622C34.9203 42.9622 34.762 42.8966 34.6453 42.7799C34.5285 42.6631 34.463 42.5048 34.463 42.3397V42.0309C34.463 41.8658 34.5285 41.7075 34.6453 41.5908C34.762 41.474 34.9203 41.4085 35.0854 41.4085C35.2505 41.4085 35.4089 41.474 35.5256 41.5908C35.6423 41.7075 35.7079 41.8658 35.7079 42.0309V42.3397C35.7079 42.4217 35.6917 42.5029 35.6602 42.5787C35.6287 42.6544 35.5826 42.7232 35.5244 42.781C35.4663 42.8389 35.3973 42.8847 35.3214 42.9157C35.2454 42.9468 35.1641 42.9626 35.0821 42.9622H35.0854ZM59.6694 41.2059C59.5043 41.2059 59.3459 41.1404 59.2292 41.0236C59.1125 40.9069 59.0469 40.7486 59.0469 40.5835V40.278C59.0469 40.1129 59.1125 39.9546 59.2292 39.8379C59.3459 39.7211 59.5043 39.6555 59.6694 39.6555C59.8345 39.6555 59.9928 39.7211 60.1095 39.8379C60.2263 39.9546 60.2919 40.1129 60.2919 40.278V40.5835C60.2921 40.6655 60.276 40.7469 60.2446 40.8227C60.2132 40.8985 60.167 40.9674 60.1088 41.0253C60.0506 41.0832 59.9815 41.129 59.9055 41.16C59.8295 41.191 59.7481 41.2066 59.666 41.2059H59.6694ZM35.0854 39.4032C34.9203 39.4032 34.762 39.3377 34.6453 39.2209C34.5285 39.1042 34.463 38.9458 34.463 38.7808V38.4737C34.463 38.3086 34.5285 38.1502 34.6453 38.0335C34.762 37.9168 34.9203 37.8512 35.0854 37.8512C35.2505 37.8512 35.4089 37.9168 35.5256 38.0335C35.6423 38.1502 35.7079 38.3086 35.7079 38.4737V38.7808C35.7079 38.8628 35.6917 38.944 35.6602 39.0197C35.6287 39.0955 35.5826 39.1642 35.5244 39.2221C35.4663 39.2799 35.3973 39.3257 35.3214 39.3568C35.2454 39.3879 35.1641 39.4037 35.0821 39.4032H35.0854ZM59.6694 37.6487C59.5043 37.6487 59.3459 37.5831 59.2292 37.4663C59.1125 37.3496 59.0469 37.1913 59.0469 37.0262V36.7191C59.0469 36.554 59.1125 36.3957 59.2292 36.2789C59.3459 36.1622 59.5043 36.0966 59.6694 36.0966C59.8345 36.0966 59.9928 36.1622 60.1095 36.2789C60.2263 36.3957 60.2919 36.554 60.2919 36.7191V37.0262C60.2921 37.1083 60.276 37.1896 60.2446 37.2654C60.2132 37.3413 60.167 37.4101 60.1088 37.468C60.0506 37.5259 59.9815 37.5717 59.9055 37.6027C59.8295 37.6337 59.7481 37.6493 59.666 37.6487H59.6694ZM35.0821 35.8476C34.917 35.8476 34.7587 35.782 34.642 35.6653C34.5252 35.5486 34.4596 35.3902 34.4596 35.2251V34.9164C34.4596 34.7513 34.5252 34.593 34.642 34.4762C34.7587 34.3595 34.917 34.2939 35.0821 34.2939C35.2472 34.2939 35.4055 34.3595 35.5223 34.4762C35.639 34.593 35.7046 34.7513 35.7046 34.9164V35.2251C35.7046 35.3902 35.639 35.5486 35.5223 35.6653C35.4055 35.782 35.2472 35.8476 35.0821 35.8476ZM59.666 34.0914C59.5009 34.0914 59.3426 34.0258 59.2259 33.9091C59.1091 33.7923 59.0436 33.634 59.0436 33.4689V33.1618C59.0436 32.9967 59.1091 32.8384 59.2259 32.7216C59.3426 32.6049 59.5009 32.5393 59.666 32.5393C59.8311 32.5393 59.9895 32.6049 60.1062 32.7216C60.2229 32.8384 60.2885 32.9967 60.2885 33.1618V33.4689C60.2885 33.5506 60.2724 33.6314 60.2411 33.7069C60.2098 33.7823 60.1639 33.8508 60.1061 33.9085C60.0483 33.9661 59.9796 34.0118 59.9041 34.0429C59.8286 34.074 59.7477 34.0899 59.666 34.0897V34.0914ZM35.0821 32.2887C34.917 32.2887 34.7587 32.2231 34.642 32.1063C34.5252 31.9896 34.4596 31.8313 34.4596 31.6662V31.3657C34.4596 31.2006 34.5252 31.0423 34.642 30.9256C34.7587 30.8088 34.917 30.7433 35.0821 30.7433C35.2472 30.7433 35.4055 30.8088 35.5223 30.9256C35.639 31.0423 35.7046 31.2006 35.7046 31.3657V31.6728C35.7024 31.8365 35.6359 31.9927 35.5194 32.1076C35.4029 32.2226 35.2458 32.287 35.0821 32.287V32.2887ZM59.666 30.5358C59.5009 30.5358 59.3426 30.4702 59.2259 30.3534C59.1091 30.2367 59.0436 30.0784 59.0436 29.9133V29.6062C59.0436 29.4411 59.1091 29.2828 59.2259 29.166C59.3426 29.0493 59.5009 28.9837 59.666 28.9837C59.8311 28.9837 59.9895 29.0493 60.1062 29.166C60.2229 29.2828 60.2885 29.4411 60.2885 29.6062V29.9133C60.2887 29.9951 60.2728 30.0761 60.2416 30.1517C60.2104 30.2274 60.1645 30.2961 60.1067 30.3539C60.0489 30.4118 59.9801 30.4576 59.9045 30.4888C59.8289 30.52 59.7478 30.536 59.666 30.5358ZM35.0821 28.733C35.0003 28.7333 34.9193 28.7173 34.8436 28.6861C34.768 28.6549 34.6993 28.6091 34.6415 28.5512C34.5836 28.4934 34.5378 28.4247 34.5066 28.349C34.4754 28.2734 34.4594 28.1924 34.4596 28.1106V27.8035C34.4596 27.6384 34.5252 27.48 34.642 27.3633C34.7587 27.2466 34.917 27.181 35.0821 27.181C35.2472 27.181 35.4055 27.2466 35.5223 27.3633C35.639 27.48 35.7046 27.6384 35.7046 27.8035V28.1106C35.7037 28.2749 35.6377 28.4322 35.521 28.548C35.4043 28.6638 35.2465 28.7285 35.0821 28.7281V28.733ZM59.666 26.9785C59.5009 26.9785 59.3426 26.9129 59.2259 26.7962C59.1091 26.6794 59.0436 26.5211 59.0436 26.356V26.0904C59.0436 25.9253 59.1091 25.767 59.2259 25.6502C59.3426 25.5335 59.5009 25.4679 59.666 25.4679C59.8311 25.4679 59.9895 25.5335 60.1062 25.6502C60.2229 25.767 60.2885 25.9253 60.2885 26.0904V26.356C60.2876 26.5204 60.2216 26.6777 60.1049 26.7934C59.9882 26.9092 59.8304 26.9739 59.666 26.9735V26.9785ZM11.5639 26.7129C11.3988 26.7129 11.2405 26.6473 11.1237 26.5306C11.007 26.4138 10.9414 26.2555 10.9414 26.0904V25.7816C10.9414 25.6166 11.007 25.4582 11.1237 25.3415C11.2405 25.2247 11.3988 25.1592 11.5639 25.1592C11.729 25.1592 11.8873 25.2247 12.0041 25.3415C12.1208 25.4582 12.1864 25.6166 12.1864 25.7816V26.0904C12.1851 26.2546 12.1189 26.4117 12.0023 26.5273C11.8857 26.643 11.7281 26.7079 11.5639 26.7079V26.7129ZM35.0821 25.1758C34.917 25.1758 34.7587 25.1102 34.642 24.9934C34.5252 24.8767 34.4596 24.7184 34.4596 24.5533V24.2445C34.4596 24.0794 34.5252 23.9211 34.642 23.8044C34.7587 23.6876 34.917 23.622 35.0821 23.622C35.2472 23.622 35.4055 23.6876 35.5223 23.8044C35.639 23.9211 35.7046 24.0794 35.7046 24.2445V24.5533C35.7033 24.7175 35.6371 24.8746 35.5205 24.9902C35.4039 25.1059 35.2464 25.1708 35.0821 25.1708V25.1758ZM11.5639 23.149C11.3988 23.149 11.2405 23.0834 11.1237 22.9666C11.007 22.8499 10.9414 22.6916 10.9414 22.5265V22.3206L11.5639 22.2194L12.1864 22.2327V22.5265C12.1864 22.6082 12.1703 22.6892 12.139 22.7647C12.1077 22.8402 12.0619 22.9088 12.0041 22.9666C11.9462 23.0244 11.8776 23.0703 11.8021 23.1016C11.7266 23.1329 11.6456 23.149 11.5639 23.149ZM34.9809 21.6168C34.8329 21.6164 34.69 21.5634 34.5775 21.4673C34.465 21.3712 34.3903 21.2383 34.3667 21.0923L34.3185 20.8051C34.294 20.6453 34.3327 20.4822 34.4263 20.3504C34.5199 20.2185 34.6611 20.1283 34.8201 20.0987C34.979 20.0692 35.1433 20.1027 35.278 20.192C35.4127 20.2814 35.5074 20.4197 35.5419 20.5777L35.5967 20.8981C35.6095 20.9787 35.6062 21.0611 35.587 21.1405C35.5679 21.2199 35.5333 21.2948 35.4852 21.3608C35.4371 21.4268 35.3764 21.4826 35.3067 21.5251C35.2369 21.5676 35.1595 21.596 35.0788 21.6085C35.0464 21.6138 35.0137 21.6166 34.9809 21.6168ZM12.1997 19.673C12.1194 19.6736 12.0399 19.6584 11.9656 19.6282C11.8898 19.5974 11.8209 19.5519 11.7626 19.4945C11.7044 19.437 11.6581 19.3686 11.6264 19.2932C11.5946 19.2178 11.578 19.1369 11.5776 19.0551C11.5771 18.9733 11.5928 18.8922 11.6236 18.8165L11.7531 18.5144C11.7851 18.4376 11.8322 18.3681 11.8915 18.3099C11.9509 18.2516 12.0213 18.2059 12.0986 18.1753C12.1759 18.1447 12.2585 18.1299 12.3416 18.1318C12.4247 18.1337 12.5066 18.1522 12.5825 18.1862C12.6583 18.2203 12.7266 18.2691 12.7832 18.33C12.8399 18.3909 12.8837 18.4624 12.9123 18.5405C12.9408 18.6186 12.9534 18.7016 12.9493 18.7846C12.9452 18.8677 12.9246 18.9491 12.8885 19.024L12.7757 19.2862C12.7292 19.4009 12.6496 19.499 12.5469 19.5679C12.4443 19.6368 12.3233 19.6734 12.1997 19.673ZM33.7475 18.3085C33.6429 18.3092 33.5398 18.2831 33.448 18.2329C33.3563 18.1826 33.2788 18.1098 33.223 18.0214L33.057 17.7823C33.0108 17.7149 32.9783 17.639 32.9614 17.5589C32.9445 17.4789 32.9436 17.3964 32.9586 17.316C32.9736 17.2356 33.0044 17.159 33.049 17.0904C33.0937 17.0219 33.1514 16.9629 33.2188 16.9167C33.3551 16.8233 33.5228 16.7879 33.6852 16.8183C33.8475 16.8487 33.9912 16.9423 34.0845 17.0785L34.2638 17.3507C34.3244 17.4446 34.3586 17.5531 34.3627 17.6647C34.3669 17.7764 34.3408 17.8871 34.2873 17.9852C34.2337 18.0833 34.1547 18.1651 34.0585 18.222C33.9624 18.2789 33.8526 18.3088 33.7409 18.3085H33.7475ZM14.1601 16.7399C14.0364 16.7393 13.9158 16.702 13.8133 16.6328C13.7109 16.5636 13.6314 16.4655 13.5848 16.3509C13.5382 16.2364 13.5267 16.1107 13.5517 15.9896C13.5766 15.8685 13.637 15.7576 13.7252 15.6709L13.9642 15.4468C14.0243 15.3916 14.0948 15.3489 14.1715 15.3209C14.2482 15.293 14.3296 15.2805 14.4111 15.284C14.4927 15.2875 14.5727 15.3071 14.6467 15.3416C14.7207 15.3761 14.7871 15.4248 14.8423 15.485C14.8974 15.5451 14.9402 15.6156 14.9681 15.6922C14.9961 15.7689 15.0086 15.8504 15.0051 15.9319C15.0015 16.0135 14.982 16.0935 14.9475 16.1675C14.913 16.2415 14.8643 16.3079 14.8041 16.3631L14.5966 16.5623C14.4819 16.6752 14.3277 16.739 14.1667 16.7399H14.1601ZM31.2941 15.7622C31.168 15.7616 31.0449 15.7235 30.9405 15.6526L30.7131 15.4982C30.5838 15.4058 30.4947 15.2674 30.4641 15.1114C30.4335 14.9554 30.4638 14.7936 30.5487 14.6592C30.6337 14.5248 30.7668 14.428 30.9208 14.3886C31.0749 14.3493 31.2381 14.3703 31.3771 14.4475L31.6543 14.6301C31.764 14.7055 31.8466 14.814 31.89 14.9398C31.9334 15.0655 31.9354 15.2019 31.8957 15.3289C31.856 15.4559 31.7766 15.5668 31.6692 15.6453C31.5619 15.7239 31.4321 15.766 31.2991 15.7655L31.2941 15.7622ZM17.1364 14.821C16.9908 14.8215 16.8496 14.771 16.7374 14.6782C16.6252 14.5855 16.5491 14.4563 16.5223 14.3133C16.4954 14.1702 16.5196 14.0222 16.5905 13.8951C16.6615 13.768 16.7747 13.6698 16.9106 13.6175C17.0152 13.5777 17.1214 13.5378 17.2293 13.503C17.3067 13.4758 17.3888 13.4645 17.4707 13.4697C17.5526 13.4748 17.6326 13.4964 17.706 13.5331C17.7794 13.5698 17.8447 13.6209 17.8979 13.6833C17.9512 13.7457 17.9914 13.8181 18.0161 13.8964C18.0682 14.0529 18.056 14.2237 17.9822 14.3712C17.9085 14.5187 17.7792 14.6309 17.6227 14.6832L17.3621 14.7778C17.2905 14.8076 17.2139 14.8234 17.1364 14.8243V14.821ZM28.0373 14.3977C28.0005 14.3977 27.9639 14.3943 27.9277 14.3877L27.6356 14.3379C27.4725 14.3119 27.3263 14.2222 27.2294 14.0885C27.1324 13.9548 27.0925 13.7881 27.1185 13.625C27.1445 13.4619 27.2342 13.3157 27.3679 13.2188C27.5016 13.1218 27.6683 13.0819 27.8314 13.1079L28.1452 13.1627C28.2979 13.1903 28.4348 13.274 28.529 13.3974C28.6232 13.5207 28.6679 13.6748 28.6544 13.8294C28.6409 13.984 28.5701 14.128 28.456 14.2331C28.3418 14.3382 28.1925 14.3969 28.0373 14.3977ZM24.4883 14.245H24.1812C24.0161 14.245 23.8578 14.1794 23.741 14.0626C23.6243 13.9459 23.5587 13.7876 23.5587 13.6225C23.5587 13.4574 23.6243 13.2991 23.741 13.1823C23.8578 13.0656 24.0161 13 24.1812 13H24.4883C24.6534 13 24.8117 13.0656 24.9285 13.1823C25.0452 13.2991 25.1108 13.4574 25.1108 13.6225C25.1108 13.7876 25.0452 13.9459 24.9285 14.0626C24.8117 14.1794 24.6534 14.245 24.4883 14.245ZM20.931 14.245H20.6223C20.4572 14.245 20.2988 14.1794 20.1821 14.0626C20.0654 13.9459 19.9998 13.7876 19.9998 13.6225C19.9998 13.4574 20.0654 13.2991 20.1821 13.1823C20.2988 13.0656 20.4572 13 20.6223 13H20.931C21.0961 13 21.2544 13.0656 21.3712 13.1823C21.4879 13.2991 21.5535 13.4574 21.5535 13.6225C21.5535 13.7876 21.4879 13.9459 21.3712 14.0626C21.2544 14.1794 21.0961 14.245 20.931 14.245Z" fill="#0F3384"/>
<path d="M17.0252 65.0267H3.10814C2.56253 65.0379 2.03465 64.8328 1.6397 64.4562C1.24475 64.0796 1.01479 63.562 1 63.0165V54.5142C1.02354 52.9855 1.46169 51.4919 2.26769 50.1927C3.07369 48.8935 4.21731 47.8375 5.57649 47.1374C5.84731 46.9942 6.14981 46.9214 6.45613 46.9257C6.76246 46.9301 7.06277 47.0114 7.32941 47.1623C8.16503 47.6345 9.10853 47.8826 10.0683 47.8826C11.0281 47.8826 11.9716 47.6345 12.8073 47.1623C13.0739 47.0114 13.3742 46.9301 13.6805 46.9257C13.9869 46.9214 14.2894 46.9942 14.5602 47.1374V47.1374C15.9194 47.8375 17.063 48.8935 17.869 50.1927C18.675 51.4919 19.1131 52.9855 19.1367 54.5142V63.0165C19.1223 63.5628 18.892 64.0811 18.4963 64.4579C18.1005 64.8347 17.5715 65.0392 17.0252 65.0267V65.0267ZM6.43303 48.1666C6.33864 48.1669 6.24576 48.1902 6.16246 48.2346C5.00164 48.8283 4.0238 49.726 3.33327 50.832C2.64274 51.9379 2.26545 53.2106 2.24165 54.5142V63.0165C2.25824 63.2317 2.358 63.4319 2.51976 63.5748C2.68152 63.7177 2.89257 63.7919 3.10814 63.7818H17.0252C17.2405 63.7914 17.4511 63.717 17.6125 63.5742C17.7739 63.4314 17.8734 63.2314 17.89 63.0165V54.5142C17.8666 53.211 17.4897 51.9385 16.7994 50.8328C16.1091 49.7271 15.1315 48.8296 13.9709 48.2363V48.2363C13.888 48.1917 13.7953 48.1683 13.7011 48.1683C13.607 48.1683 13.5143 48.1917 13.4314 48.2363C12.4046 48.8165 11.2452 49.1215 10.0658 49.1215C8.88644 49.1215 7.72707 48.8165 6.70028 48.2363C6.61873 48.1903 6.52665 48.1663 6.43303 48.1666Z" fill="#0F3384"/>
<path d="M10.0675 49.0468C8.37055 49.0442 6.74385 48.369 5.54377 47.1692C4.3437 45.9695 3.66812 44.3429 3.66504 42.646C3.66365 41.5593 3.93891 40.49 4.46488 39.5391C4.99086 38.5881 5.75026 37.7866 6.67154 37.2102C7.59282 36.6338 8.64566 36.3013 9.73091 36.2442C10.8162 36.1871 11.8981 36.4071 12.8748 36.8836C13.8515 37.3602 14.6908 38.0774 15.3138 38.9679C15.9367 39.8584 16.3227 40.8929 16.4354 41.9737C16.5481 43.0546 16.3838 44.1464 15.9581 45.1463C15.5323 46.1462 14.859 47.0212 14.0016 47.689C12.8807 48.572 11.4944 49.0505 10.0675 49.0468V49.0468ZM10.0675 37.4885C9.05073 37.4908 8.05744 37.7943 7.21299 38.3606C6.36854 38.9269 5.71078 39.7307 5.32275 40.6705C4.93471 41.6103 4.83378 42.644 5.03271 43.6411C5.23163 44.6383 5.72149 45.5541 6.44045 46.273C7.15941 46.992 8.07525 47.4819 9.07236 47.6808C10.0695 47.8797 11.1032 47.7788 12.043 47.3908C12.9828 47.0027 13.7866 46.345 14.3529 45.5005C14.9192 44.6561 15.2227 43.6628 15.225 42.646C15.2241 41.2784 14.6804 39.9671 13.7134 39.0001C12.7464 38.0331 11.4351 37.4894 10.0675 37.4885V37.4885Z" fill="#0F3384"/>
</g>
<defs>
<clipPath id="clip0_1102_127">
<rect width="65" height="65" fill="white"/>
</clipPath>
</defs>
</svg>
