<svg width="65" height="65" viewBox="0 0 65 65" fill="none" xmlns="http://www.w3.org/2000/svg">
<rect width="65" height="65" fill="white"/>
<path d="M38.2457 8.02284L38.3371 8.00536C38.5516 7.98058 38.7643 8.04229 38.9312 8.17787L62.7002 27.4263C62.8926 27.5803 63 27.8035 63 28.0444C63 28.2852 62.8926 28.5084 62.7032 28.66L38.932 47.9102C38.6971 48.0987 38.3758 48.1354 38.1015 48.0033C37.8273 47.8712 37.6535 47.5946 37.6535 47.2922V36.3585L36.943 36.3729C22.9517 36.6554 13.6878 40.3458 8.35151 46.3218C6.51251 48.3848 5.23858 50.5462 4.43255 52.6951C4.13651 53.4844 3.92074 54.229 3.77277 54.916C3.68872 55.3062 3.63518 55.6345 3.60382 55.9009L3.58185 56.1193L3.57954 56.2683C3.56759 56.6781 3.20032 57.0212 2.76368 57.0092C2.33274 56.9967 1.98824 56.6305 2.00031 56.1949L2.00091 55.9767L2.01004 55.6904L2.0381 55.1591L2.08748 54.4961C2.09432 54.4148 2.10164 54.3307 2.10947 54.244C2.22149 53.0034 2.40515 51.6361 2.67654 50.1721C3.4376 46.0665 4.73959 41.9504 6.70765 38.0742C12.1941 27.2631 22.193 20.3971 36.9784 19.947L37.6535 19.9265V8.79655C37.6506 8.42447 37.8987 8.11038 38.2457 8.02284Z" stroke="#0F3384" stroke-width="1.88502"/>
</svg>
