<svg width="116" height="29" viewBox="0 0 116 29" fill="none" xmlns="http://www.w3.org/2000/svg">
<path fill-rule="evenodd" clip-rule="evenodd" d="M115.872 13.0276C115.848 12.3056 115.81 11.6783 115.762 11.1635C115.722 10.7022 115.655 10.2437 115.561 9.79049C115.477 9.40756 115.373 9.02927 115.25 8.65719C114.615 6.73087 113.551 5.26024 112.094 4.28081C110.636 3.30138 108.834 2.80131 106.709 2.80131C104.584 2.80131 102.815 3.29546 101.36 4.28081C99.905 5.26616 98.8412 6.73087 98.2041 8.65719C98.0802 9.02914 97.9763 9.40745 97.8929 9.79049C97.7979 10.2436 97.7306 10.7022 97.6914 11.1635C97.644 11.6783 97.6055 12.3056 97.5817 13.0276C97.558 13.7496 97.5462 14.6137 97.5462 15.6257C97.5462 16.6376 97.5462 17.5105 97.5817 18.2237C97.6173 18.9368 97.641 19.573 97.6914 20.0878C97.7305 20.5492 97.7978 21.0077 97.8929 21.4608C97.9762 21.8439 98.0801 22.2222 98.2041 22.5941C98.8382 24.5204 99.9021 25.994 101.36 26.9705C102.818 27.947 104.62 28.45 106.709 28.45C108.798 28.45 110.641 27.9558 112.094 26.9705C113.546 25.9851 114.612 24.5204 115.25 22.5941C115.373 22.2221 115.477 21.8438 115.561 21.4608C115.655 21.0076 115.722 20.5491 115.762 20.0878C115.81 19.573 115.845 18.9457 115.872 18.2237C115.899 17.5017 115.907 16.6199 115.907 15.6257C115.907 14.6314 115.896 13.7615 115.872 13.0276ZM112.256 17.9218C112.233 18.561 112.191 19.1232 112.132 19.5966C112.073 20.0701 112.013 20.4666 111.954 20.7802C111.908 21.0466 111.843 21.3096 111.762 21.5673C111.456 22.6082 110.822 23.5226 109.954 24.1742C109.124 24.766 108.034 25.0619 106.694 25.0619C105.355 25.0619 104.282 24.766 103.467 24.1742C102.612 23.5147 101.989 22.6007 101.689 21.5644C101.607 21.3077 101.543 21.0457 101.496 20.7802C101.437 20.4577 101.375 20.0583 101.319 19.5966C101.262 19.135 101.218 18.561 101.194 17.9218C101.17 17.2827 101.159 16.5104 101.159 15.6257C101.159 14.7409 101.159 13.9686 101.194 13.3295C101.23 12.6903 101.259 12.1281 101.319 11.6547C101.378 11.1812 101.437 10.767 101.496 10.4711C101.543 10.2046 101.607 9.94166 101.689 9.68396C101.99 8.64875 102.613 7.73583 103.467 7.07708C104.285 6.48527 105.37 6.18937 106.694 6.18937C108.019 6.18937 109.112 6.48527 109.954 7.07708C110.822 7.73039 111.456 8.64557 111.762 9.68692C111.843 9.94372 111.908 10.2057 111.954 10.4711C112.013 10.7936 112.073 11.196 112.132 11.6547C112.191 12.1133 112.233 12.6933 112.256 13.3295C112.28 13.9657 112.292 14.7557 112.292 15.6257C112.292 16.4956 112.283 17.2709 112.256 17.9218ZM93.2907 3.20669H90.7748C90.6265 3.19202 90.4793 3.24412 90.3733 3.34881C90.2673 3.4535 90.2135 3.5999 90.2266 3.74819V27.5002C90.2135 27.6485 90.2673 27.7949 90.3733 27.8995C90.4793 28.0042 90.6265 28.0563 90.7748 28.0417H93.2907C93.4391 28.0563 93.5863 28.0042 93.6923 27.8995C93.7983 27.7949 93.852 27.6485 93.839 27.5002V3.75115C93.853 3.60237 93.7996 3.45512 93.6935 3.34974C93.5874 3.24436 93.4397 3.19189 93.2907 3.20669ZM86.875 3.20669H84.3591C84.0534 3.19271 83.7809 3.39768 83.7101 3.69493L77.804 22.1621L71.6787 3.70085C71.5961 3.39607 71.3096 3.19178 70.9941 3.21261H68.5138C68.352 3.19899 68.1951 3.27223 68.1019 3.40494C68.0181 3.55423 68.0104 3.73436 68.0811 3.89022L76.0289 27.5623C76.0883 27.8497 76.3426 28.0553 76.6364 28.0535H78.7701C79.057 28.0501 79.3032 27.8485 79.3628 27.5682L87.278 3.89614C87.3525 3.73429 87.3425 3.5462 87.2513 3.39311C87.1609 3.27217 87.0172 3.20265 86.8661 3.20669H86.875ZM66.5816 11.1635C66.5419 10.7022 66.4746 10.2437 66.3801 9.79049C66.2962 9.40757 66.1924 9.02929 66.069 8.65719C65.4318 6.73087 64.3709 5.26024 62.9129 4.28081C61.455 3.30138 59.6532 2.80131 57.5284 2.80131C55.4037 2.80131 53.6345 3.29546 52.1795 4.28081C50.7245 5.26616 49.6606 6.73087 49.0235 8.65719C48.8995 9.02912 48.7957 9.40743 48.7123 9.79049C48.6173 10.2436 48.55 10.7021 48.5108 11.1635C48.4634 11.6813 48.4249 12.3086 48.4012 13.0276C48.3775 13.7467 48.3656 14.6137 48.3656 15.6257C48.3656 16.6376 48.3656 17.5105 48.4012 18.2237C48.4367 18.9368 48.4604 19.573 48.5108 20.0878C48.55 20.5492 48.6173 21.0077 48.7123 21.4608C48.7956 21.8439 48.8995 22.2222 49.0235 22.5941C49.6577 24.5204 50.7215 25.994 52.1795 26.9705C53.6375 27.947 55.4393 28.45 57.5284 28.45C59.6176 28.45 61.4609 27.9558 62.9129 26.9705C64.365 25.9851 65.4318 24.5204 66.069 22.5941C66.1924 22.222 66.2962 21.8437 66.3801 21.4608C66.4746 21.0076 66.5419 20.5491 66.5816 20.0878C66.629 19.57 66.6676 18.9427 66.6913 18.2237C66.715 17.5046 66.7268 16.6199 66.7268 15.6257C66.7268 14.6314 66.7268 13.7585 66.6913 13.0276C66.6557 12.2968 66.6202 11.6902 66.5698 11.1635H66.5816ZM63.0641 17.9218C63.0404 18.561 62.9989 19.1232 62.9396 19.5966C62.8803 20.0701 62.8211 20.4696 62.7618 20.7802C62.7154 21.0466 62.651 21.3096 62.5692 21.5673C62.2638 22.6082 61.6298 23.5226 60.7615 24.1742C59.9318 24.766 58.8383 25.0619 57.5018 25.0619C56.1653 25.0619 55.0896 24.766 54.2746 24.1742C53.4195 23.5148 52.7967 22.6008 52.4966 21.5644C52.4147 21.3077 52.3503 21.0457 52.304 20.7802C52.2447 20.4577 52.1825 20.0553 52.1262 19.5966C52.0699 19.138 52.0254 18.558 52.0017 17.9218C51.978 17.2857 51.9661 16.5134 51.9661 15.6257C51.9661 14.738 51.9661 13.9657 52.0017 13.3295C52.0373 12.6933 52.0669 12.1281 52.1262 11.6547C52.1854 11.1812 52.2447 10.767 52.304 10.4711C52.3502 10.2046 52.4146 9.94166 52.4966 9.68396C52.7975 8.64875 53.4201 7.73583 54.2746 7.07708C55.0925 6.48527 56.1771 6.18937 57.5018 6.18937C58.8264 6.18937 59.9199 6.48527 60.7615 7.07708C61.6294 7.73039 62.2632 8.64557 62.5692 9.68692C62.6509 9.9437 62.7153 10.2057 62.7618 10.4711C62.8211 10.7906 62.8803 11.1931 62.9396 11.6547C62.9989 12.1163 63.0404 12.6933 63.0641 13.3295C63.0878 13.9657 63.0996 14.7557 63.0996 15.6257C63.0996 16.4956 63.0907 17.2679 63.0641 17.9218ZM40.6311 17.2058C41.9928 16.7544 43.186 15.9024 44.0539 14.7616C44.9642 13.5081 45.4341 11.9893 45.3904 10.4415C45.4001 9.42656 45.2045 8.42013 44.8155 7.48246C44.4536 6.60787 43.9055 5.82234 43.2093 5.18035C42.4859 4.53543 41.6419 4.03967 40.726 3.72156C39.6946 3.36768 38.61 3.19352 37.5196 3.20669H28.6294C28.4815 3.19297 28.3352 3.24548 28.2299 3.35005C28.1246 3.45462 28.0712 3.60046 28.0841 3.74819V27.5002C28.071 27.6485 28.1248 27.7949 28.2308 27.8995C28.3368 28.0042 28.484 28.0563 28.6323 28.0417H31.1483C31.2966 28.0563 31.4438 28.0042 31.5498 27.8995C31.6558 27.7949 31.7096 27.6485 31.6965 27.5002V17.7118C31.6965 17.697 31.6965 17.6851 31.6965 17.6822H36.9862L41.8195 27.5712C41.9049 27.8539 42.1667 28.0467 42.4625 28.0446H45.3785C45.5464 28.056 45.7061 27.971 45.7904 27.8257C45.8724 27.6728 45.8597 27.4867 45.7578 27.3463L40.6311 17.2058ZM31.7172 14.3266H31.6876C31.6864 14.3158 31.6864 14.3049 31.6876 14.2941V6.60068C31.6876 6.58588 31.6876 6.57404 31.6876 6.57109H37.4336C38.8175 6.57109 39.9022 6.91137 40.6549 7.58603C41.4076 8.26068 41.7809 9.2194 41.7809 10.4533C41.7809 11.6872 41.4016 12.6548 40.6549 13.3206C39.9081 13.9864 38.8205 14.3355 37.4336 14.3355H31.7202L31.7172 14.3266ZM19.914 15.8062C21.7069 14.2971 22.6552 12.3826 22.6967 9.63366C22.75 6.20713 20.4682 2.78947 16.4439 1.37211C14.1093 0.597055 11.6773 0.152821 9.21912 0.0523869C7.07965 -0.0594525 4.93455 0.00785375 2.80632 0.2536C2.20484 0.310252 1.60973 0.421174 1.02829 0.585009C0.877152 0.644189 0.791214 0.721123 0.823811 0.75959C0.916845 0.800559 1.01917 0.815886 1.12015 0.803975C1.28017 0.803975 1.98546 0.741836 3.19453 0.747754C4.99862 0.767909 6.79821 0.932165 8.57606 1.23895C13.522 2.06155 16.5269 4.26306 16.2809 7.91743C16.0883 10.8113 11.1157 12.1429 6.58466 13.9361C2.5011 15.5517 0.681568 17.5401 0.165937 19.6055C-0.426743 21.9313 0.657861 24.3399 2.00028 26.4408C2.29662 26.9172 2.6137 27.3818 2.9456 27.8109C3.0057 27.9231 3.11576 28 3.24194 28.018C3.2573 27.9357 3.25013 27.8509 3.2212 27.7724C3.09172 27.2731 3.00839 26.763 2.97228 26.2485C2.94857 24.7986 3.72794 23.5706 5.63933 22.3544C7.17734 21.378 9.4473 20.4104 12.6181 19.3451C15.789 18.2799 18.2249 17.2265 19.914 15.8062ZM22.4892 27.6866C21.4805 27.3273 20.5292 26.824 19.6651 26.1923C18.5775 25.3963 17.567 24.3281 17.4218 23.1149C17.167 20.9815 17.7448 19.9724 17.9019 19.7032C17.9562 19.6301 17.9805 19.5391 17.97 19.4487C17.8854 19.4146 17.7909 19.4146 17.7063 19.4487C17.3092 19.5286 15.1015 20.3127 13.8124 21.4963C12.9797 22.2627 12.3307 23.2244 12.5411 24.5323C12.7456 25.7721 13.7413 26.6746 14.7844 27.1954C15.9194 27.7724 17.3774 28.0062 18.7879 28.0831C19.9732 28.145 21.1613 28.1262 22.344 28.0269C22.5508 28.027 22.7543 27.9762 22.9367 27.8789C22.8001 27.7901 22.65 27.7242 22.4922 27.6836L22.4892 27.6866Z" fill="#2C3543"/>
</svg>
