<svg width="65" height="65" viewBox="0 0 65 65" fill="none" xmlns="http://www.w3.org/2000/svg">
<rect width="65" height="65" fill="white"/>
<path d="M48.6625 18.6571V16.4916H49.4987C49.8689 16.4957 50.236 16.4285 50.5792 16.2932C50.9224 16.1578 51.2346 15.9572 51.4978 15.7033C51.7611 15.4493 51.97 15.1471 52.1126 14.8138C52.2553 14.4805 52.3286 14.1227 52.3286 13.7615C52.3286 13.0291 52.0302 12.3269 51.4994 11.809C50.9686 11.2912 50.2494 11 49.4987 11H41.6507C40.9001 11 40.1808 11.2912 39.6501 11.809C39.1193 12.3269 38.8209 13.0291 38.8209 13.7615C38.8209 14.1227 38.8942 14.4805 39.0368 14.8138C39.1795 15.1471 39.3884 15.4493 39.6517 15.7033C39.9149 15.9572 40.2271 16.1578 40.5703 16.2932C40.9135 16.4285 41.2806 16.4957 41.6507 16.4916H42.487V18.6571C37.9993 19.3972 33.9241 21.6613 30.9816 25.0492C28.039 28.4371 26.4185 32.7308 26.4062 37.1717C26.4062 42.1652 28.44 46.954 32.0588 50.485C35.6777 54.016 40.5853 56 45.7031 56C50.821 56 55.7293 54.016 59.3482 50.485C62.9671 46.954 65 42.1652 65 37.1717C64.9778 32.6941 63.3208 28.3708 60.3265 24.9776C57.3323 21.5845 53.1973 19.3436 48.6625 18.6571V18.6571ZM41.0721 13.7615C41.0721 13.6117 41.1331 13.4683 41.2417 13.3624C41.3502 13.2564 41.4972 13.1969 41.6507 13.1969H49.4987C49.6523 13.1969 49.7993 13.2564 49.9078 13.3624C50.0164 13.4683 50.0774 13.6117 50.0774 13.7615C50.0774 13.9113 50.0164 14.0551 49.9078 14.161C49.7993 14.267 49.6523 14.3265 49.4987 14.3265H41.6507C41.5747 14.3265 41.4996 14.312 41.4293 14.2836C41.3591 14.2552 41.2954 14.2135 41.2417 14.161C41.1879 14.1086 41.1451 14.0465 41.116 13.9779C41.0869 13.9094 41.0721 13.8357 41.0721 13.7615ZM44.7067 16.4916H46.4106V18.4372H44.7067V16.4916ZM45.5751 53.7403C41.074 53.732 36.7594 51.9839 33.5766 48.8785C30.3939 45.773 28.6023 41.5635 28.5938 37.1717C28.6018 33.0243 30.2007 29.03 33.0757 25.9751C35.9506 22.9202 39.8927 21.0261 44.1272 20.6655H47.0222C51.2568 21.0261 55.1997 22.9202 58.0746 25.9751C60.9495 29.03 62.5477 33.0243 62.5557 37.1717C62.5472 41.5635 60.7556 45.773 57.5729 48.8785C54.3901 51.9839 50.0762 53.732 45.5751 53.7403V53.7403Z" fill="#0F3384"/>
<path d="M26.5927 38.1756L24.2708 36.5087C24.0971 36.4169 23.9033 36.3689 23.7062 36.3689C23.509 36.3689 23.3152 36.4169 23.1416 36.5087C22.6977 36.7395 22.2363 36.9358 21.7611 37.0954C21.5745 37.1555 21.4082 37.2652 21.2808 37.4122C21.1535 37.5593 21.0694 37.738 21.0387 37.9288L20.2236 42.929C18.9944 43.0833 17.7497 43.0833 16.5205 42.929L15.7046 37.9288C15.674 37.738 15.5907 37.5593 15.4633 37.4122C15.336 37.2652 15.1696 37.1555 14.983 37.0954L13.6026 36.5087C13.4289 36.4169 13.2351 36.3689 13.038 36.3689C12.8408 36.3689 12.6462 36.4169 12.4726 36.5087L8.29986 39.5953C7.81797 39.2078 7.35654 38.796 6.91864 38.3609C6.47814 37.9377 6.0695 37.4836 5.69524 37.0027L8.83304 32.8977C8.94241 32.7324 9.0008 32.5392 9.0008 32.342C9.0008 32.1447 8.94241 31.9519 8.83304 31.7866C8.6126 31.3475 8.42408 30.8935 8.26845 30.4283C8.20179 30.2424 8.08472 30.078 7.92985 29.9528C7.77498 29.8277 7.58813 29.7467 7.38977 29.7185L2.30617 28.9159C2.18073 27.705 2.18073 26.4846 2.30617 25.2737L7.38977 24.4715C7.58813 24.4433 7.77498 24.3619 7.92985 24.2368C8.08472 24.1116 8.20179 23.9472 8.26845 23.7613C8.41848 23.2941 8.60717 22.84 8.83304 22.4034C8.94241 22.2381 9.0008 22.0449 9.0008 21.8476C9.0008 21.6504 8.94241 21.4576 8.83304 21.2923L5.69524 17.1869C6.06139 16.6994 6.47058 16.2451 6.91864 15.829C7.35793 15.3969 7.82919 14.9956 8.29986 14.5943L12.4726 17.6809C12.6443 17.7784 12.8397 17.8297 13.038 17.8297C13.2363 17.8297 13.4308 17.7784 13.6026 17.6809C14.0465 17.4587 14.5081 17.2731 14.983 17.1255C15.172 17.06 15.3392 16.9448 15.4664 16.7924C15.5936 16.6401 15.676 16.4563 15.7046 16.2612L16.5205 11.261C17.7515 11.1376 18.9926 11.1376 20.2236 11.261L21.0387 16.2612C21.0674 16.4563 21.1505 16.6401 21.2777 16.7924C21.405 16.9448 21.5721 17.06 21.7611 17.1255C22.234 17.2786 22.6952 17.464 23.1416 17.6809C23.3133 17.7784 23.5079 17.8297 23.7062 17.8297C23.9045 17.8297 24.099 17.7784 24.2708 17.6809L28.4443 14.5943C28.9262 14.9818 29.3868 15.394 29.8247 15.829C30.2728 16.2451 30.6827 16.6994 31.0489 17.1869L27.9111 21.2923C27.812 21.4612 27.7594 21.6526 27.7594 21.8476C27.7594 22.0427 27.812 22.2345 27.9111 22.4034C28.1261 22.8449 28.3145 23.2981 28.4757 23.7613C28.5423 23.9472 28.6594 24.1116 28.8143 24.2368C28.9692 24.3619 29.156 24.4433 29.3544 24.4715L31.4879 24.811C32.1185 24.1542 32.7895 23.5354 33.4965 22.9587L30.3587 22.4652L30.1702 22.033L33.308 17.8045C33.4433 17.6203 33.5156 17.3987 33.5156 17.1715C33.5156 16.9443 33.4433 16.723 33.308 16.5389C32.7253 15.7448 32.0741 15.0014 31.3622 14.3167C30.6661 13.6164 29.9104 12.9762 29.1031 12.403C28.9159 12.2699 28.6913 12.1984 28.4604 12.1984C28.2294 12.1984 28.0041 12.2699 27.8169 12.403L23.5177 15.4896L23.0788 15.3042L22.2629 10.1499C22.2262 9.92551 22.1183 9.71794 21.9549 9.55723C21.7916 9.39653 21.5809 9.29076 21.3528 9.25468C19.3805 8.91511 17.3636 8.91511 15.3913 9.25468C15.1632 9.29076 14.9526 9.39653 14.7892 9.55723C14.6258 9.71794 14.5179 9.92551 14.4812 10.1499L13.6654 15.3042L13.2256 15.4896L8.92726 12.403C8.74691 12.2678 8.52659 12.1947 8.29986 12.1947C8.07312 12.1947 7.8528 12.2678 7.67245 12.403C6.85311 12.9733 6.08589 13.6137 5.38115 14.3167C4.67557 15.0071 4.02556 15.75 3.43611 16.5389C3.29612 16.7211 3.22008 16.9431 3.22008 17.1715C3.22008 17.3999 3.29612 17.6223 3.43611 17.8045L6.57391 22.033L6.38546 22.4652L1.14558 23.2677C0.919316 23.3081 0.710657 23.4152 0.548053 23.5752C0.385449 23.7351 0.276524 23.94 0.235499 24.1625C-0.0784997 26.1052 -0.0784997 28.0844 0.235499 30.027C0.272177 30.2514 0.380084 30.4586 0.543457 30.6193C0.70683 30.78 0.917469 30.8862 1.14558 30.9223L6.38546 31.7557L6.57391 32.157L3.43611 36.3855C3.30084 36.5696 3.22775 36.7909 3.22775 37.0181C3.22775 37.2453 3.30084 37.4666 3.43611 37.6507C4.02675 38.4483 4.67663 39.2018 5.38115 39.9042C6.08483 40.587 6.84074 41.2164 7.64104 41.787C7.82627 41.9247 8.05159 41.9991 8.28377 41.9991C8.51595 41.9991 8.74203 41.9247 8.92726 41.787L13.2571 38.7004H13.6654L14.4812 43.8856C14.5194 44.1063 14.6278 44.3092 14.7915 44.4647C14.9552 44.6202 15.1658 44.7202 15.3913 44.7499C16.4262 44.9355 17.4774 45.0181 18.5291 44.9967C19.5285 45.008 20.5265 44.9254 21.5099 44.7499C21.7336 44.7157 21.9407 44.6141 22.1036 44.4594C22.2665 44.3047 22.3774 44.1043 22.42 43.8856L23.2358 38.7004H23.6748L27.1581 41.2003C26.9009 40.2057 26.7117 39.1952 26.5927 38.1756Z" fill="#0F3384"/>
<path d="M18.2797 19.0001C17.2103 18.9938 16.1504 19.1986 15.1631 19.6025C14.1758 20.0063 13.2809 20.6011 12.5319 21.3513C11.0103 22.8509 10.1563 24.8822 10.1562 27C10.1563 29.1178 11.0103 31.1491 12.5319 32.6487C13.2809 33.3989 14.1758 33.9937 15.1631 34.3975C16.1504 34.8014 17.2103 35.0062 18.2797 34.9999C19.3462 35.0051 20.4031 34.8029 21.3896 34.4046C22.376 34.0063 23.2729 33.4198 24.0276 32.6793C25.551 31.1744 26.4062 29.1381 26.4062 27.0153C26.4062 24.8925 25.551 22.8561 24.0276 21.3513C23.2786 20.6011 22.3837 20.0063 21.3964 19.6025C20.4091 19.1986 19.3491 18.9938 18.2797 19.0001V19.0001ZM22.5053 31.2137C21.9557 31.7673 21.2978 32.2066 20.5719 32.5056C19.8461 32.8045 19.0667 32.9569 18.2797 32.954C17.4927 32.9569 16.7134 32.8045 15.9876 32.5056C15.2617 32.2066 14.6038 31.7673 14.0542 31.2137C12.9386 30.1097 12.3127 28.617 12.3127 27.0611C12.3127 25.5052 12.9386 24.0125 14.0542 22.9086C15.1727 21.8016 16.6924 21.1756 18.2797 21.1679C19.867 21.1756 21.3868 21.8016 22.5053 22.9086C23.6146 23.9978 24.2453 25.4709 24.2627 27.0119C24.2802 28.553 23.6823 30.0393 22.5978 31.1526L22.5053 31.2137Z" fill="#0F3384"/>
<path d="M43.4357 52H43.179C42.7936 51.9385 42.4467 51.737 42.2086 51.436C41.9705 51.1349 41.8594 50.7567 41.8971 50.3787C41.9164 50.188 41.976 50.0032 42.0716 49.8356C42.1672 49.668 42.2966 49.5212 42.4527 49.4044C42.6089 49.2875 42.7884 49.2032 42.9794 49.1562C43.1705 49.1093 43.3695 49.1011 43.564 49.1319V49.1319C43.7586 49.1585 43.9454 49.2224 44.1142 49.3203C44.2829 49.4182 44.4305 49.5481 44.5469 49.702C44.6634 49.856 44.7468 50.0311 44.7927 50.2169C44.8386 50.4028 44.8456 50.5954 44.8138 50.784C44.7686 51.1123 44.6059 51.4148 44.3536 51.6373C44.1014 51.8598 43.776 51.9882 43.4357 52ZM51.1927 50.9401C50.9007 50.9401 50.6149 50.8576 50.3702 50.7026C50.1255 50.5476 49.9326 50.3268 49.8146 50.067C49.6629 49.715 49.6584 49.3192 49.802 48.964C49.9457 48.6089 50.2262 48.3223 50.5838 48.1652C50.9454 48.006 51.3574 47.9921 51.7296 48.1264C52.1017 48.2606 52.4043 48.5322 52.5716 48.8822C52.6585 49.0496 52.7095 49.2322 52.7227 49.4192C52.7358 49.6063 52.7103 49.7942 52.6475 49.9715C52.5848 50.1488 52.4859 50.3122 52.3572 50.4518C52.2285 50.5913 52.0722 50.7041 51.8978 50.784V50.784C51.6837 50.9024 51.4384 50.9568 51.1927 50.9401V50.9401ZM36.2554 48.8198C36.0797 48.8282 35.9041 48.8022 35.7389 48.7433C35.5737 48.6844 35.4221 48.5938 35.2936 48.4769C34.9886 48.2282 34.7975 47.8722 34.7614 47.4866C34.7254 47.1011 34.8472 46.7176 35.1011 46.4194C35.3775 46.151 35.7529 46 36.1435 46C36.5341 46 36.9087 46.151 37.1851 46.4194C37.4631 46.6936 37.6187 47.0631 37.6187 47.4482C37.6187 47.8332 37.4631 48.2027 37.1851 48.4769C36.9241 48.6902 36.5962 48.8111 36.2554 48.8198V48.8198ZM57.1873 45.9517C56.9003 45.9498 56.6208 45.8625 56.386 45.702C56.2207 45.6006 56.0779 45.4683 55.9657 45.3127C55.8535 45.1571 55.7743 44.9815 55.7325 44.7958C55.6907 44.6102 55.6872 44.4184 55.7223 44.2314C55.7575 44.0445 55.8301 43.8663 55.9368 43.707C56.1534 43.3898 56.4861 43.1648 56.8673 43.0779C57.2484 42.991 57.6498 43.0487 57.9887 43.2392C58.1566 43.3381 58.3022 43.4684 58.4176 43.6229C58.5329 43.7773 58.6154 43.9527 58.6602 44.1386C58.7049 44.3244 58.7109 44.5171 58.6782 44.7053C58.6454 44.8935 58.5744 45.0735 58.4692 45.2347V45.2347C58.3369 45.4513 58.1499 45.6312 57.9253 45.7568C57.7007 45.8824 57.4464 45.9495 57.1873 45.9517V45.9517ZM31.9919 42.3662C31.6687 42.3721 31.3525 42.2746 31.0919 42.0887C30.8313 41.9028 30.6408 41.639 30.5495 41.3374V41.3374C30.4899 41.1573 30.4677 40.9673 30.4838 40.7787C30.4999 40.5901 30.5541 40.4064 30.6435 40.2383C30.7329 40.0702 30.8553 39.9212 31.0042 39.7995C31.1532 39.6777 31.3257 39.5856 31.5114 39.5289C31.6963 39.4664 31.8928 39.4411 32.0881 39.4547C32.2835 39.4683 32.4737 39.5205 32.6477 39.6081C32.8216 39.6956 32.9749 39.8167 33.0992 39.9639C33.2235 40.1111 33.3164 40.2814 33.3708 40.4644V40.4644C33.4799 40.8364 33.433 41.2354 33.2409 41.5742C33.0487 41.9129 32.7266 42.1639 32.3448 42.2725L31.9919 42.3662ZM59.431 38.5626C59.0399 38.5626 58.6651 38.4114 58.3886 38.1424C58.1121 37.8734 57.9566 37.5085 57.9566 37.1281C57.9648 36.7503 58.1224 36.3903 58.3972 36.123C58.672 35.8558 59.0425 35.702 59.431 35.6941C59.8251 35.694 60.2035 35.8442 60.4852 36.1123C60.7668 36.3804 60.9291 36.7449 60.9375 37.1281V37.1281C60.9217 37.5036 60.7615 37.8596 60.4883 38.1253C60.2151 38.391 59.8491 38.5472 59.4631 38.5626H59.431ZM31.9598 34.6654H31.5434C31.1712 34.5633 30.8549 34.3229 30.663 33.9963C30.4712 33.6697 30.4189 33.2829 30.5175 32.9192C30.6418 32.5603 30.9071 32.2639 31.2554 32.0945C31.6038 31.9251 32.0071 31.8967 32.3769 32.0153C32.5625 32.072 32.7343 32.1638 32.8832 32.2855C33.0322 32.4073 33.1554 32.5566 33.2448 32.7247C33.3342 32.8928 33.3884 33.0762 33.4044 33.2648C33.4205 33.4534 33.3984 33.6434 33.3387 33.8235C33.2026 34.06 33.0014 34.255 32.758 34.3871C32.5147 34.5192 32.2382 34.5832 31.9598 34.5717V34.6654ZM57.2194 31.1735C56.9772 31.1676 56.7397 31.1051 56.5276 30.9912C56.3156 30.8772 56.1349 30.7148 56.0009 30.5185V30.5185C55.8943 30.3592 55.8216 30.181 55.7865 29.994C55.7513 29.8071 55.7549 29.6153 55.7967 29.4296C55.8384 29.2439 55.9177 29.0684 56.0299 28.9128C56.1421 28.7572 56.2849 28.6249 56.4501 28.5234C56.7853 28.3299 57.1837 28.267 57.5645 28.348C57.9453 28.429 58.2798 28.6476 58.5013 28.9596C58.7113 29.2798 58.7856 29.6671 58.7079 30.0393C58.6302 30.4116 58.4068 30.7398 58.085 30.955C57.8236 31.1061 57.5234 31.182 57.2194 31.1735V31.1735ZM36.2554 28.0557C36.0384 28.0529 35.8238 28.0071 35.6254 27.9213C35.4271 27.8356 35.2487 27.7116 35.1011 27.5567C34.8348 27.2892 34.6863 26.9316 34.6863 26.5592C34.6863 26.1868 34.8348 25.8288 35.1011 25.5613V25.5613C35.2502 25.4399 35.4225 25.3486 35.6082 25.2922C35.7939 25.2359 35.9897 25.2159 36.1834 25.2332C36.3771 25.2506 36.5648 25.305 36.7367 25.3935C36.9086 25.4819 37.0613 25.6027 37.1851 25.7486C37.315 25.8944 37.4131 26.0639 37.4739 26.2475C37.5347 26.4311 37.5568 26.6251 37.5389 26.8172C37.5209 27.0094 37.4629 27.1957 37.369 27.3657C37.2752 27.5356 37.1473 27.6853 36.9926 27.806C36.8079 28.0515 36.5508 28.2365 36.2554 28.3362V28.0557ZM51.2569 25.9666C51.0783 26.0129 50.8907 26.0129 50.7122 25.9666V25.9666C50.5311 25.8893 50.3674 25.7773 50.2317 25.6374C50.096 25.4975 49.9906 25.3325 49.9218 25.1522C49.853 24.9718 49.8227 24.7799 49.8318 24.5878C49.8408 24.3956 49.8895 24.2071 49.975 24.0336C50.1481 23.6891 50.4533 23.4243 50.8249 23.296C51.1964 23.1678 51.6043 23.1865 51.962 23.3478V23.3478C52.3196 23.5049 52.6001 23.7915 52.7438 24.1467C52.8875 24.5018 52.8829 24.8976 52.7313 25.2496C52.6034 25.5218 52.3947 25.7505 52.1318 25.9061C51.869 26.0617 51.5642 26.1373 51.2569 26.1227V25.9666ZM43.4678 24.8755C43.1042 24.8794 42.7515 24.7553 42.4746 24.5261C42.1978 24.2969 42.0154 23.978 41.9613 23.6283C41.9247 23.4433 41.9275 23.253 41.9699 23.0692C42.0122 22.8854 42.0935 22.7121 42.2078 22.56C42.3221 22.4079 42.4671 22.2802 42.6343 22.1851C42.8015 22.09 42.9867 22.0293 43.179 22.007C43.5677 21.9703 43.9565 22.0787 44.266 22.3103C44.5755 22.5419 44.7826 22.8794 44.8459 23.2542C44.8727 23.4451 44.8596 23.6395 44.8075 23.8254C44.7555 24.0114 44.6657 24.1849 44.543 24.3362C44.4204 24.4875 44.2676 24.6135 44.0938 24.7061C43.9201 24.7987 43.7291 24.8563 43.5319 24.8755H43.4678Z" fill="#0F3384"/>
<path d="M54.6936 36.3963H48.8329C48.5932 35.6978 48.1256 35.0896 47.4972 34.6589C46.8689 34.2283 46.1128 33.9974 45.3372 34C44.3569 34 43.4167 34.369 42.7235 35.0254C42.0303 35.6817 41.6406 36.572 41.6406 37.5002C41.6406 38.4284 42.0303 39.3183 42.7235 39.9746C43.4167 40.631 44.3569 41 45.3372 41C46.1128 41.0026 46.8689 40.7717 47.4972 40.341C48.1256 39.9104 48.5932 39.3022 48.8329 38.6037H54.6936C55.0027 38.6037 55.2994 38.4873 55.5179 38.2804C55.7365 38.0734 55.8594 37.7929 55.8594 37.5002C55.8594 37.2075 55.7365 36.9266 55.5179 36.7196C55.2994 36.5127 55.0027 36.3963 54.6936 36.3963ZM45.3372 38.8242C44.9663 38.8242 44.6101 38.6846 44.3478 38.4362C44.0855 38.1879 43.9381 37.8514 43.9381 37.5002C43.9381 37.149 44.0855 36.8121 44.3478 36.5638C44.6101 36.3154 44.9663 36.1758 45.3372 36.1758C45.7081 36.1758 46.0635 36.3154 46.3257 36.5638C46.588 36.8121 46.7355 37.149 46.7355 37.5002C46.7355 37.8514 46.588 38.1879 46.3257 38.4362C46.0635 38.6846 45.7081 38.8242 45.3372 38.8242V38.8242Z" fill="#0F3384"/>
</svg>
