<svg width="627" height="400" viewBox="0 0 627 400" fill="none" xmlns="http://www.w3.org/2000/svg">
<rect width="627" height="400" fill="white"/>
<path d="M86.4 129H69.6C65.9549 129 63 131.955 63 135.6V152.4C63 156.045 65.9549 159 69.6 159H86.4C90.0451 159 93 156.045 93 152.4V135.6C93 131.955 90.0451 129 86.4 129Z" fill="#FFFC00"/>
<path d="M89.6581 149.238C89.4961 148.794 89.1841 148.554 88.8301 148.362C88.7641 148.326 88.7041 148.29 88.6501 148.266C88.5421 148.212 88.4341 148.158 88.3261 148.104C87.2221 147.516 86.3581 146.784 85.7641 145.908C85.5961 145.662 85.4461 145.398 85.3261 145.128C85.2721 144.984 85.2781 144.9 85.3141 144.822C85.3501 144.762 85.3981 144.714 85.4581 144.672C85.6501 144.546 85.8421 144.42 85.9741 144.336C86.2081 144.18 86.4001 144.06 86.5201 143.976C86.9701 143.658 87.2881 143.322 87.4861 142.944C87.7681 142.416 87.8041 141.798 87.5881 141.24C87.2881 140.448 86.5441 139.962 85.6381 139.962C85.4461 139.962 85.2601 139.98 85.0681 140.022C85.0201 140.034 84.9661 140.046 84.9181 140.058C84.9241 139.518 84.9121 138.948 84.8641 138.384C84.6961 136.41 84.0001 135.378 83.2801 134.556C82.8181 134.04 82.2781 133.602 81.6721 133.26C80.5801 132.636 79.3381 132.318 77.9881 132.318C76.6381 132.318 75.4021 132.636 74.3101 133.26C73.7041 133.602 73.1641 134.04 72.7021 134.556C71.9821 135.378 71.2921 136.416 71.1181 138.384C71.0701 138.948 71.0581 139.518 71.0641 140.058C71.0161 140.046 70.9681 140.034 70.9141 140.022C70.7281 139.98 70.5361 139.962 70.3501 139.962C69.4441 139.962 68.7001 140.454 68.4001 141.24C68.1841 141.798 68.2201 142.416 68.5021 142.944C68.7001 143.322 69.0181 143.658 69.4681 143.976C69.5881 144.06 69.7741 144.18 70.0141 144.336C70.1401 144.42 70.3261 144.54 70.5121 144.66C70.5781 144.702 70.6321 144.756 70.6741 144.822C70.7101 144.9 70.7161 144.984 70.6561 145.14C70.5361 145.404 70.3921 145.662 70.2241 145.902C69.6421 146.754 68.8021 147.48 67.7341 148.062C67.1701 148.362 66.5821 148.56 66.3301 149.238C66.1441 149.748 66.2641 150.324 66.7381 150.816C66.9121 150.996 67.1161 151.152 67.3381 151.272C67.8001 151.524 68.2921 151.722 68.8081 151.86C68.9161 151.89 69.0121 151.932 69.1021 151.992C69.2761 152.142 69.2521 152.37 69.4801 152.706C69.5941 152.88 69.7441 153.03 69.9121 153.15C70.3981 153.486 70.9441 153.504 71.5201 153.528C72.0421 153.546 72.6301 153.57 73.3081 153.792C73.5901 153.882 73.8781 154.062 74.2141 154.272C75.0241 154.77 76.1281 155.448 77.9821 155.448C79.8361 155.448 80.9461 154.764 81.7621 154.266C82.0981 154.062 82.3861 153.882 82.6561 153.792C83.3281 153.57 83.9221 153.546 84.4441 153.528C85.0201 153.504 85.5661 153.486 86.0521 153.15C86.2561 153.006 86.4241 152.826 86.5441 152.61C86.7121 152.328 86.7061 152.13 86.8621 151.992C86.9461 151.932 87.0421 151.89 87.1381 151.866C87.6541 151.728 88.1581 151.53 88.6261 151.272C88.8601 151.146 89.0761 150.978 89.2561 150.78L89.2621 150.774C89.7301 150.294 89.8441 149.73 89.6581 149.238Z" fill="white"/>
<path d="M89.6581 149.238C89.4961 148.794 89.1841 148.554 88.8301 148.362C88.7641 148.326 88.7041 148.29 88.6501 148.266C88.5421 148.212 88.4341 148.158 88.3261 148.104C87.2221 147.516 86.3581 146.784 85.7641 145.908C85.5961 145.662 85.4461 145.398 85.3261 145.128C85.2721 144.984 85.2781 144.9 85.3141 144.822C85.3501 144.762 85.3981 144.714 85.4581 144.672C85.6501 144.546 85.8421 144.42 85.9741 144.336C86.2081 144.18 86.4001 144.06 86.5201 143.976C86.9701 143.658 87.2881 143.322 87.4861 142.944C87.7681 142.416 87.8041 141.798 87.5881 141.24C87.2881 140.448 86.5441 139.962 85.6381 139.962C85.4461 139.962 85.2601 139.98 85.0681 140.022C85.0201 140.034 84.9661 140.046 84.9181 140.058C84.9241 139.518 84.9121 138.948 84.8641 138.384C84.6961 136.41 84.0001 135.378 83.2801 134.556C82.8181 134.04 82.2781 133.602 81.6721 133.26C80.5801 132.636 79.3381 132.318 77.9881 132.318C76.6381 132.318 75.4021 132.636 74.3101 133.26C73.7041 133.602 73.1641 134.04 72.7021 134.556C71.9821 135.378 71.2921 136.416 71.1181 138.384C71.0701 138.948 71.0581 139.518 71.0641 140.058C71.0161 140.046 70.9681 140.034 70.9141 140.022C70.7281 139.98 70.5361 139.962 70.3501 139.962C69.4441 139.962 68.7001 140.454 68.4001 141.24C68.1841 141.798 68.2201 142.416 68.5021 142.944C68.7001 143.322 69.0181 143.658 69.4681 143.976C69.5881 144.06 69.7741 144.18 70.0141 144.336C70.1401 144.42 70.3261 144.54 70.5121 144.66C70.5781 144.702 70.6321 144.756 70.6741 144.822C70.7101 144.9 70.7161 144.984 70.6561 145.14C70.5361 145.404 70.3921 145.662 70.2241 145.902C69.6421 146.754 68.8021 147.48 67.7341 148.062C67.1701 148.362 66.5821 148.56 66.3301 149.238C66.1441 149.748 66.2641 150.324 66.7381 150.816C66.9121 150.996 67.1161 151.152 67.3381 151.272C67.8001 151.524 68.2921 151.722 68.8081 151.86C68.9161 151.89 69.0121 151.932 69.1021 151.992C69.2761 152.142 69.2521 152.37 69.4801 152.706C69.5941 152.88 69.7441 153.03 69.9121 153.15C70.3981 153.486 70.9441 153.504 71.5201 153.528C72.0421 153.546 72.6301 153.57 73.3081 153.792C73.5901 153.882 73.8781 154.062 74.2141 154.272C75.0241 154.77 76.1281 155.448 77.9821 155.448C79.8361 155.448 80.9461 154.764 81.7621 154.266C82.0981 154.062 82.3861 153.882 82.6561 153.792C83.3281 153.57 83.9221 153.546 84.4441 153.528C85.0201 153.504 85.5661 153.486 86.0521 153.15C86.2561 153.006 86.4241 152.826 86.5441 152.61C86.7121 152.328 86.7061 152.13 86.8621 151.992C86.9461 151.932 87.0421 151.89 87.1381 151.866C87.6541 151.728 88.1581 151.53 88.6261 151.272C88.8601 151.146 89.0761 150.978 89.2561 150.78L89.2621 150.774C89.7301 150.294 89.8441 149.73 89.6581 149.238ZM88.0141 150.12C87.0121 150.672 86.3401 150.612 85.8241 150.948C85.3801 151.23 85.6441 151.842 85.3261 152.064C84.9301 152.334 83.7661 152.046 82.2661 152.544C81.0241 152.952 80.2381 154.134 78.0061 154.134C75.7741 154.134 75.0061 152.958 73.7461 152.544C72.2461 152.046 71.0821 152.34 70.6861 152.064C70.3681 151.842 70.6261 151.23 70.1881 150.948C69.6661 150.612 69.0001 150.672 67.9981 150.12C67.3561 149.766 67.7221 149.55 67.9321 149.448C71.5681 147.69 72.1501 144.972 72.1741 144.768C72.2041 144.522 72.2401 144.33 71.9701 144.084C71.7121 143.844 70.5601 143.13 70.2361 142.908C69.7081 142.536 69.4741 142.17 69.6481 141.714C69.7681 141.402 70.0621 141.282 70.3681 141.282C70.4641 141.282 70.5601 141.294 70.6561 141.312C71.2381 141.438 71.8021 141.726 72.1261 141.81C72.1681 141.822 72.2041 141.828 72.2461 141.828C72.4201 141.828 72.4801 141.738 72.4681 141.54C72.4321 140.904 72.3421 139.668 72.4441 138.51C72.5821 136.92 73.0921 136.128 73.7041 135.432C73.9981 135.096 75.3721 133.644 78.0061 133.644C80.6401 133.644 82.0141 135.09 82.3081 135.426C82.9201 136.122 83.4301 136.914 83.5681 138.504C83.6701 139.662 83.5801 140.898 83.5381 141.534C83.5261 141.744 83.5861 141.822 83.7601 141.822C83.8021 141.822 83.8381 141.816 83.8801 141.804C84.2041 141.726 84.7681 141.432 85.3501 141.306C85.4461 141.282 85.5421 141.276 85.6381 141.276C85.9441 141.276 86.2381 141.396 86.3581 141.708C86.5321 142.164 86.2981 142.53 85.7701 142.902C85.4521 143.124 84.3001 143.838 84.0361 144.078C83.7661 144.324 83.8021 144.516 83.8321 144.762C83.8561 144.966 84.4381 147.684 88.0741 149.442C88.2901 149.544 88.6501 149.766 88.0141 150.12Z" fill="black"/>
<mask id="mask0_545_1546" style="mask-type:alpha" maskUnits="userSpaceOnUse" x="67" y="192" width="23" height="14">
<path d="M67 192.31H89.3464V205.239H67V192.31Z" fill="white"/>
</mask>
<g mask="url(#mask0_545_1546)">
<path fill-rule="evenodd" clip-rule="evenodd" d="M66.9999 205.239H87.9258C87.9258 205.239 94.4821 182.578 79.4247 197.257C74.2389 202.315 66.9999 205.239 66.9999 205.239Z" fill="#94C132"/>
</g>
<mask id="mask1_545_1546" style="mask-type:alpha" maskUnits="userSpaceOnUse" x="67" y="183" width="19" height="21">
<path d="M67.6216 183H85.3296V203.155H67.6216V183Z" fill="white"/>
</mask>
<g mask="url(#mask1_545_1546)">
<path fill-rule="evenodd" clip-rule="evenodd" d="M67.6212 203.155C67.6212 203.155 72.644 200.618 77.3394 196.508C81.4611 192.9 85.3293 187.654 85.3293 187.654L84.0551 183L79.9869 185.737C79.9869 185.737 78.215 190.287 75.2694 194.435C72.0445 198.977 67.6212 203.155 67.6212 203.155Z" fill="#94C132"/>
</g>
<path d="M77 253C76.4478 253 76 253.672 76 254.5C76 255.328 76.4478 256 77 256C77.5522 256 78 255.328 78 254.5C78.0049 253.672 77.5572 253 77 253Z" fill="#24CDC8"/>
<path d="M79.96 244.366L79.6343 244.04C79.5811 243.987 79.4922 243.987 79.433 244.04L78.1007 245.372C78.0474 245.426 77.9585 245.426 77.8993 245.372L76.567 244.04C76.5078 243.987 76.4189 243.987 76.3657 244.04L76.04 244.366C75.9867 244.419 75.9867 244.514 76.04 244.567L77.3723 245.899C77.4256 245.953 77.4256 246.041 77.3723 246.101L76.04 247.433C75.9867 247.486 75.9867 247.575 76.04 247.634L76.3657 247.96C76.4189 248.013 76.5078 248.013 76.567 247.96L77.8993 246.628C77.9526 246.574 78.0415 246.574 78.1007 246.628L79.433 247.96C79.4863 248.013 79.5751 248.013 79.6343 247.96L79.96 247.634C80.0133 247.581 80.0133 247.492 79.96 247.433L78.6277 246.101C78.5744 246.047 78.5744 245.959 78.6277 245.899L79.96 244.567C80.0133 244.508 80.0133 244.419 79.96 244.366Z" fill="#24CDC8"/>
<path d="M68.0395 233.088C67.9704 233.088 67.9119 233.03 67.9119 232.961V230.128C67.9119 230.058 67.8535 230 67.7844 230H67.2156C67.1465 230 67.0881 230.058 67.0881 230.128V232.961C67.0881 233.03 67.0296 233.088 66.9605 233.088H64.1276C64.0585 233.088 64 233.147 64 233.216V233.784C64 233.853 64.0585 233.912 64.1276 233.912H66.9605C67.0296 233.912 67.0881 233.965 67.0881 234.039V236.872C67.0881 236.942 67.1465 237 67.2156 237H67.7844C67.8535 237 67.9119 236.942 67.9119 236.872V234.039C67.9119 233.97 67.9704 233.912 68.0395 233.912H70.8724C70.9415 233.912 71 233.853 71 233.784V233.216C71 233.147 70.9415 233.088 70.8724 233.088H68.0395Z" fill="#24CDC8"/>
<path d="M73 237C71.3439 237 70 238.568 70 240.5C70 242.432 71.3439 244 73 244C74.6561 244 76 242.432 76 240.5C76 238.568 74.6561 237 73 237Z" fill="#24CDC8"/>
<path d="M72.1857 253H75.8143C75.9149 253 76 252.915 76 252.814V249.186C76 249.085 75.9149 249 75.8143 249H72.1857C72.0851 249 72 249.085 72 249.186V252.814C72 252.915 72.0851 253 72.1857 253Z" fill="#24CDC8"/>
<path d="M77 260L86.6642 234H92L82.3247 260H77Z" fill="#24CDC8"/>
<path d="M77.5 362C86.0604 362 93 355.06 93 346.5C93 337.94 86.0604 331 77.5 331C68.9396 331 62 337.94 62 346.5C62 355.06 68.9396 362 77.5 362Z" fill="#3C5A9A"/>
<path d="M82.6515 335.743H79.1996C77.1511 335.743 74.8726 336.601 74.8726 339.559C74.8826 340.59 74.8726 341.576 74.8726 342.687H72.5027V346.443H74.9459V357.257H79.4354V346.372H82.3986L82.6667 342.677H79.358C79.358 342.677 79.3654 341.033 79.358 340.555C79.358 339.387 80.579 339.454 80.6525 339.454C81.2335 339.454 82.3632 339.455 82.6532 339.454V335.743H82.6515Z" fill="white"/>
<path d="M88.6432 300.665C86.9657 300.665 85.6012 302.03 85.6012 303.707C85.6012 305.385 86.9657 306.749 88.6432 306.749C90.3208 306.749 91.6853 305.385 91.6853 303.707C91.6853 302.03 90.3208 300.665 88.6432 300.665ZM90.442 303.707C90.442 304.699 89.6349 305.506 88.6432 305.506C87.6515 305.506 86.8444 304.699 86.8444 303.707C86.8444 302.716 87.6515 301.908 88.6432 301.908C89.6349 301.908 90.442 302.716 90.442 303.707Z" fill="#0599C5"/>
<path d="M68.042 300.665C66.3645 300.665 65 302.03 65 303.707C65 305.385 66.3645 306.749 68.042 306.749C69.7196 306.749 71.0841 305.385 71.0841 303.707C71.0859 302.03 69.7196 300.665 68.042 300.665ZM69.8427 303.707C69.8427 304.699 69.0355 305.506 68.0439 305.506C67.0522 305.506 66.245 304.699 66.245 303.707C66.245 302.716 67.0522 301.908 68.0439 301.908C69.0355 301.908 69.8427 302.716 69.8427 303.707Z" fill="#0599C5"/>
<path d="M78.3426 284C76.665 284 75.3005 285.365 75.3005 287.042C75.3005 288.72 76.665 290.084 78.3426 290.084C80.0201 290.084 81.3846 288.72 81.3846 287.042C81.3846 285.365 80.0201 284 78.3426 284ZM80.1414 287.042C80.1414 288.034 79.3343 288.841 78.3426 288.841C77.3509 288.841 76.5438 288.034 76.5438 287.042C76.5438 286.05 77.3509 285.243 78.3426 285.243C79.3343 285.243 80.1414 286.05 80.1414 287.042Z" fill="#0599C5"/>
<path d="M87.5175 301.004L80.8001 288.906L80.7349 288.788L80.6517 288.893C80.4201 289.181 80.1377 289.415 79.8156 289.586L79.7342 289.63L79.7794 289.709L85.726 300.419C83.6503 299.954 81.0697 299.699 78.4312 299.699C75.5177 299.699 72.9281 299.947 70.9211 300.414L76.8659 289.708L76.9111 289.628L76.8297 289.585C76.5058 289.411 76.2253 289.177 75.9936 288.892L75.9104 288.787L75.8452 288.904L69.1278 301.002L69.0753 301.096L69.1766 301.132C69.506 301.248 69.8082 301.657 70.0742 301.892L70.1195 301.932L70.1738 301.907L70.1955 301.903C72.3399 301.309 75.1865 300.995 78.433 300.995C81.3538 300.995 84.1878 301.315 86.4173 301.898L86.4625 301.984L86.5494 301.914L86.5675 301.899C86.8389 301.66 87.1411 301.25 87.4723 301.134L87.5736 301.099L87.5175 301.004Z" fill="#0599C5"/>
<g clip-path="url(#clip0_545_1546)">
<path d="M420.776 37.3782C422.172 39.3961 422.905 41.7979 422.874 44.251C422.874 44.2704 422.88 44.2894 422.891 44.3051C422.903 44.3207 422.919 44.332 422.938 44.3374C422.956 44.3427 422.976 44.3418 422.994 44.3346C423.012 44.3275 423.028 44.3146 423.038 44.2979C423.225 43.9816 423.395 43.6558 423.548 43.3217C424.115 42.0744 424.426 40.7261 424.464 39.3565C424.501 37.9869 424.264 36.6237 423.765 35.3474C422.633 34.4454 421.331 33.7809 419.936 33.3933C418.542 33.0058 417.084 32.9032 415.648 33.0918C415.629 33.0944 415.611 33.1034 415.597 33.1173C415.584 33.1312 415.575 33.1493 415.573 33.1687C415.57 33.1881 415.575 33.2077 415.585 33.2244C415.595 33.2411 415.61 33.254 415.628 33.2611C417.712 34.0971 419.503 35.5293 420.776 37.3782V37.3782Z" fill="#3186F2"/>
<path d="M424.689 43.8207C423.646 46.16 421.859 48.0887 419.606 49.3061C419.59 49.3162 419.578 49.331 419.572 49.3483C419.565 49.3656 419.564 49.3846 419.569 49.4025C419.574 49.4204 419.584 49.4364 419.598 49.4481C419.613 49.4598 419.631 49.4666 419.649 49.4677C420.188 49.4697 420.727 49.4284 421.259 49.3443C423.839 48.9356 426.18 47.599 427.843 45.5857C428.064 44.1435 427.991 42.6715 427.628 41.2584C427.265 39.8453 426.62 38.5202 425.731 37.3629C425.719 37.3473 425.702 37.3362 425.684 37.3312C425.665 37.3262 425.645 37.3277 425.627 37.3354C425.609 37.343 425.594 37.3565 425.584 37.3736C425.575 37.3907 425.571 37.4105 425.574 37.4298C425.89 39.6009 425.583 41.8172 424.689 43.8207V43.8207Z" fill="#3186F2"/>
<path d="M413.476 37.3361C415.806 37.1776 418.127 37.7534 420.113 38.9826C420.129 38.993 420.149 38.9975 420.168 38.9955C420.188 38.9936 420.206 38.9852 420.22 38.9717C420.234 38.9582 420.243 38.9404 420.246 38.9211C420.249 38.9018 420.246 38.8821 420.236 38.865C420.087 38.603 419.926 38.3462 419.752 38.0944C418.965 36.9502 417.953 35.9782 416.779 35.2377C415.604 34.4971 414.29 34.0035 412.919 33.7869C411.569 34.3273 410.34 35.1293 409.302 36.1467C408.263 37.1641 407.437 38.3768 406.869 39.715C406.862 39.7329 406.861 39.7527 406.866 39.7714C406.871 39.79 406.882 39.8065 406.897 39.8183C406.912 39.83 406.931 39.8364 406.95 39.8364C406.97 39.8364 406.989 39.83 407.004 39.8183C408.873 38.3765 411.123 37.5135 413.476 37.3361V37.3361Z" fill="#3186F2"/>
<path d="M421.468 50.5797C420.87 50.6746 420.266 50.7219 419.661 50.7212C417.523 50.7098 415.433 50.0871 413.638 48.9265C413.621 48.9159 413.602 48.911 413.582 48.9126C413.563 48.9143 413.544 48.9224 413.53 48.9357C413.516 48.9489 413.506 48.9666 413.503 48.9859C413.5 49.0052 413.503 49.025 413.512 49.0422C413.713 49.4023 413.937 49.7491 414.182 50.0806C415.858 52.2864 418.309 53.7736 421.04 54.2417C422.395 53.701 423.629 52.8969 424.67 51.8758C425.712 50.8548 426.54 49.6372 427.108 48.2935C427.116 48.2755 427.117 48.2555 427.112 48.2365C427.107 48.2176 427.096 48.2009 427.08 48.189C427.065 48.1772 427.046 48.1709 427.026 48.1711C427.006 48.1713 426.987 48.1781 426.972 48.1903C425.366 49.4342 423.473 50.2557 421.468 50.5797Z" fill="#3186F2"/>
<path d="M413.193 50.8379C411.677 48.8087 410.908 46.3179 411.018 43.7872C411.019 43.7676 411.013 43.7481 411.002 43.732C410.991 43.7158 410.974 43.7039 410.956 43.6982C410.937 43.6925 410.916 43.6932 410.898 43.7004C410.88 43.7075 410.864 43.7206 410.854 43.7375C410.695 44.002 410.548 44.2739 410.414 44.5531C409.839 45.806 409.52 47.1607 409.474 48.5383C409.428 49.9159 409.657 51.2888 410.147 52.5771C411.289 53.5052 412.608 54.1907 414.024 54.5915C415.44 54.9923 416.923 55.1 418.382 54.9082C418.401 54.9054 418.419 54.8964 418.433 54.8824C418.446 54.8684 418.455 54.8503 418.457 54.831C418.459 54.8116 418.455 54.792 418.445 54.7754C418.435 54.7587 418.419 54.7459 418.401 54.7389C416.343 53.9366 414.542 52.5878 413.193 50.8379V50.8379Z" fill="#3186F2"/>
<path d="M409.166 44.1028C410.171 41.7777 411.949 39.8711 414.198 38.7054C414.215 38.6962 414.229 38.6817 414.236 38.6642C414.244 38.6466 414.246 38.6268 414.242 38.608C414.238 38.5892 414.227 38.5724 414.212 38.56C414.198 38.5477 414.179 38.5407 414.16 38.5399C413.851 38.5332 413.541 38.5399 413.233 38.5629C411.86 38.6884 410.526 39.0858 409.309 39.7319C408.091 40.378 407.014 41.2599 406.141 42.3263C405.904 43.7787 405.967 45.264 406.324 46.6914C406.681 48.1189 407.326 49.4585 408.218 50.6285C408.23 50.6442 408.247 50.6554 408.266 50.6604C408.285 50.6654 408.305 50.6639 408.323 50.6561C408.341 50.6483 408.356 50.6346 408.366 50.6173C408.375 50.6 408.378 50.58 408.375 50.5606C408.046 48.3762 408.319 46.1433 409.166 44.1028V44.1028Z" fill="#3186F2"/>
</g>
<path d="M107 91C106.724 91 106.5 91.2239 106.5 91.5C106.5 91.7761 106.724 92 107 92V91ZM107 92H107.974V91H107V92ZM109.921 92H111.868V91H109.921V92ZM113.816 92H115.763V91H113.816V92ZM117.711 92H119.658V91H117.711V92ZM121.605 92H123.553V91H121.605V92ZM125.5 92H127.447V91H125.5V92ZM129.395 92H131.342V91H129.395V92ZM133.289 92H135.237V91H133.289V92ZM137.184 92H139.132V91H137.184V92ZM141.079 92H143.026V91H141.079V92ZM144.974 92H146.921V91H144.974V92ZM148.868 92H150.816V91H148.868V92ZM152.763 92H154.711V91H152.763V92ZM156.658 92H158.605V91H156.658V92ZM160.553 92H162.5V91H160.553V92ZM164.447 92H166.395V91H164.447V92ZM168.342 92H170.289V91H168.342V92ZM172.237 92H174.184V91H172.237V92ZM176.132 92H178.079V91H176.132V92ZM180.026 92H181V91H180.026V92Z" fill="#3186F2"/>
<circle cx="104.5" cy="91.5" r="2.5" fill="#3186F2"/>
<path d="M107 143C106.724 143 106.5 143.224 106.5 143.5C106.5 143.776 106.724 144 107 144V143ZM107 144H107.974V143H107V144ZM109.921 144H111.868V143H109.921V144ZM113.816 144H115.763V143H113.816V144ZM117.711 144H119.658V143H117.711V144ZM121.605 144H123.553V143H121.605V144ZM125.5 144H127.447V143H125.5V144ZM129.395 144H131.342V143H129.395V144ZM133.289 144H135.237V143H133.289V144ZM137.184 144H139.132V143H137.184V144ZM141.079 144H143.026V143H141.079V144ZM144.974 144H146.921V143H144.974V144ZM148.868 144H150.816V143H148.868V144ZM152.763 144H154.711V143H152.763V144ZM156.658 144H158.605V143H156.658V144ZM160.553 144H162.5V143H160.553V144ZM164.447 144H166.395V143H164.447V144ZM168.342 144H170.289V143H168.342V144ZM172.237 144H174.184V143H172.237V144ZM176.132 144H178.079V143H176.132V144ZM180.026 144H181V143H180.026V144Z" fill="#3186F2"/>
<circle cx="104.5" cy="143.5" r="2.5" fill="#3186F2"/>
<path d="M107 195C106.724 195 106.5 195.224 106.5 195.5C106.5 195.776 106.724 196 107 196V195ZM107 196H107.974V195H107V196ZM109.921 196H111.868V195H109.921V196ZM113.816 196H115.763V195H113.816V196ZM117.711 196H119.658V195H117.711V196ZM121.605 196H123.553V195H121.605V196ZM125.5 196H127.447V195H125.5V196ZM129.395 196H131.342V195H129.395V196ZM133.289 196H135.237V195H133.289V196ZM137.184 196H139.132V195H137.184V196ZM141.079 196H143.026V195H141.079V196ZM144.974 196H146.921V195H144.974V196ZM148.868 196H150.816V195H148.868V196ZM152.763 196H154.711V195H152.763V196ZM156.658 196H158.605V195H156.658V196ZM160.553 196H162.5V195H160.553V196ZM164.447 196H166.395V195H164.447V196ZM168.342 196H170.289V195H168.342V196ZM172.237 196H174.184V195H172.237V196ZM176.132 196H178.079V195H176.132V196ZM180.026 196H181V195H180.026V196Z" fill="#3186F2"/>
<circle cx="104.5" cy="195.5" r="2.5" fill="#3186F2"/>
<path d="M370.19 223C369.914 223 369.69 223.224 369.69 223.5C369.69 223.776 369.914 224 370.19 224V223ZM447 223.5L442 220.613V226.387L447 223.5ZM370.19 224H371.201V223H370.19V224ZM373.222 224H375.243V223H373.222V224ZM377.265 224H379.286V223H377.265V224ZM381.307 224H383.329V223H381.307V224ZM385.35 224H387.371V223H385.35V224ZM389.392 224H391.414V223H389.392V224ZM393.435 224H395.456V223H393.435V224ZM397.478 224H399.499V223H397.478V224ZM401.52 224H403.542V223H401.52V224ZM405.563 224H407.584V223H405.563V224ZM409.606 224H411.627V223H409.606V224ZM413.648 224H415.67V223H413.648V224ZM417.691 224H419.712V223H417.691V224ZM421.734 224H423.755V223H421.734V224ZM425.776 224H427.798V223H425.776V224ZM429.819 224H431.84V223H429.819V224ZM433.862 224H435.883V223H433.862V224ZM437.904 224H439.925V223H437.904V224ZM441.947 224H443.968V223H441.947V224Z" fill="#3186F2"/>
<ellipse cx="367.595" cy="223.5" rx="2.59494" ry="2.5" fill="#3186F2"/>
<path d="M180 223C179.724 223 179.5 223.224 179.5 223.5C179.5 223.776 179.724 224 180 224V223ZM232 223.5L227 220.613V226.387L232 223.5ZM180 224H181V223H180V224ZM183 224H185V223H183V224ZM187 224H189V223H187V224ZM191 224H193V223H191V224ZM195 224H197V223H195V224ZM199 224H201V223H199V224ZM203 224H205V223H203V224ZM207 224H209V223H207V224ZM211 224H213V223H211V224ZM215 224H217V223H215V224ZM219 224H221V223H219V224ZM223 224H225V223H223V224ZM227 224H229V223H227V224Z" fill="#3186F2"/>
<path d="M107 247C106.724 247 106.5 247.224 106.5 247.5C106.5 247.776 106.724 248 107 248V247ZM107 248H107.974V247H107V248ZM109.921 248H111.868V247H109.921V248ZM113.816 248H115.763V247H113.816V248ZM117.711 248H119.658V247H117.711V248ZM121.605 248H123.553V247H121.605V248ZM125.5 248H127.447V247H125.5V248ZM129.395 248H131.342V247H129.395V248ZM133.289 248H135.237V247H133.289V248ZM137.184 248H139.132V247H137.184V248ZM141.079 248H143.026V247H141.079V248ZM144.974 248H146.921V247H144.974V248ZM148.868 248H150.816V247H148.868V248ZM152.763 248H154.711V247H152.763V248ZM156.658 248H158.605V247H156.658V248ZM160.553 248H162.5V247H160.553V248ZM164.447 248H166.395V247H164.447V248ZM168.342 248H170.289V247H168.342V248ZM172.237 248H174.184V247H172.237V248ZM176.132 248H178.079V247H176.132V248ZM180.026 248H181V247H180.026V248Z" fill="#3186F2"/>
<circle cx="104.5" cy="247.5" r="2.5" fill="#3186F2"/>
<path d="M107 299C106.724 299 106.5 299.224 106.5 299.5C106.5 299.776 106.724 300 107 300V299ZM107 300H107.974V299H107V300ZM109.921 300H111.868V299H109.921V300ZM113.816 300H115.763V299H113.816V300ZM117.711 300H119.658V299H117.711V300ZM121.605 300H123.553V299H121.605V300ZM125.5 300H127.447V299H125.5V300ZM129.395 300H131.342V299H129.395V300ZM133.289 300H135.237V299H133.289V300ZM137.184 300H139.132V299H137.184V300ZM141.079 300H143.026V299H141.079V300ZM144.974 300H146.921V299H144.974V300ZM148.868 300H150.816V299H148.868V300ZM152.763 300H154.711V299H152.763V300ZM156.658 300H158.605V299H156.658V300ZM160.553 300H162.5V299H160.553V300ZM164.447 300H166.395V299H164.447V300ZM168.342 300H170.289V299H168.342V300ZM172.237 300H174.184V299H172.237V300ZM176.132 300H178.079V299H176.132V300ZM180.026 300H181V299H180.026V300Z" fill="#3186F2"/>
<circle cx="104.5" cy="299.5" r="2.5" fill="#3186F2"/>
<path d="M107 349C106.724 349 106.5 349.224 106.5 349.5C106.5 349.776 106.724 350 107 350V349ZM107 350H107.974V349H107V350ZM109.921 350H111.868V349H109.921V350ZM113.816 350H115.763V349H113.816V350ZM117.711 350H119.658V349H117.711V350ZM121.605 350H123.553V349H121.605V350ZM125.5 350H127.447V349H125.5V350ZM129.395 350H131.342V349H129.395V350ZM133.289 350H135.237V349H133.289V350ZM137.184 350H139.132V349H137.184V350ZM141.079 350H143.026V349H141.079V350ZM144.974 350H146.921V349H144.974V350ZM148.868 350H150.816V349H148.868V350ZM152.763 350H154.711V349H152.763V350ZM156.658 350H158.605V349H156.658V350ZM160.553 350H162.5V349H160.553V350ZM164.447 350H166.395V349H164.447V350ZM168.342 350H170.289V349H168.342V350ZM172.237 350H174.184V349H172.237V350ZM176.132 350H178.079V349H176.132V350ZM180.026 350H181V349H180.026V350Z" fill="#3186F2"/>
<circle cx="104.5" cy="349.5" r="2.5" fill="#3186F2"/>
<line x1="180.5" y1="91" x2="180.5" y2="350" stroke="#3186F2" stroke-dasharray="2 2"/>
<g filter="url(#filter0_d_545_1546)">
<rect x="248" y="80" width="96" height="22" rx="11" fill="#FFBB00"/>
</g>
<g filter="url(#filter1_d_545_1546)">
<rect x="248" y="165" width="96" height="22" rx="11" fill="#E64068"/>
</g>
<g filter="url(#filter2_d_545_1546)">
<rect x="248" y="123" width="96" height="22" rx="11" fill="#0F3384"/>
</g>
<g filter="url(#filter3_d_545_1546)">
<rect x="248" y="210" width="96" height="22" rx="11" fill="#FFBB00"/>
</g>
<g filter="url(#filter4_d_545_1546)">
<rect x="248" y="252" width="96" height="22" rx="11" fill="#3186F2"/>
</g>
<g filter="url(#filter5_d_545_1546)">
<rect x="248" y="294" width="96" height="22" rx="11" fill="#3186F2"/>
</g>
<g filter="url(#filter6_d_545_1546)">
<rect x="248" y="336" width="96" height="22" rx="11" fill="#E64068"/>
</g>
<path d="M86.9589 39.1463V46.3771L81.8787 39.1463H80.1007V51H82.4376V43.7523L87.5177 51H89.2957V39.1463H86.9589ZM93.2388 47.664H99.6229C99.6737 47.3762 99.7075 47.0883 99.7075 46.7666C99.7075 44.2773 97.9295 42.296 95.4233 42.296C92.7647 42.296 90.9527 44.2434 90.9527 46.7666C90.9527 49.2897 92.7477 51.2371 95.5926 51.2371C97.2183 51.2371 98.4883 50.5767 99.2842 49.4252L97.5231 48.4091C97.1505 48.9002 96.4732 49.2558 95.6265 49.2558C94.475 49.2558 93.5436 48.7817 93.2388 47.664ZM93.2049 45.9707C93.4589 44.8869 94.2548 44.2603 95.4233 44.2603C96.3377 44.2603 97.2521 44.7514 97.5231 45.9707H93.2049ZM105.828 44.6329V42.5331H103.914V40.1624L101.73 40.8228V42.5331H100.256V44.6329H101.73V48.1551C101.73 50.4412 102.762 51.3387 105.828 51V49.0187C104.574 49.0865 103.914 49.0695 103.914 48.1551V44.6329H105.828ZM117.034 42.5331L115.594 47.7487L114.053 42.5331H111.987L110.446 47.7318L109.007 42.5331H106.687L109.38 51H111.462L113.02 45.8691L114.578 51H116.661L119.354 42.5331H117.034ZM124.231 51.2371C126.72 51.2371 128.718 49.2897 128.718 46.7666C128.718 44.2434 126.72 42.296 124.231 42.296C121.741 42.296 119.76 44.2434 119.76 46.7666C119.76 49.2897 121.741 51.2371 124.231 51.2371ZM124.231 49.1034C122.944 49.1034 121.945 48.1382 121.945 46.7666C121.945 45.3949 122.944 44.4297 124.231 44.4297C125.534 44.4297 126.534 45.3949 126.534 46.7666C126.534 48.1382 125.534 49.1034 124.231 49.1034ZM132.439 43.9894V42.5331H130.255V51H132.439V46.9528C132.439 45.1748 133.879 44.6668 135.013 44.8022V42.3638C133.946 42.3638 132.88 42.8379 132.439 43.9894ZM144.097 51L140.592 46.7157L143.996 42.5331H141.388L138.475 46.2585V39.1463H136.291V51H138.475V47.156L141.557 51H144.097ZM146.64 44.9377C146.64 44.4805 147.081 44.2434 147.623 44.2434C148.249 44.2434 148.723 44.5652 148.977 45.107L150.84 44.091C150.18 42.9226 148.994 42.296 147.623 42.296C145.878 42.296 144.405 43.2613 144.405 44.9885C144.405 47.9689 148.774 47.2915 148.774 48.5277C148.774 49.0187 148.3 49.2558 147.606 49.2558C146.759 49.2558 146.183 48.8494 145.946 48.1551L144.05 49.222C144.659 50.5259 145.912 51.2371 147.606 51.2371C149.418 51.2371 151.009 50.3565 151.009 48.5277C151.009 45.4118 146.64 46.1908 146.64 44.9377Z" fill="#2A3544"/>
<path d="M74.5858 82.6167C71.8423 83.5554 69.5045 85.6085 68.2024 88.2066C67.7482 89.103 67.4212 90.0538 67.2213 91.041C66.7247 93.4878 67.0699 96.098 68.1964 98.3268C68.9292 99.7803 69.983 101.076 71.2548 102.088C72.46 103.045 73.859 103.759 75.3489 104.153C77.2264 104.656 79.2249 104.644 81.1145 104.214C82.8224 103.82 84.4394 103.002 85.7294 101.815C87.0921 100.562 88.0672 98.9142 88.582 97.1397C89.1452 95.2078 89.2179 93.1425 88.8666 91.1561C85.3358 91.1561 81.7989 91.1561 78.268 91.1561C78.268 92.6217 78.268 94.0873 78.268 95.553C80.3151 95.553 82.3621 95.553 84.4092 95.553C84.173 96.958 83.3372 98.242 82.1562 99.0353C81.4113 99.538 80.5573 99.859 79.6731 100.016C78.7889 100.168 77.8683 100.186 76.9841 100.01C76.0817 99.8287 75.2278 99.4532 74.4768 98.9263C73.2776 98.0845 72.3631 96.8551 71.8968 95.4682C71.4183 94.057 71.4123 92.4885 71.8968 91.0834C72.2359 90.0902 72.7931 89.1757 73.532 88.4247C74.4404 87.492 75.6214 86.8258 76.8993 86.5533C77.9895 86.3231 79.1402 86.3655 80.2061 86.6865C81.1145 86.959 81.9503 87.4617 82.6347 88.1158C83.3251 87.4254 84.0155 86.735 84.7059 86.0445C85.0693 85.6751 85.4508 85.3178 85.8021 84.9362C84.7544 83.9672 83.5189 83.1859 82.1744 82.6893C79.7518 81.793 77.0265 81.7748 74.5858 82.6167Z" fill="white"/>
<path d="M74.5859 82.6166C77.0206 81.7748 79.752 81.793 82.1745 82.6832C83.519 83.1799 84.7484 83.9551 85.8022 84.9301C85.451 85.3117 85.0694 85.669 84.706 86.0384C84.0156 86.7289 83.3252 87.4193 82.6348 88.1097C81.9504 87.4556 81.1146 86.959 80.2062 86.6804C79.1403 86.3594 77.9896 86.311 76.8994 86.5472C75.6276 86.8197 74.4466 87.4859 73.5321 88.4186C72.7932 89.1635 72.2361 90.0841 71.8969 91.0773C70.6675 90.1204 69.438 89.1696 68.2025 88.2127C69.5047 85.6084 71.8424 83.5554 74.5859 82.6166Z" fill="#EA4335"/>
<path d="M67.2274 91.0349C67.4273 90.0537 67.7543 89.0968 68.2085 88.2005C69.438 89.1574 70.6674 90.1082 71.9029 91.0651C71.4184 92.4763 71.4184 94.0449 71.9029 95.4499C70.6735 96.4068 69.444 97.3637 68.2146 98.3146C67.076 96.0919 66.7308 93.4816 67.2274 91.0349Z" fill="#FBBC05"/>
<path d="M78.2681 91.15C81.7989 91.15 85.3358 91.15 88.8667 91.15C89.2179 93.1304 89.1392 95.1956 88.582 97.1336C88.0672 98.9081 87.0922 100.555 85.7295 101.809C84.5364 100.882 83.3433 99.9559 82.1502 99.0292C83.3312 98.2359 84.167 96.9519 84.4032 95.5469C82.3561 95.5469 80.3091 95.5469 78.262 95.5469C78.2681 94.0812 78.2681 92.6156 78.2681 91.15Z" fill="#4285F4"/>
<path d="M68.2025 98.3206C69.432 97.3698 70.6614 96.4129 71.8908 95.456C72.3632 96.8429 73.2717 98.0723 74.4708 98.9142C75.2218 99.4411 76.0818 99.8165 76.9782 99.9982C77.8624 100.18 78.7769 100.156 79.6672 100.004C80.5514 99.8468 81.4053 99.5258 82.1503 99.0232C83.3434 99.9498 84.5365 100.876 85.7295 101.803C84.4396 102.996 82.8225 103.808 81.1146 104.201C79.2251 104.631 77.2265 104.643 75.349 104.141C73.8592 103.747 72.4601 103.039 71.2549 102.076C69.9892 101.07 68.9354 99.7742 68.2025 98.3206Z" fill="#34A853"/>
<path d="M256.808 39.1463H252.101V51H256.808C260.077 51 262.515 48.4091 262.515 45.0732C262.515 41.7372 260.077 39.1463 256.808 39.1463ZM256.808 48.7647H254.438V41.3816H256.808C258.857 41.3816 260.28 42.8887 260.28 45.0732C260.28 47.2576 258.857 48.7647 256.808 48.7647ZM265.155 41.5171C265.9 41.5171 266.51 40.9075 266.51 40.1793C266.51 39.4511 265.9 38.8246 265.155 38.8246C264.427 38.8246 263.817 39.4511 263.817 40.1793C263.817 40.9075 264.427 41.5171 265.155 41.5171ZM264.071 51H266.256V42.5331H264.071V51ZM277.619 42.296C276.468 42.296 275.621 42.7532 275.096 43.5153C274.622 42.7363 273.843 42.296 272.793 42.296C271.709 42.296 270.913 42.7194 270.439 43.4306V42.5331H268.255V51H270.439V46.2416C270.439 44.9716 271.1 44.3281 272.031 44.3281C272.946 44.3281 273.454 44.9377 273.454 45.9368V51H275.638V46.2416C275.638 44.9716 276.248 44.3281 277.213 44.3281C278.127 44.3281 278.635 44.9377 278.635 45.9368V51H280.82V45.7844C280.82 43.6677 279.55 42.296 277.619 42.296ZM284.521 47.664H290.905C290.956 47.3762 290.99 47.0883 290.99 46.7666C290.99 44.2773 289.212 42.296 286.705 42.296C284.047 42.296 282.235 44.2434 282.235 46.7666C282.235 49.2897 284.03 51.2371 286.875 51.2371C288.5 51.2371 289.77 50.5767 290.566 49.4252L288.805 48.4091C288.433 48.9002 287.755 49.2558 286.909 49.2558C285.757 49.2558 284.826 48.7817 284.521 47.664ZM284.487 45.9707C284.741 44.8869 285.537 44.2603 286.705 44.2603C287.62 44.2603 288.534 44.7514 288.805 45.9707H284.487ZM297.222 42.296C296.088 42.296 295.207 42.7194 294.699 43.4814V42.5331H292.515V51H294.699V46.4279C294.699 44.9546 295.495 44.3281 296.562 44.3281C297.544 44.3281 298.238 44.9208 298.238 46.0723V51H300.423V45.8013C300.423 43.5491 299.017 42.296 297.222 42.296ZM304.303 44.9377C304.303 44.4805 304.743 44.2434 305.285 44.2434C305.912 44.2434 306.386 44.5652 306.64 45.107L308.503 44.091C307.842 42.9226 306.657 42.296 305.285 42.296C303.541 42.296 302.068 43.2613 302.068 44.9885C302.068 47.9689 306.437 47.2915 306.437 48.5277C306.437 49.0187 305.962 49.2558 305.268 49.2558C304.422 49.2558 303.846 48.8494 303.609 48.1551L301.712 49.222C302.322 50.5259 303.575 51.2371 305.268 51.2371C307.08 51.2371 308.672 50.3565 308.672 48.5277C308.672 45.4118 304.303 46.1908 304.303 44.9377ZM311.16 41.5171C311.906 41.5171 312.515 40.9075 312.515 40.1793C312.515 39.4511 311.906 38.8246 311.16 38.8246C310.432 38.8246 309.823 39.4511 309.823 40.1793C309.823 40.9075 310.432 41.5171 311.16 41.5171ZM310.077 51H312.261V42.5331H310.077V51ZM318.291 51.2371C320.78 51.2371 322.778 49.2897 322.778 46.7666C322.778 44.2434 320.78 42.296 318.291 42.296C315.802 42.296 313.82 44.2434 313.82 46.7666C313.82 49.2897 315.802 51.2371 318.291 51.2371ZM318.291 49.1034C317.004 49.1034 316.005 48.1382 316.005 46.7666C316.005 45.3949 317.004 44.4297 318.291 44.4297C319.595 44.4297 320.594 45.3949 320.594 46.7666C320.594 48.1382 319.595 49.1034 318.291 49.1034ZM329.023 42.296C327.888 42.296 327.007 42.7194 326.499 43.4814V42.5331H324.315V51H326.499V46.4279C326.499 44.9546 327.295 44.3281 328.362 44.3281C329.344 44.3281 330.039 44.9208 330.039 46.0723V51H332.223V45.8013C332.223 43.5491 330.818 42.296 329.023 42.296ZM336.103 44.9377C336.103 44.4805 336.544 44.2434 337.086 44.2434C337.712 44.2434 338.186 44.5652 338.44 45.107L340.303 44.091C339.643 42.9226 338.457 42.296 337.086 42.296C335.341 42.296 333.868 43.2613 333.868 44.9885C333.868 47.9689 338.237 47.2915 338.237 48.5277C338.237 49.0187 337.763 49.2558 337.069 49.2558C336.222 49.2558 335.646 48.8494 335.409 48.1551L333.513 49.222C334.122 50.5259 335.375 51.2371 337.069 51.2371C338.881 51.2371 340.472 50.3565 340.472 48.5277C340.472 45.4118 336.103 46.1908 336.103 44.9377Z" fill="#2A3544"/>
<path d="M437.148 51.2371C439.671 51.2371 441.449 49.8824 441.449 47.664C441.449 45.2425 439.451 44.616 437.571 44.0233C435.776 43.4814 435.319 43.0919 435.319 42.3638C435.319 41.6864 435.895 41.1784 436.877 41.1784C438.079 41.1784 438.723 41.8049 439.146 42.7024L441.11 41.5679C440.314 39.9084 438.824 38.9093 436.877 38.9093C434.845 38.9093 432.982 40.1962 432.982 42.4315C432.982 44.6837 434.743 45.4457 436.555 45.9707C438.316 46.4787 439.112 46.8174 439.112 47.6979C439.112 48.3583 438.621 48.951 437.216 48.951C435.742 48.951 434.913 48.2398 434.489 47.1391L432.491 48.3075C433.135 50.0686 434.726 51.2371 437.148 51.2371ZM443.955 41.5171C444.7 41.5171 445.31 40.9075 445.31 40.1793C445.31 39.4511 444.7 38.8246 443.955 38.8246C443.227 38.8246 442.618 39.4511 442.618 40.1793C442.618 40.9075 443.227 41.5171 443.955 41.5171ZM442.872 51H445.056V42.5331H442.872V51ZM451.763 42.296C450.629 42.296 449.748 42.7194 449.24 43.4814V42.5331H447.055V51H449.24V46.4279C449.24 44.9546 450.036 44.3281 451.103 44.3281C452.085 44.3281 452.779 44.9208 452.779 46.0723V51H454.964V45.8013C454.964 43.5491 453.558 42.296 451.763 42.296ZM463.314 42.5331V43.583C462.722 42.7871 461.807 42.296 460.605 42.296C458.2 42.296 456.389 44.2603 456.389 46.6311C456.389 49.0187 458.2 50.9661 460.605 50.9661C461.807 50.9661 462.722 50.4751 463.314 49.6792V50.5936C463.314 51.9314 462.468 52.6764 461.096 52.6764C459.792 52.6764 459.233 52.1515 458.878 51.4911L457.015 52.5579C457.76 53.9295 459.216 54.6238 461.028 54.6238C463.264 54.6238 465.448 53.3707 465.448 50.5936V42.5331H463.314ZM460.944 48.951C459.572 48.951 458.573 47.9858 458.573 46.6311C458.573 45.2933 459.572 44.3281 460.944 44.3281C462.315 44.3281 463.314 45.2933 463.314 46.6311C463.314 47.9858 462.315 48.951 460.944 48.951ZM473.017 42.5331V47.1052C473.017 48.5785 472.221 49.205 471.154 49.205C470.172 49.205 469.478 48.6123 469.478 47.4608V42.5331H467.293V47.7318C467.293 49.984 468.699 51.2371 470.494 51.2371C471.629 51.2371 472.509 50.8137 473.017 50.0517V51H475.202V42.5331H473.017ZM477.202 51H479.387V38.6383H477.202V51ZM487.821 42.5331V43.5322C487.211 42.7702 486.297 42.296 485.061 42.296C482.809 42.296 480.946 44.2434 480.946 46.7666C480.946 49.2897 482.809 51.2371 485.061 51.2371C486.297 51.2371 487.211 50.7629 487.821 50.0009V51H490.005V42.5331H487.821ZM485.467 49.1542C484.129 49.1542 483.13 48.189 483.13 46.7666C483.13 45.3441 484.129 44.3789 485.467 44.3789C486.822 44.3789 487.821 45.3441 487.821 46.7666C487.821 48.189 486.822 49.1542 485.467 49.1542ZM494.171 43.9894V42.5331H491.986V51H494.171V46.9528C494.171 45.1748 495.61 44.6668 496.745 44.8022V42.3638C495.678 42.3638 494.611 42.8379 494.171 43.9894ZM507.065 39.1463H502.357V51H507.065C510.333 51 512.772 48.4091 512.772 45.0732C512.772 41.7372 510.333 39.1463 507.065 39.1463ZM507.065 48.7647H504.694V41.3816H507.065C509.114 41.3816 510.536 42.8887 510.536 45.0732C510.536 47.2576 509.114 48.7647 507.065 48.7647ZM520.762 42.5331V43.5322C520.153 42.7702 519.238 42.296 518.002 42.296C515.75 42.296 513.887 44.2434 513.887 46.7666C513.887 49.2897 515.75 51.2371 518.002 51.2371C519.238 51.2371 520.153 50.7629 520.762 50.0009V51H522.947V42.5331H520.762ZM518.409 49.1542C517.071 49.1542 516.072 48.189 516.072 46.7666C516.072 45.3441 517.071 44.3789 518.409 44.3789C519.763 44.3789 520.762 45.3441 520.762 46.7666C520.762 48.189 519.763 49.1542 518.409 49.1542ZM529.771 44.6329V42.5331H527.857V40.1624L525.673 40.8228V42.5331H524.2V44.6329H525.673V48.1551C525.673 50.4412 526.706 51.3387 529.771 51V49.0187C528.518 49.0865 527.857 49.0695 527.857 48.1551V44.6329H529.771ZM537.481 42.5331V43.5322C536.872 42.7702 535.957 42.296 534.721 42.296C532.469 42.296 530.606 44.2434 530.606 46.7666C530.606 49.2897 532.469 51.2371 534.721 51.2371C535.957 51.2371 536.872 50.7629 537.481 50.0009V51H539.666V42.5331H537.481ZM535.127 49.1542C533.79 49.1542 532.791 48.189 532.791 46.7666C532.791 45.3441 533.79 44.3789 535.127 44.3789C536.482 44.3789 537.481 45.3441 537.481 46.7666C537.481 48.189 536.482 49.1542 535.127 49.1542ZM557.581 39.1463H555.177L551.79 44.7514L548.386 39.1463H545.982V51H548.319V43.329L551.654 48.8155H551.925L555.261 43.3121V51H557.581V39.1463ZM563.719 51.2371C566.208 51.2371 568.206 49.2897 568.206 46.7666C568.206 44.2434 566.208 42.296 563.719 42.296C561.229 42.296 559.248 44.2434 559.248 46.7666C559.248 49.2897 561.229 51.2371 563.719 51.2371ZM563.719 49.1034C562.432 49.1034 561.433 48.1382 561.433 46.7666C561.433 45.3949 562.432 44.4297 563.719 44.4297C565.023 44.4297 566.022 45.3949 566.022 46.7666C566.022 48.1382 565.023 49.1034 563.719 49.1034ZM576.161 39.1463V43.5322C575.551 42.7532 574.654 42.296 573.417 42.296C571.148 42.296 569.286 44.2434 569.286 46.7666C569.286 49.2897 571.148 51.2371 573.417 51.2371C574.654 51.2371 575.551 50.7799 576.161 50.0009V51H578.345V39.1463H576.161ZM573.824 49.1542C572.469 49.1542 571.47 48.189 571.47 46.7666C571.47 45.3441 572.469 44.3789 573.824 44.3789C575.162 44.3789 576.161 45.3441 576.161 46.7666C576.161 48.189 575.162 49.1542 573.824 49.1542ZM582.189 47.664H588.573C588.624 47.3762 588.657 47.0883 588.657 46.7666C588.657 44.2773 586.879 42.296 584.373 42.296C581.715 42.296 579.903 44.2434 579.903 46.7666C579.903 49.2897 581.698 51.2371 584.543 51.2371C586.168 51.2371 587.438 50.5767 588.234 49.4252L586.473 48.4091C586.1 48.9002 585.423 49.2558 584.576 49.2558C583.425 49.2558 582.494 48.7817 582.189 47.664ZM582.155 45.9707C582.409 44.8869 583.205 44.2603 584.373 44.2603C585.288 44.2603 586.202 44.7514 586.473 45.9707H582.155ZM590.182 51H592.367V38.6383H590.182V51Z" fill="#3186F2"/>
<path d="M279.17 95.156C280.73 95.156 282.098 94.34 282.794 93.104L281.822 92.552C281.342 93.464 280.322 94.064 279.17 94.064C277.202 94.064 275.882 92.636 275.882 90.8C275.882 88.952 277.202 87.524 279.17 87.524C280.322 87.524 281.342 88.124 281.822 89.048L282.794 88.484C282.086 87.248 280.718 86.444 279.17 86.444C276.602 86.444 274.778 88.376 274.778 90.8C274.778 93.212 276.602 95.156 279.17 95.156ZM286.747 95.156C288.499 95.156 289.915 93.776 289.915 92C289.915 90.224 288.499 88.844 286.747 88.844C284.995 88.844 283.591 90.224 283.591 92C283.591 93.776 284.995 95.156 286.747 95.156ZM286.747 94.136C285.559 94.136 284.635 93.212 284.635 92C284.635 90.788 285.559 89.864 286.747 89.864C287.947 89.864 288.871 90.788 288.871 92C288.871 93.212 287.947 94.136 286.747 94.136ZM295.286 89V92.18C295.286 93.596 294.506 94.16 293.546 94.16C292.622 94.16 292.058 93.608 292.058 92.624V89H291.014V92.684C291.014 94.22 291.938 95.156 293.342 95.156C294.182 95.156 294.842 94.844 295.286 94.136V95H296.33V89H295.286ZM300.907 88.844C300.067 88.844 299.407 89.156 298.963 89.864V89H297.919V95H298.963V91.82C298.963 90.404 299.743 89.84 300.703 89.84C301.627 89.84 302.191 90.392 302.191 91.376V95H303.235V91.316C303.235 89.78 302.311 88.844 300.907 88.844ZM307.956 90.008V89H306.36V87.32L305.316 87.632V89H304.128V90.008H305.316V93.26C305.316 94.76 306.156 95.24 307.956 95V94.064C306.888 94.112 306.36 94.172 306.36 93.26V90.008H307.956ZM310.272 90.008V89H309.228V95H310.272V91.82C310.272 90.404 311.244 89.948 312.144 89.984V88.892C311.388 88.892 310.656 89.168 310.272 90.008ZM317.482 89L315.754 93.704L313.714 89H312.598L315.214 94.976L315.106 95.204C314.794 95.996 314.29 96.488 313.486 96.428V97.4C314.71 97.484 315.646 96.716 316.15 95.372L318.598 89H317.482Z" fill="white"/>
<path d="M281.332 129.6H278.056V138H281.332C283.648 138 285.316 136.128 285.316 133.8C285.316 131.472 283.648 129.6 281.332 129.6ZM281.332 136.944H279.172V130.656H281.332C283.06 130.656 284.248 132.024 284.248 133.8C284.248 135.576 283.06 136.944 281.332 136.944ZM287.294 135.48H292.322C292.346 135.324 292.358 135.168 292.358 135.012C292.358 133.332 291.182 131.844 289.37 131.844C287.498 131.844 286.226 133.224 286.226 135C286.226 136.8 287.51 138.156 289.442 138.156C290.642 138.156 291.554 137.616 292.082 136.8L291.194 136.296C290.894 136.788 290.294 137.172 289.466 137.172C288.35 137.172 287.498 136.56 287.294 135.48ZM289.37 132.828C290.27 132.828 291.122 133.38 291.302 134.568H287.294C287.462 133.524 288.242 132.828 289.37 132.828ZM297.523 132L295.639 136.884L293.755 132H292.627L295.027 138H296.251L298.651 132H297.523ZM300.062 130.908C300.446 130.908 300.758 130.596 300.758 130.212C300.758 129.828 300.446 129.504 300.062 129.504C299.666 129.504 299.354 129.828 299.354 130.212C299.354 130.596 299.666 130.908 300.062 130.908ZM299.534 138H300.578V132H299.534V138ZM304.991 138.156C306.167 138.156 307.187 137.532 307.691 136.596L306.803 136.08C306.467 136.704 305.807 137.124 304.991 137.124C303.791 137.124 302.879 136.2 302.879 135C302.879 133.788 303.791 132.864 304.991 132.864C305.795 132.864 306.467 133.284 306.767 133.92L307.643 133.416C307.187 132.468 306.179 131.844 304.991 131.844C303.179 131.844 301.835 133.224 301.835 135C301.835 136.776 303.179 138.156 304.991 138.156ZM309.372 135.48H314.4C314.424 135.324 314.436 135.168 314.436 135.012C314.436 133.332 313.26 131.844 311.448 131.844C309.576 131.844 308.304 133.224 308.304 135C308.304 136.8 309.588 138.156 311.52 138.156C312.72 138.156 313.632 137.616 314.16 136.8L313.272 136.296C312.972 136.788 312.372 137.172 311.544 137.172C310.428 137.172 309.576 136.56 309.372 135.48ZM311.448 132.828C312.348 132.828 313.2 133.38 313.38 134.568H309.372C309.54 133.524 310.32 132.828 311.448 132.828Z" fill="white"/>
<path d="M270.317 172.6H267.269V181H268.385V178H270.317C271.865 178 273.029 176.824 273.029 175.3C273.029 173.764 271.865 172.6 270.317 172.6ZM270.317 176.956H268.385V173.644H270.317C271.241 173.644 271.925 174.34 271.925 175.3C271.925 176.248 271.241 176.956 270.317 176.956ZM274.239 181H275.283V172.24H274.239V181ZM281.844 175V176.032C281.364 175.3 280.596 174.844 279.576 174.844C277.908 174.844 276.54 176.224 276.54 178C276.54 179.776 277.908 181.156 279.576 181.156C280.596 181.156 281.364 180.7 281.844 179.968V181H282.888V175H281.844ZM279.708 180.148C278.508 180.148 277.584 179.224 277.584 178C277.584 176.776 278.508 175.852 279.708 175.852C280.92 175.852 281.844 176.776 281.844 178C281.844 179.224 280.92 180.148 279.708 180.148ZM287.29 181.156C288.466 181.156 289.486 180.532 289.99 179.596L289.102 179.08C288.766 179.704 288.106 180.124 287.29 180.124C286.09 180.124 285.178 179.2 285.178 178C285.178 176.788 286.09 175.864 287.29 175.864C288.094 175.864 288.766 176.284 289.066 176.92L289.942 176.416C289.486 175.468 288.478 174.844 287.29 174.844C285.478 174.844 284.134 176.224 284.134 178C284.134 179.776 285.478 181.156 287.29 181.156ZM291.67 178.48H296.698C296.722 178.324 296.734 178.168 296.734 178.012C296.734 176.332 295.558 174.844 293.746 174.844C291.874 174.844 290.602 176.224 290.602 178C290.602 179.8 291.886 181.156 293.818 181.156C295.018 181.156 295.93 180.616 296.458 179.8L295.57 179.296C295.27 179.788 294.67 180.172 293.842 180.172C292.726 180.172 291.874 179.56 291.67 178.48ZM293.746 175.828C294.646 175.828 295.498 176.38 295.678 177.568H291.67C291.838 176.524 292.618 175.828 293.746 175.828ZM304.415 174.844C303.635 174.844 302.951 175.18 302.531 175.864C302.183 175.216 301.583 174.844 300.767 174.844C300.035 174.844 299.411 175.132 298.979 175.804V175H297.935V181H298.979V177.664C298.979 176.368 299.711 175.84 300.515 175.84C301.295 175.84 301.787 176.356 301.787 177.304V181H302.831V177.664C302.831 176.368 303.467 175.84 304.307 175.84C305.099 175.84 305.627 176.356 305.627 177.304V181H306.671V177.268C306.671 175.768 305.747 174.844 304.415 174.844ZM308.85 178.48H313.878C313.902 178.324 313.914 178.168 313.914 178.012C313.914 176.332 312.738 174.844 310.926 174.844C309.054 174.844 307.782 176.224 307.782 178C307.782 179.8 309.066 181.156 310.998 181.156C312.198 181.156 313.11 180.616 313.638 179.8L312.75 179.296C312.45 179.788 311.85 180.172 311.022 180.172C309.906 180.172 309.054 179.56 308.85 178.48ZM310.926 175.828C311.826 175.828 312.678 176.38 312.858 177.568H308.85C309.018 176.524 309.798 175.828 310.926 175.828ZM318.102 174.844C317.262 174.844 316.602 175.156 316.158 175.864V175H315.114V181H316.158V177.82C316.158 176.404 316.938 175.84 317.898 175.84C318.822 175.84 319.386 176.392 319.386 177.376V181H320.43V177.316C320.43 175.78 319.506 174.844 318.102 174.844ZM325.152 176.008V175H323.556V173.32L322.512 173.632V175H321.324V176.008H322.512V179.26C322.512 180.76 323.352 181.24 325.152 181V180.064C324.084 180.112 323.556 180.172 323.556 179.26V176.008H325.152Z" fill="white"/>
<path d="M293.17 219.836H288.97V220.844H292.054C291.838 222.104 290.806 223.064 289.066 223.064C287.062 223.064 285.73 221.624 285.73 219.8C285.73 217.964 287.074 216.524 289.018 216.524C290.206 216.524 291.226 217.136 291.706 218.036L292.666 217.472C291.97 216.272 290.602 215.444 289.03 215.444C286.474 215.444 284.626 217.388 284.626 219.8C284.626 222.2 286.462 224.156 289.054 224.156C291.586 224.156 293.17 222.476 293.17 220.34V219.836ZM295.151 221.48H300.179C300.203 221.324 300.215 221.168 300.215 221.012C300.215 219.332 299.039 217.844 297.227 217.844C295.355 217.844 294.083 219.224 294.083 221C294.083 222.8 295.367 224.156 297.299 224.156C298.499 224.156 299.411 223.616 299.939 222.8L299.051 222.296C298.751 222.788 298.151 223.172 297.323 223.172C296.207 223.172 295.355 222.56 295.151 221.48ZM297.227 218.828C298.127 218.828 298.979 219.38 299.159 220.568H295.151C295.319 219.524 296.099 218.828 297.227 218.828ZM304.223 224.156C305.975 224.156 307.391 222.776 307.391 221C307.391 219.224 305.975 217.844 304.223 217.844C302.471 217.844 301.067 219.224 301.067 221C301.067 222.776 302.471 224.156 304.223 224.156ZM304.223 223.136C303.035 223.136 302.111 222.212 302.111 221C302.111 219.788 303.035 218.864 304.223 218.864C305.423 218.864 306.347 219.788 306.347 221C306.347 222.212 305.423 223.136 304.223 223.136Z" fill="white"/>
<path d="M276.955 267H278.143L275.011 258.6H273.751L270.619 267H271.807L272.491 265.116H276.271L276.955 267ZM272.875 264.072L274.375 259.932L275.887 264.072H272.875ZM283.854 258.6V262.032C283.374 261.3 282.606 260.844 281.586 260.844C279.918 260.844 278.55 262.224 278.55 264C278.55 265.776 279.918 267.156 281.586 267.156C282.606 267.156 283.374 266.7 283.854 265.968V267H284.898V258.6H283.854ZM281.718 266.148C280.518 266.148 279.594 265.224 279.594 264C279.594 262.776 280.518 261.852 281.718 261.852C282.93 261.852 283.854 262.776 283.854 264C283.854 265.224 282.93 266.148 281.718 266.148ZM294.46 261V262.032C293.98 261.3 293.212 260.844 292.204 260.844C290.5 260.844 289.144 262.224 289.144 263.964C289.144 265.716 290.5 267.096 292.204 267.096C293.212 267.096 293.98 266.628 294.46 265.896V266.748C294.46 267.876 293.704 268.584 292.456 268.584C291.28 268.584 290.776 268.14 290.5 267.576L289.588 268.092C290.08 269.04 291.088 269.556 292.432 269.556C293.992 269.556 295.492 268.62 295.492 266.748V261H294.46ZM292.324 266.1C291.112 266.1 290.188 265.176 290.188 263.964C290.188 262.764 291.112 261.84 292.324 261.84C293.536 261.84 294.46 262.764 294.46 263.964C294.46 265.176 293.536 266.1 292.324 266.1ZM298.117 262.008V261H297.073V267H298.117V263.82C298.117 262.404 299.089 261.948 299.989 261.984V260.892C299.233 260.892 298.501 261.168 298.117 262.008ZM303.503 267.156C305.255 267.156 306.671 265.776 306.671 264C306.671 262.224 305.255 260.844 303.503 260.844C301.751 260.844 300.347 262.224 300.347 264C300.347 265.776 301.751 267.156 303.503 267.156ZM303.503 266.136C302.315 266.136 301.391 265.212 301.391 264C301.391 262.788 302.315 261.864 303.503 261.864C304.703 261.864 305.627 262.788 305.627 264C305.627 265.212 304.703 266.136 303.503 266.136ZM312.041 261V264.18C312.041 265.596 311.261 266.16 310.301 266.16C309.377 266.16 308.813 265.608 308.813 264.624V261H307.769V264.684C307.769 266.22 308.693 267.156 310.097 267.156C310.937 267.156 311.597 266.844 312.041 266.136V267H313.085V261H312.041ZM317.987 260.844C316.967 260.844 316.199 261.3 315.719 262.032V261H314.675V269.4H315.719V265.968C316.199 266.7 316.967 267.156 317.987 267.156C319.655 267.156 321.023 265.776 321.023 264C321.023 262.224 319.655 260.844 317.987 260.844ZM317.855 266.148C316.643 266.148 315.719 265.224 315.719 264C315.719 262.776 316.643 261.852 317.855 261.852C319.055 261.852 319.979 262.776 319.979 264C319.979 265.224 319.055 266.148 317.855 266.148Z" fill="white"/>
<g filter="url(#filter7_d_545_1546)">
<rect x="466" y="80" width="97" height="22" rx="11" fill="#3186F2"/>
</g>
<path d="M498.518 95.156C500.234 95.156 501.422 94.22 501.422 92.744C501.422 91.124 500.042 90.692 498.578 90.212C497.402 89.84 496.814 89.552 496.814 88.772C496.814 88.004 497.438 87.524 498.338 87.524C499.358 87.524 499.946 88.1 500.246 88.82L501.182 88.28C500.714 87.224 499.718 86.444 498.338 86.444C496.934 86.444 495.698 87.308 495.698 88.82C495.698 90.38 496.994 90.8 498.338 91.232C499.574 91.616 500.318 91.904 500.318 92.768C500.318 93.524 499.73 94.064 498.542 94.064C497.318 94.064 496.598 93.464 496.298 92.54L495.338 93.092C495.782 94.352 496.922 95.156 498.518 95.156ZM505.596 95.156C507.348 95.156 508.764 93.776 508.764 92C508.764 90.224 507.348 88.844 505.596 88.844C503.844 88.844 502.44 90.224 502.44 92C502.44 93.776 503.844 95.156 505.596 95.156ZM505.596 94.136C504.408 94.136 503.484 93.212 503.484 92C503.484 90.788 504.408 89.864 505.596 89.864C506.796 89.864 507.72 90.788 507.72 92C507.72 93.212 506.796 94.136 505.596 94.136ZM514.135 89V92.18C514.135 93.596 513.355 94.16 512.395 94.16C511.471 94.16 510.907 93.608 510.907 92.624V89H509.863V92.684C509.863 94.22 510.787 95.156 512.191 95.156C513.031 95.156 513.691 94.844 514.135 94.136V95H515.179V89H514.135ZM517.813 90.008V89H516.769V95H517.813V91.82C517.813 90.404 518.785 89.948 519.685 89.984V88.892C518.929 88.892 518.197 89.168 517.813 90.008ZM523.198 95.156C524.374 95.156 525.394 94.532 525.898 93.596L525.01 93.08C524.674 93.704 524.014 94.124 523.198 94.124C521.998 94.124 521.086 93.2 521.086 92C521.086 90.788 521.998 89.864 523.198 89.864C524.002 89.864 524.674 90.284 524.974 90.92L525.85 90.416C525.394 89.468 524.386 88.844 523.198 88.844C521.386 88.844 520.042 90.224 520.042 92C520.042 93.776 521.386 95.156 523.198 95.156ZM527.579 92.48H532.607C532.631 92.324 532.643 92.168 532.643 92.012C532.643 90.332 531.467 88.844 529.655 88.844C527.783 88.844 526.511 90.224 526.511 92C526.511 93.8 527.795 95.156 529.727 95.156C530.927 95.156 531.839 94.616 532.367 93.8L531.479 93.296C531.179 93.788 530.579 94.172 529.751 94.172C528.635 94.172 527.783 93.56 527.579 92.48ZM529.655 89.828C530.555 89.828 531.407 90.38 531.587 91.568H527.579C527.747 90.524 528.527 89.828 529.655 89.828Z" fill="white"/>
<g filter="url(#filter8_d_545_1546)">
<rect x="466" y="228" width="97" height="22" rx="11" fill="#3186F2"/>
</g>
<path d="M492.823 243.156C494.383 243.156 495.751 242.34 496.447 241.104L495.475 240.552C494.995 241.464 493.975 242.064 492.823 242.064C490.855 242.064 489.535 240.636 489.535 238.8C489.535 236.952 490.855 235.524 492.823 235.524C493.975 235.524 494.995 236.124 495.475 237.048L496.447 236.484C495.739 235.248 494.371 234.444 492.823 234.444C490.255 234.444 488.431 236.376 488.431 238.8C488.431 241.212 490.255 243.156 492.823 243.156ZM502.547 237V238.032C502.067 237.3 501.299 236.844 500.279 236.844C498.611 236.844 497.243 238.224 497.243 240C497.243 241.776 498.611 243.156 500.279 243.156C501.299 243.156 502.067 242.7 502.547 241.968V243H503.591V237H502.547ZM500.411 242.148C499.211 242.148 498.287 241.224 498.287 240C498.287 238.776 499.211 237.852 500.411 237.852C501.623 237.852 502.547 238.776 502.547 240C502.547 241.224 501.623 242.148 500.411 242.148ZM511.653 236.844C510.873 236.844 510.189 237.18 509.769 237.864C509.421 237.216 508.821 236.844 508.005 236.844C507.273 236.844 506.649 237.132 506.217 237.804V237H505.173V243H506.217V239.664C506.217 238.368 506.949 237.84 507.753 237.84C508.533 237.84 509.025 238.356 509.025 239.304V243H510.069V239.664C510.069 238.368 510.705 237.84 511.545 237.84C512.337 237.84 512.865 238.356 512.865 239.304V243H513.909V239.268C513.909 237.768 512.985 236.844 511.653 236.844ZM518.668 236.844C517.648 236.844 516.88 237.3 516.4 238.032V237H515.356V245.4H516.4V241.968C516.88 242.7 517.648 243.156 518.668 243.156C520.336 243.156 521.704 241.776 521.704 240C521.704 238.224 520.336 236.844 518.668 236.844ZM518.536 242.148C517.324 242.148 516.4 241.224 516.4 240C516.4 238.776 517.324 237.852 518.536 237.852C519.736 237.852 520.66 238.776 520.66 240C520.66 241.224 519.736 242.148 518.536 242.148ZM527.918 237V238.032C527.438 237.3 526.67 236.844 525.65 236.844C523.982 236.844 522.614 238.224 522.614 240C522.614 241.776 523.982 243.156 525.65 243.156C526.67 243.156 527.438 242.7 527.918 241.968V243H528.962V237H527.918ZM525.782 242.148C524.582 242.148 523.658 241.224 523.658 240C523.658 238.776 524.582 237.852 525.782 237.852C526.994 237.852 527.918 238.776 527.918 240C527.918 241.224 526.994 242.148 525.782 242.148ZM531.072 235.908C531.456 235.908 531.768 235.596 531.768 235.212C531.768 234.828 531.456 234.504 531.072 234.504C530.676 234.504 530.364 234.828 530.364 235.212C530.364 235.596 530.676 235.908 531.072 235.908ZM530.544 243H531.588V237H530.544V243ZM538.161 237V238.032C537.681 237.3 536.913 236.844 535.905 236.844C534.201 236.844 532.845 238.224 532.845 239.964C532.845 241.716 534.201 243.096 535.905 243.096C536.913 243.096 537.681 242.628 538.161 241.896V242.748C538.161 243.876 537.405 244.584 536.157 244.584C534.981 244.584 534.477 244.14 534.201 243.576L533.289 244.092C533.781 245.04 534.789 245.556 536.133 245.556C537.693 245.556 539.193 244.62 539.193 242.748V237H538.161ZM536.025 242.1C534.813 242.1 533.889 241.176 533.889 239.964C533.889 238.764 534.813 237.84 536.025 237.84C537.237 237.84 538.161 238.764 538.161 239.964C538.161 241.176 537.237 242.1 536.025 242.1ZM514.372 250.844C513.532 250.844 512.872 251.156 512.428 251.864V251H511.384V257H512.428V253.82C512.428 252.404 513.208 251.84 514.168 251.84C515.092 251.84 515.656 252.392 515.656 253.376V257H516.7V253.316C516.7 251.78 515.776 250.844 514.372 250.844Z" fill="white"/>
<g filter="url(#filter9_d_545_1546)">
<rect x="466" y="117" width="97" height="22" rx="11" fill="#3186F2"/>
</g>
<path d="M508.961 132H510.149L507.017 123.6H505.757L502.625 132H503.813L504.497 130.116H508.277L508.961 132ZM504.881 129.072L506.381 124.932L507.893 129.072H504.881ZM514.344 125.844C513.324 125.844 512.556 126.3 512.076 127.032V126H511.032V134.4H512.076V130.968C512.556 131.7 513.324 132.156 514.344 132.156C516.012 132.156 517.38 130.776 517.38 129C517.38 127.224 516.012 125.844 514.344 125.844ZM514.212 131.148C513 131.148 512.076 130.224 512.076 129C512.076 127.776 513 126.852 514.212 126.852C515.412 126.852 516.336 127.776 516.336 129C516.336 130.224 515.412 131.148 514.212 131.148ZM521.938 125.844C520.918 125.844 520.15 126.3 519.67 127.032V126H518.626V134.4H519.67V130.968C520.15 131.7 520.918 132.156 521.938 132.156C523.606 132.156 524.974 130.776 524.974 129C524.974 127.224 523.606 125.844 521.938 125.844ZM521.806 131.148C520.594 131.148 519.67 130.224 519.67 129C519.67 127.776 520.594 126.852 521.806 126.852C523.006 126.852 523.93 127.776 523.93 129C523.93 130.224 523.006 131.148 521.806 131.148Z" fill="white"/>
<g filter="url(#filter10_d_545_1546)">
<rect x="466" y="265" width="97" height="22" rx="11" fill="#3186F2"/>
</g>
<path d="M475.503 280.156C477.219 280.156 478.407 279.22 478.407 277.744C478.407 276.124 477.027 275.692 475.563 275.212C474.387 274.84 473.799 274.552 473.799 273.772C473.799 273.004 474.423 272.524 475.323 272.524C476.343 272.524 476.931 273.1 477.231 273.82L478.167 273.28C477.699 272.224 476.703 271.444 475.323 271.444C473.919 271.444 472.683 272.308 472.683 273.82C472.683 275.38 473.979 275.8 475.323 276.232C476.559 276.616 477.303 276.904 477.303 277.768C477.303 278.524 476.715 279.064 475.527 279.064C474.303 279.064 473.583 278.464 473.283 277.54L472.323 278.092C472.767 279.352 473.907 280.156 475.503 280.156ZM483.76 274V277.18C483.76 278.596 482.98 279.16 482.02 279.16C481.096 279.16 480.532 278.608 480.532 277.624V274H479.488V277.684C479.488 279.22 480.412 280.156 481.816 280.156C482.656 280.156 483.316 279.844 483.76 279.136V280H484.804V274H483.76ZM489.706 273.844C488.686 273.844 487.918 274.3 487.438 275.032V271.6H486.394V280H487.438V278.968C487.918 279.7 488.686 280.156 489.706 280.156C491.374 280.156 492.742 278.776 492.742 277C492.742 275.224 491.374 273.844 489.706 273.844ZM489.574 279.148C488.362 279.148 487.438 278.224 487.438 277C487.438 275.776 488.362 274.852 489.574 274.852C490.774 274.852 491.698 275.776 491.698 277C491.698 278.224 490.774 279.148 489.574 279.148ZM494.095 276.82H498.475V275.812H494.095V276.82ZM504.219 280.156C505.779 280.156 507.147 279.34 507.843 278.104L506.871 277.552C506.391 278.464 505.371 279.064 504.219 279.064C502.251 279.064 500.931 277.636 500.931 275.8C500.931 273.952 502.251 272.524 504.219 272.524C505.371 272.524 506.391 273.124 506.871 274.048L507.843 273.484C507.135 272.248 505.767 271.444 504.219 271.444C501.651 271.444 499.827 273.376 499.827 275.8C499.827 278.212 501.651 280.156 504.219 280.156ZM513.944 274V275.032C513.464 274.3 512.696 273.844 511.676 273.844C510.008 273.844 508.64 275.224 508.64 277C508.64 278.776 510.008 280.156 511.676 280.156C512.696 280.156 513.464 279.7 513.944 278.968V280H514.988V274H513.944ZM511.808 279.148C510.608 279.148 509.684 278.224 509.684 277C509.684 275.776 510.608 274.852 511.808 274.852C513.02 274.852 513.944 275.776 513.944 277C513.944 278.224 513.02 279.148 511.808 279.148ZM523.049 273.844C522.269 273.844 521.585 274.18 521.165 274.864C520.817 274.216 520.217 273.844 519.401 273.844C518.669 273.844 518.045 274.132 517.613 274.804V274H516.569V280H517.613V276.664C517.613 275.368 518.345 274.84 519.149 274.84C519.929 274.84 520.421 275.356 520.421 276.304V280H521.465V276.664C521.465 275.368 522.101 274.84 522.941 274.84C523.733 274.84 524.261 275.356 524.261 276.304V280H525.305V276.268C525.305 274.768 524.381 273.844 523.049 273.844ZM530.065 273.844C529.045 273.844 528.277 274.3 527.797 275.032V274H526.753V282.4H527.797V278.968C528.277 279.7 529.045 280.156 530.065 280.156C531.733 280.156 533.101 278.776 533.101 277C533.101 275.224 531.733 273.844 530.065 273.844ZM529.933 279.148C528.721 279.148 527.797 278.224 527.797 277C527.797 275.776 528.721 274.852 529.933 274.852C531.133 274.852 532.057 275.776 532.057 277C532.057 278.224 531.133 279.148 529.933 279.148ZM539.315 274V275.032C538.835 274.3 538.067 273.844 537.047 273.844C535.379 273.844 534.011 275.224 534.011 277C534.011 278.776 535.379 280.156 537.047 280.156C538.067 280.156 538.835 279.7 539.315 278.968V280H540.359V274H539.315ZM537.179 279.148C535.979 279.148 535.055 278.224 535.055 277C535.055 275.776 535.979 274.852 537.179 274.852C538.391 274.852 539.315 275.776 539.315 277C539.315 278.224 538.391 279.148 537.179 279.148ZM542.468 272.908C542.852 272.908 543.164 272.596 543.164 272.212C543.164 271.828 542.852 271.504 542.468 271.504C542.072 271.504 541.76 271.828 541.76 272.212C541.76 272.596 542.072 272.908 542.468 272.908ZM541.94 280H542.984V274H541.94V280ZM549.557 274V275.032C549.077 274.3 548.309 273.844 547.301 273.844C545.597 273.844 544.241 275.224 544.241 276.964C544.241 278.716 545.597 280.096 547.301 280.096C548.309 280.096 549.077 279.628 549.557 278.896V279.748C549.557 280.876 548.801 281.584 547.553 281.584C546.377 281.584 545.873 281.14 545.597 280.576L544.685 281.092C545.177 282.04 546.185 282.556 547.529 282.556C549.089 282.556 550.589 281.62 550.589 279.748V274H549.557ZM547.421 279.1C546.209 279.1 545.285 278.176 545.285 276.964C545.285 275.764 546.209 274.84 547.421 274.84C548.633 274.84 549.557 275.764 549.557 276.964C549.557 278.176 548.633 279.1 547.421 279.1ZM555.159 273.844C554.319 273.844 553.659 274.156 553.215 274.864V274H552.171V280H553.215V276.82C553.215 275.404 553.995 274.84 554.955 274.84C555.879 274.84 556.443 275.392 556.443 276.376V280H557.487V276.316C557.487 274.78 556.563 273.844 555.159 273.844Z" fill="white"/>
<g filter="url(#filter11_d_545_1546)">
<rect x="466" y="154" width="97" height="22" rx="11" fill="#3186F2"/>
</g>
<path d="M510.663 169.156C513.099 169.156 515.019 167.212 515.019 164.8C515.019 162.376 513.099 160.444 510.663 160.444C508.227 160.444 506.319 162.376 506.319 164.8C506.319 167.212 508.227 169.156 510.663 169.156ZM510.663 168.064C508.827 168.064 507.423 166.636 507.423 164.8C507.423 162.952 508.827 161.524 510.663 161.524C512.499 161.524 513.903 162.952 513.903 164.8C513.903 166.636 512.499 168.064 510.663 168.064ZM518.768 169.156C520.484 169.156 521.672 168.22 521.672 166.744C521.672 165.124 520.292 164.692 518.828 164.212C517.652 163.84 517.064 163.552 517.064 162.772C517.064 162.004 517.688 161.524 518.588 161.524C519.608 161.524 520.196 162.1 520.496 162.82L521.432 162.28C520.964 161.224 519.968 160.444 518.588 160.444C517.184 160.444 515.948 161.308 515.948 162.82C515.948 164.38 517.244 164.8 518.588 165.232C519.824 165.616 520.568 165.904 520.568 166.768C520.568 167.524 519.98 168.064 518.792 168.064C517.568 168.064 516.848 167.464 516.548 166.54L515.588 167.092C516.032 168.352 517.172 169.156 518.768 169.156Z" fill="white"/>
<g filter="url(#filter12_d_545_1546)">
<rect x="466" y="302" width="97" height="22" rx="11" fill="#3186F2"/>
</g>
<path d="M493.001 308.6H489.953V317H491.069V314H493.001C494.549 314 495.713 312.824 495.713 311.3C495.713 309.764 494.549 308.6 493.001 308.6ZM493.001 312.956H491.069V309.644H493.001C493.925 309.644 494.609 310.34 494.609 311.3C494.609 312.248 493.925 312.956 493.001 312.956ZM501.063 311V314.18C501.063 315.596 500.283 316.16 499.323 316.16C498.399 316.16 497.835 315.608 497.835 314.624V311H496.791V314.684C496.791 316.22 497.715 317.156 499.119 317.156C499.959 317.156 500.619 316.844 501.063 316.136V317H502.107V311H501.063ZM507.008 310.844C505.988 310.844 505.22 311.3 504.74 312.032V308.6H503.696V317H504.74V315.968C505.22 316.7 505.988 317.156 507.008 317.156C508.676 317.156 510.044 315.776 510.044 314C510.044 312.224 508.676 310.844 507.008 310.844ZM506.876 316.148C505.664 316.148 504.74 315.224 504.74 314C504.74 312.776 505.664 311.852 506.876 311.852C508.076 311.852 509 312.776 509 314C509 315.224 508.076 316.148 506.876 316.148ZM511.29 317H512.334V308.24H511.29V317ZM514.455 309.908C514.839 309.908 515.151 309.596 515.151 309.212C515.151 308.828 514.839 308.504 514.455 308.504C514.059 308.504 513.747 308.828 513.747 309.212C513.747 309.596 514.059 309.908 514.455 309.908ZM513.927 317H514.971V311H513.927V317ZM517.452 312.62C517.452 312.08 517.98 311.816 518.52 311.816C519.048 311.816 519.576 312.044 519.804 312.584L520.68 312.092C520.296 311.312 519.504 310.844 518.52 310.844C517.308 310.844 516.396 311.576 516.396 312.632C516.396 314.804 519.756 314.072 519.756 315.356C519.756 315.944 519.204 316.172 518.568 316.172C517.824 316.172 517.272 315.812 517.08 315.236L516.18 315.752C516.528 316.58 517.368 317.156 518.568 317.156C519.852 317.156 520.812 316.472 520.812 315.356C520.812 313.148 517.452 313.904 517.452 312.62ZM524.977 310.844C524.137 310.844 523.477 311.156 523.033 311.864V308.6H521.989V317H523.033V313.82C523.033 312.404 523.813 311.84 524.773 311.84C525.697 311.84 526.261 312.392 526.261 313.376V317H527.305V313.316C527.305 311.78 526.381 310.844 524.977 310.844ZM529.495 314.48H534.523C534.547 314.324 534.559 314.168 534.559 314.012C534.559 312.332 533.383 310.844 531.571 310.844C529.699 310.844 528.427 312.224 528.427 314C528.427 315.8 529.711 317.156 531.643 317.156C532.843 317.156 533.755 316.616 534.283 315.8L533.395 315.296C533.095 315.788 532.495 316.172 531.667 316.172C530.551 316.172 529.699 315.56 529.495 314.48ZM531.571 311.828C532.471 311.828 533.323 312.38 533.503 313.568H529.495C529.663 312.524 530.443 311.828 531.571 311.828ZM536.803 312.008V311H535.759V317H536.803V313.82C536.803 312.404 537.775 311.948 538.675 311.984V310.892C537.919 310.892 537.187 311.168 536.803 312.008Z" fill="white"/>
<g filter="url(#filter13_d_545_1546)">
<rect x="466" y="191" width="97" height="22" rx="11" fill="#3186F2"/>
</g>
<path d="M496.649 206.156C498.209 206.156 499.577 205.34 500.273 204.104L499.301 203.552C498.821 204.464 497.801 205.064 496.649 205.064C494.681 205.064 493.361 203.636 493.361 201.8C493.361 199.952 494.681 198.524 496.649 198.524C497.801 198.524 498.821 199.124 499.301 200.048L500.273 199.484C499.565 198.248 498.197 197.444 496.649 197.444C494.081 197.444 492.257 199.376 492.257 201.8C492.257 204.212 494.081 206.156 496.649 206.156ZM504.225 206.156C505.977 206.156 507.393 204.776 507.393 203C507.393 201.224 505.977 199.844 504.225 199.844C502.473 199.844 501.069 201.224 501.069 203C501.069 204.776 502.473 206.156 504.225 206.156ZM504.225 205.136C503.037 205.136 502.113 204.212 502.113 203C502.113 201.788 503.037 200.864 504.225 200.864C505.425 200.864 506.349 201.788 506.349 203C506.349 204.212 505.425 205.136 504.225 205.136ZM512.764 200V203.18C512.764 204.596 511.984 205.16 511.024 205.16C510.1 205.16 509.536 204.608 509.536 203.624V200H508.492V203.684C508.492 205.22 509.416 206.156 510.82 206.156C511.66 206.156 512.32 205.844 512.764 205.136V206H513.808V200H512.764ZM518.385 199.844C517.545 199.844 516.885 200.156 516.441 200.864V200H515.397V206H516.441V202.82C516.441 201.404 517.221 200.84 518.181 200.84C519.105 200.84 519.669 201.392 519.669 202.376V206H520.713V202.316C520.713 200.78 519.789 199.844 518.385 199.844ZM525.435 201.008V200H523.839V198.32L522.795 198.632V200H521.607V201.008H522.795V204.26C522.795 205.76 523.635 206.24 525.435 206V205.064C524.367 205.112 523.839 205.172 523.839 204.26V201.008H525.435ZM527.75 201.008V200H526.706V206H527.75V202.82C527.75 201.404 528.722 200.948 529.622 200.984V199.892C528.866 199.892 528.134 200.168 527.75 201.008ZM534.96 200L533.232 204.704L531.192 200H530.076L532.692 205.976L532.584 206.204C532.272 206.996 531.768 207.488 530.964 207.428V208.4C532.188 208.484 533.124 207.716 533.628 206.372L536.076 200H534.96Z" fill="white"/>
<g filter="url(#filter14_d_545_1546)">
<rect x="466" y="339" width="97" height="22" rx="11" fill="#3186F2"/>
</g>
<path d="M495.243 354.156C496.803 354.156 498.171 353.34 498.867 352.104L497.895 351.552C497.415 352.464 496.395 353.064 495.243 353.064C493.275 353.064 491.955 351.636 491.955 349.8C491.955 347.952 493.275 346.524 495.243 346.524C496.395 346.524 497.415 347.124 497.895 348.048L498.867 347.484C498.159 346.248 496.791 345.444 495.243 345.444C492.675 345.444 490.851 347.376 490.851 349.8C490.851 352.212 492.675 354.156 495.243 354.156ZM501.102 349.008V348H500.058V354H501.102V350.82C501.102 349.404 502.074 348.948 502.974 348.984V347.892C502.218 347.892 501.486 348.168 501.102 349.008ZM504.399 351.48H509.427C509.451 351.324 509.463 351.168 509.463 351.012C509.463 349.332 508.287 347.844 506.475 347.844C504.603 347.844 503.331 349.224 503.331 351C503.331 352.8 504.615 354.156 506.547 354.156C507.747 354.156 508.659 353.616 509.187 352.8L508.299 352.296C507.999 352.788 507.399 353.172 506.571 353.172C505.455 353.172 504.603 352.56 504.399 351.48ZM506.475 348.828C507.375 348.828 508.227 349.38 508.407 350.568H504.399C504.567 349.524 505.347 348.828 506.475 348.828ZM515.619 348V349.032C515.139 348.3 514.371 347.844 513.351 347.844C511.683 347.844 510.315 349.224 510.315 351C510.315 352.776 511.683 354.156 513.351 354.156C514.371 354.156 515.139 353.7 515.619 352.968V354H516.663V348H515.619ZM513.483 353.148C512.283 353.148 511.359 352.224 511.359 351C511.359 349.776 512.283 348.852 513.483 348.852C514.695 348.852 515.619 349.776 515.619 351C515.619 352.224 514.695 353.148 513.483 353.148ZM521.509 349.008V348H519.913V346.32L518.869 346.632V348H517.681V349.008H518.869V352.26C518.869 353.76 519.709 354.24 521.509 354V353.064C520.441 353.112 519.913 353.172 519.913 352.26V349.008H521.509ZM523.273 346.908C523.657 346.908 523.969 346.596 523.969 346.212C523.969 345.828 523.657 345.504 523.273 345.504C522.877 345.504 522.565 345.828 522.565 346.212C522.565 346.596 522.877 346.908 523.273 346.908ZM522.745 354H523.789V348H522.745V354ZM529.582 348L527.698 352.884L525.814 348H524.686L527.086 354H528.31L530.71 348H529.582ZM532.09 351.48H537.118C537.142 351.324 537.154 351.168 537.154 351.012C537.154 349.332 535.978 347.844 534.166 347.844C532.294 347.844 531.022 349.224 531.022 351C531.022 352.8 532.306 354.156 534.238 354.156C535.438 354.156 536.35 353.616 536.878 352.8L535.99 352.296C535.69 352.788 535.09 353.172 534.262 353.172C533.146 353.172 532.294 352.56 532.09 351.48ZM534.166 348.828C535.066 348.828 535.918 349.38 536.098 350.568H532.09C532.258 349.524 533.038 348.828 534.166 348.828Z" fill="white"/>
<path d="M285.006 309H286.194L283.062 300.6H281.802L278.67 309H279.858L280.542 307.116H284.322L285.006 309ZM280.926 306.072L282.426 301.932L283.938 306.072H280.926ZM291.905 300.6V304.032C291.425 303.3 290.657 302.844 289.637 302.844C287.969 302.844 286.601 304.224 286.601 306C286.601 307.776 287.969 309.156 289.637 309.156C290.657 309.156 291.425 308.7 291.905 307.968V309H292.949V300.6H291.905ZM289.769 308.148C288.569 308.148 287.645 307.224 287.645 306C287.645 304.776 288.569 303.852 289.769 303.852C290.981 303.852 291.905 304.776 291.905 306C291.905 307.224 290.981 308.148 289.769 308.148ZM298.43 304.62C298.43 304.08 298.958 303.816 299.498 303.816C300.026 303.816 300.554 304.044 300.782 304.584L301.658 304.092C301.274 303.312 300.482 302.844 299.498 302.844C298.286 302.844 297.374 303.576 297.374 304.632C297.374 306.804 300.734 306.072 300.734 307.356C300.734 307.944 300.182 308.172 299.546 308.172C298.802 308.172 298.25 307.812 298.058 307.236L297.158 307.752C297.506 308.58 298.346 309.156 299.546 309.156C300.83 309.156 301.79 308.472 301.79 307.356C301.79 305.148 298.43 305.904 298.43 304.62ZM303.594 306.48H308.622C308.646 306.324 308.658 306.168 308.658 306.012C308.658 304.332 307.482 302.844 305.67 302.844C303.798 302.844 302.526 304.224 302.526 306C302.526 307.8 303.81 309.156 305.742 309.156C306.942 309.156 307.854 308.616 308.382 307.8L307.494 307.296C307.194 307.788 306.594 308.172 305.766 308.172C304.65 308.172 303.798 307.56 303.594 306.48ZM305.67 303.828C306.57 303.828 307.422 304.38 307.602 305.568H303.594C303.762 304.524 304.542 303.828 305.67 303.828ZM312.947 304.008V303H311.351V301.32L310.307 301.632V303H309.119V304.008H310.307V307.26C310.307 308.76 311.147 309.24 312.947 309V308.064C311.879 308.112 311.351 308.172 311.351 307.26V304.008H312.947Z" fill="white"/>
<path d="M293.35 351H294.538L291.406 342.6H290.146L287.014 351H288.202L288.886 349.116H292.666L293.35 351ZM289.27 348.072L290.77 343.932L292.282 348.072H289.27ZM300.248 342.6V346.032C299.768 345.3 299 344.844 297.98 344.844C296.312 344.844 294.944 346.224 294.944 348C294.944 349.776 296.312 351.156 297.98 351.156C299 351.156 299.768 350.7 300.248 349.968V351H301.292V342.6H300.248ZM298.112 350.148C296.912 350.148 295.988 349.224 295.988 348C295.988 346.776 296.912 345.852 298.112 345.852C299.324 345.852 300.248 346.776 300.248 348C300.248 349.224 299.324 350.148 298.112 350.148Z" fill="white"/>
<defs>
<filter id="filter0_d_545_1546" x="233.431" y="68.3449" width="125.138" height="51.1376" filterUnits="userSpaceOnUse" color-interpolation-filters="sRGB">
<feFlood flood-opacity="0" result="BackgroundImageFix"/>
<feColorMatrix in="SourceAlpha" type="matrix" values="0 0 0 0 0 0 0 0 0 0 0 0 0 0 0 0 0 0 127 0" result="hardAlpha"/>
<feOffset dy="2.91376"/>
<feGaussianBlur stdDeviation="7.28441"/>
<feComposite in2="hardAlpha" operator="out"/>
<feColorMatrix type="matrix" values="0 0 0 0 0 0 0 0 0 0 0 0 0 0 0 0 0 0 0.06 0"/>
<feBlend mode="normal" in2="BackgroundImageFix" result="effect1_dropShadow_545_1546"/>
<feBlend mode="normal" in="SourceGraphic" in2="effect1_dropShadow_545_1546" result="shape"/>
</filter>
<filter id="filter1_d_545_1546" x="233.431" y="153.345" width="125.138" height="51.1376" filterUnits="userSpaceOnUse" color-interpolation-filters="sRGB">
<feFlood flood-opacity="0" result="BackgroundImageFix"/>
<feColorMatrix in="SourceAlpha" type="matrix" values="0 0 0 0 0 0 0 0 0 0 0 0 0 0 0 0 0 0 127 0" result="hardAlpha"/>
<feOffset dy="2.91376"/>
<feGaussianBlur stdDeviation="7.28441"/>
<feComposite in2="hardAlpha" operator="out"/>
<feColorMatrix type="matrix" values="0 0 0 0 0 0 0 0 0 0 0 0 0 0 0 0 0 0 0.06 0"/>
<feBlend mode="normal" in2="BackgroundImageFix" result="effect1_dropShadow_545_1546"/>
<feBlend mode="normal" in="SourceGraphic" in2="effect1_dropShadow_545_1546" result="shape"/>
</filter>
<filter id="filter2_d_545_1546" x="233.431" y="111.345" width="125.138" height="51.1376" filterUnits="userSpaceOnUse" color-interpolation-filters="sRGB">
<feFlood flood-opacity="0" result="BackgroundImageFix"/>
<feColorMatrix in="SourceAlpha" type="matrix" values="0 0 0 0 0 0 0 0 0 0 0 0 0 0 0 0 0 0 127 0" result="hardAlpha"/>
<feOffset dy="2.91376"/>
<feGaussianBlur stdDeviation="7.28441"/>
<feComposite in2="hardAlpha" operator="out"/>
<feColorMatrix type="matrix" values="0 0 0 0 0 0 0 0 0 0 0 0 0 0 0 0 0 0 0.06 0"/>
<feBlend mode="normal" in2="BackgroundImageFix" result="effect1_dropShadow_545_1546"/>
<feBlend mode="normal" in="SourceGraphic" in2="effect1_dropShadow_545_1546" result="shape"/>
</filter>
<filter id="filter3_d_545_1546" x="233.431" y="198.345" width="125.138" height="51.1376" filterUnits="userSpaceOnUse" color-interpolation-filters="sRGB">
<feFlood flood-opacity="0" result="BackgroundImageFix"/>
<feColorMatrix in="SourceAlpha" type="matrix" values="0 0 0 0 0 0 0 0 0 0 0 0 0 0 0 0 0 0 127 0" result="hardAlpha"/>
<feOffset dy="2.91376"/>
<feGaussianBlur stdDeviation="7.28441"/>
<feComposite in2="hardAlpha" operator="out"/>
<feColorMatrix type="matrix" values="0 0 0 0 0 0 0 0 0 0 0 0 0 0 0 0 0 0 0.06 0"/>
<feBlend mode="normal" in2="BackgroundImageFix" result="effect1_dropShadow_545_1546"/>
<feBlend mode="normal" in="SourceGraphic" in2="effect1_dropShadow_545_1546" result="shape"/>
</filter>
<filter id="filter4_d_545_1546" x="233.431" y="240.345" width="125.138" height="51.1376" filterUnits="userSpaceOnUse" color-interpolation-filters="sRGB">
<feFlood flood-opacity="0" result="BackgroundImageFix"/>
<feColorMatrix in="SourceAlpha" type="matrix" values="0 0 0 0 0 0 0 0 0 0 0 0 0 0 0 0 0 0 127 0" result="hardAlpha"/>
<feOffset dy="2.91376"/>
<feGaussianBlur stdDeviation="7.28441"/>
<feComposite in2="hardAlpha" operator="out"/>
<feColorMatrix type="matrix" values="0 0 0 0 0 0 0 0 0 0 0 0 0 0 0 0 0 0 0.06 0"/>
<feBlend mode="normal" in2="BackgroundImageFix" result="effect1_dropShadow_545_1546"/>
<feBlend mode="normal" in="SourceGraphic" in2="effect1_dropShadow_545_1546" result="shape"/>
</filter>
<filter id="filter5_d_545_1546" x="233.431" y="282.345" width="125.138" height="51.1376" filterUnits="userSpaceOnUse" color-interpolation-filters="sRGB">
<feFlood flood-opacity="0" result="BackgroundImageFix"/>
<feColorMatrix in="SourceAlpha" type="matrix" values="0 0 0 0 0 0 0 0 0 0 0 0 0 0 0 0 0 0 127 0" result="hardAlpha"/>
<feOffset dy="2.91376"/>
<feGaussianBlur stdDeviation="7.28441"/>
<feComposite in2="hardAlpha" operator="out"/>
<feColorMatrix type="matrix" values="0 0 0 0 0 0 0 0 0 0 0 0 0 0 0 0 0 0 0.06 0"/>
<feBlend mode="normal" in2="BackgroundImageFix" result="effect1_dropShadow_545_1546"/>
<feBlend mode="normal" in="SourceGraphic" in2="effect1_dropShadow_545_1546" result="shape"/>
</filter>
<filter id="filter6_d_545_1546" x="233.431" y="324.345" width="125.138" height="51.1376" filterUnits="userSpaceOnUse" color-interpolation-filters="sRGB">
<feFlood flood-opacity="0" result="BackgroundImageFix"/>
<feColorMatrix in="SourceAlpha" type="matrix" values="0 0 0 0 0 0 0 0 0 0 0 0 0 0 0 0 0 0 127 0" result="hardAlpha"/>
<feOffset dy="2.91376"/>
<feGaussianBlur stdDeviation="7.28441"/>
<feComposite in2="hardAlpha" operator="out"/>
<feColorMatrix type="matrix" values="0 0 0 0 0 0 0 0 0 0 0 0 0 0 0 0 0 0 0.06 0"/>
<feBlend mode="normal" in2="BackgroundImageFix" result="effect1_dropShadow_545_1546"/>
<feBlend mode="normal" in="SourceGraphic" in2="effect1_dropShadow_545_1546" result="shape"/>
</filter>
<filter id="filter7_d_545_1546" x="451.431" y="68.3449" width="126.138" height="51.1376" filterUnits="userSpaceOnUse" color-interpolation-filters="sRGB">
<feFlood flood-opacity="0" result="BackgroundImageFix"/>
<feColorMatrix in="SourceAlpha" type="matrix" values="0 0 0 0 0 0 0 0 0 0 0 0 0 0 0 0 0 0 127 0" result="hardAlpha"/>
<feOffset dy="2.91376"/>
<feGaussianBlur stdDeviation="7.28441"/>
<feComposite in2="hardAlpha" operator="out"/>
<feColorMatrix type="matrix" values="0 0 0 0 0 0 0 0 0 0 0 0 0 0 0 0 0 0 0.06 0"/>
<feBlend mode="normal" in2="BackgroundImageFix" result="effect1_dropShadow_545_1546"/>
<feBlend mode="normal" in="SourceGraphic" in2="effect1_dropShadow_545_1546" result="shape"/>
</filter>
<filter id="filter8_d_545_1546" x="451.431" y="216.345" width="126.138" height="51.1376" filterUnits="userSpaceOnUse" color-interpolation-filters="sRGB">
<feFlood flood-opacity="0" result="BackgroundImageFix"/>
<feColorMatrix in="SourceAlpha" type="matrix" values="0 0 0 0 0 0 0 0 0 0 0 0 0 0 0 0 0 0 127 0" result="hardAlpha"/>
<feOffset dy="2.91376"/>
<feGaussianBlur stdDeviation="7.28441"/>
<feComposite in2="hardAlpha" operator="out"/>
<feColorMatrix type="matrix" values="0 0 0 0 0 0 0 0 0 0 0 0 0 0 0 0 0 0 0.06 0"/>
<feBlend mode="normal" in2="BackgroundImageFix" result="effect1_dropShadow_545_1546"/>
<feBlend mode="normal" in="SourceGraphic" in2="effect1_dropShadow_545_1546" result="shape"/>
</filter>
<filter id="filter9_d_545_1546" x="451.431" y="105.345" width="126.138" height="51.1376" filterUnits="userSpaceOnUse" color-interpolation-filters="sRGB">
<feFlood flood-opacity="0" result="BackgroundImageFix"/>
<feColorMatrix in="SourceAlpha" type="matrix" values="0 0 0 0 0 0 0 0 0 0 0 0 0 0 0 0 0 0 127 0" result="hardAlpha"/>
<feOffset dy="2.91376"/>
<feGaussianBlur stdDeviation="7.28441"/>
<feComposite in2="hardAlpha" operator="out"/>
<feColorMatrix type="matrix" values="0 0 0 0 0 0 0 0 0 0 0 0 0 0 0 0 0 0 0.06 0"/>
<feBlend mode="normal" in2="BackgroundImageFix" result="effect1_dropShadow_545_1546"/>
<feBlend mode="normal" in="SourceGraphic" in2="effect1_dropShadow_545_1546" result="shape"/>
</filter>
<filter id="filter10_d_545_1546" x="451.431" y="253.345" width="126.138" height="51.1376" filterUnits="userSpaceOnUse" color-interpolation-filters="sRGB">
<feFlood flood-opacity="0" result="BackgroundImageFix"/>
<feColorMatrix in="SourceAlpha" type="matrix" values="0 0 0 0 0 0 0 0 0 0 0 0 0 0 0 0 0 0 127 0" result="hardAlpha"/>
<feOffset dy="2.91376"/>
<feGaussianBlur stdDeviation="7.28441"/>
<feComposite in2="hardAlpha" operator="out"/>
<feColorMatrix type="matrix" values="0 0 0 0 0 0 0 0 0 0 0 0 0 0 0 0 0 0 0.06 0"/>
<feBlend mode="normal" in2="BackgroundImageFix" result="effect1_dropShadow_545_1546"/>
<feBlend mode="normal" in="SourceGraphic" in2="effect1_dropShadow_545_1546" result="shape"/>
</filter>
<filter id="filter11_d_545_1546" x="451.431" y="142.345" width="126.138" height="51.1376" filterUnits="userSpaceOnUse" color-interpolation-filters="sRGB">
<feFlood flood-opacity="0" result="BackgroundImageFix"/>
<feColorMatrix in="SourceAlpha" type="matrix" values="0 0 0 0 0 0 0 0 0 0 0 0 0 0 0 0 0 0 127 0" result="hardAlpha"/>
<feOffset dy="2.91376"/>
<feGaussianBlur stdDeviation="7.28441"/>
<feComposite in2="hardAlpha" operator="out"/>
<feColorMatrix type="matrix" values="0 0 0 0 0 0 0 0 0 0 0 0 0 0 0 0 0 0 0.06 0"/>
<feBlend mode="normal" in2="BackgroundImageFix" result="effect1_dropShadow_545_1546"/>
<feBlend mode="normal" in="SourceGraphic" in2="effect1_dropShadow_545_1546" result="shape"/>
</filter>
<filter id="filter12_d_545_1546" x="451.431" y="290.345" width="126.138" height="51.1376" filterUnits="userSpaceOnUse" color-interpolation-filters="sRGB">
<feFlood flood-opacity="0" result="BackgroundImageFix"/>
<feColorMatrix in="SourceAlpha" type="matrix" values="0 0 0 0 0 0 0 0 0 0 0 0 0 0 0 0 0 0 127 0" result="hardAlpha"/>
<feOffset dy="2.91376"/>
<feGaussianBlur stdDeviation="7.28441"/>
<feComposite in2="hardAlpha" operator="out"/>
<feColorMatrix type="matrix" values="0 0 0 0 0 0 0 0 0 0 0 0 0 0 0 0 0 0 0.06 0"/>
<feBlend mode="normal" in2="BackgroundImageFix" result="effect1_dropShadow_545_1546"/>
<feBlend mode="normal" in="SourceGraphic" in2="effect1_dropShadow_545_1546" result="shape"/>
</filter>
<filter id="filter13_d_545_1546" x="451.431" y="179.345" width="126.138" height="51.1376" filterUnits="userSpaceOnUse" color-interpolation-filters="sRGB">
<feFlood flood-opacity="0" result="BackgroundImageFix"/>
<feColorMatrix in="SourceAlpha" type="matrix" values="0 0 0 0 0 0 0 0 0 0 0 0 0 0 0 0 0 0 127 0" result="hardAlpha"/>
<feOffset dy="2.91376"/>
<feGaussianBlur stdDeviation="7.28441"/>
<feComposite in2="hardAlpha" operator="out"/>
<feColorMatrix type="matrix" values="0 0 0 0 0 0 0 0 0 0 0 0 0 0 0 0 0 0 0.06 0"/>
<feBlend mode="normal" in2="BackgroundImageFix" result="effect1_dropShadow_545_1546"/>
<feBlend mode="normal" in="SourceGraphic" in2="effect1_dropShadow_545_1546" result="shape"/>
</filter>
<filter id="filter14_d_545_1546" x="451.431" y="327.345" width="126.138" height="51.1376" filterUnits="userSpaceOnUse" color-interpolation-filters="sRGB">
<feFlood flood-opacity="0" result="BackgroundImageFix"/>
<feColorMatrix in="SourceAlpha" type="matrix" values="0 0 0 0 0 0 0 0 0 0 0 0 0 0 0 0 0 0 127 0" result="hardAlpha"/>
<feOffset dy="2.91376"/>
<feGaussianBlur stdDeviation="7.28441"/>
<feComposite in2="hardAlpha" operator="out"/>
<feColorMatrix type="matrix" values="0 0 0 0 0 0 0 0 0 0 0 0 0 0 0 0 0 0 0.06 0"/>
<feBlend mode="normal" in2="BackgroundImageFix" result="effect1_dropShadow_545_1546"/>
<feBlend mode="normal" in="SourceGraphic" in2="effect1_dropShadow_545_1546" result="shape"/>
</filter>
<clipPath id="clip0_545_1546">
<rect width="21.9675" height="22" fill="white" transform="translate(406 33)"/>
</clipPath>
</defs>
</svg>
