<svg width="65" height="65" viewBox="0 0 65 65" fill="none" xmlns="http://www.w3.org/2000/svg">
<rect width="65" height="65" fill="white"/>
<path d="M65 40.2161C65 45.6412 61.7011 50.4621 56.82 52.471V57.5613C56.82 58.2309 56.4231 58.7671 55.8303 59.0339C55.6319 59.1019 55.4334 59.1673 55.2376 59.1673C54.8407 59.1673 54.4464 59.0339 54.1165 58.6991L48.9052 53.4101H41.1811C36.2328 53.4101 31.8129 50.6635 29.5676 46.1774C29.3048 45.7092 29.5006 45.1049 30.029 44.8382C30.4903 44.5714 31.0857 44.7702 31.3486 45.3064C33.2609 49.1227 37.0237 51.4664 41.178 51.4664H49.294C49.5569 51.4664 49.8223 51.5998 50.0208 51.7332L54.8377 56.6221V51.8013C54.8377 51.3985 55.1006 50.9983 55.4975 50.8649C59.9846 49.3242 63.0177 45.105 63.0177 40.284C63.0177 34.927 59.2575 30.3079 54.0434 29.3034C53.515 29.17 53.1207 28.7018 53.2522 28.1656C53.3836 27.6294 53.8449 27.2292 54.3733 27.3626C60.5793 28.4325 65 33.8548 65 40.2161ZM1.00106 23.0073C1.00106 13.6324 8.52126 6 17.7582 6H32.0749C41.3118 6 48.832 13.6324 48.832 23.0073C48.8346 32.3821 41.2472 40.0172 32.0102 40.0172H21.7163L14.7885 47.0483C14.4586 47.3832 13.9973 47.5846 13.536 47.5846C12.5463 47.5846 11.7551 46.7816 11.7551 45.7771V38.8766C5.28872 36.3995 1 30.1057 1 23.007L1.00106 23.0073ZM2.9804 23.0073C2.9804 29.4368 7.07053 35.1939 13.0757 37.2028C13.4726 37.3362 13.7355 37.739 13.7355 38.1392V45.3062L20.5959 38.3434C20.7944 38.142 21.0573 38.0766 21.3228 38.0766H32.0106C40.1266 38.0766 46.7884 31.3803 46.7884 23.0782C46.7884 14.7761 40.1906 8.07985 32.0106 8.07985L17.694 8.07461C9.57797 8.00922 2.9804 14.7047 2.9804 23.0073ZM13.8668 24.0117H35.8383C36.3666 24.0117 36.8279 23.5435 36.8279 23.0073C36.8279 22.471 36.3666 22.0028 35.8383 22.0028H13.8668C13.3385 22.0028 12.8771 22.471 12.8771 23.0073C12.8771 23.5435 13.3385 24.0117 13.8668 24.0117ZM13.8668 18.3199H35.8383C36.3666 18.3199 36.8279 17.8516 36.8279 17.3154C36.8279 16.7792 36.3666 16.311 35.8383 16.311H13.8668C13.3385 16.311 12.8771 16.7792 12.8771 17.3154C12.8771 17.8516 13.3385 18.3199 13.8668 18.3199ZM13.8668 29.638H35.8383C36.3666 29.638 36.8279 29.1697 36.8279 28.6335C36.8279 28.0973 36.3666 27.6291 35.8383 27.6291H13.8668C13.3385 27.6291 12.8771 28.0973 12.8771 28.6335C12.8771 29.1671 13.3385 29.638 13.8668 29.638Z" fill="#0F3384"/>
</svg>
