<svg width="65" height="65" viewBox="0 0 65 65" fill="none" xmlns="http://www.w3.org/2000/svg">
<rect width="65" height="65" fill="white"/>
<path d="M55.7292 37.5071C55.3238 37.5071 54.9133 37.5459 54.5053 37.626C53.1947 37.8819 52.0728 38.5357 51.1752 39.5694C50.701 40.1121 50.3466 40.7013 50.0839 41.2492C49.6402 40.8409 49.0946 40.4248 48.4597 40.1017C48.4214 40.0811 48.3832 40.0733 48.3449 40.0552V31.9331C49.1481 32.0727 50.038 32.2019 51.0579 32.2019C51.9019 32.2019 52.7101 32.114 53.5312 31.9331L58.6002 30.8245C59.7068 30.5816 60.612 29.8218 61.0225 28.7959C61.3106 28.0749 61.3183 27.2996 61.0556 26.5863C61.8919 25.8369 62.2948 24.6663 62.05 23.524C62.0194 23.3819 61.9812 23.2449 61.9327 23.1105C62.5447 22.5704 62.9271 21.8054 62.9909 20.9553C63.0572 20.0611 62.7589 19.2032 62.175 18.5622C62.3841 17.9136 62.3815 17.2055 62.1622 16.5465C61.739 15.275 60.5023 14.417 59.0872 14.417C58.8424 14.417 58.5976 14.4429 58.363 14.4946L53.3807 15.5851C53.4317 14.1586 53.1793 12.3083 53.0187 11.5872C52.603 9.74465 50.938 8.40861 49.0563 8.40861C48.8192 8.40861 48.582 8.44479 48.3475 8.48614L48.3449 7.74445C48.3449 6.23263 47.1312 5 45.6371 5H18.1577C16.666 5 15.4498 6.23012 15.4498 7.74445V20.7641C15.0852 20.9735 14.7282 21.1414 14.4018 21.2138C13.5018 21.4102 12.7419 21.3585 11.773 21.2448L11.6149 21.2267L8.37671 19.1102C8.20587 18.9991 7.99934 18.9603 7.80046 19.0043C7.60157 19.0482 7.42819 19.1697 7.31855 19.3428L1.12253 29.0857C0.893052 29.4449 0.995044 29.9256 1.35201 30.1582L4.62848 32.298C4.84521 32.5771 5.0594 32.8898 5.29396 33.2335C6.16851 34.5127 7.25475 36.1072 9.29713 37.4407L13.6573 40.2911C14.1978 40.6452 14.8174 40.8312 15.4498 40.8441V56.3288C15.4498 57.8432 16.6635 59.0733 18.1577 59.0733H45.6397C47.1211 59.0733 48.3271 57.8587 48.3424 56.3598C48.7147 56.5743 49.092 56.7939 49.4847 57.0188C50.3772 57.5279 51.392 58.1145 52.4374 58.7295C52.6567 58.8639 52.9091 58.9337 53.1666 58.9337C53.2559 58.9337 53.3451 58.9259 53.4369 58.9078C53.7837 58.8406 54.0922 58.6494 54.2987 58.3729C55.0483 57.396 55.775 56.4735 56.4329 55.6465C60.3443 50.6873 62.9297 47.4133 62.1444 43.2858C61.4993 39.8849 58.8603 37.5073 55.7292 37.5073L55.7292 37.5071ZM43.6103 20.4459L45.7036 30.261L43.2558 30.7959L41.1625 20.9809L43.6103 20.4459ZM51.5275 11.9309C51.785 13.0706 51.9941 15.554 51.7544 16.3448C51.6754 16.6084 51.7391 16.8927 51.9227 17.0968C52.1063 17.2984 52.3816 17.3888 52.6468 17.3294L58.6873 16.0063C59.5568 15.815 60.462 16.2802 60.7144 17.0374C60.8649 17.4896 60.8215 17.9677 60.592 18.3786C60.4008 18.7223 60.4926 19.1565 60.8062 19.389C61.2626 19.7249 61.5074 20.265 61.464 20.8362C61.4207 21.4047 61.0994 21.9009 60.5997 22.1619C60.4059 22.2627 60.2657 22.4436 60.2096 22.6581C60.156 22.8726 60.1943 23.1 60.3166 23.2835C60.4288 23.4566 60.5104 23.6453 60.5512 23.8494C60.7042 24.5678 60.3625 25.3069 59.72 25.6454C59.5262 25.7462 59.386 25.9271 59.3325 26.1416C59.2789 26.3561 59.3172 26.5809 59.4395 26.7644C59.7379 27.2167 59.7965 27.7309 59.6027 28.2142C59.3834 28.7672 58.8862 29.1755 58.2769 29.3099L53.2079 30.4185C52.4939 30.5736 51.7902 30.6511 51.0584 30.6511C49.9237 30.6511 48.9217 30.465 48.0369 30.3022C47.7615 30.2506 47.4989 30.204 47.249 30.1627L45.046 19.8336C45.7905 19.2315 46.4458 18.681 47.1062 17.6422C48.302 15.766 48.2587 12.086 47.8762 10.1585L48.5162 10.0189C49.8549 9.72434 51.2292 10.6107 51.5276 11.9313L51.5275 11.9309ZM8.19349 20.831L10.2971 22.2058L4.93229 30.6461L2.82868 29.2713L8.19349 20.831ZM10.1262 36.135C8.34133 34.967 7.39028 33.574 6.55137 32.3465C6.39328 32.1139 6.2403 31.8917 6.08986 31.6798L10.5979 24.5884L11.7376 22.7976C12.7269 22.9113 13.6781 22.9552 14.7234 22.7252C16.878 22.2523 19.4151 19.6215 20.491 17.9856L21.0418 18.3449C22.2071 19.1046 22.5615 20.681 21.8322 21.8569C21.2203 22.8466 19.6343 24.7512 18.9127 25.1414C18.673 25.2706 18.52 25.5187 18.5073 25.7927C18.4971 26.0666 18.6296 26.3276 18.8566 26.4775L24.0505 29.8706C24.8078 30.3642 25.1214 31.323 24.7645 32.0518C24.5554 32.4807 24.1908 32.7857 23.742 32.9097C23.3672 33.0131 23.1275 33.3878 23.1887 33.7781C23.2626 34.2587 23.1351 34.7239 22.8266 35.0909C22.5155 35.4604 22.0693 35.6723 21.6027 35.6723C21.437 35.6723 21.2712 35.6465 21.1106 35.5948C20.9041 35.5276 20.6771 35.5535 20.4885 35.6672C20.2998 35.7783 20.1697 35.9669 20.1264 36.184C20.0856 36.3882 20.0091 36.5794 19.8995 36.7551C19.5119 37.365 18.7342 37.6442 18.0585 37.4296C17.852 37.3624 17.625 37.3883 17.4389 37.502C17.2502 37.6131 17.1202 37.8017 17.0768 38.0188C16.8932 38.9621 16.1181 39.2954 15.5113 39.2954C15.1492 39.2954 14.7922 39.1869 14.4812 38.9853L10.1262 36.135ZM46.8152 56.3281C46.8152 56.9871 46.2874 57.522 45.6372 57.522H18.1578C17.5102 57.522 16.9798 56.9871 16.9798 56.3281V40.4915C17.5816 40.1814 18.0635 39.6852 18.3516 39.0469C19.4837 39.1141 20.575 38.561 21.1921 37.5945C21.2686 37.4731 21.34 37.3464 21.3987 37.2172C21.47 37.2224 21.5389 37.225 21.6103 37.225C22.5231 37.225 23.3952 36.8167 23.9969 36.1008C24.4558 35.5582 24.7134 34.8785 24.7439 34.1782C25.3457 33.8681 25.8378 33.3667 26.1437 32.7413C26.8373 31.3149 26.2865 29.4826 24.8867 28.5678L20.603 25.769C21.6357 24.7973 22.75 23.3062 23.135 22.6834C24.3053 20.7917 23.7418 18.2643 21.8754 17.042L21.3246 16.6828C20.6234 16.2253 19.6213 16.4476 19.1726 17.1557C18.7008 17.8999 17.8823 18.8458 16.9848 19.6417L16.9797 7.74407C16.9797 7.08767 17.5075 6.55014 18.1577 6.55014H45.6397C46.2899 6.55014 46.8177 7.08507 46.8177 7.74407V9.04134C46.4353 9.40831 46.244 9.95874 46.3613 10.517C46.7234 12.2174 46.6953 15.4296 45.8233 16.7993C45.2675 17.6753 44.7294 18.107 43.9849 18.7065L43.8625 18.8047L40.0965 19.629C39.8976 19.673 39.7242 19.7944 39.6146 19.9676C39.5049 20.1407 39.4667 20.3501 39.5075 20.5516L41.9221 31.881C41.9986 32.2454 42.3174 32.4935 42.6692 32.4935C42.7228 32.4935 42.7763 32.4883 42.8324 32.4754L46.6367 31.6432C46.6928 31.651 46.7591 31.6639 46.8177 31.6717V39.5483C46.1089 39.4165 45.3873 39.4062 44.658 39.5483C41.0501 40.2512 38.8904 43.7478 39.6349 47.6783C40.2851 51.0922 42.863 53.1001 46.8152 55.4624L46.8126 56.3281L46.8152 56.3281ZM55.2272 54.6923C54.5846 55.5012 53.8605 56.4237 53.167 57.3644C52.1215 56.7493 51.1195 56.173 50.2347 55.6665C45.1504 52.7437 41.7894 50.8133 41.1367 47.3863C40.5553 44.324 42.1923 41.6079 44.9461 41.0704C45.2265 41.0161 45.5096 40.9877 45.785 40.9877C46.2873 40.9877 46.7871 41.0808 47.274 41.2642C47.2817 41.2694 47.2893 41.2694 47.297 41.2746C47.4551 41.3366 47.6132 41.4038 47.7687 41.4839C48.6688 41.9439 49.3496 42.6416 49.7626 43.1456C49.9411 43.3626 50.2216 43.4634 50.497 43.4117C50.7724 43.3575 50.9942 43.1585 51.0809 42.8871C51.2772 42.2643 51.6546 41.3624 52.3252 40.5923C52.9932 39.8222 53.8244 39.3364 54.7933 39.1477C55.1044 39.0857 55.418 39.0572 55.7266 39.0572C58.154 39.0572 60.1275 40.874 60.6425 43.5796C61.2953 47.0038 58.8857 50.0558 55.2267 54.692L55.2272 54.6923Z" fill="#0F3384"/>
<path d="M38.016 10.4576H25.7796C25.3563 10.4576 25.0146 10.8039 25.0146 11.2329C25.0146 11.6619 25.3563 12.0082 25.7796 12.0082H38.0134C38.4367 12.0082 38.7784 11.6619 38.7784 11.2329C38.7809 10.8039 38.4392 10.4576 38.0159 10.4576H38.016Z" fill="#0F3384"/>
<path d="M33.8104 52.0637H29.9857C29.5624 52.0637 29.2207 52.4099 29.2207 52.839C29.2207 53.2679 29.5624 53.6142 29.9857 53.6142H33.8104C34.2336 53.6142 34.5753 53.268 34.5753 52.839C34.5753 52.41 34.2311 52.0637 33.8104 52.0637Z" fill="#0F3384"/>
</svg>
