<svg width="84" height="36" viewBox="0 0 84 36" fill="none" xmlns="http://www.w3.org/2000/svg">
<path d="M12.7667 8.31849L7.08949 7.03203C5.94287 6.78033 5.56532 6.44474 5.56532 5.85744C5.56532 5.40998 5.9149 5.04641 6.96364 5.04641H17.3811V1.98409C17.3811 1.11713 16.682 0.417969 15.815 0.417969H6.71195C2.32121 0.417969 0 2.96291 0 6.23499C0 9.12951 1.77587 10.8774 5.32761 11.6745L11.0048 12.933C12.1514 13.1846 12.529 13.5202 12.529 14.1075C12.529 14.555 12.1794 14.9186 11.1306 14.9186H0.363564V17.9809C0.363564 18.8479 1.06272 19.547 1.92968 19.547H10.7811C15.9968 19.547 18.0943 17.0021 18.0943 13.9817C18.0943 10.8634 16.2905 9.11553 12.7667 8.31849Z" fill="#2A3544"/>
<path d="M56.9397 0.33656C56.0587 0.33656 55.3316 1.03572 55.3316 1.90268V11.2435C55.3316 13.327 53.5557 14.977 51.4023 14.8651C49.4447 14.7533 47.9485 13.0473 47.9485 11.1036V1.90268C47.9485 1.03572 47.2213 0.33656 46.3404 0.33656H43.0683C43.0683 0.33656 43.0403 0.336559 43.0403 0.364526V11.0197C43.0403 15.5923 46.662 19.5076 51.3044 19.6614C56.1846 19.8292 60.2117 15.9978 60.2117 11.2295V0.33656C60.2117 0.33656 60.2117 0.308594 60.1838 0.308594H56.9397V0.33656V0.33656Z" fill="#2A3544"/>
<path d="M30.3576 15.06C27.5749 15.06 25.3097 12.7947 25.3097 10.0121C25.3097 7.22941 27.5749 4.96413 30.3576 4.96413C33.1403 4.96413 35.4055 7.22941 35.4055 10.0121C35.4055 12.7808 33.1403 15.06 30.3576 15.06ZM30.3576 0.0839844C24.8622 0.0839844 20.4016 4.54463 20.4016 10.04C20.4016 15.5354 24.8622 19.9961 30.3576 19.9961C35.853 19.9961 40.3137 15.5354 40.3137 10.04C40.3137 4.54463 35.825 0.0839844 30.3576 0.0839844Z" fill="#2A3544"/>
<path d="M77.8026 11.3124L75.9149 9.42469L72.3631 12.8646L74.3488 14.8502C73.9013 14.962 73.4399 15.032 72.9504 15.032C70.1678 15.032 67.9025 12.7667 67.9025 9.98402C67.9025 7.20136 70.1678 4.93608 72.9504 4.93608C75.7331 4.93608 77.9984 7.20136 77.9984 9.98402C77.9984 10.4315 77.9285 10.865 77.8026 11.3124ZM81.5222 15.004C82.3891 13.5358 82.9065 11.8018 82.9065 9.95605C82.9065 4.46065 78.4458 0 72.9504 0C67.455 0 62.9944 4.47463 62.9944 9.95605C62.9944 15.4375 67.455 19.9121 72.9504 19.9121C74.8242 19.9121 76.5441 19.3947 78.0403 18.5138L79.0192 19.4926C79.6484 20.1219 80.6832 20.1219 81.3124 19.4926L83.6476 17.1574V17.1294L81.5222 15.004Z" fill="#2A3544"/>
<path d="M4.02728 31.3647H3.23023L3.16032 30.8473C2.9226 31.057 2.6709 31.1969 2.39124 31.3087C2.11158 31.4206 1.83191 31.4765 1.55225 31.4765C1.0908 31.4765 0.74122 31.3367 0.447573 31.085C0.153925 30.8333 0.0280762 30.4837 0.0280762 30.0363C0.0280762 29.5748 0.195875 29.1973 0.545455 28.8896C0.867069 28.61 1.3425 28.4701 1.90183 28.4701C2.27937 28.4701 2.69887 28.5121 3.11837 28.6379V27.9807C3.11837 27.6311 3.04845 27.3794 2.88065 27.2396C2.71285 27.0998 2.46116 27.0299 2.06963 27.0299C1.5103 27.0299 0.950969 27.1277 0.363673 27.3375V26.6803C0.601388 26.5684 0.881052 26.4705 1.23063 26.4006C1.55225 26.3307 1.90183 26.3027 2.26539 26.3027C2.86667 26.3027 3.3421 26.4146 3.62176 26.6803C3.9294 26.932 4.06923 27.3375 4.06923 27.8549V31.3786H4.02728V31.3647ZM3.0904 29.2532C2.76879 29.1553 2.41921 29.1413 2.05564 29.1413C1.32852 29.1413 0.950969 29.421 0.950969 29.9803C0.950969 30.232 1.02088 30.4278 1.16072 30.5396C1.30055 30.6795 1.48233 30.7494 1.74801 30.7494C2.19548 30.7494 2.62896 30.5816 3.07642 30.26C3.0904 30.26 3.0904 29.2532 3.0904 29.2532Z" fill="#2A3544"/>
<path d="M9.74641 31.3653H8.78157V28.0652C8.78157 27.7157 8.71166 27.464 8.57182 27.3241C8.43199 27.1563 8.22224 27.0864 7.91461 27.0864C7.39723 27.0864 6.90782 27.2542 6.39044 27.5758V31.3793H5.4256V26.4432H6.23662L6.33451 26.9746C6.93579 26.5131 7.593 26.2754 8.27817 26.2754C8.73962 26.2754 9.11717 26.3873 9.35488 26.6529C9.60658 26.9046 9.73243 27.2542 9.73243 27.7296C9.74641 27.7436 9.74641 31.3653 9.74641 31.3653Z" fill="#2A3544"/>
<path d="M47.9485 31.1705C47.571 31.3523 47.1375 31.4502 46.6341 31.4502C45.865 31.4502 45.2777 31.2405 44.8862 30.793C44.4947 30.3455 44.2849 29.7163 44.2849 28.9053C44.2849 28.0942 44.4947 27.437 44.9142 26.9896C45.3337 26.5421 45.9209 26.3184 46.69 26.3184C47.1375 26.3184 47.529 26.4162 47.9066 26.598V27.2972C47.529 27.1853 47.1794 27.1294 46.8019 27.1294C46.2705 27.1294 45.865 27.2692 45.6273 27.5489C45.3896 27.8285 45.2777 28.276 45.2777 28.8633V28.9752C45.2777 29.5625 45.3896 30.0099 45.6553 30.2896C45.893 30.5693 46.2845 30.7091 46.8019 30.7091C47.1515 30.7091 47.529 30.6392 47.9485 30.5273V31.1705Z" fill="#2A3544"/>
<path d="M52.7168 30.806C52.2973 31.2674 51.7379 31.5051 50.9829 31.5051C50.2417 31.5051 49.6684 31.2674 49.2489 30.806C48.8294 30.3445 48.6197 29.7013 48.6197 28.8903C48.6197 28.0792 48.8294 27.436 49.2489 26.9746C49.6684 26.5131 50.2278 26.2754 50.9829 26.2754C51.724 26.2754 52.2973 26.5131 52.7168 26.9746C53.1363 27.436 53.346 28.0792 53.346 28.8903C53.346 29.7013 53.1363 30.3305 52.7168 30.806ZM50.9829 30.7081C51.8918 30.7081 52.3672 30.1068 52.3672 28.8623C52.3672 27.6457 51.9057 27.0445 50.9829 27.0445C50.0739 27.0445 49.5985 27.6457 49.5985 28.8623C49.6125 30.1068 50.0739 30.7081 50.9829 30.7081Z" fill="#2A3544"/>
<path d="M61.8059 31.3659H60.841V28.0239C60.841 27.7023 60.7711 27.4646 60.6593 27.2968C60.5474 27.129 60.3377 27.0591 60.072 27.0591C59.6105 27.0591 59.1071 27.1989 58.6457 27.5065C58.6457 27.5485 58.6457 27.6044 58.6457 27.6464C58.6457 27.6883 58.6457 27.7443 58.6457 27.8142V31.3659H57.6808V28.0239C57.6808 27.7023 57.6109 27.4646 57.4991 27.2968C57.3872 27.129 57.1774 27.0591 56.9118 27.0591C56.4223 27.0591 55.9469 27.1989 55.4855 27.4786V31.3519H54.5206V26.4158H55.3317L55.4295 26.9053C56.0588 26.4858 56.674 26.248 57.2474 26.248C57.8486 26.248 58.2542 26.4858 58.4639 26.9472C59.0931 26.4858 59.7504 26.248 60.3796 26.248C60.8271 26.248 61.1766 26.3599 61.4144 26.6256C61.6521 26.8773 61.7639 27.2269 61.7639 27.7023V31.3519H61.8059V31.3659Z" fill="#2A3544"/>
<path d="M64.183 33.3509H63.2182V26.4152H64.0292L64.1271 26.9326C64.6165 26.4851 65.1758 26.2754 65.7631 26.2754C66.3924 26.2754 66.8818 26.5131 67.2594 26.9466C67.6369 27.408 67.7907 28.0233 67.7907 28.8203C67.7907 29.6174 67.6089 30.2746 67.2034 30.736C66.8259 31.2255 66.3225 31.4632 65.6792 31.4632C65.092 31.4632 64.5746 31.2814 64.1551 30.8759L64.183 33.3509ZM64.183 30.2187C64.6025 30.5263 65.022 30.6801 65.4695 30.6801C66.3504 30.6801 66.7979 30.0788 66.7979 28.8763C66.7979 28.275 66.686 27.7996 66.4763 27.4919C66.2665 27.1843 65.917 27.0445 65.4695 27.0445C65.0081 27.0445 64.5886 27.1843 64.1551 27.4919V30.2047H64.183V30.2187Z" fill="#2A3544"/>
<path d="M72.6708 31.3666H71.8738L71.8039 30.8492C71.5662 31.059 71.3145 31.1988 71.0348 31.3107C70.7551 31.4225 70.4755 31.4785 70.1958 31.4785C69.7344 31.4785 69.3848 31.3386 69.0911 31.0869C68.8115 30.8352 68.6716 30.4857 68.6716 30.0382C68.6716 29.5768 68.8394 29.1992 69.189 28.8916C69.5106 28.6119 69.9861 28.4721 70.5454 28.4721C70.9229 28.4721 71.3424 28.514 71.7619 28.6399V27.9827C71.7619 27.6331 71.692 27.3814 71.5242 27.2416C71.3564 27.1017 71.1047 27.0318 70.7132 27.0318C70.1539 27.0318 69.5945 27.1297 69.0072 27.3394V26.6822C69.2449 26.5704 69.5246 26.4725 69.8742 26.4026C70.1958 26.3327 70.5454 26.3047 70.9089 26.3047C71.5102 26.3047 71.9857 26.4166 72.2653 26.6822C72.573 26.9339 72.7128 27.3394 72.7128 27.8568V31.3806H72.6708V31.3666ZM71.7619 29.2551C71.4403 29.1573 71.0907 29.1433 70.7272 29.1433C70 29.1433 69.6225 29.4229 69.6225 29.9823C69.6225 30.234 69.6924 30.4297 69.8322 30.5416C69.9721 30.6814 70.1539 30.7514 70.4195 30.7514C70.867 30.7514 71.3005 30.5836 71.7479 30.2619V29.2551H71.7619Z" fill="#2A3544"/>
<path d="M78.4179 31.3653H77.4531V28.0652C77.4531 27.7157 77.3832 27.464 77.2433 27.3241C77.1035 27.1843 76.8937 27.0864 76.5861 27.0864C76.0687 27.0864 75.5793 27.2542 75.0619 27.5758V31.3793H74.0971V26.4432H74.9081L75.006 26.9746C75.6073 26.5131 76.2645 26.2754 76.9497 26.2754C77.4111 26.2754 77.7887 26.3873 78.0264 26.6529C78.2781 26.9046 78.4039 27.2542 78.4039 27.7296V31.3653H78.4179Z" fill="#2A3544"/>
<path d="M81.6621 32.2327C81.4943 32.6802 81.2845 33.0018 81.0608 33.1976C80.8371 33.3933 80.5294 33.4772 80.1519 33.4772C79.8722 33.4772 79.6345 33.4353 79.4108 33.3374V32.6382C79.5786 32.6802 79.7604 32.7082 79.9701 32.7082C80.2078 32.7082 80.3896 32.6382 80.5294 32.5264C80.6693 32.4145 80.7811 32.2048 80.907 31.8971L81.0888 31.4077L79.1031 26.4297H80.1379L81.5642 30.4708L82.9485 26.4297H83.9274L81.6621 32.2327Z" fill="#2A3544"/>
<path d="M30.5254 33.1154C28.8474 34.3599 26.4143 35.0031 24.3169 35.0031C21.3664 35.0031 18.7376 33.8985 16.724 32.1086C16.5562 31.9688 16.696 31.787 16.8918 31.8709C19.0592 33.1294 21.73 33.8845 24.4847 33.8845C26.3584 33.8845 28.386 33.4929 30.2737 32.6959C30.5394 32.598 30.8051 32.9057 30.5254 33.1154Z" fill="#2A3544"/>
<path d="M31.2246 32.3178C31.0148 32.0381 29.7983 32.178 29.2669 32.2479C29.0991 32.2759 29.0851 32.136 29.225 32.0102C30.1898 31.339 31.7699 31.5208 31.9377 31.7585C32.1195 31.9962 31.8958 33.5623 30.9729 34.3314C30.833 34.4432 30.6932 34.3733 30.7631 34.2335C30.9589 33.7301 31.4343 32.5975 31.2246 32.3178Z" fill="#2A3544"/>
<path d="M29.3088 27.2547V26.5975C29.3088 26.4996 29.3787 26.4297 29.4766 26.4297H32.4271C32.525 26.4297 32.5949 26.4996 32.5949 26.5975V27.1568C32.5949 27.2547 32.525 27.3666 32.3851 27.5763L30.861 29.7437C31.4203 29.7157 32.0356 29.8136 32.539 30.0933C32.6508 30.1632 32.6788 30.2611 32.7068 30.345V31.0442C32.7068 31.142 32.5949 31.2539 32.497 31.184C31.5881 30.7225 30.3995 30.6526 29.3927 31.184C29.2948 31.2259 29.183 31.142 29.183 31.0162V30.4009C29.183 30.2891 29.183 30.1213 29.2948 29.9535L31.0707 27.4365H29.5326C29.3787 27.4085 29.3088 27.3666 29.3088 27.2547Z" fill="#2A3544"/>
<path d="M18.5558 31.3667H17.6748C17.5769 31.3667 17.507 31.2968 17.507 31.2269V26.6264C17.507 26.5285 17.5769 26.4586 17.6748 26.4586H18.5138C18.6117 26.4586 18.6816 26.5285 18.6816 26.6264V27.2277H18.7096C18.9193 26.6404 19.3388 26.3887 19.8842 26.3887C20.4435 26.3887 20.7931 26.6683 21.0588 27.2277C21.2685 26.6404 21.7579 26.3887 22.3033 26.3887C22.6808 26.3887 23.1003 26.5565 23.338 26.9061C23.6177 27.2976 23.5757 27.8709 23.5757 28.3603V31.2409C23.5757 31.3387 23.5058 31.4087 23.4079 31.4087H22.527C22.4291 31.4087 22.3592 31.3387 22.3592 31.2409V28.8078C22.3592 28.626 22.3872 28.1366 22.3312 27.9408C22.2613 27.6332 22.0795 27.5493 21.7999 27.5493C21.5901 27.5493 21.3524 27.6891 21.2685 27.9268C21.1706 28.1645 21.1706 28.5281 21.1706 28.8078V31.2409C21.1706 31.3387 21.1007 31.4087 21.0028 31.4087H20.1219C20.024 31.4087 19.9541 31.3387 19.9541 31.2409V28.8078C19.9541 28.2904 20.052 27.5493 19.3948 27.5493C18.7375 27.5493 18.7935 28.2764 18.7935 28.8078V31.2409C18.7515 31.2968 18.6536 31.3667 18.5558 31.3667Z" fill="#2A3544"/>
<path d="M35.0979 26.3594C36.4263 26.3594 37.1534 27.506 37.1534 28.9463C37.1534 30.3446 36.3564 31.4633 35.0979 31.4633C33.7834 31.4633 33.0843 30.3166 33.0843 28.8903C33.0843 27.4641 33.8114 26.3594 35.0979 26.3594ZM35.1258 27.2962C34.4686 27.2962 34.4267 28.1772 34.4267 28.7505C34.4267 29.3098 34.4267 30.4984 35.1258 30.4984C35.825 30.4984 35.853 29.5336 35.853 28.9323C35.853 28.5408 35.825 28.0933 35.7131 27.7157C35.5873 27.4081 35.4055 27.2962 35.1258 27.2962Z" fill="#2A3544"/>
<path d="M38.8874 31.3654H38.0064C37.9085 31.3654 37.8386 31.2955 37.8386 31.1976V26.5971C37.8386 26.4992 37.9085 26.4573 38.0064 26.4573H38.8454C38.9153 26.4573 38.9852 26.4992 39.0132 26.5971V27.2962H39.0412C39.2929 26.667 39.6425 26.3594 40.2577 26.3594C40.6492 26.3594 41.0548 26.4992 41.3065 26.8907C41.5442 27.2683 41.5442 27.8696 41.5442 28.317V31.2116C41.5442 31.2815 41.4463 31.3514 41.3764 31.3514H40.4395C40.3416 31.3514 40.2997 31.2815 40.2717 31.2116V28.7225C40.2717 28.2052 40.3416 27.478 39.7124 27.478C39.5026 27.478 39.2929 27.6179 39.195 27.8556C39.0831 28.1352 39.0552 28.4149 39.0552 28.7225V31.1976C39.0412 31.2955 38.9713 31.3654 38.8874 31.3654Z" fill="#2A3544"/>
<path d="M28.5398 30.527C28.372 30.2893 28.2182 30.1075 28.2182 29.716V28.3177C28.2182 27.7304 28.2601 27.171 27.8267 26.7795C27.4771 26.4579 26.9178 26.332 26.4703 26.332C25.6313 26.332 24.6665 26.6536 24.4567 27.7164C24.4287 27.8282 24.5266 27.8842 24.5965 27.8982L25.4635 27.996C25.5334 27.996 25.6033 27.8982 25.6313 27.8282C25.7012 27.4507 26.0089 27.2969 26.3584 27.2969C26.5402 27.2969 26.75 27.3668 26.8758 27.5346C26.9877 27.7164 26.9877 27.9821 26.9877 28.1918V28.3037C26.4703 28.3456 25.7991 28.4016 25.3097 28.6113C24.7504 28.849 24.3448 29.3524 24.3448 30.0795C24.3448 31.0164 24.9321 31.4779 25.6733 31.4779C26.3025 31.4779 26.6521 31.338 27.1415 30.8206C27.3093 31.0584 27.3512 31.1702 27.6589 31.4219C27.7288 31.4639 27.8267 31.4499 27.8686 31.394C28.0504 31.2262 28.386 30.9465 28.5398 30.8067C28.6097 30.6808 28.6097 30.5969 28.5398 30.527ZM26.9457 29.1706C26.9457 29.5202 26.9457 29.7999 26.7779 30.1355C26.6381 30.3872 26.4004 30.527 26.1487 30.527C25.7991 30.527 25.6173 30.2753 25.6173 29.8698C25.6173 29.1007 26.2885 28.9609 26.9457 28.9609V29.1706Z" fill="#2A3544"/>
<path d="M16.8079 30.527C16.6401 30.2893 16.4863 30.1075 16.4863 29.716V28.3177C16.4863 27.7304 16.5282 27.171 16.0947 26.7795C15.7452 26.4579 15.1858 26.332 14.7384 26.332C13.8994 26.332 12.9345 26.6536 12.7248 27.7164C12.6968 27.8282 12.7947 27.8842 12.8646 27.8982L13.7316 27.996C13.8015 27.996 13.8714 27.8982 13.8994 27.8282C13.9693 27.4507 14.2769 27.2969 14.6265 27.2969C14.8083 27.2969 15.018 27.3668 15.1439 27.5346C15.2557 27.7164 15.2557 27.9821 15.2557 28.1918V28.3037C14.7384 28.3456 14.0672 28.4016 13.5778 28.6113C13.0184 28.849 12.6129 29.3524 12.6129 30.0795C12.6129 31.0164 13.2002 31.4779 13.9413 31.4779C14.5706 31.4779 14.9201 31.338 15.4096 30.8206C15.5774 31.0584 15.6193 31.1702 15.9269 31.4219C15.9969 31.4639 16.0947 31.4499 16.1367 31.394C16.3185 31.2262 16.6541 30.9465 16.8079 30.8067C16.8778 30.6808 16.8778 30.5969 16.8079 30.527ZM15.2138 29.1706C15.2138 29.5202 15.2138 29.7999 15.046 30.1355C14.9062 30.3872 14.6684 30.527 14.4168 30.527C14.0672 30.527 13.8854 30.2753 13.8854 29.8698C13.8854 29.1007 14.5566 28.9609 15.2138 28.9609V29.1706Z" fill="#2A3544"/>
</svg>
