<svg width="65" height="65" viewBox="0 0 65 65" fill="none" xmlns="http://www.w3.org/2000/svg">
<g clip-path="url(#clip0_1101_5645)">
<rect width="65" height="65" fill="white"/>
<path d="M63.459 15.8287C63.3773 15.8292 63.2964 15.8134 63.2209 15.7824C63.1453 15.7513 63.0767 15.7056 63.0191 15.6477L55.4347 8.0634C55.3769 8.00563 55.3309 7.93703 55.2996 7.86152C55.2682 7.786 55.252 7.70504 55.252 7.62327C55.2519 7.5415 55.2679 7.46051 55.2991 7.38493C55.3304 7.30936 55.3761 7.24067 55.4339 7.18279C55.4917 7.12492 55.5603 7.07899 55.6358 7.04762C55.7113 7.01626 55.7923 7.00008 55.8741 7C55.9558 6.99992 56.0368 7.01595 56.1124 7.04717C56.188 7.0784 56.2567 7.1242 56.3145 7.18197L63.8989 14.7646C64.0152 14.8821 64.0805 15.0408 64.0805 15.2062C64.0805 15.3716 64.0152 15.5302 63.8989 15.6477C63.8411 15.7054 63.7725 15.7511 63.697 15.7821C63.6215 15.8132 63.5406 15.829 63.459 15.8287Z" fill="#0F3384"/>
<path d="M55.8748 15.8287C55.7932 15.829 55.7123 15.8132 55.6368 15.7821C55.5613 15.7511 55.4927 15.7054 55.4349 15.6477C55.3186 15.5302 55.2533 15.3716 55.2533 15.2062C55.2533 15.0408 55.3186 14.8821 55.4349 14.7646L63.0193 7.18197C63.0772 7.1242 63.1458 7.0784 63.2214 7.04717C63.297 7.01595 63.378 6.99992 63.4598 7C63.5415 7.00008 63.6225 7.01626 63.698 7.04762C63.7735 7.07899 63.8421 7.12492 63.8999 7.18279C63.9577 7.24067 64.0035 7.30936 64.0347 7.38493C64.0659 7.46051 64.0819 7.5415 64.0819 7.62327C64.0818 7.70504 64.0656 7.786 64.0342 7.86152C64.0029 7.93703 63.9569 8.00563 63.8991 8.0634L56.3147 15.6477C56.2571 15.7056 56.1885 15.7513 56.113 15.7824C56.0374 15.8134 55.9565 15.8292 55.8748 15.8287Z" fill="#0F3384"/>
<path d="M48.4068 58.2753H48.0981C47.933 58.2753 47.7746 58.2097 47.6579 58.0929C47.5412 57.9762 47.4756 57.8179 47.4756 57.6528C47.4756 57.4877 47.5412 57.3294 47.6579 57.2126C47.7746 57.0959 47.933 57.0303 48.0981 57.0303H48.4068C48.5719 57.0303 48.7302 57.0959 48.847 57.2126C48.9637 57.3294 49.0293 57.4877 49.0293 57.6528C49.0293 57.8179 48.9637 57.9762 48.847 58.0929C48.7302 58.2097 48.5719 58.2753 48.4068 58.2753ZM44.8479 58.2753H44.5408C44.3757 58.2753 44.2174 58.2097 44.1006 58.0929C43.9839 57.9762 43.9183 57.8179 43.9183 57.6528C43.9183 57.4877 43.9839 57.3294 44.1006 57.2126C44.2174 57.0959 44.3757 57.0303 44.5408 57.0303H44.8479C45.013 57.0303 45.1713 57.0959 45.288 57.2126C45.4048 57.3294 45.4704 57.4877 45.4704 57.6528C45.4704 57.8179 45.4048 57.9762 45.288 58.0929C45.1713 58.2097 45.013 58.2753 44.8479 58.2753ZM51.6537 58.2487C51.4924 58.249 51.3374 58.1867 51.2211 58.0749C51.1049 57.9631 51.0366 57.8106 51.0306 57.6495C51.0246 57.4883 51.0813 57.3311 51.1889 57.211C51.2964 57.0909 51.4464 57.0172 51.6072 57.0054L51.8927 56.9772C52.0557 56.9641 52.2175 57.0137 52.3452 57.1158C52.4728 57.2179 52.5568 57.3648 52.5799 57.5266C52.5892 57.6079 52.5823 57.6903 52.5597 57.7689C52.537 57.8476 52.4991 57.921 52.4481 57.985C52.3971 58.049 52.3339 58.1023 52.2622 58.1418C52.1906 58.1814 52.1118 58.2064 52.0305 58.2155L51.6985 58.247L51.6537 58.2487ZM41.3221 57.9167C41.262 57.9173 41.2022 57.9089 41.1445 57.8918L40.8391 57.7988C40.7587 57.7754 40.6839 57.736 40.6191 57.6829C40.5543 57.6299 40.5009 57.5643 40.462 57.4902C40.4231 57.416 40.3996 57.3347 40.3929 57.2513C40.3862 57.1678 40.3964 57.0839 40.4228 57.0044C40.4493 56.925 40.4916 56.8517 40.547 56.789C40.6025 56.7262 40.67 56.6753 40.7456 56.6393C40.8212 56.6033 40.9033 56.5829 40.9869 56.5793C41.0706 56.5758 41.1541 56.5891 41.2325 56.6186L41.5064 56.7049C41.6492 56.748 41.7717 56.841 41.8518 56.9668C41.9318 57.0927 41.964 57.2431 41.9425 57.3907C41.921 57.5382 41.8472 57.6732 41.7345 57.771C41.6219 57.8687 41.4779 57.9228 41.3288 57.9233L41.3221 57.9167ZM55.0483 57.2527C54.9125 57.2495 54.7814 57.2019 54.6752 57.1173C54.5689 57.0326 54.4933 56.9155 54.4598 56.7838C54.4263 56.6521 54.4368 56.5131 54.4897 56.388C54.5426 56.2629 54.635 56.1585 54.7528 56.0908L55.0085 55.948C55.0795 55.9076 55.1579 55.8815 55.239 55.8714C55.3201 55.8612 55.4025 55.8671 55.4813 55.8888C55.5601 55.9104 55.6339 55.9474 55.6985 55.9976C55.7631 56.0478 55.8171 56.1102 55.8575 56.1812C55.898 56.2523 55.924 56.3306 55.9342 56.4118C55.9443 56.4929 55.9384 56.5752 55.9168 56.6541C55.8951 56.7329 55.8581 56.8067 55.8079 56.8713C55.7578 56.9358 55.6954 56.9899 55.6243 57.0303L55.3421 57.1863C55.2522 57.2344 55.1519 57.26 55.05 57.261L55.0483 57.2527ZM37.798 56.0908L37.5607 55.8833C37.4992 55.8289 37.4491 55.763 37.4132 55.6892C37.3773 55.6154 37.3564 55.5352 37.3516 55.4533C37.3468 55.3714 37.3582 55.2894 37.3852 55.2119C37.4122 55.1344 37.4543 55.0631 37.509 55.0019C37.5637 54.9407 37.63 54.891 37.7039 54.8555C37.7779 54.8201 37.8582 54.7996 37.9401 54.7953C38.0221 54.791 38.1041 54.8029 38.1814 54.8303C38.2587 54.8578 38.3298 54.9003 38.3907 54.9553L38.5351 55.0798L38.2031 55.621L37.798 56.0908ZM57.7706 55.0051C57.653 55.0053 57.5377 54.9722 57.4381 54.9095C57.3385 54.8468 57.2588 54.7572 57.208 54.6511C57.1573 54.5449 57.1377 54.4266 57.1515 54.3097C57.1653 54.1929 57.2119 54.0823 57.2859 53.9909L57.4519 53.7668C57.5541 53.645 57.699 53.5669 57.8569 53.5485C58.0149 53.5301 58.1739 53.5729 58.3013 53.668C58.4287 53.7632 58.5149 53.9035 58.5421 54.0601C58.5694 54.2168 58.5357 54.3779 58.4479 54.5105L58.2437 54.7728C58.1868 54.8439 58.1149 54.9016 58.0331 54.9418C57.9514 54.982 57.8617 55.0036 57.7706 55.0051ZM36.0169 53.4896C35.9029 53.4907 35.7908 53.4603 35.693 53.4017C35.5951 53.3431 35.5154 53.2586 35.4625 53.1576L35.3164 52.8588C35.2475 52.7087 35.2411 52.5374 35.2985 52.3825C35.356 52.2276 35.4726 52.1019 35.6227 52.033C35.7728 51.9641 35.9441 51.9577 36.099 52.0151C36.2539 52.0725 36.3796 52.1891 36.4485 52.3393L36.5713 52.5949C36.6448 52.7413 36.6572 52.9109 36.6058 53.0665C36.5545 53.222 36.4436 53.3509 36.2975 53.4249C36.2093 53.4702 36.111 53.4925 36.0119 53.4896H36.0169ZM59.3708 51.8545C59.2752 51.8546 59.1809 51.8325 59.0951 51.7902C59.0094 51.7479 58.9346 51.6863 58.8764 51.6104C58.8183 51.5345 58.7785 51.4462 58.76 51.3523C58.7415 51.2585 58.7449 51.1617 58.7699 51.0694L58.8396 50.7922C58.8582 50.7125 58.8922 50.6373 58.9398 50.5707C58.9874 50.5042 59.0477 50.4477 59.1171 50.4045C59.1865 50.3613 59.2638 50.3321 59.3445 50.3188C59.4252 50.3054 59.5078 50.308 59.5874 50.3266C59.6671 50.3451 59.7424 50.3791 59.8089 50.4267C59.8754 50.4744 59.9319 50.5346 59.9751 50.604C60.0184 50.6735 60.0475 50.7508 60.0609 50.8315C60.0742 50.9122 60.0716 50.9947 60.0531 51.0744L59.9717 51.3947C59.9358 51.5276 59.8568 51.6448 59.7472 51.7279C59.6376 51.8111 59.5034 51.8557 59.3658 51.8545H59.3708ZM35.1023 50.0784C34.943 50.0786 34.7896 50.0175 34.6741 49.9079C34.5585 49.7982 34.4896 49.6482 34.4815 49.4891L34.4682 49.1571C34.4662 49.0754 34.4803 48.994 34.5098 48.9177C34.5393 48.8415 34.5835 48.7717 34.6399 48.7125C34.6963 48.6533 34.7638 48.6058 34.8386 48.5728C34.9134 48.5397 34.994 48.5216 35.0757 48.5197H35.0907C35.2532 48.5197 35.4093 48.5832 35.5256 48.6967C35.6419 48.8102 35.7092 48.9648 35.7132 49.1272L35.7248 49.4144C35.7293 49.4961 35.7176 49.5778 35.6905 49.6549C35.6634 49.7321 35.6214 49.8031 35.5668 49.864C35.5122 49.9249 35.4462 49.9744 35.3725 50.0098C35.2987 50.0451 35.2188 50.0656 35.1371 50.0701L35.1023 50.0784ZM59.6696 48.3238C59.5045 48.3238 59.3462 48.2582 59.2294 48.1415C59.1127 48.0248 59.0471 47.8664 59.0471 47.7013V47.3943C59.0471 47.2292 59.1127 47.0708 59.2294 46.9541C59.3462 46.8374 59.5045 46.7718 59.6696 46.7718C59.8347 46.7718 59.993 46.8374 60.1098 46.9541C60.2265 47.0708 60.2921 47.2292 60.2921 47.3943V47.7013C60.2923 47.7834 60.2763 47.8647 60.2448 47.9406C60.2134 48.0164 60.1673 48.0853 60.1091 48.1432C60.0509 48.2011 59.9818 48.2468 59.9058 48.2779C59.8298 48.3089 59.7484 48.3245 59.6663 48.3238H59.6696ZM35.0857 46.5195C34.9206 46.5195 34.7623 46.4539 34.6455 46.3371C34.5288 46.2204 34.4632 46.0621 34.4632 45.897V45.5899C34.4632 45.4248 34.5288 45.2665 34.6455 45.1497C34.7623 45.033 34.9206 44.9674 35.0857 44.9674C35.2508 44.9674 35.4091 45.033 35.5258 45.1497C35.6426 45.2665 35.7082 45.4248 35.7082 45.5899V45.897C35.7082 45.979 35.692 46.0602 35.6605 46.136C35.629 46.2117 35.5828 46.2805 35.5247 46.3383C35.4665 46.3962 35.3975 46.4419 35.3216 46.473C35.2457 46.5041 35.1644 46.5199 35.0824 46.5195H35.0857ZM59.6696 44.7665C59.5045 44.7665 59.3462 44.701 59.2294 44.5842C59.1127 44.4675 59.0471 44.3092 59.0471 44.1441V43.8353C59.0471 43.6702 59.1127 43.5119 59.2294 43.3951C59.3462 43.2784 59.5045 43.2128 59.6696 43.2128C59.8347 43.2128 59.993 43.2784 60.1098 43.3951C60.2265 43.5119 60.2921 43.6702 60.2921 43.8353V44.1474C60.2919 44.2292 60.2755 44.3102 60.2439 44.3856C60.2123 44.4611 60.1661 44.5295 60.1079 44.5871C60.0498 44.6446 59.9808 44.6901 59.905 44.7209C59.8292 44.7517 59.7481 44.7672 59.6663 44.7665H59.6696ZM35.0857 42.9622C34.9206 42.9622 34.7623 42.8966 34.6455 42.7799C34.5288 42.6631 34.4632 42.5048 34.4632 42.3397V42.0309C34.4632 41.8658 34.5288 41.7075 34.6455 41.5908C34.7623 41.474 34.9206 41.4085 35.0857 41.4085C35.2508 41.4085 35.4091 41.474 35.5258 41.5908C35.6426 41.7075 35.7082 41.8658 35.7082 42.0309V42.3397C35.7082 42.4217 35.692 42.5029 35.6605 42.5787C35.629 42.6544 35.5828 42.7232 35.5247 42.781C35.4665 42.8389 35.3975 42.8847 35.3216 42.9157C35.2457 42.9468 35.1644 42.9626 35.0824 42.9622H35.0857ZM59.6696 41.2059C59.5045 41.2059 59.3462 41.1404 59.2294 41.0236C59.1127 40.9069 59.0471 40.7486 59.0471 40.5835V40.278C59.0471 40.1129 59.1127 39.9546 59.2294 39.8379C59.3462 39.7211 59.5045 39.6555 59.6696 39.6555C59.8347 39.6555 59.993 39.7211 60.1098 39.8379C60.2265 39.9546 60.2921 40.1129 60.2921 40.278V40.5835C60.2923 40.6655 60.2763 40.7469 60.2448 40.8227C60.2134 40.8985 60.1673 40.9674 60.1091 41.0253C60.0509 41.0832 59.9818 41.129 59.9058 41.16C59.8298 41.191 59.7484 41.2066 59.6663 41.2059H59.6696ZM35.0857 39.4032C34.9206 39.4032 34.7623 39.3377 34.6455 39.2209C34.5288 39.1042 34.4632 38.9458 34.4632 38.7808V38.4737C34.4632 38.3086 34.5288 38.1502 34.6455 38.0335C34.7623 37.9168 34.9206 37.8512 35.0857 37.8512C35.2508 37.8512 35.4091 37.9168 35.5258 38.0335C35.6426 38.1502 35.7082 38.3086 35.7082 38.4737V38.7808C35.7082 38.8628 35.692 38.944 35.6605 39.0197C35.629 39.0955 35.5828 39.1642 35.5247 39.2221C35.4665 39.2799 35.3975 39.3257 35.3216 39.3568C35.2457 39.3879 35.1644 39.4037 35.0824 39.4032H35.0857ZM59.6696 37.6487C59.5045 37.6487 59.3462 37.5831 59.2294 37.4663C59.1127 37.3496 59.0471 37.1913 59.0471 37.0262V36.7191C59.0471 36.554 59.1127 36.3957 59.2294 36.2789C59.3462 36.1622 59.5045 36.0966 59.6696 36.0966C59.8347 36.0966 59.993 36.1622 60.1098 36.2789C60.2265 36.3957 60.2921 36.554 60.2921 36.7191V37.0262C60.2923 37.1083 60.2763 37.1896 60.2448 37.2654C60.2134 37.3413 60.1673 37.4101 60.1091 37.468C60.0509 37.5259 59.9818 37.5717 59.9058 37.6027C59.8298 37.6337 59.7484 37.6493 59.6663 37.6487H59.6696ZM35.0824 35.8476C34.9173 35.8476 34.7589 35.782 34.6422 35.6653C34.5255 35.5486 34.4599 35.3902 34.4599 35.2251V34.9164C34.4599 34.7513 34.5255 34.593 34.6422 34.4762C34.7589 34.3595 34.9173 34.2939 35.0824 34.2939C35.2475 34.2939 35.4058 34.3595 35.5225 34.4762C35.6393 34.593 35.7048 34.7513 35.7048 34.9164V35.2251C35.7048 35.3902 35.6393 35.5486 35.5225 35.6653C35.4058 35.782 35.2475 35.8476 35.0824 35.8476ZM59.6663 34.0914C59.5012 34.0914 59.3429 34.0258 59.2261 33.9091C59.1094 33.7923 59.0438 33.634 59.0438 33.4689V33.1618C59.0438 32.9967 59.1094 32.8384 59.2261 32.7216C59.3429 32.6049 59.5012 32.5393 59.6663 32.5393C59.8314 32.5393 59.9897 32.6049 60.1065 32.7216C60.2232 32.8384 60.2888 32.9967 60.2888 33.1618V33.4689C60.2888 33.5506 60.2727 33.6314 60.2414 33.7069C60.2101 33.7823 60.1642 33.8508 60.1063 33.9085C60.0485 33.9661 59.9799 34.0118 59.9044 34.0429C59.8289 34.074 59.748 34.0899 59.6663 34.0897V34.0914ZM35.0824 32.2887C34.9173 32.2887 34.7589 32.2231 34.6422 32.1063C34.5255 31.9896 34.4599 31.8313 34.4599 31.6662V31.3657C34.4599 31.2006 34.5255 31.0423 34.6422 30.9256C34.7589 30.8088 34.9173 30.7433 35.0824 30.7433C35.2475 30.7433 35.4058 30.8088 35.5225 30.9256C35.6393 31.0423 35.7048 31.2006 35.7048 31.3657V31.6728C35.7027 31.8365 35.6361 31.9927 35.5196 32.1076C35.4031 32.2226 35.246 32.287 35.0824 32.287V32.2887ZM59.6663 30.5358C59.5012 30.5358 59.3429 30.4702 59.2261 30.3534C59.1094 30.2367 59.0438 30.0784 59.0438 29.9133V29.6062C59.0438 29.4411 59.1094 29.2828 59.2261 29.166C59.3429 29.0493 59.5012 28.9837 59.6663 28.9837C59.8314 28.9837 59.9897 29.0493 60.1065 29.166C60.2232 29.2828 60.2888 29.4411 60.2888 29.6062V29.9133C60.289 29.9951 60.273 30.0761 60.2418 30.1517C60.2106 30.2274 60.1648 30.2961 60.1069 30.3539C60.0491 30.4118 59.9804 30.4576 59.9048 30.4888C59.8291 30.52 59.7481 30.536 59.6663 30.5358ZM35.0824 28.733C35.0006 28.7333 34.9195 28.7173 34.8439 28.6861C34.7683 28.6549 34.6996 28.6091 34.6417 28.5512C34.5839 28.4934 34.538 28.4247 34.5068 28.349C34.4756 28.2734 34.4597 28.1924 34.4599 28.1106V27.8035C34.4599 27.6384 34.5255 27.48 34.6422 27.3633C34.7589 27.2466 34.9173 27.181 35.0824 27.181C35.2475 27.181 35.4058 27.2466 35.5225 27.3633C35.6393 27.48 35.7048 27.6384 35.7048 27.8035V28.1106C35.704 28.2749 35.6379 28.4322 35.5213 28.548C35.4046 28.6638 35.2467 28.7285 35.0824 28.7281V28.733ZM59.6663 26.9785C59.5012 26.9785 59.3429 26.9129 59.2261 26.7962C59.1094 26.6794 59.0438 26.5211 59.0438 26.356V26.0904C59.0438 25.9253 59.1094 25.767 59.2261 25.6502C59.3429 25.5335 59.5012 25.4679 59.6663 25.4679C59.8314 25.4679 59.9897 25.5335 60.1065 25.6502C60.2232 25.767 60.2888 25.9253 60.2888 26.0904V26.356C60.2879 26.5204 60.2219 26.6777 60.1052 26.7934C59.9885 26.9092 59.8307 26.9739 59.6663 26.9735V26.9785ZM11.5641 26.7129C11.399 26.7129 11.2407 26.6473 11.124 26.5306C11.0072 26.4138 10.9417 26.2555 10.9417 26.0904V25.7816C10.9417 25.6166 11.0072 25.4582 11.124 25.3415C11.2407 25.2247 11.399 25.1592 11.5641 25.1592C11.7292 25.1592 11.8876 25.2247 12.0043 25.3415C12.121 25.4582 12.1866 25.6166 12.1866 25.7816V26.0904C12.1853 26.2546 12.1191 26.4117 12.0025 26.5273C11.8859 26.643 11.7284 26.7079 11.5641 26.7079V26.7129ZM35.0824 25.1758C34.9173 25.1758 34.7589 25.1102 34.6422 24.9934C34.5255 24.8767 34.4599 24.7184 34.4599 24.5533V24.2445C34.4599 24.0794 34.5255 23.9211 34.6422 23.8044C34.7589 23.6876 34.9173 23.622 35.0824 23.622C35.2475 23.622 35.4058 23.6876 35.5225 23.8044C35.6393 23.9211 35.7048 24.0794 35.7048 24.2445V24.5533C35.7035 24.7175 35.6374 24.8746 35.5208 24.9902C35.4042 25.1059 35.2466 25.1708 35.0824 25.1708V25.1758ZM11.5641 23.149C11.399 23.149 11.2407 23.0834 11.124 22.9666C11.0072 22.8499 10.9417 22.6916 10.9417 22.5265V22.3206L11.5641 22.2194L12.1866 22.2327V22.5265C12.1866 22.6082 12.1705 22.6892 12.1392 22.7647C12.108 22.8402 12.0621 22.9088 12.0043 22.9666C11.9465 23.0244 11.8779 23.0703 11.8023 23.1016C11.7268 23.1329 11.6459 23.149 11.5641 23.149ZM34.9811 21.6168C34.8332 21.6164 34.6902 21.5634 34.5777 21.4673C34.4652 21.3712 34.3905 21.2383 34.3669 21.0923L34.3188 20.8051C34.2943 20.6453 34.3329 20.4822 34.4265 20.3504C34.5201 20.2185 34.6613 20.1283 34.8203 20.0987C34.9793 20.0692 35.1435 20.1027 35.2782 20.192C35.413 20.2814 35.5076 20.4197 35.5422 20.5777L35.597 20.8981C35.6097 20.9787 35.6064 21.0611 35.5873 21.1405C35.5682 21.2199 35.5335 21.2948 35.4854 21.3608C35.4373 21.4268 35.3767 21.4826 35.3069 21.5251C35.2372 21.5676 35.1598 21.596 35.079 21.6085C35.0467 21.6138 35.0139 21.6166 34.9811 21.6168ZM12.1999 19.673C12.1197 19.6736 12.0402 19.6584 11.9658 19.6282C11.8901 19.5974 11.8211 19.5519 11.7629 19.4945C11.7047 19.437 11.6584 19.3686 11.6266 19.2932C11.5949 19.2178 11.5783 19.1369 11.5778 19.0551C11.5773 18.9733 11.593 18.8922 11.6239 18.8165L11.7534 18.5144C11.7854 18.4376 11.8325 18.3681 11.8918 18.3099C11.9511 18.2516 12.0215 18.2059 12.0988 18.1753C12.1761 18.1447 12.2588 18.1299 12.3419 18.1318C12.425 18.1337 12.5069 18.1522 12.5827 18.1862C12.6586 18.2203 12.7268 18.2691 12.7835 18.33C12.8401 18.3909 12.884 18.4624 12.9125 18.5405C12.941 18.6186 12.9536 18.7016 12.9496 18.7846C12.9455 18.8677 12.9248 18.9491 12.8888 19.024L12.7759 19.2862C12.7295 19.4009 12.6498 19.499 12.5472 19.5679C12.4445 19.6368 12.3236 19.6734 12.1999 19.673ZM33.7478 18.3085C33.6431 18.3092 33.5401 18.2831 33.4483 18.2329C33.3565 18.1826 33.2791 18.1098 33.2232 18.0214L33.0572 17.7823C33.011 17.7149 32.9785 17.639 32.9617 17.5589C32.9448 17.4789 32.9438 17.3964 32.9589 17.316C32.9739 17.2356 33.0046 17.159 33.0492 17.0904C33.0939 17.0219 33.1516 16.9629 33.2191 16.9167C33.3553 16.8233 33.5231 16.7879 33.6854 16.8183C33.8478 16.8487 33.9914 16.9423 34.0847 17.0785L34.264 17.3507C34.3247 17.4446 34.3589 17.5531 34.363 17.6647C34.3671 17.7764 34.3411 17.8871 34.2875 17.9852C34.234 18.0833 34.1549 18.1651 34.0588 18.222C33.9626 18.2789 33.8529 18.3088 33.7411 18.3085H33.7478ZM14.1603 16.7399C14.0367 16.7393 13.916 16.702 13.8136 16.6328C13.7112 16.5636 13.6316 16.4655 13.585 16.3509C13.5384 16.2364 13.5269 16.1107 13.5519 15.9896C13.5769 15.8685 13.6373 15.7576 13.7254 15.6709L13.9644 15.4468C14.0246 15.3916 14.095 15.3489 14.1717 15.3209C14.2484 15.293 14.3299 15.2805 14.4114 15.284C14.4929 15.2875 14.573 15.3071 14.647 15.3416C14.7209 15.3761 14.7874 15.4248 14.8425 15.485C14.8977 15.5451 14.9405 15.6156 14.9684 15.6922C14.9963 15.7689 15.0089 15.8504 15.0053 15.9319C15.0018 16.0135 14.9822 16.0935 14.9477 16.1675C14.9132 16.2415 14.8645 16.3079 14.8044 16.3631L14.5969 16.5623C14.4822 16.6752 14.3279 16.739 14.1669 16.7399H14.1603ZM31.2943 15.7622C31.1682 15.7616 31.0451 15.7235 30.9408 15.6526L30.7134 15.4982C30.584 15.4058 30.4949 15.2674 30.4643 15.1114C30.4338 14.9554 30.4641 14.7936 30.549 14.6592C30.6339 14.5248 30.767 14.428 30.9211 14.3886C31.0751 14.3493 31.2383 14.3703 31.3773 14.4475L31.6546 14.6301C31.7642 14.7055 31.8468 14.814 31.8902 14.9398C31.9337 15.0655 31.9357 15.2019 31.896 15.3289C31.8562 15.4559 31.7769 15.5668 31.6695 15.6453C31.5621 15.7239 31.4324 15.766 31.2993 15.7655L31.2943 15.7622ZM17.1366 14.821C16.991 14.8215 16.8499 14.771 16.7377 14.6782C16.6255 14.5855 16.5493 14.4563 16.5225 14.3133C16.4957 14.1702 16.5198 14.0222 16.5908 13.8951C16.6617 13.768 16.775 13.6698 16.9108 13.6175C17.0154 13.5777 17.1217 13.5378 17.2296 13.503C17.307 13.4758 17.3891 13.4645 17.471 13.4697C17.5529 13.4748 17.6329 13.4964 17.7063 13.5331C17.7796 13.5698 17.8449 13.6209 17.8982 13.6833C17.9515 13.7457 17.9917 13.8181 18.0164 13.8964C18.0684 14.0529 18.0562 14.2237 17.9825 14.3712C17.9087 14.5187 17.7794 14.6309 17.623 14.6832L17.3624 14.7778C17.2908 14.8076 17.2141 14.8234 17.1366 14.8243V14.821ZM28.0375 14.3977C28.0008 14.3977 27.9641 14.3943 27.928 14.3877L27.6358 14.3379C27.4727 14.3119 27.3266 14.2222 27.2296 14.0885C27.1326 13.9548 27.0928 13.7881 27.1187 13.625C27.1447 13.4619 27.2344 13.3157 27.3681 13.2188C27.5018 13.1218 27.6686 13.0819 27.8317 13.1079L28.1454 13.1627C28.2981 13.1903 28.435 13.274 28.5292 13.3974C28.6234 13.5207 28.6682 13.6748 28.6547 13.8294C28.6412 13.984 28.5704 14.128 28.4562 14.2331C28.342 14.3382 28.1927 14.3969 28.0375 14.3977ZM24.4885 14.245H24.1814C24.0164 14.245 23.858 14.1794 23.7413 14.0626C23.6245 13.9459 23.559 13.7876 23.559 13.6225C23.559 13.4574 23.6245 13.2991 23.7413 13.1823C23.858 13.0656 24.0164 13 24.1814 13H24.4885C24.6536 13 24.812 13.0656 24.9287 13.1823C25.0454 13.2991 25.111 13.4574 25.111 13.6225C25.111 13.7876 25.0454 13.9459 24.9287 14.0626C24.812 14.1794 24.6536 14.245 24.4885 14.245ZM20.9313 14.245H20.6225C20.4574 14.245 20.2991 14.1794 20.1823 14.0626C20.0656 13.9459 20 13.7876 20 13.6225C20 13.4574 20.0656 13.2991 20.1823 13.1823C20.2991 13.0656 20.4574 13 20.6225 13H20.9313C21.0963 13 21.2547 13.0656 21.3714 13.1823C21.4882 13.2991 21.5537 13.4574 21.5537 13.6225C21.5537 13.7876 21.4882 13.9459 21.3714 14.0626C21.2547 14.1794 21.0963 14.245 20.9313 14.245Z" fill="#0F3384"/>
<path d="M17.0252 65.027H3.10814C2.56253 65.0381 2.03465 64.833 1.6397 64.4564C1.24475 64.0798 1.01479 63.5623 1 63.0168V54.5145C1.02354 52.9858 1.46169 51.4921 2.26769 50.1929C3.07369 48.8937 4.21731 47.8377 5.57649 47.1376C5.84731 46.9944 6.14981 46.9216 6.45613 46.926C6.76246 46.9303 7.06277 47.0117 7.32941 47.1625C8.16503 47.6347 9.10853 47.8828 10.0683 47.8828C11.0281 47.8828 11.9716 47.6347 12.8073 47.1625C13.0739 47.0117 13.3742 46.9303 13.6805 46.926C13.9869 46.9216 14.2894 46.9944 14.5602 47.1376C15.9194 47.8377 17.063 48.8937 17.869 50.1929C18.675 51.4921 19.1131 52.9858 19.1367 54.5145V63.0168C19.1223 63.563 18.892 64.0813 18.4963 64.4581C18.1005 64.8349 17.5715 65.0394 17.0252 65.027ZM6.43303 48.1668C6.33864 48.1671 6.24576 48.1905 6.16246 48.2349C5.00164 48.8286 4.0238 49.7263 3.33327 50.8322C2.64274 51.9382 2.26545 53.2109 2.24165 54.5145V63.0168C2.25824 63.2319 2.358 63.4322 2.51976 63.575C2.68152 63.7179 2.89257 63.7921 3.10814 63.782H17.0252C17.2405 63.7917 17.4511 63.7173 17.6125 63.5744C17.7739 63.4316 17.8734 63.2316 17.89 63.0168V54.5145C17.8666 53.2112 17.4897 51.9388 16.7994 50.833C16.1091 49.7273 15.1315 48.8299 13.9709 48.2365C13.888 48.1919 13.7953 48.1686 13.7011 48.1686C13.607 48.1686 13.5143 48.1919 13.4314 48.2365C12.4046 48.8168 11.2452 49.1217 10.0658 49.1217C8.88644 49.1217 7.72707 48.8168 6.70028 48.2365C6.61873 48.1906 6.52665 48.1665 6.43303 48.1668Z" fill="#0F3384"/>
<path d="M10.0675 49.0458C8.37055 49.0432 6.74385 48.368 5.54377 47.1683C4.3437 45.9685 3.66812 44.342 3.66504 42.645C3.66365 41.5583 3.93891 40.4891 4.46488 39.5381C4.99086 38.5871 5.75026 37.7856 6.67154 37.2092C7.59282 36.6328 8.64566 36.3004 9.73091 36.2432C10.8162 36.1861 11.8981 36.4062 12.8748 36.8827C13.8515 37.3592 14.6908 38.0765 15.3138 38.967C15.9367 39.8575 16.3227 40.8919 16.4354 41.9728C16.5481 43.0537 16.3838 44.1455 15.9581 45.1453C15.5323 46.1452 14.859 47.0202 14.0016 47.688C12.8807 48.571 11.4944 49.0495 10.0675 49.0458ZM10.0675 37.4876C9.05073 37.4899 8.05744 37.7933 7.21299 38.3596C6.36854 38.9259 5.71078 39.7297 5.32275 40.6695C4.93471 41.6093 4.83378 42.643 5.03271 43.6402C5.23163 44.6373 5.72149 45.5531 6.44045 46.2721C7.15941 46.991 8.07525 47.4809 9.07236 47.6798C10.0695 47.8787 11.1032 47.7778 12.043 47.3898C12.9828 47.0017 13.7866 46.344 14.3529 45.4995C14.9192 44.6551 15.2227 43.6618 15.225 42.645C15.2241 41.2775 14.6804 39.9661 13.7134 38.9991C12.7464 38.0321 11.4351 37.4884 10.0675 37.4876Z" fill="#0F3384"/>
</g>
<defs>
<clipPath id="clip0_1101_5645">
<rect width="65" height="65" fill="white"/>
</clipPath>
</defs>
</svg>
