<svg width="65" height="65" viewBox="0 0 65 65" fill="none" xmlns="http://www.w3.org/2000/svg">
<rect width="65" height="65" fill="white"/>
<g clip-path="url(#clip0_502_91)">
<path d="M30.4064 64H27.4125V49.8337C21.6698 46.0506 9.72168 37.4637 9.72168 31.4761V30.1152H12.1712V31.4761C12.1712 34.8373 18.8937 41.3693 29.3041 48.1463L29.8621 48.5001V61.4144L34.2167 58.1484V48.6226L34.7747 48.2687C45.1851 41.4646 51.9075 34.9598 51.9075 31.5985V30.2377H54.3571V31.5985C54.3571 37.5862 42.409 46.173 36.6663 49.9562V59.482L30.4064 64Z" fill="#0F3384"/>
<path d="M54.4931 31.3398H32.7198V28.8904H54.4931C54.5292 28.8904 54.5639 28.876 54.5894 28.8505C54.6149 28.825 54.6292 28.7904 54.6292 28.7543V26.0326C54.6292 26.0147 54.6257 25.997 54.6189 25.9805C54.612 25.964 54.602 25.949 54.5894 25.9364C54.5768 25.9237 54.5617 25.9137 54.5452 25.9069C54.5287 25.9 54.511 25.8965 54.4931 25.8965H9.58562C9.56775 25.8965 9.55005 25.9 9.53354 25.9069C9.51703 25.9137 9.50199 25.9237 9.48935 25.9364C9.47672 25.949 9.46671 25.964 9.45987 25.9805C9.45303 25.997 9.44957 26.0147 9.44957 26.0326V28.7543C9.44957 28.7904 9.46383 28.825 9.48935 28.8505C9.51487 28.876 9.54953 28.8904 9.58562 28.8904H20.4723V31.3398H9.58562C8.89988 31.3398 8.24222 31.0674 7.75733 30.5825C7.27244 30.0977 7 29.44 7 28.7543V26.0326C7 25.3469 7.27244 24.6892 7.75733 24.2043C8.24222 23.7194 8.89988 23.447 9.58562 23.447H54.4931C55.1789 23.447 55.8365 23.7194 56.3214 24.2043C56.8063 24.6892 57.0787 25.3469 57.0787 26.0326V28.7543C57.0787 29.44 56.8063 30.0977 56.3214 30.5825C55.8365 31.0674 55.1789 31.3398 54.4931 31.3398Z" fill="#0F3384"/>
<path d="M54.3571 21.9503H51.9076V17.7317H47.689V15.2822H54.3571V21.9503Z" fill="#0F3384"/>
<path d="M48.9137 21.9503H46.4642V8.20585H43.4704V13.7853H41.0209V5.75635H48.9137V21.9503Z" fill="#0F3384"/>
<path d="M43.4703 21.9501H41.0208V15.0098H38.027V21.9501H35.5775V12.5603H43.4703V21.9501Z" fill="#0F3384"/>
<path d="M13.655 22.4268L7.81702 8.64154L28.2023 0.000244141L36.2857 3.26624L38.8304 9.29474L36.5714 10.2609L34.4213 5.1578L28.2295 2.65387L11.0286 9.93433L15.914 21.4742L13.655 22.4268Z" fill="#0F3384"/>
<path d="M28.9639 9.73L26.8954 4.84461L29.1544 3.87842L30.2566 6.51844L32.8967 5.40255L33.8492 7.66154L28.9639 9.73Z" fill="#0F3384"/>
</g>
<defs>
<clipPath id="clip0_502_91">
<rect width="50.0787" height="64" fill="white" transform="translate(7)"/>
</clipPath>
</defs>
</svg>
