<svg width="46" height="37" viewBox="0 0 46 37" fill="none" xmlns="http://www.w3.org/2000/svg">
<path d="M14.951 36.605C32.0252 36.605 41.3528 22.5245 41.3528 10.3072C41.3528 9.90713 41.3528 9.5089 41.3256 9.11247C43.142 7.80301 44.7096 6.18175 45.9551 4.32465C44.2616 5.07211 42.4651 5.56229 40.6255 5.77884C42.5619 4.62463 44.0116 2.80926 44.705 0.670274C42.8835 1.74687 40.8908 2.50559 38.8128 2.91372C35.9365 -0.13269 31.3661 -0.87831 27.6644 1.09496C23.9628 3.06823 22.0504 7.26965 22.9996 11.3433C15.5388 10.9707 8.58754 7.46065 3.87583 1.68658C1.41299 5.90974 2.67096 11.3124 6.74865 14.0246C5.27197 13.981 3.82749 13.5842 2.53711 12.8678V12.9849C2.53832 17.3845 5.6519 21.174 9.98148 22.0451C8.61539 22.4162 7.18208 22.4705 5.79165 22.2037C7.00726 25.9688 10.4909 28.548 14.4608 28.6223C11.175 31.1945 7.116 32.5908 2.93692 32.5866C2.19864 32.5852 1.46107 32.5407 0.728027 32.4533C4.97148 35.1657 9.90897 36.6045 14.951 36.5978" fill="#2C3543"/>
</svg>
