<svg width="152" height="31" viewBox="0 0 152 31" fill="none" xmlns="http://www.w3.org/2000/svg">
<path d="M29.3398 0C28.741 1.67656 28.232 3.41299 27.5734 5.05961C26.7052 7.21519 25.7172 9.34083 24.819 11.4665C23.6215 14.2807 22.4539 17.1248 21.2863 19.9391C20.3582 22.1545 19.46 24.3999 18.532 26.6154C18.2026 27.4237 17.9631 28.3219 17.4841 29.0404C17.1248 29.5194 16.4063 29.729 15.8075 29.9984C15.568 30.1182 15.2088 30.0284 14.9094 30.0284C11.2868 30.0882 12.185 29.9685 10.7779 26.8549C9.55039 24.1604 8.41273 21.4061 7.24513 18.6817C6.34697 16.5261 5.47875 14.3705 4.55066 12.2149C3.6525 10.0594 2.63459 7.96365 1.82625 5.80808C1.10773 3.89201 0.598771 1.91607 0 0C1.79631 0 3.59262 0 5.38894 0C5.89789 1.01791 6.43679 2.03582 6.88586 3.08367C7.51457 4.52072 8.02353 5.98771 8.6223 7.42476C9.81984 10.2989 11.0473 13.143 12.2748 15.9872C12.9035 17.4841 13.5921 18.981 14.2208 20.448C14.3705 20.478 14.5202 20.478 14.6399 20.5079C15.4183 18.7715 16.2267 17.035 16.9752 15.2986C18.4421 11.8557 19.8792 8.41273 21.3162 4.9698C22.0348 3.32318 22.6934 1.67656 23.3521 0C25.3579 0 27.3339 0 29.3398 0Z" fill="#2C3543"/>
<path d="M94.7853 9.37081C94.7853 6.91585 94.8451 4.82015 94.7553 2.75439C94.7254 1.58679 95.0846 1.19759 96.2822 1.19759C100.324 1.19759 100.324 1.13771 100.324 5.26923C100.324 12.9036 100.294 20.5379 100.354 28.1423C100.354 29.6691 99.9047 30.2679 98.4078 30.0284C97.0905 29.8188 95.6535 30.4475 94.426 29.3997C94.1565 29.1602 93.438 29.3099 92.9889 29.4895C87.3605 31.7349 81.1931 29.5793 78.2292 24.5497C75.8042 20.4481 76.7024 14.64 80.2651 11.3468C83.6481 8.20321 87.6 7.93376 91.8213 8.44272C92.7195 8.56247 93.5877 8.98161 94.7853 9.37081ZM88.4682 25.4478C92.001 25.5975 94.7553 22.454 94.6356 19.2505C94.4859 15.4483 92.2704 13.2628 88.6179 13.0832C85.3247 12.9335 82.6003 15.598 82.4506 19.1008C82.3009 22.1246 84.9654 25.6274 88.4682 25.4478Z" fill="#2C3543"/>
<path d="M37.423 8.2332C42.1233 7.99369 45.7459 10.269 47.9014 14.2808C50.2965 18.7416 49.3086 24.2803 44.8477 27.7831C41.6144 30.3578 37.872 30.8967 34.0998 29.9386C30.4173 29.0405 27.6331 26.7951 26.2259 22.933C24.1901 17.3345 26.705 12.9934 30.4173 10.0295C31.9143 8.86191 34.6986 8.2332 37.423 8.2332ZM37.1535 25.4479C40.6863 25.7173 43.4107 22.2444 43.3508 19.3105C43.261 15.4783 40.6563 13.1132 37.2733 13.0832C33.8902 13.0533 31.1658 15.7178 31.1658 19.2506C31.1359 22.454 33.7106 25.5077 37.1535 25.4479Z" fill="#2C3543"/>
<path d="M62.9906 8.3227C67.6909 8.0832 71.3135 10.3585 73.4691 14.3703C75.8642 18.8311 74.8762 24.3698 70.4153 27.8726C67.182 30.4473 63.4397 30.9862 59.6674 30.0281C55.985 29.13 53.2007 26.8547 51.7936 23.0225C49.7578 17.424 52.2726 13.0829 55.985 10.119C57.4819 8.92148 60.2662 8.3227 62.9906 8.3227ZM62.7211 25.5074C66.2539 25.7769 68.9783 22.304 68.9184 19.37C68.8286 15.5379 66.2239 13.1727 62.8409 13.1428C59.4578 13.1129 56.7334 15.7774 56.7334 19.3101C56.7035 22.5435 59.2782 25.5972 62.7211 25.5074Z" fill="#2C3543"/>
<path d="M114.635 8.20295C119.335 7.96344 122.958 10.2388 125.113 14.2505C127.508 18.7114 126.52 24.25 122.059 27.7528C118.826 30.3275 115.084 30.8664 111.311 29.9084C107.629 28.9803 104.845 26.7349 103.438 22.8728C101.402 17.2743 103.917 12.9332 107.629 9.96933C109.126 8.80172 111.91 8.20295 114.635 8.20295ZM114.365 25.3877C117.898 25.6571 120.622 22.1843 120.562 19.2503C120.473 15.4181 117.868 13.053 114.485 13.0231C111.102 12.9931 108.377 15.6576 108.377 19.1904C108.348 22.4238 110.922 25.4476 114.365 25.3877Z" fill="#2C3543"/>
<path d="M140.202 8.3227C144.902 8.0832 148.525 10.3585 150.68 14.3703C153.075 18.8311 152.087 24.3698 147.627 27.8726C144.393 30.4473 140.651 30.9862 136.879 30.0281C133.196 29.1001 130.412 26.8547 129.005 22.9926C126.969 17.3941 129.484 13.053 133.196 10.0891C134.693 8.92148 137.477 8.3227 140.202 8.3227ZM139.932 25.5074C143.465 25.7769 146.189 22.304 146.13 19.37C146.04 15.5379 143.435 13.1727 140.052 13.1428C136.669 13.1129 133.945 15.7774 133.945 19.3101C133.915 22.5435 136.489 25.5972 139.932 25.5074Z" fill="#2C3543"/>
</svg>
