<svg width="260" height="19" viewBox="0 0 260 19" fill="none" xmlns="http://www.w3.org/2000/svg">
<path d="M251.772 9.57111H246.931V2.861H251.941C254.276 2.92116 255.979 4.22307 255.986 6.35393C255.96 8.22992 254.701 9.51763 251.771 9.57111H251.772ZM259.653 17.2447C258.201 15.3729 256.029 12.6003 255.083 11.3869C257.214 10.5037 258.697 8.73381 258.697 6.3063C258.691 3.18271 256.029 0.435997 251.997 0.435997H244.94L244.89 0.424298C244.623 0.424298 244.129 0.900607 244.129 1.25324C244.121 1.55156 244.121 17.4411 244.129 17.8054C244.135 17.9333 244.109 18.0711 244.273 18.3235C244.486 18.6009 244.802 18.616 244.94 18.616H246.116C246.181 18.616 246.43 18.6344 246.733 18.3461C246.956 18.0987 246.92 17.945 246.931 17.8054V11.9435H252.188L256.969 18.1982C257.094 18.397 257.53 18.616 257.844 18.616H258.99C259.074 18.616 259.893 18.4096 259.893 17.8923C259.919 17.6475 259.726 17.3241 259.652 17.2447H259.653ZM236.512 17.1085C236.495 16.9606 236.594 16.8244 236.33 16.4275C236.033 16.1885 235.841 16.1885 235.689 16.1885C235.672 16.1885 235.622 16.2085 235.577 16.1885H225.64V10.5956H235.389C235.981 10.5956 236.215 9.80843 236.215 9.59618V9.07809C236.215 8.94606 235.952 8.15889 235.389 8.15889H225.667V2.86434H235.499C235.622 2.87771 235.982 2.86016 236.221 2.5585C236.4 2.26268 236.386 2.10976 236.394 1.9418V1.30672C236.346 1.15882 236.425 0.982499 236.216 0.663288C235.926 0.437668 235.69 0.437668 235.552 0.437668H223.558C223.483 0.424298 223.344 0.424298 223.107 0.577218C222.799 0.85799 222.899 1.08695 222.886 1.12873V17.6959C222.899 17.8581 222.813 18.011 223.014 18.2725C223.222 18.57 223.532 18.6152 223.694 18.6152H235.69C235.803 18.6152 235.982 18.621 236.283 18.3962C236.586 18.0703 236.503 17.8915 236.512 17.7386V17.1093V17.1085ZM209 8.05695L215.092 1.65852C215.191 1.53903 215.294 1.39948 215.294 1.21982C215.251 0.730138 214.867 0.436832 214.405 0.436832H213.279C212.9 0.399229 212.512 0.656603 212.404 0.729303L203.241 10.4853V1.285C203.241 1.15965 203.261 0.982499 203.059 0.694206C202.83 0.443517 202.513 0.436832 202.374 0.436832H201.324C201.195 0.436832 200.947 0.436832 200.672 0.649082C200.45 0.883059 200.456 1.11954 200.456 1.25241C200.45 1.48471 200.45 17.6341 200.456 17.8196C200.456 17.95 200.456 18.1973 200.683 18.3812C200.904 18.58 201.172 18.6151 201.36 18.6151H202.3C202.464 18.6001 202.67 18.621 202.993 18.4229C203.261 18.1773 203.24 17.9174 203.24 17.8196V14.0994L207.043 10.08L213.527 18.0979C213.773 18.2851 213.854 18.5015 214.549 18.616H215.782C216.068 18.616 216.646 18.3461 216.646 17.8998C216.64 17.6425 216.558 17.5221 216.454 17.3901L209 8.05611V8.05695ZM185.264 9.57111H180.389V2.861H185.387C187.728 2.92116 189.464 4.22307 189.483 6.35393C189.457 8.22992 188.194 9.51763 185.264 9.57111H185.264ZM188.567 11.3869C190.694 10.5037 192.194 8.73381 192.186 6.3063C192.186 3.18271 189.547 0.435997 185.451 0.435997H178.416L178.39 0.423462C178.131 0.423462 177.625 0.899771 177.625 1.25241V17.8054C177.632 17.9333 177.591 18.0711 177.784 18.3235C177.995 18.6009 178.312 18.616 178.416 18.616H179.579C179.628 18.616 179.913 18.6344 180.203 18.3461C180.437 18.0987 180.39 17.945 180.39 17.8054V11.9435H185.674L190.482 18.1982C190.577 18.397 191.012 18.616 191.341 18.616H192.442C192.559 18.616 193.379 18.4096 193.379 17.8923C193.39 17.6475 193.203 17.3241 193.129 17.2447C191.665 15.3729 189.54 12.6003 188.567 11.3869ZM158.088 12.149C158.937 10.5655 160.793 7.01575 162.032 4.50886C162.047 4.5005 162.054 4.49549 162.054 4.48713C162.08 4.5005 162.087 4.50802 162.108 4.53059C163.374 7.00907 165.193 10.5638 165.997 12.1482H158.088V12.149ZM162.851 0.497833C162.851 0.482792 162.576 -0.0202578 162.054 0.000632983C161.56 -0.0194221 161.305 0.497833 161.305 0.497833C159.558 3.66069 153.357 15.5392 152.373 17.4411C152.289 17.528 152.223 17.6475 152.223 17.9341C152.289 18.616 153.02 18.616 153.161 18.616H154.086C154.532 18.6878 155.076 18.219 155.093 18.0327L156.94 14.5164H167.197L169.06 18.1037C169.079 18.265 169.553 18.6218 169.857 18.6218C169.87 18.6218 169.891 18.6218 169.909 18.616H171.061C171.267 18.616 171.934 18.397 171.934 17.9257C171.918 17.706 171.837 17.6015 171.809 17.4695C170.706 15.3319 164.528 3.73423 162.85 0.497833H162.851ZM142.92 9.61206C141.393 9.59701 139.021 9.59701 137.866 9.59701V2.86434H142.868C145.137 2.92116 146.899 4.11193 146.899 6.2336C146.887 8.48312 145.148 9.58949 142.92 9.61206H142.92ZM142.952 0.436832H135.887C135.79 0.424298 135.521 0.445188 135.32 0.656603C135.126 0.857154 135.085 1.06606 135.085 1.25324V17.8054C135.126 17.9333 135.042 18.0711 135.296 18.3653C135.536 18.616 135.776 18.616 135.88 18.616H137.104C137.193 18.616 137.529 18.616 137.737 18.2851C137.915 18.0118 137.847 17.9007 137.866 17.8054V12.0245H142.427C146.626 12.0162 149.672 9.8101 149.688 6.2336C149.672 2.64039 146.483 0.436832 142.953 0.436832H142.952ZM113.867 0.436832H112.764C112.4 0.42012 112.002 0.762728 111.9 0.988348C110.951 2.3546 107.683 7.18204 106.412 9.09229C105.132 7.15363 101.875 2.28775 100.925 0.91732C100.925 0.756043 100.288 0.344913 100.011 0.436832H99.0344C98.8438 0.436832 98.175 0.436832 98.0399 1.1279C98.052 1.3602 98.1421 1.47719 98.175 1.55156C99.5498 3.60053 104.289 10.7017 105.03 11.7588V17.767C105.045 17.9324 104.99 18.0979 105.238 18.3636C105.415 18.5792 105.687 18.6143 105.824 18.6143H106.9C107.065 18.6143 107.299 18.6143 107.596 18.3636C107.836 18.0486 107.781 17.8789 107.781 17.7035V11.758C108.518 10.7218 113.092 3.91138 114.58 1.6368C114.636 1.47552 114.712 1.42455 114.732 1.12706C114.684 0.471093 113.963 0.435161 113.869 0.435161L113.867 0.436832ZM86.7236 16.2094H80.5877V10.6374H86.6742C89.3337 10.6758 90.6903 11.8181 90.7137 13.4677C90.6357 15.3436 89.6395 16.1016 86.7245 16.2085L86.7236 16.2094ZM80.5886 2.86016H85.9136C88.4518 2.92701 89.6612 3.97406 89.6932 5.54504C89.5494 7.55891 88.9526 8.15889 86.3624 8.26335H80.5886V2.861V2.86016ZM90.7821 9.19925C91.8477 8.43716 92.5208 7.15447 92.4818 5.44142C92.4818 2.21004 89.3805 0.437668 85.7369 0.437668H78.6767C78.5511 0.437668 78.2903 0.437668 78.0296 0.636548C77.774 0.830414 77.774 1.12121 77.774 1.28667V17.8071C77.774 18.0728 78.2219 18.6176 78.6143 18.6176H86.9237C90.9519 18.6176 93.4988 16.8921 93.5118 13.4702C93.5118 11.5674 92.4463 9.98892 90.783 9.20009L90.7821 9.19925ZM62.5672 9.57194H57.6493V2.86434H62.6894C64.9885 2.92116 66.7176 4.22391 66.7609 6.3531C66.6778 8.22992 65.4398 9.53685 62.5664 9.57027L62.5672 9.57194ZM65.8461 11.3936C67.9703 10.5053 69.4828 8.73631 69.4828 6.30797C69.4412 3.17603 66.8181 0.436832 62.7578 0.436832H55.6829C55.5815 0.424298 55.3052 0.445188 55.1198 0.656603C54.9205 0.857154 54.8998 1.06606 54.8998 1.25324V17.8054C54.8998 17.9333 54.8512 18.0711 55.0366 18.3151C55.2775 18.616 55.5928 18.616 55.7184 18.616H56.8723C56.9762 18.616 57.2101 18.616 57.4761 18.3653C57.71 18.0711 57.6338 17.9333 57.6615 17.8054V11.971H62.9501L67.7528 18.1982C67.9001 18.382 68.2466 18.616 68.5585 18.616H69.721C69.844 18.616 70.641 18.4438 70.641 17.8923C70.654 17.6416 70.4504 17.3157 70.3855 17.2447C68.9422 15.3871 66.8051 12.6003 65.8427 11.3919L65.8461 11.3936ZM35.2013 12.1507C36.013 10.5672 37.8824 7.01742 39.155 4.51053C39.155 4.50217 39.1611 4.49716 39.1611 4.47711C39.1672 4.50217 39.1836 4.51053 39.1957 4.53226C40.4891 7.01074 42.2762 10.5655 43.1148 12.1499H35.2013V12.1507ZM39.9338 0.497833C39.9338 0.482792 39.706 -0.0202578 39.168 0.000632983C38.6742 -0.0194221 38.3797 0.497833 38.3797 0.497833C36.6818 3.66069 30.4645 15.5392 29.4769 17.4411C29.3989 17.528 29.3036 17.6475 29.3036 17.9341C29.3989 18.616 30.1439 18.616 30.2739 18.616H31.2008C31.6426 18.6878 32.1589 18.219 32.2195 18.0327L33.992 14.5164H44.2791L46.1217 18.1037C46.139 18.265 46.6415 18.6218 46.9273 18.6218C46.9447 18.6218 46.9793 18.6218 46.994 18.616H48.1696C48.3671 18.616 49.0185 18.397 49.0185 17.9257C49.0185 17.706 48.9579 17.6015 48.8851 17.4695C47.8187 15.3319 41.6508 3.73339 39.9338 0.497833ZM25.7484 0.436832H24.8189C24.5884 0.365804 23.866 0.685014 23.866 0.982499L18.9515 13.4351L14.1722 0.888908C14.0856 0.491148 13.4272 0.357447 13.3778 0.390872H13.3033C13.0573 0.312323 12.5358 0.716768 12.5358 0.900607L7.90725 13.4459C6.75163 10.6248 4.27925 4.56234 2.86981 1.0928C2.8109 0.817044 2.40201 0.399229 1.96627 0.436832H0.768199C0.690233 0.436832 0.577616 0.424298 0.31773 0.531258C0.076903 0.664959 -0.0131906 0.982499 0.00153624 1.10784C0.00153624 1.31424 0.070839 1.40616 0.101159 1.55073L7.07216 18.514C7.33637 18.9201 7.72707 18.9987 7.85181 18.9987H7.90725C7.90725 18.9987 8.53531 19.0355 8.72416 18.4639C10.0522 14.9417 12.2872 9.1324 13.3588 6.37399C14.4087 9.16499 16.6437 15.0796 17.9622 18.4689C18.0489 18.8742 18.7332 19.0146 18.8077 18.9987C18.8614 19.0154 19.5467 18.8733 19.609 18.489C21.9463 12.8401 24.7444 6.03472 26.5523 1.55073C26.5991 1.40616 26.6216 1.35268 26.6407 1.1279C26.6407 0.531258 25.8229 0.436832 25.7484 0.436832Z" fill="#2C3543"/>
</svg>
