<svg width="42" height="50" viewBox="0 0 42 50" fill="none" xmlns="http://www.w3.org/2000/svg">
<path fill-rule="evenodd" clip-rule="evenodd" d="M34.8798 16.7209C35.361 14.025 33.564 11.907 31.4778 10.3664C28.5577 8.21629 25.2521 6.93261 21.8502 5.93772V41.4961C23.3587 40.1804 24.8669 38.704 26.311 37.1957C29.392 33.7939 32.2482 30.328 33.4355 26.156C33.917 24.2626 33.6603 22.1123 32.0554 20.8286C33.4355 19.7376 34.6871 18.3894 34.8798 16.7209V16.7209ZM29.0068 29.0122C27.9477 30.9378 26.5037 32.7028 24.8024 34.3396L24.7706 24.1663C25.9261 23.332 27.1134 22.5935 28.5577 22.4653C29.1353 22.4653 29.6487 22.658 30.0338 23.1072C31.3175 25.1289 29.8093 27.2471 29.0068 29.0122V29.0122ZM31.9272 15.9184C31.6384 17.5233 29.8732 18.4537 28.6219 19.1279C27.3701 19.7695 26.0864 20.2831 24.7706 20.7644V10.3664C26.7925 10.9764 28.6219 12.0031 30.3547 13.2228C31.1572 13.8968 32.2482 14.7311 31.9272 15.9184" fill="#2C3543"/>
<path fill-rule="evenodd" clip-rule="evenodd" d="M19.2187 41.2383V5.80812L16.3625 7.28452V26.2832C16.2341 26.8286 16.6193 27.6632 16.0094 27.9199C15.849 27.952 15.7208 27.8878 15.6565 27.7595C14.4371 23.1703 13.9236 18.3243 13.6989 13.3499L13.6024 9.01761L10.8747 11.0395V12.1947C11.035 16.784 11.3561 21.2766 12.2225 25.5772L11.1315 26.7968C10.7143 26.2189 10.4575 25.6093 10.1686 24.9995C8.78875 21.3409 8.27528 17.3295 8.08264 13.1896L5.70779 14.9545C5.93252 21.2448 7.11988 27.1818 10.9389 31.8993C11.677 31.065 12.4152 30.1985 13.1533 29.3961C13.5386 31.0971 14.0839 32.7338 14.7257 34.3384C15.7848 36.8095 16.9723 39.3127 19.2187 41.2383" fill="#2C3543"/>
<path fill-rule="evenodd" clip-rule="evenodd" d="M41.0736 10.4628L36.8053 9.40395L36.035 6.51565L31.6705 5.48865L30.772 2.3434L20.4703 0.000592859L10.3611 2.3434L9.46261 5.48865L5.09805 6.51565C4.80927 7.51027 4.55251 8.47304 4.29572 9.43581L0.0275078 10.4628C-0.293467 19.545 2.20983 27.5359 6.73472 34.6605C10.0403 39.7632 15.0147 45.1547 20.4703 47.8184C24.1609 46.0532 27.4343 43.1007 30.3869 39.7953C37.5432 31.5155 41.4588 21.8236 41.0736 10.4628ZM28.4934 37.934C26.1506 40.5656 23.519 43.1649 20.5665 44.6734C17.7425 43.2613 15.2714 40.8222 13.0248 38.3511C7.18404 31.5155 3.30086 23.8776 2.65904 14.9236C2.59496 14.1857 2.56277 13.4796 2.59496 12.7093L6.22135 11.875L7.0557 8.89032L11.5166 7.8312L11.5486 7.7351L12.3509 4.65409L20.4383 2.76068L28.7822 4.65409L29.5844 7.79908L34.1097 8.89032L34.8798 11.875L38.5384 12.7093C38.442 22.4654 34.5588 30.649 28.4934 37.934Z" fill="#2C3543"/>
<path fill-rule="evenodd" clip-rule="evenodd" d="M29.8414 47.4646C30.3226 47.4325 30.6436 47.1758 30.6436 46.6303C30.6436 46.0205 30.2584 45.7318 29.5202 45.7318H28.365V48.8125H28.8784V47.4967H29.3599L30.1623 48.8125H30.7078L29.8414 47.4646V47.4646ZM28.8784 47.0797V46.1488H29.4883C29.7772 46.1488 30.1299 46.213 30.1299 46.5982C30.1299 47.0153 29.8093 47.0797 29.4241 47.0797H28.8784" fill="#2C3543"/>
<path fill-rule="evenodd" clip-rule="evenodd" d="M29.4559 44.7369C28.0119 44.7369 26.8246 45.9244 26.8246 47.3685C26.8246 48.8126 28.0119 50 29.4559 50C30.9002 50 32.0878 48.8126 32.0878 47.3685C32.0878 45.9244 30.9002 44.7369 29.4559 44.7369ZM29.4559 49.7434C28.1404 49.7434 27.0813 48.6844 27.0813 47.3685C27.0813 46.0527 28.1404 44.9935 29.4559 44.9935C30.772 44.9935 31.8309 46.0527 31.8309 47.3685C31.8309 48.6844 30.772 49.7434 29.4559 49.7434Z" fill="#2C3543"/>
</svg>
