<svg width="37" height="46" viewBox="0 0 37 46" fill="none" xmlns="http://www.w3.org/2000/svg">
<path fill-rule="evenodd" clip-rule="evenodd" d="M31.4003 15.27C31.8336 12.8078 30.2158 10.8734 28.3377 9.46635C25.7089 7.50263 22.733 6.33022 19.6704 5.42158V37.8975C21.0285 36.6959 22.3863 35.3475 23.6862 33.9699C26.4599 30.863 29.0312 27.6976 30.1001 23.8872C30.5336 22.158 30.3025 20.194 28.8577 19.0216C30.1001 18.0252 31.2268 16.7939 31.4003 15.27V15.27ZM26.1132 26.4958C25.1597 28.2545 23.8597 29.8665 22.3282 31.3614L22.2995 22.0699C23.3397 21.308 24.4086 20.6336 25.7089 20.5165C26.2288 20.5165 26.691 20.6925 27.0378 21.1027C28.1934 22.9492 26.8356 24.8837 26.1132 26.4958V26.4958ZM28.7423 14.5371C28.4823 16.0028 26.8932 16.8526 25.7667 17.4684C24.6397 18.0543 23.4841 18.5234 22.2995 18.963V9.46635C24.1197 10.0235 25.7667 10.9612 27.3267 12.0752C28.0491 12.6907 29.0312 13.4527 28.7423 14.5371" fill="#2C3643"/>
<path fill-rule="evenodd" clip-rule="evenodd" d="M17.3013 37.6635V5.30462L14.73 6.65303V24.0048C14.6144 24.5029 14.9611 25.2652 14.4121 25.4996C14.2677 25.5289 14.1523 25.4703 14.0944 25.3531C12.9966 21.1617 12.5343 16.7358 12.3321 12.1926L12.2452 8.23588L9.78959 10.0825V11.1376C9.93393 15.329 10.223 19.4322 11.0029 23.36L10.0208 24.4738C9.64516 23.9461 9.41399 23.3893 9.15394 22.8323C7.9117 19.4909 7.44944 15.8272 7.27602 12.0462L5.13806 13.6582C5.34037 19.4031 6.40929 24.8255 9.84738 29.1341C10.5118 28.372 11.1765 27.5806 11.8409 26.8479C12.1877 28.4013 12.6787 29.8962 13.2565 31.3617C14.21 33.6186 15.279 35.9048 17.3013 37.6635" fill="#2C3643"/>
<path fill-rule="evenodd" clip-rule="evenodd" d="M36.9766 9.55528L33.134 8.58821L32.4406 5.95028L28.5115 5.01231L27.7026 2.13971L18.4285 -6.43582e-06L9.32762 2.13971L8.51874 5.01231L4.58953 5.95028C4.32956 6.85869 4.0984 7.73799 3.86723 8.6173L0.024764 9.55528C-0.264194 17.8501 1.9894 25.1484 6.06295 31.6553C9.03878 36.3157 13.517 41.2399 18.4285 43.6726C21.7509 42.0605 24.6978 39.3639 27.3558 36.3451C33.7984 28.783 37.3234 19.9312 36.9766 9.55528ZM25.6513 34.6451C23.5422 37.0485 21.173 39.4226 18.515 40.8002C15.9727 39.5106 13.7481 37.283 11.7256 35.0261C6.46745 28.783 2.9716 21.8071 2.39381 13.6294C2.33612 12.9554 2.30713 12.3105 2.33612 11.607L5.60079 10.845L6.35191 8.1191L10.3679 7.15179L10.3967 7.06403L11.119 4.2501L18.3996 2.52082L25.9113 4.2501L26.6334 7.12245L30.7073 8.1191L31.4006 10.845L34.6943 11.607C34.6075 20.5174 31.1117 27.9916 25.6513 34.6451Z" fill="#2C3643"/>
<path fill-rule="evenodd" clip-rule="evenodd" d="M26.8649 43.3497C27.2981 43.3204 27.5871 43.086 27.5871 42.5877C27.5871 42.0308 27.2403 41.7671 26.5758 41.7671H25.5358V44.5807H25.9979V43.379H26.4314L27.1538 44.5807H27.6449L26.8649 43.3497V43.3497ZM25.9979 42.9981V42.1479H26.5471C26.8071 42.1479 27.1247 42.2066 27.1247 42.5584C27.1247 42.9393 26.836 42.9981 26.4892 42.9981H25.9979" fill="#2C3643"/>
<path fill-rule="evenodd" clip-rule="evenodd" d="M26.5179 40.8584C25.2179 40.8584 24.149 41.9429 24.149 43.2618C24.149 44.5807 25.2179 45.6652 26.5179 45.6652C27.8181 45.6652 28.8873 44.5807 28.8873 43.2618C28.8873 41.9429 27.8181 40.8584 26.5179 40.8584ZM26.5179 45.4309C25.3336 45.4309 24.3801 44.4636 24.3801 43.2618C24.3801 42.06 25.3336 41.0927 26.5179 41.0927C27.7027 41.0927 28.656 42.06 28.656 43.2618C28.656 44.4636 27.7027 45.4309 26.5179 45.4309Z" fill="#2C3643"/>
</svg>
