<svg width="65" height="65" viewBox="0 0 65 65" fill="none" xmlns="http://www.w3.org/2000/svg">
<rect width="65" height="65" fill="white"/>
<path d="M63.9962 50.3116H53.7959" stroke="#0F3384" stroke-width="1.56647" stroke-linecap="round" stroke-linejoin="round"/>
<path d="M63.9962 32.9832H53.7959" stroke="#0F3384" stroke-width="1.56647" stroke-linecap="round" stroke-linejoin="round"/>
<path d="M61.9397 29.8948C62.5244 29.941 63.0676 30.2193 63.4513 30.6692C63.8351 31.1192 64.0285 31.7045 63.9896 32.2982V46.9364C64.0182 47.2326 63.9872 47.5317 63.8985 47.8154C63.8098 48.0991 63.6652 48.3615 63.4735 48.5868C63.2818 48.8121 63.0471 48.9956 62.7834 49.1261C62.5197 49.2566 62.2327 49.3315 61.9397 49.3461H55.8391C55.2544 49.2983 54.7118 49.0185 54.3292 48.5673C53.9465 48.1162 53.7547 47.5302 53.7954 46.9364V32.2982C53.7564 31.7055 53.949 31.121 54.3314 30.6713C54.7139 30.2215 55.2555 29.9425 55.8391 29.8948H61.9397Z" stroke="#0F3384" stroke-width="1.56647" stroke-linecap="round" stroke-linejoin="round"/>
<path d="M4.83203 45.7533V13.9302C4.83203 13.4183 5.03248 12.9273 5.38929 12.5653C5.74609 12.2034 6.23002 12 6.73462 12H56.9873C57.2376 11.9992 57.4857 12.0485 57.7173 12.1451C57.9488 12.2418 58.1593 12.3838 58.3366 12.5631C58.5139 12.7425 58.6546 12.9555 58.7506 13.1901C58.8466 13.4247 58.896 13.6762 58.896 13.9302V27.1239" stroke="#0F3384" stroke-width="1.56647" stroke-linecap="round" stroke-linejoin="round"/>
<path d="M51.2919 53.3191H3.77032C3.2731 53.287 2.80848 53.0571 2.47748 52.6793C2.14648 52.3015 1.97587 51.8064 2.00276 51.3017V50.6791H51.2919" stroke="#0F3384" stroke-width="1.56647" stroke-linecap="round" stroke-linejoin="round"/>
</svg>
