<svg width="460" height="700" viewBox="0 0 460 700" fill="none" xmlns="http://www.w3.org/2000/svg">
<path d="M106.212 333.018C106.212 343.544 98.6071 351.039 87.3094 351.039C84.6823 351.061 82.0766 350.565 79.6412 349.58C77.2057 348.594 74.9882 347.139 73.1151 345.297C69.3324 341.576 67.1827 336.505 67.1389 331.199C67.095 325.894 69.1607 320.788 72.8814 317.005C76.6021 313.222 81.673 311.073 86.9787 311.029C90.3368 310.969 93.6526 311.784 96.5998 313.395C99.5471 315.005 102.024 317.355 103.788 320.214L98.2765 323.355C97.0903 321.426 95.4158 319.845 93.4223 318.77C91.4288 317.696 89.187 317.168 86.9236 317.238C85.084 317.179 83.2518 317.498 81.5403 318.175C79.8288 318.853 78.2743 319.873 76.9728 321.175C75.6713 322.476 74.6504 324.031 73.9733 325.742C73.2961 327.454 72.977 329.286 73.0357 331.126C73.0357 338.896 78.657 344.903 87.3094 344.903C94.3085 344.903 98.6071 341.229 99.7645 336.086H86.9053V330.409H106.194L106.212 333.018Z" fill="#0F3384"/>
<path d="M126.071 322.271V328.719C122.158 328.444 117.584 330.262 117.584 336.435V350.304H111.632V322.749H117.547V327.378C118.269 325.753 119.475 324.39 121.001 323.476C122.526 322.562 124.297 322.141 126.071 322.271V322.271Z" fill="#0F3384"/>
<path d="M127.669 336.545C127.658 333.665 128.502 330.847 130.094 328.447C131.686 326.047 133.954 324.174 136.612 323.064C139.269 321.955 142.197 321.659 145.022 322.214C147.848 322.769 150.446 324.15 152.486 326.183C154.526 328.215 155.918 330.808 156.484 333.631C157.049 336.455 156.764 339.383 155.665 342.045C154.565 344.707 152.701 346.982 150.307 348.583C147.913 350.185 145.098 351.039 142.218 351.039C140.306 351.061 138.409 350.702 136.637 349.982C134.866 349.262 133.255 348.196 131.901 346.847C130.546 345.497 129.474 343.891 128.747 342.122C128.021 340.353 127.654 338.457 127.669 336.545V336.545ZM150.815 336.545C150.794 334.85 150.271 333.198 149.313 331.799C148.355 330.4 147.005 329.315 145.432 328.681C143.86 328.048 142.135 327.893 140.474 328.237C138.814 328.581 137.292 329.408 136.101 330.615C134.91 331.822 134.102 333.354 133.779 335.018C133.456 336.683 133.632 338.406 134.286 339.97C134.94 341.535 136.042 342.871 137.453 343.811C138.865 344.751 140.522 345.253 142.218 345.253C143.361 345.271 144.496 345.057 145.555 344.624C146.613 344.191 147.573 343.549 148.376 342.735C149.18 341.921 149.81 340.954 150.229 339.89C150.648 338.826 150.848 337.688 150.815 336.545V336.545Z" fill="#0F3384"/>
<path d="M199.074 322.749L190.421 350.304H184.579L178.848 331.732L173.08 350.304H167.238L158.586 322.749H164.868L170.214 341.762L176.001 322.749H181.659L187.353 341.78L192.864 322.749H199.074Z" fill="#0F3384"/>
<path d="M212.044 328.499V341.725C212.044 345.253 214.358 345.197 218.877 344.977V350.304C209.692 351.407 206.018 348.871 206.018 341.707V328.48H200.948V322.749H206.018V316.797L211.97 314.96V322.749H218.804V328.48L212.044 328.499Z" fill="#0F3384"/>
<path d="M249.353 333.404V350.304H243.402V333.992C243.499 333.147 243.409 332.292 243.136 331.487C242.864 330.682 242.417 329.948 241.826 329.336C241.236 328.725 240.518 328.252 239.723 327.952C238.928 327.651 238.076 327.531 237.229 327.599C233.316 327.599 230.23 329.913 230.23 335.535V350.231H224.278V311.727H230.23V326.276C231.152 324.877 232.428 323.747 233.929 323.002C235.429 322.256 237.1 321.922 238.772 322.032C244.945 322.051 249.353 326.239 249.353 333.404Z" fill="#0F3384"/>
<path d="M105.606 411.091H99.2681V383.536L87.5295 402.935H86.758L75.0194 383.481V411.036H68.6816V372.459H75.5154L87.1438 391.748L98.8272 372.459H105.606V411.091Z" fill="#0F3384"/>
<path d="M140.712 383.536V411.091H134.76V407.123C133.666 408.642 132.212 409.865 130.529 410.682C128.845 411.5 126.985 411.887 125.116 411.808C121.398 411.62 117.894 410.012 115.329 407.314C112.763 404.616 111.333 401.036 111.333 397.313C111.333 393.591 112.763 390.011 115.329 387.313C117.894 384.615 121.398 383.007 125.116 382.819C126.979 382.742 128.833 383.124 130.515 383.931C132.197 384.738 133.654 385.946 134.76 387.449V383.536H140.712ZM134.76 397.313C134.738 395.596 134.209 393.924 133.239 392.506C132.269 391.089 130.902 389.99 129.309 389.348C127.716 388.706 125.969 388.549 124.287 388.897C122.605 389.245 121.064 390.083 119.857 391.305C118.651 392.527 117.832 394.079 117.505 395.765C117.178 397.451 117.357 399.196 118.019 400.781C118.681 402.365 119.797 403.719 121.226 404.671C122.656 405.623 124.335 406.131 126.052 406.131C127.212 406.157 128.365 405.945 129.441 405.51C130.516 405.075 131.491 404.424 132.306 403.599C133.121 402.773 133.76 401.79 134.181 400.709C134.603 399.628 134.8 398.473 134.76 397.313V397.313Z" fill="#0F3384"/>
<path d="M167.661 403.321C167.661 408.832 162.884 411.808 156.933 411.808C151.421 411.808 147.453 409.328 145.69 405.36L150.815 402.384C151.264 403.621 152.104 404.678 153.208 405.395C154.312 406.111 155.62 406.447 156.933 406.352C159.578 406.352 161.617 405.47 161.617 403.266C161.617 398.361 146.792 401.117 146.792 391.252C146.792 386.071 151.256 382.82 156.859 382.82C158.925 382.722 160.977 383.208 162.78 384.222C164.583 385.235 166.064 386.736 167.055 388.551L162.058 391.362C161.608 390.376 160.871 389.548 159.944 388.988C159.016 388.427 157.941 388.16 156.859 388.221C154.728 388.221 152.854 389.158 152.854 391.142C152.854 396.23 167.661 393.126 167.661 403.321Z" fill="#0F3384"/>
<path d="M180.129 389.388V402.615C180.129 406.142 182.443 406.087 186.962 405.866V411.212C177.777 412.314 174.103 409.779 174.103 402.615V389.388H169.033V383.657H174.268V377.705L180.22 375.868V383.583H187.054V389.315L180.129 389.388Z" fill="#0F3384"/>
<path d="M204.989 406.352C206.363 406.407 207.729 406.124 208.969 405.528C210.208 404.932 211.283 404.042 212.098 402.935L217.003 405.801C215.665 407.742 213.855 409.312 211.744 410.362C209.633 411.413 207.29 411.91 204.934 411.808C195.841 411.808 189.944 405.58 189.944 397.314C189.882 395.389 190.217 393.472 190.927 391.682C191.637 389.892 192.707 388.267 194.071 386.908C195.436 385.549 197.065 384.484 198.858 383.781C200.65 383.078 202.568 382.751 204.493 382.82C212.704 382.82 218.326 389.433 218.326 397.369C218.309 398.2 218.236 399.028 218.105 399.849H196.171C197.108 404.147 200.58 406.352 204.989 406.352ZM212.337 394.999C212.117 393.085 211.183 391.325 209.722 390.068C208.262 388.812 206.382 388.152 204.456 388.22C202.476 388.12 200.529 388.757 198.992 390.01C197.455 391.262 196.437 393.04 196.134 394.999H212.337Z" fill="#0F3384"/>
<path d="M238.001 383.04V389.488C234.088 389.213 229.514 391.032 229.514 397.204V411.092H223.562V383.536H229.606V388.166C230.321 386.562 231.507 385.213 233.006 384.297C234.505 383.382 236.247 382.944 238.001 383.04V383.04Z" fill="#0F3384"/>
<path d="M282.879 394.007V411.091H276.927V394.393C276.927 390.535 274.833 388.386 271.581 388.386C268.054 388.386 265.574 390.645 265.574 395.734V411.165H259.622V394.393C259.622 390.535 257.694 388.386 254.442 388.386C251.19 388.386 248.325 390.645 248.325 395.734V411.165H242.465V383.61H248.417V386.916C249.262 385.613 250.435 384.556 251.818 383.85C253.202 383.143 254.746 382.814 256.297 382.893C257.877 382.826 259.444 383.197 260.825 383.965C262.206 384.734 263.348 385.869 264.123 387.247C265.019 385.841 266.271 384.698 267.752 383.934C269.233 383.169 270.89 382.81 272.555 382.893C278.727 382.82 282.879 387.045 282.879 394.007Z" fill="#0F3384"/>
<path d="M288.482 375.6C288.482 374.848 288.705 374.113 289.123 373.488C289.541 372.862 290.134 372.375 290.829 372.087C291.524 371.799 292.289 371.724 293.026 371.871C293.764 372.017 294.442 372.38 294.973 372.911C295.505 373.443 295.867 374.121 296.014 374.858C296.161 375.596 296.085 376.361 295.798 377.055C295.51 377.75 295.022 378.344 294.397 378.762C293.772 379.18 293.037 379.403 292.284 379.403C291.276 379.403 290.309 379.002 289.596 378.289C288.882 377.576 288.482 376.609 288.482 375.6ZM289.308 383.536H295.26V411.092H289.308V383.536Z" fill="#0F3384"/>
<path d="M327.225 394.173V411.092H321.273V394.779C321.37 393.935 321.28 393.079 321.008 392.274C320.735 391.469 320.288 390.735 319.698 390.124C319.107 389.512 318.389 389.039 317.594 388.739C316.799 388.439 315.947 388.318 315.1 388.386C311.187 388.386 308.101 390.701 308.101 396.322V411.018H302.149V383.463H308.101V387.045C309.023 385.646 310.299 384.516 311.8 383.771C313.3 383.025 314.972 382.691 316.643 382.801C322.816 382.82 327.225 387.045 327.225 394.173Z" fill="#0F3384"/>
<path d="M361.393 372.514V411.091H355.441V407.123C354.346 408.641 352.892 409.863 351.209 410.68C349.526 411.498 347.667 411.885 345.797 411.808C342.079 411.621 338.575 410.012 336.01 407.314C333.445 404.616 332.015 401.036 332.015 397.314C332.015 393.591 333.445 390.011 336.01 387.313C338.575 384.616 342.079 383.007 345.797 382.82C347.66 382.746 349.513 383.129 351.194 383.936C352.876 384.743 354.334 385.949 355.441 387.449V372.514H361.393ZM355.441 397.314C355.42 395.596 354.891 393.924 353.921 392.506C352.951 391.089 351.583 389.99 349.991 389.348C348.398 388.706 346.65 388.549 344.969 388.897C343.287 389.246 341.746 390.084 340.539 391.306C339.332 392.528 338.514 394.079 338.187 395.765C337.859 397.451 338.038 399.196 338.7 400.781C339.362 402.366 340.478 403.719 341.908 404.671C343.337 405.623 345.016 406.131 346.734 406.131C347.894 406.157 349.047 405.946 350.122 405.51C351.197 405.075 352.173 404.424 352.988 403.599C353.803 402.773 354.441 401.79 354.863 400.709C355.285 399.629 355.482 398.473 355.441 397.314V397.314Z" fill="#0F3384"/>
<path d="M388.343 403.321C388.343 408.832 383.548 411.808 377.596 411.808C372.085 411.808 368.117 409.328 366.354 405.36L371.479 402.384C371.928 403.621 372.768 404.678 373.872 405.395C374.976 406.111 376.284 406.447 377.596 406.352C380.242 406.352 382.281 405.47 382.281 403.266C382.281 398.361 367.456 401.117 367.456 391.252C367.456 386.071 371.92 382.82 377.541 382.82C379.607 382.722 381.659 383.208 383.462 384.222C385.265 385.235 386.746 386.736 387.737 388.551L382.722 391.362C382.275 390.377 381.542 389.551 380.617 388.99C379.693 388.429 378.621 388.161 377.541 388.221C375.392 388.221 373.518 389.158 373.518 391.142C373.518 396.23 388.343 393.126 388.343 403.321Z" fill="#0F3384"/>
<path d="M389.111 462.994C389.111 451.596 382.558 444.805 371.252 444.797C301.579 444.761 231.905 444.761 162.232 444.797C161.106 444.797 159.572 444.226 158.933 445.322C158.118 446.65 159.421 447.728 160.122 448.807C174.15 470.4 174.123 492.206 161.186 514.254C160.405 515.582 158.525 516.794 159.324 518.442C160.122 520.091 162.267 519.244 163.757 519.253C198.665 519.295 233.575 519.295 268.489 519.253C303.249 519.253 338.012 519.253 372.777 519.253C382.531 519.253 389.058 512.614 389.084 502.838C389.146 489.569 389.12 476.281 389.111 462.994ZM310.547 493.294C310.547 489.622 310.547 485.95 310.547 482.279C310.547 479.748 310.626 477.208 310.547 474.677C310.547 477.208 310.547 479.748 310.547 482.279C310.555 485.959 310.591 489.658 310.547 493.329V493.294Z" fill="#008AFC"/>
<path d="M130.102 454.95C136.02 463.513 139.128 473.704 138.997 484.111C139.001 484.19 139.029 484.266 139.079 484.327C139.128 484.389 139.196 484.433 139.272 484.454C139.349 484.475 139.429 484.471 139.503 484.443C139.577 484.415 139.64 484.365 139.684 484.299C143.061 478.636 145.095 472.274 145.629 465.702C146.163 459.13 145.184 452.523 142.767 446.389C137.974 442.57 132.46 439.757 126.554 438.117C120.649 436.478 114.474 436.047 108.398 436.849C108.319 436.862 108.246 436.899 108.19 436.956C108.134 437.013 108.097 437.086 108.086 437.165C108.074 437.244 108.088 437.325 108.125 437.395C108.163 437.466 108.222 437.523 108.294 437.558C117.116 441.084 124.701 447.134 130.102 454.95Z" fill="#078CFC"/>
<path d="M146.641 482.196C142.226 492.111 134.652 500.284 125.103 505.442C125.037 505.485 124.986 505.548 124.959 505.622C124.931 505.696 124.927 505.777 124.948 505.853C124.968 505.929 125.013 505.997 125.074 506.047C125.136 506.096 125.211 506.125 125.29 506.129C127.599 506.148 129.905 505.974 132.185 505.608C143.116 503.882 153.037 498.214 160.076 489.674C161.014 483.563 160.706 477.325 159.17 471.336C157.635 465.348 154.903 459.731 151.14 454.826C151.089 454.76 151.017 454.713 150.936 454.692C150.855 454.671 150.769 454.678 150.693 454.712C150.616 454.745 150.553 454.803 150.513 454.877C150.473 454.95 150.459 455.035 150.473 455.118C151.783 464.325 150.454 473.714 146.641 482.196V482.196Z" fill="#078CFC"/>
<path d="M146.242 482.735C141.827 492.65 134.253 500.824 124.704 505.981C124.638 506.025 124.588 506.088 124.56 506.162C124.532 506.236 124.528 506.316 124.549 506.393C124.57 506.469 124.614 506.536 124.675 506.586C124.737 506.636 124.813 506.664 124.892 506.668C127.2 506.688 129.506 506.514 131.786 506.148C142.717 504.421 152.638 498.753 159.677 490.213C160.615 484.102 160.307 477.865 158.771 471.876C157.236 465.887 154.504 460.271 150.741 455.365C150.69 455.299 150.618 455.252 150.537 455.231C150.456 455.21 150.37 455.217 150.294 455.251C150.217 455.284 150.154 455.343 150.114 455.416C150.074 455.49 150.06 455.575 150.074 455.657C151.384 464.864 150.055 474.253 146.242 482.735V482.735Z" fill="#078CFC"/>
<path d="M99.1498 454.743C109.016 454.062 118.847 456.503 127.249 461.72C127.319 461.762 127.401 461.779 127.482 461.77C127.564 461.76 127.64 461.724 127.699 461.668C127.757 461.611 127.796 461.537 127.809 461.456C127.822 461.375 127.808 461.293 127.77 461.221C127.145 460.096 126.457 459.013 125.687 457.95C122.361 453.101 118.082 448.981 113.112 445.84C108.141 442.699 102.582 440.604 96.7753 439.683C91.0698 441.958 85.8695 445.337 81.473 449.626C77.0764 453.915 73.5701 459.031 71.1551 464.678C71.1217 464.756 71.1154 464.842 71.137 464.923C71.1586 465.004 71.207 465.076 71.2744 465.127C71.3417 465.177 71.4241 465.204 71.5082 465.202C71.5924 465.2 71.6734 465.169 71.7383 465.116C79.6622 459.048 89.1939 455.441 99.1498 454.743V454.743Z" fill="#078CFC"/>
<path d="M132.997 510.836C121.45 512.664 109.634 510.164 99.816 503.816C99.7459 503.764 99.6597 503.738 99.5724 503.743C99.485 503.747 99.402 503.782 99.3378 503.841C99.2735 503.901 99.232 503.981 99.2205 504.067C99.2089 504.154 99.228 504.242 99.2745 504.316C100.123 505.841 101.069 507.309 102.107 508.711C109.23 518.083 119.659 524.385 131.268 526.333C136.986 524.036 142.191 520.627 146.581 516.305C150.972 511.982 154.461 506.831 156.847 501.15C156.874 501.076 156.876 500.995 156.854 500.919C156.832 500.843 156.787 500.776 156.724 500.728C156.662 500.679 156.586 500.652 156.507 500.649C156.428 500.646 156.35 500.669 156.285 500.713C149.485 505.972 141.481 509.451 132.997 510.836V510.836Z" fill="#078CFC"/>
<path d="M97.941 511.919C91.5247 503.312 88.2731 492.755 88.7344 482.029C88.7346 481.948 88.7089 481.87 88.6609 481.805C88.613 481.74 88.5454 481.693 88.4682 481.669C88.3911 481.646 88.3084 481.648 88.2325 481.675C88.1567 481.703 88.0916 481.754 88.0471 481.821C87.3597 482.946 86.7348 484.112 86.1724 485.278C83.7359 490.586 82.3815 496.325 82.1883 502.162C81.9952 507.999 82.9672 513.815 85.0476 519.272C89.883 523.202 95.4691 526.104 101.464 527.802C107.46 529.5 113.738 529.957 119.916 529.145C119.998 529.126 120.071 529.079 120.123 529.013C120.175 528.947 120.203 528.865 120.203 528.781C120.203 528.697 120.175 528.615 120.123 528.549C120.071 528.483 119.998 528.436 119.916 528.416C111.233 525.008 103.638 519.306 97.941 511.919V511.919Z" fill="#078CFC"/>
<path d="M80.8823 483.404C85.1371 473.535 92.6723 465.441 102.212 460.492C102.277 460.449 102.327 460.388 102.356 460.316C102.384 460.244 102.39 460.164 102.372 460.089C102.353 460.013 102.312 459.946 102.254 459.895C102.195 459.844 102.122 459.812 102.045 459.804C100.733 459.804 99.4205 459.804 98.1082 459.804C92.2929 460.344 86.6429 462.035 81.4866 464.777C76.3303 467.52 71.7705 471.26 68.0722 475.78C67.0697 481.935 67.334 488.23 68.8491 494.28C70.3641 500.329 73.0979 506.005 76.883 510.961C76.9366 511.018 77.0065 511.056 77.0829 511.072C77.1594 511.087 77.2386 511.077 77.3097 511.045C77.3807 511.013 77.44 510.96 77.4792 510.893C77.5185 510.825 77.5358 510.747 77.5287 510.67C76.1631 501.445 77.3219 492.023 80.8823 483.404V483.404Z" fill="#078CFC"/>
<path d="M66.5236 507.268C70.1645 519.485 80.6926 525.828 88.2803 529.996C88.6407 530.194 88.4313 530.767 88.0249 530.704C73.1412 528.411 63.3923 532.358 59.6606 535.133C59.4051 535.323 59.0212 535.139 59.0311 534.821C59.1974 529.47 59.2244 516.256 65.8902 507.147C66.0657 506.907 66.4388 506.983 66.5236 507.268Z" fill="#078CFC"/>
<path d="M125.28 219.626C126.205 219.53 126.902 220.447 126.563 221.312L107.205 270.657C106.852 271.557 105.649 271.724 105.064 270.954L71.7004 227.09C71.1149 226.32 71.5971 225.206 72.559 225.106L125.28 219.626Z" fill="#00D0B2"/>
<path d="M141.46 232.224C142.391 232.12 143.096 233.047 142.748 233.916L129.155 267.872C128.798 268.766 127.601 268.928 127.018 268.161L104.258 238.238C103.675 237.472 104.151 236.362 105.108 236.256L141.46 232.224Z" fill="#FF951F"/>
<circle cx="345.762" cy="178.032" r="14.0317" fill="#5048F6"/>
<circle cx="366.982" cy="295.136" r="29.4054" fill="#03C1FF"/>
<path d="M386.182 294.119C387.076 294.636 387.076 295.927 386.182 296.444L358.608 312.363C357.713 312.88 356.595 312.234 356.595 311.201L356.595 279.362C356.595 278.329 357.713 277.683 358.608 278.2L386.182 294.119Z" fill="white"/>
<rect x="212.732" y="195.869" width="16.6119" height="44.5898" rx="1.66978" transform="rotate(-13.3593 212.732 195.869)" fill="#00D0B2"/>
<ellipse cx="195.506" cy="239.287" rx="4.09259" ry="4.67725" fill="#03C1FF"/>
<rect x="263.91" y="261.085" width="25.4317" height="25.4317" rx="2.01772" transform="rotate(-13.3648 263.91 261.085)" fill="#008AFC"/>
<path d="M51.2751 280.428C52.719 280.86 53.1543 282.692 52.0586 283.727L30.6548 303.939C29.5591 304.974 27.7541 304.434 27.4059 302.968L20.6039 274.326C20.2557 272.859 21.6254 271.566 23.0693 271.998L51.2751 280.428Z" fill="#5048F6"/>
<ellipse cx="446.907" cy="340.566" rx="4.09259" ry="4.67725" fill="#03C1FF"/>
<path d="M272.586 474.212C272.586 473.472 272.586 472.741 272.586 472.001C272.586 471.575 272.728 471.443 273.144 471.453C274.625 471.453 276.116 471.453 277.597 471.453C278.043 471.453 278.185 471.585 278.175 472.041C278.175 473.786 278.175 475.541 278.175 477.286C278.175 482.722 278.175 488.159 278.175 493.606C278.268 496.518 277.378 499.376 275.649 501.721C273.845 504.071 271.231 505.665 268.316 506.194C265.798 506.727 263.199 506.747 260.673 506.252C258.148 505.757 255.748 504.757 253.618 503.313C253.507 503.242 253.415 503.151 253.273 503.039L255.667 498.586L256.296 498.972C259.026 500.792 262.285 501.649 265.557 501.406C268.326 501.143 270.557 499.996 271.795 497.349C272.358 495.972 272.571 494.477 272.414 492.997C272.306 493.036 272.204 493.087 272.109 493.15C271.154 494.141 270.004 494.923 268.731 495.447C267.459 495.97 266.091 496.224 264.715 496.193C259.856 496.193 256.042 494.245 253.689 489.904C251.001 484.934 251.661 477.732 256.57 473.806C258.243 472.361 260.284 471.406 262.466 471.048C264.648 470.69 266.887 470.943 268.935 471.778C270.103 472.251 271.157 472.967 272.028 473.877C272.174 474.027 272.31 474.186 272.434 474.354L272.586 474.212ZM258.142 483.615C258.142 485.53 258.903 487.367 260.257 488.722C261.612 490.076 263.449 490.837 265.364 490.837C267.28 490.837 269.116 490.076 270.471 488.722C271.825 487.367 272.586 485.53 272.586 483.615C272.586 481.7 271.825 479.863 270.471 478.508C269.116 477.154 267.28 476.393 265.364 476.393C263.449 476.393 261.612 477.154 260.257 478.508C258.903 479.863 258.142 481.7 258.142 483.615V483.615Z" fill="white"/>
<path d="M346.703 496.132H341.094V493.18C340.597 493.626 340.242 493.961 339.866 494.275C338.7 495.259 337.334 495.978 335.864 496.385C334.393 496.791 332.852 496.874 331.346 496.629C329.621 496.428 327.963 495.841 326.496 494.91C325.03 493.979 323.792 492.729 322.876 491.253C321.14 488.512 320.422 485.249 320.848 482.032C321.066 479.713 321.911 477.497 323.292 475.622C326.782 470.824 333.882 469.536 338.426 472.386C339.339 472.954 340.15 473.685 341.094 474.415V473.137C341.094 471.504 341.094 471.504 342.737 471.504H346.216C346.591 471.504 346.754 471.595 346.754 472.011C346.754 479.95 346.754 487.895 346.754 495.848C346.703 495.888 346.703 495.979 346.703 496.132ZM341.266 483.767C341.175 483.148 341.134 482.519 340.992 481.911C340.715 480.691 340.127 479.563 339.286 478.638C338.445 477.712 337.379 477.019 336.191 476.626C335.003 476.233 333.734 476.154 332.507 476.395C331.28 476.637 330.136 477.192 329.186 478.006C328.22 478.864 327.49 479.954 327.064 481.174C326.638 482.393 326.53 483.701 326.751 484.974C326.93 486.668 327.711 488.241 328.953 489.407C330.195 490.572 331.815 491.253 333.517 491.324C334.532 491.381 335.548 491.225 336.5 490.868C337.452 490.511 338.319 489.959 339.046 489.248C339.773 488.537 340.344 487.683 340.723 486.739C341.102 485.795 341.28 484.783 341.246 483.767H341.266Z" fill="white"/>
<path d="M247.38 496.122H241.406V495.452C241.406 491.273 241.406 487.094 241.406 482.905C241.435 481.686 241.214 480.474 240.757 479.345C239.083 475.429 234.143 475.632 231.922 477.823C231.308 478.412 230.819 479.119 230.486 479.902C230.153 480.684 229.983 481.527 229.984 482.377C229.984 486.729 229.984 491.09 229.984 495.442V496.152H224.071C224.071 495.949 224.071 495.746 224.071 495.554C224.071 487.757 224.071 479.957 224.071 472.153C224.071 471.646 224.193 471.463 224.74 471.473C226.272 471.473 227.783 471.473 229.356 471.473C229.812 471.473 229.954 471.615 229.934 472.062C229.934 472.934 229.934 473.806 229.934 474.78C230.011 474.716 230.086 474.649 230.157 474.577C230.898 473.475 231.892 472.566 233.057 471.927C234.222 471.288 235.523 470.938 236.851 470.905C238.166 470.752 239.499 470.879 240.761 471.278C242.023 471.678 243.186 472.34 244.174 473.222C245.161 474.104 245.95 475.185 246.489 476.394C247.027 477.604 247.304 478.913 247.299 480.237C247.38 484.497 247.299 488.758 247.35 493.018C247.39 494.052 247.38 495.057 247.38 496.122Z" fill="white"/>
<path d="M305.328 471.463V485.664C305.397 487.824 304.889 489.963 303.858 491.861C303.186 493.029 302.266 494.035 301.164 494.81C300.062 495.584 298.804 496.108 297.477 496.345C294.282 497.184 290.89 496.823 287.943 495.33C286.586 494.602 285.432 493.547 284.584 492.262C283.736 490.976 283.22 489.5 283.084 487.966C282.964 486.909 282.91 485.845 282.922 484.781C282.922 480.582 282.922 476.383 282.922 472.173C282.922 471.575 283.115 471.453 283.662 471.463C285.204 471.463 286.746 471.463 288.288 471.463C288.785 471.463 288.927 471.605 288.927 472.102C288.927 476.636 288.927 481.16 288.927 485.684C288.873 486.851 289.143 488.009 289.708 489.031C290.254 489.899 291.051 490.58 291.992 490.986C292.934 491.392 293.976 491.502 294.982 491.303C296.221 491.18 297.366 490.584 298.178 489.64C298.99 488.696 299.407 487.476 299.344 486.232C299.405 483.422 299.344 480.602 299.344 477.793C299.344 475.876 299.344 473.948 299.344 472.031C299.344 471.849 299.537 471.504 299.648 471.504C301.514 471.453 303.371 471.463 305.328 471.463Z" fill="white"/>
<path d="M207.892 474.293L204.849 478.036L204.322 477.569C203.58 476.868 202.702 476.326 201.743 475.977C200.783 475.629 199.762 475.48 198.743 475.541C198.219 475.537 197.706 475.693 197.273 475.988C196.839 476.284 196.507 476.704 196.319 477.194C196.182 477.585 196.174 478.01 196.296 478.406C196.418 478.803 196.665 479.149 196.999 479.395C197.53 479.785 198.11 480.106 198.723 480.348C200.752 481.231 202.78 481.971 204.809 482.965C205.976 483.481 206.958 484.34 207.627 485.426C208.295 486.513 208.618 487.777 208.552 489.051C208.549 490.398 208.167 491.716 207.45 492.856C206.732 493.995 205.708 494.909 204.494 495.492C200.224 497.825 193.073 497.278 189.279 492.368C189.006 492.003 189.006 491.8 189.279 491.476C190.294 490.461 191.247 489.376 192.211 488.341C192.854 488.97 193.531 489.563 194.24 490.116C195.063 490.784 196.023 491.263 197.052 491.519C198.081 491.774 199.153 491.801 200.194 491.597C200.766 491.47 201.303 491.217 201.766 490.857C202.042 490.671 202.268 490.421 202.425 490.127C202.581 489.833 202.663 489.506 202.663 489.173C202.663 488.84 202.581 488.513 202.425 488.219C202.268 487.926 202.042 487.675 201.766 487.489C201.009 486.981 200.2 486.556 199.352 486.221C197.617 485.451 195.822 484.822 194.128 483.97C192.984 483.444 192.024 482.588 191.37 481.513C190.716 480.438 190.398 479.192 190.456 477.934C190.427 476.672 190.76 475.428 191.416 474.349C192.072 473.271 193.024 472.403 194.158 471.848C196.316 470.776 198.75 470.389 201.134 470.739C203.518 471.088 205.738 472.159 207.497 473.806C207.608 473.958 207.74 474.151 207.892 474.293Z" fill="white"/>
<path d="M315.938 496.121H310.055V461.056C310.233 461.029 310.413 461.012 310.593 461.005C312.185 461.005 313.788 461.005 315.38 461.005C315.806 461.005 315.989 461.097 315.989 461.573C315.989 472.731 315.989 484.477 315.989 495.634C315.969 495.776 315.948 495.929 315.938 496.121Z" fill="white"/>
<path d="M366.482 476.91C365.671 476.788 364.88 476.585 364.068 476.545C363.293 476.458 362.508 476.528 361.76 476.751C361.012 476.973 360.316 477.344 359.715 477.841C359.113 478.338 358.617 478.95 358.257 479.642C357.896 480.335 357.679 481.092 357.617 481.87C357.492 482.733 357.427 483.604 357.424 484.477C357.424 488.088 357.424 491.699 357.424 495.32V496.111H351.47V495.503C351.47 487.723 351.47 479.943 351.47 472.173C351.47 471.585 351.633 471.443 352.201 471.453C353.621 471.453 355.051 471.453 356.481 471.453H357.15V474.567L357.282 474.628C357.414 474.465 357.536 474.303 357.658 474.131C359.828 470.854 363.632 470.337 366.645 471.209C366.736 471.251 366.817 471.314 366.879 471.394C366.941 471.473 366.982 471.567 367 471.666C366.868 473.39 366.705 475.115 366.543 476.829C366.533 476.859 366.492 476.89 366.482 476.91Z" fill="white"/>
<path d="M219.222 496.131H213.309C213.309 495.918 213.309 495.716 213.309 495.513C213.309 487.713 213.309 479.923 213.309 472.122C213.309 471.625 213.42 471.433 213.968 471.443C215.54 471.443 217.123 471.443 218.695 471.443C219.121 471.443 219.304 471.524 219.304 472.001C219.304 479.892 219.304 487.784 219.304 495.675C219.285 495.829 219.258 495.981 219.222 496.131V496.131Z" fill="white"/>
<path d="M220.064 464.768C220.078 465.521 219.868 466.261 219.461 466.894C219.053 467.527 218.466 468.024 217.775 468.322C217.084 468.621 216.319 468.707 215.579 468.569C214.839 468.432 214.156 468.077 213.618 467.551C213.08 467.024 212.711 466.349 212.557 465.612C212.404 464.875 212.474 464.109 212.757 463.412C213.04 462.714 213.525 462.117 214.149 461.695C214.773 461.274 215.508 461.048 216.261 461.046C216.757 461.031 217.252 461.116 217.715 461.297C218.178 461.478 218.6 461.75 218.955 462.098C219.31 462.445 219.591 462.861 219.782 463.32C219.973 463.779 220.069 464.272 220.064 464.768V464.768Z" fill="white"/>
</svg>
