<svg width="40" height="37" viewBox="0 0 40 37" fill="none" xmlns="http://www.w3.org/2000/svg">
<path d="M32.4259 4.83106V4.58075C32.4259 4.37049 32.4259 4.18025 32.1782 4.18025C31.9304 4.18025 31.9453 4.35547 31.9453 4.51567V4.83106H32.4259ZM31.752 5.08137V4.47562C31.752 4.11517 31.8957 3.93995 32.1881 3.93995C32.297 3.93433 32.4033 3.97491 32.4814 4.05189C32.5595 4.12887 32.6022 4.23527 32.5993 4.34546L33.2682 3.90491V4.16023L32.634 4.58075V4.83106H33.2831V5.08137H31.752ZM33.625 4.58075C33.6411 4.12435 33.3817 3.70367 32.9691 3.51713C32.5566 3.3306 32.0732 3.41549 31.7471 3.73176C31.4211 4.04803 31.3174 4.53249 31.485 4.9566C31.6527 5.38072 32.0581 5.65975 32.5101 5.66208C32.802 5.67582 33.0867 5.56782 33.2975 5.36337C33.5083 5.15892 33.6267 4.87596 33.625 4.58075ZM31.2218 4.58075C31.2273 3.85639 31.813 3.27368 32.5299 3.27921C33.2469 3.28475 33.8236 3.87644 33.8182 4.6008C33.8127 5.32515 33.2271 5.90789 32.5101 5.90238C32.1646 5.90242 31.8333 5.76268 31.5904 5.51439C31.3474 5.26609 31.2129 4.92988 31.2169 4.58075H31.2218Z" fill="#2C3643"/>
<path fill-rule="evenodd" clip-rule="evenodd" d="M0 36.7254H39.6716V0H0V36.7254ZM29.1121 8.87073C29.1178 8.51335 29.2445 8.1682 29.472 7.89054H31.6893C32.0204 8.18227 32.2092 8.6005 32.2078 9.03919C32.2078 9.48717 31.7667 9.88537 30.7412 9.88537C29.7158 9.88537 29.1121 9.62118 29.1121 8.88221V8.87073ZM33.2874 6.57342H28.0712V7.81397L28.4311 7.85608C28.1326 8.21258 27.9685 8.66052 27.9667 9.12343C27.9667 10.5324 29.085 11.2867 30.7412 11.2867C32.2349 11.2867 33.3958 10.5478 33.3958 9.24212C33.3924 8.72451 33.1572 8.23504 32.7534 7.90586L33.2874 7.82928V6.57342ZM29.1121 14.0818C29.1172 13.7254 29.244 13.3813 29.472 13.1054H31.4726C31.8052 13.3965 31.9954 13.8148 31.995 14.2541C31.995 14.7059 31.6738 15.1002 30.6484 15.1002C29.6229 15.1002 29.1005 14.8361 29.1005 14.0971L29.1121 14.0818ZM34.8933 15.8354C35.0586 15.2552 35.1343 14.6537 35.1178 14.0511C35.1178 12.5196 34.2742 11.7806 32.5406 11.7806H28.0712V13.0212L28.4311 13.0595C28.1332 13.4163 27.9691 13.864 27.9667 14.3268C27.9667 15.7397 28.9922 16.4901 30.6484 16.4901C32.142 16.4901 33.183 15.7511 33.183 14.4455C33.1795 13.929 32.9442 13.4407 32.5406 13.1131H32.8502C33.1641 13.083 33.4749 13.1953 33.6952 13.4186C33.9156 13.6418 34.0218 13.9519 33.984 14.2617C33.9962 14.7277 33.9133 15.1913 33.7402 15.6248L34.9011 15.8584L34.8933 15.8354ZM33.2874 16.984H29.6461C29.2065 16.9467 28.7717 17.0969 28.451 17.3967C28.1303 17.6965 27.9541 18.1175 27.9667 18.5539C27.9556 19.2102 28.2691 19.8306 28.8064 20.2156L28.0712 20.296V21.5518H33.2874V20.2117H29.9131C29.4958 19.936 29.2335 19.4823 29.205 18.9865C29.205 18.6036 29.4062 18.3126 30.0602 18.3126H33.2874V16.984ZM35.0636 24.6417L28.0712 21.8849V23.2404L31.4726 24.4962L28.0712 25.6717V27.1075L33.0359 25.2199L35.0636 26.1196V24.6647V24.6417ZM33.2874 27.2223L32.1536 26.9964V29.8221L28.0712 27.341V31.7327L29.2321 31.9663V29.5196L33.299 32.1347V27.2223H33.2874ZM24.1052 6.92771C23.3418 6.22825 22.7701 6.654 22.394 7.11778L22.3827 7.13298C22.2398 6.98093 20.1374 7.06456 19.7839 7.36107C19.4717 7.31925 17.862 7.66138 17.6627 7.9655C17.4521 7.69559 16.9067 7.67279 16.6547 7.6956C15.6212 7.78553 15.4409 8.66243 15.295 9.37241C15.2805 9.44265 15.2664 9.51125 15.2519 9.5773C15.1691 9.95744 15.0037 10.9724 15.628 10.1703C15.6695 10.2409 15.763 10.277 15.873 10.3195C15.9823 10.3617 16.1079 10.4101 16.2147 10.5048C16.312 10.5911 16.3999 10.6812 16.4744 10.7575C16.5641 10.8494 16.6342 10.9212 16.6773 10.942C16.6512 11.5159 16.7316 12.0896 16.9142 12.6336L16.7525 13.1696C16.7525 13.1696 11.1487 13.4395 9.20047 14.6636C8.47787 14.2692 7.95957 13.578 7.77929 12.7682C7.59901 11.9584 7.7744 11.1094 8.26022 10.4402C8.41066 10.2159 8.41818 10.1095 8.34673 10.0601C8.27527 10.0107 8.03456 10.1551 7.89917 10.2768C6.60163 11.4552 6.44367 13.7056 8.04961 15.728C6.87618 17.203 6.14655 19.9324 6.04124 22.8101L5.39812 25.3874C5.14664 25.5517 4.91338 25.7429 4.70233 25.9576C4.60791 26.1177 4.55608 26.2997 4.55189 26.486C4.87158 26.8662 6.22929 26.946 6.50384 26.486C6.5189 26.3407 6.5189 26.1942 6.50384 26.0489L6.44743 25.7866C6.79344 24.0037 7.64718 20.2365 10.5544 19.9248C10.6494 20.6741 10.5827 21.4354 10.3589 22.1562L11.2953 25.0605C11.5436 25.395 12.905 25.4406 13.0968 25.0985C13.1249 24.9129 13.0876 24.7232 12.9915 24.5625C12.7204 24.317 12.387 24.1524 12.0287 24.0873L11.7241 22.6542C12.1854 22.2334 12.5192 21.689 12.6869 21.0842C13.5519 21.6468 14.4997 22.1714 14.6802 22.2474C14.7479 23.806 14.9811 25.5547 15.3196 26.2047C15.5227 26.9042 15.4174 29.9986 15.3196 30.8273C15.2693 30.9437 15.1222 31.0837 14.9849 31.2145C14.8756 31.3185 14.7724 31.4167 14.7291 31.4925C14.6264 31.732 14.5801 31.9922 14.5937 32.2528C14.8871 32.9256 16.6773 33.0207 17.091 32.23C17.1381 31.9788 17.1381 31.7209 17.091 31.4697C17.0149 31.2692 16.9533 31.0634 16.9067 30.8539C16.9067 30.8539 16.9782 28.3525 17.0308 27.4972C17.085 26.6191 17.4066 25.2962 17.6918 24.1229C17.7832 23.747 17.8708 23.3865 17.9447 23.061C19.0203 23.1826 20.1083 23.1222 21.1642 22.8823C21.2258 23.2974 21.279 23.6352 21.3254 23.9293C21.4544 24.7475 21.5301 25.2276 21.5854 26.0945C21.6199 26.6346 21.5824 27.3432 21.5477 28.0007C21.5067 28.7778 21.4694 29.4835 21.5591 29.7553C22.2736 30.3065 23.857 30.2913 24.1541 29.7553C24.1633 29.5391 24.1166 29.3242 24.0187 29.1318C23.7399 28.8353 23.4048 28.5987 23.0334 28.4362C22.8829 27.2045 23.4095 24.8932 23.4095 24.8932C23.8871 23.8212 23.8871 21.3845 23.8871 21.3845C24.9853 19.4914 24.4249 15.3935 23.5937 13.8729V12.8959C23.8984 12.3637 23.9924 10.6227 23.8044 9.70275C23.9698 9.64192 24.0676 9.26939 24.1466 8.94246C24.1941 8.65593 24.3765 8.41063 24.6355 8.28482C24.6443 8.28962 24.6532 8.29455 24.6623 8.29957C24.8763 8.41761 25.1831 8.58684 25.3238 8.44828C25.5336 8.23626 24.8741 7.63207 24.1145 6.93616L24.1052 6.92771Z" fill="#2C3643"/>
</svg>
