<svg width="13" height="24" viewBox="0 0 13 24" fill="none" xmlns="http://www.w3.org/2000/svg">
<g clip-path="url(#clip0_1272_2)">
<path d="M13.0015 7.27909H8.47847V5.29043C8.45749 5.14231 8.46993 4.99143 8.51492 4.8486C8.55991 4.70576 8.63633 4.57449 8.73873 4.46415C8.84112 4.35382 8.96695 4.26715 9.10724 4.21033C9.24753 4.15352 9.39885 4.12796 9.55031 4.13548H12.7193V0.015914L8.13102 0.00214233C7.45366 -0.0505751 6.77286 0.0448857 6.13725 0.281685C5.50163 0.518484 4.92688 0.89079 4.45405 1.37201C3.98121 1.85323 3.62194 2.43147 3.40194 3.06546C3.18194 3.69945 3.10662 4.37353 3.18135 5.03956V7.28061H0V11.4614H3.17979V24.0052H8.47847V11.4614H12.5641L13.0015 7.27909Z" fill="#2C3543"/>
</g>
<defs>
<clipPath id="clip0_1272_2">
<rect width="13" height="24" fill="white"/>
</clipPath>
</defs>
</svg>
