<?xml version="1.0" encoding="utf-8"?>
<!-- Generator: Adobe Illustrator 21.0.2, SVG Export Plug-In . SVG Version: 6.00 Build 0)  -->
<svg width="80px" height="104px" version="1.1" id="Capa_1" xmlns="http://www.w3.org/2000/svg" xmlns:xlink="http://www.w3.org/1999/xlink" x="0px" y="0px"
	 viewBox="0 0 88.8 107.1" style="enable-background:new 0 0 88.8 107.1;" xml:space="preserve">
<style type="text/css">
	.st0{opacity:0.8;}
	.st1{fill:#3088F4;}
</style>
<title>Group 14</title>
<desc>Created with Sketch.</desc>
<g id="Page-1" class="st0">
	<g id="Home_tablet_992" transform="translate(-912.000000, -559.000000)">
		<g id="_x30_03-Video" transform="translate(-1.000000, 450.000000)">
			<g id="Group-14" transform="translate(913.000000, 109.000000)">
				<path id="Fill-1" class="st1" d="M15.3,82.8l0.4,0c0.4,0,0.7,0.1,1.1,0.1c6.1,0,11.1-5,11.1-11.1c0-6.1-5-11.1-11.1-11.1
					c-6.1,0-11.1,5-11.1,11.1c0,1.4,0.3,2.8,0.8,4.1c0,0,0,0.1,0,0.1c0,0,0,0.1,0.1,0.1C8,79.9,11.3,82.3,15.3,82.8 M16.7,86
					c-0.5,0-1,0-1.4-0.1c-0.1,0-0.3,0-0.4-0.1l0,0l0,0h0v0c-5.1-0.6-9.4-3.8-11.4-8.6c0,0,0-0.1,0-0.1c0-0.1-0.1-0.1-0.1-0.2
					c-0.7-1.7-1-3.4-1-5.2c0-7.8,6.4-14.2,14.3-14.2c7.9,0,14.3,6.4,14.3,14.2C31.1,79.6,24.6,86,16.7,86"/>
				<path id="Fill-1-Copy" class="st1" d="M75.3,16.1l0.2,0c0.2,0,0.4,0,0.6,0c3.2,0,5.7-2.6,5.7-5.7s-2.6-5.7-5.7-5.7
					c-3.2,0-5.7,2.6-5.7,5.7c0,0.7,0.1,1.4,0.4,2.1c0,0,0,0,0,0c0,0,0,0,0,0.1C71.6,14.6,73.2,15.8,75.3,16.1 M76.1,17.8
					c-0.2,0-0.5,0-0.7,0c-0.1,0-0.1,0-0.2,0l0,0l0,0h0v0c-2.6-0.3-4.8-2-5.8-4.4c0,0,0,0,0-0.1c0,0,0-0.1,0-0.1
					c-0.3-0.9-0.5-1.8-0.5-2.7c0-4,3.3-7.3,7.4-7.3c4.1,0,7.4,3.3,7.4,7.3C83.4,14.5,80.1,17.8,76.1,17.8"/>
				<path id="Fill-3" class="st1" d="M48.6,87.2c-0.1,0-0.2,0-0.3,0c-0.2,0-0.4,0.2-0.5,0.4l-3.2,7.4c-0.1,0.2,0,0.4,0.1,0.4
					c0,0.1,0.2,0.2,0.4,0.1l8.8-1.5c0.3-0.1,0.5-0.2,0.6-0.4c0.1-0.2,0-0.5-0.1-0.7l-5.4-5.6C48.8,87.3,48.7,87.2,48.6,87.2
					L48.6,87.2z M44.4,96.5c-0.3-0.1-0.5-0.3-0.7-0.5c-0.4-0.4-0.5-1-0.2-1.5l3.2-7.3c0.3-0.6,0.8-1,1.4-1.1
					c0.6-0.1,1.3,0.1,1.7,0.5l5.4,5.6c0.5,0.5,0.6,1.1,0.4,1.8c-0.2,0.6-0.8,1-1.4,1.2l-8.9,1.5C44.9,96.6,44.7,96.6,44.4,96.5
					L44.4,96.5z"/>
				<g id="Group-9" transform="translate(41.727273, 0.000000)">
					<path id="Fill-5" class="st1" d="M10.8,6c0.1,0.3,0,0.6-0.3,0.7L3.6,9.6C3.3,9.7,3,9.5,2.9,9.3C2.7,9,2.9,8.7,3.2,8.5l6.9-2.9
						C10.4,5.6,10.7,5.7,10.8,6"/>
					<path id="Fill-7" class="st1" d="M5.9,4l2.9,6.9c0.1,0.3,0,0.6-0.3,0.7c-0.3,0.1-0.6,0-0.7-0.3L4.9,4.4c-0.1-0.3,0-0.6,0.3-0.7
						C5.5,3.6,5.8,3.7,5.9,4"/>
				</g>
				
					<g id="Group-9-Copy" transform="translate(76.986648, 54.447928) rotate(-46.000000) translate(-76.986648, -54.447928) translate(74.486648, 51.947928)">
					<path id="Fill-5_1_" class="st1" d="M3.6,5.6C3.6,5.8,3.6,6,3.4,6l-3.5,1.8c-0.1,0.1-0.3,0-0.4-0.2c-0.1-0.2,0-0.4,0.2-0.4
						l3.5-1.8C3.4,5.3,3.5,5.4,3.6,5.6"/>
					<path id="Fill-7_1_" class="st1" d="M1,4.7l1.8,3.5c0.1,0.1,0,0.3-0.2,0.4c-0.2,0.1-0.4,0-0.5-0.2L0.4,5
						c-0.1-0.1,0-0.3,0.2-0.4C0.7,4.5,0.9,4.6,1,4.7"/>
				</g>
				<path id="Fill-10" class="st1" d="M42,33.5c-0.6,0.6-1.7,0.6-2.3,0c-0.6-0.6-0.6-1.7,0-2.3c0.6-0.6,1.7-0.6,2.3,0
					C42.7,31.9,42.7,32.9,42,33.5"/>
				<path id="Fill-12" class="st1" d="M54.8,105.6c-0.1-0.9,0.6-1.7,1.5-1.7c0.9-0.1,1.7,0.6,1.7,1.5c0.1,0.9-0.6,1.7-1.5,1.7
					C55.6,107.2,54.8,106.5,54.8,105.6"/>
				<path id="Fill-12-Copy" class="st1" d="M78.5,66.6c0-0.4,0.3-0.8,0.8-0.9c0.5,0,0.8,0.3,0.9,0.8c0,0.4-0.3,0.8-0.8,0.9
					C78.9,67.4,78.5,67,78.5,66.6"/>
			</g>
		</g>
	</g>
</g>
</svg>
