<?xml version="1.0" encoding="UTF-8"?>
<svg width="88px" height="108px" viewBox="0 0 88 108" version="1.1" xmlns="http://www.w3.org/2000/svg" xmlns:xlink="http://www.w3.org/1999/xlink">
    <!-- Generator: Sketch 61.2 (89653) - https://sketch.com -->
    <title>Group 15</title>
    <desc>Created with Sketch.</desc>
    <defs>
        <polygon id="path-1" points="0.308363798 0.129053066 37.5035717 0.129053066 37.5035717 36.5007837 0.308363798 36.5007837"></polygon>
        <polygon id="path-3" points="0 0 17.0625 0 17.0625 17.0336991 0 17.0336991"></polygon>
    </defs>
    <g id="Page-1" stroke="none" stroke-width="1" fill="none" fill-rule="evenodd" opacity="0.8">
        <g id="Home_tablet_992" transform="translate(-2.000000, -741.000000)">
            <g id="003-Video" transform="translate(-1.000000, 450.000000)">
                <g id="Group-15" transform="translate(0.000000, 291.000000)">
                    <path d="M23.517256,90.3498555 C23.528612,90.3685724 23.5387063,90.3872894 23.5475388,90.408346 C24.1733846,91.80276 25.4465266,92.7046838 27.0426858,92.8813251 L27.0325915,92.9585326 L27.0439476,92.8813251 L27.182744,92.8965327 C27.3354201,92.9117402 27.4792637,92.9210987 27.6256309,92.9210987 C30.0659248,92.9210987 32.0507141,91.080987 32.0507141,88.8174039 C32.0507141,86.5561604 30.0659248,84.7160486 27.6256309,84.7160486 C25.1853369,84.7160486 23.1992859,86.5561604 23.1992859,88.8174039 C23.1992859,89.3356299 23.3027524,89.8409879 23.5058999,90.3206102 C23.5096852,90.3287989 23.5134706,90.3393272 23.517256,90.3498555 M27.6256309,94.0909091 C27.4313159,94.0909091 27.242048,94.079211 27.0540419,94.060494 C27.0048322,94.0558148 26.9505754,94.0511355 26.8937951,94.0417771 C24.8623197,93.8183433 23.175312,92.6263065 22.3816486,90.8563834 C22.3766015,90.8435155 22.3702926,90.8294777 22.3652454,90.81544 C22.3526276,90.7943834 22.3412715,90.7709872 22.3311772,90.7487608 C22.0699875,90.1322707 21.9375,89.483026 21.9375,88.8174039 C21.9375,85.910425 24.4888311,83.5462382 27.6256309,83.5462382 C30.7611689,83.5462382 33.3125,85.910425 33.3125,88.8174039 C33.3125,91.7255525 30.7611689,94.0909091 27.6256309,94.0909091" id="Fill-1" fill="#3088F4"></path>
                    <g id="Group-5" transform="translate(52.812500, 70.568182)">
                        <mask id="mask-2" fill="white">
                            <use xlink:href="#path-1"></use>
                        </mask>
                        <g id="Clip-4"></g>
                        <path d="M10.1390127,25.9374569 L20.1256225,33.0300154 C20.5329559,33.3220217 21.032865,33.4326647 21.5362456,33.3573818 C22.0361547,33.278677 22.4735752,33.011765 22.7686604,32.6079751 L33.9853706,17.2616769 C34.5952134,16.4267214 34.4019616,15.2575557 33.5560506,14.6552928 L17.9859653,3.59897727 C17.578632,3.306971 17.0787229,3.18492151 16.5764994,3.27161087 C16.0754331,3.35259698 15.6391699,3.61950896 15.3440847,4.02101758 L3.6830108,19.975282 C3.31849375,20.4748865 3.43305625,21.1752453 3.94106572,21.5345499 L10.1390127,25.9374569 Z M21.2191737,36.5010118 C20.1661244,36.5010118 19.1431623,36.1770674 18.2752646,35.5588353 L2.09070777,24.0645104 C0.170917992,22.699153 -0.267659659,20.0471429 1.11634792,18.1536648 L12.6269862,2.40357661 C13.5643157,1.12034593 14.7353991,0.408580648 16.0696472,0.195279193 C17.4038953,-0.0191629114 18.741615,0.29109375 19.8363233,1.0690167 L35.4040941,12.1264729 C37.6664142,13.7325073 38.1813669,16.8533244 36.5520335,19.0832941 L25.3353233,34.4295924 C24.546115,35.5097874 23.3761888,36.2215527 22.0419407,36.4348542 C21.767685,36.4793395 21.4922722,36.5010118 21.2191737,36.5010118 L21.2191737,36.5010118 Z" id="Fill-3" fill="#3088F4" mask="url(#mask-2)"></path>
                    </g>
                    <g id="Group-5-Copy" transform="translate(12.440339, 22.165924) rotate(-58.000000) translate(-12.440339, -22.165924) translate(3.440339, 13.165924)">
                        <mask id="mask-4" fill="white">
                            <use xlink:href="#path-3"></use>
                        </mask>
                        <g id="Clip-4"></g>
                        <path d="M4.50959831,12.0865799 L9.09074035,15.4081636 C9.27759574,15.5449159 9.50691826,15.5967321 9.7378333,15.5614757 C9.96715582,15.5246167 10.167813,15.3996166 10.303177,15.2105139 L15.4486011,8.02354253 C15.7283533,7.63251659 15.6397032,7.08497343 15.2516598,6.80292193 L8.10921872,1.62503331 C7.92236334,1.48828107 7.69304081,1.43112291 7.46265661,1.47172123 C7.23280325,1.50964861 7.03267689,1.63464871 6.8973129,1.82268304 L1.54804658,9.29437684 C1.38083224,9.52835138 1.43338532,9.85634309 1.66642372,10.0246125 L4.50959831,12.0865799 Z M9.59238336,17.0336991 C9.10931972,17.0336991 8.64005789,16.8819895 8.24192852,16.5924594 L0.817611882,11.2094424 C-0.0630503012,10.5700189 -0.264238347,9.32803072 0.370645301,8.44127789 L5.65090253,1.06520382 C6.08088225,0.464241819 6.61809149,0.130908229 7.23014906,0.0310149891 C7.84220662,-0.0694124388 8.4558567,0.0758868187 8.95803056,0.440203339 L16.0994099,5.61862614 C17.1372005,6.37076347 17.3734239,7.83230306 16.6260024,8.87664148 L11.4805783,16.0636128 C11.118546,16.5694893 10.5818676,16.9028229 9.96981001,17.0027161 C9.84400113,17.0235495 9.71766141,17.0336991 9.59238336,17.0336991 L9.59238336,17.0336991 Z" id="Fill-3" fill="#3088F4" mask="url(#mask-4)"></path>
                    </g>
                    <g id="Group-10" transform="translate(36.562500, 19.467085)" fill="#3088F4">
                        <path d="M5.68446667,9.4869232 C5.33563333,9.4869232 5.05252222,9.22447806 5.05252222,8.90110815 L5.05252222,1.10976803 C5.05252222,0.786398119 5.33563333,0.523952978 5.68446667,0.523952978 C6.0333,0.523952978 6.31641111,0.786398119 6.31641111,1.10976803 L6.31641111,8.90110815 C6.31641111,9.22447806 6.0333,9.4869232 5.68446667,9.4869232" id="Fill-6"></path>
                        <path d="M9.88651806,5.59148746 L1.48165694,5.59148746 C1.13282361,5.59148746 0.8497125,5.32904232 0.8497125,5.00567241 C0.8497125,4.68230251 1.13282361,4.41985737 1.48165694,4.41985737 L9.88651806,4.41985737 C10.2353514,4.41985737 10.5184625,4.68230251 10.5184625,5.00567241 C10.5184625,5.32904232 10.2353514,5.59148746 9.88651806,5.59148746" id="Fill-8"></path>
                    </g>
                    <path d="M51.1875,54.3456113 C51.1875,53.4493114 51.9146846,52.7233542 52.8125,52.7233542 C53.7103154,52.7233542 54.4375,53.4493114 54.4375,54.3456113 C54.4375,55.2419112 53.7103154,55.9678683 52.8125,55.9678683 C51.9146846,55.9678683 51.1875,55.2419112 51.1875,54.3456113" id="Fill-11" fill="#3088F4"></path>
                    <path d="M30.0625,104.636151 C30.0625,103.740167 30.7896846,103.013323 31.6875,103.013323 C32.5853154,103.013323 33.3125,103.740167 33.3125,104.636151 C33.3125,105.530993 32.5853154,106.257837 31.6875,106.257837 C30.7896846,106.257837 30.0625,105.530993 30.0625,104.636151" id="Fill-13" fill="#3088F4"></path>
                    <path d="M63.375,1.62282847 C63.375,0.726844301 64.1021846,0 65,0 C65.8978154,0 66.625,0.726844301 66.625,1.62282847 C66.625,2.51766981 65.8978154,3.24451411 65,3.24451411 C64.1021846,3.24451411 63.375,2.51766981 63.375,1.62282847" id="Fill-13-Copy" fill="#3088F4"></path>
                </g>
            </g>
        </g>
    </g>
</svg>