<?xml version="1.0" encoding="UTF-8"?>
<svg width="105px" height="82px" viewBox="0 0 105 82" version="1.1" xmlns="http://www.w3.org/2000/svg" xmlns:xlink="http://www.w3.org/1999/xlink">
    <!-- Generator: Sketch 61.2 (89653) - https://sketch.com -->
    <title>Group 14</title>
    <desc>Created with Sketch.</desc>
    <g id="Page-1" stroke="none" stroke-width="1" fill="none" fill-rule="evenodd" opacity="0.3">
        <g id="Home_tablet_992" transform="translate(-165.000000, -450.000000)" fill="#3088F4">
            <g id="003-Video" transform="translate(-1.000000, 450.000000)">
                <g id="Group-14" transform="translate(218.500000, 41.000000) rotate(-90.000000) translate(-218.500000, -41.000000) translate(178.000000, -11.000000)">
                    <path d="M12.8527669,79.6128003 L13.2208406,79.6583458 C13.5843277,79.6947823 13.9478148,79.720971 14.3193285,79.720971 C20.4619168,79.720971 25.4601513,74.7565065 25.4601513,68.6556807 C25.4601513,62.5548549 20.4619168,57.591529 14.3193285,57.591529 C8.17444688,57.591529 3.177359,62.5548549 3.177359,68.6556807 C3.177359,70.0516517 3.43650123,71.4134635 3.94790582,72.706957 C3.95822565,72.7354229 3.97083876,72.7661662 3.98001194,72.7957708 C4.00409153,72.8435936 4.02931776,72.8925551 4.05110406,72.9437938 C5.62659712,76.7047172 8.83491558,79.1368493 12.8527669,79.6128003 M14.3193285,82.875 C13.8354434,82.875 13.3607315,82.8431181 12.8928995,82.793018 C12.7587418,82.7793544 12.6165576,82.7656907 12.4766666,82.7417793 L12.4743733,82.7451952 L12.4766666,82.7417793 L12.4743733,82.7417793 L12.4743733,82.7451952 C7.36147411,82.1394394 3.11773335,78.9273398 1.11683423,74.1541667 C1.10078118,74.115453 1.08472812,74.0767392 1.07326165,74.0368869 C1.04230218,73.9822322 1.01478265,73.9218844 0.988409764,73.8615365 C0.331381,72.1991241 0,70.4478979 0,68.6556807 C0,60.815015 6.42466347,54.4375 14.3193285,54.4375 C22.2151401,54.4375 28.6363636,60.815015 28.6363636,68.6556807 C28.6363636,76.497485 22.2151401,82.875 14.3193285,82.875" id="Fill-1"></path>
                    <path d="M72.8827674,12.944398 L73.0719769,12.9678094 C73.2588287,12.9865385 73.4456805,13 73.6366584,13 C76.7942768,13 79.3636364,10.4481605 79.3636364,7.31220736 C79.3636364,4.17625418 76.7942768,1.625 73.6366584,1.625 C70.477861,1.625 67.9090909,4.17625418 67.9090909,7.31220736 C67.9090909,8.02976589 68.0423039,8.72976589 68.3051931,9.39464883 C68.3104981,9.40928094 68.3169819,9.42508361 68.3216974,9.440301 C68.3340756,9.46488294 68.3470432,9.49005017 68.3582425,9.51638796 C69.1681301,11.4495819 70.8173772,12.6997492 72.8827674,12.944398 M73.6369533,14.625 C73.3880982,14.625 73.1439606,14.6086036 72.9033613,14.5828378 C72.8343659,14.5758108 72.7612426,14.5687838 72.6892987,14.5564865 L72.6881193,14.5582432 L72.6892987,14.5564865 L72.6881193,14.5564865 L72.6881193,14.5582432 C70.0586282,14.2467117 67.876133,12.5947748 66.8470992,10.14 C66.8388433,10.1200901 66.8305874,10.1001802 66.8246904,10.0796847 C66.8087684,10.0515766 66.7946155,10.0205405 66.7810523,9.9895045 C66.4431518,9.13454955 66.2727273,8.23391892 66.2727273,7.31220721 C66.2727273,3.27986486 69.5768399,0 73.6369533,0 C77.6976565,0 81,3.27986486 81,7.31220721 C81,11.3451351 77.6976565,14.625 73.6369533,14.625" id="Fill-1-Copy"></path>
                    <path d="M46.1668722,84.0149246 C46.0625092,83.9817268 45.9511105,83.9728741 45.8397118,83.9916862 C45.6098787,84.0293103 45.4210873,84.174274 45.3319683,84.3801003 L42.1154778,91.7566489 C42.0251862,91.9635818 42.1307218,92.1218246 42.1811444,92.1793674 C42.2292217,92.2346971 42.3629001,92.3597421 42.5774892,92.3232245 L51.3756403,90.8680548 C51.6957649,90.8160449 51.885729,90.6611219 51.9678123,90.4331638 C52.054586,90.1985661 52.0018182,89.9584354 51.8247529,89.774741 L46.4553361,84.1930861 C46.3755981,84.108985 46.2759256,84.049229 46.1668722,84.0149246 L46.1668722,84.0149246 Z M42.0029065,93.3612087 C41.7203056,93.2715747 41.4646749,93.1055857 41.2653299,92.8732012 C40.8971279,92.4394168 40.8068363,91.8507093 41.0296337,91.3361436 L44.2226719,84.0160312 C44.4900287,83.399659 45.0118437,83.0046053 45.6380215,82.9016921 C46.2630268,82.7976724 46.8927226,83.0012855 47.3242459,83.4494556 L52.6924901,89.0311105 C53.1580193,89.5146916 53.3022513,90.1720078 53.0782813,90.7916999 C52.8566565,91.4047524 52.3219428,91.8363236 51.6476876,91.9469829 L42.7815247,93.4143252 C42.5141678,93.4585889 42.2479836,93.4386702 42.0029065,93.3612087 L42.0029065,93.3612087 Z" id="Fill-3"></path>
                    <g id="Group-9" transform="translate(41.727273, 0.000000)">
                        <path d="M8.3917125,2.83475156 C8.5098375,3.11963437 8.3748375,3.44697031 8.0868375,3.56539219 L1.1793375,6.41645469 C0.8924625,6.53487656 0.5639625,6.39969687 0.4447125,6.11481406 C0.3243375,5.82993125 0.4604625,5.5037125 0.7473375,5.38529062 L7.6559625,2.53311094 C7.9439625,2.41468906 8.2724625,2.54986875 8.3917125,2.83475156" id="Fill-5"></path>
                        <path d="M3.501675,0.830070312 L6.372675,7.69071875 C6.491925,7.97560156 6.3558,8.3029375 6.068925,8.42135937 C5.78205,8.53978125 5.452425,8.40460156 5.3343,8.11971875 L2.462175,1.25907031 C2.342925,0.9741875 2.47905,0.646851562 2.765925,0.528429687 C3.053925,0.411125 3.382425,0.5451875 3.501675,0.830070312" id="Fill-7"></path>
                    </g>
                    <g id="Group-9-Copy" transform="translate(76.986648, 54.447928) rotate(-46.000000) translate(-76.986648, -54.447928) translate(74.486648, 51.947928)">
                        <path d="M4.16950099,1.65672696 C4.22965349,1.83167689 4.16090777,2.0326978 4.01425024,2.10542208 L0.496760881,3.85629355 C0.350676225,3.92901783 0.183394972,3.84600238 0.122669586,3.67105244 C0.0613713189,3.49610251 0.13068992,3.29576769 0.276774576,3.22304341 L3.79483681,1.47148586 C3.94149435,1.39876158 4.1087756,1.48177703 4.16950099,1.65672696" id="Fill-5"></path>
                        <path d="M1.58342403,0.807840492 L3.34653935,4.30125528 C3.4197722,4.44631647 3.33617621,4.61299462 3.16000285,4.67329457 C2.9838295,4.73359452 2.78140285,4.66476156 2.70886088,4.51970037 L0.945054685,1.02628558 C0.871821839,0.881224389 0.955417824,0.714546237 1.13159118,0.654246291 C1.30845541,0.594515212 1.51019118,0.662779302 1.58342403,0.807840492" id="Fill-7"></path>
                    </g>
                    <path d="M39.6119312,30.3984478 C38.9721413,31.0338507 37.9369496,31.0338507 37.2971597,30.3984478 C36.6585225,29.7641898 36.6585225,28.7349516 37.2971597,28.1006935 C37.9369496,27.4664355 38.9721413,27.4664355 39.6119312,28.1006935 C40.2505684,28.7349516 40.2505684,29.7641898 39.6119312,30.3984478" id="Fill-10"></path>
                    <path d="M52.3675906,102.487193 C52.3053377,101.591939 52.9855083,100.816892 53.8870225,100.753927 C54.7885367,100.692106 55.5690037,101.367553 55.6324094,102.262807 C55.6946623,103.158061 55.0144917,103.934253 54.1129775,103.996073 C53.2103104,104.057894 52.4298435,103.382447 52.3675906,102.487193" id="Fill-12"></path>
                    <path d="M76.0928862,63.4310965 C76.0617598,62.9834696 76.4018451,62.5959461 76.8526022,62.5644634 C77.3033593,62.5335531 77.6935927,62.8712767 77.7252956,63.3189035 C77.7564221,63.7665304 77.4163368,64.1546263 76.9655797,64.1855366 C76.5142461,64.2164469 76.1240127,63.8787233 76.0928862,63.4310965" id="Fill-12-Copy"></path>
                </g>
            </g>
        </g>
    </g>
</svg>