<?xml version="1.0" encoding="UTF-8"?>
<svg width="106px" height="68px" viewBox="0 0 106 68" version="1.1" xmlns="http://www.w3.org/2000/svg" xmlns:xlink="http://www.w3.org/1999/xlink">
    <!-- Generator: Sketch 61.2 (89653) - https://sketch.com -->
    <title>Group 14 Copy</title>
    <desc>Created with Sketch.</desc>
    <g id="Page-1" stroke="none" stroke-width="1" fill="none" fill-rule="evenodd" opacity="0.3">
        <g id="Home_tablet_992" transform="translate(-870.000000, -795.000000)" fill="#3088F4">
            <g id="003-Video" transform="translate(-1.000000, 450.000000)">
                <g id="Group-14-Copy" transform="translate(913.589573, 373.713581) rotate(58.000000) translate(-913.589573, -373.713581) translate(873.089573, 321.213581)">
                    <path d="M12.7779735,79.6322418 L13.1439053,79.6777984 C13.5052772,79.7142438 13.8666491,79.7404389 14.2360009,79.7404389 C20.342844,79.7404389 25.3119926,74.7747621 25.3119926,68.6724464 C25.3119926,62.5701308 20.342844,57.6055929 14.2360009,57.6055929 C8.12687781,57.6055929 3.15886918,62.5701308 3.15886918,68.6724464 C3.15886918,70.0687583 3.41650341,71.4309026 3.92493201,72.724712 C3.93519178,72.7531849 3.9477315,72.7839357 3.9568513,72.8135475 C3.98079076,72.861382 4.0058702,72.9103554 4.02752971,72.9616067 C5.5938546,76.7234485 8.78350309,79.1561746 12.7779735,79.6322418 M14.2360009,82.8952381 C13.7549316,82.8952381 13.2829822,82.8633484 12.8178726,82.8132361 C12.6844956,82.7995691 12.5431388,82.7859021 12.4040619,82.7619848 L12.401782,82.7654016 L12.4040619,82.7619848 L12.401782,82.7619848 L12.401782,82.7654016 C7.31863593,82.1594979 3.09959051,78.9466139 1.11033511,74.1722751 C1.09437547,74.133552 1.07841582,74.0948288 1.06701608,74.0549667 C1.03623677,74.0002987 1.00887738,73.9399361 0.982657971,73.8795735 C0.329452614,72.2167552 0,70.4651013 0,68.6724464 C0,60.8298661 6.38727681,54.4507937 14.2360009,54.4507937 C22.0858649,54.4507937 28.4697218,60.8298661 28.4697218,68.6724464 C28.4697218,76.5161657 22.0858649,82.8952381 14.2360009,82.8952381" id="Fill-1"></path>
                    <path d="M72.4586451,12.947559 L72.6467535,12.9709761 C72.832518,12.9897098 73.0182825,13.0031746 73.208149,13.0031746 C76.3473925,13.0031746 78.9018003,10.450712 78.9018003,7.313993 C78.9018003,4.17727402 76.3473925,1.62539683 73.208149,1.62539683 C70.0677334,1.62539683 67.5139116,4.17727402 67.5139116,7.313993 C67.5139116,8.03172676 67.6463494,8.7318977 67.9077088,9.396943 C67.9129829,9.41157869 67.919429,9.42738522 67.924117,9.44260633 C67.9364232,9.46719427 67.9493154,9.49236764 67.9604495,9.51871186 C68.7656242,11.4523779 70.4052739,12.7028504 72.4586451,12.947559 M73.2084422,14.6285714 C72.9610352,14.6285714 72.7183184,14.612171 72.4791192,14.586399 C72.4105253,14.5793702 72.3378275,14.5723415 72.2663022,14.5600412 L72.2651297,14.5617984 L72.2663022,14.5600412 L72.2651297,14.5600412 L72.2651297,14.5617984 C69.6509403,14.2501908 67.4811455,12.5978504 66.4580999,10.1424762 C66.449892,10.1225614 66.4416842,10.1026466 66.4358215,10.0821461 C66.4199921,10.0540312 66.4059216,10.0229876 66.3924373,9.99194394 C66.0565031,9.13678021 65.8870704,8.23592964 65.8870704,7.31399285 C65.8870704,3.28066581 69.1719556,0 73.2084422,0 C77.2455152,0 80.5286416,3.28066581 80.5286416,7.31399285 C80.5286416,11.3479056 77.2455152,14.6285714 73.2084422,14.6285714" id="Fill-1-Copy"></path>
                    <path d="M45.8982161,84.0354411 C45.7944604,84.0022352 45.68371,83.9933803 45.5729595,84.012197 C45.3444639,84.0498303 45.1567711,84.1948294 45.0681707,84.4007059 L41.8703977,91.7790559 C41.7806316,91.9860393 41.885553,92.1443208 41.9356822,92.2018777 C41.9834797,92.2572208 42.1163802,92.3822964 42.3297205,92.3457699 L51.0766731,90.8902448 C51.3949349,90.8382222 51.5837935,90.6832614 51.6653991,90.4552476 C51.7516679,90.2205926 51.6992071,89.9804033 51.5231722,89.796664 L46.1850014,84.2136461 C46.1057274,84.1295245 46.0066349,84.0697539 45.8982161,84.0354411 L45.8982161,84.0354411 Z M41.7584815,93.3840076 C41.4775251,93.2943516 41.223382,93.1283222 41.025197,92.8958809 C40.6591377,92.4619905 40.5693716,91.8731393 40.7908724,91.3584479 L43.9653296,84.036548 C44.2311306,83.4200252 44.7499089,83.024875 45.372443,82.9219367 C45.9938112,82.8178916 46.6198426,83.0215544 47.0488548,83.469834 L52.3858598,89.0528519 C52.84868,89.5365511 52.9920727,90.1940279 52.7694061,90.8138712 C52.549071,91.4270734 52.0174689,91.8587501 51.3471373,91.9694364 L42.5325687,93.437137 C42.2667677,93.4814115 42.0021324,93.461488 41.7584815,93.3840076 L41.7584815,93.3840076 Z" id="Fill-3"></path>
                    <g id="Group-9" transform="translate(41.484452, 0.000000)">
                        <path d="M8.34287911,2.83544381 C8.46031671,3.12039619 8.32610231,3.44781206 8.03977825,3.56626286 L1.17247465,6.41802159 C0.887269047,6.53647238 0.560680667,6.40125968 0.442124611,6.1163073 C0.322450102,5.83135492 0.457782958,5.50505651 0.742988564,5.38660571 L7.61141062,2.53372952 C7.89773468,2.41527873 8.22432306,2.55049143 8.34287911,2.83544381" id="Fill-5"></path>
                        <path d="M3.48129791,0.830273016 L6.33559088,7.69259683 C6.45414693,7.97754921 6.31881408,8.30496508 6.03360847,8.42341587 C5.74840286,8.54186667 5.42069603,8.40665397 5.30325843,8.12170159 L2.44784701,1.25937778 C2.32929096,0.974425397 2.46462381,0.647009524 2.74982942,0.52855873 C3.03615348,0.411225397 3.36274186,0.545320635 3.48129791,0.830273016" id="Fill-7"></path>
                    </g>
                    <g id="Group-9-Copy" transform="translate(76.547601, 54.450787) rotate(-46.000000) translate(-76.547601, -54.450787) translate(74.047601, 51.950787)">
                        <path d="M4.14523766,1.65713154 C4.20504013,1.83212419 4.13669445,2.03319418 3.99089035,2.10593623 L0.49387011,3.85723526 C0.348635556,3.9299773 0.182327753,3.84694157 0.121955742,3.67194892 C0.0610141845,3.49695626 0.129929404,3.29657252 0.275163958,3.22383047 L3.77275375,1.4718452 C3.91855785,1.39910315 4.08486565,1.48213888 4.14523766,1.65713154" id="Fill-5"></path>
                        <path d="M1.5742097,0.808037767 L3.32706503,4.30230565 C3.39987172,4.44740226 3.3167622,4.61412112 3.14161404,4.67443579 C2.96646588,4.73475046 2.7652172,4.66590069 2.69309737,4.52080408 L0.939555185,1.0265362 C0.866748498,0.881439584 0.949858018,0.714720729 1.12500618,0.654406058 C1.3008412,0.594660393 1.50140301,0.662941153 1.5742097,0.808037767" id="Fill-7"></path>
                    </g>
                    <path d="M39.3814199,30.4058711 C38.745353,31.0414292 37.7161854,31.0414292 37.0801186,30.4058711 C36.4451978,29.7714582 36.4451978,28.7419686 37.0801186,28.1075557 C37.7161854,27.4731428 38.745353,27.4731428 39.3814199,28.1075557 C40.0163407,28.7419686 40.0163407,29.7714582 39.3814199,30.4058711" id="Fill-10"></path>
                    <path d="M52.062851,102.51222 C52.0009604,101.616748 52.6771729,100.841512 53.573441,100.778531 C54.4697091,100.716695 55.2456343,101.392307 55.3086711,102.28778 C55.3705617,103.183252 54.6943492,103.959633 53.7980811,104.021469 C52.9006669,104.083305 52.1247417,103.407693 52.062851,102.51222" id="Fill-12"></path>
                    <path d="M75.6500835,63.4465863 C75.6191381,62.9988502 75.9572444,62.611232 76.4053784,62.5797417 C76.8535125,62.5488238 77.2414751,62.8866299 77.2729935,63.334366 C77.3039388,63.7821022 76.9658325,64.1702929 76.5176985,64.2012107 C76.0689914,64.2321286 75.6810288,63.8943225 75.6500835,63.4465863" id="Fill-12-Copy"></path>
                </g>
            </g>
        </g>
    </g>
</svg>