<svg width="30" height="24" viewBox="0 0 30 24" fill="none" xmlns="http://www.w3.org/2000/svg">
<path d="M29.9285 3.11455C29.4715 3.35501 28.9632 3.48246 28.4465 3.4862C27.9298 3.48993 27.4198 3.36984 26.9593 3.13602C28.2144 2.38648 28.2682 1.86055 28.72 0.443762C27.5311 1.15005 26.2297 1.64799 24.8723 1.91601C24.0411 1.0292 22.9615 0.41268 21.7741 0.14676C20.5867 -0.11916 19.3466 -0.0221559 18.2152 0.425137C17.0839 0.87243 16.1138 1.64928 15.4312 2.65449C14.7487 3.65971 14.3854 4.84669 14.3887 6.06083C14.3882 6.52558 14.4405 6.98888 14.5447 7.44185C12.1342 7.32075 9.77639 6.69441 7.62471 5.60362C5.47303 4.51283 3.57579 2.98206 2.05655 1.11101C1.28299 2.44548 1.04617 4.02322 1.394 5.52523C1.74182 7.02724 2.64833 8.34144 3.93022 9.2021C2.96836 9.17202 2.0277 8.91255 1.18696 8.4454V8.52054C1.18574 9.91875 1.66926 11.2743 2.55551 12.3575C3.44177 13.4406 4.67622 14.1845 6.04953 14.4632C5.15675 14.7052 4.22048 14.7413 3.31164 14.5687C3.69778 15.7697 4.45006 16.8205 5.46351 17.5744C6.47697 18.3284 7.70104 18.7479 8.96492 18.7744C6.42764 20.7621 3.20293 21.6629 0 21.2788C2.76976 23.0583 5.99513 24.003 9.28946 23.9997C11.5606 24.0135 13.8119 23.5769 15.9125 22.7153C18.0131 21.8536 19.9211 20.5841 21.5258 18.9805C23.1304 17.3768 24.3997 15.4711 25.2598 13.3738C26.1199 11.2766 26.5538 9.02979 26.5362 6.76386C26.5362 6.49911 26.5362 6.23972 26.52 5.98033C27.8137 5.22888 28.967 4.25925 29.9285 3.11455V3.11455Z" fill="#2C3543"/>
</svg>
