<svg xmlns="http://www.w3.org/2000/svg" width="1388.823" height="2977.486" viewBox="0 0 1388.823 2977.486">
    <defs>
        <style>
            .cls-1{fill:url(#linear-gradient)}
        </style>
        <linearGradient id="linear-gradient" x1=".393" x2=".634" y1="-.172" y2="1.22" gradientUnits="objectBoundingBox">
            <stop offset="0" stop-color="#44debc"/>
            <stop offset=".33" stop-color="#00d0b2"/>
            <stop offset="1" stop-color="#00cdb2"/>
        </linearGradient>
    </defs>
    <g id="Artwork_78" data-name="Artwork 78" transform="rotate(79 -555.789 1165.566)">
        <path id="Artwork_78-2" d="M2523.677 171.361c-1.025 22.2-2.961 44.177-5.921 66.152l6.148-45.544C2516.731 244 2503.751 294.9 2483.37 343.4l17.306-40.875a495.4 495.4 0 0 1-61.711 106.575l26.757-34.613a466.5 466.5 0 0 1-83.345 83.459l34.613-26.757a495.289 495.289 0 0 1-106.69 62.052l40.875-17.307c-47.593 20.039-97.691 33.019-148.814 39.965l45.544-6.148c-65.811 8.653-132.3 7.4-198-1.252l45.544 6.148c-88.355-11.955-174.432-37.232-256.525-71.731l40.875 17.307c-93.023-39.4-180.808-90.518-262.332-150.066-88.127-64.444-180.581-122.968-279.752-169.081C1246.063 98.491 1151.1 61.6 1051.7 42.244c-85.276-16.623-173.4-26.187-260.277-19.47-76.969 5.926-154.28 18.673-227.377 44.064C497.78 89.951 432.538 119.1 372.762 156.1c-89.721 55.567-173.062 125.59-241.95 205.747C92.213 406.821 53.729 454.415 23.9 505.879l-.911 1.594C1.012 546.641-6.275 595.942 5.794 639.436c10.93 39.737 41.672 82.776 78.677 102.359 39.737 20.95 87.9 31.539 131.963 17.307 42.128-13.663 80.157-39.281 102.359-78.677 9.109-16.168 19.7-31.539 30.514-46.568q9.792-13.663 20.039-26.985l-26.756 34.613a944.248 944.248 0 0 1 119.552-127.977q22.771-20.267 46.91-38.826l-34.613 26.757c54.425-41.9 113.631-77.31 176.823-104.181l-40.989 17.307a733.256 733.256 0 0 1 186.615-51.009l-45.544 6.144c68.2-8.995 137.2-8.2 205.4.911l-45.544-6.145c87.216 11.955 171.814 37.232 252.881 71.276l-40.875-17.307c68.771 29.148 134.923 64.33 198.343 103.726 69.454 43.153 133.329 94.162 202.442 137.77 72.3 45.657 148.472 81.865 227.263 114.77 60.8 25.277 123.651 45.658 188.1 59.093 140.5 29.376 286.014 34.613 425.833-1.48a559.737 559.737 0 0 0 74.692-25.049c36.208-15.029 72.187-29.831 105.889-50.1 54.083-32.564 106-73.781 147.22-121.943 25.277-29.6 49.643-60.915 70.023-94.275s37-72.528 52.489-110.33c27.9-67.974 39.509-139.705 47.365-212.347 1.708-15.6 2.847-31.2 3.53-46.8 1.936-42.583-20.495-91.429-50.212-121.146S2737.618-1.819 2694.92.116s-90.29 16.51-121.146 50.212-47.935 74.008-50.212 121.146z" class="cls-1" data-name="Artwork 78" transform="translate(-1433.255 -428.812)"/>
    </g>
</svg>
