<svg id="Layer_1" data-name="Layer 1" xmlns="http://www.w3.org/2000/svg" xmlns:xlink="http://www.w3.org/1999/xlink" viewBox="0 0 1280 800"><defs><style>.cls-1,.cls-11,.cls-13,.cls-6{fill:none;}.cls-2{fill:#f2f2f2;}.cls-3{clip-path:url(#clip-path);}.cls-4,.cls-5{fill:#3088f4;}.cls-4{opacity:0.18;}.cls-5{opacity:0.15;}.cls-12,.cls-6{stroke:#4c4fee;}.cls-10,.cls-11,.cls-12,.cls-13,.cls-14,.cls-6{stroke-linecap:round;}.cls-6{stroke-miterlimit:10;stroke-width:7px;}.cls-12,.cls-7{fill:#4c4fee;}.cls-10,.cls-8{fill:#fff;}.cls-9{fill:#2f2e40;}.cls-10{stroke:#2f2e40;}.cls-10,.cls-11,.cls-12,.cls-13,.cls-14{stroke-linejoin:round;}.cls-10,.cls-12,.cls-13,.cls-14{stroke-width:4px;}.cls-11{stroke:#fff;stroke-width:2px;}.cls-13{stroke:#3f3d54;}.cls-14{fill:#00d0b2;stroke:#00d0b2;}.cls-15{clip-path:url(#clip-path-2);}.cls-16{fill:#2c3543;}</style><clipPath id="clip-path"><rect class="cls-1" x="-1688.93" y="-738.8" width="1440" height="970"/></clipPath><clipPath id="clip-path-2"><path class="cls-1" d="M1232.89,393.18C1211.4,265.63,968.18,57.64,616.79,76.4,348.26,90.73,136.48,247.21,64.76,407c-32.55,72.51-30.17,156.31,8.5,225.74C156.63,782.41,325.55,721.29,487,647.43c134.65-61.61,285.29-78.1,430.32-48.22C1148.73,646.9,1263.87,577.09,1232.89,393.18Z"/></clipPath></defs><title>marketing-scientists-tools</title><path class="cls-2" d="M1232.89,393.18C1211.4,265.63,968.18,57.64,616.79,76.4,348.26,90.73,136.48,247.21,64.76,407c-32.55,72.51-30.17,156.31,8.5,225.74C156.63,782.41,325.55,721.29,487,647.43c134.65-61.61,285.29-78.1,430.32-48.22C1148.73,646.9,1263.87,577.09,1232.89,393.18Z"/><g class="cls-3"><path class="cls-4" d="M-911.46,60.54C-326.94,254,54.57,113,124.58-127c101-346.33-55.25-619.47-219.12-759.12-364.94-311-679.63-434.67-1156.86-321.59-232.41,55.07-407.54,107.84-548.92,200.59-269.94,177.1-364.59,530.71-214.25,816.41C-1778.68,257.54-1249.52-51.34-911.46,60.54Z"/><path class="cls-5" d="M-889.28,106.06C-283.44,212.58,73.25,18,107.67-229.49c49.66-357-144.38-604.35-326.6-718.65C-624.75-1202.7-953.75-1279.33-1409.1-1098.4c-221.77,88.11-387.25,165.65-513.56,277.83-241.17,214.18-283.5,577.44-93.48,838.08C-1718,426.46-1239.68,44.45-889.28,106.06Z"/></g><polyline class="cls-6" points="399.6 410.76 529.6 265.76 659.6 338.76 789.6 114.76"/><circle class="cls-7" cx="399.1" cy="410.76" r="28"/><circle class="cls-7" cx="529.1" cy="265.76" r="28"/><circle class="cls-7" cx="659.1" cy="338.76" r="28"/><circle class="cls-7" cx="789.1" cy="114.76" r="28"/><circle class="cls-8" cx="1020.06" cy="191.31" r="108.29"/><circle class="cls-8" cx="389.33" cy="141.02" r="103.86"/><circle class="cls-8" cx="210.73" cy="609.3" r="103.86"/><circle class="cls-8" cx="1122.52" cy="583.98" r="134.9"/><rect class="cls-9" x="340.51" y="102.28" width="95.83" height="69.43" rx="5.46"/><path class="cls-8" d="M378.12,150.91l22-12.66a1.42,1.42,0,0,0,0-2.44l-22-12.72a1.41,1.41,0,0,0-2.11,1.21l0,25.39A1.4,1.4,0,0,0,378.12,150.91Z"/><rect class="cls-9" x="163.54" y="548.59" width="96.27" height="117.12" rx="2.91"/><rect class="cls-8" x="174.69" y="559.74" width="73.96" height="73.96"/><path class="cls-9" d="M222.21,587.38l-.06-.08-.12-.18a4.26,4.26,0,0,0-7.24,0l-10.24,16.2a.83.83,0,0,1-1.4,0l-3.27-5.18,0,0,0-.05a2.77,2.77,0,0,0-1.7-1.26,2.7,2.7,0,0,0-2.93,1.19l-11.25,17.46a.83.83,0,0,0,.7,1.28h54.08a.83.83,0,0,0,.71-1.27Z"/><circle class="cls-9" cx="204.47" cy="582.92" r="6.18"/><path class="cls-8" d="M187.23,651.65l-5.57,5.71a.46.46,0,0,1-.65,0l-5.57-5.71a3.12,3.12,0,0,1-.65-2.79v-.05a4,4,0,0,1,3.36-2.93,3.75,3.75,0,0,1,3,1.14.21.21,0,0,0,.31,0,3.74,3.74,0,0,1,3-1.14,4,4,0,0,1,3.35,2.93l0,.05A3.12,3.12,0,0,1,187.23,651.65Z"/><circle class="cls-8" cx="1117.55" cy="571.59" r="45.93"/><path class="cls-10" d="M1154.28,610.94l38.5,38.5"/><path class="cls-9" d="M1079.5,533.54a53.8,53.8,0,1,0,76.09,0A53.81,53.81,0,0,0,1079.5,533.54Zm66,66a39.55,39.55,0,1,1,0-55.94A39.56,39.56,0,0,1,1145.51,599.56Z"/><path class="cls-9" d="M1104.42,190.93h-16.91v23.58a8.28,8.28,0,0,1-8.27,8.28H1028v13.54a4.13,4.13,0,0,0,4.13,4.13h35.74l16.5,10.49a1.42,1.42,0,0,0,2.18-1.19v-9.3h17.86a4.12,4.12,0,0,0,4.12-4.13V195.06A4.12,4.12,0,0,0,1104.42,190.93Z"/><path class="cls-9" d="M1029,187.6h55.38V145a8.29,8.29,0,0,0-8.28-8.28h-116a8.29,8.29,0,0,0-8.28,8.28v66.2a8.29,8.29,0,0,0,8.28,8.28h27v17.39a1.67,1.67,0,0,0,.86,1.46,1.72,1.72,0,0,0,.79.2,1.68,1.68,0,0,0,.89-.26l29.56-18.79h5.63V191.73A4.13,4.13,0,0,1,1029,187.6Z"/><path class="cls-9" d="M1084.34,211.18V187.6H1029a4.13,4.13,0,0,0-4.13,4.13v27.73h51.23A8.29,8.29,0,0,0,1084.34,211.18Z"/><line class="cls-11" x1="1060.5" y1="163.76" x2="979.2" y2="163.76"/><line class="cls-11" x1="1060.5" y1="178.54" x2="979.2" y2="178.54"/><line class="cls-11" x1="1060.5" y1="193.32" x2="979.2" y2="193.32"/><path class="cls-12" d="M248.62,328l-15.17,58.09a1.63,1.63,0,0,1-2.72.75L188,344.69a1.63,1.63,0,0,1,.71-2.73L246.6,326A1.64,1.64,0,0,1,248.62,328Z"/><rect class="cls-13" x="157.99" y="321.31" width="47.1" height="47.1" rx="4"/><rect class="cls-14" x="1065.95" y="314.59" width="42.68" height="42.68" rx="4" transform="translate(161.9 -326.41) rotate(18.42)"/><g class="cls-15"><path class="cls-16" d="M427.6,542.56V698.94q-24.77-1.22-49.49-2.91l-7.51-.53V542.56a8.82,8.82,0,0,1,8.82-8.82h39.36A8.82,8.82,0,0,1,427.6,542.56Z"/><path class="cls-16" d="M500.6,701.75V391.56a8.82,8.82,0,0,1,8.82-8.82h39.36a8.82,8.82,0,0,1,8.82,8.82h0V702.74Z"/><path class="cls-16" d="M630.6,702.94V470.56a8.82,8.82,0,0,1,8.82-8.82h39.36a8.82,8.82,0,0,1,8.82,8.82h0V702.29Z"/><path class="cls-16" d="M817.6,246.56V699.29q-28.5.81-57,1.52V246.56a8.82,8.82,0,0,1,8.82-8.82h39.36a8.82,8.82,0,0,1,8.82,8.82Z"/><path class="cls-16" d="M947.6,351.56V694.94c-19,.92-38,1.57-57,2.15V351.56a8.82,8.82,0,0,1,8.82-8.82h39.36a8.82,8.82,0,0,1,8.82,8.82Z"/></g></svg>