<?xml version="1.0" encoding="utf-8"?>
<!-- Generator: Adobe Illustrator 21.0.2, SVG Export Plug-In . SVG Version: 6.00 Build 0)  -->
<svg version="1.1" id="Capa_1" xmlns="http://www.w3.org/2000/svg" xmlns:xlink="http://www.w3.org/1999/xlink" x="0px" y="0px"
	 viewBox="0 0 1872.7 2493" style="enable-background:new 0 0 1872.7 2493;" xml:space="preserve">
<style type="text/css">
	.st0{clip-path:url(#SVGID_2_);}
	.st1{fill:#00CBAA;}
	.st2{fill:url(#Bkgrd_-_blue_gradient_1_);}
</style>
<title>partners-filler-illustration</title>
<g id="Layer_2">
	<g id="Layer_1-2">
		<g>
			<defs>
				<rect id="SVGID_1_" width="1870.9" height="2647.6"/>
			</defs>
			<clipPath id="SVGID_2_">
				<use xlink:href="#SVGID_1_"  style="overflow:visible;"/>
			</clipPath>
			<g class="st0">
				<path class="st1" d="M-422.8,2435.7c-69.4-15.4-126.7-65.1-150.1-132.2c-0.5-1.4-0.9-2.7-1.4-4.1c-43.6-133.8-74.6-263-91.9-384
					c-17.1-119.3-21.6-234.5-13.3-342.2c8.1-105.5,28.7-207,61.2-301.6c31.1-90.4,73.5-176.4,126.4-256
					c48.6-73.2,107.4-143,174.6-207.5c60-57.5,128.8-112.6,204.5-163.9c122.7-83.2,264.3-157.8,445.6-235
					C722.9,243.1,961,42.1,1021.4-172c23.1-81.9,20.8-167.4-7.1-254c-22.9-71.3-16.6-108.2-16.9-108.7c0.9,1.3-36.9-6.8-36.9-6.8
					l385.6-250.9c10.9,14.6,67.3,93.4,111,217.5c26.2,74.1,42.7,151.2,49.2,229.5c7.9,97.4-1.1,195.5-26.5,289.9
					c-45,167.1-140.9,323-285,463.4c-77.4,75.4-170.1,147.3-275.4,213.8C809.2,691.3,682,756.9,541.1,816.9
					c-155,66-273.3,128-372.4,195.1c-114.4,77.5-199.8,160.1-261.1,252.2c-68.1,102.6-106.2,217.4-116.5,351
					c-12.2,159.7,16.3,347.6,85.2,558.5c17.8,54.7,13.2,114.2-12.8,165.4c-6.5,12.8-17.6,26-30.7,38.5c-8.4,8.1-17.5,15.6-27,22.5
					c-54.2,39.1-122.1,54-188.1,43.1C-395.9,2441-411.2,2438.3-422.8,2435.7z"/>
				
					<linearGradient id="Bkgrd_-_blue_gradient_1_" gradientUnits="userSpaceOnUse" x1="916.9412" y1="2549.5276" x2="991.2197" y2="1192.6091" gradientTransform="matrix(1 0 0 -1 0 2494)">
					<stop  offset="0" style="stop-color:#3088F4"/>
					<stop  offset="0.11" style="stop-color:#367CF3"/>
					<stop  offset="0.32" style="stop-color:#3E6BF1"/>
					<stop  offset="0.47" style="stop-color:#4165F0"/>
					<stop  offset="0.72" style="stop-color:#4955EF"/>
					<stop  offset="0.92" style="stop-color:#4C4FEE"/>
				</linearGradient>
				<path id="Bkgrd_-_blue_gradient" class="st2" d="M1873.2,1162.1l-1.1-1196.8L-2-35.5v620.4
					C176.7,942.2,1273.8,534.8,1873.2,1162.1z"/>
			</g>
		</g>
	</g>
</g>
</svg>
