<svg id="Layer_1" data-name="Layer 1" xmlns="http://www.w3.org/2000/svg" viewBox="0 0 391.08 96.11"><defs><style>.cls-1{fill:#ee2437;fill-rule:evenodd;}</style></defs><title>ROVIO_LOGO_HORIZONTAL</title><path class="cls-1" d="M489.2,443.52c-0.08-2.44-.21-4.56-0.37-6.3a39.39,39.39,0,0,0-.68-4.64,37.94,37.94,0,0,0-1.05-3.83c-2.14-6.51-5.73-11.48-10.65-14.79s-11-5-18.17-5-13.14,1.67-18.05,5-8.5,8.28-10.65,14.79a37.11,37.11,0,0,0-1.05,3.83,38.59,38.59,0,0,0-.68,4.64c-0.16,1.74-.29,3.86-0.37,6.3s-0.12,5.36-.12,8.78,0,6.37.12,8.78,0.2,4.56.37,6.3a38.44,38.44,0,0,0,.68,4.64,37,37,0,0,0,1.05,3.83c2.14,6.51,5.73,11.49,10.65,14.79s11,5,18.05,5,13.27-1.67,18.17-5,8.5-8.28,10.65-14.79a37.83,37.83,0,0,0,1.05-3.83,39.27,39.27,0,0,0,.68-4.64c0.16-1.74.28-3.86,0.37-6.3s0.12-5.42.12-8.78S489.28,446,489.2,443.52ZM477,460.06c-0.08,2.16-.22,4.06-0.42,5.66s-0.4,2.94-.6,4a20.4,20.4,0,0,1-.65,2.66,17,17,0,0,1-6.1,8.81c-2.8,2-6.48,3-11,3s-8.14-1-10.89-3a17.18,17.18,0,0,1-6-8.82,20.08,20.08,0,0,1-.65-2.65c-0.2-1.09-.41-2.44-0.6-4s-0.34-3.5-.42-5.66-0.12-4.77-.12-7.76,0-5.6.12-7.76,0.22-4.06.42-5.66,0.4-3,.6-4a20.13,20.13,0,0,1,.65-2.66,17.18,17.18,0,0,1,6-8.81c2.76-2,6.42-3,10.89-3s8.16,1,11,3a17.06,17.06,0,0,1,6.1,8.82,20.42,20.42,0,0,1,.65,2.65c0.2,1.09.4,2.45,0.6,4s0.34,3.51.42,5.66,0.12,4.82.12,7.76S477.09,457.86,477,460.06Zm-64-49.73h-8.49a1.69,1.69,0,0,0-1.85,1.83v80.27a1.69,1.69,0,0,0,1.85,1.83H413a1.69,1.69,0,0,0,1.85-1.83V412.17A1.69,1.69,0,0,0,413,410.33Zm-21.65,0h-8.49a2.15,2.15,0,0,0-2.19,1.65l-19.93,62.41L340.07,412a2.24,2.24,0,0,0-2.31-1.65h-8.37A1.54,1.54,0,0,0,328,411a1.82,1.82,0,0,0-.07,1.64l26.82,80a2.08,2.08,0,0,0,2.05,1.66H364a2.07,2.07,0,0,0,2-1.64l26.71-80a1.83,1.83,0,0,0-.09-1.7A1.57,1.57,0,0,0,391.32,410.33Zm-68.48,26.89a39.29,39.29,0,0,0-.68-4.64,38.07,38.07,0,0,0-1.05-3.83c-2.15-6.51-5.73-11.48-10.65-14.79s-11-5-18.17-5-13.14,1.67-18.05,5-8.5,8.28-10.65,14.79a37,37,0,0,0-1.05,3.83,38.55,38.55,0,0,0-.68,4.64c-0.16,1.75-.29,3.87-0.37,6.3s-0.12,5.36-.12,8.78,0,6.37.12,8.78,0.2,4.56.37,6.3a38.49,38.49,0,0,0,.68,4.64,36.91,36.91,0,0,0,1.05,3.83c2.14,6.51,5.73,11.49,10.65,14.79s11,5,18.05,5,13.27-1.67,18.17-5,8.5-8.28,10.65-14.79a38.07,38.07,0,0,0,1.05-3.83,39.24,39.24,0,0,0,.68-4.64c0.16-1.75.29-3.87,0.37-6.3s0.12-5.42.12-8.78,0-6.31-.12-8.78S323,439,322.83,437.22ZM311,460.06c-0.08,2.16-.22,4.06-0.42,5.66s-0.4,2.95-.6,4a20.33,20.33,0,0,1-.65,2.66,17,17,0,0,1-6.1,8.81c-2.8,2-6.49,3-11,3s-8.14-1-10.89-3a17.17,17.17,0,0,1-6-8.82,20.1,20.1,0,0,1-.65-2.65c-0.2-1.09-.41-2.45-0.6-4s-0.34-3.51-.42-5.66-0.12-4.76-.12-7.76,0-5.61.12-7.76,0.22-4.06.42-5.66,0.4-3,.6-4a20.14,20.14,0,0,1,.65-2.66,17.18,17.18,0,0,1,6-8.81c2.76-2,6.42-3,10.89-3s8.16,1,11,3a17.06,17.06,0,0,1,6.1,8.82,20.33,20.33,0,0,1,.65,2.65c0.2,1.08.4,2.44,0.6,4s0.34,3.51.42,5.66,0.12,4.82.12,7.76S311.09,457.85,311,460.06Zm-75.7-2.42a24,24,0,0,0,11.55-8.26,23.73,23.73,0,0,0,4.51-14.6,25.49,25.49,0,0,0-1.94-10A22.05,22.05,0,0,0,244,417a24.83,24.83,0,0,0-8.38-4.93,32.1,32.1,0,0,0-10.82-1.74h-30a1.69,1.69,0,0,0-1.84,1.83v80.27a1.69,1.69,0,0,0,1.85,1.83h8.49a1.69,1.69,0,0,0,1.85-1.83V459.35c0-.05,0-0.09,0-0.1H223l16.31,33.42a2.25,2.25,0,0,0,2.17,1.6h9.84a1.49,1.49,0,0,0,1.39-.74,1.53,1.53,0,0,0-.11-1.62Zm-30.08-9.73h-0.1a0.49,0.49,0,0,1,0-.11v-26c0-.05,0-0.09,0-0.1h19.39c4.67,0,8.33,1.15,10.87,3.43s3.8,5.52,3.8,9.69-1.28,7.44-3.8,9.69-6.19,3.43-10.87,3.43H205.23Zm-39.83,5c6.05-5.1,9.25-11.57,9.39-20.86,0.18-11.58-7.52-23.13-21.1-27.92a88.78,88.78,0,0,0-24.38-4.46,129.46,129.46,0,0,0-21.64.68,33.77,33.77,0,0,0-6,1.12c-0.51.2-.8,0.46-0.69,0.59a1.92,1.92,0,0,0,1,.15c0.54,0,2.92-.21,7-0.19a114.14,114.14,0,0,1,18.16,1.66c16.69,2.78,26.83,10.22,26,22.57-0.65,9.78-17.43,14.28-32.72,20.34-13.78,5.46-19.92,12.18-21.66,19.16-2,7.86,1.66,16,6.19,23.1,1,1.61,2.07,3.18,3.19,4.63a1.35,1.35,0,0,0,1,.7,1.57,1.57,0,0,0-.07-0.83,28.49,28.49,0,0,1-.84-5.15c-0.08-4.9,2.55-9.05,9-13.16,5.19-3.3,12.85-6.57,23.55-10.17S159.69,457.71,165.39,452.91Zm8.69,40.15a37.41,37.41,0,0,1-9.53-5.05c-3.67-2.69-7.08-6.3-7.57-10.4-0.86-7.21,1.09-10.62,1.62-11.53a1.21,1.21,0,0,0,.23-0.86,1.19,1.19,0,0,0-.89,0c-1.34.27-8.79,2.92-13.14,6.92-2.81,2.59-5,5.84-4.29,10.26,0.69,4.19,4.05,7.24,7.57,9,3.83,1.95,8.75,2.74,13.51,3a88.22,88.22,0,0,0,12-.19,4.24,4.24,0,0,0,2-.5A5.06,5.06,0,0,0,174.09,493.05Z" transform="translate(-98.24 -399.5)"/></svg>