<svg id="Layer_1" data-name="Layer 1" xmlns="http://www.w3.org/2000/svg" xmlns:xlink="http://www.w3.org/1999/xlink" viewBox="0 0 40 40"><defs><style>.cls-1{fill:url(#linear-gradient);}.cls-2{fill:#2c3543;}</style><linearGradient id="linear-gradient" x1="20.77" y1="9.06" x2="20.77" y2="33.41" gradientUnits="userSpaceOnUse"><stop offset="0" stop-color="#8b3aa0"/><stop offset="1" stop-color="#8b3aa0" stop-opacity="0.7"/></linearGradient></defs><title>icon_ad_monetization</title><path class="cls-1" d="M36.28,8a3.57,3.57,0,0,0-2.47,6.16l-6.38,8.53A3.47,3.47,0,0,0,26,22.35a3.53,3.53,0,0,0-2.64,1.19,2.39,2.39,0,0,0-.21.26L19,21.43a3.6,3.6,0,0,0-3.32-4.94,3.57,3.57,0,0,0-2.6,6L8,27.87a3.87,3.87,0,0,0-.41-.4h0a3.52,3.52,0,0,0-2.3-.89,3.59,3.59,0,1,0,3.59,3.58,3.48,3.48,0,0,0-.38-1.55l5.26-5.53a3.55,3.55,0,0,0,1.93.57,3.62,3.62,0,0,0,2.89-1.46l4.14,2.36a3.5,3.5,0,0,0-.3,1.38,3.65,3.65,0,0,0,7.29.15,3.81,3.81,0,0,0-1.49-2.95l6.32-8.46a3.52,3.52,0,0,0,1.78.48,3.58,3.58,0,1,0,0-7.16Z"/><path class="cls-2" d="M35.12,6.25a3.62,3.62,0,0,0-2.51,6.23L26.17,21.1A3.53,3.53,0,0,0,22,22l-.21.25-4.2-2.39a3.53,3.53,0,0,0,.28-1.37,3.63,3.63,0,0,0-3.63-3.62,3.7,3.7,0,0,0-3.62,3.62,3.61,3.61,0,0,0,1,2.48l-5.14,5.4a5.29,5.29,0,0,0-.41-.41h0a3.59,3.59,0,0,0-2.32-.89,3.62,3.62,0,1,0,3.62,3.62A3.5,3.5,0,0,0,7,27.1l5.31-5.59a3.66,3.66,0,0,0,1.95.58,3.62,3.62,0,0,0,2.92-1.49L21.37,23a3.34,3.34,0,0,0-.3,1.39,3.69,3.69,0,0,0,7.37.15,3.85,3.85,0,0,0-1.51-3L33.32,13a3.53,3.53,0,0,0,1.8.48,3.62,3.62,0,1,0,0-7.24ZM3.76,31.41a2.74,2.74,0,1,1,0-5.48,2.74,2.74,0,0,1,1.75.68,2.71,2.71,0,0,1-1.75,4.8Zm10.5-10.2a2.72,2.72,0,0,1-2-4.56h0a2.71,2.71,0,0,1,2-.92,2.74,2.74,0,1,1,0,5.48Zm13.29,3.33a2.7,2.7,0,0,1-2.86,2.59A2.74,2.74,0,0,1,22,24.39,2.59,2.59,0,0,1,22.33,23h0a2.3,2.3,0,0,1,.35-.47,2.66,2.66,0,0,1,2-.92A3,3,0,0,1,27.55,24.54Zm7.57-11.93a2.74,2.74,0,0,1-2.74-2.74,2.69,2.69,0,0,1,.72-1.81h0a2.71,2.71,0,0,1,2-.93,2.74,2.74,0,1,1,0,5.48Z"/></svg>