<svg id="Layer_1" data-name="Layer 1" xmlns="http://www.w3.org/2000/svg" xmlns:xlink="http://www.w3.org/1999/xlink" viewBox="0 0 40 40"><defs><style>.cls-1{fill:url(#linear-gradient);}.cls-2{fill:#2c3543;}</style><linearGradient id="linear-gradient" x1="20.86" y1="13.37" x2="20.86" y2="37" gradientUnits="userSpaceOnUse"><stop offset="0" stop-color="#3088f4"/><stop offset="1" stop-color="#3088f4" stop-opacity="0.7"/></linearGradient></defs><title>icon_mobile_attribution</title><path class="cls-1" d="M30.23,24l-7.58-1.75-.24-6.45a2.35,2.35,0,0,0-2.22-2.46c-1.07,0-2.21.87-2.21,3.31l-.24,10.21c-1.48-.69-5.6-2.54-6.85-2.24a2.29,2.29,0,0,0-1.15.64,1.65,1.65,0,0,0-.48,1.15v.07a2.45,2.45,0,0,0,1.41,2.22c3.65,1.78,6.24,6.34,7,7.69a.89.89,0,0,0,.79.48H31.59a.89.89,0,0,0,.88-.89v-9.1A2.92,2.92,0,0,0,30.23,24Z"/><path class="cls-2" d="M12.63,20a9.77,9.77,0,0,0,2,1.26.4.4,0,0,0,.15,0,.34.34,0,0,0,.31-.2.35.35,0,0,0-.16-.46,8.82,8.82,0,1,1,9.78-1.52.35.35,0,0,0,0,.49.36.36,0,0,0,.49,0,9.25,9.25,0,0,0,1.45-1.73,9.51,9.51,0,1,0-14,2.12Z"/><path class="cls-2" d="M22.19,15.75a.35.35,0,0,0,.49-.06,5.06,5.06,0,0,0,1-3.76,5,5,0,0,0-9-2.36,5.05,5.05,0,0,0,.18,6.33.36.36,0,0,0,.27.12.31.31,0,0,0,.22-.09.34.34,0,0,0,0-.48,4.35,4.35,0,0,1,5.93-6.3,4.37,4.37,0,0,1,.83,6.12A.34.34,0,0,0,22.19,15.75Z"/><path class="cls-2" d="M28.5,21.73,20.92,20l-.24-6.45a2.36,2.36,0,0,0-2.22-2.47c-1.07,0-2.21.87-2.21,3.32L16,24.58c-1.48-.69-5.6-2.54-6.85-2.23A2.29,2.29,0,0,0,8,23a1.67,1.67,0,0,0-.48,1.15v.07A2.47,2.47,0,0,0,9,26.43c3.64,1.77,6.23,6.33,6.94,7.69a.9.9,0,0,0,.79.47H29.86a.88.88,0,0,0,.88-.88V24.6A2.9,2.9,0,0,0,28.5,21.73Zm1.55,12a.2.2,0,0,1-.19.19H16.68a.19.19,0,0,1-.17-.1c-.74-1.41-3.43-6.13-7.26-8a1.77,1.77,0,0,1-1-1.6v-.07a1,1,0,0,1,.29-.68A1.68,1.68,0,0,1,9.32,23l.21,0c1.18,0,4.63,1.45,6.67,2.44a.35.35,0,0,0,.33,0,.34.34,0,0,0,.16-.29l.25-10.75c0-1.62.59-2.63,1.52-2.63A1.68,1.68,0,0,1,20,13.54l.25,6.73a.33.33,0,0,0,.27.32l7.86,1.81a2.25,2.25,0,0,1,1.68,2.2Z"/></svg>