<svg id="Layer_1" data-name="Layer 1" xmlns="http://www.w3.org/2000/svg" xmlns:xlink="http://www.w3.org/1999/xlink" viewBox="0 0 40 40"><defs><style>.cls-1{fill:url(#linear-gradient);}.cls-2{fill:#2c3543;}</style><linearGradient id="linear-gradient" x1="21.47" y1="10.48" x2="21.47" y2="35.29" gradientUnits="userSpaceOnUse"><stop offset="0" stop-color="#00d0b2"/><stop offset="1" stop-color="#00d0b2" stop-opacity="0.7"/></linearGradient></defs><title>icon_cost_aggregation</title><circle class="cls-1" cx="21.47" cy="22.01" r="11.71"/><path class="cls-2" d="M34.57,23.89a.35.35,0,0,0-.45.25A14.68,14.68,0,0,1,5.36,20l.75,1.62a.36.36,0,0,0,.33.21.4.4,0,0,0,.15,0,.36.36,0,0,0,.18-.49L5.69,19a.52.52,0,0,0-.41-.3.53.53,0,0,0-.47.18L3.26,20.75a.36.36,0,0,0,0,.51.36.36,0,0,0,.52,0l.81-1a15.41,15.41,0,0,0,30.19,4.08A.37.37,0,0,0,34.57,23.89ZM5.16,19.63l0,.08-.06,0Z"/><path class="cls-2" d="M20,31.93A11.93,11.93,0,1,0,8.1,20,11.95,11.95,0,0,0,20,31.93ZM20,8.79A11.21,11.21,0,1,1,8.83,20,11.22,11.22,0,0,1,20,8.79Z"/><path class="cls-2" d="M36.7,18.66a.37.37,0,0,0-.52,0l-.81,1a15.41,15.41,0,0,0-30.19-4,.37.37,0,0,0,.25.45.35.35,0,0,0,.45-.25,14.68,14.68,0,0,1,28.76,4l-.75-1.62a.35.35,0,0,0-.48-.17.35.35,0,0,0-.18.48l1.08,2.31a.53.53,0,0,0,.41.31h.07a.53.53,0,0,0,.4-.19l1.55-1.83A.36.36,0,0,0,36.7,18.66Z"/><path class="cls-2" d="M20.16,24.43a2.85,2.85,0,0,1-2.66-1.32,1.15,1.15,0,0,0-1.58-.43l0,0a1.16,1.16,0,0,0-.43,1.57,4.89,4.89,0,0,0,3.65,2.42v.75a.92.92,0,0,0,1.84,0v-.72c2.32-.29,3.8-1.77,3.8-3.86,0-2.62-2.21-3.34-4.35-4l-.08,0C18.46,18.2,18,17.84,18,17s.74-1.47,1.88-1.47A2.43,2.43,0,0,1,22,16.65a1.17,1.17,0,0,0,1.54.35,1.22,1.22,0,0,0,.55-.74,1.17,1.17,0,0,0-.17-.91,4.78,4.78,0,0,0-3-2v-.79a.92.92,0,0,0-1.84,0v.73a3.79,3.79,0,0,0-3.5,3.8c0,2.56,2.2,3.27,4.14,3.89s2.65.93,2.65,1.91S21.58,24.43,20.16,24.43ZM20,20.29c-1.95-.63-3.63-1.17-3.63-3.2A3.16,3.16,0,0,1,19.51,14a.36.36,0,0,0,.33-.37v-1a.2.2,0,0,1,.19-.19.19.19,0,0,1,.19.19v1.06a.35.35,0,0,0,.31.39,4,4,0,0,1,2.79,1.75.41.41,0,0,1,.06.34.39.39,0,0,1-.2.27.43.43,0,0,1-.56-.13,3.18,3.18,0,0,0-2.76-1.42c-1.56,0-2.61.89-2.61,2.2S18.43,19,20.1,19.48l.08,0c2.06.68,3.84,1.26,3.84,3.35,0,1.8-1.32,3-3.46,3.16a.37.37,0,0,0-.34.38v1a.19.19,0,0,1-.19.19.2.2,0,0,1-.19-.19V26.39a.35.35,0,0,0-.32-.38,4.28,4.28,0,0,1-3.43-2.09.45.45,0,0,1,.16-.59l0,0a.42.42,0,0,1,.58.17,3.59,3.59,0,0,0,3.29,1.68c2.19,0,3-1.17,3-2.27C23.13,21.27,21.59,20.79,20,20.29Z"/></svg>