<svg id="Layer_1" data-name="Layer 1" xmlns="http://www.w3.org/2000/svg" xmlns:xlink="http://www.w3.org/1999/xlink" viewBox="0 0 40 40"><defs><style>.cls-1{fill:url(#linear-gradient);}.cls-2{fill:#2c3543;}</style><linearGradient id="linear-gradient" x1="21.19" y1="8.66" x2="21.19" y2="31.16" gradientUnits="userSpaceOnUse"><stop offset="0" stop-color="#ffb400"/><stop offset="1" stop-color="#ffb400" stop-opacity="0.7"/></linearGradient></defs><title>icon_marketing_etl</title><path class="cls-1" d="M21.19,31.2A11.25,11.25,0,1,1,32.44,20,11.27,11.27,0,0,1,21.19,31.2Z"/><path class="cls-2" d="M7.87,4.49a.66.66,0,0,0-.65-.11l-2.69,1A.51.51,0,0,0,4.22,6a.49.49,0,0,0,.64.3l1.45-.51a18.36,18.36,0,0,0-5.24,14,.5.5,0,0,0,.5.47h0a.52.52,0,0,0,.47-.53A17.32,17.32,0,0,1,7,6.5L6.85,8a.51.51,0,0,0,.46.55h0a.5.5,0,0,0,.5-.46l.29-3A.71.71,0,0,0,7.87,4.49Z"/><path class="cls-2" d="M38.75,17.84a.5.5,0,0,0-.7.13l-.92,1.34A18.33,18.33,0,0,0,32,5.16a.5.5,0,0,0-.71,0,.5.5,0,0,0,0,.71A17.31,17.31,0,0,1,36.15,19l-.75-1.24a.48.48,0,0,0-.68-.17.5.5,0,0,0-.18.68l1.56,2.61a.71.71,0,0,0,.58.34h0a.69.69,0,0,0,.57-.31l1.61-2.35A.49.49,0,0,0,38.75,17.84Z"/><path class="cls-2" d="M26.58,33.81a.5.5,0,0,0-.65-.29,17.32,17.32,0,0,1-14-.78l1.44-.18a.5.5,0,0,0-.13-1l-3,.39a.69.69,0,0,0-.54.39.72.72,0,0,0,0,.67l1.51,2.41a.52.52,0,0,0,.43.24.51.51,0,0,0,.42-.77l-.86-1.39a18.22,18.22,0,0,0,15,1A.52.52,0,0,0,26.58,33.81Z"/><path class="cls-2" d="M19.5,29.62A11.54,11.54,0,1,1,31,18.08,11.54,11.54,0,0,1,19.5,29.62Zm0-22.08A10.54,10.54,0,1,0,30,18.08,10.55,10.55,0,0,0,19.5,7.54Z"/></svg>