<svg id="Layer_1" data-name="Layer 1" xmlns="http://www.w3.org/2000/svg" xmlns:xlink="http://www.w3.org/1999/xlink" viewBox="0 0 40 40"><defs><style>.cls-1{fill:url(#linear-gradient);}.cls-2{fill:url(#linear-gradient-2);}.cls-3{fill:url(#linear-gradient-3);}.cls-4{fill:#2c3543;}</style><linearGradient id="linear-gradient" x1="32.61" y1="16.3" x2="32.61" y2="36.77" gradientUnits="userSpaceOnUse"><stop offset="0" stop-color="#4c4fee"/><stop offset="1" stop-color="#4c4fee" stop-opacity="0.7"/></linearGradient><linearGradient id="linear-gradient-2" x1="21.66" y1="16.3" x2="21.66" y2="36.77" xlink:href="#linear-gradient"/><linearGradient id="linear-gradient-3" x1="10.63" y1="16.3" x2="10.63" y2="36.77" xlink:href="#linear-gradient"/></defs><title>Artboard 1</title><rect class="cls-1" x="29.09" y="16.24" width="7.03" height="20.58" rx="1.31"/><rect class="cls-2" x="18.14" y="21.96" width="7.03" height="14.86" rx="1.31"/><rect class="cls-3" x="7.12" y="28.1" width="7.03" height="8.72" rx="1.31"/><path class="cls-4" d="M34.91,33.71h-.83V15.18A1.11,1.11,0,0,0,33,14.07H28.24a1.11,1.11,0,0,0-1.11,1.11V33.71H23.08V20.8A1.11,1.11,0,0,0,22,19.69H17.25a1.11,1.11,0,0,0-1.11,1.11V33.71H12.09V27A1.11,1.11,0,0,0,11,25.93H6.25A1.11,1.11,0,0,0,5.14,27v6.67H4a.44.44,0,0,0-.44.43.44.44,0,0,0,.44.44H34.91a.44.44,0,0,0,.43-.44A.43.43,0,0,0,34.91,33.71ZM6,33.71V27a.24.24,0,0,1,.24-.24H11a.24.24,0,0,1,.24.24v6.67Zm11,0V20.8a.24.24,0,0,1,.24-.24H22a.24.24,0,0,1,.24.24V33.71Zm11,0V15.18a.24.24,0,0,1,.24-.24H33a.24.24,0,0,1,.24.24V33.71Z"/><path class="cls-4" d="M8.62,21.8a.43.43,0,0,0,.25-.09l22-16.16-.73,2a.43.43,0,0,0,.26.56.32.32,0,0,0,.14,0,.43.43,0,0,0,.41-.29L32.13,4.5s0,0,0,0,0,0,0-.08,0,0,0,0h0a.09.09,0,0,1,0,0s0,0,0-.07h0a0,0,0,0,1,0,0l0,0,0,0,0,0L32,4l-.07,0,0,0H31.7L28.13,4a.42.42,0,0,0-.42.44.43.43,0,0,0,.43.42h0l2.21,0L8.36,21a.44.44,0,0,0,.26.79Z"/></svg>