<svg id="Layer_1" data-name="Layer 1" xmlns="http://www.w3.org/2000/svg" xmlns:xlink="http://www.w3.org/1999/xlink" viewBox="0 0 40 40"><defs><style>.cls-1{fill:url(#linear-gradient);}.cls-2{fill:#2c3543;}</style><linearGradient id="linear-gradient" x1="21.99" y1="10.19" x2="21.99" y2="35.5" gradientUnits="userSpaceOnUse"><stop offset="0" stop-color="#ff007b"/><stop offset="1" stop-color="#ff007b" stop-opacity="0.7"/></linearGradient></defs><title>icon_fraud_prevention</title><path class="cls-1" d="M25.56,19.35l-.13-.05a5,5,0,1,0-6.87,0l-.13.05A6.69,6.69,0,0,0,14.8,25.2v6.85a1.54,1.54,0,0,0,1.58,1.5H27.61a1.54,1.54,0,0,0,1.58-1.5V25.2A6.69,6.69,0,0,0,25.56,19.35Z"/><path class="cls-2" d="M23.57,17.33a.75.75,0,0,0-.13-.06,5,5,0,1,0-6.88,0,.75.75,0,0,0-.13.06,6.67,6.67,0,0,0-3.62,5.84V30a1.54,1.54,0,0,0,1.58,1.5H25.61A1.54,1.54,0,0,0,27.19,30V23.17A6.67,6.67,0,0,0,23.57,17.33Zm-7.86-3.74A4.31,4.31,0,1,1,17.37,17,4.29,4.29,0,0,1,15.71,13.59ZM26.44,30a.79.79,0,0,1-.83.74H14.39a.79.79,0,0,1-.83-.74V23.17A5.94,5.94,0,0,1,16.79,18a.68.68,0,0,1,.28-.07.6.6,0,0,1,.28.08,5.3,5.3,0,0,0,5.3,0,.59.59,0,0,1,.56,0,5.94,5.94,0,0,1,3.23,5.18Z"/><path class="cls-2" d="M22.09,14.76a1.32,1.32,0,0,0,.34,0,1.45,1.45,0,0,0,1.11-1.59.33.33,0,0,0-.15-.24.37.37,0,0,0-.29-.06h0l-2.12.5a.35.35,0,0,0-.23.18.37.37,0,0,0,0,.29A1.46,1.46,0,0,0,22.09,14.76Zm1-1.46a1,1,0,0,1-.77,1,1,1,0,0,1-1.12-.52Z"/><path class="cls-2" d="M17.91,14.76a1.46,1.46,0,0,0,1.37-1,.37.37,0,0,0,0-.29.35.35,0,0,0-.23-.18l-2.12-.5h0a.37.37,0,0,0-.29.06.33.33,0,0,0-.15.24,1.45,1.45,0,0,0,1.11,1.59A1.32,1.32,0,0,0,17.91,14.76Zm-1-1.46,1.89.45a1,1,0,0,1-1.12.52A1,1,0,0,1,16.91,13.3Z"/><path class="cls-2" d="M31.57,9.62a.38.38,0,0,0,.25-.1L35.68,6.1l-.11.82a.48.48,0,0,0,.4.52H36a.46.46,0,0,0,.45-.4l.24-1.86a.52.52,0,0,0,0-.27l0-.08a.47.47,0,0,0-.44-.24l-1.94.16a.46.46,0,1,0,.07.91l.78-.06L31.31,9a.38.38,0,0,0,0,.53A.37.37,0,0,0,31.57,9.62Z"/><path class="cls-2" d="M36.24,33a.38.38,0,0,0-.41-.35.39.39,0,0,0-.35.41l.07.88-3.44-3.88a.38.38,0,0,0-.57.5l3.51,4-.92-.12a.37.37,0,0,0-.42.33.38.38,0,0,0,.32.43l1.86.24H36a.39.39,0,0,0,.26-.1.36.36,0,0,0,.11-.2.3.3,0,0,0,0-.16Z"/><path class="cls-2" d="M36.84,20.59l-1.49-1.26a.37.37,0,0,0-.53,0,.38.38,0,0,0,0,.54l.7.59h-4a.38.38,0,0,0,0,.76h4l-.71.55a.37.37,0,0,0-.07.53.38.38,0,0,0,.3.15.4.4,0,0,0,.23-.08l1.49-1.15a.38.38,0,0,0,.13-.19L37,21A.38.38,0,0,0,36.84,20.59Z"/><path class="cls-2" d="M4,7.44H4a.48.48,0,0,0,.4-.52L4.32,6.1,8.18,9.52a.38.38,0,0,0,.25.1.37.37,0,0,0,.29-.13.38.38,0,0,0,0-.53L4.9,5.6l.78.06a.46.46,0,1,0,.07-.91L3.81,4.59a.47.47,0,0,0-.44.24l0,.08a.5.5,0,0,0-.05.27L3.52,7A.46.46,0,0,0,4,7.44Z"/><path class="cls-2" d="M7.89,30.07,4.45,34l.07-.88a.39.39,0,0,0-.35-.41.38.38,0,0,0-.41.35L3.61,35a.3.3,0,0,0,0,.16.36.36,0,0,0,.11.2.39.39,0,0,0,.26.1h.11L6,35.16a.38.38,0,0,0,.32-.43.37.37,0,0,0-.42-.33L5,34.52l3.51-4a.38.38,0,0,0-.57-.5Z"/><path class="cls-2" d="M8.43,20.5h-4l.7-.59a.38.38,0,0,0,0-.54.37.37,0,0,0-.53,0L3.16,20.59a.38.38,0,0,0-.11.4l0,.08a.38.38,0,0,0,.13.19l1.49,1.15a.4.4,0,0,0,.23.08.38.38,0,0,0,.3-.15.37.37,0,0,0-.07-.53l-.71-.55h4a.38.38,0,1,0,0-.76Z"/></svg>